M48
;GenerationSoftware,Autodesk,EAGLE,9.6.1*%
;CreationDate,2024-02-13T14:32:05Z*%
FMAT,2
ICI,OFF
METRIC,TZ,000.000
T5C0.250
T4C0.300
T3C0.350
T2C1.016
T1C2.440
%
G90
M71
T1
X-6213Y4023
X6474Y25944
T2
X-9366Y12700
X10001Y13494
X-9366Y17780
X-9366Y15240
T3
X1905Y25082
X635Y26352
X-5080Y21431
X2064Y21590
X952Y9525
X9525Y6191
X9684Y3969
X-1111Y6667
X-3492Y6667
X-2381Y8890
X-1111Y17304
X1270Y17304
X-1270Y12859
X1111Y12700
X-5080Y22701
X-5556Y18891
X-6509Y19685
X3969Y26511
X-6509Y10795
X5080Y6509
X4604Y19526
X9843Y18574
X-2381Y10636
X10795Y19368
X9049Y21431
X7302Y20479
X2699Y27622
X-3226Y15824
T4
X10134Y20945
X-6985Y7779
X2223Y19050
X794Y6826
X-5556Y8601
X-7657Y11784
X-3064Y868
X-10043Y9149
X-9643Y22680
X10340Y5615
X1511Y26863
T5
X4128Y9208
M30