M48
;GenerationSoftware,Autodesk,EAGLE,9.6.2*%
;CreationDate,2022-06-30T18:24:57Z*%
FMAT,2
ICI,OFF
METRIC,TZ,000.000
T3C0.350
T2C1.016
T1C2.440
%
G90
M71
T1
X28230Y23658
X40917Y45578
T2
X45148Y30167
X32001Y40965
X29461Y40965
X26921Y40965
T3
X45995Y33275
X34300Y24065
X36012Y45294
X27071Y32144
X31321Y24044
X25903Y42400
X24303Y44066
X20371Y32182
X22911Y32233
X47168Y39776
X48844Y38329
X23757Y35022
X33172Y22352
X25611Y27409
X41636Y40473
X23774Y42748
X44803Y27465
X36271Y47752
X39424Y30032
X29072Y30880
X37041Y28503
X33698Y30187
X35964Y39159
M30