G04 EAGLE Gerber RS-274X export*
G75*
%MOMM*%
%FSLAX34Y34*%
%LPD*%
%INTop Copper*%
%IPPOS*%
%AMOC8*
5,1,8,0,0,1.08239X$1,22.5*%
G01*
%ADD10C,1.000000*%
%ADD11R,1.378000X1.080000*%
%ADD12R,1.000000X1.400000*%
%ADD13R,1.100000X1.000000*%
%ADD14R,1.000000X1.100000*%
%ADD15R,0.800000X0.800000*%
%ADD16P,1.649562X8X22.500000*%
%ADD17C,1.524000*%
%ADD18C,0.750000*%
%ADD19C,0.304800*%
%ADD20C,0.604800*%
%ADD21C,0.554800*%
%ADD22C,0.254000*%
%ADD23C,0.203200*%

G36*
X-67572Y-1269D02*
X-67572Y-1269D01*
X-67544Y-1271D01*
X-67476Y-1249D01*
X-67405Y-1235D01*
X-67382Y-1219D01*
X-67366Y-1213D01*
X-29786Y-1213D01*
X-29766Y-1210D01*
X-29747Y-1212D01*
X-29645Y-1190D01*
X-29543Y-1174D01*
X-29526Y-1164D01*
X-29506Y-1160D01*
X-29417Y-1107D01*
X-29326Y-1059D01*
X-29312Y-1044D01*
X-29295Y-1034D01*
X-29228Y-955D01*
X-29156Y-880D01*
X-29148Y-862D01*
X-29135Y-847D01*
X-29096Y-751D01*
X-29053Y-657D01*
X-29051Y-637D01*
X-29043Y-619D01*
X-29025Y-452D01*
X-29025Y118D01*
X-29019Y125D01*
X-29001Y186D01*
X-28973Y242D01*
X-28956Y329D01*
X-28947Y360D01*
X-28947Y378D01*
X-28942Y407D01*
X-28786Y2486D01*
X-28789Y2521D01*
X-28784Y2555D01*
X-28800Y2643D01*
X-28808Y2731D01*
X-28821Y2763D01*
X-28828Y2797D01*
X-28862Y2869D01*
X-28787Y3196D01*
X-28781Y3301D01*
X-28769Y3405D01*
X-28773Y3423D01*
X-28772Y3441D01*
X-28799Y3542D01*
X-28822Y3645D01*
X-28831Y3661D01*
X-28836Y3679D01*
X-28894Y3766D01*
X-28948Y3856D01*
X-28962Y3868D01*
X-28972Y3884D01*
X-29055Y3948D01*
X-29135Y4016D01*
X-29152Y4023D01*
X-29167Y4034D01*
X-29265Y4069D01*
X-29363Y4108D01*
X-29386Y4111D01*
X-29399Y4115D01*
X-29430Y4116D01*
X-29530Y4127D01*
X-32522Y4127D01*
X-35187Y6791D01*
X-35187Y10559D01*
X-32522Y13224D01*
X-28754Y13224D01*
X-27477Y11947D01*
X-27403Y11894D01*
X-27333Y11834D01*
X-27303Y11822D01*
X-27277Y11803D01*
X-27190Y11777D01*
X-27105Y11742D01*
X-27064Y11738D01*
X-27042Y11731D01*
X-27010Y11732D01*
X-26938Y11724D01*
X-26712Y11724D01*
X-26711Y11724D01*
X-26585Y11745D01*
X-26470Y11764D01*
X-26469Y11764D01*
X-26468Y11764D01*
X-26354Y11825D01*
X-26252Y11879D01*
X-26251Y11880D01*
X-26166Y11970D01*
X-26083Y12057D01*
X-26083Y12058D01*
X-26082Y12059D01*
X-26004Y12207D01*
X-25901Y12470D01*
X-25844Y12514D01*
X-25770Y12562D01*
X-25748Y12590D01*
X-25721Y12611D01*
X-25621Y12746D01*
X-24520Y14653D01*
X-24508Y14685D01*
X-24489Y14714D01*
X-24465Y14800D01*
X-24433Y14883D01*
X-24432Y14918D01*
X-24423Y14951D01*
X-24423Y15031D01*
X-24022Y15534D01*
X-24006Y15563D01*
X-23958Y15628D01*
X-23637Y16182D01*
X-23575Y16218D01*
X-23494Y16254D01*
X-23468Y16278D01*
X-23438Y16295D01*
X-23320Y16414D01*
X-21947Y18135D01*
X-21940Y18149D01*
X-21937Y18151D01*
X-21933Y18161D01*
X-21930Y18166D01*
X-21907Y18191D01*
X-21870Y18272D01*
X-21827Y18350D01*
X-21820Y18384D01*
X-21806Y18416D01*
X-21794Y18494D01*
X-21323Y18932D01*
X-21302Y18958D01*
X-21245Y19015D01*
X-20846Y19516D01*
X-20779Y19542D01*
X-20693Y19566D01*
X-20665Y19585D01*
X-20632Y19598D01*
X-20498Y19697D01*
X-18883Y21195D01*
X-18862Y21222D01*
X-18835Y21244D01*
X-18787Y21319D01*
X-18733Y21389D01*
X-18721Y21422D01*
X-18702Y21451D01*
X-18679Y21527D01*
X-18147Y21890D01*
X-18123Y21912D01*
X-18058Y21961D01*
X-17589Y22396D01*
X-17519Y22412D01*
X-17431Y22423D01*
X-17399Y22438D01*
X-17366Y22445D01*
X-17217Y22524D01*
X-15398Y23764D01*
X-15373Y23788D01*
X-15343Y23806D01*
X-15284Y23872D01*
X-15220Y23934D01*
X-15204Y23964D01*
X-15181Y23990D01*
X-15147Y24062D01*
X-14567Y24341D01*
X-14540Y24360D01*
X-14468Y24398D01*
X-13939Y24759D01*
X-13867Y24764D01*
X-13778Y24761D01*
X-13745Y24772D01*
X-13711Y24774D01*
X-13553Y24830D01*
X-11569Y25785D01*
X-11540Y25805D01*
X-11508Y25818D01*
X-11440Y25875D01*
X-11367Y25926D01*
X-11347Y25954D01*
X-11320Y25976D01*
X-11276Y26042D01*
X-10661Y26232D01*
X-10631Y26247D01*
X-10555Y26273D01*
X-9978Y26551D01*
X-9906Y26545D01*
X-9819Y26530D01*
X-9784Y26535D01*
X-9750Y26532D01*
X-9585Y26564D01*
X-7481Y27213D01*
X-7450Y27228D01*
X-7416Y27236D01*
X-7340Y27282D01*
X-7261Y27322D01*
X-7236Y27347D01*
X-7207Y27365D01*
X-7153Y27423D01*
X-6516Y27519D01*
X-6485Y27529D01*
X-6405Y27544D01*
X-5793Y27733D01*
X-5724Y27717D01*
X-5639Y27688D01*
X-5605Y27688D01*
X-5571Y27680D01*
X-5403Y27687D01*
X-3226Y28015D01*
X-3193Y28026D01*
X-3158Y28028D01*
X-3077Y28063D01*
X-2992Y28090D01*
X-2964Y28111D01*
X-2932Y28125D01*
X-2870Y28174D01*
X-2227Y28174D01*
X-2194Y28180D01*
X-2113Y28183D01*
X-1480Y28278D01*
X-1413Y28251D01*
X-1334Y28211D01*
X-1300Y28206D01*
X-1268Y28193D01*
X-1101Y28174D01*
X1101Y28174D01*
X1135Y28180D01*
X1170Y28177D01*
X1256Y28200D01*
X1344Y28214D01*
X1374Y28230D01*
X1408Y28239D01*
X1477Y28279D01*
X2113Y28183D01*
X2146Y28183D01*
X2227Y28174D01*
X2867Y28174D01*
X2929Y28138D01*
X3001Y28086D01*
X3034Y28076D01*
X3064Y28058D01*
X3226Y28015D01*
X5403Y27687D01*
X5438Y27687D01*
X5472Y27680D01*
X5560Y27689D01*
X5649Y27690D01*
X5682Y27701D01*
X5717Y27705D01*
X5790Y27734D01*
X6405Y27544D01*
X6438Y27540D01*
X6516Y27519D01*
X7150Y27424D01*
X7205Y27378D01*
X7269Y27316D01*
X7300Y27301D01*
X7327Y27279D01*
X7481Y27213D01*
X9585Y26564D01*
X9619Y26559D01*
X9652Y26546D01*
X9741Y26542D01*
X9829Y26530D01*
X9863Y26536D01*
X9897Y26535D01*
X9975Y26553D01*
X10555Y26273D01*
X10586Y26264D01*
X10661Y26232D01*
X11272Y26043D01*
X11321Y25990D01*
X11374Y25919D01*
X11403Y25900D01*
X11426Y25874D01*
X11569Y25785D01*
X13553Y24830D01*
X13586Y24820D01*
X13616Y24803D01*
X13703Y24785D01*
X13788Y24760D01*
X13823Y24761D01*
X13857Y24755D01*
X13936Y24761D01*
X14468Y24398D01*
X14498Y24384D01*
X14567Y24341D01*
X15144Y24063D01*
X15183Y24004D01*
X15226Y23926D01*
X15251Y23902D01*
X15271Y23873D01*
X15398Y23764D01*
X17217Y22524D01*
X17249Y22509D01*
X17276Y22488D01*
X17360Y22457D01*
X17440Y22420D01*
X17475Y22416D01*
X17507Y22404D01*
X17587Y22398D01*
X18058Y21961D01*
X18086Y21942D01*
X18147Y21890D01*
X18676Y21529D01*
X18707Y21464D01*
X18737Y21381D01*
X18759Y21353D01*
X18774Y21322D01*
X18883Y21195D01*
X20498Y19697D01*
X20526Y19678D01*
X20550Y19653D01*
X20628Y19611D01*
X20703Y19561D01*
X20736Y19553D01*
X20766Y19536D01*
X20844Y19519D01*
X21245Y19015D01*
X21270Y18993D01*
X21323Y18932D01*
X21792Y18496D01*
X21813Y18428D01*
X21830Y18340D01*
X21848Y18310D01*
X21858Y18277D01*
X21947Y18135D01*
X23320Y16414D01*
X23345Y16391D01*
X23365Y16362D01*
X23437Y16308D01*
X23502Y16249D01*
X23534Y16235D01*
X23562Y16214D01*
X23636Y16185D01*
X23957Y15628D01*
X23978Y15602D01*
X24022Y15534D01*
X24421Y15033D01*
X24431Y14962D01*
X24435Y14873D01*
X24448Y14841D01*
X24453Y14807D01*
X24520Y14653D01*
X25621Y12746D01*
X25643Y12719D01*
X25658Y12688D01*
X25721Y12624D01*
X25777Y12556D01*
X25806Y12537D01*
X25831Y12513D01*
X25900Y12473D01*
X26135Y11874D01*
X26151Y11846D01*
X26184Y11771D01*
X26504Y11217D01*
X26504Y11145D01*
X26495Y11057D01*
X26502Y11023D01*
X26502Y10988D01*
X26546Y10826D01*
X27350Y8776D01*
X27368Y8747D01*
X27378Y8714D01*
X27430Y8642D01*
X27476Y8565D01*
X27502Y8542D01*
X27523Y8514D01*
X27585Y8465D01*
X27728Y7837D01*
X27740Y7807D01*
X27762Y7729D01*
X27995Y7133D01*
X27984Y7062D01*
X27962Y6976D01*
X27965Y6941D01*
X27959Y6907D01*
X27978Y6740D01*
X28468Y4593D01*
X28481Y4561D01*
X28487Y4527D01*
X28528Y4448D01*
X28561Y4366D01*
X28584Y4339D01*
X28600Y4309D01*
X28654Y4251D01*
X28702Y3609D01*
X28710Y3577D01*
X28719Y3496D01*
X28861Y2872D01*
X28840Y2803D01*
X28805Y2722D01*
X28803Y2687D01*
X28792Y2654D01*
X28786Y2486D01*
X28942Y407D01*
X28957Y346D01*
X28962Y283D01*
X28985Y227D01*
X29000Y168D01*
X29025Y128D01*
X29025Y-452D01*
X29028Y-472D01*
X29026Y-492D01*
X29048Y-593D01*
X29064Y-695D01*
X29074Y-712D01*
X29078Y-732D01*
X29131Y-821D01*
X29180Y-912D01*
X29194Y-926D01*
X29204Y-943D01*
X29283Y-1010D01*
X29358Y-1082D01*
X29376Y-1090D01*
X29391Y-1103D01*
X29487Y-1142D01*
X29581Y-1185D01*
X29601Y-1187D01*
X29619Y-1195D01*
X29786Y-1213D01*
X67369Y-1213D01*
X67384Y-1225D01*
X67412Y-1232D01*
X67436Y-1247D01*
X67536Y-1263D01*
X67577Y-1274D01*
X67587Y-1272D01*
X67600Y-1274D01*
X86600Y-1274D01*
X86676Y-1259D01*
X86754Y-1250D01*
X86773Y-1239D01*
X86795Y-1235D01*
X86826Y-1213D01*
X87436Y-1213D01*
X87504Y-1202D01*
X87572Y-1201D01*
X87624Y-1183D01*
X87679Y-1174D01*
X87739Y-1142D01*
X87804Y-1119D01*
X87848Y-1084D01*
X87896Y-1059D01*
X87943Y-1009D01*
X87997Y-967D01*
X88043Y-904D01*
X88066Y-880D01*
X88075Y-861D01*
X88096Y-831D01*
X109495Y36422D01*
X109504Y36444D01*
X109517Y36463D01*
X109547Y36559D01*
X109582Y36652D01*
X109583Y36675D01*
X109590Y36698D01*
X109587Y36798D01*
X109590Y36898D01*
X109584Y36920D01*
X109583Y36944D01*
X109549Y37038D01*
X109520Y37134D01*
X109507Y37153D01*
X109499Y37175D01*
X109436Y37253D01*
X109378Y37335D01*
X109360Y37348D01*
X109345Y37367D01*
X109261Y37421D01*
X109180Y37480D01*
X109158Y37487D01*
X109138Y37500D01*
X109041Y37524D01*
X108945Y37554D01*
X108922Y37554D01*
X108900Y37560D01*
X108800Y37552D01*
X108699Y37550D01*
X108678Y37542D01*
X108654Y37541D01*
X108562Y37501D01*
X108468Y37468D01*
X108449Y37453D01*
X108428Y37444D01*
X108297Y37339D01*
X103729Y32771D01*
X102389Y31432D01*
X84936Y31432D01*
X83819Y32548D01*
X83819Y61114D01*
X92873Y70168D01*
X100339Y70168D01*
X100386Y70176D01*
X100435Y70174D01*
X100507Y70196D01*
X100581Y70208D01*
X100624Y70231D01*
X100671Y70245D01*
X100732Y70288D01*
X100799Y70323D01*
X100832Y70358D01*
X100872Y70386D01*
X100916Y70447D01*
X100968Y70501D01*
X100989Y70545D01*
X101017Y70585D01*
X101040Y70656D01*
X101072Y70724D01*
X101077Y70773D01*
X101092Y70819D01*
X101096Y70946D01*
X101099Y70969D01*
X101097Y70976D01*
X101098Y70987D01*
X100935Y73150D01*
X100927Y73184D01*
X100927Y73219D01*
X100898Y73303D01*
X100877Y73389D01*
X100858Y73419D01*
X100847Y73451D01*
X100802Y73517D01*
X100850Y74159D01*
X100847Y74192D01*
X100850Y74273D01*
X100802Y74911D01*
X100834Y74976D01*
X100880Y75051D01*
X100888Y75085D01*
X100903Y75116D01*
X100934Y75281D01*
X101098Y77479D01*
X101095Y77514D01*
X101100Y77548D01*
X101084Y77636D01*
X101077Y77724D01*
X101063Y77756D01*
X101057Y77790D01*
X101022Y77862D01*
X101165Y78489D01*
X101167Y78522D01*
X101182Y78602D01*
X101230Y79240D01*
X101270Y79299D01*
X101328Y79367D01*
X101340Y79400D01*
X101360Y79428D01*
X101415Y79587D01*
X101905Y81736D01*
X101907Y81770D01*
X101917Y81803D01*
X101915Y81892D01*
X101920Y81981D01*
X101911Y82015D01*
X101910Y82049D01*
X101886Y82125D01*
X102121Y82724D01*
X102128Y82757D01*
X102155Y82833D01*
X102297Y83457D01*
X102346Y83509D01*
X102413Y83568D01*
X102430Y83598D01*
X102454Y83624D01*
X102532Y83772D01*
X103337Y85824D01*
X103344Y85858D01*
X103359Y85889D01*
X103370Y85978D01*
X103389Y86065D01*
X103385Y86099D01*
X103389Y86133D01*
X103377Y86212D01*
X103698Y86770D01*
X103710Y86800D01*
X103748Y86872D01*
X103982Y87468D01*
X104038Y87512D01*
X104113Y87561D01*
X104134Y87588D01*
X104162Y87609D01*
X104261Y87744D01*
X105362Y89654D01*
X105375Y89686D01*
X105394Y89715D01*
X105418Y89801D01*
X105449Y89884D01*
X105451Y89918D01*
X105460Y89952D01*
X105460Y90031D01*
X105861Y90535D01*
X105877Y90563D01*
X105925Y90629D01*
X106245Y91183D01*
X106307Y91219D01*
X106388Y91255D01*
X106414Y91279D01*
X106444Y91296D01*
X106562Y91415D01*
X107936Y93138D01*
X107953Y93169D01*
X107976Y93194D01*
X108013Y93276D01*
X108056Y93353D01*
X108063Y93387D01*
X108077Y93419D01*
X108088Y93497D01*
X108560Y93935D01*
X108580Y93961D01*
X108637Y94019D01*
X109037Y94519D01*
X109103Y94545D01*
X109189Y94569D01*
X109218Y94589D01*
X109250Y94601D01*
X109385Y94701D01*
X111000Y96201D01*
X111021Y96228D01*
X111048Y96250D01*
X111096Y96325D01*
X111151Y96395D01*
X111162Y96428D01*
X111181Y96457D01*
X111204Y96533D01*
X111736Y96896D01*
X111760Y96918D01*
X111825Y96967D01*
X112294Y97402D01*
X112364Y97418D01*
X112453Y97429D01*
X112484Y97444D01*
X112518Y97451D01*
X112666Y97530D01*
X114487Y98772D01*
X114512Y98796D01*
X114542Y98814D01*
X114600Y98880D01*
X114665Y98942D01*
X114681Y98972D01*
X114704Y98999D01*
X114738Y99070D01*
X115318Y99350D01*
X115345Y99368D01*
X115416Y99407D01*
X115945Y99767D01*
X116017Y99772D01*
X116106Y99770D01*
X116139Y99780D01*
X116174Y99783D01*
X116332Y99838D01*
X118317Y100795D01*
X118346Y100815D01*
X118378Y100828D01*
X118446Y100885D01*
X118519Y100936D01*
X118539Y100964D01*
X118566Y100987D01*
X118610Y101052D01*
X119225Y101242D01*
X119255Y101257D01*
X119331Y101284D01*
X119908Y101562D01*
X119980Y101556D01*
X120067Y101541D01*
X120101Y101546D01*
X120136Y101543D01*
X120301Y101574D01*
X122407Y102225D01*
X122438Y102240D01*
X122472Y102248D01*
X122548Y102295D01*
X122627Y102334D01*
X122651Y102359D01*
X122681Y102377D01*
X122735Y102435D01*
X123371Y102532D01*
X123403Y102542D01*
X123482Y102557D01*
X124094Y102746D01*
X124164Y102729D01*
X124248Y102701D01*
X124283Y102701D01*
X124317Y102693D01*
X124484Y102700D01*
X126664Y103029D01*
X126697Y103040D01*
X126731Y103042D01*
X126813Y103077D01*
X126898Y103104D01*
X126926Y103125D01*
X126958Y103139D01*
X127019Y103188D01*
X127663Y103188D01*
X127696Y103194D01*
X127777Y103197D01*
X128410Y103293D01*
X128476Y103266D01*
X128555Y103225D01*
X128590Y103220D01*
X128622Y103207D01*
X128789Y103189D01*
X130993Y103190D01*
X131027Y103195D01*
X131062Y103193D01*
X131148Y103215D01*
X131235Y103229D01*
X131266Y103246D01*
X131300Y103254D01*
X131368Y103294D01*
X132005Y103198D01*
X132038Y103199D01*
X132118Y103190D01*
X132759Y103190D01*
X132821Y103154D01*
X132893Y103102D01*
X132926Y103092D01*
X132956Y103074D01*
X133118Y103031D01*
X135298Y102703D01*
X135332Y102704D01*
X135366Y102696D01*
X135455Y102705D01*
X135543Y102706D01*
X135576Y102718D01*
X135611Y102721D01*
X135685Y102751D01*
X136300Y102561D01*
X136332Y102557D01*
X136410Y102536D01*
X137044Y102441D01*
X137100Y102395D01*
X137163Y102333D01*
X137194Y102318D01*
X137221Y102296D01*
X137375Y102230D01*
X139482Y101581D01*
X139501Y101578D01*
X139511Y101574D01*
X139525Y101572D01*
X139548Y101563D01*
X139637Y101559D01*
X139725Y101547D01*
X139759Y101554D01*
X139794Y101552D01*
X139871Y101570D01*
X140451Y101291D01*
X140483Y101281D01*
X140557Y101249D01*
X141169Y101061D01*
X141218Y101008D01*
X141271Y100937D01*
X141300Y100917D01*
X141323Y100892D01*
X141466Y100803D01*
X143346Y99898D01*
X143407Y99880D01*
X143464Y99853D01*
X143524Y99845D01*
X143582Y99828D01*
X143630Y99830D01*
X144322Y99431D01*
X144341Y99423D01*
X144372Y99404D01*
X144754Y99220D01*
X144865Y99188D01*
X144974Y99153D01*
X144982Y99153D01*
X144990Y99151D01*
X145106Y99155D01*
X145220Y99157D01*
X145228Y99160D01*
X145236Y99160D01*
X145344Y99201D01*
X145452Y99240D01*
X145458Y99245D01*
X145466Y99248D01*
X145555Y99321D01*
X145645Y99392D01*
X145651Y99400D01*
X145656Y99404D01*
X145668Y99422D01*
X145744Y99527D01*
X174053Y148809D01*
X174076Y148870D01*
X174108Y148928D01*
X174119Y148985D01*
X174139Y149039D01*
X174141Y149105D01*
X174154Y149169D01*
X174146Y149227D01*
X174148Y149285D01*
X174129Y149348D01*
X174120Y149413D01*
X174087Y149489D01*
X174077Y149520D01*
X174066Y149536D01*
X174053Y149567D01*
X145715Y198909D01*
X145642Y198998D01*
X145571Y199089D01*
X145564Y199093D01*
X145559Y199099D01*
X145462Y199161D01*
X145366Y199224D01*
X145358Y199226D01*
X145351Y199230D01*
X145240Y199258D01*
X145128Y199287D01*
X145120Y199287D01*
X145112Y199288D01*
X144997Y199279D01*
X144883Y199271D01*
X144874Y199268D01*
X144867Y199267D01*
X144847Y199258D01*
X144724Y199215D01*
X144372Y199046D01*
X144355Y199034D01*
X144322Y199019D01*
X143639Y198625D01*
X143629Y198626D01*
X143568Y198612D01*
X143505Y198608D01*
X143421Y198579D01*
X143389Y198571D01*
X143374Y198562D01*
X143346Y198552D01*
X141466Y197647D01*
X141437Y197627D01*
X141405Y197615D01*
X141337Y197557D01*
X141264Y197506D01*
X141244Y197478D01*
X141217Y197456D01*
X141172Y197390D01*
X140557Y197201D01*
X140528Y197186D01*
X140451Y197159D01*
X139874Y196882D01*
X139803Y196888D01*
X139715Y196903D01*
X139681Y196898D01*
X139647Y196901D01*
X139482Y196869D01*
X137375Y196220D01*
X137344Y196205D01*
X137310Y196197D01*
X137235Y196151D01*
X137155Y196111D01*
X137130Y196086D01*
X137101Y196068D01*
X137047Y196010D01*
X136411Y195914D01*
X136379Y195904D01*
X136300Y195889D01*
X135688Y195700D01*
X135618Y195717D01*
X135534Y195745D01*
X135499Y195745D01*
X135465Y195753D01*
X135298Y195747D01*
X133118Y195419D01*
X133085Y195408D01*
X133050Y195406D01*
X132968Y195371D01*
X132884Y195344D01*
X132856Y195323D01*
X132824Y195309D01*
X132762Y195260D01*
X132118Y195260D01*
X132086Y195255D01*
X132005Y195252D01*
X131372Y195156D01*
X131305Y195183D01*
X131226Y195224D01*
X131192Y195229D01*
X131159Y195242D01*
X130993Y195260D01*
X128789Y195261D01*
X128754Y195256D01*
X128720Y195258D01*
X128634Y195236D01*
X128546Y195222D01*
X128515Y195205D01*
X128482Y195197D01*
X128413Y195157D01*
X127777Y195253D01*
X127744Y195253D01*
X127663Y195262D01*
X127023Y195262D01*
X126961Y195298D01*
X126889Y195350D01*
X126856Y195360D01*
X126826Y195378D01*
X126664Y195421D01*
X124484Y195750D01*
X124449Y195750D01*
X124416Y195758D01*
X124327Y195748D01*
X124238Y195747D01*
X124206Y195736D01*
X124171Y195732D01*
X124097Y195703D01*
X123482Y195893D01*
X123450Y195898D01*
X123371Y195918D01*
X122738Y196014D01*
X122683Y196059D01*
X122619Y196121D01*
X122588Y196136D01*
X122561Y196158D01*
X122407Y196225D01*
X120301Y196876D01*
X120266Y196880D01*
X120234Y196893D01*
X120145Y196897D01*
X120057Y196909D01*
X120023Y196903D01*
X119988Y196904D01*
X119911Y196887D01*
X119526Y197072D01*
X119511Y197076D01*
X119498Y197085D01*
X119393Y197111D01*
X119290Y197142D01*
X119275Y197141D01*
X119260Y197145D01*
X119152Y197137D01*
X119044Y197132D01*
X119030Y197127D01*
X119015Y197126D01*
X118916Y197084D01*
X118814Y197045D01*
X118802Y197036D01*
X118788Y197029D01*
X118657Y196925D01*
X113448Y191715D01*
X113443Y191708D01*
X109920Y188185D01*
X109910Y188177D01*
X100802Y179069D01*
X89698Y179069D01*
X66357Y202411D01*
X66357Y207164D01*
X69309Y210116D01*
X69309Y210117D01*
X78586Y219393D01*
X87793Y219393D01*
X87883Y219408D01*
X87974Y219415D01*
X88004Y219428D01*
X88036Y219433D01*
X88117Y219476D01*
X88201Y219511D01*
X88233Y219537D01*
X88253Y219548D01*
X88276Y219571D01*
X88295Y219587D01*
X92684Y219587D01*
X92717Y219563D01*
X92787Y219504D01*
X92817Y219491D01*
X92843Y219473D01*
X92930Y219446D01*
X93015Y219412D01*
X93056Y219407D01*
X93078Y219400D01*
X93110Y219401D01*
X93182Y219393D01*
X96039Y219393D01*
X100967Y214466D01*
X100982Y214454D01*
X100994Y214440D01*
X101082Y214383D01*
X101167Y214322D01*
X101185Y214316D01*
X101201Y214306D01*
X101302Y214280D01*
X101402Y214250D01*
X101421Y214250D01*
X101439Y214245D01*
X101543Y214253D01*
X101648Y214256D01*
X101666Y214263D01*
X101685Y214264D01*
X101718Y214278D01*
X101720Y214278D01*
X101730Y214283D01*
X101780Y214305D01*
X101879Y214340D01*
X101894Y214352D01*
X101911Y214360D01*
X101936Y214380D01*
X101942Y214383D01*
X101955Y214395D01*
X102042Y214464D01*
X102049Y214471D01*
X102059Y214485D01*
X102071Y214494D01*
X102089Y214523D01*
X102120Y214553D01*
X102153Y214614D01*
X102193Y214671D01*
X102202Y214698D01*
X102204Y214701D01*
X102208Y214718D01*
X102209Y214723D01*
X102235Y214771D01*
X102246Y214839D01*
X102266Y214906D01*
X102265Y214960D01*
X102274Y215013D01*
X102261Y215122D01*
X102260Y215152D01*
X102257Y215162D01*
X102255Y215180D01*
X102155Y215617D01*
X102142Y215648D01*
X102121Y215726D01*
X101888Y216322D01*
X101899Y216393D01*
X101921Y216479D01*
X101918Y216513D01*
X101924Y216548D01*
X101905Y216714D01*
X101415Y218863D01*
X101402Y218895D01*
X101397Y218930D01*
X101356Y219009D01*
X101322Y219091D01*
X101300Y219118D01*
X101284Y219148D01*
X101230Y219206D01*
X101182Y219848D01*
X101174Y219880D01*
X101165Y219961D01*
X101023Y220585D01*
X101044Y220653D01*
X101079Y220735D01*
X101082Y220770D01*
X101092Y220803D01*
X101098Y220971D01*
X100934Y223169D01*
X100926Y223202D01*
X100926Y223237D01*
X100897Y223322D01*
X100876Y223408D01*
X100858Y223437D01*
X100847Y223470D01*
X100802Y223536D01*
X100850Y224177D01*
X100847Y224210D01*
X100850Y224291D01*
X100803Y224930D01*
X100834Y224994D01*
X100881Y225070D01*
X100889Y225104D01*
X100904Y225135D01*
X100935Y225300D01*
X101100Y227498D01*
X101097Y227532D01*
X101102Y227567D01*
X101087Y227654D01*
X101079Y227743D01*
X101065Y227775D01*
X101059Y227809D01*
X101024Y227880D01*
X101168Y228508D01*
X101170Y228541D01*
X101185Y228620D01*
X101233Y229259D01*
X101274Y229317D01*
X101331Y229386D01*
X101344Y229418D01*
X101363Y229446D01*
X101419Y229605D01*
X101910Y231754D01*
X101912Y231788D01*
X101922Y231821D01*
X101919Y231910D01*
X101925Y231999D01*
X101916Y232033D01*
X101915Y232067D01*
X101892Y232143D01*
X102127Y232742D01*
X102134Y232774D01*
X102160Y232851D01*
X102303Y233475D01*
X102352Y233527D01*
X102419Y233586D01*
X102436Y233616D01*
X102460Y233641D01*
X102538Y233790D01*
X103344Y235841D01*
X103352Y235875D01*
X103367Y235906D01*
X103377Y235995D01*
X103396Y236082D01*
X103392Y236116D01*
X103396Y236151D01*
X103385Y236229D01*
X103707Y236786D01*
X103718Y236817D01*
X103756Y236889D01*
X103990Y237485D01*
X104047Y237529D01*
X104121Y237577D01*
X104143Y237604D01*
X104170Y237626D01*
X104270Y237761D01*
X105372Y239669D01*
X105385Y239702D01*
X105404Y239731D01*
X105428Y239816D01*
X105459Y239899D01*
X105461Y239934D01*
X105470Y239968D01*
X105470Y240047D01*
X105871Y240550D01*
X105887Y240579D01*
X105935Y240644D01*
X106256Y241198D01*
X106318Y241234D01*
X106399Y241270D01*
X106425Y241294D01*
X106455Y241311D01*
X106573Y241430D01*
X107948Y243153D01*
X107965Y243183D01*
X107989Y243208D01*
X108025Y243289D01*
X108068Y243367D01*
X108075Y243401D01*
X108089Y243433D01*
X108101Y243511D01*
X108573Y243949D01*
X108593Y243975D01*
X108650Y244032D01*
X109050Y244533D01*
X109116Y244558D01*
X109202Y244582D01*
X109231Y244602D01*
X109263Y244614D01*
X109398Y244714D01*
X111014Y246213D01*
X111035Y246240D01*
X111063Y246262D01*
X111111Y246337D01*
X111165Y246407D01*
X111177Y246440D01*
X111195Y246469D01*
X111219Y246545D01*
X111751Y246907D01*
X111775Y246930D01*
X111840Y246978D01*
X112309Y247414D01*
X112379Y247429D01*
X112467Y247440D01*
X112499Y247455D01*
X112533Y247462D01*
X112681Y247541D01*
X114406Y248716D01*
X114451Y248760D01*
X114503Y248795D01*
X114540Y248844D01*
X114584Y248886D01*
X114606Y248928D01*
X115298Y249327D01*
X115314Y249340D01*
X115346Y249357D01*
X115766Y249643D01*
X115848Y249721D01*
X115933Y249798D01*
X115937Y249806D01*
X115944Y249813D01*
X115998Y249913D01*
X116053Y250012D01*
X116055Y250022D01*
X116059Y250030D01*
X116078Y250142D01*
X116099Y250254D01*
X116097Y250263D01*
X116099Y250273D01*
X116080Y250385D01*
X116065Y250498D01*
X116060Y250508D01*
X116059Y250516D01*
X116047Y250537D01*
X115998Y250651D01*
X87663Y299988D01*
X87619Y300041D01*
X87584Y300101D01*
X87542Y300136D01*
X87507Y300179D01*
X87449Y300215D01*
X87396Y300260D01*
X87346Y300281D01*
X87299Y300310D01*
X87232Y300326D01*
X87168Y300352D01*
X87092Y300360D01*
X87060Y300368D01*
X87039Y300366D01*
X87001Y300370D01*
X29815Y300286D01*
X29703Y300267D01*
X29590Y300251D01*
X29582Y300247D01*
X29572Y300246D01*
X29472Y300192D01*
X29370Y300141D01*
X29364Y300135D01*
X29355Y300130D01*
X29277Y300047D01*
X29197Y299967D01*
X29193Y299959D01*
X29186Y299952D01*
X29138Y299848D01*
X29088Y299746D01*
X29086Y299735D01*
X29083Y299728D01*
X29080Y299704D01*
X29057Y299581D01*
X29027Y299178D01*
X29029Y299157D01*
X29025Y299121D01*
X29025Y298332D01*
X29019Y298325D01*
X29001Y298264D01*
X28973Y298208D01*
X28956Y298121D01*
X28947Y298090D01*
X28947Y298072D01*
X28942Y298043D01*
X28786Y295964D01*
X28789Y295929D01*
X28784Y295895D01*
X28800Y295807D01*
X28807Y295719D01*
X28821Y295687D01*
X28828Y295653D01*
X28862Y295581D01*
X28719Y294954D01*
X28717Y294921D01*
X28702Y294841D01*
X28654Y294203D01*
X28613Y294144D01*
X28556Y294076D01*
X28543Y294043D01*
X28524Y294015D01*
X28468Y293857D01*
X27978Y291710D01*
X27976Y291675D01*
X27966Y291642D01*
X27969Y291553D01*
X27963Y291464D01*
X27972Y291431D01*
X27973Y291396D01*
X27997Y291320D01*
X27762Y290721D01*
X27755Y290689D01*
X27728Y290613D01*
X27586Y289988D01*
X27536Y289936D01*
X27470Y289877D01*
X27452Y289847D01*
X27428Y289822D01*
X27350Y289674D01*
X26546Y287624D01*
X26539Y287590D01*
X26524Y287559D01*
X26513Y287470D01*
X26494Y287383D01*
X26498Y287349D01*
X26494Y287315D01*
X26506Y287236D01*
X26184Y286679D01*
X26172Y286648D01*
X26135Y286576D01*
X25886Y285942D01*
X25869Y285931D01*
X25845Y285901D01*
X25814Y285876D01*
X25769Y285805D01*
X25716Y285739D01*
X25702Y285702D01*
X25682Y285669D01*
X25661Y285587D01*
X25632Y285507D01*
X25631Y285468D01*
X25621Y285431D01*
X25628Y285346D01*
X25626Y285261D01*
X25638Y285224D01*
X25641Y285186D01*
X25674Y285107D01*
X25699Y285027D01*
X25722Y284995D01*
X25737Y284959D01*
X25842Y284828D01*
X25941Y284729D01*
X27554Y283116D01*
X27628Y283063D01*
X27697Y283004D01*
X27727Y282992D01*
X27754Y282973D01*
X27841Y282946D01*
X27925Y282912D01*
X27966Y282907D01*
X27989Y282900D01*
X28021Y282901D01*
X28092Y282893D01*
X29364Y282893D01*
X41647Y270610D01*
X41655Y270605D01*
X45177Y267082D01*
X45185Y267072D01*
X46356Y265902D01*
X46356Y261148D01*
X29364Y244157D01*
X16673Y244157D01*
X-566Y261396D01*
X-1906Y262736D01*
X-1906Y264314D01*
X2755Y268975D01*
X2758Y268979D01*
X2762Y268982D01*
X2830Y269079D01*
X2898Y269174D01*
X2900Y269179D01*
X2903Y269184D01*
X2936Y269297D01*
X2971Y269410D01*
X2970Y269415D01*
X2972Y269420D01*
X2967Y269537D01*
X2964Y269655D01*
X2962Y269660D01*
X2962Y269665D01*
X2921Y269773D01*
X2880Y269886D01*
X2876Y269890D01*
X2875Y269895D01*
X2800Y269986D01*
X2726Y270078D01*
X2722Y270081D01*
X2718Y270085D01*
X2619Y270147D01*
X2519Y270211D01*
X2514Y270213D01*
X2510Y270215D01*
X2396Y270242D01*
X2281Y270272D01*
X2275Y270271D01*
X2270Y270272D01*
X2103Y270266D01*
X1480Y270172D01*
X1413Y270199D01*
X1334Y270239D01*
X1300Y270244D01*
X1268Y270257D01*
X1101Y270276D01*
X-1101Y270276D01*
X-1135Y270270D01*
X-1170Y270273D01*
X-1256Y270250D01*
X-1344Y270236D01*
X-1374Y270220D01*
X-1408Y270211D01*
X-1477Y270171D01*
X-2113Y270267D01*
X-2146Y270267D01*
X-2227Y270276D01*
X-2867Y270276D01*
X-2929Y270312D01*
X-3001Y270364D01*
X-3034Y270374D01*
X-3064Y270392D01*
X-3226Y270435D01*
X-5403Y270763D01*
X-5438Y270763D01*
X-5472Y270770D01*
X-5560Y270761D01*
X-5649Y270760D01*
X-5682Y270749D01*
X-5717Y270745D01*
X-5790Y270716D01*
X-6405Y270906D01*
X-6438Y270910D01*
X-6516Y270931D01*
X-7150Y271026D01*
X-7205Y271072D01*
X-7269Y271134D01*
X-7300Y271149D01*
X-7327Y271171D01*
X-7481Y271237D01*
X-9585Y271886D01*
X-9619Y271891D01*
X-9652Y271904D01*
X-9741Y271908D01*
X-9829Y271920D01*
X-9863Y271914D01*
X-9897Y271915D01*
X-9975Y271897D01*
X-10555Y272177D01*
X-10586Y272186D01*
X-10661Y272218D01*
X-11273Y272407D01*
X-11321Y272460D01*
X-11374Y272531D01*
X-11403Y272550D01*
X-11426Y272576D01*
X-11569Y272665D01*
X-13553Y273620D01*
X-13586Y273630D01*
X-13616Y273647D01*
X-13703Y273665D01*
X-13788Y273690D01*
X-13823Y273689D01*
X-13857Y273695D01*
X-13936Y273689D01*
X-14468Y274052D01*
X-14498Y274066D01*
X-14567Y274109D01*
X-15144Y274387D01*
X-15183Y274446D01*
X-15226Y274524D01*
X-15251Y274548D01*
X-15271Y274577D01*
X-15398Y274686D01*
X-17217Y275926D01*
X-17249Y275941D01*
X-17276Y275962D01*
X-17360Y275993D01*
X-17440Y276030D01*
X-17475Y276034D01*
X-17507Y276046D01*
X-17587Y276052D01*
X-18058Y276489D01*
X-18086Y276508D01*
X-18147Y276560D01*
X-18676Y276921D01*
X-18707Y276986D01*
X-18737Y277069D01*
X-18759Y277097D01*
X-18774Y277128D01*
X-18883Y277255D01*
X-20498Y278753D01*
X-20526Y278772D01*
X-20550Y278797D01*
X-20628Y278839D01*
X-20703Y278889D01*
X-20736Y278897D01*
X-20766Y278914D01*
X-20844Y278931D01*
X-21245Y279435D01*
X-21270Y279457D01*
X-21323Y279518D01*
X-21792Y279954D01*
X-21813Y280022D01*
X-21830Y280110D01*
X-21848Y280140D01*
X-21858Y280173D01*
X-21947Y280315D01*
X-23320Y282036D01*
X-23346Y282059D01*
X-23365Y282088D01*
X-23436Y282142D01*
X-23502Y282201D01*
X-23534Y282215D01*
X-23562Y282236D01*
X-23636Y282265D01*
X-23958Y282822D01*
X-23978Y282848D01*
X-24022Y282916D01*
X-24421Y283417D01*
X-24431Y283488D01*
X-24435Y283577D01*
X-24448Y283609D01*
X-24453Y283643D01*
X-24520Y283797D01*
X-25621Y285704D01*
X-25643Y285731D01*
X-25658Y285762D01*
X-25721Y285826D01*
X-25777Y285894D01*
X-25806Y285913D01*
X-25831Y285937D01*
X-25900Y285977D01*
X-26135Y286576D01*
X-26151Y286604D01*
X-26184Y286679D01*
X-26504Y287233D01*
X-26504Y287305D01*
X-26495Y287393D01*
X-26502Y287427D01*
X-26502Y287462D01*
X-26546Y287624D01*
X-27350Y289674D01*
X-27368Y289703D01*
X-27378Y289736D01*
X-27430Y289808D01*
X-27476Y289885D01*
X-27502Y289908D01*
X-27523Y289936D01*
X-27585Y289985D01*
X-27728Y290613D01*
X-27740Y290643D01*
X-27762Y290721D01*
X-27995Y291317D01*
X-27984Y291388D01*
X-27962Y291474D01*
X-27965Y291509D01*
X-27959Y291543D01*
X-27978Y291710D01*
X-28468Y293857D01*
X-28481Y293889D01*
X-28487Y293923D01*
X-28528Y294002D01*
X-28561Y294084D01*
X-28584Y294111D01*
X-28600Y294141D01*
X-28654Y294199D01*
X-28702Y294841D01*
X-28710Y294873D01*
X-28719Y294954D01*
X-28861Y295578D01*
X-28840Y295647D01*
X-28805Y295729D01*
X-28803Y295763D01*
X-28792Y295796D01*
X-28786Y295964D01*
X-28942Y298043D01*
X-28957Y298104D01*
X-28962Y298167D01*
X-28985Y298223D01*
X-29000Y298282D01*
X-29025Y298322D01*
X-29025Y299121D01*
X-29028Y299142D01*
X-29027Y299178D01*
X-29051Y299494D01*
X-29078Y299606D01*
X-29102Y299718D01*
X-29106Y299725D01*
X-29108Y299733D01*
X-29170Y299830D01*
X-29229Y299929D01*
X-29235Y299934D01*
X-29239Y299941D01*
X-29328Y300014D01*
X-29416Y300088D01*
X-29423Y300091D01*
X-29430Y300096D01*
X-29537Y300137D01*
X-29644Y300180D01*
X-29654Y300181D01*
X-29660Y300183D01*
X-29682Y300184D01*
X-29811Y300198D01*
X-86225Y300115D01*
X-86291Y300104D01*
X-86358Y300103D01*
X-86411Y300084D01*
X-86467Y300075D01*
X-86527Y300043D01*
X-86590Y300021D01*
X-86634Y299986D01*
X-86685Y299959D01*
X-86731Y299911D01*
X-86783Y299869D01*
X-86831Y299805D01*
X-86854Y299781D01*
X-86862Y299762D01*
X-86883Y299734D01*
X-115433Y250284D01*
X-115441Y250265D01*
X-115452Y250249D01*
X-115484Y250151D01*
X-115520Y250054D01*
X-115521Y250034D01*
X-115527Y250015D01*
X-115526Y249911D01*
X-115529Y249808D01*
X-115524Y249789D01*
X-115523Y249769D01*
X-115489Y249671D01*
X-115460Y249572D01*
X-115448Y249556D01*
X-115441Y249537D01*
X-115378Y249456D01*
X-115318Y249371D01*
X-115302Y249359D01*
X-115290Y249343D01*
X-115155Y249244D01*
X-114615Y248933D01*
X-114611Y248924D01*
X-114568Y248878D01*
X-114533Y248825D01*
X-114466Y248768D01*
X-114444Y248744D01*
X-114428Y248735D01*
X-114406Y248716D01*
X-112681Y247541D01*
X-112649Y247526D01*
X-112622Y247505D01*
X-112539Y247475D01*
X-112458Y247437D01*
X-112423Y247433D01*
X-112391Y247422D01*
X-112312Y247416D01*
X-111840Y246978D01*
X-111812Y246960D01*
X-111751Y246907D01*
X-111221Y246547D01*
X-111191Y246482D01*
X-111160Y246398D01*
X-111139Y246371D01*
X-111124Y246340D01*
X-111014Y246213D01*
X-109398Y244714D01*
X-109369Y244695D01*
X-109345Y244670D01*
X-109267Y244627D01*
X-109193Y244578D01*
X-109160Y244569D01*
X-109129Y244553D01*
X-109052Y244535D01*
X-108650Y244032D01*
X-108626Y244010D01*
X-108573Y243949D01*
X-108103Y243513D01*
X-108083Y243445D01*
X-108065Y243358D01*
X-108048Y243328D01*
X-108038Y243294D01*
X-107948Y243153D01*
X-106573Y241430D01*
X-106548Y241406D01*
X-106528Y241378D01*
X-106457Y241324D01*
X-106391Y241265D01*
X-106359Y241251D01*
X-106331Y241230D01*
X-106257Y241201D01*
X-105935Y240644D01*
X-105914Y240618D01*
X-105871Y240550D01*
X-105472Y240049D01*
X-105462Y239979D01*
X-105457Y239890D01*
X-105445Y239857D01*
X-105440Y239823D01*
X-105372Y239669D01*
X-104270Y237761D01*
X-104248Y237734D01*
X-104232Y237703D01*
X-104170Y237640D01*
X-104114Y237571D01*
X-104084Y237552D01*
X-104060Y237527D01*
X-103991Y237488D01*
X-103756Y236889D01*
X-103739Y236860D01*
X-103707Y236786D01*
X-103386Y236232D01*
X-103387Y236160D01*
X-103396Y236072D01*
X-103388Y236038D01*
X-103388Y236003D01*
X-103344Y235841D01*
X-102538Y233790D01*
X-102521Y233760D01*
X-102510Y233727D01*
X-102458Y233655D01*
X-102413Y233578D01*
X-102386Y233556D01*
X-102366Y233528D01*
X-102304Y233478D01*
X-102160Y232851D01*
X-102148Y232820D01*
X-102127Y232742D01*
X-101893Y232146D01*
X-101904Y232075D01*
X-101926Y231989D01*
X-101923Y231954D01*
X-101929Y231920D01*
X-101910Y231754D01*
X-101471Y229836D01*
X-101430Y229734D01*
X-101393Y229632D01*
X-101384Y229621D01*
X-101378Y229608D01*
X-101307Y229525D01*
X-101239Y229440D01*
X-101227Y229432D01*
X-101218Y229422D01*
X-101124Y229366D01*
X-101032Y229307D01*
X-101018Y229303D01*
X-101006Y229296D01*
X-100899Y229273D01*
X-100793Y229247D01*
X-100779Y229248D01*
X-100766Y229245D01*
X-100657Y229258D01*
X-100548Y229266D01*
X-100535Y229271D01*
X-100521Y229273D01*
X-100422Y229320D01*
X-100322Y229362D01*
X-100309Y229373D01*
X-100299Y229378D01*
X-100278Y229398D01*
X-100191Y229467D01*
X-98312Y231346D01*
X-94544Y231346D01*
X-91879Y228681D01*
X-91879Y224913D01*
X-94544Y222248D01*
X-96350Y222248D01*
X-96440Y222234D01*
X-96531Y222226D01*
X-96561Y222214D01*
X-96593Y222209D01*
X-96673Y222166D01*
X-96757Y222130D01*
X-96789Y222104D01*
X-96810Y222093D01*
X-96832Y222070D01*
X-96888Y222025D01*
X-101268Y217645D01*
X-101321Y217637D01*
X-101372Y217609D01*
X-101428Y217591D01*
X-101480Y217552D01*
X-101538Y217521D01*
X-101578Y217479D01*
X-101625Y217445D01*
X-101663Y217391D01*
X-101708Y217343D01*
X-101732Y217290D01*
X-101765Y217243D01*
X-101798Y217149D01*
X-101811Y217120D01*
X-101813Y217106D01*
X-101821Y217084D01*
X-101905Y216714D01*
X-101907Y216680D01*
X-101917Y216647D01*
X-101915Y216558D01*
X-101920Y216469D01*
X-101911Y216435D01*
X-101910Y216401D01*
X-101886Y216325D01*
X-102121Y215726D01*
X-102128Y215693D01*
X-102155Y215617D01*
X-102297Y214993D01*
X-102346Y214941D01*
X-102413Y214882D01*
X-102430Y214852D01*
X-102454Y214826D01*
X-102532Y214678D01*
X-103337Y212626D01*
X-103344Y212592D01*
X-103359Y212561D01*
X-103370Y212472D01*
X-103389Y212385D01*
X-103385Y212351D01*
X-103389Y212317D01*
X-103377Y212238D01*
X-103698Y211680D01*
X-103710Y211650D01*
X-103748Y211578D01*
X-103982Y210982D01*
X-104038Y210938D01*
X-104113Y210889D01*
X-104134Y210862D01*
X-104162Y210841D01*
X-104261Y210706D01*
X-105362Y208796D01*
X-105375Y208764D01*
X-105394Y208735D01*
X-105418Y208649D01*
X-105449Y208566D01*
X-105451Y208532D01*
X-105460Y208498D01*
X-105460Y208419D01*
X-105861Y207915D01*
X-105877Y207887D01*
X-105925Y207821D01*
X-106245Y207267D01*
X-106307Y207231D01*
X-106388Y207195D01*
X-106414Y207171D01*
X-106444Y207154D01*
X-106562Y207035D01*
X-107936Y205312D01*
X-107953Y205281D01*
X-107976Y205256D01*
X-108013Y205174D01*
X-108056Y205097D01*
X-108063Y205063D01*
X-108077Y205031D01*
X-108088Y204953D01*
X-108560Y204515D01*
X-108580Y204489D01*
X-108637Y204431D01*
X-109037Y203930D01*
X-109103Y203905D01*
X-109189Y203881D01*
X-109218Y203861D01*
X-109250Y203849D01*
X-109385Y203749D01*
X-111000Y202249D01*
X-111021Y202222D01*
X-111048Y202200D01*
X-111096Y202125D01*
X-111151Y202055D01*
X-111162Y202022D01*
X-111181Y201993D01*
X-111204Y201917D01*
X-111736Y201554D01*
X-111760Y201532D01*
X-111825Y201483D01*
X-112294Y201048D01*
X-112364Y201032D01*
X-112453Y201021D01*
X-112484Y201006D01*
X-112518Y200999D01*
X-112666Y200920D01*
X-114487Y199678D01*
X-114512Y199654D01*
X-114542Y199636D01*
X-114600Y199570D01*
X-114665Y199508D01*
X-114681Y199478D01*
X-114704Y199451D01*
X-114738Y199380D01*
X-115318Y199100D01*
X-115345Y199082D01*
X-115416Y199043D01*
X-115945Y198683D01*
X-116017Y198678D01*
X-116106Y198680D01*
X-116139Y198670D01*
X-116174Y198667D01*
X-116332Y198612D01*
X-118317Y197655D01*
X-118346Y197635D01*
X-118378Y197622D01*
X-118446Y197565D01*
X-118519Y197514D01*
X-118539Y197486D01*
X-118566Y197463D01*
X-118610Y197398D01*
X-119225Y197208D01*
X-119255Y197193D01*
X-119331Y197166D01*
X-119908Y196888D01*
X-119980Y196894D01*
X-120067Y196909D01*
X-120101Y196904D01*
X-120136Y196907D01*
X-120301Y196876D01*
X-122407Y196225D01*
X-122438Y196210D01*
X-122472Y196202D01*
X-122548Y196155D01*
X-122627Y196116D01*
X-122651Y196091D01*
X-122681Y196073D01*
X-122735Y196015D01*
X-123371Y195918D01*
X-123403Y195908D01*
X-123482Y195893D01*
X-124094Y195704D01*
X-124164Y195721D01*
X-124248Y195749D01*
X-124283Y195749D01*
X-124317Y195757D01*
X-124484Y195750D01*
X-126664Y195421D01*
X-126697Y195410D01*
X-126731Y195408D01*
X-126813Y195373D01*
X-126898Y195346D01*
X-126926Y195325D01*
X-126958Y195311D01*
X-127019Y195262D01*
X-127663Y195262D01*
X-127696Y195256D01*
X-127777Y195253D01*
X-128410Y195157D01*
X-128476Y195184D01*
X-128555Y195225D01*
X-128590Y195230D01*
X-128622Y195243D01*
X-128789Y195261D01*
X-130993Y195260D01*
X-131027Y195255D01*
X-131062Y195257D01*
X-131148Y195235D01*
X-131235Y195221D01*
X-131266Y195204D01*
X-131300Y195196D01*
X-131368Y195156D01*
X-132005Y195252D01*
X-132038Y195251D01*
X-132118Y195260D01*
X-132759Y195260D01*
X-132821Y195296D01*
X-132893Y195348D01*
X-132926Y195358D01*
X-132956Y195376D01*
X-133118Y195419D01*
X-135298Y195747D01*
X-135332Y195746D01*
X-135366Y195754D01*
X-135454Y195745D01*
X-135543Y195744D01*
X-135576Y195732D01*
X-135611Y195729D01*
X-135685Y195699D01*
X-136300Y195889D01*
X-136332Y195893D01*
X-136411Y195914D01*
X-137044Y196009D01*
X-137099Y196055D01*
X-137163Y196117D01*
X-137194Y196132D01*
X-137221Y196154D01*
X-137375Y196220D01*
X-139482Y196869D01*
X-139516Y196874D01*
X-139548Y196887D01*
X-139637Y196891D01*
X-139725Y196903D01*
X-139759Y196896D01*
X-139794Y196898D01*
X-139871Y196880D01*
X-140451Y197159D01*
X-140483Y197169D01*
X-140557Y197201D01*
X-141169Y197389D01*
X-141218Y197442D01*
X-141271Y197513D01*
X-141300Y197533D01*
X-141323Y197558D01*
X-141466Y197647D01*
X-143346Y198552D01*
X-143407Y198570D01*
X-143464Y198597D01*
X-143524Y198605D01*
X-143582Y198622D01*
X-143630Y198620D01*
X-144195Y198946D01*
X-144214Y198953D01*
X-144230Y198965D01*
X-144328Y198997D01*
X-144425Y199033D01*
X-144445Y199034D01*
X-144464Y199040D01*
X-144568Y199038D01*
X-144671Y199042D01*
X-144690Y199037D01*
X-144710Y199036D01*
X-144807Y199002D01*
X-144907Y198972D01*
X-144923Y198961D01*
X-144942Y198954D01*
X-145023Y198890D01*
X-145108Y198831D01*
X-145120Y198815D01*
X-145136Y198803D01*
X-145235Y198668D01*
X-164060Y166062D01*
X-164090Y166025D01*
X-164120Y165995D01*
X-164124Y165985D01*
X-164133Y165974D01*
X-171962Y152376D01*
X-172583Y151300D01*
X-172586Y151291D01*
X-173633Y149474D01*
X-173657Y149401D01*
X-173688Y149331D01*
X-173688Y149307D01*
X-173696Y149285D01*
X-173690Y149209D01*
X-173691Y149132D01*
X-173681Y149108D01*
X-173680Y149087D01*
X-173659Y149048D01*
X-173640Y148996D01*
X-173639Y148990D01*
X-173637Y148988D01*
X-173633Y148976D01*
X-164133Y132476D01*
X-164114Y132454D01*
X-164101Y132428D01*
X-164048Y132380D01*
X-164001Y132327D01*
X-163975Y132314D01*
X-163954Y132295D01*
X-163886Y132272D01*
X-163822Y132241D01*
X-163793Y132240D01*
X-163766Y132230D01*
X-163694Y132235D01*
X-163623Y132232D01*
X-163596Y132242D01*
X-163567Y132244D01*
X-163477Y132286D01*
X-163437Y132301D01*
X-163429Y132308D01*
X-163416Y132314D01*
X-162447Y132983D01*
X-143698Y100510D01*
X-143626Y100422D01*
X-143556Y100331D01*
X-143548Y100326D01*
X-143542Y100320D01*
X-143446Y100259D01*
X-143350Y100196D01*
X-143342Y100194D01*
X-143334Y100189D01*
X-143223Y100162D01*
X-143113Y100133D01*
X-143104Y100133D01*
X-143095Y100131D01*
X-142981Y100141D01*
X-142867Y100149D01*
X-142857Y100152D01*
X-142850Y100153D01*
X-142828Y100162D01*
X-142709Y100205D01*
X-141466Y100803D01*
X-141437Y100823D01*
X-141405Y100835D01*
X-141337Y100893D01*
X-141264Y100944D01*
X-141244Y100972D01*
X-141217Y100994D01*
X-141172Y101060D01*
X-140557Y101249D01*
X-140528Y101264D01*
X-140451Y101291D01*
X-139874Y101568D01*
X-139803Y101562D01*
X-139715Y101547D01*
X-139681Y101552D01*
X-139647Y101549D01*
X-139482Y101581D01*
X-137375Y102230D01*
X-137344Y102245D01*
X-137310Y102253D01*
X-137235Y102299D01*
X-137155Y102339D01*
X-137130Y102364D01*
X-137101Y102382D01*
X-137047Y102440D01*
X-136411Y102536D01*
X-136379Y102546D01*
X-136300Y102561D01*
X-135688Y102750D01*
X-135618Y102733D01*
X-135534Y102705D01*
X-135499Y102705D01*
X-135465Y102697D01*
X-135298Y102703D01*
X-133118Y103031D01*
X-133085Y103042D01*
X-133050Y103044D01*
X-132968Y103079D01*
X-132884Y103106D01*
X-132856Y103127D01*
X-132824Y103141D01*
X-132762Y103190D01*
X-132118Y103190D01*
X-132086Y103195D01*
X-132005Y103198D01*
X-131372Y103294D01*
X-131305Y103267D01*
X-131226Y103226D01*
X-131192Y103221D01*
X-131159Y103208D01*
X-130993Y103190D01*
X-128789Y103189D01*
X-128754Y103194D01*
X-128720Y103192D01*
X-128634Y103214D01*
X-128546Y103228D01*
X-128515Y103245D01*
X-128482Y103253D01*
X-128413Y103293D01*
X-127777Y103197D01*
X-127744Y103197D01*
X-127663Y103188D01*
X-127023Y103188D01*
X-126961Y103152D01*
X-126889Y103100D01*
X-126856Y103090D01*
X-126826Y103072D01*
X-126664Y103029D01*
X-124484Y102700D01*
X-124449Y102700D01*
X-124416Y102692D01*
X-124327Y102702D01*
X-124238Y102703D01*
X-124206Y102714D01*
X-124171Y102718D01*
X-124097Y102747D01*
X-123482Y102557D01*
X-123450Y102552D01*
X-123371Y102532D01*
X-122738Y102436D01*
X-122683Y102391D01*
X-122619Y102329D01*
X-122588Y102314D01*
X-122561Y102292D01*
X-122407Y102225D01*
X-120301Y101574D01*
X-120266Y101570D01*
X-120234Y101557D01*
X-120145Y101553D01*
X-120057Y101541D01*
X-120023Y101547D01*
X-119988Y101546D01*
X-119911Y101563D01*
X-119331Y101284D01*
X-119300Y101275D01*
X-119225Y101242D01*
X-118613Y101053D01*
X-118565Y101000D01*
X-118511Y100929D01*
X-118483Y100910D01*
X-118459Y100884D01*
X-118317Y100795D01*
X-116332Y99838D01*
X-116299Y99828D01*
X-116268Y99811D01*
X-116181Y99794D01*
X-116096Y99769D01*
X-116061Y99770D01*
X-116027Y99763D01*
X-115948Y99769D01*
X-115416Y99407D01*
X-115393Y99396D01*
X-115377Y99382D01*
X-115356Y99374D01*
X-115318Y99350D01*
X-114741Y99072D01*
X-114701Y99012D01*
X-114659Y98934D01*
X-114633Y98910D01*
X-114614Y98881D01*
X-114487Y98772D01*
X-112666Y97530D01*
X-112634Y97515D01*
X-112607Y97494D01*
X-112524Y97464D01*
X-112443Y97426D01*
X-112408Y97422D01*
X-112376Y97410D01*
X-112297Y97405D01*
X-111825Y96967D01*
X-111798Y96948D01*
X-111736Y96896D01*
X-111207Y96535D01*
X-111177Y96470D01*
X-111146Y96386D01*
X-111125Y96359D01*
X-111110Y96328D01*
X-111000Y96201D01*
X-109385Y94701D01*
X-109356Y94682D01*
X-109332Y94657D01*
X-109254Y94614D01*
X-109180Y94565D01*
X-109147Y94556D01*
X-109116Y94540D01*
X-109039Y94522D01*
X-108637Y94019D01*
X-108613Y93996D01*
X-108560Y93935D01*
X-108091Y93500D01*
X-108070Y93431D01*
X-108053Y93344D01*
X-108035Y93314D01*
X-108025Y93280D01*
X-107936Y93138D01*
X-106562Y91415D01*
X-106537Y91392D01*
X-106517Y91363D01*
X-106446Y91309D01*
X-106380Y91250D01*
X-106348Y91236D01*
X-106320Y91215D01*
X-106164Y91154D01*
X-105950Y91097D01*
X-105942Y91093D01*
X-105870Y91085D01*
X-105801Y91067D01*
X-105749Y91071D01*
X-105697Y91066D01*
X-105627Y91081D01*
X-105556Y91086D01*
X-105508Y91107D01*
X-105457Y91118D01*
X-105395Y91155D01*
X-105330Y91182D01*
X-105291Y91217D01*
X-105246Y91244D01*
X-105199Y91298D01*
X-105146Y91346D01*
X-105120Y91391D01*
X-105086Y91431D01*
X-105059Y91497D01*
X-105024Y91559D01*
X-105013Y91611D01*
X-104994Y91659D01*
X-104981Y91773D01*
X-104976Y91801D01*
X-104977Y91811D01*
X-104975Y91826D01*
X-104975Y93372D01*
X-102311Y96036D01*
X-98542Y96036D01*
X-95878Y93372D01*
X-95878Y89603D01*
X-98542Y86939D01*
X-100348Y86939D01*
X-100439Y86924D01*
X-100529Y86917D01*
X-100559Y86904D01*
X-100591Y86899D01*
X-100672Y86856D01*
X-100756Y86821D01*
X-100788Y86795D01*
X-100809Y86784D01*
X-100831Y86761D01*
X-100887Y86716D01*
X-102546Y85057D01*
X-102610Y84968D01*
X-102677Y84881D01*
X-102681Y84868D01*
X-102689Y84857D01*
X-102721Y84752D01*
X-102757Y84649D01*
X-102758Y84635D01*
X-102762Y84622D01*
X-102759Y84512D01*
X-102760Y84403D01*
X-102755Y84387D01*
X-102755Y84376D01*
X-102745Y84349D01*
X-102716Y84241D01*
X-102532Y83772D01*
X-102515Y83742D01*
X-102504Y83709D01*
X-102452Y83637D01*
X-102407Y83561D01*
X-102380Y83538D01*
X-102360Y83510D01*
X-102298Y83461D01*
X-102155Y82833D01*
X-102143Y82802D01*
X-102121Y82724D01*
X-101888Y82128D01*
X-101899Y82057D01*
X-101921Y81971D01*
X-101918Y81937D01*
X-101924Y81902D01*
X-101905Y81736D01*
X-101415Y79587D01*
X-101402Y79554D01*
X-101397Y79520D01*
X-101356Y79441D01*
X-101322Y79359D01*
X-101300Y79332D01*
X-101284Y79302D01*
X-101230Y79244D01*
X-101182Y78602D01*
X-101174Y78570D01*
X-101165Y78489D01*
X-101023Y77865D01*
X-101044Y77797D01*
X-101079Y77715D01*
X-101082Y77680D01*
X-101092Y77647D01*
X-101098Y77479D01*
X-100934Y75281D01*
X-100926Y75248D01*
X-100926Y75213D01*
X-100897Y75128D01*
X-100876Y75042D01*
X-100858Y75013D01*
X-100847Y74980D01*
X-100802Y74914D01*
X-100850Y74273D01*
X-100847Y74240D01*
X-100850Y74159D01*
X-100803Y73520D01*
X-100834Y73456D01*
X-100881Y73380D01*
X-100889Y73346D01*
X-100904Y73315D01*
X-100935Y73150D01*
X-101100Y70952D01*
X-101097Y70918D01*
X-101102Y70883D01*
X-101087Y70796D01*
X-101079Y70707D01*
X-101065Y70675D01*
X-101059Y70641D01*
X-101024Y70570D01*
X-101168Y69942D01*
X-101170Y69909D01*
X-101185Y69830D01*
X-101233Y69191D01*
X-101274Y69133D01*
X-101331Y69064D01*
X-101344Y69032D01*
X-101363Y69004D01*
X-101419Y68845D01*
X-101910Y66696D01*
X-101912Y66662D01*
X-101922Y66629D01*
X-101920Y66548D01*
X-101925Y66498D01*
X-101923Y66487D01*
X-101925Y66451D01*
X-101916Y66417D01*
X-101915Y66383D01*
X-101892Y66307D01*
X-102127Y65708D01*
X-102134Y65676D01*
X-102160Y65599D01*
X-102303Y64975D01*
X-102352Y64923D01*
X-102419Y64864D01*
X-102436Y64834D01*
X-102460Y64809D01*
X-102538Y64660D01*
X-103344Y62609D01*
X-103352Y62575D01*
X-103367Y62544D01*
X-103377Y62455D01*
X-103396Y62368D01*
X-103392Y62334D01*
X-103396Y62299D01*
X-103385Y62221D01*
X-103707Y61664D01*
X-103718Y61633D01*
X-103756Y61561D01*
X-103990Y60965D01*
X-104047Y60921D01*
X-104121Y60873D01*
X-104143Y60846D01*
X-104170Y60824D01*
X-104270Y60689D01*
X-105372Y58781D01*
X-105385Y58748D01*
X-105404Y58719D01*
X-105428Y58634D01*
X-105459Y58551D01*
X-105461Y58516D01*
X-105470Y58482D01*
X-105470Y58403D01*
X-105871Y57900D01*
X-105887Y57871D01*
X-105912Y57838D01*
X-105919Y57831D01*
X-105921Y57825D01*
X-105935Y57806D01*
X-106256Y57252D01*
X-106318Y57216D01*
X-106399Y57180D01*
X-106425Y57156D01*
X-106455Y57139D01*
X-106573Y57020D01*
X-107948Y55297D01*
X-107965Y55267D01*
X-107989Y55242D01*
X-108025Y55161D01*
X-108068Y55083D01*
X-108075Y55049D01*
X-108089Y55017D01*
X-108101Y54939D01*
X-108573Y54501D01*
X-108593Y54475D01*
X-108650Y54418D01*
X-109050Y53917D01*
X-109116Y53892D01*
X-109202Y53868D01*
X-109231Y53848D01*
X-109263Y53836D01*
X-109398Y53736D01*
X-111014Y52237D01*
X-111035Y52210D01*
X-111063Y52188D01*
X-111111Y52113D01*
X-111165Y52043D01*
X-111177Y52010D01*
X-111195Y51981D01*
X-111219Y51905D01*
X-111751Y51543D01*
X-111775Y51520D01*
X-111840Y51472D01*
X-112309Y51036D01*
X-112379Y51021D01*
X-112468Y51010D01*
X-112499Y50995D01*
X-112533Y50988D01*
X-112681Y50909D01*
X-113805Y50143D01*
X-113888Y50064D01*
X-113972Y49987D01*
X-113977Y49980D01*
X-113983Y49974D01*
X-114036Y49873D01*
X-114092Y49772D01*
X-114094Y49764D01*
X-114098Y49756D01*
X-114116Y49643D01*
X-114137Y49531D01*
X-114136Y49522D01*
X-114137Y49513D01*
X-114119Y49400D01*
X-114103Y49287D01*
X-114099Y49278D01*
X-114097Y49271D01*
X-114087Y49250D01*
X-114035Y49133D01*
X-95287Y16662D01*
X-96314Y16176D01*
X-96336Y16159D01*
X-96363Y16149D01*
X-96415Y16100D01*
X-96473Y16057D01*
X-96487Y16032D01*
X-96508Y16013D01*
X-96537Y15947D01*
X-96573Y15885D01*
X-96576Y15857D01*
X-96588Y15831D01*
X-96589Y15759D01*
X-96598Y15688D01*
X-96590Y15661D01*
X-96591Y15632D01*
X-96555Y15537D01*
X-96544Y15497D01*
X-96537Y15488D01*
X-96533Y15476D01*
X-87033Y-1024D01*
X-86981Y-1082D01*
X-86935Y-1145D01*
X-86916Y-1156D01*
X-86901Y-1173D01*
X-86831Y-1207D01*
X-86764Y-1247D01*
X-86740Y-1251D01*
X-86722Y-1259D01*
X-86677Y-1261D01*
X-86600Y-1274D01*
X-67600Y-1274D01*
X-67572Y-1269D01*
G37*
%LPC*%
G36*
X-43652Y58419D02*
X-43652Y58419D01*
X-46356Y61123D01*
X-46356Y71502D01*
X-46359Y71521D01*
X-46357Y71541D01*
X-46379Y71642D01*
X-46395Y71744D01*
X-46405Y71762D01*
X-46409Y71781D01*
X-46462Y71870D01*
X-46511Y71962D01*
X-46525Y71975D01*
X-46535Y71992D01*
X-46614Y72060D01*
X-46689Y72131D01*
X-46707Y72139D01*
X-46722Y72152D01*
X-46818Y72191D01*
X-46912Y72235D01*
X-46932Y72237D01*
X-46950Y72244D01*
X-47117Y72263D01*
X-52694Y72263D01*
X-53587Y73156D01*
X-53587Y80695D01*
X-53590Y80715D01*
X-53588Y80734D01*
X-53610Y80836D01*
X-53627Y80938D01*
X-53636Y80955D01*
X-53641Y80975D01*
X-53694Y81064D01*
X-53742Y81155D01*
X-53756Y81169D01*
X-53767Y81186D01*
X-53845Y81253D01*
X-53920Y81325D01*
X-53938Y81333D01*
X-53954Y81346D01*
X-54050Y81385D01*
X-54143Y81428D01*
X-54163Y81430D01*
X-54182Y81438D01*
X-54348Y81456D01*
X-56777Y81456D01*
X-56796Y81453D01*
X-56816Y81455D01*
X-56917Y81433D01*
X-57019Y81417D01*
X-57037Y81407D01*
X-57056Y81403D01*
X-57145Y81350D01*
X-57237Y81301D01*
X-57250Y81287D01*
X-57267Y81277D01*
X-57335Y81198D01*
X-57406Y81123D01*
X-57414Y81105D01*
X-57427Y81090D01*
X-57466Y80994D01*
X-57510Y80900D01*
X-57512Y80880D01*
X-57519Y80862D01*
X-57538Y80695D01*
X-57538Y73156D01*
X-58431Y72263D01*
X-67694Y72263D01*
X-67721Y72290D01*
X-67795Y72343D01*
X-67865Y72402D01*
X-67895Y72415D01*
X-67921Y72433D01*
X-68008Y72460D01*
X-68093Y72494D01*
X-68134Y72499D01*
X-68156Y72506D01*
X-68188Y72505D01*
X-68259Y72513D01*
X-72035Y72513D01*
X-75125Y75603D01*
X-75125Y79972D01*
X-72035Y83062D01*
X-68259Y83062D01*
X-68169Y83077D01*
X-68078Y83084D01*
X-68049Y83097D01*
X-68017Y83102D01*
X-67936Y83145D01*
X-67852Y83180D01*
X-67820Y83206D01*
X-67799Y83217D01*
X-67777Y83240D01*
X-67721Y83285D01*
X-67694Y83312D01*
X-60872Y83312D01*
X-60853Y83315D01*
X-60833Y83313D01*
X-60732Y83335D01*
X-60630Y83352D01*
X-60612Y83361D01*
X-60593Y83366D01*
X-60504Y83419D01*
X-60412Y83467D01*
X-60399Y83481D01*
X-60382Y83492D01*
X-60314Y83570D01*
X-60243Y83645D01*
X-60235Y83663D01*
X-60222Y83679D01*
X-60183Y83775D01*
X-60139Y83868D01*
X-60137Y83888D01*
X-60130Y83907D01*
X-60111Y84073D01*
X-60111Y86672D01*
X-60126Y86762D01*
X-60133Y86853D01*
X-60146Y86883D01*
X-60151Y86915D01*
X-60194Y86995D01*
X-60229Y87079D01*
X-60255Y87111D01*
X-60266Y87132D01*
X-60289Y87154D01*
X-60334Y87210D01*
X-61126Y88002D01*
X-61200Y88055D01*
X-61270Y88115D01*
X-61300Y88127D01*
X-61326Y88146D01*
X-61413Y88173D01*
X-61498Y88207D01*
X-61539Y88211D01*
X-61561Y88218D01*
X-61593Y88217D01*
X-61665Y88225D01*
X-69694Y88225D01*
X-70587Y89118D01*
X-70587Y100521D01*
X-70590Y100540D01*
X-70588Y100560D01*
X-70610Y100661D01*
X-70627Y100763D01*
X-70636Y100781D01*
X-70641Y100800D01*
X-70694Y100889D01*
X-70742Y100981D01*
X-70756Y100994D01*
X-70767Y101011D01*
X-70845Y101079D01*
X-70920Y101150D01*
X-70938Y101158D01*
X-70954Y101171D01*
X-71050Y101210D01*
X-71143Y101254D01*
X-71163Y101256D01*
X-71182Y101263D01*
X-71348Y101282D01*
X-72227Y101282D01*
X-73343Y102398D01*
X-73343Y118264D01*
X-69052Y122556D01*
X-30035Y122556D01*
X-30016Y122559D01*
X-29996Y122557D01*
X-29895Y122579D01*
X-29793Y122595D01*
X-29775Y122605D01*
X-29756Y122609D01*
X-29667Y122662D01*
X-29575Y122711D01*
X-29562Y122725D01*
X-29545Y122735D01*
X-29477Y122814D01*
X-29406Y122889D01*
X-29398Y122907D01*
X-29385Y122922D01*
X-29346Y123018D01*
X-29302Y123112D01*
X-29300Y123132D01*
X-29293Y123150D01*
X-29274Y123317D01*
X-29274Y147565D01*
X-29277Y147585D01*
X-29275Y147604D01*
X-29297Y147706D01*
X-29314Y147808D01*
X-29323Y147825D01*
X-29328Y147845D01*
X-29381Y147934D01*
X-29429Y148025D01*
X-29443Y148039D01*
X-29454Y148056D01*
X-29532Y148123D01*
X-29607Y148195D01*
X-29625Y148203D01*
X-29641Y148216D01*
X-29737Y148255D01*
X-29830Y148298D01*
X-29850Y148300D01*
X-29869Y148308D01*
X-30035Y148326D01*
X-40141Y148326D01*
X-43255Y151440D01*
X-43329Y151493D01*
X-43398Y151552D01*
X-43428Y151565D01*
X-43455Y151583D01*
X-43542Y151610D01*
X-43626Y151644D01*
X-43667Y151649D01*
X-43690Y151656D01*
X-43722Y151655D01*
X-43793Y151663D01*
X-51823Y151663D01*
X-52716Y152556D01*
X-52716Y163819D01*
X-51823Y164712D01*
X-39559Y164712D01*
X-38666Y163819D01*
X-38666Y161131D01*
X-38655Y161060D01*
X-38653Y160989D01*
X-38635Y160940D01*
X-38627Y160888D01*
X-38593Y160825D01*
X-38568Y160758D01*
X-38536Y160717D01*
X-38511Y160671D01*
X-38459Y160622D01*
X-38415Y160566D01*
X-38371Y160537D01*
X-38333Y160502D01*
X-38268Y160471D01*
X-38208Y160433D01*
X-38157Y160420D01*
X-38110Y160398D01*
X-38039Y160390D01*
X-37969Y160373D01*
X-37917Y160377D01*
X-37866Y160371D01*
X-37795Y160386D01*
X-37724Y160392D01*
X-37676Y160412D01*
X-37625Y160423D01*
X-37564Y160460D01*
X-37498Y160488D01*
X-37442Y160533D01*
X-37414Y160549D01*
X-37399Y160567D01*
X-37367Y160593D01*
X-35530Y162429D01*
X-35477Y162503D01*
X-35418Y162573D01*
X-35405Y162603D01*
X-35387Y162629D01*
X-35360Y162716D01*
X-35326Y162801D01*
X-35321Y162842D01*
X-35314Y162864D01*
X-35315Y162896D01*
X-35307Y162968D01*
X-35307Y182914D01*
X-35310Y182934D01*
X-35308Y182953D01*
X-35330Y183055D01*
X-35347Y183157D01*
X-35356Y183174D01*
X-35360Y183194D01*
X-35414Y183283D01*
X-35462Y183374D01*
X-35476Y183388D01*
X-35487Y183405D01*
X-35565Y183472D01*
X-35640Y183544D01*
X-35658Y183552D01*
X-35674Y183565D01*
X-35770Y183604D01*
X-35863Y183647D01*
X-35883Y183649D01*
X-35902Y183657D01*
X-36068Y183675D01*
X-41881Y183675D01*
X-41901Y183672D01*
X-41920Y183674D01*
X-42022Y183652D01*
X-42124Y183636D01*
X-42141Y183626D01*
X-42161Y183622D01*
X-42250Y183569D01*
X-42341Y183520D01*
X-42355Y183506D01*
X-42372Y183496D01*
X-42439Y183417D01*
X-42511Y183342D01*
X-42519Y183324D01*
X-42532Y183309D01*
X-42571Y183213D01*
X-42614Y183119D01*
X-42616Y183099D01*
X-42624Y183081D01*
X-42642Y182914D01*
X-42642Y182473D01*
X-42639Y182454D01*
X-42641Y182434D01*
X-42619Y182333D01*
X-42603Y182231D01*
X-42593Y182213D01*
X-42589Y182194D01*
X-42536Y182105D01*
X-42487Y182013D01*
X-42473Y182000D01*
X-42463Y181983D01*
X-42384Y181915D01*
X-42309Y181844D01*
X-42291Y181836D01*
X-42276Y181823D01*
X-42180Y181784D01*
X-42086Y181740D01*
X-42066Y181738D01*
X-42048Y181731D01*
X-41881Y181712D01*
X-39559Y181712D01*
X-38666Y180819D01*
X-38666Y169556D01*
X-39559Y168663D01*
X-51823Y168663D01*
X-52716Y169556D01*
X-52716Y179896D01*
X-52719Y179915D01*
X-52717Y179935D01*
X-52739Y180036D01*
X-52755Y180138D01*
X-52765Y180156D01*
X-52769Y180175D01*
X-52822Y180264D01*
X-52871Y180356D01*
X-52885Y180369D01*
X-52895Y180386D01*
X-52974Y180454D01*
X-53049Y180525D01*
X-53067Y180533D01*
X-53082Y180546D01*
X-53178Y180585D01*
X-53272Y180629D01*
X-53292Y180631D01*
X-53310Y180638D01*
X-53477Y180657D01*
X-67464Y180657D01*
X-70168Y183361D01*
X-70168Y194156D01*
X-70183Y194246D01*
X-70190Y194337D01*
X-70203Y194367D01*
X-70208Y194399D01*
X-70251Y194479D01*
X-70286Y194563D01*
X-70312Y194595D01*
X-70323Y194616D01*
X-70346Y194638D01*
X-70362Y194658D01*
X-70362Y199046D01*
X-70338Y199080D01*
X-70279Y199149D01*
X-70266Y199179D01*
X-70248Y199206D01*
X-70221Y199293D01*
X-70187Y199377D01*
X-70182Y199418D01*
X-70175Y199441D01*
X-70176Y199473D01*
X-70168Y199544D01*
X-70168Y218277D01*
X-53177Y235268D01*
X-43661Y235268D01*
X-42544Y234152D01*
X-42544Y201486D01*
X-42541Y201466D01*
X-42543Y201447D01*
X-42521Y201345D01*
X-42505Y201243D01*
X-42495Y201226D01*
X-42491Y201206D01*
X-42438Y201117D01*
X-42389Y201026D01*
X-42375Y201012D01*
X-42365Y200995D01*
X-42286Y200928D01*
X-42211Y200856D01*
X-42193Y200848D01*
X-42178Y200835D01*
X-42082Y200796D01*
X-41988Y200753D01*
X-41968Y200751D01*
X-41950Y200743D01*
X-41783Y200725D01*
X-35643Y200725D01*
X-34750Y199832D01*
X-34750Y185146D01*
X-34739Y185076D01*
X-34737Y185004D01*
X-34719Y184955D01*
X-34711Y184904D01*
X-34677Y184840D01*
X-34652Y184773D01*
X-34620Y184732D01*
X-34595Y184686D01*
X-34543Y184637D01*
X-34499Y184581D01*
X-34455Y184553D01*
X-34417Y184517D01*
X-34352Y184487D01*
X-34292Y184448D01*
X-34241Y184435D01*
X-34194Y184413D01*
X-34123Y184405D01*
X-34053Y184388D01*
X-34001Y184392D01*
X-33950Y184386D01*
X-33879Y184401D01*
X-33808Y184407D01*
X-33760Y184427D01*
X-33709Y184438D01*
X-33648Y184475D01*
X-33582Y184503D01*
X-33526Y184548D01*
X-33498Y184565D01*
X-33483Y184582D01*
X-33451Y184608D01*
X-33298Y184761D01*
X-21533Y196526D01*
X-21479Y196600D01*
X-21420Y196670D01*
X-21408Y196700D01*
X-21389Y196726D01*
X-21362Y196813D01*
X-21328Y196898D01*
X-21324Y196939D01*
X-21317Y196961D01*
X-21317Y196993D01*
X-21310Y197065D01*
X-21310Y205094D01*
X-20416Y205987D01*
X-8153Y205987D01*
X-7260Y205094D01*
X-7260Y193831D01*
X-8153Y192938D01*
X-16183Y192938D01*
X-16273Y192923D01*
X-16364Y192916D01*
X-16393Y192903D01*
X-16425Y192898D01*
X-16506Y192855D01*
X-16590Y192820D01*
X-16622Y192794D01*
X-16643Y192783D01*
X-16665Y192760D01*
X-16721Y192715D01*
X-24875Y184561D01*
X-24916Y184503D01*
X-24966Y184451D01*
X-24988Y184404D01*
X-25018Y184362D01*
X-25039Y184293D01*
X-25069Y184228D01*
X-25075Y184176D01*
X-25090Y184126D01*
X-25089Y184055D01*
X-25096Y183984D01*
X-25085Y183933D01*
X-25084Y183881D01*
X-25059Y183813D01*
X-25044Y183743D01*
X-25018Y183699D01*
X-25000Y183650D01*
X-24955Y183594D01*
X-24918Y183532D01*
X-24878Y183498D01*
X-24846Y183458D01*
X-24786Y183419D01*
X-24731Y183372D01*
X-24683Y183353D01*
X-24639Y183325D01*
X-24570Y183307D01*
X-24503Y183280D01*
X-24432Y183272D01*
X-24400Y183264D01*
X-24377Y183266D01*
X-24336Y183262D01*
X27935Y183262D01*
X29274Y181922D01*
X29274Y161535D01*
X29277Y161515D01*
X29275Y161496D01*
X29297Y161394D01*
X29314Y161292D01*
X29323Y161275D01*
X29328Y161255D01*
X29381Y161166D01*
X29429Y161075D01*
X29443Y161061D01*
X29454Y161044D01*
X29532Y160977D01*
X29607Y160905D01*
X29625Y160897D01*
X29641Y160884D01*
X29737Y160845D01*
X29830Y160802D01*
X29850Y160800D01*
X29869Y160792D01*
X30035Y160774D01*
X31902Y160774D01*
X31921Y160777D01*
X31941Y160775D01*
X32042Y160797D01*
X32144Y160813D01*
X32162Y160823D01*
X32181Y160827D01*
X32270Y160880D01*
X32362Y160929D01*
X32375Y160943D01*
X32392Y160953D01*
X32460Y161032D01*
X32531Y161107D01*
X32539Y161125D01*
X32552Y161140D01*
X32591Y161236D01*
X32635Y161330D01*
X32637Y161350D01*
X32644Y161368D01*
X32663Y161535D01*
X32663Y163819D01*
X33556Y164712D01*
X45819Y164712D01*
X46712Y163819D01*
X46712Y152556D01*
X45819Y151663D01*
X33556Y151663D01*
X32663Y152556D01*
X32663Y153915D01*
X32660Y153935D01*
X32662Y153954D01*
X32640Y154056D01*
X32623Y154158D01*
X32614Y154175D01*
X32609Y154195D01*
X32556Y154284D01*
X32508Y154375D01*
X32494Y154389D01*
X32483Y154406D01*
X32405Y154473D01*
X32330Y154545D01*
X32312Y154553D01*
X32296Y154566D01*
X32200Y154605D01*
X32107Y154648D01*
X32087Y154650D01*
X32068Y154658D01*
X31902Y154676D01*
X30035Y154676D01*
X30016Y154673D01*
X29996Y154675D01*
X29895Y154653D01*
X29793Y154637D01*
X29775Y154627D01*
X29756Y154623D01*
X29667Y154570D01*
X29575Y154521D01*
X29562Y154507D01*
X29545Y154497D01*
X29477Y154418D01*
X29406Y154343D01*
X29398Y154325D01*
X29385Y154310D01*
X29346Y154214D01*
X29302Y154120D01*
X29300Y154100D01*
X29293Y154082D01*
X29274Y153915D01*
X29274Y132118D01*
X29289Y132028D01*
X29296Y131937D01*
X29309Y131907D01*
X29314Y131875D01*
X29357Y131794D01*
X29392Y131710D01*
X29418Y131678D01*
X29429Y131658D01*
X29452Y131635D01*
X29497Y131579D01*
X30036Y131040D01*
X30036Y130086D01*
X30039Y130066D01*
X30037Y130047D01*
X30059Y129945D01*
X30076Y129843D01*
X30085Y129826D01*
X30090Y129806D01*
X30143Y129717D01*
X30191Y129626D01*
X30205Y129612D01*
X30216Y129595D01*
X30294Y129528D01*
X30369Y129456D01*
X30387Y129448D01*
X30403Y129435D01*
X30499Y129396D01*
X30592Y129353D01*
X30612Y129351D01*
X30631Y129343D01*
X30797Y129325D01*
X33119Y129325D01*
X34012Y128432D01*
X34012Y117168D01*
X33119Y116275D01*
X22662Y116275D01*
X22591Y116264D01*
X22519Y116262D01*
X22470Y116244D01*
X22419Y116236D01*
X22356Y116202D01*
X22288Y116177D01*
X22248Y116145D01*
X22201Y116120D01*
X22152Y116068D01*
X22096Y116024D01*
X22068Y115980D01*
X22032Y115942D01*
X22002Y115877D01*
X21963Y115817D01*
X21950Y115766D01*
X21928Y115719D01*
X21921Y115648D01*
X21903Y115578D01*
X21907Y115526D01*
X21901Y115475D01*
X21917Y115404D01*
X21922Y115333D01*
X21943Y115285D01*
X21954Y115234D01*
X21990Y115173D01*
X22019Y115107D01*
X22063Y115051D01*
X22080Y115023D01*
X22098Y115008D01*
X22123Y114976D01*
X24551Y112548D01*
X24625Y112495D01*
X24695Y112435D01*
X24725Y112423D01*
X24751Y112404D01*
X24838Y112377D01*
X24923Y112343D01*
X24964Y112339D01*
X24986Y112332D01*
X25018Y112333D01*
X25090Y112325D01*
X33119Y112325D01*
X34012Y111432D01*
X34012Y100168D01*
X33119Y99275D01*
X20856Y99275D01*
X19963Y100168D01*
X19963Y108198D01*
X19948Y108288D01*
X19941Y108379D01*
X19928Y108409D01*
X19923Y108441D01*
X19880Y108521D01*
X19845Y108605D01*
X19819Y108637D01*
X19808Y108658D01*
X19785Y108680D01*
X19740Y108736D01*
X12798Y115678D01*
X12724Y115731D01*
X12654Y115791D01*
X12624Y115803D01*
X12598Y115822D01*
X12511Y115849D01*
X12426Y115883D01*
X12385Y115887D01*
X12363Y115894D01*
X12331Y115893D01*
X12259Y115901D01*
X7286Y115901D01*
X7266Y115898D01*
X7247Y115900D01*
X7145Y115878D01*
X7043Y115862D01*
X7026Y115852D01*
X7006Y115848D01*
X6917Y115795D01*
X6826Y115746D01*
X6812Y115732D01*
X6795Y115722D01*
X6728Y115643D01*
X6656Y115568D01*
X6648Y115550D01*
X6635Y115535D01*
X6596Y115439D01*
X6553Y115345D01*
X6551Y115325D01*
X6543Y115307D01*
X6525Y115140D01*
X6525Y111318D01*
X5632Y110425D01*
X-5632Y110425D01*
X-6525Y111318D01*
X-6525Y119190D01*
X-6528Y119209D01*
X-6526Y119229D01*
X-6548Y119330D01*
X-6564Y119432D01*
X-6574Y119450D01*
X-6578Y119469D01*
X-6631Y119558D01*
X-6680Y119650D01*
X-6694Y119663D01*
X-6704Y119680D01*
X-6783Y119748D01*
X-6858Y119819D01*
X-6876Y119827D01*
X-6891Y119840D01*
X-6987Y119879D01*
X-7081Y119923D01*
X-7101Y119925D01*
X-7119Y119932D01*
X-7286Y119951D01*
X-13208Y119951D01*
X-13228Y119948D01*
X-13247Y119950D01*
X-13349Y119928D01*
X-13451Y119911D01*
X-13468Y119902D01*
X-13488Y119897D01*
X-13577Y119844D01*
X-13668Y119796D01*
X-13682Y119782D01*
X-13699Y119771D01*
X-13766Y119693D01*
X-13838Y119618D01*
X-13846Y119600D01*
X-13859Y119584D01*
X-13898Y119488D01*
X-13941Y119395D01*
X-13943Y119375D01*
X-13951Y119356D01*
X-13969Y119190D01*
X-13969Y106236D01*
X-13966Y106216D01*
X-13968Y106197D01*
X-13946Y106095D01*
X-13930Y105993D01*
X-13920Y105976D01*
X-13916Y105956D01*
X-13863Y105867D01*
X-13814Y105776D01*
X-13800Y105762D01*
X-13790Y105745D01*
X-13711Y105678D01*
X-13636Y105606D01*
X-13618Y105598D01*
X-13603Y105585D01*
X-13507Y105546D01*
X-13413Y105503D01*
X-13393Y105501D01*
X-13375Y105493D01*
X-13208Y105475D01*
X-3868Y105475D01*
X-2975Y104582D01*
X-2975Y89318D01*
X-2986Y89308D01*
X-2998Y89292D01*
X-3013Y89279D01*
X-3069Y89192D01*
X-3130Y89108D01*
X-3135Y89089D01*
X-3146Y89072D01*
X-3171Y88972D01*
X-3202Y88873D01*
X-3201Y88853D01*
X-3206Y88834D01*
X-3198Y88731D01*
X-3196Y88627D01*
X-3189Y88608D01*
X-3187Y88588D01*
X-3147Y88493D01*
X-3111Y88396D01*
X-3099Y88380D01*
X-3091Y88362D01*
X-2986Y88231D01*
X-2857Y88102D01*
X-2857Y86703D01*
X-2842Y86613D01*
X-2835Y86522D01*
X-2822Y86493D01*
X-2817Y86461D01*
X-2774Y86380D01*
X-2739Y86296D01*
X-2713Y86264D01*
X-2702Y86243D01*
X-2679Y86221D01*
X-2634Y86165D01*
X-1975Y85507D01*
X-1975Y73243D01*
X-2634Y72585D01*
X-2687Y72511D01*
X-2746Y72441D01*
X-2759Y72411D01*
X-2777Y72385D01*
X-2804Y72298D01*
X-2838Y72213D01*
X-2843Y72172D01*
X-2850Y72150D01*
X-2849Y72118D01*
X-2857Y72047D01*
X-2857Y61123D01*
X-5561Y58419D01*
X-43652Y58419D01*
G37*
%LPD*%
G36*
X-7266Y121479D02*
X-7266Y121479D01*
X-7247Y121477D01*
X-7145Y121499D01*
X-7043Y121516D01*
X-7026Y121525D01*
X-7006Y121530D01*
X-6917Y121583D01*
X-6826Y121631D01*
X-6812Y121646D01*
X-6795Y121656D01*
X-6728Y121734D01*
X-6656Y121809D01*
X-6648Y121827D01*
X-6635Y121843D01*
X-6596Y121939D01*
X-6553Y122033D01*
X-6551Y122052D01*
X-6543Y122071D01*
X-6525Y122238D01*
X-6525Y126582D01*
X-5632Y127475D01*
X5632Y127475D01*
X6525Y126582D01*
X6525Y122760D01*
X6528Y122740D01*
X6526Y122721D01*
X6548Y122619D01*
X6564Y122517D01*
X6574Y122500D01*
X6578Y122480D01*
X6631Y122391D01*
X6680Y122300D01*
X6694Y122286D01*
X6704Y122269D01*
X6783Y122202D01*
X6858Y122130D01*
X6876Y122122D01*
X6891Y122109D01*
X6987Y122070D01*
X7081Y122027D01*
X7101Y122025D01*
X7119Y122017D01*
X7286Y121999D01*
X15100Y121999D01*
X15400Y121699D01*
X15474Y121646D01*
X15543Y121587D01*
X15573Y121575D01*
X15600Y121556D01*
X15687Y121529D01*
X15771Y121495D01*
X15812Y121490D01*
X15835Y121483D01*
X15867Y121484D01*
X15938Y121476D01*
X19202Y121476D01*
X19221Y121479D01*
X19241Y121477D01*
X19342Y121499D01*
X19444Y121516D01*
X19462Y121525D01*
X19481Y121530D01*
X19570Y121583D01*
X19662Y121631D01*
X19675Y121646D01*
X19692Y121656D01*
X19760Y121734D01*
X19831Y121809D01*
X19839Y121827D01*
X19852Y121843D01*
X19891Y121939D01*
X19935Y122033D01*
X19937Y122052D01*
X19944Y122071D01*
X19963Y122238D01*
X19963Y128432D01*
X20856Y129325D01*
X21291Y129325D01*
X21362Y129336D01*
X21433Y129338D01*
X21482Y129356D01*
X21534Y129364D01*
X21597Y129398D01*
X21664Y129423D01*
X21705Y129455D01*
X21751Y129480D01*
X21800Y129531D01*
X21856Y129576D01*
X21885Y129620D01*
X21920Y129658D01*
X21951Y129723D01*
X21989Y129783D01*
X22002Y129834D01*
X22024Y129881D01*
X22032Y129952D01*
X22049Y130022D01*
X22045Y130074D01*
X22051Y130125D01*
X22036Y130196D01*
X22030Y130267D01*
X22010Y130315D01*
X21999Y130366D01*
X21962Y130427D01*
X21934Y130493D01*
X21889Y130549D01*
X21873Y130577D01*
X21855Y130592D01*
X21829Y130624D01*
X18876Y133577D01*
X18802Y133630D01*
X18733Y133690D01*
X18703Y133702D01*
X18676Y133721D01*
X18589Y133748D01*
X18505Y133782D01*
X18464Y133786D01*
X18441Y133793D01*
X18409Y133792D01*
X18338Y133800D01*
X8518Y133800D01*
X7625Y134693D01*
X7625Y146757D01*
X8518Y147650D01*
X23562Y147650D01*
X24455Y146757D01*
X24455Y136937D01*
X24469Y136847D01*
X24477Y136756D01*
X24489Y136726D01*
X24494Y136694D01*
X24537Y136614D01*
X24573Y136530D01*
X24599Y136498D01*
X24610Y136477D01*
X24633Y136455D01*
X24678Y136399D01*
X26449Y134627D01*
X26507Y134586D01*
X26559Y134536D01*
X26607Y134514D01*
X26649Y134484D01*
X26718Y134463D01*
X26783Y134433D01*
X26834Y134427D01*
X26884Y134411D01*
X26956Y134413D01*
X27027Y134405D01*
X27078Y134416D01*
X27130Y134418D01*
X27197Y134442D01*
X27267Y134458D01*
X27312Y134484D01*
X27361Y134502D01*
X27417Y134547D01*
X27478Y134584D01*
X27512Y134623D01*
X27553Y134656D01*
X27592Y134716D01*
X27638Y134771D01*
X27658Y134819D01*
X27686Y134863D01*
X27703Y134932D01*
X27717Y134966D01*
X27721Y134974D01*
X27721Y134975D01*
X27730Y134999D01*
X27738Y135070D01*
X27746Y135101D01*
X27744Y135125D01*
X27749Y135166D01*
X27749Y153915D01*
X27746Y153935D01*
X27748Y153954D01*
X27726Y154056D01*
X27709Y154158D01*
X27700Y154175D01*
X27695Y154195D01*
X27642Y154284D01*
X27594Y154375D01*
X27580Y154389D01*
X27569Y154406D01*
X27491Y154473D01*
X27416Y154545D01*
X27398Y154553D01*
X27382Y154566D01*
X27286Y154605D01*
X27193Y154648D01*
X27173Y154650D01*
X27154Y154658D01*
X26988Y154676D01*
X25216Y154676D01*
X25196Y154673D01*
X25177Y154675D01*
X25075Y154653D01*
X24973Y154637D01*
X24956Y154627D01*
X24936Y154623D01*
X24847Y154570D01*
X24756Y154521D01*
X24742Y154507D01*
X24725Y154497D01*
X24658Y154418D01*
X24586Y154343D01*
X24578Y154325D01*
X24565Y154310D01*
X24526Y154214D01*
X24483Y154120D01*
X24481Y154100D01*
X24473Y154082D01*
X24455Y153915D01*
X24455Y151693D01*
X23562Y150800D01*
X8518Y150800D01*
X7625Y151693D01*
X7625Y163757D01*
X8518Y164650D01*
X23562Y164650D01*
X24455Y163757D01*
X24455Y161535D01*
X24458Y161515D01*
X24456Y161496D01*
X24478Y161394D01*
X24494Y161292D01*
X24504Y161275D01*
X24508Y161255D01*
X24561Y161166D01*
X24610Y161075D01*
X24624Y161061D01*
X24634Y161044D01*
X24713Y160977D01*
X24788Y160905D01*
X24806Y160897D01*
X24821Y160884D01*
X24917Y160845D01*
X25011Y160802D01*
X25031Y160800D01*
X25049Y160792D01*
X25216Y160774D01*
X26988Y160774D01*
X27007Y160777D01*
X27027Y160775D01*
X27128Y160797D01*
X27230Y160813D01*
X27248Y160823D01*
X27267Y160827D01*
X27356Y160880D01*
X27448Y160929D01*
X27461Y160943D01*
X27478Y160953D01*
X27546Y161032D01*
X27617Y161107D01*
X27625Y161125D01*
X27638Y161140D01*
X27677Y161236D01*
X27721Y161330D01*
X27723Y161350D01*
X27730Y161368D01*
X27749Y161535D01*
X27749Y180975D01*
X27746Y180995D01*
X27748Y181014D01*
X27726Y181116D01*
X27709Y181218D01*
X27700Y181235D01*
X27695Y181255D01*
X27642Y181344D01*
X27594Y181435D01*
X27580Y181449D01*
X27569Y181466D01*
X27491Y181533D01*
X27416Y181605D01*
X27398Y181613D01*
X27382Y181626D01*
X27286Y181665D01*
X27193Y181708D01*
X27173Y181710D01*
X27154Y181718D01*
X26988Y181736D01*
X-26988Y181736D01*
X-27007Y181733D01*
X-27027Y181735D01*
X-27128Y181713D01*
X-27230Y181697D01*
X-27248Y181687D01*
X-27267Y181683D01*
X-27356Y181630D01*
X-27448Y181581D01*
X-27461Y181567D01*
X-27478Y181557D01*
X-27546Y181478D01*
X-27617Y181403D01*
X-27625Y181385D01*
X-27638Y181370D01*
X-27677Y181274D01*
X-27721Y181180D01*
X-27723Y181160D01*
X-27730Y181142D01*
X-27749Y180975D01*
X-27749Y161507D01*
X-27734Y161417D01*
X-27727Y161326D01*
X-27714Y161296D01*
X-27709Y161264D01*
X-27666Y161183D01*
X-27631Y161099D01*
X-27605Y161067D01*
X-27594Y161047D01*
X-27571Y161025D01*
X-27526Y160969D01*
X-26984Y160426D01*
X-26984Y156057D01*
X-27317Y155723D01*
X-27359Y155665D01*
X-27408Y155613D01*
X-27430Y155566D01*
X-27461Y155524D01*
X-27482Y155455D01*
X-27512Y155390D01*
X-27518Y155338D01*
X-27533Y155288D01*
X-27531Y155217D01*
X-27539Y155146D01*
X-27528Y155095D01*
X-27527Y155043D01*
X-27502Y154975D01*
X-27487Y154905D01*
X-27460Y154860D01*
X-27442Y154812D01*
X-27397Y154756D01*
X-27361Y154694D01*
X-27321Y154660D01*
X-27289Y154620D01*
X-27228Y154581D01*
X-27174Y154534D01*
X-27125Y154515D01*
X-27082Y154487D01*
X-27012Y154469D01*
X-26946Y154442D01*
X-26874Y154434D01*
X-26843Y154426D01*
X-26820Y154428D01*
X-26779Y154424D01*
X-25216Y154424D01*
X-25196Y154427D01*
X-25177Y154425D01*
X-25075Y154447D01*
X-24973Y154463D01*
X-24956Y154473D01*
X-24936Y154477D01*
X-24847Y154530D01*
X-24756Y154579D01*
X-24742Y154593D01*
X-24725Y154603D01*
X-24658Y154682D01*
X-24586Y154757D01*
X-24578Y154775D01*
X-24565Y154790D01*
X-24526Y154886D01*
X-24483Y154980D01*
X-24481Y155000D01*
X-24473Y155018D01*
X-24455Y155185D01*
X-24455Y163757D01*
X-23562Y164650D01*
X-8518Y164650D01*
X-7625Y163757D01*
X-7625Y151693D01*
X-8518Y150800D01*
X-18338Y150800D01*
X-18428Y150786D01*
X-18519Y150778D01*
X-18549Y150766D01*
X-18581Y150761D01*
X-18661Y150718D01*
X-18745Y150682D01*
X-18777Y150656D01*
X-18798Y150645D01*
X-18820Y150622D01*
X-18876Y150577D01*
X-20504Y148949D01*
X-20546Y148891D01*
X-20595Y148839D01*
X-20617Y148792D01*
X-20648Y148750D01*
X-20669Y148681D01*
X-20699Y148616D01*
X-20705Y148564D01*
X-20720Y148514D01*
X-20718Y148443D01*
X-20726Y148372D01*
X-20715Y148321D01*
X-20714Y148269D01*
X-20689Y148201D01*
X-20674Y148131D01*
X-20647Y148086D01*
X-20629Y148038D01*
X-20584Y147982D01*
X-20548Y147920D01*
X-20508Y147886D01*
X-20476Y147846D01*
X-20415Y147807D01*
X-20361Y147760D01*
X-20312Y147741D01*
X-20269Y147713D01*
X-20199Y147695D01*
X-20133Y147668D01*
X-20061Y147660D01*
X-20030Y147652D01*
X-20007Y147654D01*
X-19966Y147650D01*
X-8518Y147650D01*
X-7625Y146757D01*
X-7625Y134693D01*
X-8518Y133800D01*
X-23562Y133800D01*
X-24455Y134693D01*
X-24455Y136915D01*
X-24458Y136935D01*
X-24456Y136954D01*
X-24478Y137056D01*
X-24494Y137158D01*
X-24504Y137175D01*
X-24508Y137195D01*
X-24561Y137284D01*
X-24610Y137375D01*
X-24624Y137389D01*
X-24634Y137406D01*
X-24713Y137473D01*
X-24788Y137545D01*
X-24806Y137553D01*
X-24821Y137566D01*
X-24917Y137605D01*
X-25011Y137648D01*
X-25031Y137650D01*
X-25049Y137658D01*
X-25216Y137676D01*
X-26988Y137676D01*
X-27007Y137673D01*
X-27027Y137675D01*
X-27128Y137653D01*
X-27230Y137637D01*
X-27248Y137627D01*
X-27267Y137623D01*
X-27356Y137570D01*
X-27448Y137521D01*
X-27461Y137507D01*
X-27478Y137497D01*
X-27546Y137418D01*
X-27617Y137343D01*
X-27625Y137325D01*
X-27638Y137310D01*
X-27677Y137214D01*
X-27721Y137120D01*
X-27723Y137100D01*
X-27730Y137082D01*
X-27749Y136915D01*
X-27749Y122238D01*
X-27746Y122218D01*
X-27748Y122198D01*
X-27726Y122097D01*
X-27709Y121995D01*
X-27700Y121977D01*
X-27695Y121958D01*
X-27642Y121869D01*
X-27594Y121777D01*
X-27580Y121764D01*
X-27569Y121747D01*
X-27491Y121679D01*
X-27416Y121608D01*
X-27398Y121600D01*
X-27382Y121587D01*
X-27286Y121548D01*
X-27193Y121504D01*
X-27173Y121502D01*
X-27154Y121495D01*
X-26988Y121476D01*
X-7286Y121476D01*
X-7266Y121479D01*
G37*
%LPC*%
G36*
X33556Y168663D02*
X33556Y168663D01*
X32663Y169556D01*
X32663Y180819D01*
X33556Y181712D01*
X35878Y181712D01*
X35897Y181715D01*
X35917Y181713D01*
X36018Y181735D01*
X36120Y181752D01*
X36138Y181761D01*
X36157Y181766D01*
X36246Y181819D01*
X36338Y181867D01*
X36351Y181881D01*
X36368Y181892D01*
X36436Y181970D01*
X36507Y182045D01*
X36515Y182063D01*
X36528Y182079D01*
X36567Y182175D01*
X36611Y182268D01*
X36613Y182288D01*
X36620Y182307D01*
X36639Y182473D01*
X36639Y184502D01*
X36636Y184521D01*
X36638Y184541D01*
X36616Y184642D01*
X36599Y184744D01*
X36590Y184762D01*
X36585Y184781D01*
X36532Y184870D01*
X36484Y184962D01*
X36470Y184975D01*
X36459Y184992D01*
X36381Y185060D01*
X36306Y185131D01*
X36288Y185139D01*
X36272Y185152D01*
X36176Y185191D01*
X36083Y185235D01*
X36063Y185237D01*
X36044Y185244D01*
X35878Y185263D01*
X29632Y185263D01*
X28739Y186156D01*
X28739Y200978D01*
X28736Y200997D01*
X28738Y201017D01*
X28716Y201118D01*
X28699Y201220D01*
X28690Y201238D01*
X28685Y201257D01*
X28632Y201346D01*
X28584Y201438D01*
X28569Y201451D01*
X28559Y201468D01*
X28481Y201536D01*
X28406Y201607D01*
X28388Y201615D01*
X28372Y201628D01*
X28276Y201667D01*
X28182Y201711D01*
X28163Y201713D01*
X28144Y201720D01*
X27977Y201739D01*
X18693Y201739D01*
X16685Y203747D01*
X16685Y203748D01*
X16606Y203827D01*
X16547Y203869D01*
X16495Y203918D01*
X16448Y203940D01*
X16406Y203970D01*
X16337Y203991D01*
X16272Y204022D01*
X16221Y204027D01*
X16171Y204043D01*
X16099Y204041D01*
X16028Y204049D01*
X15977Y204038D01*
X15925Y204036D01*
X15858Y204012D01*
X15787Y203996D01*
X15743Y203970D01*
X15694Y203952D01*
X15638Y203907D01*
X15576Y203870D01*
X15543Y203831D01*
X15502Y203798D01*
X15463Y203738D01*
X15416Y203683D01*
X15397Y203635D01*
X15369Y203591D01*
X15351Y203522D01*
X15325Y203455D01*
X15317Y203384D01*
X15309Y203353D01*
X15311Y203329D01*
X15306Y203288D01*
X15306Y202046D01*
X15313Y202004D01*
X15313Y202001D01*
X15316Y201985D01*
X15321Y201956D01*
X15328Y201865D01*
X15341Y201835D01*
X15346Y201803D01*
X15362Y201772D01*
X15365Y201761D01*
X15391Y201717D01*
X15424Y201639D01*
X15450Y201606D01*
X15461Y201586D01*
X15480Y201567D01*
X15491Y201549D01*
X15505Y201537D01*
X15529Y201508D01*
X21765Y195272D01*
X21839Y195219D01*
X21908Y195159D01*
X21938Y195147D01*
X21965Y195128D01*
X22052Y195101D01*
X22136Y195067D01*
X22177Y195063D01*
X22200Y195056D01*
X22232Y195057D01*
X22303Y195049D01*
X24109Y195049D01*
X26774Y192384D01*
X26774Y188616D01*
X24109Y185951D01*
X20341Y185951D01*
X17676Y188616D01*
X17676Y190422D01*
X17662Y190512D01*
X17654Y190603D01*
X17642Y190633D01*
X17637Y190665D01*
X17594Y190745D01*
X17558Y190829D01*
X17532Y190861D01*
X17521Y190882D01*
X17498Y190904D01*
X17453Y190960D01*
X15483Y192931D01*
X15466Y192943D01*
X15454Y192958D01*
X15367Y193014D01*
X15283Y193074D01*
X15264Y193080D01*
X15247Y193091D01*
X15147Y193116D01*
X15048Y193147D01*
X15028Y193146D01*
X15008Y193151D01*
X14905Y193143D01*
X14802Y193140D01*
X14783Y193134D01*
X14763Y193132D01*
X14668Y193091D01*
X14571Y193056D01*
X14555Y193044D01*
X14537Y193036D01*
X14415Y192938D01*
X2150Y192938D01*
X1257Y193831D01*
X1257Y205094D01*
X2150Y205987D01*
X12607Y205987D01*
X12678Y205999D01*
X12750Y206001D01*
X12799Y206019D01*
X12850Y206027D01*
X12913Y206060D01*
X12981Y206085D01*
X13021Y206118D01*
X13067Y206142D01*
X13117Y206194D01*
X13173Y206239D01*
X13201Y206283D01*
X13237Y206320D01*
X13267Y206385D01*
X13306Y206446D01*
X13318Y206496D01*
X13340Y206543D01*
X13348Y206615D01*
X13366Y206684D01*
X13362Y206736D01*
X13367Y206788D01*
X13352Y206858D01*
X13347Y206929D01*
X13326Y206977D01*
X13315Y207028D01*
X13278Y207090D01*
X13250Y207156D01*
X13206Y207212D01*
X13189Y207239D01*
X13171Y207255D01*
X13145Y207287D01*
X10717Y209715D01*
X10644Y209768D01*
X10574Y209827D01*
X10544Y209840D01*
X10518Y209858D01*
X10431Y209885D01*
X10346Y209919D01*
X10305Y209924D01*
X10283Y209931D01*
X10250Y209930D01*
X10179Y209938D01*
X2150Y209938D01*
X1257Y210831D01*
X1257Y222094D01*
X2150Y222987D01*
X14413Y222987D01*
X15306Y222094D01*
X15306Y219866D01*
X15318Y219795D01*
X15319Y219724D01*
X15337Y219675D01*
X15346Y219623D01*
X15379Y219560D01*
X15404Y219493D01*
X15436Y219452D01*
X15461Y219406D01*
X15513Y219356D01*
X15558Y219300D01*
X15601Y219272D01*
X15639Y219236D01*
X15704Y219206D01*
X15765Y219167D01*
X15815Y219155D01*
X15862Y219133D01*
X15934Y219125D01*
X16003Y219107D01*
X16055Y219111D01*
X16107Y219106D01*
X16177Y219121D01*
X16248Y219127D01*
X16296Y219147D01*
X16347Y219158D01*
X16409Y219195D01*
X16475Y219223D01*
X16531Y219268D01*
X16558Y219284D01*
X16573Y219302D01*
X16606Y219328D01*
X18453Y221175D01*
X18477Y221175D01*
X18497Y221178D01*
X18517Y221176D01*
X18618Y221198D01*
X18720Y221214D01*
X18738Y221224D01*
X18757Y221228D01*
X18846Y221281D01*
X18938Y221330D01*
X18951Y221344D01*
X18968Y221354D01*
X19036Y221433D01*
X19107Y221508D01*
X19115Y221526D01*
X19128Y221541D01*
X19167Y221637D01*
X19211Y221731D01*
X19213Y221751D01*
X19220Y221769D01*
X19239Y221936D01*
X19239Y223419D01*
X20132Y224312D01*
X31395Y224312D01*
X32288Y223419D01*
X32288Y208597D01*
X32291Y208578D01*
X32289Y208558D01*
X32311Y208457D01*
X32328Y208355D01*
X32337Y208337D01*
X32341Y208318D01*
X32395Y208229D01*
X32443Y208137D01*
X32457Y208124D01*
X32468Y208107D01*
X32546Y208039D01*
X32621Y207968D01*
X32639Y207960D01*
X32655Y207947D01*
X32751Y207908D01*
X32844Y207864D01*
X32864Y207862D01*
X32883Y207855D01*
X33049Y207836D01*
X33347Y207836D01*
X33437Y207851D01*
X33528Y207858D01*
X33558Y207871D01*
X33590Y207876D01*
X33670Y207919D01*
X33754Y207954D01*
X33786Y207980D01*
X33807Y207991D01*
X33829Y208014D01*
X33885Y208059D01*
X38016Y212190D01*
X38062Y212255D01*
X38077Y212270D01*
X38080Y212277D01*
X38128Y212333D01*
X38140Y212363D01*
X38159Y212390D01*
X38186Y212477D01*
X38220Y212561D01*
X38225Y212602D01*
X38232Y212625D01*
X38231Y212657D01*
X38239Y212728D01*
X38239Y223419D01*
X39132Y224312D01*
X50395Y224312D01*
X51288Y223419D01*
X51288Y208156D01*
X50395Y207263D01*
X42027Y207263D01*
X41937Y207248D01*
X41846Y207241D01*
X41816Y207228D01*
X41784Y207223D01*
X41704Y207180D01*
X41620Y207145D01*
X41588Y207119D01*
X41567Y207108D01*
X41545Y207085D01*
X41489Y207040D01*
X38061Y203612D01*
X38019Y203554D01*
X37970Y203502D01*
X37948Y203454D01*
X37917Y203412D01*
X37896Y203344D01*
X37866Y203278D01*
X37860Y203227D01*
X37845Y203177D01*
X37847Y203105D01*
X37839Y203034D01*
X37850Y202983D01*
X37851Y202931D01*
X37876Y202864D01*
X37891Y202794D01*
X37918Y202749D01*
X37936Y202700D01*
X37981Y202644D01*
X38017Y202583D01*
X38057Y202549D01*
X38089Y202508D01*
X38150Y202469D01*
X38204Y202423D01*
X38253Y202403D01*
X38296Y202375D01*
X38366Y202358D01*
X38432Y202331D01*
X38504Y202323D01*
X38535Y202315D01*
X38558Y202317D01*
X38599Y202312D01*
X40895Y202312D01*
X41788Y201419D01*
X41788Y191890D01*
X41803Y191800D01*
X41810Y191709D01*
X41823Y191679D01*
X41828Y191647D01*
X41871Y191566D01*
X41906Y191482D01*
X41932Y191450D01*
X41943Y191430D01*
X41966Y191407D01*
X42011Y191351D01*
X42736Y190626D01*
X42736Y182473D01*
X42739Y182454D01*
X42737Y182434D01*
X42759Y182333D01*
X42776Y182231D01*
X42785Y182213D01*
X42790Y182194D01*
X42843Y182105D01*
X42891Y182013D01*
X42905Y182000D01*
X42916Y181983D01*
X42994Y181915D01*
X43069Y181844D01*
X43087Y181836D01*
X43103Y181823D01*
X43199Y181784D01*
X43292Y181740D01*
X43312Y181738D01*
X43331Y181731D01*
X43497Y181712D01*
X45819Y181712D01*
X46712Y180819D01*
X46712Y169556D01*
X45819Y168663D01*
X33556Y168663D01*
G37*
%LPD*%
G36*
X131941Y196792D02*
X131941Y196792D01*
X131984Y196791D01*
X135977Y197392D01*
X136007Y197403D01*
X136050Y197408D01*
X139909Y198597D01*
X139937Y198612D01*
X139978Y198624D01*
X143616Y200375D01*
X143638Y200392D01*
X143664Y200401D01*
X143717Y200451D01*
X143775Y200495D01*
X143788Y200519D01*
X143808Y200538D01*
X143838Y200604D01*
X143874Y200668D01*
X143877Y200695D01*
X143888Y200720D01*
X143889Y200793D01*
X143898Y200865D01*
X143890Y200891D01*
X143890Y200919D01*
X143854Y201017D01*
X143842Y201056D01*
X143836Y201064D01*
X143832Y201075D01*
X116832Y247875D01*
X116814Y247895D01*
X116803Y247920D01*
X116749Y247969D01*
X116701Y248024D01*
X116676Y248035D01*
X116656Y248054D01*
X116587Y248078D01*
X116521Y248109D01*
X116494Y248111D01*
X116469Y248120D01*
X116396Y248115D01*
X116323Y248118D01*
X116297Y248109D01*
X116270Y248107D01*
X116174Y248063D01*
X116136Y248049D01*
X116129Y248042D01*
X116119Y248038D01*
X112782Y245764D01*
X112760Y245741D01*
X112724Y245718D01*
X109763Y242972D01*
X109744Y242946D01*
X109712Y242918D01*
X107194Y239762D01*
X107179Y239733D01*
X107152Y239700D01*
X105132Y236204D01*
X105122Y236174D01*
X105099Y236137D01*
X103623Y232379D01*
X103618Y232347D01*
X103601Y232307D01*
X102701Y228371D01*
X102701Y228339D01*
X102690Y228297D01*
X102387Y224271D01*
X102390Y224248D01*
X102387Y224228D01*
X102389Y224218D01*
X102387Y224197D01*
X102688Y220170D01*
X102696Y220139D01*
X102699Y220096D01*
X103596Y216160D01*
X103609Y216131D01*
X103618Y216088D01*
X105092Y212329D01*
X105109Y212302D01*
X105124Y212262D01*
X107142Y208765D01*
X107163Y208741D01*
X107184Y208703D01*
X109700Y205545D01*
X109725Y205525D01*
X109751Y205491D01*
X112710Y202743D01*
X112737Y202727D01*
X112768Y202697D01*
X116104Y200421D01*
X116133Y200409D01*
X116168Y200384D01*
X119806Y198631D01*
X119836Y198623D01*
X119875Y198604D01*
X123733Y197412D01*
X123765Y197409D01*
X123806Y197396D01*
X127798Y196793D01*
X127830Y196794D01*
X127872Y196787D01*
X131910Y196786D01*
X131941Y196792D01*
G37*
G36*
X-127872Y196787D02*
X-127872Y196787D01*
X-127841Y196793D01*
X-127798Y196793D01*
X-123806Y197396D01*
X-123776Y197407D01*
X-123733Y197412D01*
X-119875Y198604D01*
X-119847Y198619D01*
X-119806Y198631D01*
X-116168Y200384D01*
X-116143Y200403D01*
X-116104Y200421D01*
X-112768Y202697D01*
X-112746Y202720D01*
X-112710Y202743D01*
X-109751Y205491D01*
X-109732Y205516D01*
X-109700Y205545D01*
X-107184Y208703D01*
X-107169Y208731D01*
X-107142Y208765D01*
X-105124Y212262D01*
X-105114Y212292D01*
X-105092Y212329D01*
X-103618Y216088D01*
X-103612Y216120D01*
X-103596Y216160D01*
X-102699Y220096D01*
X-102698Y220128D01*
X-102688Y220170D01*
X-102387Y224197D01*
X-102391Y224228D01*
X-102390Y224244D01*
X-102387Y224261D01*
X-102388Y224265D01*
X-102387Y224271D01*
X-102690Y228297D01*
X-102699Y228328D01*
X-102701Y228371D01*
X-103601Y232307D01*
X-103614Y232336D01*
X-103623Y232379D01*
X-105099Y236137D01*
X-105117Y236164D01*
X-105132Y236204D01*
X-107152Y239700D01*
X-107173Y239724D01*
X-107194Y239762D01*
X-109712Y242918D01*
X-109737Y242938D01*
X-109763Y242972D01*
X-112724Y245718D01*
X-112751Y245734D01*
X-112782Y245764D01*
X-116119Y248038D01*
X-116144Y248048D01*
X-116165Y248065D01*
X-116235Y248086D01*
X-116302Y248115D01*
X-116330Y248115D01*
X-116356Y248122D01*
X-116428Y248114D01*
X-116501Y248114D01*
X-116526Y248103D01*
X-116553Y248100D01*
X-116617Y248064D01*
X-116684Y248036D01*
X-116703Y248016D01*
X-116726Y248003D01*
X-116794Y247922D01*
X-116822Y247892D01*
X-116825Y247883D01*
X-116832Y247875D01*
X-143832Y201075D01*
X-143841Y201049D01*
X-143857Y201026D01*
X-143872Y200955D01*
X-143896Y200886D01*
X-143893Y200859D01*
X-143899Y200832D01*
X-143886Y200761D01*
X-143880Y200688D01*
X-143867Y200663D01*
X-143862Y200637D01*
X-143822Y200576D01*
X-143788Y200511D01*
X-143767Y200494D01*
X-143752Y200471D01*
X-143666Y200410D01*
X-143635Y200385D01*
X-143626Y200382D01*
X-143616Y200375D01*
X-139978Y198624D01*
X-139947Y198617D01*
X-139909Y198597D01*
X-136050Y197408D01*
X-136018Y197405D01*
X-135977Y197392D01*
X-131984Y196791D01*
X-131953Y196793D01*
X-131910Y196786D01*
X-127872Y196787D01*
G37*
G36*
X116428Y50336D02*
X116428Y50336D01*
X116501Y50336D01*
X116526Y50347D01*
X116553Y50350D01*
X116617Y50386D01*
X116684Y50414D01*
X116703Y50434D01*
X116726Y50447D01*
X116794Y50528D01*
X116822Y50558D01*
X116825Y50567D01*
X116832Y50576D01*
X143832Y97376D01*
X143841Y97401D01*
X143857Y97424D01*
X143872Y97495D01*
X143896Y97564D01*
X143893Y97591D01*
X143899Y97618D01*
X143886Y97689D01*
X143880Y97762D01*
X143867Y97787D01*
X143862Y97813D01*
X143822Y97874D01*
X143788Y97939D01*
X143767Y97956D01*
X143752Y97979D01*
X143666Y98040D01*
X143635Y98065D01*
X143626Y98068D01*
X143616Y98075D01*
X139978Y99826D01*
X139947Y99833D01*
X139909Y99853D01*
X136050Y101042D01*
X136018Y101045D01*
X135977Y101058D01*
X131984Y101659D01*
X131953Y101657D01*
X131910Y101664D01*
X127872Y101663D01*
X127841Y101657D01*
X127798Y101657D01*
X123806Y101054D01*
X123776Y101043D01*
X123733Y101038D01*
X119875Y99846D01*
X119847Y99831D01*
X119806Y99819D01*
X116168Y98066D01*
X116143Y98047D01*
X116104Y98029D01*
X112768Y95753D01*
X112746Y95730D01*
X112710Y95707D01*
X109751Y92959D01*
X109732Y92934D01*
X109700Y92905D01*
X107184Y89747D01*
X107169Y89719D01*
X107142Y89685D01*
X105124Y86188D01*
X105114Y86158D01*
X105092Y86121D01*
X103618Y82362D01*
X103612Y82330D01*
X103596Y82290D01*
X102699Y78354D01*
X102698Y78322D01*
X102688Y78280D01*
X102387Y74254D01*
X102391Y74222D01*
X102387Y74179D01*
X102690Y70153D01*
X102699Y70122D01*
X102701Y70079D01*
X103601Y66143D01*
X103614Y66114D01*
X103623Y66071D01*
X105099Y62313D01*
X105117Y62286D01*
X105132Y62246D01*
X107152Y58750D01*
X107173Y58726D01*
X107194Y58688D01*
X109712Y55532D01*
X109737Y55512D01*
X109763Y55478D01*
X112724Y52732D01*
X112751Y52716D01*
X112782Y52686D01*
X116119Y50412D01*
X116144Y50402D01*
X116165Y50385D01*
X116235Y50364D01*
X116302Y50335D01*
X116330Y50336D01*
X116356Y50328D01*
X116428Y50336D01*
G37*
G36*
X-116396Y50335D02*
X-116396Y50335D01*
X-116323Y50332D01*
X-116297Y50341D01*
X-116270Y50343D01*
X-116174Y50387D01*
X-116136Y50401D01*
X-116129Y50408D01*
X-116119Y50412D01*
X-112782Y52686D01*
X-112760Y52709D01*
X-112724Y52732D01*
X-109763Y55478D01*
X-109744Y55504D01*
X-109712Y55532D01*
X-107194Y58688D01*
X-107179Y58717D01*
X-107152Y58750D01*
X-105132Y62246D01*
X-105122Y62276D01*
X-105099Y62313D01*
X-103623Y66071D01*
X-103618Y66103D01*
X-103601Y66143D01*
X-102701Y70079D01*
X-102701Y70111D01*
X-102690Y70153D01*
X-102387Y74179D01*
X-102391Y74210D01*
X-102387Y74254D01*
X-102688Y78280D01*
X-102696Y78311D01*
X-102699Y78354D01*
X-103596Y82290D01*
X-103609Y82319D01*
X-103618Y82362D01*
X-105092Y86121D01*
X-105109Y86148D01*
X-105124Y86188D01*
X-107142Y89685D01*
X-107163Y89709D01*
X-107184Y89747D01*
X-109700Y92905D01*
X-109725Y92925D01*
X-109751Y92959D01*
X-112710Y95707D01*
X-112737Y95723D01*
X-112768Y95753D01*
X-116104Y98029D01*
X-116133Y98041D01*
X-116168Y98066D01*
X-119806Y99819D01*
X-119836Y99827D01*
X-119875Y99846D01*
X-123733Y101038D01*
X-123765Y101041D01*
X-123806Y101054D01*
X-127798Y101657D01*
X-127830Y101656D01*
X-127872Y101663D01*
X-131910Y101664D01*
X-131941Y101658D01*
X-131984Y101659D01*
X-135977Y101058D01*
X-136007Y101047D01*
X-136050Y101042D01*
X-139909Y99853D01*
X-139937Y99838D01*
X-139978Y99826D01*
X-143616Y98075D01*
X-143638Y98058D01*
X-143664Y98049D01*
X-143717Y97999D01*
X-143775Y97955D01*
X-143788Y97931D01*
X-143808Y97912D01*
X-143838Y97846D01*
X-143874Y97782D01*
X-143877Y97755D01*
X-143888Y97730D01*
X-143889Y97657D01*
X-143898Y97585D01*
X-143890Y97559D01*
X-143890Y97531D01*
X-143854Y97433D01*
X-143842Y97394D01*
X-143836Y97386D01*
X-143832Y97376D01*
X-116832Y50576D01*
X-116814Y50555D01*
X-116803Y50530D01*
X-116749Y50481D01*
X-116701Y50427D01*
X-116676Y50415D01*
X-116656Y50396D01*
X-116587Y50372D01*
X-116521Y50341D01*
X-116494Y50340D01*
X-116469Y50330D01*
X-116396Y50335D01*
G37*
G36*
X2049Y271808D02*
X2049Y271808D01*
X2092Y271807D01*
X6082Y272408D01*
X6112Y272419D01*
X6155Y272425D01*
X10011Y273614D01*
X10039Y273630D01*
X10081Y273642D01*
X13717Y275393D01*
X13742Y275412D01*
X13781Y275430D01*
X17115Y277703D01*
X17138Y277726D01*
X17174Y277750D01*
X20132Y280494D01*
X20151Y280520D01*
X20183Y280549D01*
X22699Y283704D01*
X22713Y283732D01*
X22741Y283766D01*
X24759Y287261D01*
X24769Y287291D01*
X24791Y287328D01*
X26265Y291084D01*
X26266Y291091D01*
X26268Y291092D01*
X26272Y291119D01*
X26287Y291156D01*
X27185Y295090D01*
X27186Y295122D01*
X27196Y295164D01*
X27498Y299188D01*
X27494Y299215D01*
X27499Y299242D01*
X27482Y299312D01*
X27473Y299385D01*
X27459Y299409D01*
X27453Y299435D01*
X27410Y299494D01*
X27373Y299557D01*
X27351Y299573D01*
X27335Y299595D01*
X27272Y299632D01*
X27214Y299676D01*
X27187Y299683D01*
X27164Y299697D01*
X27060Y299714D01*
X27021Y299724D01*
X27011Y299722D01*
X27000Y299724D01*
X-27000Y299724D01*
X-27027Y299719D01*
X-27054Y299721D01*
X-27123Y299699D01*
X-27195Y299685D01*
X-27217Y299669D01*
X-27243Y299661D01*
X-27299Y299613D01*
X-27359Y299572D01*
X-27373Y299549D01*
X-27394Y299531D01*
X-27427Y299466D01*
X-27466Y299405D01*
X-27470Y299378D01*
X-27482Y299353D01*
X-27492Y299249D01*
X-27499Y299208D01*
X-27497Y299199D01*
X-27498Y299188D01*
X-27196Y295164D01*
X-27188Y295133D01*
X-27185Y295090D01*
X-26287Y291156D01*
X-26274Y291127D01*
X-26265Y291084D01*
X-24791Y287328D01*
X-24774Y287301D01*
X-24759Y287261D01*
X-22741Y283766D01*
X-22720Y283742D01*
X-22699Y283704D01*
X-20183Y280549D01*
X-20158Y280529D01*
X-20132Y280494D01*
X-17174Y277750D01*
X-17147Y277733D01*
X-17115Y277703D01*
X-13781Y275430D01*
X-13752Y275417D01*
X-13717Y275393D01*
X-10081Y273642D01*
X-10050Y273634D01*
X-10011Y273614D01*
X-6155Y272425D01*
X-6124Y272422D01*
X-6082Y272408D01*
X-2092Y271807D01*
X-2060Y271808D01*
X-2018Y271801D01*
X2018Y271801D01*
X2049Y271808D01*
G37*
G36*
X27027Y-1269D02*
X27027Y-1269D01*
X27054Y-1271D01*
X27123Y-1249D01*
X27195Y-1235D01*
X27217Y-1219D01*
X27243Y-1211D01*
X27299Y-1163D01*
X27359Y-1122D01*
X27373Y-1099D01*
X27394Y-1081D01*
X27427Y-1016D01*
X27466Y-955D01*
X27470Y-928D01*
X27482Y-903D01*
X27492Y-799D01*
X27499Y-758D01*
X27497Y-749D01*
X27498Y-738D01*
X27196Y3286D01*
X27188Y3317D01*
X27185Y3360D01*
X26287Y7294D01*
X26274Y7323D01*
X26265Y7366D01*
X24791Y11122D01*
X24774Y11149D01*
X24759Y11190D01*
X22741Y14684D01*
X22720Y14708D01*
X22699Y14746D01*
X20183Y17901D01*
X20158Y17921D01*
X20132Y17956D01*
X17174Y20700D01*
X17147Y20717D01*
X17115Y20747D01*
X13781Y23020D01*
X13752Y23033D01*
X13717Y23058D01*
X10081Y24808D01*
X10050Y24816D01*
X10011Y24836D01*
X6155Y26025D01*
X6124Y26028D01*
X6082Y26042D01*
X2092Y26643D01*
X2060Y26642D01*
X2018Y26649D01*
X-2018Y26649D01*
X-2049Y26642D01*
X-2092Y26643D01*
X-6082Y26042D01*
X-6112Y26031D01*
X-6155Y26025D01*
X-10011Y24836D01*
X-10039Y24820D01*
X-10081Y24808D01*
X-13717Y23058D01*
X-13742Y23038D01*
X-13781Y23020D01*
X-17115Y20747D01*
X-17138Y20724D01*
X-17174Y20700D01*
X-20132Y17956D01*
X-20151Y17930D01*
X-20183Y17901D01*
X-22699Y14746D01*
X-22713Y14718D01*
X-22741Y14684D01*
X-24759Y11190D01*
X-24769Y11159D01*
X-24791Y11122D01*
X-26265Y7366D01*
X-26271Y7334D01*
X-26287Y7294D01*
X-27185Y3360D01*
X-27186Y3328D01*
X-27196Y3286D01*
X-27498Y-738D01*
X-27494Y-765D01*
X-27499Y-792D01*
X-27482Y-862D01*
X-27473Y-935D01*
X-27459Y-959D01*
X-27453Y-985D01*
X-27410Y-1044D01*
X-27373Y-1107D01*
X-27351Y-1123D01*
X-27335Y-1145D01*
X-27272Y-1182D01*
X-27214Y-1226D01*
X-27187Y-1233D01*
X-27164Y-1247D01*
X-27060Y-1264D01*
X-27021Y-1274D01*
X-27011Y-1272D01*
X-27000Y-1274D01*
X27000Y-1274D01*
X27027Y-1269D01*
G37*
G36*
X100087Y180612D02*
X100087Y180612D01*
X100161Y180625D01*
X100171Y180632D01*
X100181Y180634D01*
X100210Y180658D01*
X100281Y180706D01*
X117205Y197630D01*
X117219Y197653D01*
X117241Y197671D01*
X117265Y197726D01*
X117296Y197777D01*
X117299Y197804D01*
X117310Y197830D01*
X117307Y197890D01*
X117313Y197949D01*
X117303Y197975D01*
X117302Y198003D01*
X117272Y198055D01*
X117251Y198111D01*
X117231Y198130D01*
X117217Y198154D01*
X117152Y198203D01*
X117124Y198229D01*
X117113Y198232D01*
X117101Y198241D01*
X116219Y198666D01*
X116172Y198677D01*
X116128Y198696D01*
X116081Y198697D01*
X116050Y198704D01*
X116022Y198697D01*
X115983Y198697D01*
X115937Y198688D01*
X115844Y198752D01*
X115806Y198766D01*
X115772Y198790D01*
X115717Y198801D01*
X115683Y198814D01*
X115660Y198812D01*
X115630Y198818D01*
X114458Y198818D01*
X111714Y201562D01*
X111688Y201577D01*
X111659Y201607D01*
X111216Y201909D01*
X111207Y201956D01*
X111197Y201979D01*
X111196Y201989D01*
X111186Y202009D01*
X111178Y202047D01*
X111150Y202084D01*
X111137Y202114D01*
X111121Y202127D01*
X111113Y202142D01*
X111103Y202149D01*
X111092Y202164D01*
X109293Y203834D01*
X109251Y203858D01*
X109215Y203890D01*
X109171Y203904D01*
X109143Y203920D01*
X109114Y203922D01*
X109077Y203933D01*
X109030Y203939D01*
X108620Y204454D01*
X108600Y204469D01*
X108581Y204495D01*
X108098Y204943D01*
X108097Y204991D01*
X108084Y205037D01*
X108081Y205085D01*
X108060Y205126D01*
X108051Y205158D01*
X108032Y205179D01*
X108014Y205213D01*
X107840Y205432D01*
X107825Y205443D01*
X107812Y205464D01*
X106068Y207208D01*
X106024Y207234D01*
X105987Y207269D01*
X105952Y207280D01*
X105921Y207299D01*
X105870Y207304D01*
X105821Y207318D01*
X105785Y207312D01*
X105748Y207315D01*
X105700Y207297D01*
X105650Y207289D01*
X105615Y207265D01*
X105586Y207254D01*
X105565Y207231D01*
X105530Y207208D01*
X103220Y204898D01*
X99452Y204898D01*
X96787Y207562D01*
X96787Y211331D01*
X99097Y213640D01*
X99124Y213684D01*
X99159Y213721D01*
X99169Y213756D01*
X99188Y213788D01*
X99193Y213838D01*
X99208Y213887D01*
X99202Y213924D01*
X99205Y213960D01*
X99187Y214008D01*
X99178Y214058D01*
X99154Y214093D01*
X99143Y214122D01*
X99121Y214143D01*
X99097Y214178D01*
X95519Y217756D01*
X95454Y217797D01*
X95392Y217840D01*
X95380Y217842D01*
X95372Y217848D01*
X95335Y217851D01*
X95250Y217868D01*
X79375Y217868D01*
X79301Y217850D01*
X79226Y217837D01*
X79216Y217831D01*
X79206Y217828D01*
X79177Y217805D01*
X79106Y217756D01*
X67994Y206644D01*
X67953Y206579D01*
X67910Y206517D01*
X67908Y206505D01*
X67902Y206497D01*
X67899Y206460D01*
X67882Y206375D01*
X67882Y203200D01*
X67900Y203126D01*
X67913Y203051D01*
X67919Y203041D01*
X67922Y203031D01*
X67946Y203002D01*
X67994Y202931D01*
X90219Y180706D01*
X90283Y180666D01*
X90345Y180622D01*
X90357Y180620D01*
X90366Y180615D01*
X90403Y180611D01*
X90488Y180595D01*
X100013Y180595D01*
X100087Y180612D01*
G37*
G36*
X-6276Y59962D02*
X-6276Y59962D01*
X-6201Y59975D01*
X-6191Y59982D01*
X-6181Y59984D01*
X-6152Y60008D01*
X-6081Y60056D01*
X-4494Y61644D01*
X-4454Y61708D01*
X-4410Y61770D01*
X-4408Y61782D01*
X-4402Y61791D01*
X-4399Y61828D01*
X-4382Y61913D01*
X-4382Y71970D01*
X-4394Y72020D01*
X-4396Y72071D01*
X-4413Y72103D01*
X-4422Y72139D01*
X-4454Y72178D01*
X-4479Y72223D01*
X-4509Y72244D01*
X-4532Y72272D01*
X-4579Y72293D01*
X-4620Y72323D01*
X-4662Y72331D01*
X-4690Y72343D01*
X-4721Y72342D01*
X-4763Y72350D01*
X-14132Y72350D01*
X-15025Y73243D01*
X-15025Y85507D01*
X-14132Y86400D01*
X-12929Y86400D01*
X-12879Y86411D01*
X-12828Y86413D01*
X-12796Y86431D01*
X-12760Y86439D01*
X-12721Y86472D01*
X-12676Y86496D01*
X-12655Y86526D01*
X-12627Y86549D01*
X-12606Y86596D01*
X-12576Y86638D01*
X-12568Y86680D01*
X-12556Y86708D01*
X-12557Y86738D01*
X-12549Y86780D01*
X-12549Y88045D01*
X-12560Y88095D01*
X-12562Y88146D01*
X-12580Y88178D01*
X-12588Y88214D01*
X-12621Y88253D01*
X-12645Y88298D01*
X-12675Y88319D01*
X-12698Y88347D01*
X-12745Y88368D01*
X-12787Y88398D01*
X-12829Y88406D01*
X-12857Y88418D01*
X-12887Y88417D01*
X-12929Y88425D01*
X-15132Y88425D01*
X-16025Y89318D01*
X-16025Y93663D01*
X-16036Y93712D01*
X-16038Y93763D01*
X-16056Y93795D01*
X-16064Y93831D01*
X-16097Y93871D01*
X-16121Y93915D01*
X-16151Y93937D01*
X-16174Y93965D01*
X-16221Y93986D01*
X-16263Y94015D01*
X-16305Y94023D01*
X-16333Y94036D01*
X-16363Y94035D01*
X-16405Y94043D01*
X-38100Y94043D01*
X-38174Y94025D01*
X-38249Y94012D01*
X-38259Y94006D01*
X-38269Y94003D01*
X-38298Y93980D01*
X-38369Y93931D01*
X-40426Y91874D01*
X-40466Y91809D01*
X-40510Y91747D01*
X-40512Y91735D01*
X-40518Y91727D01*
X-40521Y91690D01*
X-40538Y91605D01*
X-40538Y89118D01*
X-41431Y88225D01*
X-43634Y88225D01*
X-43683Y88214D01*
X-43734Y88212D01*
X-43766Y88194D01*
X-43802Y88186D01*
X-43842Y88153D01*
X-43886Y88129D01*
X-43908Y88099D01*
X-43936Y88076D01*
X-43957Y88029D01*
X-43986Y87987D01*
X-43994Y87945D01*
X-44007Y87917D01*
X-44006Y87887D01*
X-44014Y87845D01*
X-44014Y83692D01*
X-44002Y83643D01*
X-44000Y83592D01*
X-43983Y83560D01*
X-43974Y83524D01*
X-43942Y83484D01*
X-43917Y83440D01*
X-43887Y83418D01*
X-43864Y83390D01*
X-43817Y83369D01*
X-43776Y83340D01*
X-43734Y83332D01*
X-43706Y83319D01*
X-43675Y83320D01*
X-43634Y83312D01*
X-43431Y83312D01*
X-42538Y82419D01*
X-42538Y73156D01*
X-43431Y72263D01*
X-44450Y72263D01*
X-44500Y72251D01*
X-44551Y72249D01*
X-44583Y72232D01*
X-44619Y72223D01*
X-44658Y72191D01*
X-44703Y72166D01*
X-44724Y72136D01*
X-44752Y72113D01*
X-44773Y72066D01*
X-44803Y72025D01*
X-44811Y71983D01*
X-44823Y71955D01*
X-44822Y71924D01*
X-44830Y71883D01*
X-44830Y61913D01*
X-44813Y61839D01*
X-44800Y61764D01*
X-44793Y61754D01*
X-44791Y61744D01*
X-44767Y61715D01*
X-44719Y61644D01*
X-43131Y60056D01*
X-43067Y60016D01*
X-43005Y59972D01*
X-42993Y59970D01*
X-42984Y59965D01*
X-42947Y59961D01*
X-42863Y59945D01*
X-6350Y59945D01*
X-6276Y59962D01*
G37*
G36*
X-52314Y182200D02*
X-52314Y182200D01*
X-52239Y182213D01*
X-52229Y182219D01*
X-52219Y182222D01*
X-52190Y182246D01*
X-52119Y182294D01*
X-48851Y185561D01*
X-48811Y185626D01*
X-48767Y185688D01*
X-48765Y185700D01*
X-48760Y185708D01*
X-48756Y185745D01*
X-48740Y185830D01*
X-48740Y189047D01*
X-47911Y189875D01*
X-47871Y189940D01*
X-47827Y190002D01*
X-47825Y190014D01*
X-47820Y190023D01*
X-47816Y190060D01*
X-47811Y190085D01*
X-47807Y190095D01*
X-47807Y190106D01*
X-47800Y190144D01*
X-47800Y199832D01*
X-46907Y200725D01*
X-44450Y200725D01*
X-44400Y200736D01*
X-44349Y200738D01*
X-44317Y200756D01*
X-44281Y200764D01*
X-44242Y200797D01*
X-44197Y200821D01*
X-44176Y200851D01*
X-44148Y200874D01*
X-44127Y200921D01*
X-44097Y200963D01*
X-44089Y201005D01*
X-44077Y201033D01*
X-44078Y201063D01*
X-44070Y201105D01*
X-44070Y233363D01*
X-44081Y233412D01*
X-44083Y233463D01*
X-44101Y233495D01*
X-44109Y233531D01*
X-44142Y233571D01*
X-44166Y233615D01*
X-44196Y233637D01*
X-44219Y233665D01*
X-44266Y233686D01*
X-44308Y233715D01*
X-44350Y233723D01*
X-44378Y233736D01*
X-44408Y233735D01*
X-44450Y233743D01*
X-52388Y233743D01*
X-52462Y233725D01*
X-52536Y233712D01*
X-52546Y233706D01*
X-52556Y233703D01*
X-52585Y233680D01*
X-52656Y233631D01*
X-68531Y217756D01*
X-68571Y217692D01*
X-68615Y217630D01*
X-68617Y217618D01*
X-68623Y217609D01*
X-68626Y217572D01*
X-68643Y217488D01*
X-68643Y184150D01*
X-68625Y184076D01*
X-68612Y184001D01*
X-68606Y183991D01*
X-68603Y183981D01*
X-68580Y183952D01*
X-68531Y183881D01*
X-66944Y182294D01*
X-66879Y182254D01*
X-66817Y182210D01*
X-66805Y182208D01*
X-66797Y182202D01*
X-66760Y182199D01*
X-66675Y182182D01*
X-52388Y182182D01*
X-52314Y182200D01*
G37*
G36*
X-16355Y102819D02*
X-16355Y102819D01*
X-16304Y102821D01*
X-16272Y102838D01*
X-16236Y102847D01*
X-16197Y102879D01*
X-16152Y102904D01*
X-16131Y102934D01*
X-16103Y102957D01*
X-16082Y103004D01*
X-16052Y103045D01*
X-16044Y103087D01*
X-16032Y103115D01*
X-16033Y103146D01*
X-16025Y103188D01*
X-16025Y104582D01*
X-15606Y105000D01*
X-15566Y105065D01*
X-15522Y105127D01*
X-15520Y105139D01*
X-15515Y105147D01*
X-15511Y105184D01*
X-15495Y105269D01*
X-15495Y120650D01*
X-15506Y120700D01*
X-15508Y120751D01*
X-15526Y120783D01*
X-15534Y120819D01*
X-15567Y120858D01*
X-15591Y120903D01*
X-15621Y120924D01*
X-15644Y120952D01*
X-15691Y120973D01*
X-15733Y121003D01*
X-15775Y121011D01*
X-15803Y121023D01*
X-15833Y121022D01*
X-15875Y121030D01*
X-68263Y121030D01*
X-68337Y121013D01*
X-68411Y121000D01*
X-68421Y120993D01*
X-68431Y120991D01*
X-68460Y120967D01*
X-68531Y120919D01*
X-71181Y118269D01*
X-71191Y118254D01*
X-71198Y118248D01*
X-71206Y118228D01*
X-71221Y118205D01*
X-71265Y118143D01*
X-71267Y118131D01*
X-71272Y118122D01*
X-71276Y118085D01*
X-71292Y118000D01*
X-71292Y115657D01*
X-71706Y115243D01*
X-71720Y115222D01*
X-71739Y115206D01*
X-71759Y115160D01*
X-71790Y115117D01*
X-71792Y115104D01*
X-71798Y115096D01*
X-71800Y115069D01*
X-71810Y115048D01*
X-71809Y115021D01*
X-71818Y114974D01*
X-71818Y103188D01*
X-71806Y103138D01*
X-71804Y103087D01*
X-71787Y103055D01*
X-71778Y103019D01*
X-71746Y102979D01*
X-71721Y102935D01*
X-71691Y102914D01*
X-71668Y102885D01*
X-71621Y102864D01*
X-71580Y102835D01*
X-71538Y102827D01*
X-71510Y102814D01*
X-71479Y102815D01*
X-71438Y102807D01*
X-16405Y102807D01*
X-16355Y102819D01*
G37*
G36*
X28649Y245700D02*
X28649Y245700D01*
X28724Y245713D01*
X28734Y245719D01*
X28744Y245722D01*
X28773Y245746D01*
X28844Y245794D01*
X44719Y261669D01*
X44759Y261733D01*
X44803Y261795D01*
X44805Y261807D01*
X44810Y261816D01*
X44814Y261853D01*
X44830Y261938D01*
X44830Y265113D01*
X44817Y265169D01*
X44817Y265176D01*
X44815Y265180D01*
X44813Y265187D01*
X44800Y265261D01*
X44793Y265271D01*
X44791Y265281D01*
X44767Y265310D01*
X44719Y265381D01*
X28844Y281256D01*
X28779Y281296D01*
X28717Y281340D01*
X28705Y281342D01*
X28697Y281348D01*
X28660Y281351D01*
X28575Y281368D01*
X27145Y281368D01*
X25021Y283492D01*
X24960Y283529D01*
X24902Y283572D01*
X24887Y283575D01*
X24874Y283583D01*
X24802Y283590D01*
X24732Y283602D01*
X24717Y283598D01*
X24702Y283599D01*
X24634Y283574D01*
X24565Y283554D01*
X24552Y283543D01*
X24540Y283538D01*
X24513Y283509D01*
X24455Y283460D01*
X24004Y282894D01*
X23993Y282872D01*
X23972Y282847D01*
X23643Y282277D01*
X23597Y282264D01*
X23554Y282242D01*
X23508Y282228D01*
X23473Y282198D01*
X23444Y282183D01*
X23428Y282159D01*
X23398Y282134D01*
X21869Y280217D01*
X21848Y280173D01*
X21819Y280135D01*
X21808Y280090D01*
X21794Y280060D01*
X21795Y280032D01*
X21786Y279994D01*
X21784Y279947D01*
X21302Y279499D01*
X21288Y279478D01*
X21263Y279457D01*
X20853Y278942D01*
X20806Y278937D01*
X20760Y278921D01*
X20713Y278914D01*
X20673Y278890D01*
X20642Y278879D01*
X20622Y278858D01*
X20589Y278838D01*
X18792Y277170D01*
X18765Y277130D01*
X18730Y277096D01*
X18713Y277053D01*
X18695Y277026D01*
X18691Y276998D01*
X18677Y276962D01*
X18672Y276935D01*
X18668Y276915D01*
X18327Y276683D01*
X18310Y276664D01*
X18288Y276652D01*
X18252Y276601D01*
X18210Y276555D01*
X18203Y276531D01*
X18188Y276511D01*
X18171Y276424D01*
X18161Y276389D01*
X18163Y276379D01*
X18161Y276368D01*
X18161Y272168D01*
X18178Y272094D01*
X18191Y272019D01*
X18198Y272009D01*
X18200Y271999D01*
X18224Y271970D01*
X18272Y271899D01*
X19661Y270510D01*
X19661Y266742D01*
X16996Y264077D01*
X13228Y264077D01*
X10563Y266742D01*
X10563Y270510D01*
X11952Y271899D01*
X11992Y271963D01*
X12036Y272025D01*
X12038Y272038D01*
X12043Y272046D01*
X12047Y272083D01*
X12063Y272168D01*
X12063Y272298D01*
X12052Y272346D01*
X12051Y272395D01*
X12033Y272429D01*
X12024Y272467D01*
X11992Y272505D01*
X11970Y272548D01*
X11938Y272570D01*
X11913Y272600D01*
X11869Y272620D01*
X11829Y272649D01*
X11791Y272655D01*
X11755Y272671D01*
X11706Y272669D01*
X11658Y272677D01*
X11614Y272666D01*
X11582Y272665D01*
X11557Y272651D01*
X11518Y272640D01*
X11456Y272611D01*
X11418Y272580D01*
X11375Y272558D01*
X11346Y272522D01*
X11321Y272502D01*
X11309Y272476D01*
X11285Y272446D01*
X11262Y272404D01*
X10633Y272210D01*
X10612Y272197D01*
X10580Y272189D01*
X9987Y271903D01*
X9943Y271919D01*
X9895Y271924D01*
X9849Y271939D01*
X9803Y271934D01*
X9770Y271937D01*
X9743Y271928D01*
X9705Y271923D01*
X7361Y271200D01*
X7320Y271176D01*
X7274Y271161D01*
X7240Y271129D01*
X7211Y271113D01*
X7196Y271089D01*
X7167Y271063D01*
X7139Y271025D01*
X7054Y271012D01*
X7010Y270994D01*
X6962Y270986D01*
X6924Y270960D01*
X6893Y270948D01*
X6874Y270927D01*
X6842Y270905D01*
X-269Y263794D01*
X-296Y263751D01*
X-330Y263713D01*
X-341Y263678D01*
X-360Y263647D01*
X-365Y263596D01*
X-380Y263547D01*
X-373Y263511D01*
X-377Y263474D01*
X-359Y263427D01*
X-350Y263376D01*
X-326Y263341D01*
X-315Y263312D01*
X-293Y263291D01*
X-269Y263256D01*
X17194Y245794D01*
X17258Y245754D01*
X17320Y245710D01*
X17332Y245708D01*
X17341Y245702D01*
X17378Y245699D01*
X17463Y245682D01*
X28575Y245682D01*
X28649Y245700D01*
G37*
%LPC*%
G36*
X45168Y76088D02*
X45168Y76088D01*
X44275Y76981D01*
X44275Y85370D01*
X44261Y85460D01*
X44253Y85551D01*
X44241Y85580D01*
X44236Y85612D01*
X44193Y85693D01*
X44157Y85777D01*
X44131Y85809D01*
X44120Y85830D01*
X44097Y85852D01*
X44052Y85908D01*
X42407Y87553D01*
X42333Y87606D01*
X42263Y87666D01*
X42233Y87678D01*
X42207Y87697D01*
X42120Y87724D01*
X42035Y87758D01*
X41994Y87762D01*
X41972Y87769D01*
X41940Y87768D01*
X41869Y87776D01*
X39494Y87776D01*
X36976Y90294D01*
X36976Y93856D01*
X39494Y96374D01*
X43056Y96374D01*
X45574Y93856D01*
X45574Y92606D01*
X45588Y92516D01*
X45596Y92425D01*
X45608Y92396D01*
X45613Y92364D01*
X45656Y92283D01*
X45692Y92199D01*
X45718Y92167D01*
X45729Y92146D01*
X45752Y92124D01*
X45797Y92068D01*
X47505Y90360D01*
X47579Y90307D01*
X47648Y90248D01*
X47678Y90235D01*
X47704Y90217D01*
X47791Y90190D01*
X47876Y90156D01*
X47917Y90151D01*
X47939Y90144D01*
X47972Y90145D01*
X48043Y90137D01*
X56432Y90137D01*
X57325Y89244D01*
X57325Y86927D01*
X57336Y86857D01*
X57338Y86785D01*
X57356Y86736D01*
X57364Y86685D01*
X57398Y86621D01*
X57423Y86554D01*
X57455Y86513D01*
X57480Y86467D01*
X57531Y86418D01*
X57576Y86362D01*
X57620Y86334D01*
X57658Y86298D01*
X57723Y86268D01*
X57783Y86229D01*
X57834Y86216D01*
X57881Y86194D01*
X57952Y86186D01*
X58022Y86169D01*
X58074Y86173D01*
X58125Y86167D01*
X58196Y86182D01*
X58267Y86188D01*
X58315Y86208D01*
X58366Y86219D01*
X58427Y86256D01*
X58493Y86284D01*
X58549Y86329D01*
X58577Y86346D01*
X58592Y86363D01*
X58624Y86389D01*
X96728Y124493D01*
X96770Y124551D01*
X96820Y124603D01*
X96842Y124651D01*
X96872Y124693D01*
X96893Y124761D01*
X96923Y124827D01*
X96929Y124878D01*
X96944Y124928D01*
X96942Y125000D01*
X96950Y125071D01*
X96939Y125122D01*
X96938Y125174D01*
X96913Y125241D01*
X96898Y125311D01*
X96871Y125356D01*
X96853Y125405D01*
X96809Y125461D01*
X96772Y125522D01*
X96732Y125556D01*
X96700Y125597D01*
X96639Y125636D01*
X96585Y125682D01*
X96537Y125702D01*
X96493Y125730D01*
X96423Y125747D01*
X96357Y125774D01*
X96285Y125782D01*
X96254Y125790D01*
X96231Y125788D01*
X96229Y125788D01*
X90868Y131150D01*
X90868Y138725D01*
X96225Y144082D01*
X103800Y144082D01*
X109157Y138725D01*
X109157Y131150D01*
X103800Y125793D01*
X103568Y125793D01*
X103549Y125790D01*
X103529Y125792D01*
X103428Y125770D01*
X103326Y125753D01*
X103308Y125744D01*
X103289Y125739D01*
X103200Y125686D01*
X103108Y125638D01*
X103095Y125624D01*
X103078Y125613D01*
X103010Y125535D01*
X102939Y125460D01*
X102931Y125442D01*
X102918Y125426D01*
X102879Y125330D01*
X102835Y125237D01*
X102833Y125217D01*
X102826Y125198D01*
X102807Y125032D01*
X102807Y122667D01*
X60458Y80318D01*
X58086Y80318D01*
X58066Y80315D01*
X58047Y80317D01*
X57945Y80295D01*
X57843Y80278D01*
X57826Y80269D01*
X57806Y80264D01*
X57717Y80211D01*
X57626Y80163D01*
X57612Y80149D01*
X57595Y80138D01*
X57528Y80060D01*
X57456Y79985D01*
X57448Y79967D01*
X57435Y79951D01*
X57396Y79855D01*
X57353Y79762D01*
X57351Y79742D01*
X57343Y79723D01*
X57325Y79557D01*
X57325Y76981D01*
X56432Y76088D01*
X45168Y76088D01*
G37*
%LPD*%
G36*
X101674Y32975D02*
X101674Y32975D01*
X101749Y32988D01*
X101759Y32994D01*
X101769Y32997D01*
X101798Y33021D01*
X101869Y33069D01*
X111394Y42594D01*
X111403Y42609D01*
X111409Y42613D01*
X111415Y42628D01*
X111434Y42658D01*
X111478Y42720D01*
X111480Y42732D01*
X111485Y42741D01*
X111489Y42778D01*
X111505Y42863D01*
X111505Y51509D01*
X111500Y51533D01*
X111502Y51558D01*
X111480Y51617D01*
X111466Y51678D01*
X111450Y51697D01*
X111441Y51720D01*
X111379Y51783D01*
X111356Y51811D01*
X111347Y51815D01*
X111339Y51823D01*
X111230Y51897D01*
X111221Y51944D01*
X111202Y51988D01*
X111192Y52035D01*
X111164Y52073D01*
X111151Y52102D01*
X111129Y52120D01*
X111106Y52152D01*
X109306Y53821D01*
X109264Y53845D01*
X109228Y53877D01*
X109184Y53891D01*
X109156Y53907D01*
X109127Y53908D01*
X109090Y53920D01*
X109043Y53925D01*
X108632Y54440D01*
X108613Y54456D01*
X108593Y54482D01*
X108589Y54486D01*
X108574Y54495D01*
X108562Y54509D01*
X108523Y54526D01*
X108496Y54547D01*
X108471Y54553D01*
X108439Y54571D01*
X108420Y54572D01*
X108404Y54579D01*
X108353Y54578D01*
X108327Y54583D01*
X108308Y54578D01*
X108266Y54581D01*
X108249Y54574D01*
X108231Y54573D01*
X108180Y54545D01*
X108159Y54540D01*
X108148Y54530D01*
X108106Y54513D01*
X108094Y54499D01*
X108079Y54490D01*
X108043Y54440D01*
X108028Y54427D01*
X108023Y54415D01*
X107994Y54381D01*
X107989Y54363D01*
X107979Y54348D01*
X107965Y54279D01*
X107964Y54275D01*
X105287Y51598D01*
X101518Y51598D01*
X98854Y54262D01*
X98854Y58031D01*
X101518Y60695D01*
X103482Y60695D01*
X103556Y60713D01*
X103631Y60726D01*
X103641Y60733D01*
X103651Y60735D01*
X103680Y60759D01*
X103751Y60807D01*
X103791Y60847D01*
X103800Y60862D01*
X103805Y60865D01*
X103810Y60878D01*
X103823Y60898D01*
X103862Y60944D01*
X103868Y60971D01*
X103883Y60994D01*
X103888Y61054D01*
X103903Y61112D01*
X103897Y61143D01*
X103899Y61167D01*
X103886Y61200D01*
X103876Y61255D01*
X103745Y61588D01*
X103731Y61608D01*
X103721Y61639D01*
X103391Y62209D01*
X103404Y62255D01*
X103405Y62303D01*
X103416Y62350D01*
X103408Y62395D01*
X103409Y62428D01*
X103397Y62454D01*
X103390Y62492D01*
X102493Y64777D01*
X102465Y64817D01*
X102447Y64861D01*
X102413Y64893D01*
X102394Y64920D01*
X102369Y64933D01*
X102341Y64960D01*
X102301Y64985D01*
X102154Y65627D01*
X102143Y65649D01*
X102137Y65681D01*
X101897Y66294D01*
X101915Y66338D01*
X101924Y66385D01*
X101942Y66429D01*
X101941Y66476D01*
X101947Y66508D01*
X101939Y66535D01*
X101938Y66574D01*
X101532Y68347D01*
X101529Y68355D01*
X101528Y68363D01*
X101491Y68432D01*
X101456Y68503D01*
X101450Y68508D01*
X101446Y68515D01*
X101382Y68560D01*
X101319Y68609D01*
X101311Y68610D01*
X101304Y68615D01*
X101162Y68643D01*
X93663Y68643D01*
X93589Y68625D01*
X93514Y68612D01*
X93504Y68606D01*
X93494Y68603D01*
X93465Y68580D01*
X93394Y68531D01*
X85456Y60594D01*
X85445Y60576D01*
X85433Y60566D01*
X85418Y60532D01*
X85416Y60529D01*
X85372Y60467D01*
X85370Y60455D01*
X85365Y60447D01*
X85361Y60410D01*
X85345Y60325D01*
X85345Y33338D01*
X85356Y33288D01*
X85358Y33237D01*
X85376Y33205D01*
X85384Y33169D01*
X85417Y33129D01*
X85441Y33085D01*
X85471Y33064D01*
X85494Y33035D01*
X85541Y33014D01*
X85583Y32985D01*
X85625Y32977D01*
X85653Y32964D01*
X85683Y32965D01*
X85725Y32957D01*
X101600Y32957D01*
X101674Y32975D01*
G37*
%LPC*%
G36*
X-95481Y143255D02*
X-95481Y143255D01*
X-98843Y144647D01*
X-101415Y147220D01*
X-102807Y150581D01*
X-102807Y154219D01*
X-101415Y157580D01*
X-98843Y160153D01*
X-96673Y161051D01*
X-96574Y161113D01*
X-96474Y161173D01*
X-96469Y161177D01*
X-96464Y161181D01*
X-96390Y161271D01*
X-96314Y161360D01*
X-96311Y161365D01*
X-96307Y161370D01*
X-96266Y161479D01*
X-96222Y161588D01*
X-96221Y161595D01*
X-96219Y161600D01*
X-96218Y161618D01*
X-96203Y161754D01*
X-96203Y168446D01*
X-96222Y168560D01*
X-96239Y168677D01*
X-96242Y168682D01*
X-96243Y168688D01*
X-96297Y168791D01*
X-96351Y168896D01*
X-96355Y168900D01*
X-96358Y168906D01*
X-96442Y168986D01*
X-96526Y169068D01*
X-96533Y169072D01*
X-96536Y169075D01*
X-96553Y169083D01*
X-96673Y169149D01*
X-98843Y170047D01*
X-101415Y172620D01*
X-102807Y175981D01*
X-102807Y179619D01*
X-101415Y182980D01*
X-98843Y185553D01*
X-95481Y186945D01*
X-91844Y186945D01*
X-88482Y185553D01*
X-85910Y182980D01*
X-84518Y179619D01*
X-84518Y175981D01*
X-85910Y172620D01*
X-88482Y170047D01*
X-90652Y169149D01*
X-90751Y169087D01*
X-90851Y169027D01*
X-90856Y169023D01*
X-90861Y169019D01*
X-90935Y168929D01*
X-91011Y168840D01*
X-91014Y168835D01*
X-91018Y168830D01*
X-91060Y168720D01*
X-91103Y168612D01*
X-91104Y168605D01*
X-91106Y168600D01*
X-91107Y168582D01*
X-91122Y168446D01*
X-91122Y161754D01*
X-91103Y161640D01*
X-91086Y161523D01*
X-91083Y161518D01*
X-91082Y161512D01*
X-91028Y161409D01*
X-90974Y161304D01*
X-90970Y161300D01*
X-90967Y161294D01*
X-90883Y161214D01*
X-90799Y161132D01*
X-90792Y161128D01*
X-90789Y161125D01*
X-90772Y161117D01*
X-90652Y161051D01*
X-88482Y160153D01*
X-85910Y157580D01*
X-84518Y154219D01*
X-84518Y150581D01*
X-85910Y147220D01*
X-88482Y144647D01*
X-91844Y143255D01*
X-95481Y143255D01*
G37*
%LPD*%
%LPC*%
G36*
X62318Y247235D02*
X62318Y247235D01*
X57833Y249092D01*
X54401Y252524D01*
X52544Y257009D01*
X52544Y261862D01*
X54401Y266347D01*
X57833Y269779D01*
X62318Y271636D01*
X67171Y271636D01*
X71656Y269779D01*
X75088Y266347D01*
X76945Y261862D01*
X76945Y257009D01*
X75088Y252524D01*
X71656Y249092D01*
X67171Y247235D01*
X62318Y247235D01*
G37*
%LPD*%
%LPC*%
G36*
X-64555Y28033D02*
X-64555Y28033D01*
X-69040Y29890D01*
X-72472Y33322D01*
X-74329Y37807D01*
X-74329Y42660D01*
X-72472Y47145D01*
X-69040Y50577D01*
X-64555Y52434D01*
X-59702Y52434D01*
X-55217Y50577D01*
X-51785Y47145D01*
X-49928Y42660D01*
X-49928Y37807D01*
X-51785Y33322D01*
X-55217Y29890D01*
X-59702Y28033D01*
X-64555Y28033D01*
G37*
%LPD*%
%LPC*%
G36*
X-37407Y205675D02*
X-37407Y205675D01*
X-38300Y206568D01*
X-38300Y221832D01*
X-37407Y222725D01*
X-26143Y222725D01*
X-25250Y221832D01*
X-25250Y220272D01*
X-25247Y220253D01*
X-25249Y220233D01*
X-25227Y220132D01*
X-25211Y220030D01*
X-25201Y220012D01*
X-25197Y219993D01*
X-25144Y219904D01*
X-25095Y219812D01*
X-25081Y219799D01*
X-25071Y219782D01*
X-24992Y219714D01*
X-24917Y219643D01*
X-24899Y219635D01*
X-24884Y219622D01*
X-24788Y219583D01*
X-24694Y219539D01*
X-24674Y219537D01*
X-24656Y219530D01*
X-24489Y219511D01*
X-22071Y219511D01*
X-22051Y219514D01*
X-22031Y219512D01*
X-21930Y219534D01*
X-21828Y219551D01*
X-21811Y219560D01*
X-21791Y219565D01*
X-21702Y219618D01*
X-21611Y219666D01*
X-21597Y219680D01*
X-21580Y219691D01*
X-21513Y219769D01*
X-21441Y219844D01*
X-21433Y219862D01*
X-21420Y219878D01*
X-21381Y219973D01*
X-21338Y220067D01*
X-21336Y220087D01*
X-21328Y220106D01*
X-21310Y220272D01*
X-21310Y222094D01*
X-20416Y222987D01*
X-8153Y222987D01*
X-7260Y222094D01*
X-7260Y210831D01*
X-8153Y209938D01*
X-20416Y209938D01*
X-21310Y210831D01*
X-21310Y212653D01*
X-21313Y212672D01*
X-21311Y212692D01*
X-21333Y212793D01*
X-21349Y212895D01*
X-21359Y212913D01*
X-21363Y212932D01*
X-21416Y213021D01*
X-21464Y213113D01*
X-21479Y213126D01*
X-21489Y213143D01*
X-21568Y213211D01*
X-21643Y213282D01*
X-21661Y213290D01*
X-21676Y213303D01*
X-21772Y213342D01*
X-21866Y213386D01*
X-21886Y213388D01*
X-21904Y213395D01*
X-22071Y213414D01*
X-24489Y213414D01*
X-24509Y213411D01*
X-24528Y213413D01*
X-24630Y213391D01*
X-24732Y213374D01*
X-24749Y213365D01*
X-24769Y213360D01*
X-24858Y213307D01*
X-24949Y213259D01*
X-24963Y213245D01*
X-24980Y213234D01*
X-25047Y213156D01*
X-25119Y213081D01*
X-25127Y213063D01*
X-25140Y213047D01*
X-25179Y212951D01*
X-25222Y212858D01*
X-25224Y212838D01*
X-25232Y212819D01*
X-25250Y212653D01*
X-25250Y206568D01*
X-26143Y205675D01*
X-37407Y205675D01*
G37*
%LPD*%
%LPC*%
G36*
X-95481Y117855D02*
X-95481Y117855D01*
X-98843Y119247D01*
X-101415Y121820D01*
X-102807Y125181D01*
X-102807Y128819D01*
X-101415Y132180D01*
X-98843Y134753D01*
X-95481Y136145D01*
X-91844Y136145D01*
X-88482Y134753D01*
X-85910Y132180D01*
X-84518Y128819D01*
X-84518Y125181D01*
X-85910Y121820D01*
X-88482Y119247D01*
X-91844Y117855D01*
X-95481Y117855D01*
G37*
%LPD*%
%LPC*%
G36*
X6053Y63714D02*
X6053Y63714D01*
X3389Y66378D01*
X3389Y70147D01*
X4293Y71051D01*
X4335Y71109D01*
X4384Y71161D01*
X4406Y71208D01*
X4436Y71250D01*
X4457Y71319D01*
X4488Y71384D01*
X4493Y71436D01*
X4509Y71486D01*
X4507Y71557D01*
X4515Y71628D01*
X4504Y71679D01*
X4502Y71731D01*
X4478Y71799D01*
X4463Y71869D01*
X4436Y71914D01*
X4418Y71962D01*
X4373Y72018D01*
X4336Y72080D01*
X4297Y72114D01*
X4264Y72154D01*
X4204Y72193D01*
X4149Y72240D01*
X4101Y72259D01*
X4057Y72287D01*
X3988Y72305D01*
X3921Y72332D01*
X3850Y72340D01*
X3819Y72348D01*
X3796Y72346D01*
X3755Y72350D01*
X2868Y72350D01*
X1975Y73243D01*
X1975Y85507D01*
X2868Y86400D01*
X14132Y86400D01*
X15025Y85507D01*
X15025Y73243D01*
X14132Y72350D01*
X12310Y72350D01*
X12290Y72347D01*
X12271Y72349D01*
X12169Y72327D01*
X12067Y72311D01*
X12050Y72301D01*
X12030Y72297D01*
X11941Y72244D01*
X11850Y72195D01*
X11836Y72181D01*
X11819Y72171D01*
X11752Y72092D01*
X11680Y72017D01*
X11672Y71999D01*
X11659Y71984D01*
X11620Y71888D01*
X11577Y71794D01*
X11575Y71774D01*
X11567Y71756D01*
X11549Y71589D01*
X11549Y71399D01*
X11564Y71309D01*
X11571Y71218D01*
X11583Y71189D01*
X11588Y71157D01*
X11631Y71076D01*
X11667Y70992D01*
X11693Y70960D01*
X11704Y70939D01*
X11727Y70917D01*
X11772Y70861D01*
X12486Y70147D01*
X12486Y66378D01*
X9822Y63714D01*
X6053Y63714D01*
G37*
%LPD*%
%LPC*%
G36*
X3868Y88425D02*
X3868Y88425D01*
X2975Y89318D01*
X2975Y104582D01*
X3868Y105475D01*
X15132Y105475D01*
X16025Y104582D01*
X16025Y89318D01*
X15132Y88425D01*
X3868Y88425D01*
G37*
%LPD*%
%LPC*%
G36*
X45168Y59088D02*
X45168Y59088D01*
X44275Y59981D01*
X44275Y72244D01*
X45168Y73137D01*
X56432Y73137D01*
X57325Y72244D01*
X57325Y59981D01*
X56432Y59088D01*
X45168Y59088D01*
G37*
%LPD*%
D10*
X82600Y292325D03*
X165200Y149225D03*
X82600Y6125D03*
X-82600Y6125D03*
X-165200Y149225D03*
X-82600Y292325D03*
X123900Y220725D03*
X123900Y77725D03*
X0Y6125D03*
X-123900Y77725D03*
X-123900Y220725D03*
X0Y292325D03*
D11*
X-16040Y157725D03*
X-16040Y140725D03*
X16040Y140725D03*
X16040Y157725D03*
D12*
X0Y118950D03*
X9500Y96950D03*
X-9500Y96950D03*
X35263Y193788D03*
X25763Y215788D03*
X44763Y215788D03*
X-41275Y192200D03*
X-50775Y214200D03*
X-31775Y214200D03*
D13*
X-45691Y158188D03*
X-45691Y175188D03*
X39688Y158188D03*
X39688Y175188D03*
X26988Y122800D03*
X26988Y105800D03*
D14*
X8500Y79375D03*
X-8500Y79375D03*
D13*
X8281Y199463D03*
X8281Y216463D03*
X-14285Y199463D03*
X-14285Y216463D03*
D15*
X-48063Y77788D03*
X-63063Y77788D03*
D16*
X100013Y134938D03*
D14*
X-64063Y95250D03*
X-47063Y95250D03*
X50800Y83113D03*
X50800Y66113D03*
D17*
X-93663Y177800D03*
X-93663Y152400D03*
X-93663Y127000D03*
D18*
X98425Y185738D03*
X107950Y193675D03*
X90488Y214313D03*
X73025Y204788D03*
X26988Y276225D03*
X39688Y265113D03*
X19050Y250825D03*
X6350Y263525D03*
X-50800Y214313D03*
X20638Y215900D03*
D19*
X20750Y215788D02*
X25763Y215788D01*
X20750Y215788D02*
X20638Y215900D01*
D18*
X9525Y95250D03*
X95250Y61913D03*
X96838Y39688D03*
X-11113Y66675D03*
X-34925Y66675D03*
X-23813Y88900D03*
X-11113Y173038D03*
X12700Y173038D03*
X-12700Y128588D03*
X11113Y127000D03*
X-50800Y227013D03*
X-55563Y188913D03*
X-65088Y196850D03*
X-23813Y106363D03*
X-65088Y107950D03*
X50800Y65088D03*
D19*
X50800Y66113D01*
X-63063Y77788D02*
X-69850Y77788D01*
D18*
X-69850Y77788D03*
D19*
X9500Y96950D02*
X9525Y96925D01*
X9525Y95250D01*
X-16040Y140725D02*
X-40250Y140725D01*
X-41275Y139700D01*
D18*
X46038Y195263D03*
X-76567Y117842D03*
D20*
X-30638Y8675D03*
D19*
X-2550Y8675D01*
X0Y6125D01*
D20*
X-100427Y91488D03*
D19*
X-114189Y77725D01*
X-123900Y77725D01*
D20*
X-96428Y226797D03*
D19*
X-102500Y220725D01*
X-123900Y220725D01*
D20*
X103403Y56147D03*
D19*
X123900Y76644D01*
X123900Y77725D01*
D20*
X15112Y268626D03*
D19*
X15112Y277213D01*
X0Y292325D01*
D20*
X101336Y209447D03*
D19*
X112615Y220725D01*
X123900Y220725D01*
X-16040Y157725D02*
X-22390Y151375D01*
X-38879Y151375D01*
X-45691Y158188D01*
X39225Y157725D02*
X39688Y158188D01*
X39225Y157725D02*
X16040Y157725D01*
X16040Y140725D02*
X26988Y129778D01*
X26988Y122800D01*
X13838Y118950D02*
X26988Y105800D01*
X13838Y118950D02*
X0Y118950D01*
X39688Y189363D02*
X35263Y193788D01*
X39688Y189363D02*
X39688Y175188D01*
X-45691Y175188D02*
X-45691Y187784D01*
X-41275Y192200D01*
X-9500Y96950D02*
X-9500Y80375D01*
X-8500Y79375D01*
X19956Y204788D02*
X8281Y216463D01*
X19956Y204788D02*
X34925Y204788D01*
X44763Y214626D01*
X44763Y215788D01*
X-29513Y216463D02*
X-31775Y214200D01*
X-29513Y216463D02*
X-14285Y216463D01*
X-14285Y199463D02*
X-32258Y181489D01*
X-32258Y158242D01*
D18*
X-32258Y158242D03*
D19*
X8281Y199463D02*
X9306Y198438D01*
X14288Y198438D02*
X22225Y190500D01*
X14288Y198438D02*
X9306Y198438D01*
D20*
X22225Y190500D03*
D19*
X8500Y79375D02*
X8500Y68825D01*
X7938Y68263D01*
D20*
X7938Y68263D03*
D19*
X-47063Y78788D02*
X-47063Y95250D01*
X-47063Y78788D02*
X-48063Y77788D01*
D21*
X41275Y92075D03*
D22*
X41838Y92075D01*
X50800Y83113D01*
X100013Y123825D02*
X100013Y134938D01*
X100013Y123825D02*
X59300Y83113D01*
X50800Y83113D01*
D23*
X-93663Y152400D02*
X-93663Y177800D01*
D19*
X-64063Y95250D02*
X-55563Y86750D01*
X-55563Y86005D01*
D20*
X-55563Y86005D03*
M02*
