G04 EAGLE Gerber RS-274X export*
G75*
%MOMM*%
%FSLAX34Y34*%
%LPD*%
%INBottom Copper*%
%IPPOS*%
%AMOC8*
5,1,8,0,0,1.08239X$1,22.5*%
G01*
%ADD10R,1.100000X1.000000*%
%ADD11C,1.000000*%
%ADD12R,1.399997X0.400000*%
%ADD13R,0.550000X0.297181*%
%ADD14R,0.297181X0.550000*%
%ADD15R,5.600000X5.600000*%
%ADD16P,1.649562X8X22.500000*%
%ADD17R,1.000000X1.100000*%
%ADD18R,1.300000X1.500000*%
%ADD19R,1.500000X1.300000*%
%ADD20C,1.524000*%
%ADD21C,0.304800*%
%ADD22C,0.750000*%
%ADD23C,0.604800*%
%ADD24C,0.254000*%
%ADD25C,0.554800*%
%ADD26C,0.203200*%

G36*
X-1549Y149142D02*
X-1549Y149142D01*
X-1445Y149145D01*
X-1426Y149152D01*
X-1407Y149153D01*
X-1312Y149194D01*
X-1295Y149200D01*
X3104Y149200D01*
X3111Y149195D01*
X3212Y149170D01*
X3310Y149139D01*
X3330Y149140D01*
X3350Y149135D01*
X3453Y149143D01*
X3556Y149145D01*
X3575Y149152D01*
X3595Y149154D01*
X3690Y149194D01*
X3705Y149200D01*
X8105Y149200D01*
X8112Y149195D01*
X8213Y149170D01*
X8311Y149139D01*
X8331Y149140D01*
X8351Y149135D01*
X8454Y149143D01*
X8557Y149145D01*
X8576Y149152D01*
X8596Y149154D01*
X8691Y149194D01*
X8706Y149200D01*
X12107Y149200D01*
X12126Y149203D01*
X12146Y149201D01*
X12247Y149223D01*
X12349Y149239D01*
X12367Y149249D01*
X12386Y149253D01*
X12475Y149306D01*
X12567Y149355D01*
X12580Y149369D01*
X12597Y149379D01*
X12665Y149458D01*
X12736Y149533D01*
X12744Y149551D01*
X12757Y149566D01*
X12796Y149662D01*
X12840Y149756D01*
X12842Y149776D01*
X12849Y149794D01*
X12868Y149961D01*
X12868Y153704D01*
X18953Y159790D01*
X19006Y159864D01*
X19066Y159933D01*
X19078Y159963D01*
X19097Y159990D01*
X19124Y160077D01*
X19158Y160161D01*
X19162Y160202D01*
X19169Y160225D01*
X19168Y160257D01*
X19176Y160328D01*
X19176Y186801D01*
X19162Y186891D01*
X19154Y186982D01*
X19142Y187011D01*
X19137Y187043D01*
X19094Y187124D01*
X19058Y187208D01*
X19032Y187240D01*
X19021Y187261D01*
X18998Y187283D01*
X18990Y187293D01*
X18982Y187306D01*
X18974Y187313D01*
X18953Y187339D01*
X17676Y188616D01*
X17676Y192384D01*
X20341Y195049D01*
X24109Y195049D01*
X24508Y194650D01*
X24566Y194608D01*
X24618Y194559D01*
X24636Y194550D01*
X24650Y194538D01*
X24680Y194526D01*
X24707Y194507D01*
X24776Y194486D01*
X24841Y194455D01*
X24862Y194453D01*
X24879Y194446D01*
X24917Y194442D01*
X24943Y194434D01*
X24979Y194435D01*
X25045Y194428D01*
X25046Y194428D01*
X25063Y194431D01*
X25085Y194428D01*
X25136Y194439D01*
X25188Y194441D01*
X25241Y194460D01*
X25289Y194468D01*
X25304Y194476D01*
X25326Y194480D01*
X25371Y194507D01*
X25419Y194525D01*
X25463Y194560D01*
X25506Y194583D01*
X25518Y194595D01*
X25537Y194607D01*
X25571Y194646D01*
X25611Y194679D01*
X25641Y194725D01*
X25676Y194761D01*
X25683Y194778D01*
X25697Y194794D01*
X25716Y194842D01*
X25744Y194886D01*
X25758Y194938D01*
X25779Y194984D01*
X25781Y195003D01*
X25789Y195022D01*
X25797Y195093D01*
X25805Y195124D01*
X25803Y195147D01*
X25807Y195188D01*
X25807Y253304D01*
X25793Y253394D01*
X25785Y253485D01*
X25773Y253515D01*
X25768Y253546D01*
X25725Y253627D01*
X25689Y253711D01*
X25663Y253743D01*
X25652Y253764D01*
X25629Y253786D01*
X25584Y253842D01*
X15572Y263854D01*
X15498Y263907D01*
X15429Y263967D01*
X15398Y263979D01*
X15372Y263998D01*
X15285Y264025D01*
X15200Y264059D01*
X15159Y264063D01*
X15137Y264070D01*
X15105Y264069D01*
X15034Y264077D01*
X13228Y264077D01*
X10563Y266742D01*
X10563Y270510D01*
X10617Y270564D01*
X10686Y270660D01*
X10757Y270756D01*
X10758Y270761D01*
X10761Y270764D01*
X10796Y270877D01*
X10832Y270990D01*
X10832Y270995D01*
X10833Y270999D01*
X10830Y271116D01*
X10828Y271236D01*
X10827Y271241D01*
X10827Y271245D01*
X10786Y271357D01*
X10747Y271468D01*
X10744Y271472D01*
X10742Y271476D01*
X10668Y271569D01*
X10595Y271662D01*
X10591Y271665D01*
X10589Y271668D01*
X10488Y271733D01*
X10390Y271798D01*
X10386Y271799D01*
X10382Y271801D01*
X10266Y271830D01*
X10152Y271860D01*
X10148Y271860D01*
X10143Y271861D01*
X10114Y271859D01*
X10061Y271877D01*
X10027Y271883D01*
X9995Y271897D01*
X9906Y271905D01*
X9819Y271920D01*
X9784Y271915D01*
X9750Y271918D01*
X9585Y271886D01*
X7481Y271237D01*
X7450Y271222D01*
X7416Y271214D01*
X7340Y271168D01*
X7261Y271128D01*
X7236Y271103D01*
X7207Y271085D01*
X7153Y271027D01*
X6516Y270931D01*
X6485Y270921D01*
X6405Y270906D01*
X5793Y270717D01*
X5724Y270733D01*
X5639Y270762D01*
X5605Y270762D01*
X5571Y270770D01*
X5403Y270763D01*
X3226Y270435D01*
X3193Y270424D01*
X3158Y270422D01*
X3077Y270387D01*
X2992Y270360D01*
X2964Y270339D01*
X2932Y270325D01*
X2870Y270276D01*
X2227Y270276D01*
X2194Y270270D01*
X2113Y270267D01*
X1480Y270172D01*
X1413Y270199D01*
X1334Y270239D01*
X1300Y270244D01*
X1268Y270257D01*
X1101Y270276D01*
X-1101Y270276D01*
X-1135Y270270D01*
X-1170Y270273D01*
X-1256Y270250D01*
X-1344Y270236D01*
X-1374Y270220D01*
X-1408Y270211D01*
X-1477Y270171D01*
X-2113Y270267D01*
X-2146Y270267D01*
X-2227Y270276D01*
X-2867Y270276D01*
X-2929Y270312D01*
X-3001Y270364D01*
X-3034Y270374D01*
X-3064Y270392D01*
X-3226Y270435D01*
X-5403Y270763D01*
X-5438Y270763D01*
X-5472Y270770D01*
X-5560Y270761D01*
X-5649Y270760D01*
X-5682Y270749D01*
X-5717Y270745D01*
X-5790Y270716D01*
X-6405Y270906D01*
X-6438Y270910D01*
X-6516Y270931D01*
X-7150Y271026D01*
X-7205Y271072D01*
X-7269Y271134D01*
X-7300Y271149D01*
X-7327Y271171D01*
X-7481Y271237D01*
X-9585Y271886D01*
X-9619Y271891D01*
X-9652Y271904D01*
X-9741Y271908D01*
X-9829Y271920D01*
X-9863Y271914D01*
X-9897Y271915D01*
X-9975Y271897D01*
X-10555Y272177D01*
X-10586Y272186D01*
X-10661Y272218D01*
X-11272Y272407D01*
X-11321Y272460D01*
X-11374Y272531D01*
X-11403Y272550D01*
X-11426Y272576D01*
X-11569Y272665D01*
X-13553Y273620D01*
X-13586Y273630D01*
X-13616Y273647D01*
X-13703Y273665D01*
X-13788Y273690D01*
X-13823Y273689D01*
X-13857Y273695D01*
X-13936Y273689D01*
X-14468Y274052D01*
X-14498Y274066D01*
X-14567Y274109D01*
X-15144Y274387D01*
X-15183Y274446D01*
X-15226Y274524D01*
X-15251Y274548D01*
X-15271Y274577D01*
X-15398Y274686D01*
X-17217Y275926D01*
X-17249Y275941D01*
X-17276Y275962D01*
X-17360Y275993D01*
X-17440Y276030D01*
X-17475Y276034D01*
X-17507Y276046D01*
X-17587Y276052D01*
X-18058Y276489D01*
X-18086Y276508D01*
X-18147Y276560D01*
X-18676Y276921D01*
X-18707Y276986D01*
X-18737Y277069D01*
X-18759Y277097D01*
X-18774Y277128D01*
X-18883Y277255D01*
X-20498Y278753D01*
X-20526Y278772D01*
X-20550Y278797D01*
X-20628Y278839D01*
X-20703Y278889D01*
X-20736Y278897D01*
X-20766Y278914D01*
X-20844Y278931D01*
X-21245Y279435D01*
X-21270Y279457D01*
X-21323Y279518D01*
X-21792Y279954D01*
X-21813Y280022D01*
X-21830Y280110D01*
X-21848Y280140D01*
X-21858Y280173D01*
X-21947Y280315D01*
X-23320Y282036D01*
X-23346Y282059D01*
X-23365Y282088D01*
X-23436Y282142D01*
X-23502Y282201D01*
X-23534Y282215D01*
X-23562Y282236D01*
X-23636Y282265D01*
X-23958Y282822D01*
X-23978Y282848D01*
X-24022Y282916D01*
X-24421Y283417D01*
X-24431Y283488D01*
X-24435Y283577D01*
X-24448Y283609D01*
X-24453Y283643D01*
X-24520Y283797D01*
X-25621Y285704D01*
X-25643Y285731D01*
X-25658Y285762D01*
X-25721Y285826D01*
X-25777Y285894D01*
X-25806Y285913D01*
X-25831Y285937D01*
X-25900Y285977D01*
X-26135Y286576D01*
X-26151Y286604D01*
X-26184Y286679D01*
X-26504Y287233D01*
X-26504Y287305D01*
X-26495Y287393D01*
X-26502Y287427D01*
X-26502Y287462D01*
X-26546Y287624D01*
X-27350Y289674D01*
X-27368Y289703D01*
X-27378Y289736D01*
X-27430Y289808D01*
X-27476Y289885D01*
X-27502Y289908D01*
X-27523Y289936D01*
X-27585Y289985D01*
X-27728Y290613D01*
X-27740Y290643D01*
X-27762Y290721D01*
X-27995Y291317D01*
X-27984Y291388D01*
X-27962Y291474D01*
X-27965Y291509D01*
X-27959Y291543D01*
X-27978Y291710D01*
X-28468Y293857D01*
X-28481Y293889D01*
X-28487Y293923D01*
X-28528Y294002D01*
X-28561Y294084D01*
X-28584Y294111D01*
X-28600Y294141D01*
X-28654Y294199D01*
X-28702Y294841D01*
X-28710Y294873D01*
X-28719Y294954D01*
X-28861Y295578D01*
X-28840Y295647D01*
X-28805Y295729D01*
X-28803Y295763D01*
X-28792Y295796D01*
X-28786Y295964D01*
X-28942Y298043D01*
X-28957Y298104D01*
X-28962Y298167D01*
X-28985Y298223D01*
X-29000Y298282D01*
X-29025Y298322D01*
X-29025Y299121D01*
X-29028Y299142D01*
X-29027Y299178D01*
X-29045Y299416D01*
X-29072Y299527D01*
X-29096Y299639D01*
X-29100Y299647D01*
X-29103Y299655D01*
X-29163Y299752D01*
X-29222Y299850D01*
X-29229Y299856D01*
X-29234Y299864D01*
X-29322Y299936D01*
X-29409Y300010D01*
X-29417Y300014D01*
X-29424Y300019D01*
X-29530Y300059D01*
X-29637Y300102D01*
X-29648Y300103D01*
X-29654Y300106D01*
X-29677Y300107D01*
X-29804Y300121D01*
X-86877Y300121D01*
X-86944Y300110D01*
X-87012Y300109D01*
X-87065Y300090D01*
X-87120Y300081D01*
X-87180Y300049D01*
X-87243Y300027D01*
X-87288Y299992D01*
X-87337Y299966D01*
X-87384Y299917D01*
X-87437Y299875D01*
X-87484Y299811D01*
X-87507Y299787D01*
X-87516Y299768D01*
X-87537Y299740D01*
X-115911Y250595D01*
X-115952Y250488D01*
X-115995Y250381D01*
X-115995Y250373D01*
X-115998Y250364D01*
X-116002Y250250D01*
X-116009Y250136D01*
X-116007Y250127D01*
X-116007Y250119D01*
X-115975Y250008D01*
X-115945Y249898D01*
X-115940Y249891D01*
X-115937Y249883D01*
X-115872Y249789D01*
X-115808Y249694D01*
X-115800Y249687D01*
X-115796Y249682D01*
X-115778Y249668D01*
X-115681Y249585D01*
X-115346Y249357D01*
X-115336Y249352D01*
X-115332Y249348D01*
X-115322Y249345D01*
X-115298Y249327D01*
X-114615Y248933D01*
X-114611Y248924D01*
X-114568Y248878D01*
X-114533Y248825D01*
X-114466Y248768D01*
X-114444Y248744D01*
X-114428Y248735D01*
X-114406Y248716D01*
X-112681Y247541D01*
X-112649Y247526D01*
X-112622Y247505D01*
X-112538Y247475D01*
X-112458Y247437D01*
X-112423Y247433D01*
X-112391Y247422D01*
X-112312Y247416D01*
X-111840Y246978D01*
X-111812Y246960D01*
X-111751Y246907D01*
X-111221Y246547D01*
X-111191Y246482D01*
X-111160Y246398D01*
X-111139Y246371D01*
X-111124Y246340D01*
X-111014Y246213D01*
X-109398Y244714D01*
X-109369Y244695D01*
X-109345Y244670D01*
X-109267Y244627D01*
X-109193Y244578D01*
X-109160Y244569D01*
X-109129Y244553D01*
X-109052Y244535D01*
X-108650Y244032D01*
X-108626Y244010D01*
X-108573Y243949D01*
X-108103Y243514D01*
X-108083Y243445D01*
X-108065Y243358D01*
X-108048Y243328D01*
X-108038Y243294D01*
X-107948Y243153D01*
X-106573Y241430D01*
X-106548Y241406D01*
X-106528Y241378D01*
X-106457Y241324D01*
X-106391Y241265D01*
X-106359Y241251D01*
X-106331Y241230D01*
X-106257Y241201D01*
X-105935Y240644D01*
X-105914Y240618D01*
X-105871Y240550D01*
X-105472Y240049D01*
X-105462Y239979D01*
X-105457Y239890D01*
X-105445Y239857D01*
X-105440Y239823D01*
X-105372Y239669D01*
X-104270Y237761D01*
X-104248Y237734D01*
X-104232Y237703D01*
X-104170Y237640D01*
X-104114Y237571D01*
X-104084Y237552D01*
X-104060Y237527D01*
X-103991Y237488D01*
X-103756Y236889D01*
X-103739Y236860D01*
X-103707Y236786D01*
X-103386Y236232D01*
X-103387Y236160D01*
X-103396Y236072D01*
X-103388Y236038D01*
X-103388Y236003D01*
X-103344Y235841D01*
X-102538Y233790D01*
X-102521Y233760D01*
X-102510Y233727D01*
X-102458Y233655D01*
X-102413Y233578D01*
X-102386Y233556D01*
X-102366Y233528D01*
X-102304Y233478D01*
X-102160Y232851D01*
X-102148Y232820D01*
X-102127Y232742D01*
X-101893Y232146D01*
X-101904Y232075D01*
X-101926Y231989D01*
X-101923Y231954D01*
X-101929Y231920D01*
X-101910Y231754D01*
X-101471Y229836D01*
X-101430Y229734D01*
X-101393Y229632D01*
X-101384Y229621D01*
X-101378Y229608D01*
X-101307Y229525D01*
X-101239Y229440D01*
X-101227Y229432D01*
X-101218Y229422D01*
X-101124Y229366D01*
X-101032Y229307D01*
X-101018Y229303D01*
X-101006Y229296D01*
X-100899Y229273D01*
X-100793Y229247D01*
X-100779Y229248D01*
X-100766Y229245D01*
X-100657Y229258D01*
X-100548Y229266D01*
X-100535Y229271D01*
X-100521Y229273D01*
X-100422Y229320D01*
X-100322Y229362D01*
X-100309Y229373D01*
X-100299Y229378D01*
X-100278Y229398D01*
X-100191Y229467D01*
X-98312Y231346D01*
X-94544Y231346D01*
X-93267Y230069D01*
X-93193Y230016D01*
X-93124Y229956D01*
X-93093Y229944D01*
X-93067Y229925D01*
X-92980Y229898D01*
X-92895Y229864D01*
X-92854Y229860D01*
X-92832Y229853D01*
X-92800Y229854D01*
X-92729Y229846D01*
X-73576Y229846D01*
X-6041Y162311D01*
X-6041Y149961D01*
X-6038Y149941D01*
X-6040Y149922D01*
X-6018Y149820D01*
X-6001Y149718D01*
X-5992Y149701D01*
X-5987Y149681D01*
X-5934Y149592D01*
X-5886Y149501D01*
X-5872Y149487D01*
X-5861Y149470D01*
X-5783Y149403D01*
X-5708Y149331D01*
X-5690Y149323D01*
X-5674Y149310D01*
X-5578Y149271D01*
X-5485Y149228D01*
X-5465Y149226D01*
X-5446Y149218D01*
X-5280Y149200D01*
X-1899Y149200D01*
X-1890Y149194D01*
X-1790Y149169D01*
X-1691Y149139D01*
X-1671Y149139D01*
X-1652Y149134D01*
X-1549Y149142D01*
G37*
G36*
X-110312Y95900D02*
X-110312Y95900D01*
X-110194Y95907D01*
X-110189Y95909D01*
X-110183Y95910D01*
X-110076Y95955D01*
X-109966Y96000D01*
X-109962Y96004D01*
X-109957Y96006D01*
X-109826Y96111D01*
X-88432Y117504D01*
X-88379Y117578D01*
X-88320Y117648D01*
X-88307Y117678D01*
X-88289Y117704D01*
X-88262Y117791D01*
X-88228Y117876D01*
X-88223Y117917D01*
X-88216Y117939D01*
X-88217Y117971D01*
X-88209Y118043D01*
X-88209Y118221D01*
X-88217Y118267D01*
X-88215Y118313D01*
X-88236Y118387D01*
X-88249Y118464D01*
X-88270Y118505D01*
X-88283Y118549D01*
X-88328Y118613D01*
X-88364Y118681D01*
X-88397Y118713D01*
X-88424Y118751D01*
X-88486Y118797D01*
X-88542Y118851D01*
X-88584Y118870D01*
X-88621Y118898D01*
X-88695Y118922D01*
X-88765Y118954D01*
X-88811Y118960D01*
X-88855Y118974D01*
X-88933Y118973D01*
X-89010Y118982D01*
X-89055Y118972D01*
X-89101Y118971D01*
X-89232Y118933D01*
X-89250Y118929D01*
X-89255Y118927D01*
X-89262Y118925D01*
X-91844Y117855D01*
X-95481Y117855D01*
X-98843Y119247D01*
X-101415Y121820D01*
X-102807Y125181D01*
X-102807Y128819D01*
X-101415Y132180D01*
X-98843Y134753D01*
X-95481Y136145D01*
X-91844Y136145D01*
X-89674Y135246D01*
X-89561Y135219D01*
X-89447Y135191D01*
X-89441Y135191D01*
X-89435Y135190D01*
X-89318Y135201D01*
X-89202Y135210D01*
X-89196Y135212D01*
X-89190Y135213D01*
X-89083Y135261D01*
X-88975Y135306D01*
X-88970Y135311D01*
X-88965Y135313D01*
X-88951Y135326D01*
X-88844Y135411D01*
X-86496Y137759D01*
X-84453Y137759D01*
X-84382Y137771D01*
X-84310Y137773D01*
X-84261Y137791D01*
X-84210Y137799D01*
X-84147Y137832D01*
X-84079Y137857D01*
X-84039Y137890D01*
X-83993Y137914D01*
X-83943Y137966D01*
X-83887Y138011D01*
X-83859Y138055D01*
X-83823Y138092D01*
X-83793Y138157D01*
X-83754Y138218D01*
X-83741Y138268D01*
X-83720Y138315D01*
X-83712Y138387D01*
X-83694Y138456D01*
X-83698Y138508D01*
X-83692Y138560D01*
X-83708Y138630D01*
X-83713Y138702D01*
X-83734Y138749D01*
X-83745Y138800D01*
X-83782Y138862D01*
X-83810Y138928D01*
X-83854Y138984D01*
X-83871Y139011D01*
X-83889Y139027D01*
X-83914Y139059D01*
X-84246Y139390D01*
X-88844Y143989D01*
X-88938Y144056D01*
X-88948Y144064D01*
X-88961Y144075D01*
X-88966Y144077D01*
X-89033Y144127D01*
X-89039Y144129D01*
X-89044Y144132D01*
X-89155Y144167D01*
X-89267Y144203D01*
X-89273Y144203D01*
X-89279Y144205D01*
X-89396Y144202D01*
X-89513Y144201D01*
X-89520Y144199D01*
X-89525Y144198D01*
X-89543Y144192D01*
X-89674Y144154D01*
X-91844Y143255D01*
X-95481Y143255D01*
X-98843Y144647D01*
X-101415Y147220D01*
X-102807Y150581D01*
X-102807Y154219D01*
X-101415Y157580D01*
X-98843Y160153D01*
X-95481Y161545D01*
X-91844Y161545D01*
X-88482Y160153D01*
X-85910Y157580D01*
X-84518Y154219D01*
X-84518Y150581D01*
X-85416Y148412D01*
X-85443Y148298D01*
X-85472Y148184D01*
X-85471Y148178D01*
X-85473Y148172D01*
X-85462Y148056D01*
X-85452Y147939D01*
X-85450Y147934D01*
X-85449Y147927D01*
X-85402Y147820D01*
X-85356Y147713D01*
X-85352Y147707D01*
X-85349Y147703D01*
X-85337Y147689D01*
X-85251Y147582D01*
X-80653Y142983D01*
X-80579Y142930D01*
X-80509Y142871D01*
X-80479Y142858D01*
X-80453Y142840D01*
X-80366Y142813D01*
X-80281Y142779D01*
X-80240Y142774D01*
X-80218Y142767D01*
X-80186Y142768D01*
X-80114Y142760D01*
X-56998Y142760D01*
X-56979Y142763D01*
X-56959Y142761D01*
X-56858Y142783D01*
X-56756Y142800D01*
X-56738Y142809D01*
X-56719Y142814D01*
X-56630Y142867D01*
X-56538Y142915D01*
X-56525Y142929D01*
X-56508Y142940D01*
X-56440Y143018D01*
X-56369Y143093D01*
X-56361Y143111D01*
X-56348Y143127D01*
X-56309Y143223D01*
X-56265Y143316D01*
X-56263Y143336D01*
X-56256Y143355D01*
X-56237Y143521D01*
X-56237Y149532D01*
X-55344Y150425D01*
X-43081Y150425D01*
X-42188Y149532D01*
X-42188Y143521D01*
X-42185Y143502D01*
X-42187Y143482D01*
X-42165Y143381D01*
X-42148Y143279D01*
X-42139Y143261D01*
X-42134Y143242D01*
X-42081Y143153D01*
X-42033Y143061D01*
X-42019Y143048D01*
X-42008Y143031D01*
X-41930Y142963D01*
X-41855Y142892D01*
X-41837Y142884D01*
X-41821Y142871D01*
X-41725Y142832D01*
X-41632Y142788D01*
X-41612Y142786D01*
X-41593Y142779D01*
X-41427Y142760D01*
X-35923Y142760D01*
X-35028Y141866D01*
X-34954Y141812D01*
X-34885Y141753D01*
X-34854Y141741D01*
X-34828Y141722D01*
X-34741Y141695D01*
X-34656Y141661D01*
X-34615Y141657D01*
X-34593Y141650D01*
X-34561Y141651D01*
X-34490Y141643D01*
X-32866Y141643D01*
X-32847Y141646D01*
X-32827Y141644D01*
X-32726Y141666D01*
X-32624Y141682D01*
X-32606Y141692D01*
X-32587Y141696D01*
X-32498Y141749D01*
X-32406Y141797D01*
X-32393Y141812D01*
X-32375Y141822D01*
X-32308Y141901D01*
X-32237Y141976D01*
X-32229Y141994D01*
X-32216Y142009D01*
X-32177Y142105D01*
X-32133Y142199D01*
X-32131Y142219D01*
X-32124Y142237D01*
X-32105Y142404D01*
X-32105Y143309D01*
X-32120Y143399D01*
X-32127Y143490D01*
X-32140Y143520D01*
X-32143Y143541D01*
X-32143Y152206D01*
X-32146Y152225D01*
X-32144Y152245D01*
X-32166Y152346D01*
X-32183Y152448D01*
X-32192Y152466D01*
X-32197Y152485D01*
X-32250Y152574D01*
X-32298Y152666D01*
X-32312Y152679D01*
X-32323Y152697D01*
X-32401Y152764D01*
X-32476Y152835D01*
X-32494Y152843D01*
X-32510Y152856D01*
X-32606Y152895D01*
X-32699Y152939D01*
X-32719Y152941D01*
X-32738Y152948D01*
X-32904Y152967D01*
X-34443Y152967D01*
X-37533Y156057D01*
X-37533Y160426D01*
X-34443Y163516D01*
X-30074Y163516D01*
X-26984Y160426D01*
X-26984Y157594D01*
X-26969Y157504D01*
X-26962Y157413D01*
X-26949Y157383D01*
X-26944Y157351D01*
X-26901Y157270D01*
X-26866Y157186D01*
X-26840Y157154D01*
X-26829Y157134D01*
X-26806Y157111D01*
X-26761Y157055D01*
X-26046Y156340D01*
X-26046Y149961D01*
X-26043Y149941D01*
X-26045Y149922D01*
X-26023Y149820D01*
X-26006Y149718D01*
X-25997Y149701D01*
X-25992Y149681D01*
X-25939Y149592D01*
X-25891Y149501D01*
X-25877Y149487D01*
X-25866Y149470D01*
X-25788Y149403D01*
X-25713Y149331D01*
X-25695Y149323D01*
X-25679Y149310D01*
X-25583Y149271D01*
X-25490Y149228D01*
X-25470Y149226D01*
X-25451Y149218D01*
X-25285Y149200D01*
X-21904Y149200D01*
X-21895Y149194D01*
X-21795Y149169D01*
X-21696Y149139D01*
X-21676Y149139D01*
X-21657Y149134D01*
X-21554Y149142D01*
X-21450Y149145D01*
X-21431Y149152D01*
X-21412Y149153D01*
X-21317Y149194D01*
X-21300Y149200D01*
X-17900Y149200D01*
X-17881Y149203D01*
X-17861Y149201D01*
X-17760Y149223D01*
X-17658Y149239D01*
X-17640Y149249D01*
X-17621Y149253D01*
X-17532Y149306D01*
X-17440Y149355D01*
X-17427Y149369D01*
X-17410Y149379D01*
X-17342Y149458D01*
X-17271Y149533D01*
X-17263Y149551D01*
X-17250Y149566D01*
X-17211Y149662D01*
X-17167Y149756D01*
X-17165Y149776D01*
X-17158Y149794D01*
X-17139Y149961D01*
X-17139Y157634D01*
X-17154Y157724D01*
X-17161Y157815D01*
X-17174Y157845D01*
X-17179Y157877D01*
X-17222Y157958D01*
X-17257Y158042D01*
X-17283Y158074D01*
X-17294Y158094D01*
X-17317Y158117D01*
X-17362Y158173D01*
X-76643Y217453D01*
X-76717Y217506D01*
X-76786Y217566D01*
X-76816Y217578D01*
X-76843Y217597D01*
X-76930Y217624D01*
X-77014Y217658D01*
X-77055Y217662D01*
X-77078Y217669D01*
X-77110Y217668D01*
X-77181Y217676D01*
X-101078Y217676D01*
X-101136Y217667D01*
X-101194Y217667D01*
X-101256Y217647D01*
X-101321Y217637D01*
X-101372Y217609D01*
X-101428Y217591D01*
X-101480Y217552D01*
X-101538Y217521D01*
X-101578Y217479D01*
X-101625Y217445D01*
X-101663Y217391D01*
X-101708Y217343D01*
X-101732Y217290D01*
X-101765Y217243D01*
X-101798Y217149D01*
X-101811Y217120D01*
X-101813Y217106D01*
X-101821Y217084D01*
X-101905Y216714D01*
X-101907Y216680D01*
X-101917Y216647D01*
X-101915Y216558D01*
X-101920Y216469D01*
X-101911Y216435D01*
X-101910Y216401D01*
X-101886Y216325D01*
X-102121Y215726D01*
X-102128Y215693D01*
X-102155Y215617D01*
X-102297Y214993D01*
X-102346Y214941D01*
X-102413Y214882D01*
X-102430Y214852D01*
X-102454Y214826D01*
X-102532Y214678D01*
X-103337Y212626D01*
X-103344Y212592D01*
X-103359Y212561D01*
X-103370Y212472D01*
X-103389Y212385D01*
X-103385Y212351D01*
X-103389Y212317D01*
X-103377Y212238D01*
X-103698Y211680D01*
X-103710Y211650D01*
X-103748Y211578D01*
X-103982Y210982D01*
X-104038Y210938D01*
X-104113Y210889D01*
X-104134Y210862D01*
X-104162Y210841D01*
X-104261Y210706D01*
X-105362Y208796D01*
X-105375Y208764D01*
X-105394Y208735D01*
X-105418Y208649D01*
X-105449Y208566D01*
X-105451Y208532D01*
X-105460Y208498D01*
X-105460Y208419D01*
X-105861Y207915D01*
X-105877Y207887D01*
X-105925Y207821D01*
X-106245Y207267D01*
X-106307Y207231D01*
X-106388Y207195D01*
X-106414Y207171D01*
X-106444Y207154D01*
X-106562Y207035D01*
X-107936Y205311D01*
X-107953Y205281D01*
X-107976Y205256D01*
X-108013Y205174D01*
X-108056Y205097D01*
X-108063Y205063D01*
X-108077Y205031D01*
X-108088Y204953D01*
X-108560Y204515D01*
X-108580Y204489D01*
X-108637Y204431D01*
X-109037Y203930D01*
X-109104Y203905D01*
X-109189Y203881D01*
X-109218Y203861D01*
X-109250Y203849D01*
X-109385Y203749D01*
X-111000Y202249D01*
X-111022Y202222D01*
X-111049Y202200D01*
X-111096Y202125D01*
X-111151Y202055D01*
X-111163Y202022D01*
X-111181Y201993D01*
X-111204Y201917D01*
X-111736Y201554D01*
X-111760Y201532D01*
X-111825Y201483D01*
X-112294Y201048D01*
X-112364Y201032D01*
X-112453Y201021D01*
X-112484Y201006D01*
X-112518Y200999D01*
X-112666Y200920D01*
X-114487Y199678D01*
X-114512Y199654D01*
X-114542Y199636D01*
X-114600Y199570D01*
X-114665Y199508D01*
X-114681Y199478D01*
X-114704Y199451D01*
X-114738Y199380D01*
X-115318Y199100D01*
X-115345Y199082D01*
X-115416Y199043D01*
X-115945Y198683D01*
X-116017Y198678D01*
X-116106Y198680D01*
X-116139Y198670D01*
X-116174Y198667D01*
X-116332Y198612D01*
X-118317Y197655D01*
X-118346Y197635D01*
X-118378Y197622D01*
X-118446Y197565D01*
X-118519Y197514D01*
X-118539Y197486D01*
X-118566Y197463D01*
X-118610Y197398D01*
X-119225Y197208D01*
X-119255Y197193D01*
X-119331Y197166D01*
X-119908Y196888D01*
X-119980Y196894D01*
X-120067Y196909D01*
X-120101Y196904D01*
X-120136Y196907D01*
X-120301Y196876D01*
X-122407Y196225D01*
X-122438Y196210D01*
X-122472Y196202D01*
X-122548Y196155D01*
X-122627Y196116D01*
X-122651Y196091D01*
X-122681Y196073D01*
X-122735Y196015D01*
X-123371Y195918D01*
X-123403Y195908D01*
X-123482Y195893D01*
X-124094Y195704D01*
X-124164Y195721D01*
X-124248Y195749D01*
X-124283Y195749D01*
X-124317Y195757D01*
X-124484Y195750D01*
X-126664Y195421D01*
X-126697Y195410D01*
X-126731Y195408D01*
X-126813Y195373D01*
X-126898Y195346D01*
X-126926Y195325D01*
X-126958Y195311D01*
X-127019Y195262D01*
X-127663Y195262D01*
X-127696Y195256D01*
X-127777Y195253D01*
X-128410Y195157D01*
X-128476Y195184D01*
X-128555Y195225D01*
X-128590Y195230D01*
X-128622Y195243D01*
X-128789Y195261D01*
X-130993Y195260D01*
X-131027Y195255D01*
X-131062Y195257D01*
X-131148Y195235D01*
X-131235Y195221D01*
X-131266Y195204D01*
X-131300Y195196D01*
X-131368Y195156D01*
X-132005Y195252D01*
X-132038Y195251D01*
X-132118Y195260D01*
X-132759Y195260D01*
X-132821Y195296D01*
X-132893Y195348D01*
X-132926Y195358D01*
X-132956Y195376D01*
X-133118Y195419D01*
X-135298Y195747D01*
X-135332Y195746D01*
X-135366Y195754D01*
X-135454Y195745D01*
X-135543Y195744D01*
X-135576Y195732D01*
X-135611Y195729D01*
X-135685Y195699D01*
X-136300Y195889D01*
X-136332Y195893D01*
X-136411Y195914D01*
X-137044Y196009D01*
X-137100Y196055D01*
X-137163Y196117D01*
X-137194Y196132D01*
X-137221Y196154D01*
X-137375Y196220D01*
X-139482Y196869D01*
X-139516Y196874D01*
X-139548Y196887D01*
X-139637Y196891D01*
X-139725Y196903D01*
X-139759Y196896D01*
X-139794Y196898D01*
X-139871Y196880D01*
X-140451Y197159D01*
X-140483Y197169D01*
X-140557Y197201D01*
X-141169Y197389D01*
X-141218Y197442D01*
X-141271Y197513D01*
X-141300Y197533D01*
X-141323Y197558D01*
X-141466Y197647D01*
X-143346Y198552D01*
X-143407Y198570D01*
X-143464Y198597D01*
X-143524Y198605D01*
X-143582Y198622D01*
X-143630Y198620D01*
X-144322Y199019D01*
X-144341Y199027D01*
X-144372Y199046D01*
X-144754Y199230D01*
X-144863Y199262D01*
X-144973Y199297D01*
X-144982Y199297D01*
X-144990Y199299D01*
X-145104Y199295D01*
X-145219Y199293D01*
X-145227Y199290D01*
X-145236Y199290D01*
X-145343Y199249D01*
X-145451Y199211D01*
X-145458Y199206D01*
X-145466Y199202D01*
X-145554Y199130D01*
X-145644Y199060D01*
X-145651Y199051D01*
X-145656Y199046D01*
X-145668Y199027D01*
X-145744Y198924D01*
X-173811Y150312D01*
X-173834Y150249D01*
X-173867Y150190D01*
X-173878Y150135D01*
X-173897Y150082D01*
X-173900Y150014D01*
X-173912Y149948D01*
X-173904Y149893D01*
X-173907Y149836D01*
X-173887Y149771D01*
X-173878Y149705D01*
X-173846Y149632D01*
X-173837Y149600D01*
X-173825Y149583D01*
X-173811Y149551D01*
X-173686Y149335D01*
X-173688Y149331D01*
X-173688Y149307D01*
X-173696Y149285D01*
X-173690Y149209D01*
X-173691Y149132D01*
X-173681Y149108D01*
X-173680Y149087D01*
X-173659Y149048D01*
X-173640Y148996D01*
X-173639Y148990D01*
X-173637Y148988D01*
X-173633Y148976D01*
X-164133Y132476D01*
X-164114Y132454D01*
X-164101Y132428D01*
X-164048Y132380D01*
X-164001Y132327D01*
X-163975Y132314D01*
X-163954Y132295D01*
X-163886Y132272D01*
X-163822Y132241D01*
X-163816Y132241D01*
X-145116Y99851D01*
X-145103Y99836D01*
X-145095Y99818D01*
X-145026Y99741D01*
X-144960Y99661D01*
X-144943Y99650D01*
X-144930Y99636D01*
X-144839Y99585D01*
X-144752Y99530D01*
X-144732Y99525D01*
X-144715Y99516D01*
X-144613Y99497D01*
X-144513Y99473D01*
X-144493Y99474D01*
X-144473Y99471D01*
X-144371Y99485D01*
X-144268Y99494D01*
X-144249Y99502D01*
X-144230Y99505D01*
X-144076Y99572D01*
X-143639Y99825D01*
X-143629Y99824D01*
X-143568Y99838D01*
X-143505Y99842D01*
X-143421Y99871D01*
X-143389Y99879D01*
X-143374Y99888D01*
X-143346Y99898D01*
X-141466Y100803D01*
X-141437Y100823D01*
X-141405Y100835D01*
X-141337Y100893D01*
X-141264Y100944D01*
X-141244Y100972D01*
X-141217Y100994D01*
X-141172Y101060D01*
X-140557Y101249D01*
X-140528Y101264D01*
X-140451Y101291D01*
X-139874Y101568D01*
X-139803Y101562D01*
X-139715Y101547D01*
X-139681Y101552D01*
X-139647Y101549D01*
X-139482Y101581D01*
X-137375Y102230D01*
X-137344Y102245D01*
X-137310Y102253D01*
X-137235Y102299D01*
X-137155Y102339D01*
X-137130Y102364D01*
X-137101Y102382D01*
X-137047Y102440D01*
X-136411Y102536D01*
X-136379Y102546D01*
X-136300Y102561D01*
X-135688Y102750D01*
X-135618Y102733D01*
X-135534Y102705D01*
X-135499Y102705D01*
X-135465Y102697D01*
X-135298Y102703D01*
X-133118Y103031D01*
X-133085Y103042D01*
X-133050Y103044D01*
X-132968Y103079D01*
X-132884Y103106D01*
X-132856Y103127D01*
X-132824Y103141D01*
X-132762Y103190D01*
X-132118Y103190D01*
X-132086Y103195D01*
X-132005Y103198D01*
X-131372Y103294D01*
X-131305Y103267D01*
X-131226Y103226D01*
X-131192Y103221D01*
X-131159Y103208D01*
X-130993Y103190D01*
X-128789Y103189D01*
X-128754Y103194D01*
X-128720Y103192D01*
X-128634Y103214D01*
X-128546Y103228D01*
X-128515Y103245D01*
X-128482Y103253D01*
X-128413Y103293D01*
X-127777Y103197D01*
X-127744Y103197D01*
X-127663Y103188D01*
X-127023Y103188D01*
X-126961Y103152D01*
X-126889Y103100D01*
X-126856Y103090D01*
X-126826Y103072D01*
X-126664Y103029D01*
X-124484Y102700D01*
X-124449Y102700D01*
X-124416Y102692D01*
X-124327Y102702D01*
X-124238Y102703D01*
X-124206Y102714D01*
X-124171Y102718D01*
X-124097Y102747D01*
X-123482Y102557D01*
X-123450Y102552D01*
X-123371Y102532D01*
X-122738Y102436D01*
X-122683Y102391D01*
X-122619Y102329D01*
X-122588Y102314D01*
X-122561Y102292D01*
X-122407Y102225D01*
X-120301Y101574D01*
X-120266Y101570D01*
X-120234Y101557D01*
X-120145Y101553D01*
X-120057Y101541D01*
X-120023Y101547D01*
X-119988Y101546D01*
X-119911Y101563D01*
X-119331Y101284D01*
X-119300Y101275D01*
X-119225Y101242D01*
X-118613Y101053D01*
X-118565Y101000D01*
X-118511Y100929D01*
X-118483Y100910D01*
X-118459Y100884D01*
X-118317Y100795D01*
X-116332Y99838D01*
X-116299Y99828D01*
X-116268Y99811D01*
X-116181Y99794D01*
X-116096Y99769D01*
X-116061Y99770D01*
X-116027Y99763D01*
X-115948Y99769D01*
X-115416Y99407D01*
X-115393Y99396D01*
X-115377Y99382D01*
X-115356Y99374D01*
X-115318Y99350D01*
X-114741Y99072D01*
X-114701Y99012D01*
X-114659Y98934D01*
X-114633Y98910D01*
X-114614Y98881D01*
X-114487Y98772D01*
X-112666Y97530D01*
X-112634Y97515D01*
X-112607Y97494D01*
X-112524Y97464D01*
X-112443Y97426D01*
X-112408Y97422D01*
X-112376Y97410D01*
X-112297Y97405D01*
X-111825Y96967D01*
X-111798Y96948D01*
X-111736Y96896D01*
X-111207Y96535D01*
X-111177Y96470D01*
X-111146Y96386D01*
X-111125Y96359D01*
X-111110Y96328D01*
X-111000Y96201D01*
X-110882Y96091D01*
X-110877Y96088D01*
X-110874Y96084D01*
X-110775Y96020D01*
X-110677Y95955D01*
X-110672Y95954D01*
X-110667Y95951D01*
X-110553Y95922D01*
X-110440Y95892D01*
X-110434Y95892D01*
X-110428Y95890D01*
X-110312Y95900D01*
G37*
G36*
X62337Y84441D02*
X62337Y84441D01*
X62428Y84448D01*
X62458Y84460D01*
X62490Y84466D01*
X62570Y84508D01*
X62654Y84544D01*
X62686Y84570D01*
X62707Y84581D01*
X62729Y84604D01*
X62785Y84649D01*
X80866Y102729D01*
X80919Y102803D01*
X80978Y102873D01*
X80991Y102903D01*
X81009Y102929D01*
X81036Y103016D01*
X81070Y103101D01*
X81075Y103142D01*
X81082Y103164D01*
X81081Y103196D01*
X81089Y103268D01*
X81089Y193511D01*
X96564Y208986D01*
X96618Y209060D01*
X96677Y209130D01*
X96689Y209160D01*
X96708Y209186D01*
X96735Y209273D01*
X96769Y209358D01*
X96773Y209399D01*
X96780Y209421D01*
X96780Y209453D01*
X96787Y209525D01*
X96787Y211331D01*
X99452Y213995D01*
X101570Y213995D01*
X101674Y214012D01*
X101778Y214024D01*
X101795Y214032D01*
X101813Y214035D01*
X101906Y214084D01*
X102000Y214128D01*
X102014Y214141D01*
X102030Y214150D01*
X102102Y214226D01*
X102178Y214298D01*
X102187Y214315D01*
X102200Y214328D01*
X102244Y214424D01*
X102293Y214516D01*
X102296Y214535D01*
X102303Y214552D01*
X102315Y214656D01*
X102332Y214759D01*
X102329Y214782D01*
X102331Y214796D01*
X102324Y214827D01*
X102313Y214926D01*
X102155Y215617D01*
X102142Y215648D01*
X102121Y215726D01*
X101888Y216322D01*
X101899Y216393D01*
X101921Y216479D01*
X101918Y216513D01*
X101924Y216548D01*
X101905Y216714D01*
X101415Y218863D01*
X101402Y218895D01*
X101397Y218930D01*
X101356Y219009D01*
X101322Y219091D01*
X101300Y219118D01*
X101284Y219148D01*
X101230Y219206D01*
X101182Y219848D01*
X101174Y219880D01*
X101165Y219961D01*
X101023Y220585D01*
X101044Y220653D01*
X101079Y220735D01*
X101082Y220770D01*
X101092Y220803D01*
X101098Y220971D01*
X100934Y223169D01*
X100926Y223202D01*
X100926Y223237D01*
X100897Y223322D01*
X100876Y223408D01*
X100858Y223437D01*
X100847Y223470D01*
X100802Y223536D01*
X100850Y224177D01*
X100847Y224210D01*
X100850Y224291D01*
X100803Y224930D01*
X100834Y224994D01*
X100881Y225070D01*
X100889Y225104D01*
X100904Y225135D01*
X100935Y225300D01*
X101100Y227498D01*
X101097Y227532D01*
X101102Y227567D01*
X101087Y227654D01*
X101079Y227743D01*
X101065Y227775D01*
X101059Y227809D01*
X101024Y227880D01*
X101168Y228508D01*
X101170Y228541D01*
X101185Y228620D01*
X101233Y229259D01*
X101274Y229317D01*
X101331Y229386D01*
X101344Y229418D01*
X101363Y229446D01*
X101419Y229605D01*
X101910Y231754D01*
X101912Y231788D01*
X101922Y231821D01*
X101919Y231910D01*
X101925Y231999D01*
X101916Y232033D01*
X101915Y232067D01*
X101892Y232143D01*
X102127Y232742D01*
X102134Y232774D01*
X102160Y232851D01*
X102303Y233475D01*
X102352Y233527D01*
X102419Y233586D01*
X102436Y233616D01*
X102460Y233641D01*
X102538Y233790D01*
X103344Y235841D01*
X103352Y235875D01*
X103367Y235906D01*
X103377Y235995D01*
X103396Y236082D01*
X103392Y236116D01*
X103396Y236151D01*
X103385Y236229D01*
X103707Y236786D01*
X103718Y236817D01*
X103756Y236889D01*
X103990Y237485D01*
X104047Y237529D01*
X104121Y237577D01*
X104143Y237604D01*
X104170Y237626D01*
X104270Y237761D01*
X105372Y239669D01*
X105385Y239702D01*
X105404Y239731D01*
X105428Y239816D01*
X105459Y239899D01*
X105461Y239934D01*
X105470Y239968D01*
X105470Y240047D01*
X105871Y240550D01*
X105887Y240579D01*
X105935Y240644D01*
X106256Y241198D01*
X106318Y241234D01*
X106399Y241270D01*
X106425Y241294D01*
X106455Y241311D01*
X106573Y241430D01*
X107948Y243153D01*
X107965Y243183D01*
X107989Y243208D01*
X108025Y243289D01*
X108068Y243367D01*
X108075Y243401D01*
X108089Y243433D01*
X108101Y243511D01*
X108573Y243949D01*
X108593Y243975D01*
X108650Y244032D01*
X109050Y244533D01*
X109116Y244558D01*
X109202Y244582D01*
X109231Y244602D01*
X109263Y244614D01*
X109398Y244714D01*
X111014Y246213D01*
X111035Y246240D01*
X111063Y246262D01*
X111111Y246337D01*
X111165Y246407D01*
X111177Y246440D01*
X111195Y246469D01*
X111219Y246545D01*
X111751Y246907D01*
X111775Y246930D01*
X111840Y246978D01*
X112309Y247414D01*
X112379Y247429D01*
X112468Y247440D01*
X112499Y247455D01*
X112533Y247462D01*
X112681Y247541D01*
X114406Y248716D01*
X114451Y248760D01*
X114503Y248795D01*
X114540Y248844D01*
X114584Y248886D01*
X114606Y248928D01*
X115298Y249327D01*
X115314Y249340D01*
X115346Y249357D01*
X115818Y249679D01*
X115902Y249758D01*
X115986Y249835D01*
X115990Y249842D01*
X115997Y249848D01*
X116050Y249950D01*
X116106Y250049D01*
X116107Y250058D01*
X116111Y250066D01*
X116130Y250179D01*
X116151Y250291D01*
X116150Y250300D01*
X116151Y250308D01*
X116132Y250421D01*
X116116Y250535D01*
X116112Y250544D01*
X116111Y250551D01*
X116100Y250571D01*
X116049Y250688D01*
X87729Y299740D01*
X87686Y299792D01*
X87651Y299850D01*
X87608Y299887D01*
X87573Y299930D01*
X87516Y299966D01*
X87464Y300010D01*
X87412Y300031D01*
X87364Y300061D01*
X87299Y300077D01*
X87236Y300102D01*
X87157Y300111D01*
X87125Y300119D01*
X87105Y300117D01*
X87069Y300121D01*
X29804Y300121D01*
X29691Y300102D01*
X29578Y300086D01*
X29570Y300082D01*
X29561Y300081D01*
X29461Y300028D01*
X29358Y299976D01*
X29351Y299970D01*
X29344Y299966D01*
X29265Y299883D01*
X29184Y299802D01*
X29180Y299794D01*
X29174Y299787D01*
X29126Y299684D01*
X29076Y299581D01*
X29074Y299571D01*
X29071Y299564D01*
X29068Y299541D01*
X29045Y299416D01*
X29027Y299178D01*
X29029Y299157D01*
X29025Y299121D01*
X29025Y298332D01*
X29019Y298325D01*
X29001Y298264D01*
X28973Y298208D01*
X28956Y298121D01*
X28947Y298090D01*
X28947Y298072D01*
X28942Y298043D01*
X28786Y295964D01*
X28789Y295929D01*
X28784Y295895D01*
X28800Y295807D01*
X28807Y295719D01*
X28821Y295687D01*
X28828Y295653D01*
X28862Y295581D01*
X28719Y294954D01*
X28717Y294921D01*
X28702Y294841D01*
X28654Y294203D01*
X28613Y294144D01*
X28556Y294076D01*
X28543Y294043D01*
X28524Y294015D01*
X28468Y293857D01*
X27978Y291710D01*
X27976Y291675D01*
X27966Y291642D01*
X27969Y291553D01*
X27963Y291464D01*
X27972Y291431D01*
X27973Y291396D01*
X27997Y291320D01*
X27762Y290721D01*
X27755Y290689D01*
X27728Y290613D01*
X27586Y289988D01*
X27536Y289936D01*
X27470Y289877D01*
X27452Y289847D01*
X27428Y289822D01*
X27350Y289674D01*
X26546Y287624D01*
X26539Y287590D01*
X26524Y287559D01*
X26513Y287470D01*
X26494Y287383D01*
X26498Y287349D01*
X26494Y287315D01*
X26506Y287236D01*
X26184Y286679D01*
X26172Y286648D01*
X26135Y286576D01*
X25901Y285980D01*
X25844Y285936D01*
X25770Y285888D01*
X25748Y285860D01*
X25721Y285839D01*
X25621Y285704D01*
X24520Y283797D01*
X24508Y283764D01*
X24489Y283736D01*
X24465Y283650D01*
X24433Y283567D01*
X24432Y283532D01*
X24423Y283499D01*
X24423Y283419D01*
X24022Y282916D01*
X24005Y282887D01*
X23957Y282822D01*
X23637Y282268D01*
X23575Y282232D01*
X23494Y282196D01*
X23469Y282172D01*
X23438Y282155D01*
X23320Y282036D01*
X21947Y280315D01*
X21930Y280285D01*
X21907Y280259D01*
X21870Y280178D01*
X21827Y280100D01*
X21820Y280066D01*
X21806Y280034D01*
X21794Y279956D01*
X21323Y279518D01*
X21302Y279492D01*
X21245Y279435D01*
X20846Y278934D01*
X20779Y278908D01*
X20693Y278884D01*
X20665Y278865D01*
X20632Y278852D01*
X20498Y278753D01*
X19721Y278032D01*
X19700Y278005D01*
X19673Y277984D01*
X19625Y277909D01*
X19570Y277838D01*
X19559Y277806D01*
X19540Y277777D01*
X19519Y277690D01*
X19489Y277606D01*
X19489Y277572D01*
X19480Y277538D01*
X19487Y277449D01*
X19486Y277360D01*
X19497Y277327D01*
X19500Y277293D01*
X19534Y277211D01*
X19562Y277126D01*
X19583Y277098D01*
X19596Y277067D01*
X19701Y276936D01*
X34897Y261740D01*
X36906Y259731D01*
X36906Y202775D01*
X36907Y202766D01*
X36907Y202762D01*
X36911Y202743D01*
X36917Y202704D01*
X36919Y202632D01*
X36937Y202583D01*
X36945Y202532D01*
X36979Y202469D01*
X37004Y202401D01*
X37036Y202361D01*
X37061Y202315D01*
X37112Y202265D01*
X37157Y202209D01*
X37201Y202181D01*
X37239Y202145D01*
X37304Y202115D01*
X37364Y202076D01*
X37415Y202064D01*
X37462Y202042D01*
X37533Y202034D01*
X37603Y202016D01*
X37655Y202020D01*
X37706Y202015D01*
X37777Y202030D01*
X37848Y202035D01*
X37896Y202056D01*
X37947Y202067D01*
X38008Y202104D01*
X38074Y202132D01*
X38130Y202177D01*
X38158Y202193D01*
X38173Y202211D01*
X38205Y202237D01*
X38318Y202350D01*
X50582Y202350D01*
X51475Y201457D01*
X51475Y190193D01*
X50582Y189300D01*
X38318Y189300D01*
X38205Y189413D01*
X38147Y189455D01*
X38095Y189505D01*
X38048Y189527D01*
X38006Y189557D01*
X37937Y189578D01*
X37872Y189608D01*
X37820Y189614D01*
X37770Y189629D01*
X37699Y189627D01*
X37628Y189635D01*
X37577Y189624D01*
X37525Y189623D01*
X37457Y189598D01*
X37387Y189583D01*
X37342Y189556D01*
X37294Y189539D01*
X37238Y189494D01*
X37176Y189457D01*
X37142Y189417D01*
X37102Y189385D01*
X37063Y189325D01*
X37016Y189270D01*
X36997Y189222D01*
X36969Y189178D01*
X36951Y189109D01*
X36924Y189042D01*
X36916Y188971D01*
X36908Y188939D01*
X36910Y188916D01*
X36906Y188875D01*
X36906Y186817D01*
X36909Y186797D01*
X36907Y186778D01*
X36929Y186676D01*
X36945Y186574D01*
X36955Y186557D01*
X36959Y186537D01*
X37012Y186448D01*
X37061Y186357D01*
X37075Y186343D01*
X37085Y186326D01*
X37164Y186259D01*
X37239Y186187D01*
X37257Y186179D01*
X37272Y186166D01*
X37368Y186127D01*
X37462Y186084D01*
X37482Y186082D01*
X37500Y186074D01*
X37667Y186056D01*
X51589Y186056D01*
X52706Y184939D01*
X52706Y122872D01*
X52709Y122853D01*
X52707Y122833D01*
X52729Y122732D01*
X52745Y122630D01*
X52755Y122612D01*
X52759Y122593D01*
X52812Y122504D01*
X52861Y122412D01*
X52875Y122399D01*
X52885Y122382D01*
X52964Y122314D01*
X53039Y122243D01*
X53057Y122235D01*
X53072Y122222D01*
X53168Y122183D01*
X53262Y122139D01*
X53282Y122137D01*
X53300Y122130D01*
X53467Y122111D01*
X53984Y122111D01*
X54074Y122126D01*
X54165Y122133D01*
X54195Y122146D01*
X54227Y122151D01*
X54308Y122194D01*
X54392Y122229D01*
X54424Y122255D01*
X54444Y122266D01*
X54467Y122289D01*
X54523Y122334D01*
X56283Y124095D01*
X56295Y124111D01*
X56311Y124124D01*
X56367Y124211D01*
X56427Y124295D01*
X56433Y124314D01*
X56444Y124330D01*
X56469Y124431D01*
X56499Y124530D01*
X56499Y124550D01*
X56504Y124569D01*
X56496Y124672D01*
X56493Y124776D01*
X56486Y124794D01*
X56485Y124814D01*
X56444Y124909D01*
X56408Y125007D01*
X56396Y125022D01*
X56388Y125041D01*
X56283Y125172D01*
X55244Y126211D01*
X55244Y183352D01*
X57948Y186056D01*
X70639Y186056D01*
X71793Y184902D01*
X71795Y184886D01*
X71838Y184805D01*
X71874Y184721D01*
X71900Y184689D01*
X71911Y184668D01*
X71934Y184646D01*
X71979Y184590D01*
X72112Y184457D01*
X72112Y173193D01*
X71979Y173060D01*
X71926Y172986D01*
X71866Y172917D01*
X71854Y172886D01*
X71835Y172860D01*
X71808Y172773D01*
X71774Y172688D01*
X71770Y172647D01*
X71763Y172625D01*
X71764Y172593D01*
X71756Y172522D01*
X71756Y127798D01*
X70416Y126459D01*
X70392Y126434D01*
X70391Y126434D01*
X69052Y125094D01*
X66221Y125094D01*
X66131Y125080D01*
X66040Y125072D01*
X66010Y125060D01*
X65978Y125055D01*
X65898Y125012D01*
X65814Y124976D01*
X65782Y124950D01*
X65761Y124939D01*
X65739Y124916D01*
X65683Y124871D01*
X63515Y122703D01*
X59236Y118424D01*
X59194Y118366D01*
X59145Y118314D01*
X59123Y118267D01*
X59092Y118225D01*
X59071Y118156D01*
X59041Y118091D01*
X59035Y118039D01*
X59020Y117989D01*
X59022Y117918D01*
X59014Y117846D01*
X59025Y117796D01*
X59026Y117744D01*
X59051Y117676D01*
X59066Y117606D01*
X59093Y117561D01*
X59111Y117513D01*
X59156Y117456D01*
X59192Y117395D01*
X59232Y117361D01*
X59264Y117320D01*
X59325Y117282D01*
X59379Y117235D01*
X59428Y117216D01*
X59471Y117187D01*
X59541Y117170D01*
X59607Y117143D01*
X59679Y117135D01*
X59710Y117127D01*
X59733Y117129D01*
X59774Y117125D01*
X61607Y117125D01*
X62500Y116232D01*
X62500Y110968D01*
X61607Y110075D01*
X53130Y110075D01*
X53040Y110060D01*
X52949Y110053D01*
X52920Y110041D01*
X52888Y110035D01*
X52807Y109993D01*
X52723Y109957D01*
X52691Y109931D01*
X52670Y109920D01*
X52648Y109897D01*
X52592Y109852D01*
X45196Y102456D01*
X45185Y102440D01*
X45169Y102428D01*
X45113Y102340D01*
X45053Y102257D01*
X45047Y102238D01*
X45036Y102221D01*
X45011Y102120D01*
X44980Y102022D01*
X44981Y102002D01*
X44976Y101982D01*
X44984Y101879D01*
X44987Y101776D01*
X44994Y101757D01*
X44995Y101737D01*
X45035Y101642D01*
X45071Y101545D01*
X45084Y101529D01*
X45091Y101511D01*
X45196Y101380D01*
X53228Y93348D01*
X53302Y93295D01*
X53372Y93235D01*
X53402Y93223D01*
X53428Y93204D01*
X53515Y93177D01*
X53600Y93143D01*
X53641Y93139D01*
X53663Y93132D01*
X53695Y93133D01*
X53767Y93125D01*
X61607Y93125D01*
X62500Y92232D01*
X62500Y86968D01*
X61607Y86075D01*
X46343Y86075D01*
X45450Y86968D01*
X45450Y88333D01*
X45439Y88404D01*
X45437Y88476D01*
X45419Y88525D01*
X45411Y88576D01*
X45377Y88639D01*
X45352Y88707D01*
X45320Y88747D01*
X45295Y88793D01*
X45244Y88843D01*
X45199Y88899D01*
X45155Y88927D01*
X45117Y88963D01*
X45052Y88993D01*
X44992Y89032D01*
X44941Y89044D01*
X44894Y89066D01*
X44823Y89074D01*
X44753Y89092D01*
X44701Y89088D01*
X44650Y89093D01*
X44579Y89078D01*
X44508Y89073D01*
X44460Y89052D01*
X44409Y89041D01*
X44348Y89004D01*
X44282Y88976D01*
X44226Y88931D01*
X44198Y88915D01*
X44183Y88897D01*
X44151Y88871D01*
X42892Y87613D01*
X42880Y87596D01*
X42865Y87584D01*
X42835Y87537D01*
X42818Y87520D01*
X42805Y87492D01*
X42748Y87413D01*
X42743Y87394D01*
X42732Y87377D01*
X42707Y87277D01*
X42676Y87178D01*
X42677Y87158D01*
X42672Y87139D01*
X42680Y87036D01*
X42682Y86932D01*
X42689Y86913D01*
X42691Y86893D01*
X42731Y86798D01*
X42767Y86701D01*
X42779Y86685D01*
X42787Y86667D01*
X42892Y86536D01*
X44779Y84649D01*
X44853Y84596D01*
X44923Y84536D01*
X44953Y84524D01*
X44979Y84505D01*
X45066Y84478D01*
X45151Y84444D01*
X45192Y84440D01*
X45214Y84433D01*
X45246Y84434D01*
X45318Y84426D01*
X62247Y84426D01*
X62337Y84441D01*
G37*
G36*
X98206Y57623D02*
X98206Y57623D01*
X98297Y57630D01*
X98326Y57642D01*
X98358Y57648D01*
X98439Y57690D01*
X98523Y57726D01*
X98555Y57752D01*
X98576Y57763D01*
X98598Y57786D01*
X98654Y57831D01*
X101518Y60695D01*
X102947Y60695D01*
X103041Y60711D01*
X103136Y60719D01*
X103162Y60731D01*
X103190Y60735D01*
X103274Y60780D01*
X103362Y60818D01*
X103382Y60837D01*
X103407Y60850D01*
X103473Y60919D01*
X103543Y60984D01*
X103557Y61008D01*
X103576Y61029D01*
X103617Y61115D01*
X103663Y61199D01*
X103668Y61226D01*
X103680Y61252D01*
X103691Y61347D01*
X103708Y61440D01*
X103704Y61468D01*
X103707Y61496D01*
X103687Y61590D01*
X103674Y61684D01*
X103659Y61716D01*
X103655Y61736D01*
X103638Y61765D01*
X103606Y61838D01*
X103386Y62218D01*
X103387Y62290D01*
X103396Y62378D01*
X103388Y62412D01*
X103388Y62447D01*
X103344Y62609D01*
X102538Y64660D01*
X102521Y64690D01*
X102510Y64723D01*
X102458Y64795D01*
X102413Y64872D01*
X102386Y64894D01*
X102366Y64922D01*
X102304Y64972D01*
X102160Y65599D01*
X102148Y65630D01*
X102127Y65708D01*
X101893Y66304D01*
X101897Y66330D01*
X101898Y66333D01*
X101900Y66348D01*
X101904Y66375D01*
X101926Y66461D01*
X101923Y66496D01*
X101929Y66530D01*
X101924Y66569D01*
X101925Y66577D01*
X101921Y66596D01*
X101910Y66696D01*
X101419Y68845D01*
X101405Y68877D01*
X101400Y68912D01*
X101359Y68991D01*
X101326Y69073D01*
X101303Y69099D01*
X101287Y69130D01*
X101233Y69188D01*
X101185Y69830D01*
X101177Y69862D01*
X101168Y69942D01*
X101025Y70567D01*
X101047Y70635D01*
X101081Y70717D01*
X101084Y70752D01*
X101094Y70785D01*
X101100Y70952D01*
X100935Y73150D01*
X100927Y73184D01*
X100927Y73219D01*
X100898Y73303D01*
X100877Y73389D01*
X100858Y73419D01*
X100847Y73451D01*
X100802Y73517D01*
X100850Y74159D01*
X100847Y74192D01*
X100850Y74273D01*
X100802Y74911D01*
X100834Y74976D01*
X100880Y75051D01*
X100888Y75085D01*
X100903Y75116D01*
X100934Y75281D01*
X101098Y77479D01*
X101095Y77514D01*
X101100Y77548D01*
X101084Y77636D01*
X101077Y77724D01*
X101063Y77756D01*
X101057Y77790D01*
X101022Y77862D01*
X101165Y78489D01*
X101167Y78522D01*
X101182Y78602D01*
X101230Y79240D01*
X101270Y79299D01*
X101328Y79367D01*
X101340Y79400D01*
X101360Y79428D01*
X101415Y79587D01*
X101905Y81736D01*
X101907Y81770D01*
X101917Y81803D01*
X101915Y81892D01*
X101920Y81981D01*
X101911Y82015D01*
X101910Y82049D01*
X101886Y82125D01*
X102121Y82724D01*
X102128Y82757D01*
X102155Y82833D01*
X102297Y83457D01*
X102346Y83509D01*
X102413Y83568D01*
X102430Y83598D01*
X102454Y83624D01*
X102532Y83772D01*
X103337Y85824D01*
X103344Y85858D01*
X103359Y85889D01*
X103370Y85978D01*
X103389Y86065D01*
X103385Y86099D01*
X103389Y86134D01*
X103377Y86212D01*
X103698Y86770D01*
X103710Y86800D01*
X103748Y86872D01*
X103982Y87468D01*
X104038Y87512D01*
X104113Y87561D01*
X104134Y87588D01*
X104162Y87609D01*
X104261Y87744D01*
X105362Y89654D01*
X105375Y89686D01*
X105394Y89715D01*
X105418Y89801D01*
X105449Y89884D01*
X105451Y89918D01*
X105460Y89952D01*
X105460Y90031D01*
X105861Y90535D01*
X105877Y90563D01*
X105925Y90629D01*
X106245Y91183D01*
X106307Y91219D01*
X106388Y91255D01*
X106414Y91279D01*
X106444Y91296D01*
X106562Y91415D01*
X107936Y93138D01*
X107953Y93169D01*
X107976Y93194D01*
X108013Y93276D01*
X108056Y93353D01*
X108063Y93387D01*
X108077Y93419D01*
X108088Y93497D01*
X108560Y93935D01*
X108580Y93961D01*
X108637Y94019D01*
X109037Y94520D01*
X109104Y94545D01*
X109189Y94569D01*
X109218Y94589D01*
X109250Y94601D01*
X109385Y94701D01*
X111000Y96201D01*
X111021Y96228D01*
X111048Y96250D01*
X111096Y96325D01*
X111151Y96395D01*
X111162Y96428D01*
X111181Y96457D01*
X111204Y96533D01*
X111736Y96896D01*
X111760Y96918D01*
X111825Y96967D01*
X112294Y97402D01*
X112364Y97418D01*
X112453Y97429D01*
X112484Y97444D01*
X112518Y97451D01*
X112666Y97530D01*
X114487Y98772D01*
X114512Y98796D01*
X114542Y98814D01*
X114600Y98880D01*
X114665Y98942D01*
X114681Y98972D01*
X114704Y98999D01*
X114738Y99070D01*
X115318Y99350D01*
X115345Y99368D01*
X115416Y99407D01*
X115945Y99767D01*
X116017Y99772D01*
X116106Y99770D01*
X116139Y99780D01*
X116174Y99783D01*
X116332Y99838D01*
X118317Y100795D01*
X118346Y100815D01*
X118378Y100828D01*
X118446Y100885D01*
X118519Y100936D01*
X118539Y100964D01*
X118566Y100987D01*
X118610Y101052D01*
X119225Y101242D01*
X119255Y101257D01*
X119331Y101284D01*
X119908Y101562D01*
X119980Y101556D01*
X120067Y101541D01*
X120101Y101546D01*
X120136Y101543D01*
X120301Y101574D01*
X122407Y102225D01*
X122438Y102240D01*
X122472Y102248D01*
X122548Y102295D01*
X122627Y102334D01*
X122651Y102359D01*
X122681Y102377D01*
X122735Y102435D01*
X123371Y102532D01*
X123403Y102542D01*
X123482Y102557D01*
X124094Y102746D01*
X124164Y102729D01*
X124248Y102701D01*
X124283Y102701D01*
X124317Y102693D01*
X124484Y102700D01*
X126664Y103029D01*
X126697Y103040D01*
X126731Y103042D01*
X126813Y103077D01*
X126898Y103104D01*
X126926Y103125D01*
X126958Y103139D01*
X127019Y103188D01*
X127663Y103188D01*
X127696Y103194D01*
X127777Y103197D01*
X128410Y103293D01*
X128476Y103266D01*
X128555Y103225D01*
X128590Y103220D01*
X128622Y103207D01*
X128789Y103189D01*
X130993Y103190D01*
X131027Y103195D01*
X131062Y103193D01*
X131148Y103215D01*
X131235Y103229D01*
X131266Y103246D01*
X131300Y103254D01*
X131368Y103294D01*
X132005Y103198D01*
X132038Y103199D01*
X132118Y103190D01*
X132759Y103190D01*
X132821Y103154D01*
X132893Y103102D01*
X132926Y103092D01*
X132956Y103074D01*
X133118Y103031D01*
X135298Y102703D01*
X135332Y102704D01*
X135366Y102696D01*
X135455Y102705D01*
X135543Y102706D01*
X135576Y102718D01*
X135611Y102721D01*
X135685Y102751D01*
X136300Y102561D01*
X136332Y102557D01*
X136410Y102536D01*
X137044Y102441D01*
X137100Y102395D01*
X137163Y102333D01*
X137194Y102318D01*
X137221Y102296D01*
X137375Y102230D01*
X139482Y101581D01*
X139501Y101578D01*
X139511Y101574D01*
X139525Y101572D01*
X139548Y101563D01*
X139637Y101559D01*
X139725Y101547D01*
X139759Y101554D01*
X139794Y101552D01*
X139871Y101570D01*
X140451Y101291D01*
X140483Y101281D01*
X140557Y101249D01*
X141169Y101061D01*
X141218Y101008D01*
X141271Y100937D01*
X141300Y100917D01*
X141323Y100892D01*
X141466Y100803D01*
X143346Y99898D01*
X143407Y99880D01*
X143464Y99853D01*
X143524Y99845D01*
X143582Y99828D01*
X143630Y99830D01*
X144322Y99431D01*
X144341Y99423D01*
X144372Y99404D01*
X144814Y99192D01*
X144923Y99159D01*
X145032Y99125D01*
X145041Y99125D01*
X145050Y99122D01*
X145164Y99127D01*
X145278Y99128D01*
X145287Y99131D01*
X145296Y99132D01*
X145403Y99172D01*
X145510Y99210D01*
X145517Y99216D01*
X145525Y99219D01*
X145615Y99292D01*
X145704Y99362D01*
X145710Y99370D01*
X145716Y99375D01*
X145728Y99395D01*
X145803Y99497D01*
X174352Y148945D01*
X174376Y149008D01*
X174409Y149067D01*
X174420Y149122D01*
X174439Y149175D01*
X174442Y149243D01*
X174454Y149309D01*
X174446Y149364D01*
X174449Y149421D01*
X174429Y149486D01*
X174420Y149552D01*
X174388Y149625D01*
X174379Y149657D01*
X174367Y149674D01*
X174352Y149706D01*
X145894Y198997D01*
X145822Y199085D01*
X145751Y199175D01*
X145744Y199180D01*
X145738Y199187D01*
X145641Y199248D01*
X145546Y199311D01*
X145537Y199313D01*
X145530Y199318D01*
X145419Y199344D01*
X145308Y199374D01*
X145299Y199373D01*
X145291Y199375D01*
X145177Y199365D01*
X145063Y199358D01*
X145053Y199354D01*
X145046Y199353D01*
X145024Y199344D01*
X144905Y199302D01*
X144372Y199046D01*
X144355Y199034D01*
X144322Y199019D01*
X143639Y198625D01*
X143629Y198626D01*
X143568Y198612D01*
X143505Y198608D01*
X143421Y198579D01*
X143389Y198571D01*
X143374Y198562D01*
X143346Y198552D01*
X141466Y197647D01*
X141437Y197627D01*
X141405Y197615D01*
X141337Y197557D01*
X141264Y197506D01*
X141244Y197478D01*
X141217Y197456D01*
X141172Y197390D01*
X140557Y197201D01*
X140528Y197186D01*
X140451Y197159D01*
X139874Y196882D01*
X139803Y196888D01*
X139715Y196903D01*
X139681Y196898D01*
X139647Y196901D01*
X139482Y196869D01*
X137375Y196220D01*
X137344Y196205D01*
X137310Y196197D01*
X137235Y196151D01*
X137155Y196111D01*
X137130Y196086D01*
X137101Y196068D01*
X137047Y196010D01*
X136411Y195914D01*
X136379Y195904D01*
X136300Y195889D01*
X135688Y195700D01*
X135618Y195717D01*
X135534Y195745D01*
X135499Y195745D01*
X135465Y195753D01*
X135298Y195747D01*
X133118Y195419D01*
X133085Y195408D01*
X133050Y195406D01*
X132968Y195371D01*
X132884Y195344D01*
X132856Y195323D01*
X132824Y195309D01*
X132762Y195260D01*
X132118Y195260D01*
X132086Y195255D01*
X132005Y195252D01*
X131372Y195156D01*
X131305Y195183D01*
X131226Y195224D01*
X131192Y195229D01*
X131159Y195242D01*
X130993Y195260D01*
X128789Y195261D01*
X128754Y195256D01*
X128720Y195258D01*
X128634Y195236D01*
X128546Y195222D01*
X128515Y195205D01*
X128482Y195197D01*
X128413Y195157D01*
X127777Y195253D01*
X127744Y195253D01*
X127663Y195262D01*
X127023Y195262D01*
X126961Y195298D01*
X126889Y195350D01*
X126856Y195360D01*
X126826Y195378D01*
X126664Y195421D01*
X124484Y195750D01*
X124449Y195750D01*
X124416Y195758D01*
X124327Y195748D01*
X124238Y195747D01*
X124206Y195736D01*
X124171Y195732D01*
X124097Y195703D01*
X123482Y195893D01*
X123450Y195898D01*
X123371Y195918D01*
X122738Y196014D01*
X122683Y196059D01*
X122619Y196121D01*
X122588Y196136D01*
X122561Y196158D01*
X122407Y196225D01*
X120301Y196876D01*
X120266Y196880D01*
X120234Y196893D01*
X120145Y196897D01*
X120057Y196909D01*
X120023Y196903D01*
X119988Y196904D01*
X119911Y196887D01*
X119331Y197166D01*
X119300Y197175D01*
X119225Y197208D01*
X118613Y197397D01*
X118565Y197450D01*
X118511Y197521D01*
X118483Y197540D01*
X118459Y197566D01*
X118317Y197655D01*
X116332Y198612D01*
X116299Y198622D01*
X116268Y198639D01*
X116181Y198656D01*
X116096Y198681D01*
X116061Y198680D01*
X116027Y198687D01*
X115948Y198681D01*
X115416Y199043D01*
X115386Y199057D01*
X115318Y199100D01*
X114741Y199378D01*
X114701Y199438D01*
X114659Y199516D01*
X114633Y199540D01*
X114614Y199569D01*
X114487Y199678D01*
X112666Y200920D01*
X112634Y200935D01*
X112607Y200956D01*
X112524Y200986D01*
X112443Y201024D01*
X112408Y201028D01*
X112376Y201040D01*
X112297Y201045D01*
X111825Y201483D01*
X111798Y201502D01*
X111736Y201554D01*
X111207Y201915D01*
X111177Y201980D01*
X111146Y202064D01*
X111125Y202091D01*
X111110Y202122D01*
X111000Y202249D01*
X109483Y203658D01*
X109478Y203661D01*
X109475Y203666D01*
X109376Y203729D01*
X109278Y203794D01*
X109273Y203795D01*
X109268Y203799D01*
X109154Y203827D01*
X109040Y203858D01*
X109035Y203857D01*
X109029Y203859D01*
X108913Y203850D01*
X108795Y203842D01*
X108790Y203840D01*
X108784Y203839D01*
X108677Y203794D01*
X108567Y203749D01*
X108563Y203745D01*
X108558Y203743D01*
X108427Y203638D01*
X105114Y200326D01*
X104940Y200326D01*
X104850Y200311D01*
X104759Y200304D01*
X104729Y200291D01*
X104697Y200286D01*
X104617Y200243D01*
X104533Y200208D01*
X104501Y200182D01*
X104480Y200171D01*
X104458Y200148D01*
X104402Y200103D01*
X91981Y187682D01*
X91928Y187608D01*
X91869Y187539D01*
X91856Y187508D01*
X91838Y187482D01*
X91811Y187395D01*
X91777Y187311D01*
X91772Y187270D01*
X91765Y187247D01*
X91766Y187215D01*
X91758Y187144D01*
X91758Y141454D01*
X91770Y141383D01*
X91772Y141311D01*
X91790Y141262D01*
X91798Y141211D01*
X91832Y141148D01*
X91856Y141080D01*
X91889Y141040D01*
X91913Y140993D01*
X91965Y140944D01*
X92010Y140888D01*
X92054Y140860D01*
X92091Y140824D01*
X92156Y140794D01*
X92217Y140755D01*
X92267Y140742D01*
X92314Y140720D01*
X92386Y140713D01*
X92455Y140695D01*
X92507Y140699D01*
X92559Y140693D01*
X92629Y140709D01*
X92700Y140714D01*
X92748Y140735D01*
X92799Y140746D01*
X92861Y140782D01*
X92927Y140811D01*
X92983Y140855D01*
X93010Y140872D01*
X93026Y140890D01*
X93058Y140915D01*
X96225Y144082D01*
X103800Y144082D01*
X109157Y138725D01*
X109157Y131150D01*
X103800Y125793D01*
X96225Y125793D01*
X93058Y128960D01*
X93000Y129002D01*
X92948Y129051D01*
X92900Y129073D01*
X92858Y129103D01*
X92790Y129124D01*
X92724Y129155D01*
X92673Y129160D01*
X92623Y129176D01*
X92551Y129174D01*
X92480Y129182D01*
X92429Y129171D01*
X92377Y129169D01*
X92310Y129145D01*
X92240Y129129D01*
X92195Y129103D01*
X92146Y129085D01*
X92090Y129040D01*
X92029Y129003D01*
X91995Y128964D01*
X91954Y128931D01*
X91915Y128871D01*
X91869Y128816D01*
X91849Y128768D01*
X91821Y128724D01*
X91804Y128655D01*
X91777Y128588D01*
X91769Y128517D01*
X91761Y128486D01*
X91763Y128462D01*
X91758Y128421D01*
X91758Y98533D01*
X66982Y73756D01*
X40583Y73756D01*
X33993Y80346D01*
X33919Y80399D01*
X33849Y80459D01*
X33819Y80471D01*
X33793Y80490D01*
X33706Y80517D01*
X33621Y80551D01*
X33580Y80555D01*
X33558Y80562D01*
X33526Y80561D01*
X33454Y80569D01*
X30812Y80569D01*
X30763Y80589D01*
X30722Y80593D01*
X30700Y80600D01*
X30668Y80599D01*
X30596Y80607D01*
X29691Y80607D01*
X29672Y80604D01*
X29652Y80606D01*
X29551Y80584D01*
X29449Y80568D01*
X29431Y80558D01*
X29412Y80554D01*
X29323Y80501D01*
X29231Y80453D01*
X29218Y80438D01*
X29200Y80428D01*
X29133Y80349D01*
X29062Y80274D01*
X29054Y80256D01*
X29041Y80241D01*
X29002Y80145D01*
X28958Y80051D01*
X28956Y80031D01*
X28949Y80013D01*
X28930Y79846D01*
X28930Y78941D01*
X28945Y78851D01*
X28952Y78760D01*
X28965Y78730D01*
X28968Y78709D01*
X28968Y77316D01*
X28983Y77226D01*
X28990Y77135D01*
X29003Y77105D01*
X29008Y77073D01*
X29051Y76992D01*
X29086Y76908D01*
X29112Y76876D01*
X29123Y76856D01*
X29146Y76833D01*
X29191Y76777D01*
X48138Y57831D01*
X48212Y57778D01*
X48281Y57718D01*
X48311Y57706D01*
X48337Y57687D01*
X48424Y57661D01*
X48509Y57626D01*
X48550Y57622D01*
X48573Y57615D01*
X48605Y57616D01*
X48676Y57608D01*
X98116Y57608D01*
X98206Y57623D01*
G37*
G36*
X-67572Y-1269D02*
X-67572Y-1269D01*
X-67544Y-1271D01*
X-67476Y-1249D01*
X-67405Y-1235D01*
X-67382Y-1219D01*
X-67366Y-1213D01*
X-36686Y-1213D01*
X-36615Y-1202D01*
X-36544Y-1200D01*
X-36495Y-1182D01*
X-36443Y-1174D01*
X-36380Y-1140D01*
X-36313Y-1115D01*
X-36272Y-1083D01*
X-36226Y-1059D01*
X-36177Y-1007D01*
X-36121Y-962D01*
X-36092Y-918D01*
X-36057Y-880D01*
X-36026Y-815D01*
X-35988Y-755D01*
X-35975Y-704D01*
X-35953Y-657D01*
X-35945Y-586D01*
X-35927Y-516D01*
X-35932Y-464D01*
X-35926Y-413D01*
X-35941Y-343D01*
X-35947Y-271D01*
X-35967Y-223D01*
X-35978Y-172D01*
X-36015Y-111D01*
X-36043Y-45D01*
X-36088Y11D01*
X-36104Y39D01*
X-36122Y54D01*
X-36148Y86D01*
X-36609Y548D01*
X-39759Y3697D01*
X-39759Y14041D01*
X-27365Y26434D01*
X-27320Y26497D01*
X-27294Y26525D01*
X-27288Y26536D01*
X-27253Y26578D01*
X-27240Y26608D01*
X-27222Y26634D01*
X-27195Y26721D01*
X-27161Y26806D01*
X-27156Y26847D01*
X-27149Y26869D01*
X-27150Y26901D01*
X-27142Y26972D01*
X-27142Y72289D01*
X-27145Y72309D01*
X-27143Y72328D01*
X-27165Y72430D01*
X-27182Y72532D01*
X-27191Y72549D01*
X-27196Y72569D01*
X-27249Y72658D01*
X-27297Y72749D01*
X-27311Y72763D01*
X-27322Y72780D01*
X-27400Y72847D01*
X-27475Y72919D01*
X-27493Y72927D01*
X-27509Y72940D01*
X-27605Y72979D01*
X-27698Y73022D01*
X-27718Y73024D01*
X-27737Y73032D01*
X-27903Y73050D01*
X-31212Y73050D01*
X-32105Y73943D01*
X-32105Y79846D01*
X-32108Y79866D01*
X-32106Y79886D01*
X-32128Y79987D01*
X-32145Y80089D01*
X-32154Y80106D01*
X-32158Y80126D01*
X-32212Y80215D01*
X-32260Y80306D01*
X-32274Y80320D01*
X-32285Y80337D01*
X-32363Y80404D01*
X-32438Y80476D01*
X-32456Y80484D01*
X-32472Y80497D01*
X-32568Y80536D01*
X-32661Y80579D01*
X-32681Y80581D01*
X-32700Y80589D01*
X-32866Y80607D01*
X-38769Y80607D01*
X-39662Y81501D01*
X-39662Y84809D01*
X-39665Y84828D01*
X-39663Y84847D01*
X-39663Y84848D01*
X-39685Y84950D01*
X-39702Y85052D01*
X-39711Y85069D01*
X-39716Y85089D01*
X-39769Y85178D01*
X-39817Y85269D01*
X-39831Y85283D01*
X-39842Y85300D01*
X-39920Y85367D01*
X-39995Y85439D01*
X-40013Y85447D01*
X-40029Y85460D01*
X-40125Y85499D01*
X-40218Y85542D01*
X-40238Y85544D01*
X-40257Y85552D01*
X-40423Y85570D01*
X-45127Y85570D01*
X-45217Y85556D01*
X-45308Y85548D01*
X-45337Y85536D01*
X-45369Y85531D01*
X-45450Y85488D01*
X-45534Y85452D01*
X-45566Y85426D01*
X-45587Y85415D01*
X-45588Y85414D01*
X-45609Y85392D01*
X-45665Y85347D01*
X-46556Y84456D01*
X-50363Y84456D01*
X-50453Y84442D01*
X-50544Y84434D01*
X-50574Y84422D01*
X-50606Y84417D01*
X-50686Y84374D01*
X-50770Y84338D01*
X-50802Y84312D01*
X-50823Y84301D01*
X-50845Y84278D01*
X-50901Y84233D01*
X-53678Y81456D01*
X-57447Y81456D01*
X-60111Y84121D01*
X-60111Y87983D01*
X-60107Y87997D01*
X-60077Y88062D01*
X-60071Y88114D01*
X-60056Y88163D01*
X-60058Y88235D01*
X-60050Y88306D01*
X-60061Y88357D01*
X-60062Y88409D01*
X-60087Y88477D01*
X-60102Y88547D01*
X-60129Y88592D01*
X-60146Y88640D01*
X-60191Y88696D01*
X-60228Y88758D01*
X-60268Y88792D01*
X-60300Y88832D01*
X-60360Y88871D01*
X-60415Y88918D01*
X-60463Y88937D01*
X-60507Y88965D01*
X-60576Y88983D01*
X-60643Y89010D01*
X-60714Y89018D01*
X-60746Y89026D01*
X-60769Y89024D01*
X-60810Y89028D01*
X-96138Y89028D01*
X-96228Y89014D01*
X-96319Y89006D01*
X-96348Y88994D01*
X-96380Y88989D01*
X-96461Y88946D01*
X-96545Y88910D01*
X-96577Y88884D01*
X-96598Y88873D01*
X-96620Y88850D01*
X-96676Y88805D01*
X-98542Y86939D01*
X-102608Y86939D01*
X-102651Y86932D01*
X-102695Y86934D01*
X-102772Y86912D01*
X-102851Y86899D01*
X-102889Y86879D01*
X-102931Y86867D01*
X-102997Y86821D01*
X-103068Y86784D01*
X-103098Y86752D01*
X-103134Y86728D01*
X-103182Y86664D01*
X-103237Y86606D01*
X-103256Y86566D01*
X-103282Y86531D01*
X-103335Y86395D01*
X-103341Y86383D01*
X-103341Y86379D01*
X-103343Y86375D01*
X-103363Y86299D01*
X-103367Y86265D01*
X-103378Y86232D01*
X-103379Y86143D01*
X-103388Y86055D01*
X-103380Y86021D01*
X-103381Y85986D01*
X-103337Y85824D01*
X-102532Y83772D01*
X-102515Y83742D01*
X-102504Y83709D01*
X-102452Y83637D01*
X-102407Y83561D01*
X-102380Y83538D01*
X-102360Y83510D01*
X-102298Y83461D01*
X-102155Y82833D01*
X-102143Y82802D01*
X-102121Y82724D01*
X-101888Y82128D01*
X-101899Y82057D01*
X-101921Y81971D01*
X-101918Y81937D01*
X-101924Y81902D01*
X-101905Y81736D01*
X-101415Y79587D01*
X-101402Y79554D01*
X-101397Y79520D01*
X-101356Y79441D01*
X-101322Y79359D01*
X-101300Y79332D01*
X-101284Y79302D01*
X-101230Y79244D01*
X-101182Y78602D01*
X-101174Y78570D01*
X-101165Y78489D01*
X-101023Y77865D01*
X-101044Y77797D01*
X-101079Y77715D01*
X-101082Y77680D01*
X-101092Y77647D01*
X-101098Y77479D01*
X-100934Y75281D01*
X-100926Y75248D01*
X-100926Y75213D01*
X-100897Y75128D01*
X-100876Y75042D01*
X-100858Y75013D01*
X-100847Y74980D01*
X-100802Y74914D01*
X-100850Y74273D01*
X-100847Y74240D01*
X-100850Y74159D01*
X-100803Y73520D01*
X-100834Y73456D01*
X-100881Y73380D01*
X-100889Y73346D01*
X-100904Y73315D01*
X-100935Y73150D01*
X-101100Y70952D01*
X-101097Y70918D01*
X-101102Y70883D01*
X-101087Y70796D01*
X-101079Y70707D01*
X-101065Y70675D01*
X-101059Y70641D01*
X-101024Y70570D01*
X-101168Y69942D01*
X-101170Y69909D01*
X-101185Y69830D01*
X-101233Y69191D01*
X-101274Y69133D01*
X-101331Y69064D01*
X-101344Y69032D01*
X-101363Y69004D01*
X-101419Y68845D01*
X-101910Y66696D01*
X-101912Y66662D01*
X-101922Y66629D01*
X-101920Y66548D01*
X-101925Y66498D01*
X-101923Y66487D01*
X-101925Y66451D01*
X-101916Y66417D01*
X-101915Y66383D01*
X-101892Y66307D01*
X-102127Y65708D01*
X-102134Y65676D01*
X-102160Y65599D01*
X-102303Y64975D01*
X-102352Y64923D01*
X-102419Y64864D01*
X-102436Y64834D01*
X-102460Y64809D01*
X-102538Y64660D01*
X-103344Y62609D01*
X-103352Y62575D01*
X-103367Y62544D01*
X-103377Y62455D01*
X-103396Y62368D01*
X-103392Y62334D01*
X-103396Y62299D01*
X-103385Y62221D01*
X-103707Y61664D01*
X-103718Y61633D01*
X-103756Y61561D01*
X-103990Y60965D01*
X-104047Y60921D01*
X-104121Y60873D01*
X-104143Y60846D01*
X-104170Y60824D01*
X-104270Y60689D01*
X-105372Y58781D01*
X-105385Y58748D01*
X-105404Y58719D01*
X-105428Y58634D01*
X-105459Y58551D01*
X-105461Y58516D01*
X-105470Y58482D01*
X-105470Y58403D01*
X-105871Y57900D01*
X-105887Y57871D01*
X-105912Y57838D01*
X-105919Y57831D01*
X-105921Y57825D01*
X-105935Y57806D01*
X-106256Y57252D01*
X-106318Y57216D01*
X-106399Y57180D01*
X-106425Y57156D01*
X-106455Y57139D01*
X-106573Y57020D01*
X-107948Y55297D01*
X-107965Y55267D01*
X-107989Y55242D01*
X-108025Y55161D01*
X-108068Y55083D01*
X-108075Y55049D01*
X-108089Y55017D01*
X-108101Y54939D01*
X-108573Y54501D01*
X-108593Y54475D01*
X-108650Y54418D01*
X-109050Y53917D01*
X-109116Y53892D01*
X-109202Y53868D01*
X-109231Y53848D01*
X-109263Y53836D01*
X-109398Y53736D01*
X-111014Y52237D01*
X-111036Y52210D01*
X-111063Y52188D01*
X-111111Y52113D01*
X-111165Y52043D01*
X-111177Y52010D01*
X-111195Y51981D01*
X-111219Y51905D01*
X-111751Y51543D01*
X-111775Y51520D01*
X-111840Y51472D01*
X-112309Y51036D01*
X-112379Y51021D01*
X-112467Y51010D01*
X-112499Y50995D01*
X-112533Y50988D01*
X-112681Y50909D01*
X-114406Y49734D01*
X-114451Y49690D01*
X-114503Y49655D01*
X-114540Y49606D01*
X-114584Y49564D01*
X-114606Y49522D01*
X-115035Y49275D01*
X-115051Y49262D01*
X-115069Y49254D01*
X-115146Y49184D01*
X-115226Y49119D01*
X-115237Y49102D01*
X-115251Y49088D01*
X-115302Y48998D01*
X-115357Y48911D01*
X-115361Y48891D01*
X-115371Y48874D01*
X-115390Y48772D01*
X-115414Y48672D01*
X-115412Y48652D01*
X-115416Y48632D01*
X-115402Y48529D01*
X-115393Y48427D01*
X-115385Y48408D01*
X-115382Y48388D01*
X-115314Y48235D01*
X-96588Y15801D01*
X-96589Y15759D01*
X-96598Y15688D01*
X-96590Y15661D01*
X-96591Y15632D01*
X-96555Y15537D01*
X-96544Y15497D01*
X-96537Y15488D01*
X-96533Y15476D01*
X-87033Y-1024D01*
X-86981Y-1082D01*
X-86935Y-1145D01*
X-86916Y-1156D01*
X-86901Y-1173D01*
X-86831Y-1207D01*
X-86764Y-1247D01*
X-86740Y-1251D01*
X-86722Y-1259D01*
X-86677Y-1261D01*
X-86600Y-1274D01*
X-67600Y-1274D01*
X-67572Y-1269D01*
G37*
G36*
X86676Y-1259D02*
X86676Y-1259D01*
X86754Y-1250D01*
X86773Y-1239D01*
X86795Y-1235D01*
X86826Y-1213D01*
X87217Y-1213D01*
X87284Y-1202D01*
X87352Y-1201D01*
X87405Y-1183D01*
X87460Y-1174D01*
X87520Y-1142D01*
X87583Y-1120D01*
X87628Y-1085D01*
X87677Y-1059D01*
X87724Y-1010D01*
X87777Y-968D01*
X87824Y-904D01*
X87847Y-880D01*
X87856Y-861D01*
X87877Y-833D01*
X115966Y47818D01*
X116006Y47926D01*
X116049Y48031D01*
X116050Y48040D01*
X116053Y48048D01*
X116057Y48163D01*
X116064Y48277D01*
X116062Y48285D01*
X116062Y48294D01*
X116029Y48404D01*
X115999Y48514D01*
X115994Y48522D01*
X115992Y48530D01*
X115926Y48624D01*
X115863Y48719D01*
X115855Y48726D01*
X115851Y48731D01*
X115832Y48745D01*
X115735Y48828D01*
X115346Y49093D01*
X115327Y49102D01*
X115298Y49123D01*
X114615Y49517D01*
X114611Y49526D01*
X114568Y49572D01*
X114533Y49625D01*
X114466Y49682D01*
X114444Y49706D01*
X114428Y49715D01*
X114406Y49734D01*
X113017Y50680D01*
X112952Y50710D01*
X112891Y50749D01*
X112841Y50762D01*
X112794Y50784D01*
X112723Y50792D01*
X112653Y50809D01*
X112601Y50805D01*
X112550Y50811D01*
X112479Y50796D01*
X112408Y50790D01*
X112360Y50770D01*
X112310Y50759D01*
X112247Y50722D01*
X112181Y50694D01*
X112126Y50649D01*
X112098Y50633D01*
X112083Y50615D01*
X112050Y50589D01*
X107625Y46164D01*
X43365Y46164D01*
X17870Y71659D01*
X17870Y72289D01*
X17867Y72309D01*
X17869Y72328D01*
X17847Y72430D01*
X17830Y72532D01*
X17821Y72549D01*
X17816Y72569D01*
X17763Y72658D01*
X17715Y72749D01*
X17701Y72763D01*
X17690Y72780D01*
X17612Y72847D01*
X17537Y72919D01*
X17519Y72927D01*
X17503Y72940D01*
X17407Y72979D01*
X17314Y73022D01*
X17294Y73024D01*
X17275Y73032D01*
X17109Y73050D01*
X13726Y73050D01*
X13719Y73055D01*
X13618Y73080D01*
X13520Y73111D01*
X13500Y73110D01*
X13480Y73115D01*
X13377Y73107D01*
X13274Y73105D01*
X13255Y73098D01*
X13235Y73096D01*
X13140Y73056D01*
X13125Y73050D01*
X11420Y73050D01*
X11350Y73039D01*
X11278Y73037D01*
X11229Y73019D01*
X11178Y73011D01*
X11114Y72977D01*
X11047Y72952D01*
X11006Y72920D01*
X10960Y72895D01*
X10911Y72843D01*
X10855Y72799D01*
X10827Y72755D01*
X10791Y72717D01*
X10761Y72652D01*
X10722Y72592D01*
X10709Y72541D01*
X10687Y72494D01*
X10679Y72423D01*
X10662Y72353D01*
X10666Y72301D01*
X10660Y72250D01*
X10675Y72179D01*
X10681Y72108D01*
X10701Y72060D01*
X10712Y72009D01*
X10749Y71948D01*
X10777Y71882D01*
X10822Y71826D01*
X10839Y71798D01*
X10856Y71783D01*
X10882Y71751D01*
X12486Y70147D01*
X12486Y66378D01*
X9822Y63714D01*
X6053Y63714D01*
X3389Y66378D01*
X3389Y68184D01*
X3374Y68274D01*
X3367Y68365D01*
X3354Y68395D01*
X3349Y68427D01*
X3306Y68508D01*
X3271Y68592D01*
X3245Y68624D01*
X3234Y68644D01*
X3211Y68667D01*
X3166Y68723D01*
X2866Y69023D01*
X2866Y72289D01*
X2863Y72309D01*
X2865Y72328D01*
X2843Y72430D01*
X2826Y72532D01*
X2817Y72549D01*
X2812Y72569D01*
X2759Y72658D01*
X2711Y72749D01*
X2697Y72763D01*
X2686Y72780D01*
X2608Y72847D01*
X2533Y72919D01*
X2515Y72927D01*
X2499Y72940D01*
X2403Y72979D01*
X2310Y73022D01*
X2290Y73024D01*
X2271Y73032D01*
X2105Y73050D01*
X-1276Y73050D01*
X-1285Y73056D01*
X-1385Y73081D01*
X-1484Y73111D01*
X-1504Y73111D01*
X-1523Y73116D01*
X-1626Y73108D01*
X-1730Y73105D01*
X-1749Y73098D01*
X-1768Y73097D01*
X-1863Y73056D01*
X-1880Y73050D01*
X-6279Y73050D01*
X-6286Y73055D01*
X-6387Y73080D01*
X-6485Y73111D01*
X-6505Y73110D01*
X-6525Y73115D01*
X-6628Y73107D01*
X-6731Y73105D01*
X-6750Y73098D01*
X-6770Y73096D01*
X-6865Y73056D01*
X-6880Y73050D01*
X-11280Y73050D01*
X-11287Y73055D01*
X-11388Y73080D01*
X-11486Y73111D01*
X-11506Y73110D01*
X-11526Y73115D01*
X-11629Y73107D01*
X-11732Y73105D01*
X-11751Y73098D01*
X-11771Y73096D01*
X-11866Y73056D01*
X-11881Y73050D01*
X-15282Y73050D01*
X-15301Y73047D01*
X-15321Y73049D01*
X-15422Y73027D01*
X-15524Y73011D01*
X-15542Y73001D01*
X-15561Y72997D01*
X-15650Y72944D01*
X-15742Y72895D01*
X-15755Y72881D01*
X-15772Y72871D01*
X-15840Y72792D01*
X-15911Y72717D01*
X-15919Y72699D01*
X-15932Y72684D01*
X-15971Y72588D01*
X-16015Y72494D01*
X-16017Y72474D01*
X-16024Y72456D01*
X-16043Y72289D01*
X-16043Y24842D01*
X-16032Y24776D01*
X-16031Y24709D01*
X-16012Y24655D01*
X-16003Y24599D01*
X-15972Y24540D01*
X-15949Y24477D01*
X-15914Y24432D01*
X-15888Y24382D01*
X-15839Y24336D01*
X-15798Y24283D01*
X-15751Y24251D01*
X-15710Y24212D01*
X-15649Y24184D01*
X-15593Y24147D01*
X-15538Y24133D01*
X-15487Y24109D01*
X-15420Y24101D01*
X-15355Y24084D01*
X-15298Y24088D01*
X-15242Y24082D01*
X-15176Y24096D01*
X-15109Y24100D01*
X-15034Y24127D01*
X-15002Y24134D01*
X-14984Y24145D01*
X-14951Y24156D01*
X-14567Y24341D01*
X-14540Y24360D01*
X-14468Y24398D01*
X-13939Y24759D01*
X-13867Y24764D01*
X-13778Y24761D01*
X-13745Y24772D01*
X-13711Y24774D01*
X-13553Y24830D01*
X-11569Y25785D01*
X-11540Y25805D01*
X-11508Y25818D01*
X-11440Y25875D01*
X-11367Y25926D01*
X-11347Y25954D01*
X-11320Y25976D01*
X-11276Y26042D01*
X-10661Y26232D01*
X-10631Y26247D01*
X-10555Y26273D01*
X-9978Y26551D01*
X-9906Y26545D01*
X-9819Y26530D01*
X-9784Y26535D01*
X-9750Y26532D01*
X-9585Y26564D01*
X-7481Y27213D01*
X-7450Y27228D01*
X-7416Y27236D01*
X-7340Y27282D01*
X-7261Y27322D01*
X-7236Y27347D01*
X-7207Y27365D01*
X-7153Y27423D01*
X-6516Y27519D01*
X-6485Y27529D01*
X-6405Y27544D01*
X-5793Y27733D01*
X-5724Y27717D01*
X-5639Y27688D01*
X-5605Y27688D01*
X-5571Y27680D01*
X-5403Y27687D01*
X-3226Y28015D01*
X-3193Y28026D01*
X-3158Y28028D01*
X-3077Y28063D01*
X-2992Y28090D01*
X-2964Y28111D01*
X-2932Y28125D01*
X-2870Y28174D01*
X-2227Y28174D01*
X-2194Y28180D01*
X-2113Y28183D01*
X-1480Y28278D01*
X-1413Y28251D01*
X-1334Y28211D01*
X-1300Y28206D01*
X-1268Y28193D01*
X-1101Y28174D01*
X1101Y28174D01*
X1135Y28180D01*
X1170Y28177D01*
X1256Y28200D01*
X1344Y28214D01*
X1374Y28230D01*
X1408Y28239D01*
X1477Y28279D01*
X2113Y28183D01*
X2146Y28183D01*
X2227Y28174D01*
X2867Y28174D01*
X2929Y28138D01*
X3001Y28086D01*
X3034Y28076D01*
X3064Y28058D01*
X3226Y28015D01*
X5403Y27687D01*
X5438Y27687D01*
X5472Y27680D01*
X5560Y27689D01*
X5649Y27690D01*
X5682Y27701D01*
X5717Y27705D01*
X5790Y27734D01*
X6405Y27544D01*
X6438Y27540D01*
X6516Y27519D01*
X7150Y27424D01*
X7205Y27378D01*
X7269Y27316D01*
X7300Y27301D01*
X7327Y27279D01*
X7481Y27213D01*
X9585Y26564D01*
X9619Y26559D01*
X9652Y26546D01*
X9741Y26542D01*
X9829Y26530D01*
X9863Y26536D01*
X9897Y26535D01*
X9975Y26553D01*
X10555Y26273D01*
X10586Y26264D01*
X10661Y26232D01*
X11272Y26043D01*
X11321Y25990D01*
X11374Y25919D01*
X11403Y25900D01*
X11426Y25874D01*
X11569Y25785D01*
X13553Y24830D01*
X13586Y24820D01*
X13616Y24803D01*
X13703Y24785D01*
X13788Y24760D01*
X13823Y24761D01*
X13857Y24755D01*
X13936Y24761D01*
X14468Y24398D01*
X14498Y24384D01*
X14567Y24341D01*
X15144Y24063D01*
X15183Y24004D01*
X15226Y23926D01*
X15251Y23902D01*
X15271Y23873D01*
X15398Y23764D01*
X17217Y22524D01*
X17249Y22509D01*
X17276Y22488D01*
X17360Y22457D01*
X17440Y22420D01*
X17475Y22416D01*
X17507Y22404D01*
X17587Y22398D01*
X18058Y21961D01*
X18086Y21942D01*
X18147Y21890D01*
X18676Y21529D01*
X18707Y21464D01*
X18737Y21381D01*
X18759Y21353D01*
X18774Y21322D01*
X18883Y21195D01*
X20498Y19697D01*
X20526Y19678D01*
X20550Y19653D01*
X20628Y19611D01*
X20703Y19561D01*
X20736Y19553D01*
X20766Y19536D01*
X20844Y19519D01*
X21245Y19015D01*
X21270Y18993D01*
X21323Y18932D01*
X21792Y18496D01*
X21813Y18428D01*
X21830Y18340D01*
X21848Y18310D01*
X21858Y18277D01*
X21947Y18135D01*
X23320Y16414D01*
X23345Y16391D01*
X23365Y16362D01*
X23437Y16308D01*
X23502Y16249D01*
X23534Y16235D01*
X23562Y16214D01*
X23636Y16185D01*
X23957Y15628D01*
X23978Y15602D01*
X24022Y15534D01*
X24421Y15033D01*
X24431Y14962D01*
X24435Y14873D01*
X24448Y14841D01*
X24453Y14807D01*
X24520Y14653D01*
X25621Y12746D01*
X25643Y12719D01*
X25658Y12688D01*
X25721Y12624D01*
X25777Y12556D01*
X25806Y12537D01*
X25831Y12513D01*
X25900Y12473D01*
X26135Y11874D01*
X26151Y11846D01*
X26184Y11771D01*
X26504Y11217D01*
X26504Y11145D01*
X26495Y11057D01*
X26502Y11023D01*
X26502Y10988D01*
X26546Y10826D01*
X27350Y8776D01*
X27368Y8747D01*
X27378Y8714D01*
X27430Y8642D01*
X27476Y8565D01*
X27502Y8542D01*
X27523Y8514D01*
X27585Y8465D01*
X27728Y7837D01*
X27740Y7807D01*
X27762Y7729D01*
X27995Y7133D01*
X27984Y7062D01*
X27962Y6976D01*
X27965Y6941D01*
X27959Y6907D01*
X27978Y6740D01*
X28468Y4593D01*
X28481Y4561D01*
X28487Y4527D01*
X28528Y4448D01*
X28561Y4366D01*
X28584Y4339D01*
X28600Y4309D01*
X28654Y4251D01*
X28702Y3609D01*
X28710Y3577D01*
X28719Y3496D01*
X28861Y2872D01*
X28840Y2803D01*
X28805Y2722D01*
X28803Y2687D01*
X28792Y2654D01*
X28786Y2486D01*
X28942Y407D01*
X28957Y346D01*
X28962Y283D01*
X28985Y227D01*
X29000Y168D01*
X29025Y128D01*
X29025Y-452D01*
X29028Y-472D01*
X29026Y-492D01*
X29048Y-593D01*
X29064Y-695D01*
X29074Y-712D01*
X29078Y-732D01*
X29131Y-821D01*
X29180Y-912D01*
X29194Y-926D01*
X29204Y-943D01*
X29283Y-1010D01*
X29358Y-1082D01*
X29376Y-1090D01*
X29391Y-1103D01*
X29487Y-1142D01*
X29581Y-1185D01*
X29601Y-1187D01*
X29619Y-1195D01*
X29786Y-1213D01*
X67369Y-1213D01*
X67384Y-1225D01*
X67412Y-1232D01*
X67436Y-1247D01*
X67536Y-1263D01*
X67577Y-1274D01*
X67587Y-1272D01*
X67600Y-1274D01*
X86600Y-1274D01*
X86676Y-1259D01*
G37*
G36*
X18457Y81542D02*
X18457Y81542D01*
X18560Y81545D01*
X18579Y81552D01*
X18599Y81553D01*
X18693Y81594D01*
X18710Y81600D01*
X23109Y81600D01*
X23116Y81595D01*
X23217Y81569D01*
X23316Y81539D01*
X23336Y81540D01*
X23355Y81535D01*
X23458Y81543D01*
X23561Y81545D01*
X23580Y81552D01*
X23600Y81554D01*
X23695Y81594D01*
X23710Y81600D01*
X27177Y81600D01*
X27196Y81603D01*
X27216Y81601D01*
X27317Y81623D01*
X27419Y81639D01*
X27437Y81649D01*
X27456Y81653D01*
X27545Y81706D01*
X27637Y81755D01*
X27650Y81769D01*
X27667Y81779D01*
X27735Y81858D01*
X27806Y81933D01*
X27814Y81951D01*
X27827Y81966D01*
X27866Y82062D01*
X27910Y82156D01*
X27912Y82176D01*
X27919Y82194D01*
X27938Y82361D01*
X27938Y85808D01*
X27943Y85816D01*
X27968Y85916D01*
X27998Y86015D01*
X27998Y86035D01*
X28003Y86054D01*
X27995Y86158D01*
X27992Y86261D01*
X27985Y86280D01*
X27984Y86300D01*
X27943Y86394D01*
X27938Y86409D01*
X27938Y90809D01*
X27943Y90817D01*
X27969Y90918D01*
X27999Y91017D01*
X27998Y91037D01*
X28003Y91056D01*
X27995Y91159D01*
X27993Y91262D01*
X27986Y91281D01*
X27984Y91301D01*
X27944Y91396D01*
X27938Y91412D01*
X27938Y95811D01*
X27943Y95819D01*
X27968Y95919D01*
X27998Y96018D01*
X27998Y96038D01*
X28003Y96057D01*
X27995Y96161D01*
X27992Y96264D01*
X27985Y96283D01*
X27984Y96303D01*
X27943Y96397D01*
X27938Y96412D01*
X27938Y100812D01*
X27943Y100820D01*
X27968Y100920D01*
X27998Y101019D01*
X27998Y101039D01*
X28003Y101058D01*
X27995Y101162D01*
X27992Y101265D01*
X27985Y101284D01*
X27984Y101304D01*
X27943Y101398D01*
X27938Y101413D01*
X27938Y105813D01*
X27943Y105821D01*
X27956Y105873D01*
X27977Y105918D01*
X27982Y105967D01*
X27998Y106020D01*
X27998Y106040D01*
X28003Y106059D01*
X27999Y106114D01*
X28004Y106162D01*
X27994Y106210D01*
X27992Y106266D01*
X27985Y106285D01*
X27984Y106305D01*
X27962Y106356D01*
X27952Y106403D01*
X27938Y106426D01*
X27938Y110814D01*
X27943Y110822D01*
X27969Y110923D01*
X27999Y111022D01*
X27998Y111042D01*
X28003Y111061D01*
X27995Y111164D01*
X27993Y111267D01*
X27986Y111286D01*
X27984Y111306D01*
X27944Y111401D01*
X27938Y111417D01*
X27938Y115816D01*
X27943Y115824D01*
X27968Y115924D01*
X27998Y116023D01*
X27998Y116043D01*
X28003Y116062D01*
X27995Y116166D01*
X27992Y116269D01*
X27985Y116288D01*
X27984Y116308D01*
X27943Y116402D01*
X27938Y116417D01*
X27938Y120817D01*
X27943Y120825D01*
X27968Y120925D01*
X27998Y121024D01*
X27998Y121044D01*
X28003Y121063D01*
X27995Y121167D01*
X27992Y121270D01*
X27985Y121289D01*
X27984Y121309D01*
X27943Y121403D01*
X27938Y121418D01*
X27938Y125818D01*
X27943Y125826D01*
X27968Y125926D01*
X27998Y126025D01*
X27998Y126045D01*
X28003Y126064D01*
X27995Y126168D01*
X27992Y126271D01*
X27985Y126290D01*
X27984Y126310D01*
X27943Y126404D01*
X27938Y126419D01*
X27938Y130819D01*
X27943Y130827D01*
X27969Y130928D01*
X27999Y131027D01*
X27998Y131047D01*
X28003Y131066D01*
X27995Y131169D01*
X27993Y131272D01*
X27986Y131291D01*
X27984Y131311D01*
X27944Y131406D01*
X27938Y131422D01*
X27938Y135821D01*
X27943Y135829D01*
X27968Y135929D01*
X27998Y136028D01*
X27998Y136048D01*
X28003Y136067D01*
X27995Y136171D01*
X27992Y136274D01*
X27985Y136293D01*
X27984Y136313D01*
X27943Y136407D01*
X27938Y136422D01*
X27938Y139889D01*
X27935Y139909D01*
X27937Y139928D01*
X27915Y140030D01*
X27898Y140132D01*
X27889Y140149D01*
X27884Y140169D01*
X27831Y140258D01*
X27783Y140349D01*
X27769Y140363D01*
X27758Y140380D01*
X27680Y140447D01*
X27605Y140519D01*
X27587Y140527D01*
X27571Y140540D01*
X27475Y140579D01*
X27382Y140622D01*
X27362Y140624D01*
X27343Y140632D01*
X27177Y140650D01*
X23729Y140650D01*
X23722Y140655D01*
X23621Y140681D01*
X23522Y140711D01*
X23502Y140710D01*
X23483Y140715D01*
X23380Y140707D01*
X23277Y140705D01*
X23258Y140698D01*
X23238Y140696D01*
X23143Y140656D01*
X23128Y140650D01*
X18729Y140650D01*
X18720Y140656D01*
X18620Y140681D01*
X18521Y140711D01*
X18501Y140711D01*
X18482Y140716D01*
X18378Y140708D01*
X18275Y140705D01*
X18256Y140698D01*
X18236Y140697D01*
X18142Y140656D01*
X18125Y140650D01*
X13726Y140650D01*
X13719Y140655D01*
X13618Y140681D01*
X13519Y140711D01*
X13499Y140710D01*
X13480Y140715D01*
X13377Y140707D01*
X13274Y140705D01*
X13255Y140698D01*
X13235Y140696D01*
X13140Y140656D01*
X13125Y140650D01*
X8725Y140650D01*
X8718Y140655D01*
X8617Y140681D01*
X8518Y140711D01*
X8498Y140710D01*
X8479Y140715D01*
X8376Y140707D01*
X8273Y140705D01*
X8254Y140698D01*
X8234Y140696D01*
X8139Y140656D01*
X8124Y140650D01*
X3724Y140650D01*
X3717Y140655D01*
X3616Y140681D01*
X3517Y140711D01*
X3497Y140710D01*
X3478Y140715D01*
X3375Y140707D01*
X3272Y140705D01*
X3253Y140698D01*
X3233Y140696D01*
X3138Y140656D01*
X3123Y140650D01*
X-1276Y140650D01*
X-1285Y140656D01*
X-1385Y140681D01*
X-1484Y140711D01*
X-1504Y140711D01*
X-1523Y140716D01*
X-1627Y140708D01*
X-1730Y140705D01*
X-1749Y140698D01*
X-1769Y140697D01*
X-1863Y140656D01*
X-1880Y140650D01*
X-6279Y140650D01*
X-6286Y140655D01*
X-6387Y140681D01*
X-6486Y140711D01*
X-6506Y140710D01*
X-6525Y140715D01*
X-6628Y140707D01*
X-6731Y140705D01*
X-6750Y140698D01*
X-6770Y140696D01*
X-6865Y140656D01*
X-6880Y140650D01*
X-11280Y140650D01*
X-11287Y140655D01*
X-11388Y140681D01*
X-11487Y140711D01*
X-11507Y140710D01*
X-11526Y140715D01*
X-11629Y140707D01*
X-11732Y140705D01*
X-11751Y140698D01*
X-11771Y140696D01*
X-11866Y140656D01*
X-11881Y140650D01*
X-16281Y140650D01*
X-16288Y140655D01*
X-16389Y140681D01*
X-16488Y140711D01*
X-16508Y140710D01*
X-16527Y140715D01*
X-16630Y140707D01*
X-16733Y140705D01*
X-16752Y140698D01*
X-16772Y140696D01*
X-16867Y140656D01*
X-16882Y140650D01*
X-21281Y140650D01*
X-21290Y140656D01*
X-21390Y140681D01*
X-21489Y140711D01*
X-21509Y140711D01*
X-21528Y140716D01*
X-21632Y140708D01*
X-21735Y140705D01*
X-21754Y140698D01*
X-21774Y140697D01*
X-21868Y140656D01*
X-21885Y140650D01*
X-26284Y140650D01*
X-26291Y140655D01*
X-26392Y140680D01*
X-26490Y140711D01*
X-26510Y140710D01*
X-26530Y140715D01*
X-26633Y140707D01*
X-26736Y140705D01*
X-26755Y140698D01*
X-26775Y140696D01*
X-26870Y140656D01*
X-26885Y140650D01*
X-30352Y140650D01*
X-30371Y140647D01*
X-30391Y140649D01*
X-30492Y140627D01*
X-30594Y140611D01*
X-30612Y140601D01*
X-30631Y140597D01*
X-30720Y140544D01*
X-30812Y140495D01*
X-30825Y140481D01*
X-30842Y140471D01*
X-30910Y140392D01*
X-30981Y140317D01*
X-30989Y140299D01*
X-31002Y140284D01*
X-31041Y140188D01*
X-31085Y140094D01*
X-31087Y140074D01*
X-31094Y140056D01*
X-31113Y139889D01*
X-31113Y136442D01*
X-31118Y136434D01*
X-31143Y136334D01*
X-31173Y136235D01*
X-31173Y136215D01*
X-31178Y136196D01*
X-31170Y136092D01*
X-31167Y135989D01*
X-31160Y135970D01*
X-31159Y135950D01*
X-31118Y135856D01*
X-31113Y135841D01*
X-31113Y131441D01*
X-31118Y131433D01*
X-31144Y131332D01*
X-31174Y131233D01*
X-31173Y131213D01*
X-31178Y131194D01*
X-31170Y131091D01*
X-31168Y130988D01*
X-31161Y130969D01*
X-31159Y130949D01*
X-31119Y130854D01*
X-31113Y130838D01*
X-31113Y126439D01*
X-31118Y126431D01*
X-31143Y126331D01*
X-31173Y126232D01*
X-31173Y126212D01*
X-31178Y126193D01*
X-31170Y126089D01*
X-31167Y125986D01*
X-31160Y125967D01*
X-31159Y125947D01*
X-31118Y125853D01*
X-31113Y125838D01*
X-31113Y121438D01*
X-31118Y121430D01*
X-31143Y121329D01*
X-31173Y121231D01*
X-31173Y121211D01*
X-31178Y121192D01*
X-31170Y121088D01*
X-31167Y120985D01*
X-31160Y120966D01*
X-31159Y120946D01*
X-31118Y120852D01*
X-31113Y120837D01*
X-31113Y116437D01*
X-31118Y116429D01*
X-31143Y116329D01*
X-31173Y116230D01*
X-31173Y116210D01*
X-31178Y116191D01*
X-31170Y116087D01*
X-31167Y115984D01*
X-31160Y115965D01*
X-31159Y115945D01*
X-31118Y115851D01*
X-31113Y115836D01*
X-31113Y111509D01*
X-32006Y110615D01*
X-33771Y110615D01*
X-33861Y110601D01*
X-33952Y110594D01*
X-33982Y110581D01*
X-34004Y110577D01*
X-49239Y110577D01*
X-51039Y112377D01*
X-51113Y112430D01*
X-51182Y112490D01*
X-51212Y112502D01*
X-51239Y112521D01*
X-51326Y112548D01*
X-51410Y112582D01*
X-51451Y112586D01*
X-51474Y112593D01*
X-51506Y112592D01*
X-51577Y112600D01*
X-73219Y112600D01*
X-73246Y112627D01*
X-73262Y112639D01*
X-73274Y112654D01*
X-73362Y112710D01*
X-73446Y112771D01*
X-73465Y112776D01*
X-73481Y112787D01*
X-73582Y112813D01*
X-73681Y112843D01*
X-73701Y112842D01*
X-73720Y112847D01*
X-73823Y112839D01*
X-73927Y112837D01*
X-73945Y112830D01*
X-73965Y112828D01*
X-74060Y112788D01*
X-74158Y112752D01*
X-74173Y112740D01*
X-74191Y112732D01*
X-74322Y112627D01*
X-74382Y112567D01*
X-78752Y112567D01*
X-81211Y115026D01*
X-81227Y115038D01*
X-81239Y115053D01*
X-81327Y115109D01*
X-81410Y115170D01*
X-81429Y115176D01*
X-81446Y115186D01*
X-81547Y115212D01*
X-81646Y115242D01*
X-81665Y115242D01*
X-81685Y115246D01*
X-81788Y115238D01*
X-81891Y115236D01*
X-81910Y115229D01*
X-81930Y115227D01*
X-82025Y115187D01*
X-82122Y115151D01*
X-82138Y115139D01*
X-82156Y115131D01*
X-82287Y115026D01*
X-99978Y97336D01*
X-100019Y97278D01*
X-100069Y97226D01*
X-100091Y97178D01*
X-100121Y97136D01*
X-100142Y97068D01*
X-100172Y97003D01*
X-100178Y96951D01*
X-100194Y96901D01*
X-100192Y96829D01*
X-100200Y96758D01*
X-100189Y96707D01*
X-100187Y96655D01*
X-100163Y96588D01*
X-100147Y96518D01*
X-100121Y96473D01*
X-100103Y96424D01*
X-100058Y96368D01*
X-100021Y96307D01*
X-99982Y96273D01*
X-99949Y96232D01*
X-99889Y96193D01*
X-99834Y96147D01*
X-99786Y96127D01*
X-99742Y96099D01*
X-99673Y96082D01*
X-99606Y96055D01*
X-99535Y96047D01*
X-99504Y96039D01*
X-99480Y96041D01*
X-99439Y96036D01*
X-98542Y96036D01*
X-97855Y95349D01*
X-97781Y95296D01*
X-97712Y95236D01*
X-97681Y95224D01*
X-97655Y95205D01*
X-97568Y95178D01*
X-97483Y95144D01*
X-97442Y95140D01*
X-97420Y95133D01*
X-97388Y95134D01*
X-97317Y95126D01*
X-51291Y95126D01*
X-51201Y95140D01*
X-51110Y95148D01*
X-51080Y95160D01*
X-51048Y95165D01*
X-50967Y95208D01*
X-50883Y95244D01*
X-50851Y95270D01*
X-50831Y95281D01*
X-50808Y95304D01*
X-50752Y95349D01*
X-49199Y96902D01*
X-49146Y96976D01*
X-49086Y97046D01*
X-49074Y97076D01*
X-49055Y97102D01*
X-49028Y97189D01*
X-48994Y97274D01*
X-48990Y97315D01*
X-48983Y97337D01*
X-48984Y97369D01*
X-48976Y97441D01*
X-48976Y97892D01*
X-40196Y106672D01*
X-33987Y106672D01*
X-33938Y106652D01*
X-33897Y106648D01*
X-33875Y106641D01*
X-33843Y106642D01*
X-33771Y106634D01*
X-32006Y106634D01*
X-31113Y105740D01*
X-31113Y101433D01*
X-31118Y101425D01*
X-31143Y101325D01*
X-31173Y101226D01*
X-31173Y101206D01*
X-31178Y101187D01*
X-31170Y101083D01*
X-31167Y100980D01*
X-31160Y100961D01*
X-31159Y100941D01*
X-31118Y100847D01*
X-31113Y100832D01*
X-31113Y96432D01*
X-31118Y96424D01*
X-31143Y96324D01*
X-31173Y96225D01*
X-31173Y96205D01*
X-31178Y96186D01*
X-31170Y96082D01*
X-31167Y95979D01*
X-31160Y95960D01*
X-31159Y95940D01*
X-31118Y95846D01*
X-31113Y95831D01*
X-31113Y91431D01*
X-31118Y91423D01*
X-31144Y91322D01*
X-31174Y91223D01*
X-31173Y91203D01*
X-31178Y91184D01*
X-31170Y91081D01*
X-31168Y90978D01*
X-31161Y90959D01*
X-31159Y90939D01*
X-31119Y90844D01*
X-31113Y90828D01*
X-31113Y86429D01*
X-31118Y86421D01*
X-31143Y86321D01*
X-31173Y86222D01*
X-31173Y86202D01*
X-31178Y86183D01*
X-31170Y86079D01*
X-31167Y85976D01*
X-31160Y85957D01*
X-31159Y85937D01*
X-31118Y85843D01*
X-31113Y85828D01*
X-31113Y82361D01*
X-31110Y82341D01*
X-31112Y82322D01*
X-31090Y82220D01*
X-31073Y82118D01*
X-31064Y82101D01*
X-31059Y82081D01*
X-31006Y81992D01*
X-30958Y81901D01*
X-30944Y81887D01*
X-30933Y81870D01*
X-30855Y81803D01*
X-30780Y81731D01*
X-30762Y81723D01*
X-30746Y81710D01*
X-30650Y81671D01*
X-30557Y81628D01*
X-30537Y81626D01*
X-30518Y81618D01*
X-30352Y81600D01*
X-26904Y81600D01*
X-26897Y81595D01*
X-26796Y81569D01*
X-26697Y81539D01*
X-26677Y81540D01*
X-26658Y81535D01*
X-26555Y81543D01*
X-26452Y81545D01*
X-26433Y81552D01*
X-26413Y81554D01*
X-26318Y81594D01*
X-26303Y81600D01*
X-21904Y81600D01*
X-21895Y81594D01*
X-21795Y81569D01*
X-21696Y81539D01*
X-21676Y81539D01*
X-21657Y81534D01*
X-21553Y81542D01*
X-21450Y81545D01*
X-21431Y81552D01*
X-21411Y81553D01*
X-21317Y81594D01*
X-21300Y81600D01*
X-16901Y81600D01*
X-16894Y81595D01*
X-16793Y81569D01*
X-16694Y81539D01*
X-16674Y81540D01*
X-16655Y81535D01*
X-16552Y81543D01*
X-16449Y81545D01*
X-16430Y81552D01*
X-16410Y81554D01*
X-16315Y81594D01*
X-16300Y81600D01*
X-11900Y81600D01*
X-11893Y81595D01*
X-11792Y81569D01*
X-11693Y81539D01*
X-11673Y81540D01*
X-11654Y81535D01*
X-11551Y81543D01*
X-11448Y81545D01*
X-11429Y81552D01*
X-11409Y81554D01*
X-11314Y81594D01*
X-11299Y81600D01*
X-6899Y81600D01*
X-6892Y81595D01*
X-6791Y81569D01*
X-6692Y81539D01*
X-6672Y81540D01*
X-6653Y81535D01*
X-6550Y81543D01*
X-6447Y81545D01*
X-6428Y81552D01*
X-6408Y81554D01*
X-6313Y81594D01*
X-6298Y81600D01*
X-1899Y81600D01*
X-1890Y81594D01*
X-1790Y81569D01*
X-1691Y81539D01*
X-1671Y81539D01*
X-1652Y81534D01*
X-1548Y81542D01*
X-1445Y81545D01*
X-1426Y81552D01*
X-1406Y81553D01*
X-1312Y81594D01*
X-1295Y81600D01*
X3104Y81600D01*
X3111Y81595D01*
X3212Y81569D01*
X3311Y81539D01*
X3331Y81540D01*
X3350Y81535D01*
X3453Y81543D01*
X3556Y81545D01*
X3575Y81552D01*
X3595Y81554D01*
X3690Y81594D01*
X3705Y81600D01*
X8105Y81600D01*
X8112Y81595D01*
X8213Y81569D01*
X8312Y81539D01*
X8332Y81540D01*
X8351Y81535D01*
X8454Y81543D01*
X8557Y81545D01*
X8576Y81552D01*
X8596Y81554D01*
X8691Y81594D01*
X8706Y81600D01*
X13106Y81600D01*
X13113Y81595D01*
X13214Y81569D01*
X13313Y81539D01*
X13333Y81540D01*
X13352Y81535D01*
X13455Y81543D01*
X13558Y81545D01*
X13577Y81552D01*
X13597Y81554D01*
X13692Y81594D01*
X13707Y81600D01*
X18106Y81600D01*
X18115Y81594D01*
X18215Y81569D01*
X18314Y81539D01*
X18334Y81539D01*
X18353Y81534D01*
X18457Y81542D01*
G37*
G36*
X131941Y196792D02*
X131941Y196792D01*
X131984Y196791D01*
X135977Y197392D01*
X136007Y197403D01*
X136050Y197408D01*
X139909Y198597D01*
X139937Y198612D01*
X139978Y198624D01*
X143616Y200375D01*
X143638Y200392D01*
X143664Y200401D01*
X143717Y200451D01*
X143775Y200495D01*
X143788Y200519D01*
X143808Y200538D01*
X143838Y200604D01*
X143874Y200668D01*
X143877Y200695D01*
X143888Y200720D01*
X143889Y200793D01*
X143898Y200865D01*
X143890Y200891D01*
X143890Y200919D01*
X143854Y201017D01*
X143842Y201056D01*
X143836Y201064D01*
X143832Y201075D01*
X116832Y247875D01*
X116814Y247895D01*
X116803Y247920D01*
X116749Y247969D01*
X116701Y248024D01*
X116676Y248035D01*
X116656Y248054D01*
X116587Y248078D01*
X116521Y248109D01*
X116494Y248111D01*
X116469Y248120D01*
X116396Y248115D01*
X116323Y248118D01*
X116297Y248109D01*
X116270Y248107D01*
X116174Y248063D01*
X116136Y248049D01*
X116129Y248042D01*
X116119Y248038D01*
X112782Y245764D01*
X112760Y245741D01*
X112724Y245718D01*
X109763Y242972D01*
X109744Y242946D01*
X109712Y242918D01*
X107194Y239762D01*
X107179Y239733D01*
X107152Y239700D01*
X105132Y236204D01*
X105122Y236174D01*
X105099Y236137D01*
X103623Y232379D01*
X103618Y232347D01*
X103601Y232307D01*
X102701Y228371D01*
X102701Y228339D01*
X102690Y228297D01*
X102387Y224271D01*
X102390Y224248D01*
X102387Y224228D01*
X102389Y224218D01*
X102387Y224197D01*
X102688Y220170D01*
X102696Y220139D01*
X102699Y220096D01*
X103596Y216160D01*
X103609Y216131D01*
X103618Y216088D01*
X105092Y212329D01*
X105109Y212302D01*
X105124Y212262D01*
X107142Y208765D01*
X107163Y208741D01*
X107184Y208703D01*
X109700Y205545D01*
X109725Y205525D01*
X109751Y205491D01*
X112710Y202743D01*
X112737Y202727D01*
X112768Y202697D01*
X116104Y200421D01*
X116133Y200409D01*
X116168Y200384D01*
X119806Y198631D01*
X119836Y198623D01*
X119875Y198604D01*
X123733Y197412D01*
X123765Y197409D01*
X123806Y197396D01*
X127798Y196793D01*
X127830Y196794D01*
X127872Y196787D01*
X131910Y196786D01*
X131941Y196792D01*
G37*
G36*
X-127872Y196787D02*
X-127872Y196787D01*
X-127841Y196793D01*
X-127798Y196793D01*
X-123806Y197396D01*
X-123776Y197407D01*
X-123733Y197412D01*
X-119875Y198604D01*
X-119847Y198619D01*
X-119806Y198631D01*
X-116168Y200384D01*
X-116143Y200403D01*
X-116104Y200421D01*
X-112768Y202697D01*
X-112746Y202720D01*
X-112710Y202743D01*
X-109751Y205491D01*
X-109732Y205516D01*
X-109700Y205545D01*
X-107184Y208703D01*
X-107169Y208731D01*
X-107142Y208765D01*
X-105124Y212262D01*
X-105114Y212292D01*
X-105092Y212329D01*
X-103618Y216088D01*
X-103612Y216120D01*
X-103596Y216160D01*
X-102699Y220096D01*
X-102698Y220128D01*
X-102688Y220170D01*
X-102387Y224197D01*
X-102391Y224228D01*
X-102390Y224244D01*
X-102387Y224261D01*
X-102388Y224265D01*
X-102387Y224271D01*
X-102690Y228297D01*
X-102699Y228328D01*
X-102701Y228371D01*
X-103601Y232307D01*
X-103614Y232336D01*
X-103623Y232379D01*
X-105099Y236137D01*
X-105117Y236164D01*
X-105132Y236204D01*
X-107152Y239700D01*
X-107173Y239724D01*
X-107194Y239762D01*
X-109712Y242918D01*
X-109737Y242938D01*
X-109763Y242972D01*
X-112724Y245718D01*
X-112751Y245734D01*
X-112782Y245764D01*
X-116119Y248038D01*
X-116144Y248048D01*
X-116165Y248065D01*
X-116235Y248086D01*
X-116302Y248115D01*
X-116330Y248115D01*
X-116356Y248122D01*
X-116428Y248114D01*
X-116501Y248114D01*
X-116526Y248103D01*
X-116553Y248100D01*
X-116617Y248064D01*
X-116684Y248036D01*
X-116703Y248016D01*
X-116726Y248003D01*
X-116794Y247922D01*
X-116822Y247892D01*
X-116825Y247883D01*
X-116832Y247875D01*
X-143832Y201075D01*
X-143841Y201049D01*
X-143857Y201026D01*
X-143872Y200955D01*
X-143896Y200886D01*
X-143893Y200859D01*
X-143899Y200832D01*
X-143886Y200761D01*
X-143880Y200688D01*
X-143867Y200663D01*
X-143862Y200637D01*
X-143822Y200576D01*
X-143788Y200511D01*
X-143767Y200494D01*
X-143752Y200471D01*
X-143666Y200410D01*
X-143635Y200385D01*
X-143626Y200382D01*
X-143616Y200375D01*
X-139978Y198624D01*
X-139947Y198617D01*
X-139909Y198597D01*
X-136050Y197408D01*
X-136018Y197405D01*
X-135977Y197392D01*
X-131984Y196791D01*
X-131953Y196793D01*
X-131910Y196786D01*
X-127872Y196787D01*
G37*
G36*
X116428Y50336D02*
X116428Y50336D01*
X116501Y50336D01*
X116526Y50347D01*
X116553Y50350D01*
X116617Y50386D01*
X116684Y50414D01*
X116703Y50434D01*
X116726Y50447D01*
X116794Y50528D01*
X116822Y50558D01*
X116825Y50567D01*
X116832Y50576D01*
X143832Y97376D01*
X143841Y97401D01*
X143857Y97424D01*
X143872Y97495D01*
X143896Y97564D01*
X143893Y97591D01*
X143899Y97618D01*
X143886Y97689D01*
X143880Y97762D01*
X143867Y97787D01*
X143862Y97813D01*
X143822Y97874D01*
X143788Y97939D01*
X143767Y97956D01*
X143752Y97979D01*
X143666Y98040D01*
X143635Y98065D01*
X143626Y98068D01*
X143616Y98075D01*
X139978Y99826D01*
X139947Y99833D01*
X139909Y99853D01*
X136050Y101042D01*
X136018Y101045D01*
X135977Y101058D01*
X131984Y101659D01*
X131953Y101657D01*
X131910Y101664D01*
X127872Y101663D01*
X127841Y101657D01*
X127798Y101657D01*
X123806Y101054D01*
X123776Y101043D01*
X123733Y101038D01*
X119875Y99846D01*
X119847Y99831D01*
X119806Y99819D01*
X116168Y98066D01*
X116143Y98047D01*
X116104Y98029D01*
X112768Y95753D01*
X112746Y95730D01*
X112710Y95707D01*
X109751Y92959D01*
X109732Y92934D01*
X109700Y92905D01*
X107184Y89747D01*
X107169Y89719D01*
X107142Y89685D01*
X105124Y86188D01*
X105114Y86158D01*
X105092Y86121D01*
X103618Y82362D01*
X103612Y82330D01*
X103596Y82290D01*
X102699Y78354D01*
X102698Y78322D01*
X102688Y78280D01*
X102387Y74254D01*
X102391Y74222D01*
X102387Y74179D01*
X102690Y70153D01*
X102699Y70122D01*
X102701Y70079D01*
X103601Y66143D01*
X103614Y66114D01*
X103623Y66071D01*
X105099Y62313D01*
X105117Y62286D01*
X105132Y62246D01*
X107152Y58750D01*
X107173Y58726D01*
X107194Y58688D01*
X109712Y55532D01*
X109737Y55512D01*
X109763Y55478D01*
X112724Y52732D01*
X112751Y52716D01*
X112782Y52686D01*
X116119Y50412D01*
X116144Y50402D01*
X116165Y50385D01*
X116235Y50364D01*
X116302Y50335D01*
X116330Y50336D01*
X116356Y50328D01*
X116428Y50336D01*
G37*
G36*
X-116396Y50335D02*
X-116396Y50335D01*
X-116323Y50332D01*
X-116297Y50341D01*
X-116270Y50343D01*
X-116174Y50387D01*
X-116136Y50401D01*
X-116129Y50408D01*
X-116119Y50412D01*
X-112782Y52686D01*
X-112760Y52709D01*
X-112724Y52732D01*
X-109763Y55478D01*
X-109744Y55504D01*
X-109712Y55532D01*
X-107194Y58688D01*
X-107179Y58717D01*
X-107152Y58750D01*
X-105132Y62246D01*
X-105122Y62276D01*
X-105099Y62313D01*
X-103623Y66071D01*
X-103618Y66103D01*
X-103601Y66143D01*
X-102701Y70079D01*
X-102701Y70111D01*
X-102690Y70153D01*
X-102387Y74179D01*
X-102391Y74210D01*
X-102387Y74254D01*
X-102688Y78280D01*
X-102696Y78311D01*
X-102699Y78354D01*
X-103596Y82290D01*
X-103609Y82319D01*
X-103618Y82362D01*
X-105092Y86121D01*
X-105109Y86148D01*
X-105124Y86188D01*
X-107142Y89685D01*
X-107163Y89709D01*
X-107184Y89747D01*
X-109700Y92905D01*
X-109725Y92925D01*
X-109751Y92959D01*
X-112710Y95707D01*
X-112737Y95723D01*
X-112768Y95753D01*
X-116104Y98029D01*
X-116133Y98041D01*
X-116168Y98066D01*
X-119806Y99819D01*
X-119836Y99827D01*
X-119875Y99846D01*
X-123733Y101038D01*
X-123765Y101041D01*
X-123806Y101054D01*
X-127798Y101657D01*
X-127830Y101656D01*
X-127872Y101663D01*
X-131910Y101664D01*
X-131941Y101658D01*
X-131984Y101659D01*
X-135977Y101058D01*
X-136007Y101047D01*
X-136050Y101042D01*
X-139909Y99853D01*
X-139937Y99838D01*
X-139978Y99826D01*
X-143616Y98075D01*
X-143638Y98058D01*
X-143664Y98049D01*
X-143717Y97999D01*
X-143775Y97955D01*
X-143788Y97931D01*
X-143808Y97912D01*
X-143838Y97846D01*
X-143874Y97782D01*
X-143877Y97755D01*
X-143888Y97730D01*
X-143889Y97657D01*
X-143898Y97585D01*
X-143890Y97559D01*
X-143890Y97531D01*
X-143854Y97433D01*
X-143842Y97394D01*
X-143836Y97386D01*
X-143832Y97376D01*
X-116832Y50576D01*
X-116814Y50555D01*
X-116803Y50530D01*
X-116749Y50481D01*
X-116701Y50427D01*
X-116676Y50415D01*
X-116656Y50396D01*
X-116587Y50372D01*
X-116521Y50341D01*
X-116494Y50340D01*
X-116469Y50330D01*
X-116396Y50335D01*
G37*
G36*
X2049Y271808D02*
X2049Y271808D01*
X2092Y271807D01*
X6082Y272408D01*
X6112Y272419D01*
X6155Y272425D01*
X10011Y273614D01*
X10039Y273630D01*
X10081Y273642D01*
X13717Y275393D01*
X13742Y275412D01*
X13781Y275430D01*
X17115Y277703D01*
X17138Y277726D01*
X17174Y277750D01*
X20132Y280494D01*
X20151Y280520D01*
X20183Y280549D01*
X22699Y283704D01*
X22713Y283732D01*
X22741Y283766D01*
X24759Y287261D01*
X24769Y287291D01*
X24791Y287328D01*
X26265Y291084D01*
X26266Y291091D01*
X26268Y291092D01*
X26272Y291119D01*
X26287Y291156D01*
X27185Y295090D01*
X27186Y295122D01*
X27196Y295164D01*
X27498Y299188D01*
X27494Y299215D01*
X27499Y299242D01*
X27482Y299312D01*
X27473Y299385D01*
X27459Y299409D01*
X27453Y299435D01*
X27410Y299494D01*
X27373Y299557D01*
X27351Y299573D01*
X27335Y299595D01*
X27272Y299632D01*
X27214Y299676D01*
X27187Y299683D01*
X27164Y299697D01*
X27060Y299714D01*
X27021Y299724D01*
X27011Y299722D01*
X27000Y299724D01*
X-27000Y299724D01*
X-27027Y299719D01*
X-27054Y299721D01*
X-27123Y299699D01*
X-27195Y299685D01*
X-27217Y299669D01*
X-27243Y299661D01*
X-27299Y299613D01*
X-27359Y299572D01*
X-27373Y299549D01*
X-27394Y299531D01*
X-27427Y299466D01*
X-27466Y299405D01*
X-27470Y299378D01*
X-27482Y299353D01*
X-27492Y299249D01*
X-27499Y299208D01*
X-27497Y299199D01*
X-27498Y299188D01*
X-27196Y295164D01*
X-27188Y295133D01*
X-27185Y295090D01*
X-26287Y291156D01*
X-26274Y291127D01*
X-26265Y291084D01*
X-24791Y287328D01*
X-24774Y287301D01*
X-24759Y287261D01*
X-22741Y283766D01*
X-22720Y283742D01*
X-22699Y283704D01*
X-20183Y280549D01*
X-20158Y280529D01*
X-20132Y280494D01*
X-17174Y277750D01*
X-17147Y277733D01*
X-17115Y277703D01*
X-13781Y275430D01*
X-13752Y275417D01*
X-13717Y275393D01*
X-10081Y273642D01*
X-10050Y273634D01*
X-10011Y273614D01*
X-6155Y272425D01*
X-6124Y272422D01*
X-6082Y272408D01*
X-2092Y271807D01*
X-2060Y271808D01*
X-2018Y271801D01*
X2018Y271801D01*
X2049Y271808D01*
G37*
G36*
X27027Y-1269D02*
X27027Y-1269D01*
X27054Y-1271D01*
X27123Y-1249D01*
X27195Y-1235D01*
X27217Y-1219D01*
X27243Y-1211D01*
X27299Y-1163D01*
X27359Y-1122D01*
X27373Y-1099D01*
X27394Y-1081D01*
X27427Y-1016D01*
X27466Y-955D01*
X27470Y-928D01*
X27482Y-903D01*
X27492Y-799D01*
X27499Y-758D01*
X27497Y-749D01*
X27498Y-738D01*
X27196Y3286D01*
X27188Y3317D01*
X27185Y3360D01*
X26287Y7294D01*
X26274Y7323D01*
X26265Y7366D01*
X24791Y11122D01*
X24774Y11149D01*
X24759Y11190D01*
X22741Y14684D01*
X22720Y14708D01*
X22699Y14746D01*
X20183Y17901D01*
X20158Y17921D01*
X20132Y17956D01*
X17174Y20700D01*
X17147Y20717D01*
X17115Y20747D01*
X13781Y23020D01*
X13752Y23033D01*
X13717Y23058D01*
X10081Y24808D01*
X10050Y24816D01*
X10011Y24836D01*
X6155Y26025D01*
X6124Y26028D01*
X6082Y26042D01*
X2092Y26643D01*
X2060Y26642D01*
X2018Y26649D01*
X-2018Y26649D01*
X-2049Y26642D01*
X-2092Y26643D01*
X-6082Y26042D01*
X-6112Y26031D01*
X-6155Y26025D01*
X-10011Y24836D01*
X-10039Y24820D01*
X-10081Y24808D01*
X-13717Y23058D01*
X-13742Y23038D01*
X-13781Y23020D01*
X-17115Y20747D01*
X-17138Y20724D01*
X-17174Y20700D01*
X-20132Y17956D01*
X-20151Y17930D01*
X-20183Y17901D01*
X-22699Y14746D01*
X-22713Y14718D01*
X-22741Y14684D01*
X-24759Y11190D01*
X-24769Y11159D01*
X-24791Y11122D01*
X-26265Y7366D01*
X-26271Y7334D01*
X-26287Y7294D01*
X-27185Y3360D01*
X-27186Y3328D01*
X-27196Y3286D01*
X-27498Y-738D01*
X-27494Y-765D01*
X-27499Y-792D01*
X-27482Y-862D01*
X-27473Y-935D01*
X-27459Y-959D01*
X-27453Y-985D01*
X-27410Y-1044D01*
X-27373Y-1107D01*
X-27351Y-1123D01*
X-27335Y-1145D01*
X-27272Y-1182D01*
X-27214Y-1226D01*
X-27187Y-1233D01*
X-27164Y-1247D01*
X-27060Y-1264D01*
X-27021Y-1274D01*
X-27011Y-1272D01*
X-27000Y-1274D01*
X27000Y-1274D01*
X27027Y-1269D01*
G37*
G36*
X39675Y112350D02*
X39675Y112350D01*
X39749Y112363D01*
X39760Y112369D01*
X39769Y112372D01*
X39798Y112396D01*
X39870Y112444D01*
X40767Y113341D01*
X40807Y113406D01*
X40851Y113468D01*
X40853Y113480D01*
X40858Y113488D01*
X40862Y113525D01*
X40878Y113610D01*
X40878Y118125D01*
X44864Y122111D01*
X50800Y122111D01*
X50850Y122123D01*
X50901Y122125D01*
X50933Y122142D01*
X50969Y122151D01*
X51008Y122183D01*
X51053Y122208D01*
X51074Y122238D01*
X51102Y122261D01*
X51123Y122308D01*
X51153Y122349D01*
X51161Y122391D01*
X51173Y122419D01*
X51172Y122450D01*
X51180Y122491D01*
X51180Y184150D01*
X51169Y184200D01*
X51167Y184251D01*
X51149Y184283D01*
X51141Y184319D01*
X51108Y184358D01*
X51084Y184403D01*
X51054Y184424D01*
X51031Y184452D01*
X50984Y184473D01*
X50942Y184503D01*
X50900Y184511D01*
X50872Y184523D01*
X50842Y184522D01*
X50800Y184530D01*
X38100Y184530D01*
X38050Y184519D01*
X37999Y184517D01*
X37967Y184499D01*
X37931Y184491D01*
X37892Y184458D01*
X37847Y184434D01*
X37826Y184404D01*
X37798Y184381D01*
X37777Y184334D01*
X37747Y184292D01*
X37739Y184250D01*
X37727Y184222D01*
X37728Y184192D01*
X37720Y184150D01*
X37720Y127158D01*
X36355Y125793D01*
X35926Y125793D01*
X35852Y125775D01*
X35777Y125762D01*
X35767Y125756D01*
X35757Y125753D01*
X35728Y125730D01*
X35657Y125681D01*
X35594Y125618D01*
X30163Y125618D01*
X30113Y125607D01*
X30062Y125605D01*
X30030Y125587D01*
X29994Y125579D01*
X29954Y125546D01*
X29910Y125522D01*
X29889Y125492D01*
X29860Y125469D01*
X29839Y125422D01*
X29810Y125380D01*
X29802Y125339D01*
X29789Y125311D01*
X29790Y125280D01*
X29782Y125238D01*
X29782Y112713D01*
X29794Y112663D01*
X29796Y112612D01*
X29813Y112580D01*
X29822Y112544D01*
X29854Y112504D01*
X29879Y112460D01*
X29909Y112439D01*
X29932Y112410D01*
X29979Y112389D01*
X30020Y112360D01*
X30062Y112352D01*
X30090Y112339D01*
X30121Y112340D01*
X30163Y112332D01*
X39601Y112332D01*
X39675Y112350D01*
G37*
G36*
X68337Y126637D02*
X68337Y126637D01*
X68411Y126650D01*
X68421Y126657D01*
X68431Y126659D01*
X68460Y126683D01*
X68531Y126731D01*
X70119Y128319D01*
X70159Y128383D01*
X70203Y128445D01*
X70205Y128457D01*
X70210Y128466D01*
X70214Y128503D01*
X70230Y128588D01*
X70230Y184150D01*
X70219Y184200D01*
X70217Y184251D01*
X70199Y184283D01*
X70191Y184319D01*
X70158Y184358D01*
X70134Y184403D01*
X70104Y184424D01*
X70081Y184452D01*
X70034Y184473D01*
X69992Y184503D01*
X69950Y184511D01*
X69922Y184523D01*
X69892Y184522D01*
X69850Y184530D01*
X58738Y184530D01*
X58664Y184513D01*
X58589Y184500D01*
X58579Y184493D01*
X58569Y184491D01*
X58540Y184467D01*
X58469Y184419D01*
X56881Y182831D01*
X56841Y182767D01*
X56797Y182705D01*
X56795Y182693D01*
X56790Y182684D01*
X56786Y182647D01*
X56770Y182563D01*
X56770Y127000D01*
X56781Y126950D01*
X56783Y126899D01*
X56801Y126867D01*
X56809Y126831D01*
X56842Y126792D01*
X56866Y126747D01*
X56896Y126726D01*
X56919Y126698D01*
X56966Y126677D01*
X57008Y126647D01*
X57050Y126639D01*
X57078Y126627D01*
X57108Y126628D01*
X57150Y126620D01*
X68263Y126620D01*
X68337Y126637D01*
G37*
%LPC*%
G36*
X62318Y247235D02*
X62318Y247235D01*
X57833Y249092D01*
X54401Y252524D01*
X52544Y257009D01*
X52544Y261862D01*
X54401Y266347D01*
X57833Y269779D01*
X62318Y271636D01*
X67171Y271636D01*
X71656Y269779D01*
X75088Y266347D01*
X76945Y261862D01*
X76945Y257009D01*
X75088Y252524D01*
X71656Y249092D01*
X67171Y247235D01*
X62318Y247235D01*
G37*
%LPD*%
%LPC*%
G36*
X-64555Y28033D02*
X-64555Y28033D01*
X-69040Y29890D01*
X-72472Y33322D01*
X-74329Y37807D01*
X-74329Y42660D01*
X-72472Y47145D01*
X-69040Y50577D01*
X-64555Y52434D01*
X-59702Y52434D01*
X-55217Y50577D01*
X-51785Y47145D01*
X-49928Y42660D01*
X-49928Y37807D01*
X-51785Y33322D01*
X-55217Y29890D01*
X-59702Y28033D01*
X-64555Y28033D01*
G37*
%LPD*%
%LPC*%
G36*
X-95481Y168655D02*
X-95481Y168655D01*
X-98843Y170047D01*
X-101415Y172620D01*
X-102807Y175981D01*
X-102807Y179619D01*
X-101415Y182980D01*
X-98843Y185553D01*
X-95481Y186945D01*
X-91844Y186945D01*
X-88482Y185553D01*
X-85910Y182980D01*
X-84518Y179619D01*
X-84518Y175981D01*
X-85910Y172620D01*
X-88482Y170047D01*
X-91844Y168655D01*
X-95481Y168655D01*
G37*
%LPD*%
D10*
X44450Y178825D03*
X44450Y195825D03*
X65088Y195825D03*
X65088Y178825D03*
D11*
X82600Y292325D03*
X165200Y149225D03*
X82600Y6125D03*
X-82600Y6125D03*
X-165200Y149225D03*
X-82600Y292325D03*
X123900Y220725D03*
X123900Y77725D03*
X0Y6125D03*
X-123900Y77725D03*
X-123900Y220725D03*
X0Y292325D03*
D12*
X53975Y89600D03*
X53975Y101600D03*
X53975Y113600D03*
D13*
X32213Y138632D03*
X32213Y133631D03*
X32213Y128629D03*
X32213Y123628D03*
X32213Y118627D03*
X32213Y113626D03*
X32213Y108624D03*
X32213Y103623D03*
X32213Y98622D03*
X32213Y93621D03*
X32213Y88619D03*
X32213Y83618D03*
D14*
X25920Y77325D03*
X20919Y77325D03*
X15917Y77325D03*
X10916Y77325D03*
X5915Y77325D03*
X914Y77325D03*
X-4089Y77325D03*
X-9090Y77325D03*
X-14091Y77325D03*
X-19092Y77325D03*
X-24094Y77325D03*
X-29095Y77325D03*
D13*
X-35388Y83618D03*
X-35388Y88619D03*
X-35388Y93621D03*
X-35388Y98622D03*
X-35388Y103623D03*
X-35388Y108624D03*
X-35388Y113626D03*
X-35388Y118627D03*
X-35388Y123628D03*
X-35388Y128629D03*
X-35388Y133631D03*
X-35388Y138632D03*
D14*
X-29095Y144925D03*
X-24094Y144925D03*
X-19092Y144925D03*
X-14091Y144925D03*
X-9090Y144925D03*
X-4089Y144925D03*
X914Y144925D03*
X5915Y144925D03*
X10916Y144925D03*
X15917Y144925D03*
X20919Y144925D03*
X25920Y144925D03*
D15*
X-1588Y111125D03*
D16*
X100013Y134938D03*
D10*
X-49213Y160900D03*
X-49213Y143900D03*
X45475Y141288D03*
X62475Y141288D03*
X45475Y131763D03*
X62475Y131763D03*
D17*
X-53975Y119625D03*
X-53975Y102625D03*
D18*
X44475Y166688D03*
X63475Y166688D03*
X44475Y152400D03*
X63475Y152400D03*
D19*
X-65088Y120625D03*
X-65088Y101625D03*
D20*
X-93663Y177800D03*
X-93663Y152400D03*
X-93663Y127000D03*
D21*
X-47976Y108624D02*
X-35388Y108624D01*
X-47976Y108624D02*
X-53975Y102625D01*
X-64088Y102625D02*
X-65088Y101625D01*
X-64088Y102625D02*
X-53975Y102625D01*
D22*
X98425Y185738D03*
X107950Y193675D03*
X90488Y214313D03*
X73025Y204788D03*
X26988Y276225D03*
X39688Y265113D03*
X19050Y250825D03*
X6350Y263525D03*
X-50800Y214313D03*
X20638Y215900D03*
X9525Y95250D03*
X95250Y61913D03*
X96838Y39688D03*
X-11113Y66675D03*
X-34925Y66675D03*
X-23813Y88900D03*
X-11113Y173038D03*
X12700Y173038D03*
X-12700Y128588D03*
X11113Y127000D03*
X-50800Y227013D03*
X-55563Y188913D03*
X-65088Y196850D03*
X-23813Y106363D03*
X-65088Y107950D03*
X50800Y65088D03*
X-69850Y77788D03*
D21*
X-47976Y113626D02*
X-53975Y119625D01*
X-47976Y113626D02*
X-35388Y113626D01*
X-53975Y119625D02*
X-64088Y119625D01*
X-65088Y120625D01*
D22*
X46038Y195263D03*
D21*
X45475Y195825D02*
X44450Y195825D01*
X45475Y195825D02*
X46038Y195263D01*
X-65088Y120625D02*
X-73784Y120625D01*
X-76567Y117842D01*
D22*
X-76567Y117842D03*
D23*
X-30638Y8675D03*
D21*
X-19092Y23397D02*
X-19092Y77325D01*
X-19092Y23397D02*
X-30638Y11850D01*
X-30638Y8675D01*
X-35388Y103623D02*
X-38933Y103623D01*
X-45927Y96629D01*
X-45927Y95863D01*
X-49713Y92077D01*
X-99837Y92077D02*
X-100427Y91488D01*
D23*
X-100427Y91488D03*
D21*
X-99837Y92077D02*
X-49713Y92077D01*
X-24094Y77325D02*
X-24094Y25394D01*
X-36710Y12778D02*
X-36710Y4960D01*
X-33338Y1588D01*
X-4538Y1588D01*
X0Y6125D01*
X-24094Y25394D02*
X-36710Y12778D01*
X-35388Y118627D02*
X-38933Y118627D01*
X-45927Y125621D01*
X-45927Y126388D01*
X-50694Y131155D01*
X-85161Y118863D02*
X-85161Y116465D01*
X-123900Y77725D01*
X-85161Y118863D02*
X-72869Y131155D01*
X-50694Y131155D01*
D23*
X-96428Y226797D03*
D21*
X-74839Y226797D02*
X-9090Y161048D01*
X-74839Y226797D02*
X-96428Y226797D01*
X-9090Y161048D02*
X-9090Y144925D01*
X-14091Y144925D02*
X-14091Y159213D01*
X-75603Y220725D01*
X-123900Y220725D01*
X32213Y108624D02*
X40362Y108624D01*
X43927Y112190D02*
X43927Y116862D01*
X46127Y119063D01*
X55563Y119063D01*
X62475Y125975D01*
X62475Y131763D01*
X43927Y112190D02*
X40362Y108624D01*
X25920Y75738D02*
X47098Y54559D01*
X25920Y75738D02*
X25920Y77325D01*
X47098Y54559D02*
X101815Y54559D01*
X103403Y56147D01*
D23*
X103403Y56147D03*
D21*
X28856Y157625D02*
X28856Y254882D01*
X28856Y157625D02*
X20919Y149688D01*
X20919Y144925D01*
X28856Y254882D02*
X15112Y268626D01*
D23*
X15112Y268626D03*
D21*
X20919Y77325D02*
X20919Y72922D01*
X44628Y49213D01*
X106363Y49213D01*
X122356Y65206D01*
X123900Y67880D01*
X123900Y77725D01*
X33857Y156038D02*
X25920Y148100D01*
X25920Y144925D01*
X33857Y156038D02*
X33857Y258468D01*
X0Y292325D01*
X32213Y88619D02*
X36497Y88619D01*
X43739Y81377D01*
X63825Y81377D01*
X84138Y101690D01*
X84138Y192248D02*
X101336Y209447D01*
D23*
X101336Y209447D03*
D21*
X84138Y192248D02*
X84138Y101690D01*
X103362Y203375D02*
X103851Y203375D01*
X121202Y220725D02*
X123900Y220725D01*
X121202Y220725D02*
X103851Y203375D01*
X88710Y99796D02*
X65719Y76805D01*
X88710Y99796D02*
X88710Y188722D01*
X65719Y76805D02*
X41846Y76805D01*
X35033Y83618D02*
X32213Y83618D01*
X35033Y83618D02*
X41846Y76805D01*
X88710Y188722D02*
X103362Y203375D01*
D22*
X-32258Y158242D03*
D21*
X-29095Y155078D01*
X-29095Y144925D01*
D23*
X22225Y190500D03*
D21*
X15917Y152442D02*
X15917Y144925D01*
X22225Y158750D02*
X22225Y190500D01*
X22225Y158750D02*
X15917Y152442D01*
D23*
X7938Y68263D03*
D21*
X5915Y70286D01*
X5915Y77325D01*
D24*
X32213Y93621D02*
X39729Y93621D01*
X41275Y92075D01*
D25*
X41275Y92075D03*
D24*
X53024Y89600D02*
X53975Y89600D01*
X53024Y89600D02*
X44002Y98622D01*
X32213Y98622D01*
X52388Y113600D02*
X53975Y113600D01*
X42411Y103623D02*
X32213Y103623D01*
X42411Y103623D02*
X52388Y113600D01*
D26*
X-81482Y140220D02*
X-93663Y152400D01*
X-81482Y140220D02*
X-49213Y140220D01*
X-36975Y140220D02*
X-35388Y138632D01*
X-36975Y140220D02*
X-49213Y140220D01*
X-49213Y143900D01*
X-46500Y133631D02*
X-35388Y133631D01*
X-46500Y133631D02*
X-48088Y135219D01*
X-85444Y135219D01*
X-93663Y127000D01*
D23*
X-55563Y86005D03*
D21*
X-54063Y87505D01*
X-47819Y87505D01*
X-46705Y88619D01*
X-35388Y88619D01*
M02*
