G04 EAGLE Gerber RS-274X export*
G75*
%MOMM*%
%FSLAX34Y34*%
%LPD*%
%INSilkscreen Top*%
%IPPOS*%
%AMOC8*
5,1,8,0,0,1.08239X$1,22.5*%
G01*
%ADD10C,0.101600*%
%ADD11C,0.152400*%
%ADD12R,0.014731X0.014731*%
%ADD13R,0.147319X0.014731*%
%ADD14R,0.265175X0.014731*%
%ADD15R,0.383031X0.014731*%
%ADD16R,0.515619X0.014731*%
%ADD17R,0.633475X0.014731*%
%ADD18R,0.751331X0.014731*%
%ADD19R,0.883919X0.014731*%
%ADD20R,1.001775X0.014731*%
%ADD21R,1.119631X0.014731*%
%ADD22R,1.134363X0.014731*%
%ADD23R,1.149094X0.014731*%
%ADD24R,1.163825X0.014731*%
%ADD25R,1.178556X0.014731*%
%ADD26R,1.193288X0.014731*%
%ADD27R,1.222756X0.014731*%
%ADD28R,1.237488X0.014731*%
%ADD29R,1.266950X0.014731*%
%ADD30R,1.281681X0.014731*%
%ADD31R,1.311144X0.014731*%
%ADD32R,1.325881X0.014731*%
%ADD33R,1.355344X0.014731*%
%ADD34R,1.370075X0.014731*%
%ADD35R,1.384806X0.014731*%
%ADD36R,1.399538X0.014731*%
%ADD37R,1.414275X0.014731*%
%ADD38R,1.443738X0.014731*%
%ADD39R,1.458469X0.014731*%
%ADD40R,1.487931X0.014731*%
%ADD41R,1.502663X0.014731*%
%ADD42R,1.517394X0.014731*%
%ADD43R,1.532125X0.014731*%
%ADD44R,1.546856X0.014731*%
%ADD45R,1.576319X0.014731*%
%ADD46R,1.605788X0.014731*%
%ADD47R,1.620519X0.014731*%
%ADD48R,1.649981X0.014731*%
%ADD49R,1.664713X0.014731*%
%ADD50R,1.694175X0.014731*%
%ADD51R,1.708913X0.014731*%
%ADD52R,1.738375X0.014731*%
%ADD53R,1.753106X0.014731*%
%ADD54R,1.767838X0.014731*%
%ADD55R,1.782569X0.014731*%
%ADD56R,1.797306X0.014731*%
%ADD57R,0.117856X0.014731*%
%ADD58R,1.826769X0.014731*%
%ADD59R,0.235713X0.014731*%
%ADD60R,0.353569X0.014731*%
%ADD61R,1.856231X0.014731*%
%ADD62R,0.486156X0.014731*%
%ADD63R,1.870963X0.014731*%
%ADD64R,0.604013X0.014731*%
%ADD65R,0.721869X0.014731*%
%ADD66R,1.885694X0.014731*%
%ADD67R,0.839719X0.014731*%
%ADD68R,0.972306X0.014731*%
%ADD69R,1.090169X0.014731*%
%ADD70R,1.208025X0.014731*%
%ADD71R,1.252219X0.014731*%
%ADD72R,1.296412X0.014731*%
%ADD73R,1.340612X0.014731*%
%ADD74R,1.826763X0.014731*%
%ADD75R,1.414269X0.014731*%
%ADD76R,1.812031X0.014731*%
%ADD77R,1.429000X0.014731*%
%ADD78R,1.458462X0.014731*%
%ADD79R,1.473200X0.014731*%
%ADD80R,1.723644X0.014731*%
%ADD81R,1.694181X0.014731*%
%ADD82R,1.679450X0.014731*%
%ADD83R,1.561594X0.014731*%
%ADD84R,1.576325X0.014731*%
%ADD85R,1.591056X0.014731*%
%ADD86R,1.635250X0.014731*%
%ADD87R,1.561588X0.014731*%
%ADD88R,1.443731X0.014731*%
%ADD89R,1.797300X0.014731*%
%ADD90R,1.841500X0.014731*%
%ADD91R,1.311150X0.014731*%
%ADD92R,1.296419X0.014731*%
%ADD93R,1.193294X0.014731*%
%ADD94R,0.957575X0.014731*%
%ADD95R,0.589281X0.014731*%
%ADD96R,0.471425X0.014731*%
%ADD97R,0.220975X0.014731*%
%ADD98R,1.812038X0.014731*%
%ADD99R,0.103119X0.014731*%
%ADD100R,0.029463X0.014731*%
%ADD101R,0.162050X0.014731*%
%ADD102R,0.397763X0.014731*%
%ADD103R,0.648206X0.014731*%
%ADD104R,1.679444X0.014731*%
%ADD105R,1.016506X0.014731*%
%ADD106R,1.104900X0.014731*%
%ADD107R,1.222750X0.014731*%
%ADD108R,1.429006X0.014731*%
%ADD109R,1.208019X0.014731*%
%ADD110R,0.987044X0.014731*%
%ADD111R,0.854456X0.014731*%
%ADD112R,0.618744X0.014731*%
%ADD113R,0.500888X0.014731*%
%ADD114R,0.368300X0.014731*%
%ADD115R,0.132587X0.014731*%
%ADD116R,1.664719X0.014731*%
%ADD117R,1.075438X0.014731*%
%ADD118R,0.942844X0.014731*%
%ADD119R,0.707131X0.014731*%
%ADD120R,0.456694X0.014731*%
%ADD121R,0.088388X0.014731*%
%ADD122C,0.127000*%
%ADD123C,0.076200*%
%ADD124C,0.254000*%


D10*
X60828Y278270D02*
X63486Y276408D01*
X63580Y276345D01*
X63676Y276285D01*
X63774Y276228D01*
X63874Y276175D01*
X63976Y276125D01*
X64080Y276079D01*
X64185Y276037D01*
X64291Y275998D01*
X64399Y275963D01*
X64508Y275932D01*
X64618Y275904D01*
X64729Y275881D01*
X64840Y275861D01*
X64952Y275845D01*
X65065Y275833D01*
X65178Y275825D01*
X65291Y275821D01*
X65405Y275821D01*
X65518Y275825D01*
X65631Y275833D01*
X65744Y275845D01*
X65856Y275861D01*
X65967Y275881D01*
X66078Y275904D01*
X66188Y275932D01*
X66297Y275963D01*
X66405Y275998D01*
X66511Y276037D01*
X66616Y276079D01*
X66720Y276125D01*
X66822Y276175D01*
X66922Y276228D01*
X67020Y276285D01*
X67116Y276345D01*
X67210Y276408D01*
X67301Y276475D01*
X67391Y276544D01*
X67478Y276617D01*
X67562Y276693D01*
X67643Y276772D01*
X67722Y276853D01*
X67798Y276937D01*
X67871Y277024D01*
X67940Y277114D01*
X68007Y277205D01*
X68070Y277299D01*
X68130Y277395D01*
X68187Y277493D01*
X68240Y277593D01*
X68290Y277695D01*
X68336Y277799D01*
X68378Y277904D01*
X68417Y278010D01*
X68452Y278118D01*
X68483Y278227D01*
X68511Y278337D01*
X68534Y278448D01*
X68554Y278559D01*
X68570Y278671D01*
X68582Y278784D01*
X68590Y278897D01*
X68594Y279010D01*
X68594Y279124D01*
X68590Y279237D01*
X68582Y279350D01*
X68570Y279463D01*
X68554Y279575D01*
X68534Y279686D01*
X68511Y279797D01*
X68483Y279907D01*
X68452Y280016D01*
X68417Y280124D01*
X68378Y280230D01*
X68336Y280335D01*
X68290Y280439D01*
X68240Y280541D01*
X68187Y280641D01*
X68130Y280739D01*
X68070Y280835D01*
X68007Y280929D01*
X67940Y281020D01*
X67871Y281110D01*
X67798Y281197D01*
X67722Y281281D01*
X67643Y281362D01*
X67562Y281441D01*
X67478Y281517D01*
X67391Y281590D01*
X67302Y281659D01*
X67210Y281726D01*
X70720Y285607D02*
X67529Y287840D01*
X70719Y285607D02*
X70800Y285547D01*
X70879Y285485D01*
X70956Y285419D01*
X71030Y285351D01*
X71101Y285280D01*
X71169Y285206D01*
X71235Y285129D01*
X71297Y285050D01*
X71357Y284969D01*
X71413Y284885D01*
X71466Y284800D01*
X71515Y284712D01*
X71561Y284623D01*
X71604Y284531D01*
X71643Y284438D01*
X71678Y284344D01*
X71710Y284249D01*
X71738Y284152D01*
X71762Y284054D01*
X71782Y283956D01*
X71799Y283856D01*
X71811Y283756D01*
X71820Y283656D01*
X71825Y283556D01*
X71826Y283455D01*
X71823Y283354D01*
X71816Y283254D01*
X71805Y283154D01*
X71791Y283054D01*
X71772Y282955D01*
X71750Y282857D01*
X71724Y282760D01*
X71694Y282663D01*
X71661Y282569D01*
X71624Y282475D01*
X71583Y282383D01*
X71538Y282292D01*
X71491Y282204D01*
X71439Y282117D01*
X71385Y282033D01*
X71327Y281950D01*
X71266Y281870D01*
X71202Y281792D01*
X71135Y281717D01*
X71066Y281644D01*
X70993Y281575D01*
X70918Y281508D01*
X70840Y281444D01*
X70760Y281383D01*
X70677Y281325D01*
X70593Y281271D01*
X70506Y281219D01*
X70418Y281172D01*
X70327Y281127D01*
X70235Y281086D01*
X70141Y281049D01*
X70047Y281016D01*
X69950Y280986D01*
X69853Y280960D01*
X69755Y280938D01*
X69656Y280919D01*
X69556Y280905D01*
X69456Y280894D01*
X69356Y280887D01*
X69255Y280884D01*
X69154Y280885D01*
X69054Y280890D01*
X68954Y280899D01*
X68854Y280911D01*
X68754Y280928D01*
X68656Y280948D01*
X68558Y280972D01*
X68461Y281000D01*
X68366Y281032D01*
X68272Y281067D01*
X68179Y281106D01*
X68087Y281149D01*
X67998Y281195D01*
X67910Y281244D01*
X67825Y281297D01*
X67741Y281353D01*
X65614Y282842D01*
X76360Y281657D02*
X72849Y269852D01*
X82741Y277189D01*
X79553Y265158D02*
X82212Y263296D01*
X82306Y263233D01*
X82402Y263173D01*
X82500Y263116D01*
X82600Y263063D01*
X82702Y263013D01*
X82806Y262967D01*
X82911Y262925D01*
X83017Y262886D01*
X83125Y262851D01*
X83234Y262820D01*
X83344Y262792D01*
X83455Y262769D01*
X83566Y262749D01*
X83678Y262733D01*
X83791Y262721D01*
X83904Y262713D01*
X84017Y262709D01*
X84131Y262709D01*
X84244Y262713D01*
X84357Y262721D01*
X84470Y262733D01*
X84582Y262749D01*
X84693Y262769D01*
X84804Y262792D01*
X84914Y262820D01*
X85023Y262851D01*
X85131Y262886D01*
X85237Y262925D01*
X85342Y262967D01*
X85446Y263013D01*
X85548Y263063D01*
X85648Y263116D01*
X85746Y263173D01*
X85842Y263233D01*
X85936Y263296D01*
X86027Y263363D01*
X86117Y263432D01*
X86204Y263505D01*
X86288Y263581D01*
X86369Y263660D01*
X86448Y263741D01*
X86524Y263825D01*
X86597Y263912D01*
X86666Y264002D01*
X86733Y264093D01*
X86796Y264187D01*
X86856Y264283D01*
X86913Y264381D01*
X86966Y264481D01*
X87016Y264583D01*
X87062Y264687D01*
X87104Y264792D01*
X87143Y264898D01*
X87178Y265006D01*
X87209Y265115D01*
X87237Y265225D01*
X87260Y265336D01*
X87280Y265447D01*
X87296Y265559D01*
X87308Y265672D01*
X87316Y265785D01*
X87320Y265898D01*
X87320Y266012D01*
X87316Y266125D01*
X87308Y266238D01*
X87296Y266351D01*
X87280Y266463D01*
X87260Y266574D01*
X87237Y266685D01*
X87209Y266795D01*
X87178Y266904D01*
X87143Y267012D01*
X87104Y267118D01*
X87062Y267223D01*
X87016Y267327D01*
X86966Y267429D01*
X86913Y267529D01*
X86856Y267627D01*
X86796Y267723D01*
X86733Y267817D01*
X86666Y267908D01*
X86597Y267998D01*
X86524Y268085D01*
X86448Y268169D01*
X86369Y268250D01*
X86288Y268329D01*
X86204Y268405D01*
X86117Y268478D01*
X86028Y268547D01*
X85936Y268614D01*
X89445Y272495D02*
X86255Y274728D01*
X89445Y272495D02*
X89526Y272435D01*
X89605Y272373D01*
X89682Y272307D01*
X89756Y272239D01*
X89827Y272168D01*
X89895Y272094D01*
X89961Y272017D01*
X90023Y271938D01*
X90083Y271857D01*
X90139Y271773D01*
X90192Y271688D01*
X90241Y271600D01*
X90287Y271511D01*
X90330Y271419D01*
X90369Y271326D01*
X90404Y271232D01*
X90436Y271137D01*
X90464Y271040D01*
X90488Y270942D01*
X90508Y270844D01*
X90525Y270744D01*
X90537Y270644D01*
X90546Y270544D01*
X90551Y270444D01*
X90552Y270343D01*
X90549Y270242D01*
X90542Y270142D01*
X90531Y270042D01*
X90517Y269942D01*
X90498Y269843D01*
X90476Y269745D01*
X90450Y269648D01*
X90420Y269551D01*
X90387Y269457D01*
X90350Y269363D01*
X90309Y269271D01*
X90264Y269180D01*
X90217Y269092D01*
X90165Y269005D01*
X90111Y268921D01*
X90053Y268838D01*
X89992Y268758D01*
X89928Y268680D01*
X89861Y268605D01*
X89792Y268532D01*
X89719Y268463D01*
X89644Y268396D01*
X89566Y268332D01*
X89486Y268271D01*
X89403Y268213D01*
X89319Y268159D01*
X89232Y268107D01*
X89144Y268060D01*
X89053Y268015D01*
X88961Y267974D01*
X88867Y267937D01*
X88773Y267904D01*
X88676Y267874D01*
X88579Y267848D01*
X88481Y267826D01*
X88382Y267807D01*
X88282Y267793D01*
X88182Y267782D01*
X88082Y267775D01*
X87981Y267772D01*
X87880Y267773D01*
X87780Y267778D01*
X87680Y267787D01*
X87580Y267799D01*
X87480Y267816D01*
X87382Y267836D01*
X87284Y267860D01*
X87187Y267888D01*
X87092Y267920D01*
X86998Y267955D01*
X86905Y267994D01*
X86813Y268037D01*
X86724Y268083D01*
X86636Y268132D01*
X86551Y268185D01*
X86467Y268241D01*
X84340Y269730D01*
X153480Y137795D02*
X153480Y134549D01*
X153480Y137795D02*
X153478Y137908D01*
X153472Y138021D01*
X153462Y138134D01*
X153448Y138247D01*
X153431Y138359D01*
X153409Y138470D01*
X153384Y138580D01*
X153354Y138690D01*
X153321Y138798D01*
X153284Y138905D01*
X153244Y139011D01*
X153199Y139115D01*
X153151Y139218D01*
X153100Y139319D01*
X153045Y139418D01*
X152987Y139515D01*
X152925Y139610D01*
X152860Y139703D01*
X152792Y139793D01*
X152721Y139881D01*
X152646Y139967D01*
X152569Y140050D01*
X152489Y140130D01*
X152406Y140207D01*
X152320Y140282D01*
X152232Y140353D01*
X152142Y140421D01*
X152049Y140486D01*
X151954Y140548D01*
X151857Y140606D01*
X151758Y140661D01*
X151657Y140712D01*
X151554Y140760D01*
X151450Y140805D01*
X151344Y140845D01*
X151237Y140882D01*
X151129Y140915D01*
X151019Y140945D01*
X150909Y140970D01*
X150798Y140992D01*
X150686Y141009D01*
X150573Y141023D01*
X150460Y141033D01*
X150347Y141039D01*
X150234Y141041D01*
X150121Y141039D01*
X150008Y141033D01*
X149895Y141023D01*
X149782Y141009D01*
X149670Y140992D01*
X149559Y140970D01*
X149449Y140945D01*
X149339Y140915D01*
X149231Y140882D01*
X149124Y140845D01*
X149018Y140805D01*
X148914Y140760D01*
X148811Y140712D01*
X148710Y140661D01*
X148611Y140606D01*
X148514Y140548D01*
X148419Y140486D01*
X148326Y140421D01*
X148236Y140353D01*
X148148Y140282D01*
X148062Y140207D01*
X147979Y140130D01*
X147899Y140050D01*
X147822Y139967D01*
X147747Y139881D01*
X147676Y139793D01*
X147608Y139703D01*
X147543Y139610D01*
X147481Y139515D01*
X147423Y139418D01*
X147368Y139319D01*
X147317Y139218D01*
X147269Y139115D01*
X147224Y139011D01*
X147184Y138905D01*
X147147Y138798D01*
X147114Y138690D01*
X147084Y138580D01*
X147059Y138470D01*
X147037Y138359D01*
X147020Y138247D01*
X147006Y138134D01*
X146996Y138021D01*
X146990Y137908D01*
X146988Y137795D01*
X141796Y138444D02*
X141796Y134549D01*
X141796Y138444D02*
X141798Y138545D01*
X141804Y138645D01*
X141814Y138745D01*
X141827Y138845D01*
X141845Y138944D01*
X141866Y139043D01*
X141891Y139140D01*
X141920Y139237D01*
X141953Y139332D01*
X141989Y139426D01*
X142029Y139518D01*
X142072Y139609D01*
X142119Y139698D01*
X142169Y139785D01*
X142223Y139871D01*
X142280Y139954D01*
X142340Y140034D01*
X142403Y140113D01*
X142470Y140189D01*
X142539Y140262D01*
X142611Y140332D01*
X142685Y140400D01*
X142762Y140465D01*
X142842Y140526D01*
X142924Y140585D01*
X143008Y140640D01*
X143094Y140692D01*
X143182Y140741D01*
X143272Y140786D01*
X143364Y140828D01*
X143457Y140866D01*
X143552Y140900D01*
X143647Y140931D01*
X143744Y140958D01*
X143842Y140981D01*
X143941Y141001D01*
X144041Y141016D01*
X144141Y141028D01*
X144241Y141036D01*
X144342Y141040D01*
X144442Y141040D01*
X144543Y141036D01*
X144643Y141028D01*
X144743Y141016D01*
X144843Y141001D01*
X144942Y140981D01*
X145040Y140958D01*
X145137Y140931D01*
X145232Y140900D01*
X145327Y140866D01*
X145420Y140828D01*
X145512Y140786D01*
X145602Y140741D01*
X145690Y140692D01*
X145776Y140640D01*
X145860Y140585D01*
X145942Y140526D01*
X146022Y140465D01*
X146099Y140400D01*
X146173Y140332D01*
X146245Y140262D01*
X146314Y140189D01*
X146381Y140113D01*
X146444Y140034D01*
X146504Y139954D01*
X146561Y139871D01*
X146615Y139785D01*
X146665Y139698D01*
X146712Y139609D01*
X146755Y139518D01*
X146795Y139426D01*
X146831Y139332D01*
X146864Y139237D01*
X146893Y139140D01*
X146918Y139043D01*
X146939Y138944D01*
X146957Y138845D01*
X146970Y138745D01*
X146980Y138645D01*
X146986Y138545D01*
X146988Y138444D01*
X146988Y135848D01*
X141796Y145330D02*
X153480Y149225D01*
X141796Y153120D01*
X153480Y157409D02*
X153480Y160655D01*
X153478Y160768D01*
X153472Y160881D01*
X153462Y160994D01*
X153448Y161107D01*
X153431Y161219D01*
X153409Y161330D01*
X153384Y161440D01*
X153354Y161550D01*
X153321Y161658D01*
X153284Y161765D01*
X153244Y161871D01*
X153199Y161975D01*
X153151Y162078D01*
X153100Y162179D01*
X153045Y162278D01*
X152987Y162375D01*
X152925Y162470D01*
X152860Y162563D01*
X152792Y162653D01*
X152721Y162741D01*
X152646Y162827D01*
X152569Y162910D01*
X152489Y162990D01*
X152406Y163067D01*
X152320Y163142D01*
X152232Y163213D01*
X152142Y163281D01*
X152049Y163346D01*
X151954Y163408D01*
X151857Y163466D01*
X151758Y163521D01*
X151657Y163572D01*
X151554Y163620D01*
X151450Y163665D01*
X151344Y163705D01*
X151237Y163742D01*
X151129Y163775D01*
X151019Y163805D01*
X150909Y163830D01*
X150798Y163852D01*
X150686Y163869D01*
X150573Y163883D01*
X150460Y163893D01*
X150347Y163899D01*
X150234Y163901D01*
X150121Y163899D01*
X150008Y163893D01*
X149895Y163883D01*
X149782Y163869D01*
X149670Y163852D01*
X149559Y163830D01*
X149449Y163805D01*
X149339Y163775D01*
X149231Y163742D01*
X149124Y163705D01*
X149018Y163665D01*
X148914Y163620D01*
X148811Y163572D01*
X148710Y163521D01*
X148611Y163466D01*
X148514Y163408D01*
X148419Y163346D01*
X148326Y163281D01*
X148236Y163213D01*
X148148Y163142D01*
X148062Y163067D01*
X147979Y162990D01*
X147899Y162910D01*
X147822Y162827D01*
X147747Y162741D01*
X147676Y162653D01*
X147608Y162563D01*
X147543Y162470D01*
X147481Y162375D01*
X147423Y162278D01*
X147368Y162179D01*
X147317Y162078D01*
X147269Y161975D01*
X147224Y161871D01*
X147184Y161765D01*
X147147Y161658D01*
X147114Y161550D01*
X147084Y161440D01*
X147059Y161330D01*
X147037Y161219D01*
X147020Y161107D01*
X147006Y160994D01*
X146996Y160881D01*
X146990Y160768D01*
X146988Y160655D01*
X141796Y161304D02*
X141796Y157409D01*
X141796Y161304D02*
X141798Y161405D01*
X141804Y161505D01*
X141814Y161605D01*
X141827Y161705D01*
X141845Y161804D01*
X141866Y161903D01*
X141891Y162000D01*
X141920Y162097D01*
X141953Y162192D01*
X141989Y162286D01*
X142029Y162378D01*
X142072Y162469D01*
X142119Y162558D01*
X142169Y162645D01*
X142223Y162731D01*
X142280Y162814D01*
X142340Y162894D01*
X142403Y162973D01*
X142470Y163049D01*
X142539Y163122D01*
X142611Y163192D01*
X142685Y163260D01*
X142762Y163325D01*
X142842Y163386D01*
X142924Y163445D01*
X143008Y163500D01*
X143094Y163552D01*
X143182Y163601D01*
X143272Y163646D01*
X143364Y163688D01*
X143457Y163726D01*
X143552Y163760D01*
X143647Y163791D01*
X143744Y163818D01*
X143842Y163841D01*
X143941Y163861D01*
X144041Y163876D01*
X144141Y163888D01*
X144241Y163896D01*
X144342Y163900D01*
X144442Y163900D01*
X144543Y163896D01*
X144643Y163888D01*
X144743Y163876D01*
X144843Y163861D01*
X144942Y163841D01*
X145040Y163818D01*
X145137Y163791D01*
X145232Y163760D01*
X145327Y163726D01*
X145420Y163688D01*
X145512Y163646D01*
X145602Y163601D01*
X145690Y163552D01*
X145776Y163500D01*
X145860Y163445D01*
X145942Y163386D01*
X146022Y163325D01*
X146099Y163260D01*
X146173Y163192D01*
X146245Y163122D01*
X146314Y163049D01*
X146381Y162973D01*
X146444Y162894D01*
X146504Y162814D01*
X146561Y162731D01*
X146615Y162645D01*
X146665Y162558D01*
X146712Y162469D01*
X146755Y162378D01*
X146795Y162286D01*
X146831Y162192D01*
X146864Y162097D01*
X146893Y162000D01*
X146918Y161903D01*
X146939Y161804D01*
X146957Y161705D01*
X146970Y161605D01*
X146980Y161505D01*
X146986Y161405D01*
X146988Y161304D01*
X146988Y158708D01*
X67013Y9296D02*
X64354Y7434D01*
X67013Y9296D02*
X67104Y9363D01*
X67194Y9432D01*
X67281Y9505D01*
X67365Y9581D01*
X67446Y9660D01*
X67525Y9741D01*
X67601Y9825D01*
X67674Y9912D01*
X67743Y10002D01*
X67810Y10093D01*
X67873Y10187D01*
X67933Y10283D01*
X67990Y10381D01*
X68043Y10481D01*
X68093Y10583D01*
X68139Y10687D01*
X68181Y10792D01*
X68220Y10898D01*
X68255Y11006D01*
X68286Y11115D01*
X68314Y11225D01*
X68337Y11336D01*
X68357Y11447D01*
X68373Y11559D01*
X68385Y11672D01*
X68393Y11785D01*
X68397Y11898D01*
X68397Y12012D01*
X68393Y12125D01*
X68385Y12238D01*
X68373Y12351D01*
X68357Y12463D01*
X68337Y12574D01*
X68314Y12685D01*
X68286Y12795D01*
X68255Y12904D01*
X68220Y13012D01*
X68181Y13118D01*
X68139Y13223D01*
X68093Y13327D01*
X68043Y13429D01*
X67990Y13529D01*
X67933Y13627D01*
X67873Y13723D01*
X67810Y13817D01*
X67743Y13908D01*
X67674Y13998D01*
X67601Y14085D01*
X67525Y14169D01*
X67446Y14250D01*
X67365Y14329D01*
X67281Y14405D01*
X67194Y14478D01*
X67105Y14547D01*
X67013Y14614D01*
X66919Y14677D01*
X66823Y14737D01*
X66725Y14794D01*
X66625Y14847D01*
X66523Y14897D01*
X66419Y14943D01*
X66314Y14985D01*
X66208Y15024D01*
X66100Y15059D01*
X65991Y15090D01*
X65881Y15118D01*
X65770Y15141D01*
X65659Y15161D01*
X65547Y15177D01*
X65434Y15189D01*
X65321Y15197D01*
X65208Y15201D01*
X65094Y15201D01*
X64981Y15197D01*
X64868Y15189D01*
X64755Y15177D01*
X64643Y15161D01*
X64532Y15141D01*
X64421Y15118D01*
X64311Y15090D01*
X64202Y15059D01*
X64094Y15024D01*
X63988Y14985D01*
X63883Y14943D01*
X63779Y14897D01*
X63677Y14847D01*
X63577Y14794D01*
X63479Y14737D01*
X63383Y14677D01*
X63289Y14614D01*
X60843Y19239D02*
X57653Y17005D01*
X60843Y19239D02*
X60927Y19295D01*
X61012Y19348D01*
X61100Y19397D01*
X61189Y19443D01*
X61281Y19486D01*
X61374Y19525D01*
X61468Y19560D01*
X61563Y19592D01*
X61660Y19620D01*
X61758Y19644D01*
X61856Y19664D01*
X61956Y19681D01*
X62056Y19693D01*
X62156Y19702D01*
X62257Y19707D01*
X62357Y19708D01*
X62458Y19705D01*
X62558Y19698D01*
X62658Y19687D01*
X62758Y19673D01*
X62857Y19654D01*
X62955Y19632D01*
X63052Y19606D01*
X63149Y19576D01*
X63244Y19543D01*
X63337Y19506D01*
X63429Y19465D01*
X63520Y19420D01*
X63608Y19373D01*
X63695Y19321D01*
X63779Y19267D01*
X63862Y19209D01*
X63942Y19148D01*
X64020Y19084D01*
X64095Y19017D01*
X64168Y18948D01*
X64237Y18875D01*
X64304Y18800D01*
X64368Y18722D01*
X64429Y18642D01*
X64487Y18559D01*
X64541Y18475D01*
X64593Y18388D01*
X64640Y18300D01*
X64685Y18209D01*
X64726Y18117D01*
X64763Y18023D01*
X64796Y17929D01*
X64826Y17832D01*
X64852Y17735D01*
X64874Y17637D01*
X64893Y17538D01*
X64907Y17438D01*
X64918Y17338D01*
X64925Y17238D01*
X64928Y17137D01*
X64927Y17037D01*
X64922Y16936D01*
X64913Y16836D01*
X64901Y16736D01*
X64884Y16636D01*
X64864Y16538D01*
X64840Y16440D01*
X64812Y16343D01*
X64780Y16248D01*
X64745Y16154D01*
X64706Y16061D01*
X64663Y15969D01*
X64617Y15880D01*
X64568Y15792D01*
X64515Y15707D01*
X64459Y15623D01*
X64399Y15542D01*
X64337Y15463D01*
X64271Y15386D01*
X64203Y15312D01*
X64132Y15241D01*
X64058Y15173D01*
X63981Y15107D01*
X63902Y15045D01*
X63821Y14985D01*
X63821Y14986D02*
X61695Y13496D01*
X66484Y23189D02*
X76376Y15852D01*
X72864Y27657D01*
X83080Y20546D02*
X85739Y22408D01*
X85739Y22407D02*
X85830Y22474D01*
X85920Y22543D01*
X86007Y22616D01*
X86091Y22692D01*
X86172Y22771D01*
X86251Y22852D01*
X86327Y22936D01*
X86400Y23023D01*
X86469Y23113D01*
X86536Y23204D01*
X86599Y23298D01*
X86659Y23394D01*
X86716Y23492D01*
X86769Y23592D01*
X86819Y23694D01*
X86865Y23798D01*
X86907Y23903D01*
X86946Y24009D01*
X86981Y24117D01*
X87012Y24226D01*
X87040Y24336D01*
X87063Y24447D01*
X87083Y24558D01*
X87099Y24670D01*
X87111Y24783D01*
X87119Y24896D01*
X87123Y25009D01*
X87123Y25123D01*
X87119Y25236D01*
X87111Y25349D01*
X87099Y25462D01*
X87083Y25574D01*
X87063Y25685D01*
X87040Y25796D01*
X87012Y25906D01*
X86981Y26015D01*
X86946Y26123D01*
X86907Y26229D01*
X86865Y26334D01*
X86819Y26438D01*
X86769Y26540D01*
X86716Y26640D01*
X86659Y26738D01*
X86599Y26834D01*
X86536Y26928D01*
X86469Y27019D01*
X86400Y27109D01*
X86327Y27196D01*
X86251Y27280D01*
X86172Y27361D01*
X86091Y27440D01*
X86007Y27516D01*
X85920Y27589D01*
X85831Y27658D01*
X85739Y27725D01*
X85645Y27788D01*
X85549Y27848D01*
X85451Y27905D01*
X85351Y27958D01*
X85249Y28008D01*
X85145Y28054D01*
X85040Y28096D01*
X84934Y28135D01*
X84826Y28170D01*
X84717Y28201D01*
X84607Y28229D01*
X84496Y28252D01*
X84385Y28272D01*
X84273Y28288D01*
X84160Y28300D01*
X84047Y28308D01*
X83934Y28312D01*
X83820Y28312D01*
X83707Y28308D01*
X83594Y28300D01*
X83481Y28288D01*
X83369Y28272D01*
X83258Y28252D01*
X83147Y28229D01*
X83037Y28201D01*
X82928Y28170D01*
X82820Y28135D01*
X82714Y28096D01*
X82609Y28054D01*
X82505Y28008D01*
X82403Y27958D01*
X82303Y27905D01*
X82205Y27848D01*
X82109Y27788D01*
X82015Y27725D01*
X79569Y32351D02*
X76378Y30117D01*
X79569Y32351D02*
X79653Y32407D01*
X79738Y32460D01*
X79826Y32509D01*
X79915Y32555D01*
X80007Y32598D01*
X80100Y32637D01*
X80194Y32672D01*
X80289Y32704D01*
X80386Y32732D01*
X80484Y32756D01*
X80582Y32776D01*
X80682Y32793D01*
X80782Y32805D01*
X80882Y32814D01*
X80983Y32819D01*
X81083Y32820D01*
X81184Y32817D01*
X81284Y32810D01*
X81384Y32799D01*
X81484Y32785D01*
X81583Y32766D01*
X81681Y32744D01*
X81778Y32718D01*
X81875Y32688D01*
X81970Y32655D01*
X82063Y32618D01*
X82155Y32577D01*
X82246Y32532D01*
X82334Y32485D01*
X82421Y32433D01*
X82505Y32379D01*
X82588Y32321D01*
X82668Y32260D01*
X82746Y32196D01*
X82821Y32129D01*
X82894Y32060D01*
X82963Y31987D01*
X83030Y31912D01*
X83094Y31834D01*
X83155Y31754D01*
X83213Y31671D01*
X83267Y31587D01*
X83319Y31500D01*
X83366Y31412D01*
X83411Y31321D01*
X83452Y31229D01*
X83489Y31135D01*
X83522Y31041D01*
X83552Y30944D01*
X83578Y30847D01*
X83600Y30749D01*
X83619Y30650D01*
X83633Y30550D01*
X83644Y30450D01*
X83651Y30350D01*
X83654Y30249D01*
X83653Y30149D01*
X83648Y30048D01*
X83639Y29948D01*
X83627Y29848D01*
X83610Y29748D01*
X83590Y29650D01*
X83566Y29552D01*
X83538Y29455D01*
X83506Y29360D01*
X83471Y29266D01*
X83432Y29173D01*
X83389Y29081D01*
X83343Y28992D01*
X83294Y28904D01*
X83241Y28819D01*
X83185Y28735D01*
X83125Y28654D01*
X83063Y28575D01*
X82997Y28498D01*
X82929Y28424D01*
X82858Y28353D01*
X82784Y28285D01*
X82707Y28219D01*
X82628Y28157D01*
X82547Y28097D01*
X80420Y26608D01*
X-82564Y22408D02*
X-85222Y24270D01*
X-82564Y22408D02*
X-82470Y22345D01*
X-82374Y22285D01*
X-82276Y22228D01*
X-82176Y22175D01*
X-82074Y22125D01*
X-81970Y22079D01*
X-81865Y22037D01*
X-81759Y21998D01*
X-81651Y21963D01*
X-81542Y21932D01*
X-81432Y21904D01*
X-81321Y21881D01*
X-81210Y21861D01*
X-81098Y21845D01*
X-80985Y21833D01*
X-80872Y21825D01*
X-80759Y21821D01*
X-80645Y21821D01*
X-80532Y21825D01*
X-80419Y21833D01*
X-80306Y21845D01*
X-80194Y21861D01*
X-80083Y21881D01*
X-79972Y21904D01*
X-79862Y21932D01*
X-79753Y21963D01*
X-79645Y21998D01*
X-79539Y22037D01*
X-79434Y22079D01*
X-79330Y22125D01*
X-79228Y22175D01*
X-79128Y22228D01*
X-79030Y22285D01*
X-78934Y22345D01*
X-78840Y22408D01*
X-78749Y22475D01*
X-78659Y22544D01*
X-78572Y22617D01*
X-78488Y22693D01*
X-78407Y22772D01*
X-78328Y22853D01*
X-78252Y22937D01*
X-78179Y23024D01*
X-78110Y23114D01*
X-78043Y23205D01*
X-77980Y23299D01*
X-77920Y23395D01*
X-77863Y23493D01*
X-77810Y23593D01*
X-77760Y23695D01*
X-77714Y23799D01*
X-77672Y23904D01*
X-77633Y24010D01*
X-77598Y24118D01*
X-77567Y24227D01*
X-77539Y24337D01*
X-77516Y24448D01*
X-77496Y24559D01*
X-77480Y24671D01*
X-77468Y24784D01*
X-77460Y24897D01*
X-77456Y25010D01*
X-77456Y25124D01*
X-77460Y25237D01*
X-77468Y25350D01*
X-77480Y25463D01*
X-77496Y25575D01*
X-77516Y25686D01*
X-77539Y25797D01*
X-77567Y25907D01*
X-77598Y26016D01*
X-77633Y26124D01*
X-77672Y26230D01*
X-77714Y26335D01*
X-77760Y26439D01*
X-77810Y26541D01*
X-77863Y26641D01*
X-77920Y26739D01*
X-77980Y26835D01*
X-78043Y26929D01*
X-78110Y27020D01*
X-78179Y27110D01*
X-78252Y27197D01*
X-78328Y27281D01*
X-78407Y27362D01*
X-78488Y27441D01*
X-78572Y27517D01*
X-78659Y27590D01*
X-78748Y27659D01*
X-78840Y27726D01*
X-75330Y31607D02*
X-78521Y33840D01*
X-75331Y31607D02*
X-75250Y31547D01*
X-75171Y31485D01*
X-75094Y31419D01*
X-75020Y31351D01*
X-74949Y31280D01*
X-74881Y31206D01*
X-74815Y31129D01*
X-74753Y31050D01*
X-74693Y30969D01*
X-74637Y30885D01*
X-74584Y30800D01*
X-74535Y30712D01*
X-74489Y30623D01*
X-74446Y30531D01*
X-74407Y30438D01*
X-74372Y30344D01*
X-74340Y30249D01*
X-74312Y30152D01*
X-74288Y30054D01*
X-74268Y29956D01*
X-74251Y29856D01*
X-74239Y29756D01*
X-74230Y29656D01*
X-74225Y29555D01*
X-74224Y29455D01*
X-74227Y29354D01*
X-74234Y29254D01*
X-74245Y29154D01*
X-74259Y29054D01*
X-74278Y28955D01*
X-74300Y28857D01*
X-74326Y28760D01*
X-74356Y28663D01*
X-74389Y28569D01*
X-74426Y28475D01*
X-74467Y28383D01*
X-74512Y28292D01*
X-74559Y28204D01*
X-74611Y28117D01*
X-74665Y28033D01*
X-74723Y27950D01*
X-74784Y27870D01*
X-74848Y27792D01*
X-74915Y27717D01*
X-74984Y27644D01*
X-75057Y27575D01*
X-75132Y27508D01*
X-75210Y27444D01*
X-75290Y27383D01*
X-75373Y27325D01*
X-75457Y27271D01*
X-75544Y27219D01*
X-75632Y27172D01*
X-75723Y27127D01*
X-75815Y27086D01*
X-75908Y27049D01*
X-76003Y27016D01*
X-76100Y26986D01*
X-76197Y26960D01*
X-76295Y26938D01*
X-76394Y26919D01*
X-76494Y26905D01*
X-76594Y26894D01*
X-76694Y26887D01*
X-76795Y26884D01*
X-76895Y26885D01*
X-76996Y26890D01*
X-77096Y26899D01*
X-77196Y26911D01*
X-77296Y26928D01*
X-77394Y26948D01*
X-77492Y26972D01*
X-77589Y27000D01*
X-77684Y27032D01*
X-77778Y27067D01*
X-77871Y27106D01*
X-77963Y27149D01*
X-78052Y27195D01*
X-78140Y27244D01*
X-78225Y27297D01*
X-78309Y27353D01*
X-80436Y28842D01*
X-69689Y27657D02*
X-73201Y15852D01*
X-63309Y23189D01*
X-66496Y11158D02*
X-63838Y9296D01*
X-63744Y9233D01*
X-63648Y9173D01*
X-63550Y9116D01*
X-63450Y9063D01*
X-63348Y9013D01*
X-63244Y8967D01*
X-63139Y8925D01*
X-63033Y8886D01*
X-62925Y8851D01*
X-62816Y8820D01*
X-62706Y8792D01*
X-62595Y8769D01*
X-62484Y8749D01*
X-62372Y8733D01*
X-62259Y8721D01*
X-62146Y8713D01*
X-62033Y8709D01*
X-61919Y8709D01*
X-61806Y8713D01*
X-61693Y8721D01*
X-61580Y8733D01*
X-61468Y8749D01*
X-61357Y8769D01*
X-61246Y8792D01*
X-61136Y8820D01*
X-61027Y8851D01*
X-60919Y8886D01*
X-60813Y8925D01*
X-60708Y8967D01*
X-60604Y9013D01*
X-60502Y9063D01*
X-60402Y9116D01*
X-60304Y9173D01*
X-60208Y9233D01*
X-60114Y9296D01*
X-60023Y9363D01*
X-59933Y9432D01*
X-59846Y9505D01*
X-59762Y9581D01*
X-59681Y9660D01*
X-59602Y9741D01*
X-59526Y9825D01*
X-59453Y9912D01*
X-59384Y10002D01*
X-59317Y10093D01*
X-59254Y10187D01*
X-59194Y10283D01*
X-59137Y10381D01*
X-59084Y10481D01*
X-59034Y10583D01*
X-58988Y10687D01*
X-58946Y10792D01*
X-58907Y10898D01*
X-58872Y11006D01*
X-58841Y11115D01*
X-58813Y11225D01*
X-58790Y11336D01*
X-58770Y11447D01*
X-58754Y11559D01*
X-58742Y11672D01*
X-58734Y11785D01*
X-58730Y11898D01*
X-58730Y12012D01*
X-58734Y12125D01*
X-58742Y12238D01*
X-58754Y12351D01*
X-58770Y12463D01*
X-58790Y12574D01*
X-58813Y12685D01*
X-58841Y12795D01*
X-58872Y12904D01*
X-58907Y13012D01*
X-58946Y13118D01*
X-58988Y13223D01*
X-59034Y13327D01*
X-59084Y13429D01*
X-59137Y13529D01*
X-59194Y13627D01*
X-59254Y13723D01*
X-59317Y13817D01*
X-59384Y13908D01*
X-59453Y13998D01*
X-59526Y14085D01*
X-59602Y14169D01*
X-59681Y14250D01*
X-59762Y14329D01*
X-59846Y14405D01*
X-59933Y14478D01*
X-60022Y14547D01*
X-60114Y14614D01*
X-56604Y18495D02*
X-59795Y20728D01*
X-56605Y18495D02*
X-56524Y18435D01*
X-56445Y18373D01*
X-56368Y18307D01*
X-56294Y18239D01*
X-56223Y18168D01*
X-56155Y18094D01*
X-56089Y18017D01*
X-56027Y17938D01*
X-55967Y17857D01*
X-55911Y17773D01*
X-55858Y17688D01*
X-55809Y17600D01*
X-55763Y17511D01*
X-55720Y17419D01*
X-55681Y17326D01*
X-55646Y17232D01*
X-55614Y17137D01*
X-55586Y17040D01*
X-55562Y16942D01*
X-55542Y16844D01*
X-55525Y16744D01*
X-55513Y16644D01*
X-55504Y16544D01*
X-55499Y16443D01*
X-55498Y16343D01*
X-55501Y16242D01*
X-55508Y16142D01*
X-55519Y16042D01*
X-55533Y15942D01*
X-55552Y15843D01*
X-55574Y15745D01*
X-55600Y15648D01*
X-55630Y15551D01*
X-55663Y15457D01*
X-55700Y15363D01*
X-55741Y15271D01*
X-55786Y15180D01*
X-55833Y15092D01*
X-55885Y15005D01*
X-55939Y14921D01*
X-55997Y14838D01*
X-56058Y14758D01*
X-56122Y14680D01*
X-56189Y14605D01*
X-56258Y14532D01*
X-56331Y14463D01*
X-56406Y14396D01*
X-56484Y14332D01*
X-56564Y14271D01*
X-56647Y14213D01*
X-56731Y14159D01*
X-56818Y14107D01*
X-56906Y14060D01*
X-56997Y14015D01*
X-57089Y13974D01*
X-57182Y13937D01*
X-57277Y13904D01*
X-57374Y13874D01*
X-57471Y13848D01*
X-57569Y13826D01*
X-57668Y13807D01*
X-57768Y13793D01*
X-57868Y13782D01*
X-57968Y13775D01*
X-58069Y13772D01*
X-58169Y13773D01*
X-58270Y13778D01*
X-58370Y13787D01*
X-58470Y13799D01*
X-58570Y13816D01*
X-58668Y13836D01*
X-58766Y13860D01*
X-58863Y13888D01*
X-58958Y13920D01*
X-59052Y13955D01*
X-59145Y13994D01*
X-59237Y14037D01*
X-59326Y14083D01*
X-59414Y14132D01*
X-59499Y14185D01*
X-59583Y14241D01*
X-61710Y15730D01*
X-137033Y134549D02*
X-137033Y137795D01*
X-137035Y137908D01*
X-137041Y138021D01*
X-137051Y138134D01*
X-137065Y138247D01*
X-137082Y138359D01*
X-137104Y138470D01*
X-137129Y138580D01*
X-137159Y138690D01*
X-137192Y138798D01*
X-137229Y138905D01*
X-137269Y139011D01*
X-137314Y139115D01*
X-137362Y139218D01*
X-137413Y139319D01*
X-137468Y139418D01*
X-137526Y139515D01*
X-137588Y139610D01*
X-137653Y139703D01*
X-137721Y139793D01*
X-137792Y139881D01*
X-137867Y139967D01*
X-137944Y140050D01*
X-138024Y140130D01*
X-138107Y140207D01*
X-138193Y140282D01*
X-138281Y140353D01*
X-138371Y140421D01*
X-138464Y140486D01*
X-138559Y140548D01*
X-138656Y140606D01*
X-138755Y140661D01*
X-138856Y140712D01*
X-138959Y140760D01*
X-139063Y140805D01*
X-139169Y140845D01*
X-139276Y140882D01*
X-139384Y140915D01*
X-139494Y140945D01*
X-139604Y140970D01*
X-139715Y140992D01*
X-139827Y141009D01*
X-139940Y141023D01*
X-140053Y141033D01*
X-140166Y141039D01*
X-140279Y141041D01*
X-140392Y141039D01*
X-140505Y141033D01*
X-140618Y141023D01*
X-140731Y141009D01*
X-140843Y140992D01*
X-140954Y140970D01*
X-141064Y140945D01*
X-141174Y140915D01*
X-141282Y140882D01*
X-141389Y140845D01*
X-141495Y140805D01*
X-141599Y140760D01*
X-141702Y140712D01*
X-141803Y140661D01*
X-141902Y140606D01*
X-141999Y140548D01*
X-142094Y140486D01*
X-142187Y140421D01*
X-142277Y140353D01*
X-142365Y140282D01*
X-142451Y140207D01*
X-142534Y140130D01*
X-142614Y140050D01*
X-142691Y139967D01*
X-142766Y139881D01*
X-142837Y139793D01*
X-142905Y139703D01*
X-142970Y139610D01*
X-143032Y139515D01*
X-143090Y139418D01*
X-143145Y139319D01*
X-143196Y139218D01*
X-143244Y139115D01*
X-143289Y139011D01*
X-143329Y138905D01*
X-143366Y138798D01*
X-143399Y138690D01*
X-143429Y138580D01*
X-143454Y138470D01*
X-143476Y138359D01*
X-143493Y138247D01*
X-143507Y138134D01*
X-143517Y138021D01*
X-143523Y137908D01*
X-143525Y137795D01*
X-148717Y138444D02*
X-148717Y134549D01*
X-148717Y138444D02*
X-148715Y138545D01*
X-148709Y138645D01*
X-148699Y138745D01*
X-148686Y138845D01*
X-148668Y138944D01*
X-148647Y139043D01*
X-148622Y139140D01*
X-148593Y139237D01*
X-148560Y139332D01*
X-148524Y139426D01*
X-148484Y139518D01*
X-148441Y139609D01*
X-148394Y139698D01*
X-148344Y139785D01*
X-148290Y139871D01*
X-148233Y139954D01*
X-148173Y140034D01*
X-148110Y140113D01*
X-148043Y140189D01*
X-147974Y140262D01*
X-147902Y140332D01*
X-147828Y140400D01*
X-147751Y140465D01*
X-147671Y140526D01*
X-147589Y140585D01*
X-147505Y140640D01*
X-147419Y140692D01*
X-147331Y140741D01*
X-147241Y140786D01*
X-147149Y140828D01*
X-147056Y140866D01*
X-146961Y140900D01*
X-146866Y140931D01*
X-146769Y140958D01*
X-146671Y140981D01*
X-146572Y141001D01*
X-146472Y141016D01*
X-146372Y141028D01*
X-146272Y141036D01*
X-146171Y141040D01*
X-146071Y141040D01*
X-145970Y141036D01*
X-145870Y141028D01*
X-145770Y141016D01*
X-145670Y141001D01*
X-145571Y140981D01*
X-145473Y140958D01*
X-145376Y140931D01*
X-145281Y140900D01*
X-145186Y140866D01*
X-145093Y140828D01*
X-145001Y140786D01*
X-144911Y140741D01*
X-144823Y140692D01*
X-144737Y140640D01*
X-144653Y140585D01*
X-144571Y140526D01*
X-144491Y140465D01*
X-144414Y140400D01*
X-144340Y140332D01*
X-144268Y140262D01*
X-144199Y140189D01*
X-144132Y140113D01*
X-144069Y140034D01*
X-144009Y139954D01*
X-143952Y139871D01*
X-143898Y139785D01*
X-143848Y139698D01*
X-143801Y139609D01*
X-143758Y139518D01*
X-143718Y139426D01*
X-143682Y139332D01*
X-143649Y139237D01*
X-143620Y139140D01*
X-143595Y139043D01*
X-143574Y138944D01*
X-143556Y138845D01*
X-143543Y138745D01*
X-143533Y138645D01*
X-143527Y138545D01*
X-143525Y138444D01*
X-143524Y138444D02*
X-143524Y135848D01*
X-148717Y145330D02*
X-137033Y149225D01*
X-148717Y153120D01*
X-137033Y157409D02*
X-137033Y160655D01*
X-137035Y160768D01*
X-137041Y160881D01*
X-137051Y160994D01*
X-137065Y161107D01*
X-137082Y161219D01*
X-137104Y161330D01*
X-137129Y161440D01*
X-137159Y161550D01*
X-137192Y161658D01*
X-137229Y161765D01*
X-137269Y161871D01*
X-137314Y161975D01*
X-137362Y162078D01*
X-137413Y162179D01*
X-137468Y162278D01*
X-137526Y162375D01*
X-137588Y162470D01*
X-137653Y162563D01*
X-137721Y162653D01*
X-137792Y162741D01*
X-137867Y162827D01*
X-137944Y162910D01*
X-138024Y162990D01*
X-138107Y163067D01*
X-138193Y163142D01*
X-138281Y163213D01*
X-138371Y163281D01*
X-138464Y163346D01*
X-138559Y163408D01*
X-138656Y163466D01*
X-138755Y163521D01*
X-138856Y163572D01*
X-138959Y163620D01*
X-139063Y163665D01*
X-139169Y163705D01*
X-139276Y163742D01*
X-139384Y163775D01*
X-139494Y163805D01*
X-139604Y163830D01*
X-139715Y163852D01*
X-139827Y163869D01*
X-139940Y163883D01*
X-140053Y163893D01*
X-140166Y163899D01*
X-140279Y163901D01*
X-140392Y163899D01*
X-140505Y163893D01*
X-140618Y163883D01*
X-140731Y163869D01*
X-140843Y163852D01*
X-140954Y163830D01*
X-141064Y163805D01*
X-141174Y163775D01*
X-141282Y163742D01*
X-141389Y163705D01*
X-141495Y163665D01*
X-141599Y163620D01*
X-141702Y163572D01*
X-141803Y163521D01*
X-141902Y163466D01*
X-141999Y163408D01*
X-142094Y163346D01*
X-142187Y163281D01*
X-142277Y163213D01*
X-142365Y163142D01*
X-142451Y163067D01*
X-142534Y162990D01*
X-142614Y162910D01*
X-142691Y162827D01*
X-142766Y162741D01*
X-142837Y162653D01*
X-142905Y162563D01*
X-142970Y162470D01*
X-143032Y162375D01*
X-143090Y162278D01*
X-143145Y162179D01*
X-143196Y162078D01*
X-143244Y161975D01*
X-143289Y161871D01*
X-143329Y161765D01*
X-143366Y161658D01*
X-143399Y161550D01*
X-143429Y161440D01*
X-143454Y161330D01*
X-143476Y161219D01*
X-143493Y161107D01*
X-143507Y160994D01*
X-143517Y160881D01*
X-143523Y160768D01*
X-143525Y160655D01*
X-148717Y161304D02*
X-148717Y157409D01*
X-148717Y161304D02*
X-148715Y161405D01*
X-148709Y161505D01*
X-148699Y161605D01*
X-148686Y161705D01*
X-148668Y161804D01*
X-148647Y161903D01*
X-148622Y162000D01*
X-148593Y162097D01*
X-148560Y162192D01*
X-148524Y162286D01*
X-148484Y162378D01*
X-148441Y162469D01*
X-148394Y162558D01*
X-148344Y162645D01*
X-148290Y162731D01*
X-148233Y162814D01*
X-148173Y162894D01*
X-148110Y162973D01*
X-148043Y163049D01*
X-147974Y163122D01*
X-147902Y163192D01*
X-147828Y163260D01*
X-147751Y163325D01*
X-147671Y163386D01*
X-147589Y163445D01*
X-147505Y163500D01*
X-147419Y163552D01*
X-147331Y163601D01*
X-147241Y163646D01*
X-147149Y163688D01*
X-147056Y163726D01*
X-146961Y163760D01*
X-146866Y163791D01*
X-146769Y163818D01*
X-146671Y163841D01*
X-146572Y163861D01*
X-146472Y163876D01*
X-146372Y163888D01*
X-146272Y163896D01*
X-146171Y163900D01*
X-146071Y163900D01*
X-145970Y163896D01*
X-145870Y163888D01*
X-145770Y163876D01*
X-145670Y163861D01*
X-145571Y163841D01*
X-145473Y163818D01*
X-145376Y163791D01*
X-145281Y163760D01*
X-145186Y163726D01*
X-145093Y163688D01*
X-145001Y163646D01*
X-144911Y163601D01*
X-144823Y163552D01*
X-144737Y163500D01*
X-144653Y163445D01*
X-144571Y163386D01*
X-144491Y163325D01*
X-144414Y163260D01*
X-144340Y163192D01*
X-144268Y163122D01*
X-144199Y163049D01*
X-144132Y162973D01*
X-144069Y162894D01*
X-144009Y162814D01*
X-143952Y162731D01*
X-143898Y162645D01*
X-143848Y162558D01*
X-143801Y162469D01*
X-143758Y162378D01*
X-143718Y162286D01*
X-143682Y162192D01*
X-143649Y162097D01*
X-143620Y162000D01*
X-143595Y161903D01*
X-143574Y161804D01*
X-143556Y161705D01*
X-143543Y161605D01*
X-143533Y161505D01*
X-143527Y161405D01*
X-143525Y161304D01*
X-143524Y161304D02*
X-143524Y158708D01*
X-81696Y264609D02*
X-79037Y266471D01*
X-78946Y266538D01*
X-78856Y266607D01*
X-78769Y266680D01*
X-78685Y266756D01*
X-78604Y266835D01*
X-78525Y266916D01*
X-78449Y267000D01*
X-78376Y267087D01*
X-78307Y267176D01*
X-78240Y267268D01*
X-78177Y267362D01*
X-78117Y267458D01*
X-78060Y267556D01*
X-78007Y267656D01*
X-77957Y267758D01*
X-77911Y267862D01*
X-77869Y267967D01*
X-77830Y268073D01*
X-77795Y268181D01*
X-77764Y268290D01*
X-77736Y268400D01*
X-77713Y268511D01*
X-77693Y268622D01*
X-77677Y268734D01*
X-77665Y268847D01*
X-77657Y268960D01*
X-77653Y269073D01*
X-77653Y269187D01*
X-77657Y269300D01*
X-77665Y269413D01*
X-77677Y269526D01*
X-77693Y269638D01*
X-77713Y269749D01*
X-77736Y269860D01*
X-77764Y269970D01*
X-77795Y270079D01*
X-77830Y270187D01*
X-77869Y270293D01*
X-77911Y270398D01*
X-77957Y270502D01*
X-78007Y270604D01*
X-78060Y270704D01*
X-78117Y270802D01*
X-78177Y270898D01*
X-78240Y270992D01*
X-78307Y271083D01*
X-78376Y271173D01*
X-78449Y271260D01*
X-78525Y271344D01*
X-78604Y271425D01*
X-78685Y271504D01*
X-78769Y271580D01*
X-78856Y271653D01*
X-78946Y271722D01*
X-79037Y271789D01*
X-79131Y271852D01*
X-79227Y271912D01*
X-79325Y271969D01*
X-79425Y272022D01*
X-79527Y272072D01*
X-79631Y272118D01*
X-79736Y272160D01*
X-79842Y272199D01*
X-79950Y272234D01*
X-80059Y272265D01*
X-80169Y272293D01*
X-80280Y272316D01*
X-80391Y272336D01*
X-80503Y272352D01*
X-80616Y272364D01*
X-80729Y272372D01*
X-80842Y272376D01*
X-80956Y272376D01*
X-81069Y272372D01*
X-81182Y272364D01*
X-81295Y272352D01*
X-81407Y272336D01*
X-81518Y272316D01*
X-81629Y272293D01*
X-81739Y272265D01*
X-81848Y272234D01*
X-81956Y272199D01*
X-82062Y272160D01*
X-82167Y272118D01*
X-82271Y272072D01*
X-82373Y272022D01*
X-82473Y271969D01*
X-82571Y271912D01*
X-82667Y271852D01*
X-82761Y271789D01*
X-85207Y276414D02*
X-88397Y274180D01*
X-85207Y276414D02*
X-85123Y276470D01*
X-85038Y276523D01*
X-84950Y276572D01*
X-84861Y276618D01*
X-84769Y276661D01*
X-84676Y276700D01*
X-84582Y276735D01*
X-84487Y276767D01*
X-84390Y276795D01*
X-84292Y276819D01*
X-84194Y276839D01*
X-84094Y276856D01*
X-83994Y276868D01*
X-83894Y276877D01*
X-83794Y276882D01*
X-83693Y276883D01*
X-83592Y276880D01*
X-83492Y276873D01*
X-83392Y276862D01*
X-83292Y276848D01*
X-83193Y276829D01*
X-83095Y276807D01*
X-82998Y276781D01*
X-82901Y276751D01*
X-82807Y276718D01*
X-82713Y276681D01*
X-82621Y276640D01*
X-82530Y276595D01*
X-82442Y276548D01*
X-82355Y276496D01*
X-82271Y276442D01*
X-82188Y276384D01*
X-82108Y276323D01*
X-82030Y276259D01*
X-81955Y276192D01*
X-81882Y276123D01*
X-81813Y276050D01*
X-81746Y275975D01*
X-81682Y275897D01*
X-81621Y275817D01*
X-81563Y275734D01*
X-81509Y275650D01*
X-81457Y275563D01*
X-81410Y275475D01*
X-81365Y275384D01*
X-81324Y275292D01*
X-81287Y275198D01*
X-81254Y275104D01*
X-81224Y275007D01*
X-81198Y274910D01*
X-81176Y274812D01*
X-81157Y274713D01*
X-81143Y274613D01*
X-81132Y274513D01*
X-81125Y274413D01*
X-81122Y274312D01*
X-81123Y274211D01*
X-81128Y274111D01*
X-81137Y274011D01*
X-81149Y273911D01*
X-81166Y273811D01*
X-81186Y273713D01*
X-81210Y273615D01*
X-81238Y273518D01*
X-81270Y273423D01*
X-81305Y273329D01*
X-81344Y273236D01*
X-81387Y273144D01*
X-81433Y273055D01*
X-81482Y272967D01*
X-81535Y272882D01*
X-81591Y272798D01*
X-81651Y272717D01*
X-81713Y272638D01*
X-81779Y272561D01*
X-81847Y272487D01*
X-81918Y272416D01*
X-81992Y272348D01*
X-82069Y272282D01*
X-82148Y272220D01*
X-82229Y272160D01*
X-82228Y272161D02*
X-84355Y270671D01*
X-79566Y280364D02*
X-69674Y273027D01*
X-73185Y284832D01*
X-62970Y277721D02*
X-60311Y279583D01*
X-60311Y279582D02*
X-60220Y279649D01*
X-60130Y279718D01*
X-60043Y279791D01*
X-59959Y279867D01*
X-59878Y279946D01*
X-59799Y280027D01*
X-59723Y280111D01*
X-59650Y280198D01*
X-59581Y280287D01*
X-59514Y280379D01*
X-59451Y280473D01*
X-59391Y280569D01*
X-59334Y280667D01*
X-59281Y280767D01*
X-59231Y280869D01*
X-59185Y280973D01*
X-59143Y281078D01*
X-59104Y281184D01*
X-59069Y281292D01*
X-59038Y281401D01*
X-59010Y281511D01*
X-58987Y281622D01*
X-58967Y281733D01*
X-58951Y281845D01*
X-58939Y281958D01*
X-58931Y282071D01*
X-58927Y282184D01*
X-58927Y282298D01*
X-58931Y282411D01*
X-58939Y282524D01*
X-58951Y282637D01*
X-58967Y282749D01*
X-58987Y282860D01*
X-59010Y282971D01*
X-59038Y283081D01*
X-59069Y283190D01*
X-59104Y283298D01*
X-59143Y283404D01*
X-59185Y283509D01*
X-59231Y283613D01*
X-59281Y283715D01*
X-59334Y283815D01*
X-59391Y283913D01*
X-59451Y284009D01*
X-59514Y284103D01*
X-59581Y284194D01*
X-59650Y284284D01*
X-59723Y284371D01*
X-59799Y284455D01*
X-59878Y284536D01*
X-59959Y284615D01*
X-60043Y284691D01*
X-60130Y284764D01*
X-60220Y284833D01*
X-60311Y284900D01*
X-60405Y284963D01*
X-60501Y285023D01*
X-60599Y285080D01*
X-60699Y285133D01*
X-60801Y285183D01*
X-60905Y285229D01*
X-61010Y285271D01*
X-61116Y285310D01*
X-61224Y285345D01*
X-61333Y285376D01*
X-61443Y285404D01*
X-61554Y285427D01*
X-61665Y285447D01*
X-61777Y285463D01*
X-61890Y285475D01*
X-62003Y285483D01*
X-62116Y285487D01*
X-62230Y285487D01*
X-62343Y285483D01*
X-62456Y285475D01*
X-62569Y285463D01*
X-62681Y285447D01*
X-62792Y285427D01*
X-62903Y285404D01*
X-63013Y285376D01*
X-63122Y285345D01*
X-63230Y285310D01*
X-63336Y285271D01*
X-63441Y285229D01*
X-63545Y285183D01*
X-63647Y285133D01*
X-63747Y285080D01*
X-63845Y285023D01*
X-63941Y284963D01*
X-64035Y284900D01*
X-66481Y289526D02*
X-69671Y287292D01*
X-66481Y289526D02*
X-66397Y289582D01*
X-66312Y289635D01*
X-66224Y289684D01*
X-66135Y289730D01*
X-66043Y289773D01*
X-65950Y289812D01*
X-65856Y289847D01*
X-65761Y289879D01*
X-65664Y289907D01*
X-65566Y289931D01*
X-65468Y289951D01*
X-65368Y289968D01*
X-65268Y289980D01*
X-65168Y289989D01*
X-65068Y289994D01*
X-64967Y289995D01*
X-64866Y289992D01*
X-64766Y289985D01*
X-64666Y289974D01*
X-64566Y289960D01*
X-64467Y289941D01*
X-64369Y289919D01*
X-64272Y289893D01*
X-64175Y289863D01*
X-64081Y289830D01*
X-63987Y289793D01*
X-63895Y289752D01*
X-63804Y289707D01*
X-63716Y289660D01*
X-63629Y289608D01*
X-63545Y289554D01*
X-63462Y289496D01*
X-63382Y289435D01*
X-63304Y289371D01*
X-63229Y289304D01*
X-63156Y289235D01*
X-63087Y289162D01*
X-63020Y289087D01*
X-62956Y289009D01*
X-62895Y288929D01*
X-62837Y288846D01*
X-62783Y288762D01*
X-62731Y288675D01*
X-62684Y288587D01*
X-62639Y288496D01*
X-62598Y288404D01*
X-62561Y288310D01*
X-62528Y288216D01*
X-62498Y288119D01*
X-62472Y288022D01*
X-62450Y287924D01*
X-62431Y287825D01*
X-62417Y287725D01*
X-62406Y287625D01*
X-62399Y287525D01*
X-62396Y287424D01*
X-62397Y287323D01*
X-62402Y287223D01*
X-62411Y287123D01*
X-62423Y287023D01*
X-62440Y286923D01*
X-62460Y286825D01*
X-62484Y286727D01*
X-62512Y286630D01*
X-62544Y286535D01*
X-62579Y286441D01*
X-62618Y286348D01*
X-62661Y286256D01*
X-62707Y286167D01*
X-62756Y286079D01*
X-62809Y285994D01*
X-62865Y285910D01*
X-62925Y285829D01*
X-62987Y285750D01*
X-63053Y285673D01*
X-63121Y285599D01*
X-63192Y285528D01*
X-63266Y285460D01*
X-63343Y285394D01*
X-63422Y285332D01*
X-63503Y285272D01*
X-65629Y283783D01*
D11*
X88664Y227965D02*
X88664Y210185D01*
X88664Y227965D02*
X93603Y227965D01*
X93743Y227963D01*
X93882Y227957D01*
X94022Y227947D01*
X94161Y227933D01*
X94300Y227916D01*
X94438Y227894D01*
X94575Y227868D01*
X94712Y227839D01*
X94848Y227806D01*
X94982Y227769D01*
X95116Y227728D01*
X95248Y227683D01*
X95380Y227634D01*
X95509Y227582D01*
X95637Y227527D01*
X95764Y227467D01*
X95889Y227404D01*
X96012Y227338D01*
X96133Y227268D01*
X96252Y227195D01*
X96369Y227118D01*
X96483Y227038D01*
X96596Y226955D01*
X96706Y226869D01*
X96813Y226779D01*
X96918Y226687D01*
X97020Y226592D01*
X97120Y226494D01*
X97217Y226393D01*
X97311Y226289D01*
X97401Y226183D01*
X97489Y226074D01*
X97574Y225963D01*
X97655Y225849D01*
X97734Y225734D01*
X97809Y225616D01*
X97880Y225496D01*
X97948Y225373D01*
X98013Y225250D01*
X98074Y225124D01*
X98132Y224996D01*
X98186Y224868D01*
X98236Y224737D01*
X98283Y224605D01*
X98326Y224472D01*
X98365Y224338D01*
X98400Y224203D01*
X98431Y224067D01*
X98459Y223929D01*
X98482Y223792D01*
X98502Y223653D01*
X98518Y223514D01*
X98530Y223375D01*
X98538Y223236D01*
X98542Y223096D01*
X98542Y222956D01*
X98538Y222816D01*
X98530Y222677D01*
X98518Y222538D01*
X98502Y222399D01*
X98482Y222260D01*
X98459Y222123D01*
X98431Y221985D01*
X98400Y221849D01*
X98365Y221714D01*
X98326Y221580D01*
X98283Y221447D01*
X98236Y221315D01*
X98186Y221184D01*
X98132Y221056D01*
X98074Y220928D01*
X98013Y220802D01*
X97948Y220679D01*
X97880Y220557D01*
X97809Y220436D01*
X97734Y220318D01*
X97655Y220203D01*
X97574Y220089D01*
X97489Y219978D01*
X97401Y219869D01*
X97311Y219763D01*
X97217Y219659D01*
X97120Y219558D01*
X97020Y219460D01*
X96918Y219365D01*
X96813Y219273D01*
X96706Y219183D01*
X96596Y219097D01*
X96483Y219014D01*
X96369Y218934D01*
X96252Y218857D01*
X96133Y218784D01*
X96012Y218714D01*
X95889Y218648D01*
X95764Y218585D01*
X95637Y218525D01*
X95509Y218470D01*
X95380Y218418D01*
X95248Y218369D01*
X95116Y218324D01*
X94982Y218283D01*
X94848Y218246D01*
X94712Y218213D01*
X94575Y218184D01*
X94438Y218158D01*
X94300Y218136D01*
X94161Y218119D01*
X94022Y218105D01*
X93882Y218095D01*
X93743Y218089D01*
X93603Y218087D01*
X88664Y218087D01*
X104659Y224014D02*
X109598Y227965D01*
X109598Y210185D01*
X114536Y210185D02*
X104659Y210185D01*
X-11349Y35878D02*
X-11349Y18098D01*
X-11349Y35878D02*
X-6410Y35878D01*
X-6270Y35876D01*
X-6131Y35870D01*
X-5991Y35860D01*
X-5852Y35846D01*
X-5713Y35829D01*
X-5575Y35807D01*
X-5438Y35781D01*
X-5301Y35752D01*
X-5165Y35719D01*
X-5031Y35682D01*
X-4897Y35641D01*
X-4765Y35596D01*
X-4633Y35547D01*
X-4504Y35495D01*
X-4376Y35440D01*
X-4249Y35380D01*
X-4124Y35317D01*
X-4001Y35251D01*
X-3880Y35181D01*
X-3761Y35108D01*
X-3644Y35031D01*
X-3530Y34951D01*
X-3417Y34868D01*
X-3307Y34782D01*
X-3200Y34692D01*
X-3095Y34600D01*
X-2993Y34505D01*
X-2893Y34407D01*
X-2796Y34306D01*
X-2702Y34202D01*
X-2612Y34096D01*
X-2524Y33987D01*
X-2439Y33876D01*
X-2358Y33762D01*
X-2279Y33647D01*
X-2204Y33529D01*
X-2133Y33409D01*
X-2065Y33286D01*
X-2000Y33163D01*
X-1939Y33037D01*
X-1881Y32909D01*
X-1827Y32781D01*
X-1777Y32650D01*
X-1730Y32518D01*
X-1687Y32385D01*
X-1648Y32251D01*
X-1613Y32116D01*
X-1582Y31980D01*
X-1554Y31842D01*
X-1531Y31705D01*
X-1511Y31566D01*
X-1495Y31427D01*
X-1483Y31288D01*
X-1475Y31149D01*
X-1471Y31009D01*
X-1471Y30869D01*
X-1475Y30729D01*
X-1483Y30590D01*
X-1495Y30451D01*
X-1511Y30312D01*
X-1531Y30173D01*
X-1554Y30036D01*
X-1582Y29898D01*
X-1613Y29762D01*
X-1648Y29627D01*
X-1687Y29493D01*
X-1730Y29360D01*
X-1777Y29228D01*
X-1827Y29097D01*
X-1881Y28969D01*
X-1939Y28841D01*
X-2000Y28715D01*
X-2065Y28592D01*
X-2133Y28470D01*
X-2204Y28349D01*
X-2279Y28231D01*
X-2358Y28116D01*
X-2439Y28002D01*
X-2524Y27891D01*
X-2612Y27782D01*
X-2702Y27676D01*
X-2796Y27572D01*
X-2893Y27471D01*
X-2993Y27373D01*
X-3095Y27278D01*
X-3200Y27186D01*
X-3307Y27096D01*
X-3417Y27010D01*
X-3530Y26927D01*
X-3644Y26847D01*
X-3761Y26770D01*
X-3880Y26697D01*
X-4001Y26627D01*
X-4124Y26561D01*
X-4249Y26498D01*
X-4376Y26438D01*
X-4504Y26383D01*
X-4633Y26331D01*
X-4765Y26282D01*
X-4897Y26237D01*
X-5031Y26196D01*
X-5165Y26159D01*
X-5301Y26126D01*
X-5438Y26097D01*
X-5575Y26071D01*
X-5713Y26049D01*
X-5852Y26032D01*
X-5991Y26018D01*
X-6131Y26008D01*
X-6270Y26002D01*
X-6410Y26000D01*
X-11349Y26000D01*
X4646Y18098D02*
X9585Y18098D01*
X9585Y18097D02*
X9725Y18099D01*
X9864Y18105D01*
X10004Y18115D01*
X10143Y18129D01*
X10282Y18146D01*
X10420Y18168D01*
X10557Y18194D01*
X10694Y18223D01*
X10830Y18256D01*
X10964Y18293D01*
X11098Y18334D01*
X11230Y18379D01*
X11362Y18428D01*
X11491Y18480D01*
X11619Y18535D01*
X11746Y18595D01*
X11871Y18658D01*
X11994Y18724D01*
X12115Y18794D01*
X12234Y18867D01*
X12351Y18944D01*
X12465Y19024D01*
X12578Y19107D01*
X12688Y19193D01*
X12795Y19283D01*
X12900Y19375D01*
X13002Y19470D01*
X13102Y19568D01*
X13199Y19669D01*
X13293Y19773D01*
X13383Y19879D01*
X13471Y19988D01*
X13556Y20099D01*
X13637Y20213D01*
X13716Y20328D01*
X13791Y20446D01*
X13862Y20567D01*
X13930Y20689D01*
X13995Y20812D01*
X14056Y20938D01*
X14114Y21066D01*
X14168Y21194D01*
X14218Y21325D01*
X14265Y21457D01*
X14308Y21590D01*
X14347Y21724D01*
X14382Y21859D01*
X14413Y21995D01*
X14441Y22133D01*
X14464Y22270D01*
X14484Y22409D01*
X14500Y22548D01*
X14512Y22687D01*
X14520Y22826D01*
X14524Y22966D01*
X14524Y23106D01*
X14520Y23246D01*
X14512Y23385D01*
X14500Y23524D01*
X14484Y23663D01*
X14464Y23802D01*
X14441Y23939D01*
X14413Y24077D01*
X14382Y24213D01*
X14347Y24348D01*
X14308Y24482D01*
X14265Y24615D01*
X14218Y24747D01*
X14168Y24878D01*
X14114Y25006D01*
X14056Y25134D01*
X13995Y25260D01*
X13930Y25383D01*
X13862Y25506D01*
X13791Y25626D01*
X13716Y25744D01*
X13637Y25859D01*
X13556Y25973D01*
X13471Y26084D01*
X13383Y26193D01*
X13293Y26299D01*
X13199Y26403D01*
X13102Y26504D01*
X13002Y26602D01*
X12900Y26697D01*
X12795Y26789D01*
X12688Y26879D01*
X12578Y26965D01*
X12465Y27048D01*
X12351Y27128D01*
X12234Y27205D01*
X12115Y27278D01*
X11994Y27348D01*
X11871Y27414D01*
X11746Y27477D01*
X11619Y27537D01*
X11491Y27592D01*
X11362Y27644D01*
X11230Y27693D01*
X11098Y27738D01*
X10964Y27779D01*
X10830Y27816D01*
X10694Y27849D01*
X10557Y27878D01*
X10420Y27904D01*
X10282Y27926D01*
X10143Y27943D01*
X10004Y27957D01*
X9864Y27967D01*
X9725Y27973D01*
X9585Y27975D01*
X10573Y35878D02*
X4646Y35878D01*
X10573Y35877D02*
X10697Y35875D01*
X10821Y35869D01*
X10945Y35859D01*
X11068Y35846D01*
X11191Y35828D01*
X11313Y35807D01*
X11435Y35782D01*
X11556Y35753D01*
X11675Y35720D01*
X11794Y35684D01*
X11911Y35643D01*
X12027Y35600D01*
X12142Y35552D01*
X12255Y35501D01*
X12367Y35446D01*
X12476Y35388D01*
X12584Y35327D01*
X12690Y35262D01*
X12794Y35194D01*
X12895Y35122D01*
X12995Y35048D01*
X13091Y34970D01*
X13186Y34890D01*
X13278Y34806D01*
X13367Y34720D01*
X13453Y34631D01*
X13537Y34539D01*
X13617Y34444D01*
X13695Y34348D01*
X13769Y34248D01*
X13841Y34147D01*
X13909Y34043D01*
X13974Y33937D01*
X14035Y33829D01*
X14093Y33720D01*
X14148Y33608D01*
X14199Y33495D01*
X14247Y33380D01*
X14290Y33264D01*
X14331Y33147D01*
X14367Y33028D01*
X14400Y32909D01*
X14429Y32788D01*
X14454Y32666D01*
X14475Y32544D01*
X14493Y32421D01*
X14506Y32298D01*
X14516Y32174D01*
X14522Y32050D01*
X14524Y31926D01*
X14522Y31802D01*
X14516Y31678D01*
X14506Y31554D01*
X14493Y31431D01*
X14475Y31308D01*
X14454Y31186D01*
X14429Y31064D01*
X14400Y30943D01*
X14367Y30824D01*
X14331Y30705D01*
X14290Y30588D01*
X14247Y30472D01*
X14199Y30357D01*
X14148Y30244D01*
X14093Y30132D01*
X14035Y30023D01*
X13974Y29915D01*
X13909Y29809D01*
X13841Y29705D01*
X13769Y29604D01*
X13695Y29504D01*
X13617Y29408D01*
X13537Y29313D01*
X13453Y29221D01*
X13367Y29132D01*
X13278Y29046D01*
X13186Y28962D01*
X13091Y28882D01*
X12995Y28804D01*
X12895Y28730D01*
X12794Y28658D01*
X12690Y28590D01*
X12584Y28525D01*
X12476Y28464D01*
X12367Y28406D01*
X12255Y28351D01*
X12142Y28300D01*
X12027Y28252D01*
X11911Y28209D01*
X11794Y28168D01*
X11675Y28132D01*
X11556Y28099D01*
X11435Y28070D01*
X11313Y28045D01*
X11191Y28024D01*
X11068Y28006D01*
X10945Y27993D01*
X10821Y27983D01*
X10697Y27977D01*
X10573Y27975D01*
X6622Y27975D01*
X-134550Y92710D02*
X-134550Y110490D01*
X-129611Y110490D01*
X-129471Y110488D01*
X-129332Y110482D01*
X-129192Y110472D01*
X-129053Y110458D01*
X-128914Y110441D01*
X-128776Y110419D01*
X-128639Y110393D01*
X-128502Y110364D01*
X-128366Y110331D01*
X-128232Y110294D01*
X-128098Y110253D01*
X-127966Y110208D01*
X-127834Y110159D01*
X-127705Y110107D01*
X-127577Y110052D01*
X-127450Y109992D01*
X-127325Y109929D01*
X-127202Y109863D01*
X-127081Y109793D01*
X-126962Y109720D01*
X-126845Y109643D01*
X-126731Y109563D01*
X-126618Y109480D01*
X-126508Y109394D01*
X-126401Y109304D01*
X-126296Y109212D01*
X-126194Y109117D01*
X-126094Y109019D01*
X-125997Y108918D01*
X-125903Y108814D01*
X-125813Y108708D01*
X-125725Y108599D01*
X-125640Y108488D01*
X-125559Y108374D01*
X-125480Y108259D01*
X-125405Y108141D01*
X-125334Y108021D01*
X-125266Y107898D01*
X-125201Y107775D01*
X-125140Y107649D01*
X-125082Y107521D01*
X-125028Y107393D01*
X-124978Y107262D01*
X-124931Y107130D01*
X-124888Y106997D01*
X-124849Y106863D01*
X-124814Y106728D01*
X-124783Y106592D01*
X-124755Y106454D01*
X-124732Y106317D01*
X-124712Y106178D01*
X-124696Y106039D01*
X-124684Y105900D01*
X-124676Y105761D01*
X-124672Y105621D01*
X-124672Y105481D01*
X-124676Y105341D01*
X-124684Y105202D01*
X-124696Y105063D01*
X-124712Y104924D01*
X-124732Y104785D01*
X-124755Y104648D01*
X-124783Y104510D01*
X-124814Y104374D01*
X-124849Y104239D01*
X-124888Y104105D01*
X-124931Y103972D01*
X-124978Y103840D01*
X-125028Y103709D01*
X-125082Y103581D01*
X-125140Y103453D01*
X-125201Y103327D01*
X-125266Y103204D01*
X-125334Y103082D01*
X-125405Y102961D01*
X-125480Y102843D01*
X-125559Y102728D01*
X-125640Y102614D01*
X-125725Y102503D01*
X-125813Y102394D01*
X-125903Y102288D01*
X-125997Y102184D01*
X-126094Y102083D01*
X-126194Y101985D01*
X-126296Y101890D01*
X-126401Y101798D01*
X-126508Y101708D01*
X-126618Y101622D01*
X-126731Y101539D01*
X-126845Y101459D01*
X-126962Y101382D01*
X-127081Y101309D01*
X-127202Y101239D01*
X-127325Y101173D01*
X-127450Y101110D01*
X-127577Y101050D01*
X-127705Y100995D01*
X-127834Y100943D01*
X-127966Y100894D01*
X-128098Y100849D01*
X-128232Y100808D01*
X-128366Y100771D01*
X-128502Y100738D01*
X-128639Y100709D01*
X-128776Y100683D01*
X-128914Y100661D01*
X-129053Y100644D01*
X-129192Y100630D01*
X-129332Y100620D01*
X-129471Y100614D01*
X-129611Y100612D01*
X-134550Y100612D01*
X-118555Y96661D02*
X-114604Y110490D01*
X-118555Y96661D02*
X-108677Y96661D01*
X-111641Y100612D02*
X-111641Y92710D01*
X-96308Y99624D02*
X-96308Y105551D01*
X-96308Y99624D02*
X-92850Y95179D01*
X-96308Y99624D02*
X-99765Y95179D01*
X-96308Y99624D02*
X-90875Y101600D01*
X-96308Y99624D02*
X-101740Y101600D01*
X-106599Y213360D02*
X-106599Y231140D01*
X-101660Y231140D01*
X-101520Y231138D01*
X-101381Y231132D01*
X-101241Y231122D01*
X-101102Y231108D01*
X-100963Y231091D01*
X-100825Y231069D01*
X-100688Y231043D01*
X-100551Y231014D01*
X-100415Y230981D01*
X-100281Y230944D01*
X-100147Y230903D01*
X-100015Y230858D01*
X-99883Y230809D01*
X-99754Y230757D01*
X-99626Y230702D01*
X-99499Y230642D01*
X-99374Y230579D01*
X-99251Y230513D01*
X-99130Y230443D01*
X-99011Y230370D01*
X-98894Y230293D01*
X-98780Y230213D01*
X-98667Y230130D01*
X-98557Y230044D01*
X-98450Y229954D01*
X-98345Y229862D01*
X-98243Y229767D01*
X-98143Y229669D01*
X-98046Y229568D01*
X-97952Y229464D01*
X-97862Y229358D01*
X-97774Y229249D01*
X-97689Y229138D01*
X-97608Y229024D01*
X-97529Y228909D01*
X-97454Y228791D01*
X-97383Y228671D01*
X-97315Y228548D01*
X-97250Y228425D01*
X-97189Y228299D01*
X-97131Y228171D01*
X-97077Y228043D01*
X-97027Y227912D01*
X-96980Y227780D01*
X-96937Y227647D01*
X-96898Y227513D01*
X-96863Y227378D01*
X-96832Y227242D01*
X-96804Y227104D01*
X-96781Y226967D01*
X-96761Y226828D01*
X-96745Y226689D01*
X-96733Y226550D01*
X-96725Y226411D01*
X-96721Y226271D01*
X-96721Y226131D01*
X-96725Y225991D01*
X-96733Y225852D01*
X-96745Y225713D01*
X-96761Y225574D01*
X-96781Y225435D01*
X-96804Y225298D01*
X-96832Y225160D01*
X-96863Y225024D01*
X-96898Y224889D01*
X-96937Y224755D01*
X-96980Y224622D01*
X-97027Y224490D01*
X-97077Y224359D01*
X-97131Y224231D01*
X-97189Y224103D01*
X-97250Y223977D01*
X-97315Y223854D01*
X-97383Y223732D01*
X-97454Y223611D01*
X-97529Y223493D01*
X-97608Y223378D01*
X-97689Y223264D01*
X-97774Y223153D01*
X-97862Y223044D01*
X-97952Y222938D01*
X-98046Y222834D01*
X-98143Y222733D01*
X-98243Y222635D01*
X-98345Y222540D01*
X-98450Y222448D01*
X-98557Y222358D01*
X-98667Y222272D01*
X-98780Y222189D01*
X-98894Y222109D01*
X-99011Y222032D01*
X-99130Y221959D01*
X-99251Y221889D01*
X-99374Y221823D01*
X-99499Y221760D01*
X-99626Y221700D01*
X-99754Y221645D01*
X-99883Y221593D01*
X-100015Y221544D01*
X-100147Y221499D01*
X-100281Y221458D01*
X-100415Y221421D01*
X-100551Y221388D01*
X-100688Y221359D01*
X-100825Y221333D01*
X-100963Y221311D01*
X-101102Y221294D01*
X-101241Y221280D01*
X-101381Y221270D01*
X-101520Y221264D01*
X-101660Y221262D01*
X-106599Y221262D01*
X-90604Y213360D02*
X-84677Y213360D01*
X-84553Y213362D01*
X-84429Y213368D01*
X-84305Y213378D01*
X-84182Y213391D01*
X-84059Y213409D01*
X-83937Y213430D01*
X-83815Y213455D01*
X-83694Y213484D01*
X-83575Y213517D01*
X-83456Y213553D01*
X-83339Y213594D01*
X-83223Y213637D01*
X-83108Y213685D01*
X-82995Y213736D01*
X-82883Y213791D01*
X-82774Y213849D01*
X-82666Y213910D01*
X-82560Y213975D01*
X-82456Y214043D01*
X-82355Y214115D01*
X-82255Y214189D01*
X-82159Y214267D01*
X-82064Y214347D01*
X-81972Y214431D01*
X-81883Y214517D01*
X-81797Y214606D01*
X-81713Y214698D01*
X-81633Y214793D01*
X-81555Y214889D01*
X-81481Y214989D01*
X-81409Y215090D01*
X-81341Y215194D01*
X-81276Y215300D01*
X-81215Y215408D01*
X-81157Y215517D01*
X-81102Y215629D01*
X-81051Y215742D01*
X-81003Y215857D01*
X-80960Y215973D01*
X-80919Y216090D01*
X-80883Y216209D01*
X-80850Y216328D01*
X-80821Y216449D01*
X-80796Y216571D01*
X-80775Y216693D01*
X-80757Y216816D01*
X-80744Y216939D01*
X-80734Y217063D01*
X-80728Y217187D01*
X-80726Y217311D01*
X-80726Y219287D01*
X-80728Y219411D01*
X-80734Y219535D01*
X-80744Y219659D01*
X-80757Y219782D01*
X-80775Y219905D01*
X-80796Y220027D01*
X-80821Y220149D01*
X-80850Y220270D01*
X-80883Y220389D01*
X-80919Y220508D01*
X-80960Y220625D01*
X-81003Y220741D01*
X-81051Y220856D01*
X-81102Y220969D01*
X-81157Y221081D01*
X-81215Y221190D01*
X-81276Y221298D01*
X-81341Y221404D01*
X-81409Y221508D01*
X-81481Y221609D01*
X-81555Y221709D01*
X-81633Y221805D01*
X-81713Y221900D01*
X-81797Y221992D01*
X-81883Y222081D01*
X-81972Y222167D01*
X-82064Y222251D01*
X-82159Y222331D01*
X-82255Y222409D01*
X-82355Y222483D01*
X-82456Y222555D01*
X-82560Y222623D01*
X-82666Y222688D01*
X-82774Y222749D01*
X-82883Y222807D01*
X-82995Y222862D01*
X-83108Y222913D01*
X-83223Y222961D01*
X-83339Y223004D01*
X-83456Y223045D01*
X-83575Y223081D01*
X-83694Y223114D01*
X-83815Y223143D01*
X-83937Y223168D01*
X-84059Y223189D01*
X-84182Y223207D01*
X-84305Y223220D01*
X-84429Y223230D01*
X-84553Y223236D01*
X-84677Y223238D01*
X-90604Y223238D01*
X-90604Y231140D01*
X-80726Y231140D01*
X-12936Y264160D02*
X-12936Y281940D01*
X-7998Y281940D01*
X-7858Y281938D01*
X-7719Y281932D01*
X-7579Y281922D01*
X-7440Y281908D01*
X-7301Y281891D01*
X-7163Y281869D01*
X-7026Y281843D01*
X-6889Y281814D01*
X-6753Y281781D01*
X-6619Y281744D01*
X-6485Y281703D01*
X-6353Y281658D01*
X-6221Y281609D01*
X-6092Y281557D01*
X-5964Y281502D01*
X-5837Y281442D01*
X-5712Y281379D01*
X-5589Y281313D01*
X-5468Y281243D01*
X-5349Y281170D01*
X-5232Y281093D01*
X-5118Y281013D01*
X-5005Y280930D01*
X-4895Y280844D01*
X-4788Y280754D01*
X-4683Y280662D01*
X-4581Y280567D01*
X-4481Y280469D01*
X-4384Y280368D01*
X-4290Y280264D01*
X-4200Y280158D01*
X-4112Y280049D01*
X-4027Y279938D01*
X-3946Y279824D01*
X-3867Y279709D01*
X-3792Y279591D01*
X-3721Y279471D01*
X-3653Y279348D01*
X-3588Y279225D01*
X-3527Y279099D01*
X-3469Y278971D01*
X-3415Y278843D01*
X-3365Y278712D01*
X-3318Y278580D01*
X-3275Y278447D01*
X-3236Y278313D01*
X-3201Y278178D01*
X-3170Y278042D01*
X-3142Y277904D01*
X-3119Y277767D01*
X-3099Y277628D01*
X-3083Y277489D01*
X-3071Y277350D01*
X-3063Y277211D01*
X-3059Y277071D01*
X-3059Y276931D01*
X-3063Y276791D01*
X-3071Y276652D01*
X-3083Y276513D01*
X-3099Y276374D01*
X-3119Y276235D01*
X-3142Y276098D01*
X-3170Y275960D01*
X-3201Y275824D01*
X-3236Y275689D01*
X-3275Y275555D01*
X-3318Y275422D01*
X-3365Y275290D01*
X-3415Y275159D01*
X-3469Y275031D01*
X-3527Y274903D01*
X-3588Y274777D01*
X-3653Y274654D01*
X-3721Y274532D01*
X-3792Y274411D01*
X-3867Y274293D01*
X-3946Y274178D01*
X-4027Y274064D01*
X-4112Y273953D01*
X-4200Y273844D01*
X-4290Y273738D01*
X-4384Y273634D01*
X-4481Y273533D01*
X-4581Y273435D01*
X-4683Y273340D01*
X-4788Y273248D01*
X-4895Y273158D01*
X-5005Y273072D01*
X-5118Y272989D01*
X-5232Y272909D01*
X-5349Y272832D01*
X-5468Y272759D01*
X-5589Y272689D01*
X-5712Y272623D01*
X-5837Y272560D01*
X-5964Y272500D01*
X-6092Y272445D01*
X-6221Y272393D01*
X-6353Y272344D01*
X-6485Y272299D01*
X-6619Y272258D01*
X-6753Y272221D01*
X-6889Y272188D01*
X-7026Y272159D01*
X-7163Y272133D01*
X-7301Y272111D01*
X-7440Y272094D01*
X-7579Y272080D01*
X-7719Y272070D01*
X-7858Y272064D01*
X-7998Y272062D01*
X-12936Y272062D01*
X3059Y274038D02*
X8985Y274038D01*
X9109Y274036D01*
X9233Y274030D01*
X9357Y274020D01*
X9480Y274007D01*
X9603Y273989D01*
X9725Y273968D01*
X9847Y273943D01*
X9968Y273914D01*
X10087Y273881D01*
X10206Y273845D01*
X10323Y273804D01*
X10439Y273761D01*
X10554Y273713D01*
X10667Y273662D01*
X10779Y273607D01*
X10888Y273549D01*
X10996Y273488D01*
X11102Y273423D01*
X11206Y273355D01*
X11307Y273283D01*
X11407Y273209D01*
X11503Y273131D01*
X11598Y273051D01*
X11690Y272967D01*
X11779Y272881D01*
X11865Y272792D01*
X11949Y272700D01*
X12029Y272605D01*
X12107Y272509D01*
X12181Y272409D01*
X12253Y272308D01*
X12321Y272204D01*
X12386Y272098D01*
X12447Y271990D01*
X12505Y271881D01*
X12560Y271769D01*
X12611Y271656D01*
X12659Y271541D01*
X12702Y271425D01*
X12743Y271308D01*
X12779Y271189D01*
X12812Y271070D01*
X12841Y270949D01*
X12866Y270827D01*
X12887Y270705D01*
X12905Y270582D01*
X12918Y270459D01*
X12928Y270335D01*
X12934Y270211D01*
X12936Y270087D01*
X12936Y269099D01*
X12937Y269099D02*
X12935Y268959D01*
X12929Y268820D01*
X12919Y268680D01*
X12905Y268541D01*
X12888Y268402D01*
X12866Y268264D01*
X12840Y268127D01*
X12811Y267990D01*
X12778Y267854D01*
X12741Y267720D01*
X12700Y267586D01*
X12655Y267454D01*
X12606Y267322D01*
X12554Y267193D01*
X12499Y267065D01*
X12439Y266938D01*
X12376Y266813D01*
X12310Y266690D01*
X12240Y266569D01*
X12167Y266450D01*
X12090Y266333D01*
X12010Y266219D01*
X11927Y266106D01*
X11841Y265996D01*
X11751Y265889D01*
X11659Y265784D01*
X11564Y265682D01*
X11466Y265582D01*
X11365Y265485D01*
X11261Y265391D01*
X11155Y265301D01*
X11046Y265213D01*
X10935Y265128D01*
X10821Y265047D01*
X10706Y264968D01*
X10588Y264893D01*
X10468Y264822D01*
X10345Y264754D01*
X10222Y264689D01*
X10096Y264628D01*
X9968Y264570D01*
X9840Y264516D01*
X9709Y264466D01*
X9577Y264419D01*
X9444Y264376D01*
X9310Y264337D01*
X9175Y264302D01*
X9039Y264271D01*
X8901Y264243D01*
X8764Y264220D01*
X8625Y264200D01*
X8486Y264184D01*
X8347Y264172D01*
X8208Y264164D01*
X8068Y264160D01*
X7928Y264160D01*
X7788Y264164D01*
X7649Y264172D01*
X7510Y264184D01*
X7371Y264200D01*
X7232Y264220D01*
X7095Y264243D01*
X6957Y264271D01*
X6821Y264302D01*
X6686Y264337D01*
X6552Y264376D01*
X6419Y264419D01*
X6287Y264466D01*
X6156Y264516D01*
X6028Y264570D01*
X5900Y264628D01*
X5774Y264689D01*
X5651Y264754D01*
X5529Y264822D01*
X5408Y264893D01*
X5290Y264968D01*
X5175Y265047D01*
X5061Y265128D01*
X4950Y265213D01*
X4841Y265301D01*
X4735Y265391D01*
X4631Y265485D01*
X4530Y265582D01*
X4432Y265682D01*
X4337Y265784D01*
X4245Y265889D01*
X4155Y265996D01*
X4069Y266106D01*
X3986Y266219D01*
X3906Y266333D01*
X3829Y266450D01*
X3756Y266569D01*
X3686Y266690D01*
X3620Y266813D01*
X3557Y266938D01*
X3497Y267065D01*
X3442Y267193D01*
X3390Y267322D01*
X3341Y267454D01*
X3296Y267586D01*
X3255Y267720D01*
X3218Y267854D01*
X3185Y267990D01*
X3156Y268127D01*
X3130Y268264D01*
X3108Y268402D01*
X3091Y268541D01*
X3077Y268680D01*
X3067Y268820D01*
X3061Y268959D01*
X3059Y269099D01*
X3059Y274038D01*
X3061Y274232D01*
X3069Y274426D01*
X3080Y274619D01*
X3097Y274813D01*
X3118Y275005D01*
X3145Y275197D01*
X3175Y275389D01*
X3211Y275580D01*
X3251Y275769D01*
X3296Y275958D01*
X3345Y276146D01*
X3399Y276332D01*
X3458Y276517D01*
X3521Y276700D01*
X3588Y276882D01*
X3661Y277062D01*
X3737Y277240D01*
X3818Y277417D01*
X3903Y277591D01*
X3992Y277763D01*
X4086Y277933D01*
X4183Y278100D01*
X4285Y278266D01*
X4391Y278428D01*
X4500Y278588D01*
X4614Y278745D01*
X4731Y278900D01*
X4853Y279051D01*
X4978Y279199D01*
X5106Y279345D01*
X5238Y279487D01*
X5373Y279626D01*
X5512Y279761D01*
X5654Y279893D01*
X5800Y280021D01*
X5948Y280146D01*
X6099Y280268D01*
X6254Y280385D01*
X6411Y280499D01*
X6571Y280608D01*
X6733Y280714D01*
X6899Y280816D01*
X7066Y280913D01*
X7236Y281007D01*
X7408Y281096D01*
X7582Y281181D01*
X7759Y281262D01*
X7937Y281338D01*
X8117Y281411D01*
X8299Y281478D01*
X8482Y281541D01*
X8667Y281600D01*
X8853Y281654D01*
X9041Y281703D01*
X9230Y281748D01*
X9419Y281788D01*
X9610Y281824D01*
X9802Y281854D01*
X9994Y281881D01*
X10186Y281902D01*
X10380Y281919D01*
X10573Y281930D01*
X10767Y281938D01*
X10961Y281940D01*
D12*
X83243Y154817D03*
D13*
X82728Y154964D03*
D14*
X82139Y155111D03*
D15*
X81697Y155259D03*
D16*
X81181Y155406D03*
D17*
X80739Y155553D03*
D18*
X80150Y155701D03*
D19*
X79634Y155848D03*
D20*
X79192Y155995D03*
D21*
X78750Y156143D03*
D22*
X78677Y156290D03*
D23*
X78750Y156437D03*
D24*
X78824Y156585D03*
D25*
X78750Y156732D03*
D26*
X78824Y156879D03*
D27*
X78824Y157027D03*
D28*
X78897Y157174D03*
X78897Y157321D03*
D29*
X78897Y157469D03*
D30*
X78971Y157616D03*
D31*
X78971Y157763D03*
X78971Y157911D03*
D32*
X79045Y158058D03*
D33*
X79045Y158205D03*
D34*
X79118Y158352D03*
D35*
X79045Y158500D03*
D36*
X79118Y158647D03*
D37*
X79192Y158794D03*
D38*
X79192Y158942D03*
X79192Y159089D03*
D39*
X79266Y159236D03*
D40*
X79266Y159384D03*
D41*
X79339Y159531D03*
D42*
X79266Y159678D03*
D43*
X79339Y159826D03*
D44*
X79413Y159973D03*
D45*
X79413Y160120D03*
X79413Y160268D03*
D46*
X79413Y160415D03*
D47*
X79487Y160562D03*
X79487Y160710D03*
D48*
X79487Y160857D03*
D49*
X79560Y161004D03*
D50*
X79560Y161152D03*
X79560Y161299D03*
D51*
X79634Y161446D03*
D52*
X79634Y161594D03*
D53*
X79708Y161741D03*
D54*
X79634Y161888D03*
D55*
X79708Y162035D03*
D56*
X79781Y162183D03*
D57*
X100259Y162183D03*
D58*
X79781Y162330D03*
D59*
X99670Y162330D03*
D58*
X79781Y162477D03*
D60*
X99228Y162477D03*
D61*
X79781Y162625D03*
D62*
X98712Y162625D03*
D63*
X79855Y162772D03*
D64*
X98270Y162772D03*
D63*
X79855Y162919D03*
D65*
X97681Y162919D03*
D66*
X79781Y163067D03*
D67*
X97239Y163067D03*
D66*
X79781Y163214D03*
D68*
X96723Y163214D03*
D63*
X79708Y163361D03*
D69*
X96281Y163361D03*
D66*
X79634Y163509D03*
D21*
X96134Y163509D03*
D66*
X79634Y163656D03*
D23*
X96134Y163656D03*
D66*
X79487Y163803D03*
D24*
X96208Y163803D03*
D66*
X79487Y163951D03*
D25*
X96281Y163951D03*
D63*
X79413Y164098D03*
D26*
X96208Y164098D03*
D66*
X79339Y164245D03*
D70*
X96281Y164245D03*
D66*
X79339Y164393D03*
D28*
X96281Y164393D03*
D66*
X79192Y164540D03*
D71*
X96355Y164540D03*
D66*
X79192Y164687D03*
D71*
X96355Y164687D03*
D63*
X79118Y164835D03*
D30*
X96355Y164835D03*
D66*
X79045Y164982D03*
D72*
X96429Y164982D03*
D66*
X79045Y165129D03*
D32*
X96429Y165129D03*
D66*
X78897Y165277D03*
D32*
X96429Y165277D03*
D66*
X78897Y165424D03*
D73*
X96502Y165424D03*
D63*
X78824Y165571D03*
D34*
X96502Y165571D03*
D61*
X78897Y165718D03*
D35*
X96576Y165718D03*
D61*
X78897Y165866D03*
D36*
X96502Y165866D03*
D74*
X78897Y166013D03*
D75*
X96576Y166013D03*
D76*
X78971Y166160D03*
D77*
X96650Y166160D03*
D55*
X78971Y166308D03*
D78*
X96650Y166308D03*
D55*
X78971Y166455D03*
D78*
X96650Y166455D03*
D54*
X79045Y166602D03*
D79*
X96723Y166602D03*
D52*
X79045Y166750D03*
D41*
X96723Y166750D03*
D80*
X79118Y166897D03*
D41*
X96723Y166897D03*
D51*
X79045Y167044D03*
D43*
X96723Y167044D03*
D81*
X79118Y167192D03*
D44*
X96797Y167192D03*
D82*
X79192Y167339D03*
D83*
X96871Y167339D03*
D48*
X79192Y167486D03*
D84*
X96797Y167486D03*
D48*
X79192Y167634D03*
D85*
X96871Y167634D03*
D86*
X79266Y167781D03*
D47*
X96871Y167781D03*
D46*
X79266Y167928D03*
D86*
X96944Y167928D03*
D46*
X79266Y168076D03*
D86*
X96944Y168076D03*
D84*
X79266Y168223D03*
D49*
X96944Y168223D03*
D87*
X79339Y168370D03*
D82*
X97018Y168370D03*
D44*
X79413Y168518D03*
D51*
X97018Y168518D03*
D43*
X79339Y168665D03*
D51*
X97018Y168665D03*
D42*
X79413Y168812D03*
D80*
X97092Y168812D03*
D40*
X79413Y168960D03*
D53*
X97092Y168960D03*
D79*
X79487Y169107D03*
D54*
X97165Y169107D03*
D79*
X79487Y169254D03*
D55*
X97092Y169254D03*
D88*
X79487Y169401D03*
D89*
X97165Y169401D03*
D77*
X79560Y169549D03*
D76*
X97239Y169549D03*
D36*
X79560Y169696D03*
D90*
X97239Y169696D03*
D36*
X79560Y169843D03*
D90*
X97239Y169843D03*
D35*
X79634Y169991D03*
D63*
X97239Y169991D03*
D33*
X79634Y170138D03*
D66*
X97312Y170138D03*
D73*
X79708Y170285D03*
D63*
X97239Y170285D03*
D32*
X79634Y170433D03*
D66*
X97165Y170433D03*
D91*
X79708Y170580D03*
D66*
X97165Y170580D03*
D92*
X79781Y170727D03*
D63*
X97092Y170727D03*
D29*
X79781Y170875D03*
D66*
X97018Y170875D03*
D29*
X79781Y171022D03*
D66*
X97018Y171022D03*
D71*
X79855Y171169D03*
D66*
X96871Y171169D03*
D27*
X79855Y171317D03*
D66*
X96871Y171317D03*
D70*
X79929Y171464D03*
D63*
X96797Y171464D03*
D93*
X79855Y171611D03*
D66*
X96723Y171611D03*
D25*
X79929Y171759D03*
D66*
X96723Y171759D03*
D24*
X80002Y171906D03*
D66*
X96576Y171906D03*
D23*
X79929Y172053D03*
D66*
X96576Y172053D03*
D22*
X80002Y172201D03*
D63*
X96502Y172201D03*
D69*
X79929Y172348D03*
D66*
X96429Y172348D03*
D94*
X79413Y172495D03*
D66*
X96429Y172495D03*
D67*
X78824Y172643D03*
D66*
X96281Y172643D03*
D65*
X78382Y172790D03*
D66*
X96281Y172790D03*
D95*
X77866Y172937D03*
D61*
X96281Y172937D03*
D96*
X77424Y173084D03*
D90*
X96355Y173084D03*
D60*
X76835Y173232D03*
D90*
X96355Y173232D03*
D97*
X76319Y173379D03*
D98*
X96355Y173379D03*
D99*
X75877Y173526D03*
D56*
X96429Y173526D03*
D100*
X85674Y173674D03*
D55*
X96355Y173674D03*
D101*
X85159Y173821D03*
D54*
X96429Y173821D03*
D14*
X84643Y173968D03*
D53*
X96502Y173968D03*
D102*
X84127Y174116D03*
D80*
X96502Y174116D03*
D16*
X83685Y174263D03*
D80*
X96502Y174263D03*
D103*
X83170Y174410D03*
D81*
X96502Y174410D03*
D18*
X82654Y174558D03*
D104*
X96576Y174558D03*
D19*
X82139Y174705D03*
D49*
X96650Y174705D03*
D105*
X81623Y174852D03*
D48*
X96576Y174852D03*
D106*
X81181Y175000D03*
D86*
X96650Y175000D03*
D22*
X81181Y175147D03*
D47*
X96723Y175147D03*
D23*
X81255Y175294D03*
D85*
X96723Y175294D03*
D24*
X81328Y175442D03*
D85*
X96723Y175442D03*
D25*
X81255Y175589D03*
D87*
X96723Y175589D03*
D26*
X81328Y175736D03*
D44*
X96797Y175736D03*
D107*
X81328Y175884D03*
D43*
X96871Y175884D03*
D28*
X81402Y176031D03*
D42*
X96797Y176031D03*
D28*
X81402Y176178D03*
D41*
X96871Y176178D03*
D29*
X81402Y176326D03*
D79*
X96871Y176326D03*
D30*
X81476Y176473D03*
D39*
X96944Y176473D03*
D31*
X81476Y176620D03*
D39*
X96944Y176620D03*
D31*
X81476Y176767D03*
D108*
X96944Y176767D03*
D32*
X81549Y176915D03*
D75*
X97018Y176915D03*
D33*
X81549Y177062D03*
D35*
X97018Y177062D03*
D34*
X81623Y177209D03*
D35*
X97018Y177209D03*
X81549Y177357D03*
D34*
X97092Y177357D03*
D36*
X81623Y177504D03*
D73*
X97092Y177504D03*
D75*
X81697Y177651D03*
D73*
X97092Y177651D03*
D38*
X81697Y177799D03*
D91*
X97092Y177799D03*
D38*
X81697Y177946D03*
D72*
X97165Y177946D03*
D79*
X81697Y178093D03*
D30*
X97239Y178093D03*
D40*
X81770Y178241D03*
D29*
X97165Y178241D03*
D41*
X81844Y178388D03*
D71*
X97239Y178388D03*
D42*
X81770Y178535D03*
D27*
X97239Y178535D03*
D43*
X81844Y178683D03*
D109*
X97312Y178683D03*
D87*
X81844Y178830D03*
D109*
X97312Y178830D03*
D45*
X81918Y178977D03*
D25*
X97312Y178977D03*
D45*
X81918Y179125D03*
D24*
X97386Y179125D03*
D46*
X81918Y179272D03*
D23*
X97460Y179272D03*
D47*
X81991Y179419D03*
D22*
X97386Y179419D03*
D47*
X81991Y179567D03*
D106*
X97386Y179567D03*
D48*
X81991Y179714D03*
D110*
X96944Y179714D03*
D49*
X82065Y179861D03*
D111*
X96429Y179861D03*
D50*
X82065Y180009D03*
D18*
X95913Y180009D03*
D50*
X82065Y180156D03*
D112*
X95397Y180156D03*
D51*
X82139Y180303D03*
D113*
X94955Y180303D03*
D52*
X82139Y180450D03*
D114*
X94440Y180450D03*
D53*
X82212Y180598D03*
D14*
X93924Y180598D03*
D54*
X82139Y180745D03*
D115*
X93409Y180745D03*
D55*
X82212Y180892D03*
D12*
X92967Y180892D03*
D56*
X82286Y181040D03*
D58*
X82286Y181187D03*
X82286Y181334D03*
D61*
X82286Y181482D03*
D63*
X82360Y181629D03*
X82360Y181776D03*
D66*
X82286Y181924D03*
X82286Y182071D03*
X82139Y182218D03*
X82139Y182366D03*
D63*
X82065Y182513D03*
D66*
X81991Y182660D03*
X81991Y182808D03*
X81844Y182955D03*
X81844Y183102D03*
D63*
X81770Y183250D03*
D66*
X81697Y183397D03*
X81697Y183544D03*
D63*
X81623Y183692D03*
D66*
X81549Y183839D03*
X81549Y183986D03*
X81402Y184133D03*
X81402Y184281D03*
D63*
X81328Y184428D03*
D61*
X81402Y184575D03*
X81402Y184723D03*
D74*
X81402Y184870D03*
D76*
X81476Y185017D03*
D55*
X81476Y185165D03*
X81476Y185312D03*
D54*
X81549Y185459D03*
D52*
X81549Y185607D03*
D80*
X81623Y185754D03*
D51*
X81549Y185901D03*
D81*
X81623Y186049D03*
D82*
X81697Y186196D03*
D116*
X81623Y186343D03*
D48*
X81697Y186491D03*
D47*
X81697Y186638D03*
D46*
X81770Y186785D03*
X81770Y186933D03*
D84*
X81770Y187080D03*
D87*
X81844Y187227D03*
D43*
X81844Y187375D03*
X81844Y187522D03*
D42*
X81918Y187669D03*
D40*
X81918Y187816D03*
D79*
X81991Y187964D03*
X81991Y188111D03*
D88*
X81991Y188258D03*
D77*
X82065Y188406D03*
D36*
X82065Y188553D03*
X82065Y188700D03*
D35*
X82139Y188848D03*
D33*
X82139Y188995D03*
D73*
X82212Y189142D03*
D32*
X82139Y189290D03*
D91*
X82212Y189437D03*
D92*
X82286Y189584D03*
D29*
X82286Y189732D03*
X82286Y189879D03*
D28*
X82286Y190026D03*
D27*
X82360Y190174D03*
D70*
X82433Y190321D03*
D93*
X82360Y190468D03*
D25*
X82433Y190616D03*
D23*
X82433Y190763D03*
X82433Y190910D03*
D22*
X82507Y191058D03*
D117*
X82360Y191205D03*
D118*
X81844Y191352D03*
D67*
X81328Y191499D03*
D119*
X80813Y191647D03*
D95*
X80371Y191794D03*
D120*
X79855Y191941D03*
D60*
X79339Y192089D03*
D97*
X78824Y192236D03*
D121*
X78308Y192383D03*
D11*
X71910Y143701D02*
X71910Y125921D01*
X71910Y143701D02*
X76849Y143701D01*
X76989Y143699D01*
X77128Y143693D01*
X77268Y143683D01*
X77407Y143669D01*
X77546Y143652D01*
X77684Y143630D01*
X77821Y143604D01*
X77958Y143575D01*
X78094Y143542D01*
X78228Y143505D01*
X78362Y143464D01*
X78494Y143419D01*
X78626Y143370D01*
X78755Y143318D01*
X78883Y143263D01*
X79010Y143203D01*
X79135Y143140D01*
X79258Y143074D01*
X79379Y143004D01*
X79498Y142931D01*
X79615Y142854D01*
X79729Y142774D01*
X79842Y142691D01*
X79952Y142605D01*
X80059Y142515D01*
X80164Y142423D01*
X80266Y142328D01*
X80366Y142230D01*
X80463Y142129D01*
X80557Y142025D01*
X80647Y141919D01*
X80735Y141810D01*
X80820Y141699D01*
X80901Y141585D01*
X80980Y141470D01*
X81055Y141352D01*
X81126Y141232D01*
X81194Y141109D01*
X81259Y140986D01*
X81320Y140860D01*
X81378Y140732D01*
X81432Y140604D01*
X81482Y140473D01*
X81529Y140341D01*
X81572Y140208D01*
X81611Y140074D01*
X81646Y139939D01*
X81677Y139803D01*
X81705Y139665D01*
X81728Y139528D01*
X81748Y139389D01*
X81764Y139250D01*
X81776Y139111D01*
X81784Y138972D01*
X81788Y138832D01*
X81788Y138692D01*
X81784Y138552D01*
X81776Y138413D01*
X81764Y138274D01*
X81748Y138135D01*
X81728Y137996D01*
X81705Y137859D01*
X81677Y137721D01*
X81646Y137585D01*
X81611Y137450D01*
X81572Y137316D01*
X81529Y137183D01*
X81482Y137051D01*
X81432Y136920D01*
X81378Y136792D01*
X81320Y136664D01*
X81259Y136538D01*
X81194Y136415D01*
X81126Y136293D01*
X81055Y136172D01*
X80980Y136054D01*
X80901Y135939D01*
X80820Y135825D01*
X80735Y135714D01*
X80647Y135605D01*
X80557Y135499D01*
X80463Y135395D01*
X80366Y135294D01*
X80266Y135196D01*
X80164Y135101D01*
X80059Y135009D01*
X79952Y134919D01*
X79842Y134833D01*
X79729Y134750D01*
X79615Y134670D01*
X79498Y134593D01*
X79379Y134520D01*
X79258Y134450D01*
X79135Y134384D01*
X79010Y134321D01*
X78883Y134261D01*
X78755Y134206D01*
X78626Y134154D01*
X78494Y134105D01*
X78362Y134060D01*
X78228Y134019D01*
X78094Y133982D01*
X77958Y133949D01*
X77821Y133920D01*
X77684Y133894D01*
X77546Y133872D01*
X77407Y133855D01*
X77268Y133841D01*
X77128Y133831D01*
X76989Y133825D01*
X76849Y133823D01*
X71910Y133823D01*
X77837Y133823D02*
X81788Y125921D01*
X-70499Y178915D02*
X-75438Y178915D01*
X-70499Y178915D02*
X-70359Y178913D01*
X-70220Y178907D01*
X-70080Y178897D01*
X-69941Y178883D01*
X-69802Y178866D01*
X-69664Y178844D01*
X-69527Y178818D01*
X-69390Y178789D01*
X-69254Y178756D01*
X-69120Y178719D01*
X-68986Y178678D01*
X-68854Y178633D01*
X-68722Y178584D01*
X-68593Y178532D01*
X-68465Y178477D01*
X-68338Y178417D01*
X-68213Y178354D01*
X-68090Y178288D01*
X-67969Y178218D01*
X-67850Y178145D01*
X-67733Y178068D01*
X-67619Y177988D01*
X-67506Y177905D01*
X-67396Y177819D01*
X-67289Y177729D01*
X-67184Y177637D01*
X-67082Y177542D01*
X-66982Y177444D01*
X-66885Y177343D01*
X-66791Y177239D01*
X-66701Y177133D01*
X-66613Y177024D01*
X-66528Y176913D01*
X-66447Y176799D01*
X-66368Y176684D01*
X-66293Y176566D01*
X-66222Y176446D01*
X-66154Y176323D01*
X-66089Y176200D01*
X-66028Y176074D01*
X-65970Y175946D01*
X-65916Y175818D01*
X-65866Y175687D01*
X-65819Y175555D01*
X-65776Y175422D01*
X-65737Y175288D01*
X-65702Y175153D01*
X-65671Y175017D01*
X-65643Y174879D01*
X-65620Y174742D01*
X-65600Y174603D01*
X-65584Y174464D01*
X-65572Y174325D01*
X-65564Y174186D01*
X-65560Y174046D01*
X-65560Y173906D01*
X-65564Y173766D01*
X-65572Y173627D01*
X-65584Y173488D01*
X-65600Y173349D01*
X-65620Y173210D01*
X-65643Y173073D01*
X-65671Y172935D01*
X-65702Y172799D01*
X-65737Y172664D01*
X-65776Y172530D01*
X-65819Y172397D01*
X-65866Y172265D01*
X-65916Y172134D01*
X-65970Y172006D01*
X-66028Y171878D01*
X-66089Y171752D01*
X-66154Y171629D01*
X-66222Y171507D01*
X-66293Y171386D01*
X-66368Y171268D01*
X-66447Y171153D01*
X-66528Y171039D01*
X-66613Y170928D01*
X-66701Y170819D01*
X-66791Y170713D01*
X-66885Y170609D01*
X-66982Y170508D01*
X-67082Y170410D01*
X-67184Y170315D01*
X-67289Y170223D01*
X-67396Y170133D01*
X-67506Y170047D01*
X-67619Y169964D01*
X-67733Y169884D01*
X-67850Y169807D01*
X-67969Y169734D01*
X-68090Y169664D01*
X-68213Y169598D01*
X-68338Y169535D01*
X-68465Y169475D01*
X-68593Y169420D01*
X-68722Y169368D01*
X-68854Y169319D01*
X-68986Y169274D01*
X-69120Y169233D01*
X-69254Y169196D01*
X-69390Y169163D01*
X-69527Y169134D01*
X-69664Y169108D01*
X-69802Y169086D01*
X-69941Y169069D01*
X-70080Y169055D01*
X-70220Y169045D01*
X-70359Y169039D01*
X-70499Y169037D01*
X-75438Y169037D01*
X-75438Y186817D01*
X-70499Y186817D01*
X-70375Y186815D01*
X-70251Y186809D01*
X-70127Y186799D01*
X-70004Y186786D01*
X-69881Y186768D01*
X-69759Y186747D01*
X-69637Y186722D01*
X-69516Y186693D01*
X-69397Y186660D01*
X-69278Y186624D01*
X-69161Y186583D01*
X-69045Y186540D01*
X-68930Y186492D01*
X-68817Y186441D01*
X-68705Y186386D01*
X-68596Y186328D01*
X-68488Y186267D01*
X-68382Y186202D01*
X-68278Y186134D01*
X-68177Y186062D01*
X-68077Y185988D01*
X-67981Y185910D01*
X-67886Y185830D01*
X-67794Y185746D01*
X-67705Y185660D01*
X-67619Y185571D01*
X-67535Y185479D01*
X-67455Y185384D01*
X-67377Y185288D01*
X-67303Y185188D01*
X-67231Y185087D01*
X-67163Y184983D01*
X-67098Y184877D01*
X-67037Y184769D01*
X-66979Y184660D01*
X-66924Y184548D01*
X-66873Y184435D01*
X-66825Y184320D01*
X-66782Y184204D01*
X-66741Y184087D01*
X-66705Y183968D01*
X-66672Y183849D01*
X-66643Y183728D01*
X-66618Y183606D01*
X-66597Y183484D01*
X-66579Y183361D01*
X-66566Y183238D01*
X-66556Y183114D01*
X-66550Y182990D01*
X-66548Y182866D01*
X-66550Y182742D01*
X-66556Y182618D01*
X-66566Y182494D01*
X-66579Y182371D01*
X-66597Y182248D01*
X-66618Y182126D01*
X-66643Y182004D01*
X-66672Y181883D01*
X-66705Y181764D01*
X-66741Y181645D01*
X-66782Y181528D01*
X-66825Y181412D01*
X-66873Y181297D01*
X-66924Y181184D01*
X-66979Y181072D01*
X-67037Y180963D01*
X-67098Y180855D01*
X-67163Y180749D01*
X-67231Y180645D01*
X-67303Y180544D01*
X-67377Y180444D01*
X-67455Y180348D01*
X-67535Y180253D01*
X-67619Y180161D01*
X-67705Y180072D01*
X-67794Y179986D01*
X-67886Y179902D01*
X-67981Y179822D01*
X-68077Y179744D01*
X-68177Y179670D01*
X-68278Y179598D01*
X-68382Y179530D01*
X-68488Y179465D01*
X-68596Y179404D01*
X-68705Y179346D01*
X-68817Y179291D01*
X-68930Y179240D01*
X-69045Y179192D01*
X-69161Y179149D01*
X-69278Y179108D01*
X-69397Y179072D01*
X-69516Y179039D01*
X-69637Y179010D01*
X-69759Y178985D01*
X-69881Y178964D01*
X-70004Y178946D01*
X-70127Y178933D01*
X-70251Y178923D01*
X-70375Y178917D01*
X-70499Y178915D01*
X-75438Y136017D02*
X-75438Y118237D01*
X-75438Y136017D02*
X-70499Y136017D01*
X-70360Y136015D01*
X-70222Y136009D01*
X-70084Y136000D01*
X-69946Y135986D01*
X-69809Y135969D01*
X-69672Y135947D01*
X-69535Y135922D01*
X-69400Y135893D01*
X-69265Y135860D01*
X-69132Y135824D01*
X-68999Y135784D01*
X-68868Y135740D01*
X-68738Y135692D01*
X-68609Y135641D01*
X-68482Y135586D01*
X-68356Y135528D01*
X-68232Y135466D01*
X-68110Y135401D01*
X-67990Y135332D01*
X-67871Y135260D01*
X-67755Y135185D01*
X-67641Y135106D01*
X-67529Y135024D01*
X-67420Y134939D01*
X-67312Y134852D01*
X-67208Y134761D01*
X-67106Y134667D01*
X-67007Y134570D01*
X-66910Y134471D01*
X-66816Y134369D01*
X-66725Y134265D01*
X-66638Y134157D01*
X-66553Y134048D01*
X-66471Y133936D01*
X-66392Y133822D01*
X-66317Y133706D01*
X-66245Y133587D01*
X-66176Y133467D01*
X-66111Y133345D01*
X-66049Y133221D01*
X-65991Y133095D01*
X-65936Y132968D01*
X-65885Y132839D01*
X-65837Y132709D01*
X-65793Y132578D01*
X-65753Y132445D01*
X-65717Y132312D01*
X-65684Y132177D01*
X-65655Y132042D01*
X-65630Y131905D01*
X-65608Y131768D01*
X-65591Y131631D01*
X-65577Y131493D01*
X-65568Y131355D01*
X-65562Y131217D01*
X-65560Y131078D01*
X-65560Y123176D01*
X-65562Y123037D01*
X-65568Y122899D01*
X-65577Y122761D01*
X-65591Y122623D01*
X-65608Y122486D01*
X-65630Y122349D01*
X-65655Y122212D01*
X-65684Y122077D01*
X-65717Y121942D01*
X-65753Y121809D01*
X-65793Y121676D01*
X-65837Y121545D01*
X-65885Y121415D01*
X-65936Y121286D01*
X-65991Y121159D01*
X-66049Y121033D01*
X-66111Y120909D01*
X-66176Y120787D01*
X-66245Y120667D01*
X-66317Y120548D01*
X-66392Y120432D01*
X-66471Y120318D01*
X-66553Y120206D01*
X-66638Y120097D01*
X-66725Y119989D01*
X-66816Y119885D01*
X-66910Y119783D01*
X-67007Y119684D01*
X-67106Y119587D01*
X-67208Y119493D01*
X-67312Y119402D01*
X-67420Y119315D01*
X-67529Y119230D01*
X-67641Y119148D01*
X-67755Y119069D01*
X-67871Y118994D01*
X-67990Y118922D01*
X-68110Y118853D01*
X-68232Y118788D01*
X-68356Y118726D01*
X-68482Y118668D01*
X-68609Y118613D01*
X-68738Y118562D01*
X-68868Y118514D01*
X-68999Y118470D01*
X-69132Y118430D01*
X-69265Y118394D01*
X-69400Y118361D01*
X-69535Y118332D01*
X-69672Y118307D01*
X-69809Y118285D01*
X-69946Y118268D01*
X-70084Y118254D01*
X-70222Y118245D01*
X-70360Y118239D01*
X-70499Y118237D01*
X-75438Y118237D01*
X-71487Y143637D02*
X-67536Y143637D01*
X-71487Y143637D02*
X-71611Y143639D01*
X-71735Y143645D01*
X-71859Y143655D01*
X-71982Y143668D01*
X-72105Y143686D01*
X-72227Y143707D01*
X-72349Y143732D01*
X-72470Y143761D01*
X-72589Y143794D01*
X-72708Y143830D01*
X-72825Y143871D01*
X-72941Y143914D01*
X-73056Y143962D01*
X-73169Y144013D01*
X-73281Y144068D01*
X-73390Y144126D01*
X-73498Y144187D01*
X-73604Y144252D01*
X-73708Y144320D01*
X-73809Y144392D01*
X-73909Y144466D01*
X-74005Y144544D01*
X-74100Y144624D01*
X-74192Y144708D01*
X-74281Y144794D01*
X-74367Y144883D01*
X-74451Y144975D01*
X-74531Y145070D01*
X-74609Y145166D01*
X-74683Y145266D01*
X-74755Y145367D01*
X-74823Y145471D01*
X-74888Y145577D01*
X-74949Y145685D01*
X-75007Y145794D01*
X-75062Y145906D01*
X-75113Y146019D01*
X-75161Y146134D01*
X-75204Y146250D01*
X-75245Y146367D01*
X-75281Y146486D01*
X-75314Y146605D01*
X-75343Y146726D01*
X-75368Y146848D01*
X-75389Y146970D01*
X-75407Y147093D01*
X-75420Y147216D01*
X-75430Y147340D01*
X-75436Y147464D01*
X-75438Y147588D01*
X-75438Y157466D01*
X-75436Y157590D01*
X-75430Y157714D01*
X-75420Y157838D01*
X-75407Y157961D01*
X-75389Y158084D01*
X-75368Y158206D01*
X-75343Y158328D01*
X-75314Y158449D01*
X-75281Y158568D01*
X-75245Y158687D01*
X-75204Y158804D01*
X-75161Y158920D01*
X-75113Y159035D01*
X-75062Y159148D01*
X-75007Y159260D01*
X-74949Y159369D01*
X-74888Y159477D01*
X-74823Y159583D01*
X-74755Y159687D01*
X-74683Y159788D01*
X-74609Y159888D01*
X-74531Y159984D01*
X-74451Y160079D01*
X-74367Y160171D01*
X-74281Y160260D01*
X-74192Y160346D01*
X-74100Y160430D01*
X-74005Y160510D01*
X-73909Y160588D01*
X-73809Y160662D01*
X-73708Y160734D01*
X-73604Y160802D01*
X-73498Y160867D01*
X-73390Y160928D01*
X-73281Y160986D01*
X-73169Y161041D01*
X-73056Y161092D01*
X-72942Y161140D01*
X-72825Y161183D01*
X-72708Y161224D01*
X-72589Y161260D01*
X-72470Y161293D01*
X-72349Y161322D01*
X-72227Y161347D01*
X-72105Y161368D01*
X-71982Y161386D01*
X-71859Y161399D01*
X-71735Y161409D01*
X-71611Y161415D01*
X-71487Y161417D01*
X-67536Y161417D01*
X97225Y110490D02*
X97225Y92710D01*
X97225Y110490D02*
X102164Y110490D01*
X102304Y110488D01*
X102443Y110482D01*
X102583Y110472D01*
X102722Y110458D01*
X102861Y110441D01*
X102999Y110419D01*
X103136Y110393D01*
X103273Y110364D01*
X103409Y110331D01*
X103543Y110294D01*
X103677Y110253D01*
X103809Y110208D01*
X103941Y110159D01*
X104070Y110107D01*
X104198Y110052D01*
X104325Y109992D01*
X104450Y109929D01*
X104573Y109863D01*
X104694Y109793D01*
X104813Y109720D01*
X104930Y109643D01*
X105044Y109563D01*
X105157Y109480D01*
X105267Y109394D01*
X105374Y109304D01*
X105479Y109212D01*
X105581Y109117D01*
X105681Y109019D01*
X105778Y108918D01*
X105872Y108814D01*
X105962Y108708D01*
X106050Y108599D01*
X106135Y108488D01*
X106216Y108374D01*
X106295Y108259D01*
X106370Y108141D01*
X106441Y108021D01*
X106509Y107898D01*
X106574Y107775D01*
X106635Y107649D01*
X106693Y107521D01*
X106747Y107393D01*
X106797Y107262D01*
X106844Y107130D01*
X106887Y106997D01*
X106926Y106863D01*
X106961Y106728D01*
X106992Y106592D01*
X107020Y106454D01*
X107043Y106317D01*
X107063Y106178D01*
X107079Y106039D01*
X107091Y105900D01*
X107099Y105761D01*
X107103Y105621D01*
X107103Y105481D01*
X107099Y105341D01*
X107091Y105202D01*
X107079Y105063D01*
X107063Y104924D01*
X107043Y104785D01*
X107020Y104648D01*
X106992Y104510D01*
X106961Y104374D01*
X106926Y104239D01*
X106887Y104105D01*
X106844Y103972D01*
X106797Y103840D01*
X106747Y103709D01*
X106693Y103581D01*
X106635Y103453D01*
X106574Y103327D01*
X106509Y103204D01*
X106441Y103082D01*
X106370Y102961D01*
X106295Y102843D01*
X106216Y102728D01*
X106135Y102614D01*
X106050Y102503D01*
X105962Y102394D01*
X105872Y102288D01*
X105778Y102184D01*
X105681Y102083D01*
X105581Y101985D01*
X105479Y101890D01*
X105374Y101798D01*
X105267Y101708D01*
X105157Y101622D01*
X105044Y101539D01*
X104930Y101459D01*
X104813Y101382D01*
X104694Y101309D01*
X104573Y101239D01*
X104450Y101173D01*
X104325Y101110D01*
X104198Y101050D01*
X104070Y100995D01*
X103941Y100943D01*
X103809Y100894D01*
X103677Y100849D01*
X103543Y100808D01*
X103409Y100771D01*
X103273Y100738D01*
X103136Y100709D01*
X102999Y100683D01*
X102861Y100661D01*
X102722Y100644D01*
X102583Y100630D01*
X102443Y100620D01*
X102304Y100614D01*
X102164Y100612D01*
X97225Y100612D01*
X118653Y110490D02*
X118785Y110488D01*
X118916Y110482D01*
X119048Y110472D01*
X119179Y110459D01*
X119309Y110441D01*
X119439Y110420D01*
X119569Y110395D01*
X119697Y110366D01*
X119825Y110333D01*
X119951Y110296D01*
X120077Y110256D01*
X120201Y110212D01*
X120324Y110164D01*
X120445Y110113D01*
X120565Y110058D01*
X120683Y110000D01*
X120799Y109938D01*
X120913Y109872D01*
X121026Y109804D01*
X121136Y109732D01*
X121244Y109657D01*
X121350Y109578D01*
X121454Y109497D01*
X121555Y109412D01*
X121653Y109325D01*
X121749Y109234D01*
X121842Y109141D01*
X121933Y109045D01*
X122020Y108947D01*
X122105Y108846D01*
X122186Y108742D01*
X122265Y108636D01*
X122340Y108528D01*
X122412Y108418D01*
X122480Y108305D01*
X122546Y108191D01*
X122608Y108075D01*
X122666Y107957D01*
X122721Y107837D01*
X122772Y107716D01*
X122820Y107593D01*
X122864Y107469D01*
X122904Y107343D01*
X122941Y107217D01*
X122974Y107089D01*
X123003Y106961D01*
X123028Y106831D01*
X123049Y106701D01*
X123067Y106571D01*
X123080Y106440D01*
X123090Y106308D01*
X123096Y106177D01*
X123098Y106045D01*
X118653Y110490D02*
X118503Y110488D01*
X118354Y110482D01*
X118205Y110472D01*
X118056Y110459D01*
X117907Y110441D01*
X117759Y110420D01*
X117611Y110394D01*
X117465Y110365D01*
X117319Y110332D01*
X117174Y110295D01*
X117030Y110254D01*
X116887Y110210D01*
X116745Y110162D01*
X116605Y110110D01*
X116466Y110055D01*
X116328Y109996D01*
X116193Y109933D01*
X116058Y109867D01*
X115926Y109797D01*
X115796Y109724D01*
X115667Y109647D01*
X115540Y109567D01*
X115416Y109484D01*
X115294Y109398D01*
X115174Y109308D01*
X115057Y109215D01*
X114942Y109120D01*
X114829Y109021D01*
X114719Y108919D01*
X114612Y108815D01*
X114508Y108708D01*
X114406Y108598D01*
X114308Y108485D01*
X114212Y108370D01*
X114120Y108252D01*
X114030Y108132D01*
X113944Y108010D01*
X113861Y107886D01*
X113781Y107759D01*
X113705Y107631D01*
X113632Y107500D01*
X113562Y107367D01*
X113496Y107233D01*
X113434Y107097D01*
X113375Y106960D01*
X113319Y106821D01*
X113268Y106680D01*
X113220Y106539D01*
X121615Y102588D02*
X121711Y102681D01*
X121803Y102777D01*
X121893Y102876D01*
X121980Y102977D01*
X122065Y103080D01*
X122146Y103185D01*
X122224Y103293D01*
X122299Y103403D01*
X122372Y103515D01*
X122441Y103629D01*
X122507Y103745D01*
X122569Y103863D01*
X122628Y103982D01*
X122684Y104103D01*
X122737Y104226D01*
X122786Y104350D01*
X122831Y104475D01*
X122874Y104602D01*
X122912Y104729D01*
X122947Y104858D01*
X122978Y104987D01*
X123006Y105118D01*
X123030Y105249D01*
X123051Y105381D01*
X123067Y105513D01*
X123080Y105646D01*
X123090Y105779D01*
X123095Y105912D01*
X123097Y106045D01*
X121616Y102588D02*
X113220Y92710D01*
X123098Y92710D01*
X135467Y99624D02*
X135467Y105551D01*
X135467Y99624D02*
X138925Y95179D01*
X135467Y99624D02*
X132010Y95179D01*
X135467Y99624D02*
X140900Y101600D01*
X135467Y99624D02*
X130035Y101600D01*
D122*
X26000Y166725D02*
X-22000Y166725D01*
X-26000Y162225D01*
X26000Y166725D02*
X26000Y131725D01*
X-26000Y131725D01*
X-26000Y162225D01*
D123*
X-4181Y170188D02*
X-4181Y177554D01*
X-2135Y177554D01*
X-2046Y177552D01*
X-1957Y177546D01*
X-1868Y177536D01*
X-1780Y177523D01*
X-1692Y177506D01*
X-1605Y177484D01*
X-1520Y177459D01*
X-1435Y177431D01*
X-1352Y177398D01*
X-1270Y177362D01*
X-1190Y177323D01*
X-1112Y177280D01*
X-1036Y177234D01*
X-961Y177184D01*
X-889Y177131D01*
X-820Y177075D01*
X-753Y177016D01*
X-688Y176955D01*
X-627Y176890D01*
X-568Y176823D01*
X-512Y176754D01*
X-459Y176682D01*
X-409Y176607D01*
X-363Y176531D01*
X-320Y176453D01*
X-281Y176373D01*
X-245Y176291D01*
X-212Y176208D01*
X-184Y176123D01*
X-159Y176038D01*
X-137Y175951D01*
X-120Y175863D01*
X-107Y175775D01*
X-97Y175686D01*
X-91Y175597D01*
X-89Y175508D01*
X-89Y172234D01*
X-91Y172145D01*
X-97Y172056D01*
X-107Y171967D01*
X-120Y171879D01*
X-137Y171791D01*
X-159Y171704D01*
X-184Y171619D01*
X-212Y171534D01*
X-245Y171451D01*
X-281Y171369D01*
X-320Y171289D01*
X-363Y171211D01*
X-409Y171135D01*
X-459Y171060D01*
X-512Y170988D01*
X-568Y170919D01*
X-627Y170852D01*
X-688Y170787D01*
X-753Y170726D01*
X-820Y170667D01*
X-889Y170611D01*
X-961Y170558D01*
X-1036Y170508D01*
X-1112Y170462D01*
X-1190Y170419D01*
X-1270Y170380D01*
X-1352Y170344D01*
X-1435Y170311D01*
X-1520Y170283D01*
X-1605Y170258D01*
X-1692Y170236D01*
X-1780Y170219D01*
X-1868Y170206D01*
X-1957Y170196D01*
X-2046Y170190D01*
X-2135Y170188D01*
X-4181Y170188D01*
X5629Y177555D02*
X5714Y177553D01*
X5799Y177547D01*
X5883Y177537D01*
X5967Y177524D01*
X6051Y177506D01*
X6133Y177485D01*
X6214Y177460D01*
X6294Y177431D01*
X6373Y177398D01*
X6450Y177362D01*
X6525Y177322D01*
X6599Y177279D01*
X6670Y177233D01*
X6739Y177183D01*
X6806Y177130D01*
X6870Y177074D01*
X6931Y177015D01*
X6990Y176954D01*
X7046Y176890D01*
X7099Y176823D01*
X7149Y176754D01*
X7195Y176683D01*
X7238Y176609D01*
X7278Y176534D01*
X7314Y176457D01*
X7347Y176378D01*
X7376Y176298D01*
X7401Y176217D01*
X7422Y176135D01*
X7440Y176051D01*
X7453Y175967D01*
X7463Y175883D01*
X7469Y175798D01*
X7471Y175713D01*
X5629Y177554D02*
X5533Y177552D01*
X5437Y177546D01*
X5342Y177536D01*
X5247Y177523D01*
X5152Y177505D01*
X5059Y177484D01*
X4966Y177459D01*
X4875Y177430D01*
X4784Y177398D01*
X4695Y177362D01*
X4608Y177322D01*
X4522Y177279D01*
X4438Y177233D01*
X4356Y177183D01*
X4276Y177129D01*
X4199Y177073D01*
X4124Y177013D01*
X4051Y176951D01*
X3981Y176885D01*
X3913Y176817D01*
X3848Y176746D01*
X3787Y176673D01*
X3728Y176597D01*
X3672Y176518D01*
X3620Y176438D01*
X3571Y176355D01*
X3525Y176271D01*
X3483Y176185D01*
X3445Y176097D01*
X3410Y176008D01*
X3378Y175917D01*
X6856Y174281D02*
X6916Y174340D01*
X6973Y174402D01*
X7028Y174466D01*
X7079Y174533D01*
X7128Y174602D01*
X7174Y174672D01*
X7217Y174745D01*
X7257Y174819D01*
X7293Y174895D01*
X7326Y174973D01*
X7356Y175052D01*
X7383Y175132D01*
X7406Y175213D01*
X7425Y175295D01*
X7441Y175377D01*
X7454Y175461D01*
X7463Y175545D01*
X7468Y175629D01*
X7470Y175713D01*
X6857Y174281D02*
X3378Y170188D01*
X7470Y170188D01*
D11*
X0Y117094D02*
X0Y107696D01*
X10414Y97282D01*
X0Y107442D02*
X-9398Y98044D01*
X-9398Y97028D01*
D123*
X-21243Y104972D02*
X-24517Y104972D01*
X-24517Y104973D02*
X-24606Y104975D01*
X-24695Y104981D01*
X-24784Y104991D01*
X-24872Y105004D01*
X-24960Y105021D01*
X-25047Y105043D01*
X-25132Y105068D01*
X-25217Y105096D01*
X-25300Y105129D01*
X-25382Y105165D01*
X-25462Y105204D01*
X-25540Y105247D01*
X-25616Y105293D01*
X-25691Y105343D01*
X-25763Y105396D01*
X-25832Y105452D01*
X-25899Y105511D01*
X-25964Y105572D01*
X-26025Y105637D01*
X-26084Y105704D01*
X-26140Y105773D01*
X-26193Y105845D01*
X-26243Y105920D01*
X-26289Y105996D01*
X-26332Y106074D01*
X-26371Y106154D01*
X-26407Y106236D01*
X-26440Y106319D01*
X-26468Y106404D01*
X-26493Y106489D01*
X-26515Y106576D01*
X-26532Y106664D01*
X-26545Y106752D01*
X-26555Y106841D01*
X-26561Y106930D01*
X-26563Y107019D01*
X-26561Y107108D01*
X-26555Y107197D01*
X-26545Y107286D01*
X-26532Y107374D01*
X-26515Y107462D01*
X-26493Y107549D01*
X-26468Y107634D01*
X-26440Y107719D01*
X-26407Y107802D01*
X-26371Y107884D01*
X-26332Y107964D01*
X-26289Y108042D01*
X-26243Y108118D01*
X-26193Y108193D01*
X-26140Y108265D01*
X-26084Y108334D01*
X-26025Y108401D01*
X-25964Y108466D01*
X-25899Y108527D01*
X-25832Y108586D01*
X-25763Y108642D01*
X-25691Y108695D01*
X-25616Y108745D01*
X-25540Y108791D01*
X-25462Y108834D01*
X-25382Y108873D01*
X-25300Y108909D01*
X-25217Y108942D01*
X-25132Y108970D01*
X-25047Y108995D01*
X-24960Y109017D01*
X-24872Y109034D01*
X-24784Y109047D01*
X-24695Y109057D01*
X-24606Y109063D01*
X-24517Y109065D01*
X-21243Y109065D01*
X-21154Y109063D01*
X-21065Y109057D01*
X-20976Y109047D01*
X-20888Y109034D01*
X-20800Y109017D01*
X-20713Y108995D01*
X-20628Y108970D01*
X-20543Y108942D01*
X-20460Y108909D01*
X-20378Y108873D01*
X-20298Y108834D01*
X-20220Y108791D01*
X-20144Y108745D01*
X-20069Y108695D01*
X-19997Y108642D01*
X-19928Y108586D01*
X-19861Y108527D01*
X-19796Y108466D01*
X-19735Y108401D01*
X-19676Y108334D01*
X-19620Y108265D01*
X-19567Y108193D01*
X-19517Y108118D01*
X-19471Y108042D01*
X-19428Y107964D01*
X-19389Y107884D01*
X-19353Y107802D01*
X-19320Y107719D01*
X-19292Y107634D01*
X-19267Y107549D01*
X-19245Y107462D01*
X-19228Y107374D01*
X-19215Y107286D01*
X-19205Y107197D01*
X-19199Y107108D01*
X-19197Y107019D01*
X-19199Y106930D01*
X-19205Y106841D01*
X-19215Y106752D01*
X-19228Y106664D01*
X-19245Y106576D01*
X-19267Y106489D01*
X-19292Y106404D01*
X-19320Y106319D01*
X-19353Y106236D01*
X-19389Y106154D01*
X-19428Y106074D01*
X-19471Y105996D01*
X-19517Y105920D01*
X-19567Y105845D01*
X-19620Y105773D01*
X-19676Y105704D01*
X-19735Y105637D01*
X-19796Y105572D01*
X-19861Y105511D01*
X-19928Y105452D01*
X-19997Y105396D01*
X-20069Y105343D01*
X-20144Y105293D01*
X-20220Y105247D01*
X-20298Y105204D01*
X-20378Y105165D01*
X-20460Y105129D01*
X-20543Y105096D01*
X-20628Y105068D01*
X-20713Y105043D01*
X-20800Y105021D01*
X-20888Y105004D01*
X-20976Y104991D01*
X-21065Y104981D01*
X-21154Y104975D01*
X-21243Y104973D01*
X-20834Y108246D02*
X-19197Y109883D01*
X-24926Y112068D02*
X-26563Y114114D01*
X-19197Y114114D01*
X-19197Y112068D02*
X-19197Y116160D01*
D11*
X35263Y195644D02*
X35263Y205042D01*
X24849Y215456D01*
X35263Y205296D02*
X44661Y214694D01*
X44661Y215710D01*
D123*
X29660Y229372D02*
X29660Y232646D01*
X29662Y232735D01*
X29668Y232824D01*
X29678Y232913D01*
X29691Y233001D01*
X29708Y233089D01*
X29730Y233176D01*
X29755Y233261D01*
X29783Y233346D01*
X29816Y233429D01*
X29852Y233511D01*
X29891Y233591D01*
X29934Y233669D01*
X29980Y233745D01*
X30030Y233820D01*
X30083Y233892D01*
X30139Y233961D01*
X30198Y234028D01*
X30259Y234093D01*
X30324Y234154D01*
X30391Y234213D01*
X30460Y234269D01*
X30532Y234322D01*
X30607Y234372D01*
X30683Y234418D01*
X30761Y234461D01*
X30841Y234500D01*
X30923Y234536D01*
X31006Y234569D01*
X31091Y234597D01*
X31176Y234622D01*
X31263Y234644D01*
X31351Y234661D01*
X31439Y234674D01*
X31528Y234684D01*
X31617Y234690D01*
X31706Y234692D01*
X31795Y234690D01*
X31884Y234684D01*
X31973Y234674D01*
X32061Y234661D01*
X32149Y234644D01*
X32236Y234622D01*
X32321Y234597D01*
X32406Y234569D01*
X32489Y234536D01*
X32571Y234500D01*
X32651Y234461D01*
X32729Y234418D01*
X32805Y234372D01*
X32880Y234322D01*
X32952Y234269D01*
X33021Y234213D01*
X33088Y234154D01*
X33153Y234093D01*
X33214Y234028D01*
X33273Y233961D01*
X33329Y233892D01*
X33382Y233820D01*
X33432Y233745D01*
X33478Y233669D01*
X33521Y233591D01*
X33560Y233511D01*
X33596Y233429D01*
X33629Y233346D01*
X33657Y233261D01*
X33682Y233176D01*
X33704Y233089D01*
X33721Y233001D01*
X33734Y232913D01*
X33744Y232824D01*
X33750Y232735D01*
X33752Y232646D01*
X33752Y229372D01*
X33750Y229283D01*
X33744Y229194D01*
X33734Y229105D01*
X33721Y229017D01*
X33704Y228929D01*
X33682Y228842D01*
X33657Y228757D01*
X33629Y228672D01*
X33596Y228589D01*
X33560Y228507D01*
X33521Y228427D01*
X33478Y228349D01*
X33432Y228273D01*
X33382Y228198D01*
X33329Y228126D01*
X33273Y228057D01*
X33214Y227990D01*
X33153Y227925D01*
X33088Y227864D01*
X33021Y227805D01*
X32952Y227749D01*
X32880Y227696D01*
X32805Y227646D01*
X32729Y227600D01*
X32651Y227557D01*
X32571Y227518D01*
X32489Y227482D01*
X32406Y227449D01*
X32321Y227421D01*
X32236Y227396D01*
X32149Y227374D01*
X32061Y227357D01*
X31973Y227344D01*
X31884Y227334D01*
X31795Y227328D01*
X31706Y227326D01*
X31617Y227328D01*
X31528Y227334D01*
X31439Y227344D01*
X31351Y227357D01*
X31263Y227374D01*
X31176Y227396D01*
X31091Y227421D01*
X31006Y227449D01*
X30923Y227482D01*
X30841Y227518D01*
X30761Y227557D01*
X30683Y227600D01*
X30607Y227646D01*
X30532Y227696D01*
X30460Y227749D01*
X30391Y227805D01*
X30324Y227864D01*
X30259Y227925D01*
X30198Y227990D01*
X30139Y228057D01*
X30083Y228126D01*
X30030Y228198D01*
X29980Y228273D01*
X29934Y228349D01*
X29891Y228427D01*
X29852Y228507D01*
X29816Y228589D01*
X29783Y228672D01*
X29755Y228757D01*
X29730Y228842D01*
X29708Y228929D01*
X29691Y229017D01*
X29678Y229105D01*
X29668Y229194D01*
X29662Y229283D01*
X29660Y229372D01*
X32934Y228963D02*
X34571Y227326D01*
X40848Y232851D02*
X40846Y232936D01*
X40840Y233021D01*
X40830Y233105D01*
X40817Y233189D01*
X40799Y233273D01*
X40778Y233355D01*
X40753Y233436D01*
X40724Y233516D01*
X40691Y233595D01*
X40655Y233672D01*
X40615Y233747D01*
X40572Y233821D01*
X40526Y233892D01*
X40476Y233961D01*
X40423Y234028D01*
X40367Y234092D01*
X40308Y234153D01*
X40247Y234212D01*
X40183Y234268D01*
X40116Y234321D01*
X40047Y234371D01*
X39976Y234417D01*
X39902Y234460D01*
X39827Y234500D01*
X39750Y234536D01*
X39671Y234569D01*
X39591Y234598D01*
X39510Y234623D01*
X39428Y234644D01*
X39344Y234662D01*
X39260Y234675D01*
X39176Y234685D01*
X39091Y234691D01*
X39006Y234693D01*
X38910Y234691D01*
X38814Y234685D01*
X38719Y234675D01*
X38624Y234662D01*
X38529Y234644D01*
X38436Y234623D01*
X38343Y234598D01*
X38252Y234569D01*
X38161Y234537D01*
X38072Y234501D01*
X37985Y234461D01*
X37899Y234418D01*
X37815Y234372D01*
X37733Y234322D01*
X37653Y234268D01*
X37576Y234212D01*
X37501Y234152D01*
X37428Y234090D01*
X37358Y234024D01*
X37290Y233956D01*
X37225Y233885D01*
X37164Y233812D01*
X37105Y233736D01*
X37049Y233657D01*
X36997Y233577D01*
X36948Y233494D01*
X36902Y233410D01*
X36860Y233324D01*
X36822Y233236D01*
X36787Y233147D01*
X36755Y233056D01*
X40234Y231419D02*
X40294Y231478D01*
X40351Y231540D01*
X40406Y231604D01*
X40457Y231671D01*
X40506Y231740D01*
X40552Y231810D01*
X40595Y231883D01*
X40635Y231957D01*
X40671Y232033D01*
X40704Y232111D01*
X40734Y232190D01*
X40761Y232270D01*
X40784Y232351D01*
X40803Y232433D01*
X40819Y232515D01*
X40832Y232599D01*
X40841Y232683D01*
X40846Y232767D01*
X40848Y232851D01*
X40234Y231419D02*
X36755Y227326D01*
X40848Y227326D01*
D11*
X-41275Y203454D02*
X-41275Y194056D01*
X-41275Y203454D02*
X-51689Y213868D01*
X-41275Y203708D02*
X-31877Y213106D01*
X-31877Y214122D01*
D123*
X-46167Y228649D02*
X-46167Y231923D01*
X-46166Y231923D02*
X-46164Y232012D01*
X-46158Y232101D01*
X-46148Y232190D01*
X-46135Y232278D01*
X-46118Y232366D01*
X-46096Y232453D01*
X-46071Y232538D01*
X-46043Y232623D01*
X-46010Y232706D01*
X-45974Y232788D01*
X-45935Y232868D01*
X-45892Y232946D01*
X-45846Y233022D01*
X-45796Y233097D01*
X-45743Y233169D01*
X-45687Y233238D01*
X-45628Y233305D01*
X-45567Y233370D01*
X-45502Y233431D01*
X-45435Y233490D01*
X-45366Y233546D01*
X-45294Y233599D01*
X-45219Y233649D01*
X-45143Y233695D01*
X-45065Y233738D01*
X-44985Y233777D01*
X-44903Y233813D01*
X-44820Y233846D01*
X-44735Y233874D01*
X-44650Y233899D01*
X-44563Y233921D01*
X-44475Y233938D01*
X-44387Y233951D01*
X-44298Y233961D01*
X-44209Y233967D01*
X-44120Y233969D01*
X-44031Y233967D01*
X-43942Y233961D01*
X-43853Y233951D01*
X-43765Y233938D01*
X-43677Y233921D01*
X-43590Y233899D01*
X-43505Y233874D01*
X-43420Y233846D01*
X-43337Y233813D01*
X-43255Y233777D01*
X-43175Y233738D01*
X-43097Y233695D01*
X-43021Y233649D01*
X-42946Y233599D01*
X-42874Y233546D01*
X-42805Y233490D01*
X-42738Y233431D01*
X-42673Y233370D01*
X-42612Y233305D01*
X-42553Y233238D01*
X-42497Y233169D01*
X-42444Y233097D01*
X-42394Y233022D01*
X-42348Y232946D01*
X-42305Y232868D01*
X-42266Y232788D01*
X-42230Y232706D01*
X-42197Y232623D01*
X-42169Y232538D01*
X-42144Y232453D01*
X-42122Y232366D01*
X-42105Y232278D01*
X-42092Y232190D01*
X-42082Y232101D01*
X-42076Y232012D01*
X-42074Y231923D01*
X-42074Y228649D01*
X-42076Y228560D01*
X-42082Y228471D01*
X-42092Y228382D01*
X-42105Y228294D01*
X-42122Y228206D01*
X-42144Y228119D01*
X-42169Y228034D01*
X-42197Y227949D01*
X-42230Y227866D01*
X-42266Y227784D01*
X-42305Y227704D01*
X-42348Y227626D01*
X-42394Y227550D01*
X-42444Y227475D01*
X-42497Y227403D01*
X-42553Y227334D01*
X-42612Y227267D01*
X-42673Y227202D01*
X-42738Y227141D01*
X-42805Y227082D01*
X-42874Y227026D01*
X-42946Y226973D01*
X-43021Y226923D01*
X-43097Y226877D01*
X-43175Y226834D01*
X-43255Y226795D01*
X-43337Y226759D01*
X-43420Y226726D01*
X-43505Y226698D01*
X-43590Y226673D01*
X-43677Y226651D01*
X-43765Y226634D01*
X-43853Y226621D01*
X-43942Y226611D01*
X-44031Y226605D01*
X-44120Y226603D01*
X-44209Y226605D01*
X-44298Y226611D01*
X-44387Y226621D01*
X-44475Y226634D01*
X-44563Y226651D01*
X-44650Y226673D01*
X-44735Y226698D01*
X-44820Y226726D01*
X-44903Y226759D01*
X-44985Y226795D01*
X-45065Y226834D01*
X-45143Y226877D01*
X-45219Y226923D01*
X-45294Y226973D01*
X-45366Y227026D01*
X-45435Y227082D01*
X-45502Y227141D01*
X-45567Y227202D01*
X-45628Y227267D01*
X-45687Y227334D01*
X-45743Y227403D01*
X-45796Y227475D01*
X-45846Y227550D01*
X-45892Y227626D01*
X-45935Y227704D01*
X-45974Y227784D01*
X-46010Y227866D01*
X-46043Y227949D01*
X-46071Y228034D01*
X-46096Y228119D01*
X-46118Y228206D01*
X-46135Y228294D01*
X-46148Y228382D01*
X-46158Y228471D01*
X-46164Y228560D01*
X-46166Y228649D01*
X-42893Y228240D02*
X-41256Y226603D01*
X-39071Y226603D02*
X-37025Y226603D01*
X-36936Y226605D01*
X-36847Y226611D01*
X-36758Y226621D01*
X-36670Y226634D01*
X-36582Y226651D01*
X-36495Y226673D01*
X-36410Y226698D01*
X-36325Y226726D01*
X-36242Y226759D01*
X-36160Y226795D01*
X-36080Y226834D01*
X-36002Y226877D01*
X-35926Y226923D01*
X-35851Y226973D01*
X-35779Y227026D01*
X-35710Y227082D01*
X-35643Y227141D01*
X-35578Y227202D01*
X-35517Y227267D01*
X-35458Y227334D01*
X-35402Y227403D01*
X-35349Y227475D01*
X-35299Y227550D01*
X-35253Y227626D01*
X-35210Y227704D01*
X-35171Y227784D01*
X-35135Y227866D01*
X-35102Y227949D01*
X-35074Y228034D01*
X-35049Y228119D01*
X-35027Y228206D01*
X-35010Y228294D01*
X-34997Y228382D01*
X-34987Y228471D01*
X-34981Y228560D01*
X-34979Y228649D01*
X-34981Y228738D01*
X-34987Y228827D01*
X-34997Y228916D01*
X-35010Y229004D01*
X-35027Y229092D01*
X-35049Y229179D01*
X-35074Y229264D01*
X-35102Y229349D01*
X-35135Y229432D01*
X-35171Y229514D01*
X-35210Y229594D01*
X-35253Y229672D01*
X-35299Y229748D01*
X-35349Y229823D01*
X-35402Y229895D01*
X-35458Y229964D01*
X-35517Y230031D01*
X-35578Y230096D01*
X-35643Y230157D01*
X-35710Y230216D01*
X-35779Y230272D01*
X-35851Y230325D01*
X-35926Y230375D01*
X-36002Y230421D01*
X-36080Y230464D01*
X-36160Y230503D01*
X-36242Y230539D01*
X-36325Y230572D01*
X-36410Y230600D01*
X-36495Y230625D01*
X-36582Y230647D01*
X-36670Y230664D01*
X-36758Y230677D01*
X-36847Y230687D01*
X-36936Y230693D01*
X-37025Y230695D01*
X-36616Y233969D02*
X-39071Y233969D01*
X-36616Y233969D02*
X-36537Y233967D01*
X-36458Y233961D01*
X-36379Y233952D01*
X-36301Y233939D01*
X-36224Y233921D01*
X-36148Y233901D01*
X-36073Y233876D01*
X-35999Y233848D01*
X-35926Y233817D01*
X-35855Y233781D01*
X-35786Y233743D01*
X-35719Y233701D01*
X-35654Y233656D01*
X-35591Y233608D01*
X-35530Y233557D01*
X-35473Y233503D01*
X-35417Y233447D01*
X-35365Y233388D01*
X-35315Y233326D01*
X-35269Y233262D01*
X-35225Y233196D01*
X-35185Y233128D01*
X-35149Y233058D01*
X-35115Y232986D01*
X-35085Y232912D01*
X-35059Y232838D01*
X-35036Y232762D01*
X-35018Y232685D01*
X-35002Y232608D01*
X-34991Y232529D01*
X-34983Y232451D01*
X-34979Y232372D01*
X-34979Y232292D01*
X-34983Y232213D01*
X-34991Y232135D01*
X-35002Y232056D01*
X-35018Y231979D01*
X-35036Y231902D01*
X-35059Y231826D01*
X-35085Y231752D01*
X-35115Y231678D01*
X-35149Y231606D01*
X-35185Y231536D01*
X-35225Y231468D01*
X-35269Y231402D01*
X-35315Y231338D01*
X-35365Y231276D01*
X-35417Y231217D01*
X-35473Y231161D01*
X-35530Y231107D01*
X-35591Y231056D01*
X-35654Y231008D01*
X-35719Y230963D01*
X-35786Y230921D01*
X-35855Y230883D01*
X-35926Y230847D01*
X-35999Y230816D01*
X-36073Y230788D01*
X-36148Y230763D01*
X-36224Y230743D01*
X-36301Y230725D01*
X-36379Y230712D01*
X-36458Y230703D01*
X-36537Y230697D01*
X-36616Y230695D01*
X-38253Y230695D01*
D124*
X-45691Y169990D02*
X-45691Y163640D01*
D123*
X-42638Y137356D02*
X-50004Y137356D01*
X-50004Y139402D01*
X-50002Y139491D01*
X-49996Y139580D01*
X-49986Y139669D01*
X-49973Y139757D01*
X-49956Y139845D01*
X-49934Y139932D01*
X-49909Y140017D01*
X-49881Y140102D01*
X-49848Y140185D01*
X-49812Y140267D01*
X-49773Y140347D01*
X-49730Y140425D01*
X-49684Y140501D01*
X-49634Y140576D01*
X-49581Y140648D01*
X-49525Y140717D01*
X-49466Y140784D01*
X-49405Y140849D01*
X-49340Y140910D01*
X-49273Y140969D01*
X-49204Y141025D01*
X-49132Y141078D01*
X-49057Y141128D01*
X-48981Y141174D01*
X-48903Y141217D01*
X-48823Y141256D01*
X-48741Y141292D01*
X-48658Y141325D01*
X-48573Y141353D01*
X-48488Y141378D01*
X-48401Y141400D01*
X-48313Y141417D01*
X-48225Y141430D01*
X-48136Y141440D01*
X-48047Y141446D01*
X-47958Y141448D01*
X-47869Y141446D01*
X-47780Y141440D01*
X-47691Y141430D01*
X-47603Y141417D01*
X-47515Y141400D01*
X-47428Y141378D01*
X-47343Y141353D01*
X-47258Y141325D01*
X-47175Y141292D01*
X-47093Y141256D01*
X-47013Y141217D01*
X-46935Y141174D01*
X-46859Y141128D01*
X-46784Y141078D01*
X-46712Y141025D01*
X-46643Y140969D01*
X-46576Y140910D01*
X-46511Y140849D01*
X-46450Y140784D01*
X-46391Y140717D01*
X-46335Y140648D01*
X-46282Y140576D01*
X-46232Y140501D01*
X-46186Y140425D01*
X-46143Y140347D01*
X-46104Y140267D01*
X-46068Y140185D01*
X-46035Y140102D01*
X-46007Y140017D01*
X-45982Y139932D01*
X-45960Y139845D01*
X-45943Y139757D01*
X-45930Y139669D01*
X-45920Y139580D01*
X-45914Y139491D01*
X-45912Y139402D01*
X-45912Y137356D01*
X-45912Y139811D02*
X-42638Y141448D01*
X-44275Y144620D02*
X-50004Y146256D01*
X-44275Y144620D02*
X-44275Y148712D01*
X-45912Y147484D02*
X-42638Y147484D01*
D124*
X39688Y163640D02*
X39688Y169990D01*
D123*
X49192Y160228D02*
X56558Y160228D01*
X49192Y160228D02*
X49192Y162274D01*
X49194Y162363D01*
X49200Y162452D01*
X49210Y162541D01*
X49223Y162629D01*
X49240Y162717D01*
X49262Y162804D01*
X49287Y162889D01*
X49315Y162974D01*
X49348Y163057D01*
X49384Y163139D01*
X49423Y163219D01*
X49466Y163297D01*
X49512Y163373D01*
X49562Y163448D01*
X49615Y163520D01*
X49671Y163589D01*
X49730Y163656D01*
X49791Y163721D01*
X49856Y163782D01*
X49923Y163841D01*
X49992Y163897D01*
X50064Y163950D01*
X50139Y164000D01*
X50215Y164046D01*
X50293Y164089D01*
X50373Y164128D01*
X50455Y164164D01*
X50538Y164197D01*
X50623Y164225D01*
X50708Y164250D01*
X50795Y164272D01*
X50883Y164289D01*
X50971Y164302D01*
X51060Y164312D01*
X51149Y164318D01*
X51238Y164320D01*
X51327Y164318D01*
X51416Y164312D01*
X51505Y164302D01*
X51593Y164289D01*
X51681Y164272D01*
X51768Y164250D01*
X51853Y164225D01*
X51938Y164197D01*
X52021Y164164D01*
X52103Y164128D01*
X52183Y164089D01*
X52261Y164046D01*
X52337Y164000D01*
X52412Y163950D01*
X52484Y163897D01*
X52553Y163841D01*
X52620Y163782D01*
X52685Y163721D01*
X52746Y163656D01*
X52805Y163589D01*
X52861Y163520D01*
X52914Y163448D01*
X52964Y163373D01*
X53010Y163297D01*
X53053Y163219D01*
X53092Y163139D01*
X53128Y163057D01*
X53161Y162974D01*
X53189Y162889D01*
X53214Y162804D01*
X53236Y162717D01*
X53253Y162629D01*
X53266Y162541D01*
X53276Y162452D01*
X53282Y162363D01*
X53284Y162274D01*
X53284Y160228D01*
X53284Y162684D02*
X56558Y164321D01*
X56558Y167492D02*
X56558Y169948D01*
X56556Y170026D01*
X56551Y170104D01*
X56541Y170181D01*
X56528Y170258D01*
X56512Y170334D01*
X56492Y170409D01*
X56468Y170483D01*
X56441Y170556D01*
X56410Y170628D01*
X56376Y170698D01*
X56339Y170767D01*
X56298Y170833D01*
X56254Y170898D01*
X56208Y170960D01*
X56158Y171020D01*
X56106Y171078D01*
X56051Y171133D01*
X55993Y171185D01*
X55933Y171235D01*
X55871Y171281D01*
X55806Y171325D01*
X55740Y171366D01*
X55671Y171403D01*
X55601Y171437D01*
X55529Y171468D01*
X55456Y171495D01*
X55382Y171519D01*
X55307Y171539D01*
X55231Y171555D01*
X55154Y171568D01*
X55077Y171578D01*
X54999Y171583D01*
X54921Y171585D01*
X54103Y171585D01*
X54023Y171583D01*
X53943Y171577D01*
X53863Y171567D01*
X53784Y171554D01*
X53705Y171536D01*
X53628Y171515D01*
X53552Y171489D01*
X53477Y171460D01*
X53403Y171428D01*
X53331Y171392D01*
X53261Y171352D01*
X53194Y171309D01*
X53128Y171263D01*
X53065Y171213D01*
X53004Y171161D01*
X52945Y171106D01*
X52890Y171047D01*
X52838Y170987D01*
X52788Y170923D01*
X52742Y170857D01*
X52699Y170790D01*
X52659Y170720D01*
X52623Y170648D01*
X52591Y170574D01*
X52562Y170500D01*
X52536Y170423D01*
X52515Y170346D01*
X52497Y170267D01*
X52484Y170188D01*
X52474Y170108D01*
X52468Y170028D01*
X52466Y169948D01*
X52466Y167492D01*
X49192Y167492D01*
X49192Y171585D01*
D124*
X26988Y117348D02*
X26988Y110998D01*
D123*
X36546Y108781D02*
X43912Y108781D01*
X36546Y108781D02*
X36546Y110827D01*
X36548Y110916D01*
X36554Y111005D01*
X36564Y111094D01*
X36577Y111182D01*
X36594Y111270D01*
X36616Y111357D01*
X36641Y111442D01*
X36669Y111527D01*
X36702Y111610D01*
X36738Y111692D01*
X36777Y111772D01*
X36820Y111850D01*
X36866Y111926D01*
X36916Y112001D01*
X36969Y112073D01*
X37025Y112142D01*
X37084Y112209D01*
X37145Y112274D01*
X37210Y112335D01*
X37277Y112394D01*
X37346Y112450D01*
X37418Y112503D01*
X37493Y112553D01*
X37569Y112599D01*
X37647Y112642D01*
X37727Y112681D01*
X37809Y112717D01*
X37892Y112750D01*
X37977Y112778D01*
X38062Y112803D01*
X38149Y112825D01*
X38237Y112842D01*
X38325Y112855D01*
X38414Y112865D01*
X38503Y112871D01*
X38592Y112873D01*
X38681Y112871D01*
X38770Y112865D01*
X38859Y112855D01*
X38947Y112842D01*
X39035Y112825D01*
X39122Y112803D01*
X39207Y112778D01*
X39292Y112750D01*
X39375Y112717D01*
X39457Y112681D01*
X39537Y112642D01*
X39615Y112599D01*
X39691Y112553D01*
X39766Y112503D01*
X39838Y112450D01*
X39907Y112394D01*
X39974Y112335D01*
X40039Y112274D01*
X40100Y112209D01*
X40159Y112142D01*
X40215Y112073D01*
X40268Y112001D01*
X40318Y111926D01*
X40364Y111850D01*
X40407Y111772D01*
X40446Y111692D01*
X40482Y111610D01*
X40515Y111527D01*
X40543Y111442D01*
X40568Y111357D01*
X40590Y111270D01*
X40607Y111182D01*
X40620Y111094D01*
X40630Y111005D01*
X40636Y110916D01*
X40638Y110827D01*
X40638Y108781D01*
X40638Y111236D02*
X43912Y112873D01*
X39819Y116045D02*
X39819Y118500D01*
X39821Y118578D01*
X39826Y118656D01*
X39836Y118733D01*
X39849Y118810D01*
X39865Y118886D01*
X39885Y118961D01*
X39909Y119035D01*
X39936Y119108D01*
X39967Y119180D01*
X40001Y119250D01*
X40038Y119319D01*
X40079Y119385D01*
X40123Y119450D01*
X40169Y119512D01*
X40219Y119572D01*
X40271Y119630D01*
X40326Y119685D01*
X40384Y119737D01*
X40444Y119787D01*
X40506Y119833D01*
X40571Y119877D01*
X40638Y119918D01*
X40706Y119955D01*
X40776Y119989D01*
X40848Y120020D01*
X40921Y120047D01*
X40995Y120071D01*
X41070Y120091D01*
X41146Y120107D01*
X41223Y120120D01*
X41300Y120130D01*
X41378Y120135D01*
X41456Y120137D01*
X41865Y120137D01*
X41954Y120135D01*
X42043Y120129D01*
X42132Y120119D01*
X42220Y120106D01*
X42308Y120089D01*
X42395Y120067D01*
X42480Y120042D01*
X42565Y120014D01*
X42648Y119981D01*
X42730Y119945D01*
X42810Y119906D01*
X42888Y119863D01*
X42964Y119817D01*
X43039Y119767D01*
X43111Y119714D01*
X43180Y119658D01*
X43247Y119599D01*
X43312Y119538D01*
X43373Y119473D01*
X43432Y119406D01*
X43488Y119337D01*
X43541Y119265D01*
X43591Y119190D01*
X43637Y119114D01*
X43680Y119036D01*
X43719Y118956D01*
X43755Y118874D01*
X43788Y118791D01*
X43816Y118706D01*
X43841Y118621D01*
X43863Y118534D01*
X43880Y118446D01*
X43893Y118358D01*
X43903Y118269D01*
X43909Y118180D01*
X43911Y118091D01*
X43909Y118002D01*
X43903Y117913D01*
X43893Y117824D01*
X43880Y117736D01*
X43863Y117648D01*
X43841Y117561D01*
X43816Y117476D01*
X43788Y117391D01*
X43755Y117308D01*
X43719Y117226D01*
X43680Y117146D01*
X43637Y117068D01*
X43591Y116992D01*
X43541Y116917D01*
X43488Y116845D01*
X43432Y116776D01*
X43373Y116709D01*
X43312Y116644D01*
X43247Y116583D01*
X43180Y116524D01*
X43111Y116468D01*
X43039Y116415D01*
X42964Y116365D01*
X42888Y116319D01*
X42810Y116276D01*
X42730Y116237D01*
X42648Y116201D01*
X42565Y116168D01*
X42480Y116140D01*
X42395Y116115D01*
X42308Y116093D01*
X42220Y116076D01*
X42132Y116063D01*
X42043Y116053D01*
X41954Y116047D01*
X41865Y116045D01*
X39819Y116045D01*
X39705Y116047D01*
X39591Y116053D01*
X39477Y116063D01*
X39363Y116077D01*
X39250Y116095D01*
X39138Y116117D01*
X39027Y116142D01*
X38917Y116172D01*
X38807Y116205D01*
X38699Y116242D01*
X38593Y116283D01*
X38487Y116328D01*
X38384Y116376D01*
X38282Y116428D01*
X38182Y116484D01*
X38084Y116542D01*
X37988Y116605D01*
X37895Y116670D01*
X37803Y116739D01*
X37715Y116811D01*
X37628Y116886D01*
X37545Y116964D01*
X37464Y117045D01*
X37386Y117128D01*
X37311Y117214D01*
X37239Y117303D01*
X37170Y117395D01*
X37105Y117488D01*
X37043Y117584D01*
X36984Y117682D01*
X36928Y117782D01*
X36876Y117884D01*
X36828Y117987D01*
X36783Y118092D01*
X36742Y118199D01*
X36705Y118307D01*
X36672Y118417D01*
X36642Y118527D01*
X36617Y118638D01*
X36595Y118750D01*
X36577Y118863D01*
X36563Y118977D01*
X36553Y119091D01*
X36547Y119205D01*
X36545Y119319D01*
D124*
X3048Y79375D02*
X-3302Y79375D01*
D123*
X-6637Y67823D02*
X-6637Y60457D01*
X-6637Y67823D02*
X-4591Y67823D01*
X-4502Y67821D01*
X-4413Y67815D01*
X-4324Y67805D01*
X-4236Y67792D01*
X-4148Y67775D01*
X-4061Y67753D01*
X-3976Y67728D01*
X-3891Y67700D01*
X-3808Y67667D01*
X-3726Y67631D01*
X-3646Y67592D01*
X-3568Y67549D01*
X-3492Y67503D01*
X-3417Y67453D01*
X-3345Y67400D01*
X-3276Y67344D01*
X-3209Y67285D01*
X-3144Y67224D01*
X-3083Y67159D01*
X-3024Y67092D01*
X-2968Y67023D01*
X-2915Y66951D01*
X-2865Y66876D01*
X-2819Y66800D01*
X-2776Y66722D01*
X-2737Y66642D01*
X-2701Y66560D01*
X-2668Y66477D01*
X-2640Y66392D01*
X-2615Y66307D01*
X-2593Y66220D01*
X-2576Y66132D01*
X-2563Y66044D01*
X-2553Y65955D01*
X-2547Y65866D01*
X-2545Y65777D01*
X-2547Y65688D01*
X-2553Y65599D01*
X-2563Y65510D01*
X-2576Y65422D01*
X-2593Y65334D01*
X-2615Y65247D01*
X-2640Y65162D01*
X-2668Y65077D01*
X-2701Y64994D01*
X-2737Y64912D01*
X-2776Y64832D01*
X-2819Y64754D01*
X-2865Y64678D01*
X-2915Y64603D01*
X-2968Y64531D01*
X-3024Y64462D01*
X-3083Y64395D01*
X-3144Y64330D01*
X-3209Y64269D01*
X-3276Y64210D01*
X-3345Y64154D01*
X-3417Y64101D01*
X-3492Y64051D01*
X-3568Y64005D01*
X-3646Y63962D01*
X-3726Y63923D01*
X-3808Y63887D01*
X-3891Y63854D01*
X-3976Y63826D01*
X-4061Y63801D01*
X-4148Y63779D01*
X-4236Y63762D01*
X-4324Y63749D01*
X-4413Y63739D01*
X-4502Y63733D01*
X-4591Y63731D01*
X-6637Y63731D01*
X-4182Y63731D02*
X-2545Y60457D01*
X627Y67005D02*
X627Y67823D01*
X4719Y67823D01*
X2673Y60457D01*
D124*
X8281Y204915D02*
X8281Y211265D01*
D123*
X11449Y225163D02*
X4083Y225163D01*
X4083Y227209D01*
X4085Y227298D01*
X4091Y227387D01*
X4101Y227476D01*
X4114Y227564D01*
X4131Y227652D01*
X4153Y227739D01*
X4178Y227824D01*
X4206Y227909D01*
X4239Y227992D01*
X4275Y228074D01*
X4314Y228154D01*
X4357Y228232D01*
X4403Y228308D01*
X4453Y228383D01*
X4506Y228455D01*
X4562Y228524D01*
X4621Y228591D01*
X4682Y228656D01*
X4747Y228717D01*
X4814Y228776D01*
X4883Y228832D01*
X4955Y228885D01*
X5030Y228935D01*
X5106Y228981D01*
X5184Y229024D01*
X5264Y229063D01*
X5346Y229099D01*
X5429Y229132D01*
X5514Y229160D01*
X5599Y229185D01*
X5686Y229207D01*
X5774Y229224D01*
X5862Y229237D01*
X5951Y229247D01*
X6040Y229253D01*
X6129Y229255D01*
X6218Y229253D01*
X6307Y229247D01*
X6396Y229237D01*
X6484Y229224D01*
X6572Y229207D01*
X6659Y229185D01*
X6744Y229160D01*
X6829Y229132D01*
X6912Y229099D01*
X6994Y229063D01*
X7074Y229024D01*
X7152Y228981D01*
X7228Y228935D01*
X7303Y228885D01*
X7375Y228832D01*
X7444Y228776D01*
X7511Y228717D01*
X7576Y228656D01*
X7637Y228591D01*
X7696Y228524D01*
X7752Y228455D01*
X7805Y228383D01*
X7855Y228308D01*
X7901Y228232D01*
X7944Y228154D01*
X7983Y228074D01*
X8019Y227992D01*
X8052Y227909D01*
X8080Y227824D01*
X8105Y227739D01*
X8127Y227652D01*
X8144Y227564D01*
X8157Y227476D01*
X8167Y227387D01*
X8173Y227298D01*
X8175Y227209D01*
X8175Y225163D01*
X8175Y227619D02*
X11449Y229256D01*
X9403Y232428D02*
X9314Y232430D01*
X9225Y232436D01*
X9136Y232446D01*
X9048Y232459D01*
X8960Y232476D01*
X8873Y232498D01*
X8788Y232523D01*
X8703Y232551D01*
X8620Y232584D01*
X8538Y232620D01*
X8458Y232659D01*
X8380Y232702D01*
X8304Y232748D01*
X8229Y232798D01*
X8157Y232851D01*
X8088Y232907D01*
X8021Y232966D01*
X7956Y233027D01*
X7895Y233092D01*
X7836Y233159D01*
X7780Y233228D01*
X7727Y233300D01*
X7677Y233375D01*
X7631Y233451D01*
X7588Y233529D01*
X7549Y233609D01*
X7513Y233691D01*
X7480Y233774D01*
X7452Y233859D01*
X7427Y233944D01*
X7405Y234031D01*
X7388Y234119D01*
X7375Y234207D01*
X7365Y234296D01*
X7359Y234385D01*
X7357Y234474D01*
X7359Y234563D01*
X7365Y234652D01*
X7375Y234741D01*
X7388Y234829D01*
X7405Y234917D01*
X7427Y235004D01*
X7452Y235089D01*
X7480Y235174D01*
X7513Y235257D01*
X7549Y235339D01*
X7588Y235419D01*
X7631Y235497D01*
X7677Y235573D01*
X7727Y235648D01*
X7780Y235720D01*
X7836Y235789D01*
X7895Y235856D01*
X7956Y235921D01*
X8021Y235982D01*
X8088Y236041D01*
X8157Y236097D01*
X8229Y236150D01*
X8304Y236200D01*
X8380Y236246D01*
X8458Y236289D01*
X8538Y236328D01*
X8620Y236364D01*
X8703Y236397D01*
X8788Y236425D01*
X8873Y236450D01*
X8960Y236472D01*
X9048Y236489D01*
X9136Y236502D01*
X9225Y236512D01*
X9314Y236518D01*
X9403Y236520D01*
X9492Y236518D01*
X9581Y236512D01*
X9670Y236502D01*
X9758Y236489D01*
X9846Y236472D01*
X9933Y236450D01*
X10018Y236425D01*
X10103Y236397D01*
X10186Y236364D01*
X10268Y236328D01*
X10348Y236289D01*
X10426Y236246D01*
X10502Y236200D01*
X10577Y236150D01*
X10649Y236097D01*
X10718Y236041D01*
X10785Y235982D01*
X10850Y235921D01*
X10911Y235856D01*
X10970Y235789D01*
X11026Y235720D01*
X11079Y235648D01*
X11129Y235573D01*
X11175Y235497D01*
X11218Y235419D01*
X11257Y235339D01*
X11293Y235257D01*
X11326Y235174D01*
X11354Y235089D01*
X11379Y235004D01*
X11401Y234917D01*
X11418Y234829D01*
X11431Y234741D01*
X11441Y234652D01*
X11447Y234563D01*
X11449Y234474D01*
X11447Y234385D01*
X11441Y234296D01*
X11431Y234207D01*
X11418Y234119D01*
X11401Y234031D01*
X11379Y233944D01*
X11354Y233859D01*
X11326Y233774D01*
X11293Y233691D01*
X11257Y233609D01*
X11218Y233529D01*
X11175Y233451D01*
X11129Y233375D01*
X11079Y233300D01*
X11026Y233228D01*
X10970Y233159D01*
X10911Y233092D01*
X10850Y233027D01*
X10785Y232966D01*
X10718Y232907D01*
X10649Y232851D01*
X10577Y232798D01*
X10502Y232748D01*
X10426Y232702D01*
X10348Y232659D01*
X10268Y232620D01*
X10186Y232584D01*
X10103Y232551D01*
X10018Y232523D01*
X9933Y232498D01*
X9846Y232476D01*
X9758Y232459D01*
X9670Y232446D01*
X9581Y232436D01*
X9492Y232430D01*
X9403Y232428D01*
X5720Y232837D02*
X5641Y232839D01*
X5562Y232845D01*
X5483Y232854D01*
X5405Y232867D01*
X5328Y232885D01*
X5252Y232905D01*
X5177Y232930D01*
X5103Y232958D01*
X5030Y232989D01*
X4959Y233025D01*
X4890Y233063D01*
X4823Y233105D01*
X4758Y233150D01*
X4695Y233198D01*
X4634Y233249D01*
X4577Y233303D01*
X4521Y233359D01*
X4469Y233418D01*
X4419Y233480D01*
X4373Y233544D01*
X4329Y233610D01*
X4289Y233678D01*
X4253Y233748D01*
X4219Y233820D01*
X4189Y233894D01*
X4163Y233968D01*
X4140Y234044D01*
X4122Y234121D01*
X4106Y234198D01*
X4095Y234277D01*
X4087Y234355D01*
X4083Y234434D01*
X4083Y234514D01*
X4087Y234593D01*
X4095Y234671D01*
X4106Y234750D01*
X4122Y234827D01*
X4140Y234904D01*
X4163Y234980D01*
X4189Y235054D01*
X4219Y235128D01*
X4253Y235200D01*
X4289Y235270D01*
X4329Y235338D01*
X4373Y235404D01*
X4419Y235468D01*
X4469Y235530D01*
X4521Y235589D01*
X4577Y235645D01*
X4634Y235699D01*
X4695Y235750D01*
X4758Y235798D01*
X4823Y235843D01*
X4890Y235885D01*
X4959Y235923D01*
X5030Y235959D01*
X5103Y235990D01*
X5177Y236018D01*
X5252Y236043D01*
X5328Y236063D01*
X5405Y236081D01*
X5483Y236094D01*
X5562Y236103D01*
X5641Y236109D01*
X5720Y236111D01*
X5799Y236109D01*
X5878Y236103D01*
X5957Y236094D01*
X6035Y236081D01*
X6112Y236063D01*
X6188Y236043D01*
X6263Y236018D01*
X6337Y235990D01*
X6410Y235959D01*
X6481Y235923D01*
X6550Y235885D01*
X6617Y235843D01*
X6682Y235798D01*
X6745Y235750D01*
X6806Y235699D01*
X6863Y235645D01*
X6919Y235589D01*
X6971Y235530D01*
X7021Y235468D01*
X7067Y235404D01*
X7111Y235338D01*
X7151Y235270D01*
X7187Y235200D01*
X7221Y235128D01*
X7251Y235054D01*
X7277Y234980D01*
X7300Y234904D01*
X7318Y234827D01*
X7334Y234750D01*
X7345Y234671D01*
X7353Y234593D01*
X7357Y234514D01*
X7357Y234434D01*
X7353Y234355D01*
X7345Y234277D01*
X7334Y234198D01*
X7318Y234121D01*
X7300Y234044D01*
X7277Y233968D01*
X7251Y233894D01*
X7221Y233820D01*
X7187Y233748D01*
X7151Y233678D01*
X7111Y233610D01*
X7067Y233544D01*
X7021Y233480D01*
X6971Y233418D01*
X6919Y233359D01*
X6863Y233303D01*
X6806Y233249D01*
X6745Y233198D01*
X6682Y233150D01*
X6617Y233105D01*
X6550Y233063D01*
X6481Y233025D01*
X6410Y232989D01*
X6337Y232958D01*
X6263Y232930D01*
X6188Y232905D01*
X6112Y232885D01*
X6035Y232867D01*
X5957Y232854D01*
X5878Y232845D01*
X5799Y232839D01*
X5720Y232837D01*
D124*
X-14285Y211265D02*
X-14285Y204915D01*
D123*
X-11168Y224986D02*
X-18534Y224986D01*
X-18534Y227032D01*
X-18532Y227121D01*
X-18526Y227210D01*
X-18516Y227299D01*
X-18503Y227387D01*
X-18486Y227475D01*
X-18464Y227562D01*
X-18439Y227647D01*
X-18411Y227732D01*
X-18378Y227815D01*
X-18342Y227897D01*
X-18303Y227977D01*
X-18260Y228055D01*
X-18214Y228131D01*
X-18164Y228206D01*
X-18111Y228278D01*
X-18055Y228347D01*
X-17996Y228414D01*
X-17935Y228479D01*
X-17870Y228540D01*
X-17803Y228599D01*
X-17734Y228655D01*
X-17662Y228708D01*
X-17587Y228758D01*
X-17511Y228804D01*
X-17433Y228847D01*
X-17353Y228886D01*
X-17271Y228922D01*
X-17188Y228955D01*
X-17103Y228983D01*
X-17018Y229008D01*
X-16931Y229030D01*
X-16843Y229047D01*
X-16755Y229060D01*
X-16666Y229070D01*
X-16577Y229076D01*
X-16488Y229078D01*
X-16399Y229076D01*
X-16310Y229070D01*
X-16221Y229060D01*
X-16133Y229047D01*
X-16045Y229030D01*
X-15958Y229008D01*
X-15873Y228983D01*
X-15788Y228955D01*
X-15705Y228922D01*
X-15623Y228886D01*
X-15543Y228847D01*
X-15465Y228804D01*
X-15389Y228758D01*
X-15314Y228708D01*
X-15242Y228655D01*
X-15173Y228599D01*
X-15106Y228540D01*
X-15041Y228479D01*
X-14980Y228414D01*
X-14921Y228347D01*
X-14865Y228278D01*
X-14812Y228206D01*
X-14762Y228131D01*
X-14716Y228055D01*
X-14673Y227977D01*
X-14634Y227897D01*
X-14598Y227815D01*
X-14565Y227732D01*
X-14537Y227647D01*
X-14512Y227562D01*
X-14490Y227475D01*
X-14473Y227387D01*
X-14460Y227299D01*
X-14450Y227210D01*
X-14444Y227121D01*
X-14442Y227032D01*
X-14442Y224986D01*
X-14442Y227441D02*
X-11168Y229078D01*
X-14442Y233886D02*
X-14442Y236342D01*
X-14442Y233886D02*
X-14444Y233808D01*
X-14449Y233730D01*
X-14459Y233653D01*
X-14472Y233576D01*
X-14488Y233500D01*
X-14508Y233425D01*
X-14532Y233351D01*
X-14559Y233278D01*
X-14590Y233206D01*
X-14624Y233136D01*
X-14661Y233067D01*
X-14702Y233001D01*
X-14746Y232936D01*
X-14792Y232874D01*
X-14842Y232814D01*
X-14894Y232756D01*
X-14949Y232701D01*
X-15007Y232649D01*
X-15067Y232599D01*
X-15129Y232553D01*
X-15194Y232509D01*
X-15261Y232468D01*
X-15329Y232431D01*
X-15399Y232397D01*
X-15471Y232366D01*
X-15544Y232339D01*
X-15618Y232315D01*
X-15693Y232295D01*
X-15769Y232279D01*
X-15846Y232266D01*
X-15923Y232256D01*
X-16001Y232251D01*
X-16079Y232249D01*
X-16079Y232250D02*
X-16488Y232250D01*
X-16577Y232252D01*
X-16666Y232258D01*
X-16755Y232268D01*
X-16843Y232281D01*
X-16931Y232298D01*
X-17018Y232320D01*
X-17103Y232345D01*
X-17188Y232373D01*
X-17271Y232406D01*
X-17353Y232442D01*
X-17433Y232481D01*
X-17511Y232524D01*
X-17587Y232570D01*
X-17662Y232620D01*
X-17734Y232673D01*
X-17803Y232729D01*
X-17870Y232788D01*
X-17935Y232849D01*
X-17996Y232914D01*
X-18055Y232981D01*
X-18111Y233050D01*
X-18164Y233122D01*
X-18214Y233197D01*
X-18260Y233273D01*
X-18303Y233351D01*
X-18342Y233431D01*
X-18378Y233513D01*
X-18411Y233596D01*
X-18439Y233681D01*
X-18464Y233766D01*
X-18486Y233853D01*
X-18503Y233941D01*
X-18516Y234029D01*
X-18526Y234118D01*
X-18532Y234207D01*
X-18534Y234296D01*
X-18532Y234385D01*
X-18526Y234474D01*
X-18516Y234563D01*
X-18503Y234651D01*
X-18486Y234739D01*
X-18464Y234826D01*
X-18439Y234911D01*
X-18411Y234996D01*
X-18378Y235079D01*
X-18342Y235161D01*
X-18303Y235241D01*
X-18260Y235319D01*
X-18214Y235395D01*
X-18164Y235470D01*
X-18111Y235542D01*
X-18055Y235611D01*
X-17996Y235678D01*
X-17935Y235743D01*
X-17870Y235804D01*
X-17803Y235863D01*
X-17734Y235919D01*
X-17662Y235972D01*
X-17587Y236022D01*
X-17511Y236068D01*
X-17433Y236111D01*
X-17353Y236150D01*
X-17271Y236186D01*
X-17188Y236219D01*
X-17103Y236247D01*
X-17018Y236272D01*
X-16931Y236294D01*
X-16843Y236311D01*
X-16755Y236324D01*
X-16666Y236334D01*
X-16577Y236340D01*
X-16488Y236342D01*
X-14442Y236342D01*
X-14330Y236340D01*
X-14219Y236334D01*
X-14107Y236325D01*
X-13996Y236312D01*
X-13886Y236294D01*
X-13776Y236274D01*
X-13667Y236249D01*
X-13559Y236221D01*
X-13452Y236189D01*
X-13346Y236153D01*
X-13241Y236114D01*
X-13138Y236071D01*
X-13036Y236025D01*
X-12936Y235975D01*
X-12837Y235922D01*
X-12741Y235865D01*
X-12646Y235806D01*
X-12554Y235743D01*
X-12464Y235677D01*
X-12376Y235608D01*
X-12290Y235536D01*
X-12207Y235461D01*
X-12127Y235383D01*
X-12049Y235303D01*
X-11974Y235220D01*
X-11902Y235134D01*
X-11833Y235046D01*
X-11767Y234956D01*
X-11704Y234864D01*
X-11645Y234769D01*
X-11588Y234673D01*
X-11535Y234574D01*
X-11485Y234474D01*
X-11439Y234372D01*
X-11396Y234269D01*
X-11357Y234164D01*
X-11321Y234058D01*
X-11289Y233951D01*
X-11261Y233843D01*
X-11236Y233734D01*
X-11216Y233624D01*
X-11198Y233514D01*
X-11185Y233403D01*
X-11176Y233291D01*
X-11170Y233180D01*
X-11168Y233068D01*
D122*
X-58063Y80288D02*
X-58063Y77788D01*
X-58063Y75288D01*
X-58063Y77788D02*
X-53063Y80288D01*
X-53063Y75288D02*
X-58063Y77788D01*
X-53063Y75288D02*
X-53063Y80288D01*
X-43063Y82788D02*
X-43063Y72788D01*
X-68063Y72788D01*
X-68063Y82788D01*
X-43063Y82788D01*
D123*
X-61560Y68634D02*
X-61560Y61268D01*
X-61560Y68634D02*
X-59514Y68634D01*
X-59425Y68632D01*
X-59336Y68626D01*
X-59247Y68616D01*
X-59159Y68603D01*
X-59071Y68586D01*
X-58984Y68564D01*
X-58899Y68539D01*
X-58814Y68511D01*
X-58731Y68478D01*
X-58649Y68442D01*
X-58569Y68403D01*
X-58491Y68360D01*
X-58415Y68314D01*
X-58340Y68264D01*
X-58268Y68211D01*
X-58199Y68155D01*
X-58132Y68096D01*
X-58067Y68035D01*
X-58006Y67970D01*
X-57947Y67903D01*
X-57891Y67834D01*
X-57838Y67762D01*
X-57788Y67687D01*
X-57742Y67611D01*
X-57699Y67533D01*
X-57660Y67453D01*
X-57624Y67371D01*
X-57591Y67288D01*
X-57563Y67203D01*
X-57538Y67118D01*
X-57516Y67031D01*
X-57499Y66943D01*
X-57486Y66855D01*
X-57476Y66766D01*
X-57470Y66677D01*
X-57468Y66588D01*
X-57468Y63314D01*
X-57470Y63225D01*
X-57476Y63136D01*
X-57486Y63047D01*
X-57499Y62959D01*
X-57516Y62871D01*
X-57538Y62784D01*
X-57563Y62699D01*
X-57591Y62614D01*
X-57624Y62531D01*
X-57660Y62449D01*
X-57699Y62369D01*
X-57742Y62291D01*
X-57788Y62215D01*
X-57838Y62140D01*
X-57891Y62068D01*
X-57947Y61999D01*
X-58006Y61932D01*
X-58067Y61867D01*
X-58132Y61806D01*
X-58199Y61747D01*
X-58268Y61691D01*
X-58340Y61638D01*
X-58415Y61588D01*
X-58491Y61542D01*
X-58569Y61499D01*
X-58649Y61460D01*
X-58731Y61424D01*
X-58814Y61391D01*
X-58899Y61363D01*
X-58984Y61338D01*
X-59071Y61316D01*
X-59159Y61299D01*
X-59247Y61286D01*
X-59336Y61276D01*
X-59425Y61270D01*
X-59514Y61268D01*
X-61560Y61268D01*
X-54001Y66997D02*
X-51955Y68634D01*
X-51955Y61268D01*
X-54001Y61268D02*
X-49909Y61268D01*
D11*
X93663Y147638D02*
X106363Y147638D01*
X112713Y141288D01*
X112713Y128588D01*
X106363Y122238D01*
X87313Y128588D02*
X87313Y141288D01*
X93663Y147638D01*
X87313Y128588D02*
X93663Y122238D01*
X106363Y122238D01*
D124*
X-52261Y95250D02*
X-58611Y95250D01*
D123*
X-60368Y104417D02*
X-60368Y111783D01*
X-58322Y111783D01*
X-58233Y111781D01*
X-58144Y111775D01*
X-58055Y111765D01*
X-57967Y111752D01*
X-57879Y111735D01*
X-57792Y111713D01*
X-57707Y111688D01*
X-57622Y111660D01*
X-57539Y111627D01*
X-57457Y111591D01*
X-57377Y111552D01*
X-57299Y111509D01*
X-57223Y111463D01*
X-57148Y111413D01*
X-57076Y111360D01*
X-57007Y111304D01*
X-56940Y111245D01*
X-56875Y111184D01*
X-56814Y111119D01*
X-56755Y111052D01*
X-56699Y110983D01*
X-56646Y110911D01*
X-56596Y110836D01*
X-56550Y110760D01*
X-56507Y110682D01*
X-56468Y110602D01*
X-56432Y110520D01*
X-56399Y110437D01*
X-56371Y110352D01*
X-56346Y110267D01*
X-56324Y110180D01*
X-56307Y110092D01*
X-56294Y110004D01*
X-56284Y109915D01*
X-56278Y109826D01*
X-56276Y109737D01*
X-56278Y109648D01*
X-56284Y109559D01*
X-56294Y109470D01*
X-56307Y109382D01*
X-56324Y109294D01*
X-56346Y109207D01*
X-56371Y109122D01*
X-56399Y109037D01*
X-56432Y108954D01*
X-56468Y108872D01*
X-56507Y108792D01*
X-56550Y108714D01*
X-56596Y108638D01*
X-56646Y108563D01*
X-56699Y108491D01*
X-56755Y108422D01*
X-56814Y108355D01*
X-56875Y108290D01*
X-56940Y108229D01*
X-57007Y108170D01*
X-57076Y108114D01*
X-57148Y108061D01*
X-57223Y108011D01*
X-57299Y107965D01*
X-57377Y107922D01*
X-57457Y107883D01*
X-57539Y107847D01*
X-57622Y107814D01*
X-57707Y107786D01*
X-57792Y107761D01*
X-57879Y107739D01*
X-57967Y107722D01*
X-58055Y107709D01*
X-58144Y107699D01*
X-58233Y107693D01*
X-58322Y107691D01*
X-60368Y107691D01*
X-57913Y107691D02*
X-56276Y104417D01*
X-53104Y110146D02*
X-51058Y111783D01*
X-51058Y104417D01*
X-53104Y104417D02*
X-49012Y104417D01*
D124*
X50800Y77915D02*
X50800Y71311D01*
D123*
X54046Y95444D02*
X54046Y97081D01*
X54046Y95444D02*
X54044Y95366D01*
X54039Y95288D01*
X54029Y95211D01*
X54016Y95134D01*
X54000Y95058D01*
X53980Y94983D01*
X53956Y94909D01*
X53929Y94836D01*
X53898Y94764D01*
X53864Y94694D01*
X53827Y94626D01*
X53786Y94559D01*
X53742Y94494D01*
X53696Y94432D01*
X53646Y94372D01*
X53594Y94314D01*
X53539Y94259D01*
X53481Y94207D01*
X53421Y94157D01*
X53359Y94111D01*
X53294Y94067D01*
X53228Y94026D01*
X53159Y93989D01*
X53089Y93955D01*
X53017Y93924D01*
X52944Y93897D01*
X52870Y93873D01*
X52795Y93853D01*
X52719Y93837D01*
X52642Y93824D01*
X52565Y93814D01*
X52487Y93809D01*
X52409Y93807D01*
X48317Y93807D01*
X48237Y93809D01*
X48157Y93815D01*
X48077Y93825D01*
X47998Y93838D01*
X47919Y93856D01*
X47842Y93877D01*
X47766Y93903D01*
X47691Y93932D01*
X47617Y93964D01*
X47545Y94000D01*
X47475Y94040D01*
X47408Y94083D01*
X47342Y94129D01*
X47279Y94179D01*
X47218Y94231D01*
X47159Y94286D01*
X47104Y94345D01*
X47052Y94405D01*
X47002Y94469D01*
X46956Y94534D01*
X46913Y94602D01*
X46873Y94672D01*
X46837Y94744D01*
X46805Y94818D01*
X46776Y94892D01*
X46751Y94969D01*
X46729Y95046D01*
X46711Y95125D01*
X46698Y95204D01*
X46688Y95283D01*
X46682Y95364D01*
X46680Y95444D01*
X46680Y97081D01*
X52000Y99926D02*
X51911Y99928D01*
X51822Y99934D01*
X51733Y99944D01*
X51645Y99957D01*
X51557Y99974D01*
X51470Y99996D01*
X51385Y100021D01*
X51300Y100049D01*
X51217Y100082D01*
X51135Y100118D01*
X51055Y100157D01*
X50977Y100200D01*
X50901Y100246D01*
X50826Y100296D01*
X50754Y100349D01*
X50685Y100405D01*
X50618Y100464D01*
X50553Y100525D01*
X50492Y100590D01*
X50433Y100657D01*
X50377Y100726D01*
X50324Y100798D01*
X50274Y100873D01*
X50228Y100949D01*
X50185Y101027D01*
X50146Y101107D01*
X50110Y101189D01*
X50077Y101272D01*
X50049Y101357D01*
X50024Y101442D01*
X50002Y101529D01*
X49985Y101617D01*
X49972Y101705D01*
X49962Y101794D01*
X49956Y101883D01*
X49954Y101972D01*
X49956Y102061D01*
X49962Y102150D01*
X49972Y102239D01*
X49985Y102327D01*
X50002Y102415D01*
X50024Y102502D01*
X50049Y102587D01*
X50077Y102672D01*
X50110Y102755D01*
X50146Y102837D01*
X50185Y102917D01*
X50228Y102995D01*
X50274Y103071D01*
X50324Y103146D01*
X50377Y103218D01*
X50433Y103287D01*
X50492Y103354D01*
X50553Y103419D01*
X50618Y103480D01*
X50685Y103539D01*
X50754Y103595D01*
X50826Y103648D01*
X50901Y103698D01*
X50977Y103744D01*
X51055Y103787D01*
X51135Y103826D01*
X51217Y103862D01*
X51300Y103895D01*
X51385Y103923D01*
X51470Y103948D01*
X51557Y103970D01*
X51645Y103987D01*
X51733Y104000D01*
X51822Y104010D01*
X51911Y104016D01*
X52000Y104018D01*
X52089Y104016D01*
X52178Y104010D01*
X52267Y104000D01*
X52355Y103987D01*
X52443Y103970D01*
X52530Y103948D01*
X52615Y103923D01*
X52700Y103895D01*
X52783Y103862D01*
X52865Y103826D01*
X52945Y103787D01*
X53023Y103744D01*
X53099Y103698D01*
X53174Y103648D01*
X53246Y103595D01*
X53315Y103539D01*
X53382Y103480D01*
X53447Y103419D01*
X53508Y103354D01*
X53567Y103287D01*
X53623Y103218D01*
X53676Y103146D01*
X53726Y103071D01*
X53772Y102995D01*
X53815Y102917D01*
X53854Y102837D01*
X53890Y102755D01*
X53923Y102672D01*
X53951Y102587D01*
X53976Y102502D01*
X53998Y102415D01*
X54015Y102327D01*
X54028Y102239D01*
X54038Y102150D01*
X54044Y102061D01*
X54046Y101972D01*
X54044Y101883D01*
X54038Y101794D01*
X54028Y101705D01*
X54015Y101617D01*
X53998Y101529D01*
X53976Y101442D01*
X53951Y101357D01*
X53923Y101272D01*
X53890Y101189D01*
X53854Y101107D01*
X53815Y101027D01*
X53772Y100949D01*
X53726Y100873D01*
X53676Y100798D01*
X53623Y100726D01*
X53567Y100657D01*
X53508Y100590D01*
X53447Y100525D01*
X53382Y100464D01*
X53315Y100405D01*
X53246Y100349D01*
X53174Y100296D01*
X53099Y100246D01*
X53023Y100200D01*
X52945Y100157D01*
X52865Y100118D01*
X52783Y100082D01*
X52700Y100049D01*
X52615Y100021D01*
X52530Y99996D01*
X52443Y99974D01*
X52355Y99957D01*
X52267Y99944D01*
X52178Y99934D01*
X52089Y99928D01*
X52000Y99926D01*
X48317Y100335D02*
X48238Y100337D01*
X48159Y100343D01*
X48080Y100352D01*
X48002Y100365D01*
X47925Y100383D01*
X47849Y100403D01*
X47774Y100428D01*
X47700Y100456D01*
X47627Y100487D01*
X47556Y100523D01*
X47487Y100561D01*
X47420Y100603D01*
X47355Y100648D01*
X47292Y100696D01*
X47231Y100747D01*
X47174Y100801D01*
X47118Y100857D01*
X47066Y100916D01*
X47016Y100978D01*
X46970Y101042D01*
X46926Y101108D01*
X46886Y101176D01*
X46850Y101246D01*
X46816Y101318D01*
X46786Y101392D01*
X46760Y101466D01*
X46737Y101542D01*
X46719Y101619D01*
X46703Y101696D01*
X46692Y101775D01*
X46684Y101853D01*
X46680Y101932D01*
X46680Y102012D01*
X46684Y102091D01*
X46692Y102169D01*
X46703Y102248D01*
X46719Y102325D01*
X46737Y102402D01*
X46760Y102478D01*
X46786Y102552D01*
X46816Y102626D01*
X46850Y102698D01*
X46886Y102768D01*
X46926Y102836D01*
X46970Y102902D01*
X47016Y102966D01*
X47066Y103028D01*
X47118Y103087D01*
X47174Y103143D01*
X47231Y103197D01*
X47292Y103248D01*
X47355Y103296D01*
X47420Y103341D01*
X47487Y103383D01*
X47556Y103421D01*
X47627Y103457D01*
X47700Y103488D01*
X47774Y103516D01*
X47849Y103541D01*
X47925Y103561D01*
X48002Y103579D01*
X48080Y103592D01*
X48159Y103601D01*
X48238Y103607D01*
X48317Y103609D01*
X48396Y103607D01*
X48475Y103601D01*
X48554Y103592D01*
X48632Y103579D01*
X48709Y103561D01*
X48785Y103541D01*
X48860Y103516D01*
X48934Y103488D01*
X49007Y103457D01*
X49078Y103421D01*
X49147Y103383D01*
X49214Y103341D01*
X49279Y103296D01*
X49342Y103248D01*
X49403Y103197D01*
X49460Y103143D01*
X49516Y103087D01*
X49568Y103028D01*
X49618Y102966D01*
X49664Y102902D01*
X49708Y102836D01*
X49748Y102768D01*
X49784Y102698D01*
X49818Y102626D01*
X49848Y102552D01*
X49874Y102478D01*
X49897Y102402D01*
X49915Y102325D01*
X49931Y102248D01*
X49942Y102169D01*
X49950Y102091D01*
X49954Y102012D01*
X49954Y101932D01*
X49950Y101853D01*
X49942Y101775D01*
X49931Y101696D01*
X49915Y101619D01*
X49897Y101542D01*
X49874Y101466D01*
X49848Y101392D01*
X49818Y101318D01*
X49784Y101246D01*
X49748Y101176D01*
X49708Y101108D01*
X49664Y101042D01*
X49618Y100978D01*
X49568Y100916D01*
X49516Y100857D01*
X49460Y100801D01*
X49403Y100747D01*
X49342Y100696D01*
X49279Y100648D01*
X49214Y100603D01*
X49147Y100561D01*
X49078Y100523D01*
X49007Y100487D01*
X48934Y100456D01*
X48860Y100428D01*
X48785Y100403D01*
X48709Y100383D01*
X48632Y100365D01*
X48554Y100352D01*
X48475Y100343D01*
X48396Y100337D01*
X48317Y100335D01*
D11*
X-80963Y171450D02*
X-80963Y184150D01*
X-80963Y171450D02*
X-87313Y165100D01*
X-100013Y165100D01*
X-106363Y171450D01*
X-87313Y165100D02*
X-80963Y158750D01*
X-80963Y146050D01*
X-87313Y139700D01*
X-100013Y139700D01*
X-106363Y146050D01*
X-106363Y158750D01*
X-100013Y165100D01*
X-100013Y190500D02*
X-87313Y190500D01*
X-80963Y184150D01*
X-100013Y190500D02*
X-106363Y184150D01*
X-106363Y171450D01*
X-87313Y139700D02*
X-80963Y133350D01*
X-80963Y120650D01*
X-87313Y114300D01*
X-100013Y114300D01*
X-106363Y120650D01*
X-106363Y133350D01*
X-100013Y139700D01*
M02*
