G04 EAGLE Gerber RS-274X export*
G75*
%MOMM*%
%FSLAX34Y34*%
%LPD*%
%INSoldermask Top*%
%IPPOS*%
%AMOC8*
5,1,8,0,0,1.08239X$1,22.5*%
G01*
%ADD10C,2.643200*%
%ADD11R,1.303200X1.203200*%
%ADD12C,1.203200*%
%ADD13R,1.581200X1.283200*%
%ADD14R,1.203200X1.603200*%
%ADD15R,1.203200X1.303200*%
%ADD16R,1.003200X1.003200*%
%ADD17P,1.869504X8X22.500000*%
%ADD18C,1.727200*%

G36*
X361643Y195709D02*
X361643Y195709D01*
X361672Y195706D01*
X361740Y195728D01*
X361809Y195742D01*
X361833Y195759D01*
X361861Y195768D01*
X361915Y195815D01*
X361973Y195855D01*
X361989Y195879D01*
X362011Y195899D01*
X362042Y195963D01*
X362080Y196022D01*
X362085Y196051D01*
X362098Y196077D01*
X362106Y196177D01*
X362113Y196219D01*
X362111Y196229D01*
X362112Y196243D01*
X361880Y199041D01*
X361871Y199075D01*
X361867Y199123D01*
X361177Y201844D01*
X361162Y201876D01*
X361151Y201922D01*
X360023Y204494D01*
X360003Y204522D01*
X359984Y204566D01*
X358448Y206917D01*
X358423Y206941D01*
X358397Y206982D01*
X356496Y209047D01*
X356468Y209068D01*
X356435Y209103D01*
X354219Y210828D01*
X354188Y210843D01*
X354150Y210873D01*
X351681Y212209D01*
X351648Y212219D01*
X351605Y212242D01*
X350419Y212650D01*
X348965Y213149D01*
X348950Y213154D01*
X348916Y213159D01*
X348870Y213174D01*
X346101Y213636D01*
X346066Y213635D01*
X346018Y213643D01*
X343211Y213643D01*
X343177Y213636D01*
X343128Y213636D01*
X340359Y213174D01*
X340327Y213162D01*
X340279Y213154D01*
X337624Y212242D01*
X337594Y212225D01*
X337548Y212209D01*
X335079Y210873D01*
X335052Y210851D01*
X335010Y210828D01*
X332794Y209103D01*
X332772Y209077D01*
X332733Y209047D01*
X330832Y206982D01*
X330814Y206952D01*
X330781Y206917D01*
X329245Y204566D01*
X329233Y204534D01*
X329206Y204494D01*
X328078Y201922D01*
X328071Y201889D01*
X328068Y201882D01*
X328063Y201873D01*
X328062Y201867D01*
X328052Y201844D01*
X327362Y199123D01*
X327361Y199088D01*
X327349Y199041D01*
X327117Y196243D01*
X327120Y196214D01*
X327116Y196185D01*
X327132Y196116D01*
X327140Y196046D01*
X327155Y196020D01*
X327162Y195992D01*
X327204Y195935D01*
X327239Y195873D01*
X327262Y195855D01*
X327279Y195832D01*
X327340Y195796D01*
X327397Y195753D01*
X327425Y195745D01*
X327450Y195730D01*
X327549Y195714D01*
X327590Y195703D01*
X327601Y195705D01*
X327615Y195703D01*
X361615Y195703D01*
X361643Y195709D01*
G37*
G36*
X346052Y478768D02*
X346052Y478768D01*
X346101Y478768D01*
X348870Y479230D01*
X348902Y479242D01*
X348950Y479250D01*
X351605Y480162D01*
X351635Y480179D01*
X351681Y480195D01*
X354150Y481531D01*
X354177Y481553D01*
X354219Y481576D01*
X356435Y483301D01*
X356458Y483327D01*
X356496Y483357D01*
X358397Y485422D01*
X358415Y485452D01*
X358448Y485487D01*
X359984Y487838D01*
X359996Y487870D01*
X360023Y487910D01*
X361151Y490482D01*
X361158Y490515D01*
X361177Y490560D01*
X361867Y493281D01*
X361868Y493316D01*
X361880Y493363D01*
X362112Y496161D01*
X362109Y496190D01*
X362113Y496219D01*
X362097Y496288D01*
X362089Y496358D01*
X362074Y496384D01*
X362067Y496412D01*
X362025Y496469D01*
X361990Y496531D01*
X361967Y496549D01*
X361950Y496572D01*
X361889Y496608D01*
X361832Y496651D01*
X361804Y496659D01*
X361779Y496674D01*
X361680Y496690D01*
X361639Y496701D01*
X361628Y496699D01*
X361615Y496701D01*
X327615Y496701D01*
X327586Y496695D01*
X327557Y496698D01*
X327489Y496676D01*
X327420Y496662D01*
X327396Y496645D01*
X327368Y496636D01*
X327314Y496589D01*
X327256Y496549D01*
X327240Y496525D01*
X327218Y496505D01*
X327187Y496441D01*
X327149Y496382D01*
X327144Y496353D01*
X327131Y496327D01*
X327123Y496227D01*
X327116Y496185D01*
X327118Y496175D01*
X327117Y496161D01*
X327349Y493363D01*
X327359Y493329D01*
X327362Y493281D01*
X328052Y490560D01*
X328067Y490528D01*
X328078Y490482D01*
X329206Y487910D01*
X329226Y487882D01*
X329245Y487838D01*
X330781Y485487D01*
X330806Y485463D01*
X330832Y485422D01*
X332733Y483357D01*
X332762Y483336D01*
X332794Y483301D01*
X335010Y481576D01*
X335041Y481561D01*
X335079Y481531D01*
X337548Y480195D01*
X337581Y480185D01*
X337624Y480162D01*
X340279Y479250D01*
X340314Y479246D01*
X340359Y479230D01*
X343128Y478768D01*
X343163Y478769D01*
X343211Y478761D01*
X346018Y478761D01*
X346052Y478768D01*
G37*
G36*
X223221Y256012D02*
X223221Y256012D01*
X223292Y256009D01*
X223320Y256019D01*
X223349Y256021D01*
X223439Y256063D01*
X223479Y256078D01*
X223487Y256086D01*
X223499Y256092D01*
X225803Y257691D01*
X225827Y257717D01*
X225867Y257744D01*
X227875Y259701D01*
X227895Y259730D01*
X227930Y259763D01*
X229589Y262024D01*
X229604Y262055D01*
X229632Y262094D01*
X230897Y264597D01*
X230906Y264631D01*
X230928Y264674D01*
X231763Y267351D01*
X231767Y267385D01*
X231781Y267431D01*
X232164Y270210D01*
X232162Y270244D01*
X232169Y270292D01*
X232090Y273095D01*
X232082Y273129D01*
X232081Y273177D01*
X231541Y275929D01*
X231528Y275961D01*
X231519Y276009D01*
X230534Y278634D01*
X230518Y278659D01*
X230513Y278679D01*
X230506Y278690D01*
X230498Y278709D01*
X229095Y281137D01*
X229072Y281163D01*
X229048Y281205D01*
X227263Y283368D01*
X227236Y283390D01*
X227206Y283427D01*
X225090Y285268D01*
X225059Y285285D01*
X225023Y285317D01*
X222633Y286784D01*
X222600Y286795D01*
X222559Y286821D01*
X219960Y287874D01*
X219926Y287881D01*
X219882Y287899D01*
X217145Y288510D01*
X217110Y288511D01*
X217063Y288522D01*
X214263Y288674D01*
X214228Y288669D01*
X214180Y288672D01*
X211393Y288362D01*
X211360Y288351D01*
X211312Y288346D01*
X208614Y287581D01*
X208583Y287565D01*
X208537Y287552D01*
X206001Y286353D01*
X205978Y286336D01*
X205950Y286326D01*
X205899Y286277D01*
X205842Y286234D01*
X205827Y286209D01*
X205806Y286189D01*
X205778Y286124D01*
X205742Y286063D01*
X205738Y286034D01*
X205726Y286007D01*
X205726Y285936D01*
X205717Y285865D01*
X205725Y285837D01*
X205724Y285808D01*
X205759Y285715D01*
X205770Y285674D01*
X205778Y285665D01*
X205782Y285652D01*
X222782Y256252D01*
X222802Y256230D01*
X222814Y256204D01*
X222867Y256156D01*
X222914Y256103D01*
X222940Y256091D01*
X222962Y256071D01*
X223030Y256048D01*
X223094Y256018D01*
X223123Y256016D01*
X223150Y256007D01*
X223221Y256012D01*
G37*
G36*
X475001Y403735D02*
X475001Y403735D01*
X475049Y403732D01*
X477836Y404042D01*
X477869Y404053D01*
X477917Y404058D01*
X480615Y404823D01*
X480646Y404839D01*
X480692Y404852D01*
X483228Y406051D01*
X483251Y406068D01*
X483279Y406078D01*
X483330Y406127D01*
X483387Y406170D01*
X483402Y406195D01*
X483423Y406215D01*
X483451Y406280D01*
X483487Y406342D01*
X483491Y406370D01*
X483503Y406397D01*
X483503Y406468D01*
X483512Y406539D01*
X483505Y406567D01*
X483505Y406596D01*
X483470Y406689D01*
X483459Y406730D01*
X483452Y406739D01*
X483447Y406752D01*
X466447Y436152D01*
X466427Y436174D01*
X466415Y436200D01*
X466362Y436248D01*
X466315Y436301D01*
X466289Y436313D01*
X466267Y436333D01*
X466199Y436356D01*
X466135Y436386D01*
X466106Y436388D01*
X466079Y436397D01*
X466008Y436392D01*
X465937Y436395D01*
X465909Y436385D01*
X465880Y436383D01*
X465790Y436341D01*
X465750Y436326D01*
X465742Y436318D01*
X465730Y436312D01*
X463426Y434713D01*
X463402Y434688D01*
X463363Y434660D01*
X461354Y432703D01*
X461334Y432674D01*
X461300Y432641D01*
X459640Y430380D01*
X459626Y430349D01*
X459597Y430310D01*
X458332Y427807D01*
X458323Y427773D01*
X458301Y427730D01*
X457466Y425053D01*
X457462Y425019D01*
X457448Y424973D01*
X457065Y422194D01*
X457067Y422160D01*
X457060Y422112D01*
X457139Y419309D01*
X457147Y419275D01*
X457148Y419227D01*
X457688Y416475D01*
X457701Y416443D01*
X457710Y416395D01*
X458695Y413770D01*
X458714Y413740D01*
X458731Y413695D01*
X460134Y411267D01*
X460157Y411241D01*
X460181Y411200D01*
X461966Y409036D01*
X461993Y409014D01*
X462023Y408977D01*
X464139Y407136D01*
X464170Y407119D01*
X464206Y407088D01*
X466596Y405620D01*
X466629Y405609D01*
X466670Y405583D01*
X469269Y404530D01*
X469303Y404523D01*
X469347Y404505D01*
X472084Y403894D01*
X472119Y403893D01*
X472166Y403882D01*
X474966Y403730D01*
X475001Y403735D01*
G37*
G36*
X466040Y256013D02*
X466040Y256013D01*
X466111Y256012D01*
X466138Y256023D01*
X466167Y256027D01*
X466229Y256061D01*
X466295Y256089D01*
X466315Y256110D01*
X466341Y256124D01*
X466404Y256200D01*
X466434Y256231D01*
X466438Y256241D01*
X466447Y256252D01*
X483447Y285652D01*
X483456Y285680D01*
X483473Y285704D01*
X483487Y285773D01*
X483510Y285841D01*
X483508Y285870D01*
X483514Y285898D01*
X483500Y285968D01*
X483495Y286039D01*
X483481Y286065D01*
X483476Y286093D01*
X483436Y286152D01*
X483403Y286215D01*
X483381Y286234D01*
X483364Y286258D01*
X483283Y286315D01*
X483250Y286342D01*
X483239Y286345D01*
X483228Y286353D01*
X480692Y287552D01*
X480659Y287560D01*
X480615Y287581D01*
X477917Y288346D01*
X477883Y288348D01*
X477836Y288362D01*
X475049Y288672D01*
X475014Y288669D01*
X474966Y288674D01*
X472166Y288522D01*
X472133Y288513D01*
X472084Y288510D01*
X469347Y287899D01*
X469316Y287885D01*
X469269Y287874D01*
X466670Y286821D01*
X466641Y286802D01*
X466596Y286784D01*
X464206Y285317D01*
X464180Y285293D01*
X464139Y285268D01*
X462023Y283427D01*
X462002Y283400D01*
X461966Y283368D01*
X460181Y281205D01*
X460165Y281174D01*
X460134Y281137D01*
X458731Y278709D01*
X458720Y278676D01*
X458712Y278663D01*
X458703Y278649D01*
X458702Y278646D01*
X458695Y278634D01*
X457710Y276009D01*
X457705Y275974D01*
X457688Y275929D01*
X457148Y273177D01*
X457149Y273143D01*
X457139Y273095D01*
X457060Y270292D01*
X457066Y270258D01*
X457065Y270210D01*
X457448Y267431D01*
X457459Y267399D01*
X457466Y267351D01*
X458301Y264674D01*
X458318Y264643D01*
X458332Y264597D01*
X459597Y262094D01*
X459618Y262067D01*
X459640Y262024D01*
X461300Y259763D01*
X461325Y259740D01*
X461354Y259701D01*
X463363Y257744D01*
X463392Y257725D01*
X463426Y257691D01*
X465730Y256092D01*
X465757Y256080D01*
X465779Y256062D01*
X465847Y256041D01*
X465912Y256013D01*
X465942Y256013D01*
X465970Y256005D01*
X466040Y256013D01*
G37*
G36*
X217063Y403882D02*
X217063Y403882D01*
X217096Y403891D01*
X217145Y403894D01*
X219882Y404505D01*
X219913Y404519D01*
X219960Y404530D01*
X222559Y405583D01*
X222588Y405602D01*
X222633Y405620D01*
X225023Y407088D01*
X225049Y407111D01*
X225090Y407136D01*
X227206Y408977D01*
X227227Y409004D01*
X227263Y409036D01*
X229048Y411200D01*
X229064Y411230D01*
X229095Y411267D01*
X230498Y413695D01*
X230509Y413728D01*
X230534Y413770D01*
X231519Y416395D01*
X231524Y416430D01*
X231541Y416475D01*
X232081Y419227D01*
X232080Y419262D01*
X232090Y419309D01*
X232169Y422112D01*
X232163Y422146D01*
X232164Y422194D01*
X231781Y424973D01*
X231770Y425005D01*
X231763Y425053D01*
X230928Y427730D01*
X230911Y427761D01*
X230897Y427807D01*
X229632Y430310D01*
X229611Y430337D01*
X229589Y430380D01*
X227930Y432641D01*
X227904Y432664D01*
X227875Y432703D01*
X225867Y434660D01*
X225837Y434679D01*
X225803Y434713D01*
X223499Y436312D01*
X223472Y436324D01*
X223450Y436342D01*
X223382Y436363D01*
X223317Y436391D01*
X223287Y436391D01*
X223259Y436399D01*
X223189Y436391D01*
X223118Y436392D01*
X223091Y436381D01*
X223062Y436377D01*
X223000Y436343D01*
X222934Y436315D01*
X222914Y436294D01*
X222888Y436280D01*
X222825Y436204D01*
X222795Y436173D01*
X222791Y436163D01*
X222782Y436152D01*
X205782Y406752D01*
X205773Y406724D01*
X205756Y406700D01*
X205742Y406631D01*
X205719Y406563D01*
X205721Y406534D01*
X205715Y406506D01*
X205729Y406436D01*
X205734Y406365D01*
X205748Y406339D01*
X205753Y406311D01*
X205793Y406252D01*
X205826Y406189D01*
X205848Y406170D01*
X205865Y406146D01*
X205946Y406089D01*
X205979Y406062D01*
X205990Y406059D01*
X206001Y406051D01*
X208537Y404852D01*
X208570Y404844D01*
X208614Y404823D01*
X211312Y404058D01*
X211347Y404056D01*
X211393Y404042D01*
X214180Y403732D01*
X214215Y403735D01*
X214263Y403730D01*
X217063Y403882D01*
G37*
G36*
X508342Y329213D02*
X508342Y329213D01*
X508413Y329213D01*
X508439Y329224D01*
X508468Y329227D01*
X508530Y329262D01*
X508596Y329290D01*
X508616Y329310D01*
X508641Y329325D01*
X508705Y329402D01*
X508735Y329432D01*
X508739Y329442D01*
X508747Y329453D01*
X518247Y345953D01*
X518258Y345985D01*
X518266Y345998D01*
X518270Y346022D01*
X518271Y346026D01*
X518302Y346096D01*
X518303Y346120D01*
X518310Y346142D01*
X518304Y346218D01*
X518305Y346295D01*
X518296Y346319D01*
X518294Y346340D01*
X518274Y346379D01*
X518247Y346451D01*
X508747Y362951D01*
X508728Y362973D01*
X508716Y362999D01*
X508663Y363047D01*
X508616Y363100D01*
X508590Y363113D01*
X508568Y363132D01*
X508501Y363155D01*
X508436Y363186D01*
X508407Y363188D01*
X508380Y363197D01*
X508309Y363192D01*
X508238Y363195D01*
X508211Y363185D01*
X508182Y363183D01*
X508091Y363141D01*
X508051Y363126D01*
X508043Y363119D01*
X508031Y363113D01*
X505507Y361371D01*
X505484Y361347D01*
X505445Y361320D01*
X503234Y359196D01*
X503215Y359168D01*
X503181Y359136D01*
X501339Y356685D01*
X501324Y356654D01*
X501296Y356617D01*
X499871Y353902D01*
X499862Y353871D01*
X499846Y353846D01*
X499844Y353838D01*
X499839Y353828D01*
X498868Y350920D01*
X498864Y350886D01*
X498849Y350842D01*
X498357Y347815D01*
X498359Y347781D01*
X498351Y347735D01*
X498351Y344669D01*
X498351Y344665D01*
X498351Y344663D01*
X498357Y344636D01*
X498358Y344636D01*
X498357Y344589D01*
X498849Y341562D01*
X498861Y341531D01*
X498868Y341484D01*
X499839Y338576D01*
X499856Y338547D01*
X499871Y338502D01*
X501296Y335787D01*
X501317Y335761D01*
X501339Y335719D01*
X503181Y333268D01*
X503206Y333245D01*
X503234Y333208D01*
X505445Y331084D01*
X505474Y331066D01*
X505507Y331033D01*
X508031Y329291D01*
X508058Y329280D01*
X508080Y329261D01*
X508148Y329241D01*
X508214Y329213D01*
X508243Y329213D01*
X508270Y329205D01*
X508342Y329213D01*
G37*
G36*
X180920Y329212D02*
X180920Y329212D01*
X180991Y329209D01*
X181019Y329219D01*
X181047Y329221D01*
X181138Y329263D01*
X181178Y329278D01*
X181186Y329285D01*
X181198Y329291D01*
X183722Y331033D01*
X183745Y331057D01*
X183784Y331084D01*
X185995Y333208D01*
X186014Y333236D01*
X186048Y333268D01*
X187890Y335719D01*
X187905Y335750D01*
X187933Y335787D01*
X189358Y338502D01*
X189368Y338535D01*
X189390Y338576D01*
X190361Y341484D01*
X190365Y341518D01*
X190380Y341562D01*
X190872Y344589D01*
X190870Y344623D01*
X190878Y344669D01*
X190878Y347735D01*
X190872Y347768D01*
X190872Y347815D01*
X190380Y350842D01*
X190368Y350873D01*
X190361Y350920D01*
X189390Y353828D01*
X189376Y353851D01*
X189370Y353876D01*
X189364Y353885D01*
X189358Y353902D01*
X187933Y356617D01*
X187912Y356643D01*
X187890Y356685D01*
X186048Y359136D01*
X186023Y359159D01*
X185995Y359196D01*
X183784Y361320D01*
X183755Y361338D01*
X183722Y361371D01*
X181198Y363113D01*
X181171Y363124D01*
X181149Y363143D01*
X181081Y363163D01*
X181015Y363191D01*
X180986Y363191D01*
X180959Y363199D01*
X180888Y363191D01*
X180816Y363192D01*
X180790Y363180D01*
X180761Y363177D01*
X180699Y363142D01*
X180633Y363114D01*
X180613Y363094D01*
X180588Y363079D01*
X180524Y363002D01*
X180494Y362972D01*
X180490Y362962D01*
X180482Y362951D01*
X170982Y346451D01*
X170958Y346378D01*
X170927Y346308D01*
X170926Y346284D01*
X170919Y346262D01*
X170925Y346186D01*
X170924Y346109D01*
X170933Y346085D01*
X170935Y346064D01*
X170955Y346025D01*
X170975Y345973D01*
X170976Y345967D01*
X170977Y345965D01*
X170982Y345953D01*
X180482Y329453D01*
X180501Y329431D01*
X180513Y329405D01*
X180566Y329357D01*
X180613Y329304D01*
X180640Y329291D01*
X180661Y329272D01*
X180728Y329249D01*
X180793Y329218D01*
X180822Y329217D01*
X180849Y329207D01*
X180920Y329212D01*
G37*
G36*
X431291Y195718D02*
X431291Y195718D01*
X431368Y195727D01*
X431388Y195738D01*
X431409Y195742D01*
X431474Y195786D01*
X431541Y195825D01*
X431557Y195844D01*
X431573Y195855D01*
X431597Y195893D01*
X431647Y195953D01*
X441147Y212453D01*
X441156Y212480D01*
X441173Y212504D01*
X441187Y212574D01*
X441210Y212642D01*
X441208Y212670D01*
X441214Y212698D01*
X441200Y212769D01*
X441194Y212840D01*
X441181Y212865D01*
X441176Y212893D01*
X441136Y212953D01*
X441103Y213016D01*
X441080Y213034D01*
X441064Y213058D01*
X440982Y213116D01*
X440949Y213143D01*
X440939Y213146D01*
X440928Y213153D01*
X438162Y214462D01*
X438129Y214470D01*
X438087Y214490D01*
X435147Y215338D01*
X435113Y215341D01*
X435068Y215354D01*
X432030Y215719D01*
X431996Y215716D01*
X431950Y215722D01*
X428893Y215595D01*
X428860Y215587D01*
X428813Y215586D01*
X425816Y214970D01*
X425784Y214957D01*
X425738Y214948D01*
X422879Y213859D01*
X422850Y213841D01*
X422806Y213825D01*
X420158Y212291D01*
X420133Y212269D01*
X420092Y212246D01*
X417724Y210308D01*
X417703Y210281D01*
X417666Y210252D01*
X415640Y207959D01*
X415623Y207930D01*
X415592Y207895D01*
X413959Y205307D01*
X413947Y205275D01*
X413922Y205236D01*
X412726Y202419D01*
X412719Y202386D01*
X412717Y202379D01*
X412712Y202373D01*
X412711Y202367D01*
X412701Y202343D01*
X411972Y199371D01*
X411971Y199337D01*
X411959Y199292D01*
X411717Y196242D01*
X411720Y196213D01*
X411716Y196185D01*
X411732Y196116D01*
X411741Y196044D01*
X411755Y196020D01*
X411762Y195992D01*
X411804Y195934D01*
X411840Y195872D01*
X411863Y195855D01*
X411879Y195832D01*
X411941Y195795D01*
X411999Y195752D01*
X412026Y195745D01*
X412050Y195730D01*
X412151Y195714D01*
X412191Y195703D01*
X412202Y195705D01*
X412215Y195703D01*
X431215Y195703D01*
X431291Y195718D01*
G37*
G36*
X431983Y476687D02*
X431983Y476687D01*
X432030Y476685D01*
X435068Y477050D01*
X435100Y477061D01*
X435147Y477066D01*
X438087Y477914D01*
X438117Y477930D01*
X438162Y477942D01*
X440928Y479251D01*
X440951Y479268D01*
X440978Y479278D01*
X441030Y479327D01*
X441087Y479370D01*
X441102Y479395D01*
X441122Y479414D01*
X441151Y479480D01*
X441187Y479542D01*
X441191Y479570D01*
X441202Y479596D01*
X441203Y479668D01*
X441212Y479739D01*
X441205Y479766D01*
X441205Y479795D01*
X441170Y479890D01*
X441159Y479930D01*
X441152Y479939D01*
X441147Y479951D01*
X431647Y496451D01*
X431596Y496510D01*
X431550Y496572D01*
X431530Y496583D01*
X431516Y496600D01*
X431445Y496634D01*
X431379Y496674D01*
X431354Y496678D01*
X431336Y496686D01*
X431292Y496688D01*
X431215Y496701D01*
X412215Y496701D01*
X412187Y496696D01*
X412158Y496698D01*
X412090Y496676D01*
X412020Y496662D01*
X411996Y496646D01*
X411969Y496637D01*
X411915Y496590D01*
X411856Y496549D01*
X411840Y496525D01*
X411819Y496507D01*
X411787Y496442D01*
X411749Y496382D01*
X411744Y496354D01*
X411731Y496328D01*
X411722Y496227D01*
X411716Y496185D01*
X411718Y496175D01*
X411717Y496162D01*
X411959Y493112D01*
X411969Y493080D01*
X411972Y493033D01*
X412701Y490061D01*
X412715Y490030D01*
X412726Y489985D01*
X413922Y487168D01*
X413941Y487140D01*
X413959Y487097D01*
X415592Y484509D01*
X415615Y484485D01*
X415640Y484445D01*
X417666Y482152D01*
X417693Y482132D01*
X417724Y482096D01*
X420092Y480158D01*
X420122Y480142D01*
X420158Y480113D01*
X422806Y478580D01*
X422838Y478569D01*
X422879Y478545D01*
X425738Y477457D01*
X425772Y477451D01*
X425816Y477434D01*
X428813Y476818D01*
X428847Y476818D01*
X428893Y476809D01*
X431950Y476682D01*
X431983Y476687D01*
G37*
G36*
X277042Y195708D02*
X277042Y195708D01*
X277071Y195706D01*
X277139Y195728D01*
X277209Y195742D01*
X277233Y195758D01*
X277260Y195767D01*
X277314Y195814D01*
X277373Y195855D01*
X277389Y195879D01*
X277410Y195897D01*
X277442Y195962D01*
X277480Y196022D01*
X277485Y196050D01*
X277498Y196076D01*
X277507Y196177D01*
X277513Y196219D01*
X277511Y196229D01*
X277512Y196242D01*
X277270Y199292D01*
X277260Y199324D01*
X277257Y199371D01*
X276528Y202343D01*
X276514Y202374D01*
X276503Y202419D01*
X275307Y205236D01*
X275288Y205264D01*
X275270Y205307D01*
X273637Y207895D01*
X273614Y207919D01*
X273589Y207959D01*
X271563Y210252D01*
X271536Y210272D01*
X271505Y210308D01*
X269137Y212246D01*
X269107Y212262D01*
X269071Y212291D01*
X266423Y213825D01*
X266391Y213835D01*
X266350Y213859D01*
X263491Y214948D01*
X263457Y214953D01*
X263413Y214970D01*
X260416Y215586D01*
X260382Y215586D01*
X260336Y215595D01*
X257279Y215722D01*
X257246Y215717D01*
X257199Y215719D01*
X254161Y215354D01*
X254129Y215343D01*
X254082Y215338D01*
X251142Y214490D01*
X251112Y214474D01*
X251067Y214462D01*
X248301Y213153D01*
X248278Y213136D01*
X248251Y213126D01*
X248199Y213077D01*
X248142Y213034D01*
X248127Y213009D01*
X248107Y212990D01*
X248078Y212924D01*
X248042Y212862D01*
X248038Y212834D01*
X248027Y212808D01*
X248026Y212736D01*
X248017Y212665D01*
X248024Y212638D01*
X248024Y212609D01*
X248059Y212514D01*
X248071Y212474D01*
X248077Y212465D01*
X248082Y212453D01*
X257582Y195953D01*
X257633Y195895D01*
X257679Y195832D01*
X257699Y195821D01*
X257713Y195804D01*
X257784Y195770D01*
X257850Y195730D01*
X257875Y195726D01*
X257893Y195718D01*
X257937Y195716D01*
X258015Y195703D01*
X277015Y195703D01*
X277042Y195708D01*
G37*
G36*
X260336Y476809D02*
X260336Y476809D01*
X260369Y476817D01*
X260416Y476818D01*
X263413Y477434D01*
X263445Y477447D01*
X263491Y477457D01*
X266350Y478545D01*
X266379Y478563D01*
X266423Y478580D01*
X269071Y480113D01*
X269096Y480135D01*
X269137Y480158D01*
X271505Y482096D01*
X271526Y482123D01*
X271563Y482152D01*
X273589Y484445D01*
X273606Y484474D01*
X273637Y484509D01*
X275270Y487097D01*
X275282Y487129D01*
X275307Y487168D01*
X276503Y489985D01*
X276510Y490018D01*
X276528Y490061D01*
X277257Y493033D01*
X277258Y493067D01*
X277270Y493112D01*
X277512Y496162D01*
X277509Y496191D01*
X277513Y496219D01*
X277497Y496288D01*
X277488Y496360D01*
X277474Y496384D01*
X277467Y496412D01*
X277425Y496470D01*
X277389Y496532D01*
X277366Y496549D01*
X277350Y496572D01*
X277288Y496609D01*
X277230Y496652D01*
X277203Y496659D01*
X277179Y496674D01*
X277078Y496690D01*
X277038Y496701D01*
X277027Y496699D01*
X277015Y496701D01*
X258015Y496701D01*
X257938Y496686D01*
X257861Y496677D01*
X257841Y496666D01*
X257820Y496662D01*
X257756Y496618D01*
X257688Y496579D01*
X257672Y496560D01*
X257656Y496549D01*
X257632Y496511D01*
X257582Y496451D01*
X248082Y479951D01*
X248073Y479924D01*
X248056Y479900D01*
X248042Y479830D01*
X248019Y479762D01*
X248021Y479734D01*
X248015Y479706D01*
X248029Y479636D01*
X248035Y479564D01*
X248048Y479539D01*
X248053Y479511D01*
X248093Y479451D01*
X248126Y479388D01*
X248149Y479370D01*
X248165Y479346D01*
X248247Y479288D01*
X248280Y479261D01*
X248290Y479258D01*
X248301Y479251D01*
X251067Y477942D01*
X251100Y477934D01*
X251142Y477914D01*
X254082Y477066D01*
X254116Y477063D01*
X254161Y477050D01*
X257199Y476685D01*
X257233Y476688D01*
X257279Y476682D01*
X260336Y476809D01*
G37*
D10*
X282296Y236576D03*
X409169Y455778D03*
D11*
X429824Y393954D03*
X429824Y376954D03*
D12*
X427215Y489302D03*
X509815Y346202D03*
X427215Y203102D03*
X262015Y203102D03*
X179415Y346202D03*
X262015Y489302D03*
X468515Y417702D03*
X468515Y274702D03*
X344615Y203102D03*
X220715Y274702D03*
X220715Y417702D03*
X344615Y489302D03*
D13*
X330956Y356103D03*
X330956Y339103D03*
X363036Y339103D03*
X363036Y356103D03*
D14*
X296949Y273452D03*
X287449Y295452D03*
X306449Y295452D03*
X438033Y356869D03*
X447533Y334869D03*
X428533Y334869D03*
X256794Y356869D03*
X266294Y334869D03*
X247294Y334869D03*
D15*
X301280Y356366D03*
X284280Y356366D03*
X391873Y356366D03*
X408873Y356366D03*
X338777Y268958D03*
X321777Y268958D03*
X338777Y289837D03*
X321777Y289837D03*
X391873Y324880D03*
X408873Y324880D03*
X301280Y324880D03*
X284280Y324880D03*
D16*
X389369Y453959D03*
X374369Y453959D03*
D17*
X451476Y301669D03*
D15*
X373369Y427608D03*
X390369Y427608D03*
D18*
X320015Y409647D03*
X294615Y409647D03*
X269215Y409647D03*
M02*
