M48
;GenerationSoftware,Autodesk,EAGLE,9.6.2*%
;CreationDate,2021-04-28T12:56:34Z*%
FMAT,2
ICI,OFF
METRIC,TZ,000.000
T2C0.350
T1C2.440
%
G90
M71
T1
X40610Y45347
X28818Y23686
T2
X32444Y36867
X36879Y36858
X34620Y32241
X44674Y36099
X46750Y32277
X49634Y32688
X41008Y22706
X26548Y29736
X25773Y23131
X43214Y39872
X31802Y29864
X39781Y41230
X22002Y34639
X31004Y40719
X24090Y27470
X44684Y37560
X24954Y36421
X45957Y33101
X33877Y47429
X37935Y47682
X35700Y45267
X46802Y37707
X44921Y27474
X35407Y21781
X47011Y39766
X35715Y29815
X35273Y28215
X33462Y25070
X28317Y42711
X31076Y45262
X34620Y34620
X22710Y40105
M30