G04 EAGLE Gerber RS-274X export*
G75*
%MOMM*%
%FSLAX34Y34*%
%LPD*%
%INBottom Copper*%
%IPPOS*%
%AMOC8*
5,1,8,0,0,1.08239X$1,22.5*%
G01*
%ADD10R,1.000000X1.100000*%
%ADD11R,1.500000X1.300000*%
%ADD12C,0.124994*%
%ADD13R,5.699988X5.699988*%
%ADD14R,1.399997X0.400000*%
%ADD15R,1.100000X1.000000*%
%ADD16C,0.499997*%
%ADD17C,1.000000*%
%ADD18C,0.203200*%
%ADD19C,0.304800*%
%ADD20C,0.756400*%

G36*
X228814Y285445D02*
X228814Y285445D01*
X229182Y285810D01*
X230070Y286698D01*
X230074Y286698D01*
X230078Y286702D01*
X230082Y286702D01*
X230085Y286704D01*
X231340Y286698D01*
X231341Y286698D01*
X317083Y286698D01*
X317087Y286702D01*
X317092Y286702D01*
X325644Y295254D01*
X325644Y295258D01*
X325647Y295261D01*
X325646Y295261D01*
X325648Y295263D01*
X325648Y303061D01*
X326152Y303565D01*
X326152Y303569D01*
X326153Y303569D01*
X326152Y303569D01*
X326152Y303571D01*
X326156Y303573D01*
X326156Y307703D01*
X326152Y307708D01*
X326152Y307712D01*
X325927Y307936D01*
X325927Y315467D01*
X327187Y316727D01*
X330217Y316727D01*
X331194Y315751D01*
X331209Y315750D01*
X331209Y315751D01*
X331210Y315751D01*
X332187Y316727D01*
X335217Y316727D01*
X336194Y315751D01*
X336209Y315750D01*
X336209Y315751D01*
X336210Y315751D01*
X337187Y316727D01*
X340217Y316727D01*
X341194Y315751D01*
X341209Y315750D01*
X341209Y315751D01*
X341210Y315751D01*
X342187Y316727D01*
X345217Y316727D01*
X346194Y315751D01*
X346209Y315750D01*
X346209Y315751D01*
X346210Y315751D01*
X347187Y316727D01*
X350217Y316727D01*
X351194Y315751D01*
X351209Y315750D01*
X351209Y315751D01*
X351210Y315751D01*
X352187Y316727D01*
X355217Y316727D01*
X356194Y315751D01*
X356209Y315750D01*
X356209Y315751D01*
X356210Y315751D01*
X357187Y316727D01*
X360217Y316727D01*
X361194Y315751D01*
X361209Y315750D01*
X361209Y315751D01*
X361210Y315751D01*
X362187Y316727D01*
X365217Y316727D01*
X366194Y315751D01*
X366209Y315750D01*
X366209Y315751D01*
X366210Y315751D01*
X367187Y316727D01*
X370217Y316727D01*
X371194Y315751D01*
X371209Y315750D01*
X371209Y315751D01*
X371210Y315751D01*
X372187Y316727D01*
X375217Y316727D01*
X376477Y315467D01*
X376477Y307936D01*
X376246Y307706D01*
X376246Y307700D01*
X376243Y307698D01*
X376243Y304361D01*
X376246Y304357D01*
X376246Y304353D01*
X376784Y303815D01*
X376784Y296510D01*
X376788Y296506D01*
X376788Y296501D01*
X377633Y295656D01*
X377637Y295656D01*
X377640Y295653D01*
X377643Y295656D01*
X377649Y295655D01*
X377649Y295661D01*
X377653Y295665D01*
X377653Y315915D01*
X377643Y315927D01*
X377642Y315927D01*
X377641Y315927D01*
X376937Y315927D01*
X375677Y317187D01*
X375677Y320217D01*
X376653Y321194D01*
X376654Y321198D01*
X376657Y321201D01*
X376654Y321204D01*
X376654Y321209D01*
X376653Y321209D01*
X376653Y321210D01*
X375677Y322187D01*
X375677Y325217D01*
X376653Y326194D01*
X376654Y326202D01*
X376655Y326203D01*
X376654Y326203D01*
X376654Y326209D01*
X376653Y326209D01*
X376653Y326210D01*
X375677Y327187D01*
X375677Y330217D01*
X376653Y331194D01*
X376654Y331209D01*
X376653Y331209D01*
X376653Y331210D01*
X375677Y332187D01*
X375677Y335217D01*
X376653Y336194D01*
X376654Y336209D01*
X376653Y336209D01*
X376653Y336210D01*
X375677Y337187D01*
X375677Y340217D01*
X376653Y341194D01*
X376654Y341209D01*
X376653Y341209D01*
X376653Y341210D01*
X375677Y342187D01*
X375677Y345217D01*
X376653Y346194D01*
X376654Y346197D01*
X376654Y346198D01*
X376654Y346209D01*
X376653Y346209D01*
X376653Y346210D01*
X375677Y347187D01*
X375677Y350217D01*
X376653Y351194D01*
X376654Y351198D01*
X376656Y351200D01*
X376654Y351202D01*
X376654Y351209D01*
X376653Y351209D01*
X376653Y351210D01*
X375677Y352187D01*
X375677Y355217D01*
X376653Y356194D01*
X376654Y356200D01*
X376656Y356201D01*
X376654Y356204D01*
X376654Y356209D01*
X376653Y356209D01*
X376653Y356210D01*
X375677Y357187D01*
X375677Y360217D01*
X376653Y361194D01*
X376654Y361209D01*
X376653Y361209D01*
X376653Y361210D01*
X375677Y362187D01*
X375677Y365217D01*
X376653Y366194D01*
X376654Y366209D01*
X376653Y366209D01*
X376653Y366210D01*
X375677Y367187D01*
X375677Y370217D01*
X376653Y371194D01*
X376654Y371209D01*
X376653Y371209D01*
X376653Y371210D01*
X375677Y372187D01*
X375677Y375217D01*
X376937Y376477D01*
X377641Y376477D01*
X377653Y376487D01*
X377653Y376488D01*
X377653Y376489D01*
X377653Y377641D01*
X377643Y377653D01*
X377642Y377653D01*
X377641Y377653D01*
X376489Y377653D01*
X376477Y377643D01*
X376477Y377642D01*
X376477Y377641D01*
X376477Y376937D01*
X375217Y375677D01*
X372187Y375677D01*
X370927Y376937D01*
X370927Y379160D01*
X370924Y379165D01*
X370924Y379169D01*
X370653Y379439D01*
X370653Y381965D01*
X370831Y382142D01*
X370831Y382148D01*
X370834Y382151D01*
X370834Y388087D01*
X370824Y388099D01*
X370823Y388098D01*
X370822Y388099D01*
X368251Y388099D01*
X367358Y388992D01*
X367358Y401255D01*
X368251Y402149D01*
X379514Y402149D01*
X380408Y401255D01*
X380408Y388992D01*
X379515Y388099D01*
X376944Y388099D01*
X376932Y388089D01*
X376932Y388088D01*
X376932Y388087D01*
X376932Y383763D01*
X376942Y383751D01*
X376943Y383752D01*
X376944Y383751D01*
X390619Y383751D01*
X390624Y383755D01*
X390628Y383754D01*
X390630Y383757D01*
X390631Y383761D01*
X390631Y383762D01*
X390634Y383765D01*
X390634Y392105D01*
X391527Y392998D01*
X394747Y392998D01*
X394758Y393009D01*
X394758Y393010D01*
X394758Y407837D01*
X394755Y407841D01*
X394755Y407845D01*
X392500Y410100D01*
X392500Y414496D01*
X395609Y417605D01*
X400005Y417605D01*
X403114Y414496D01*
X403114Y410100D01*
X400859Y407845D01*
X400859Y407840D01*
X400856Y407837D01*
X400856Y393010D01*
X400866Y392999D01*
X400867Y392999D01*
X400868Y392998D01*
X403790Y392998D01*
X404683Y392105D01*
X404683Y380842D01*
X403790Y379949D01*
X395450Y379949D01*
X395446Y379945D01*
X395442Y379945D01*
X393150Y377653D01*
X383763Y377653D01*
X383751Y377643D01*
X383752Y377642D01*
X383751Y377641D01*
X383751Y376489D01*
X383761Y376477D01*
X383762Y376477D01*
X383763Y376477D01*
X384468Y376477D01*
X385727Y375217D01*
X385727Y372187D01*
X384751Y371210D01*
X384750Y371195D01*
X384751Y371195D01*
X384751Y371194D01*
X385727Y370217D01*
X385727Y367187D01*
X384751Y366210D01*
X384750Y366195D01*
X384751Y366195D01*
X384751Y366194D01*
X385727Y365217D01*
X385727Y362187D01*
X384751Y361210D01*
X384750Y361207D01*
X384750Y361206D01*
X384750Y361195D01*
X384751Y361195D01*
X384751Y361194D01*
X385727Y360217D01*
X385727Y357187D01*
X384803Y356263D01*
X384803Y356259D01*
X384800Y356256D01*
X384803Y356253D01*
X384802Y356247D01*
X384808Y356247D01*
X384812Y356243D01*
X385924Y356243D01*
X385928Y356246D01*
X385933Y356246D01*
X395807Y366121D01*
X395807Y366126D01*
X395811Y366129D01*
X395811Y369452D01*
X396704Y370345D01*
X411967Y370345D01*
X412860Y369452D01*
X412860Y364189D01*
X411967Y363295D01*
X401610Y363295D01*
X401606Y363292D01*
X401601Y363292D01*
X390081Y351771D01*
X390080Y351767D01*
X390077Y351764D01*
X390080Y351761D01*
X390080Y351755D01*
X390085Y351755D01*
X390089Y351751D01*
X399716Y351751D01*
X401506Y349961D01*
X405119Y346348D01*
X405124Y346348D01*
X405127Y346345D01*
X411967Y346345D01*
X412860Y345452D01*
X412860Y340189D01*
X412674Y340003D01*
X412674Y339998D01*
X412670Y339996D01*
X412673Y339993D01*
X412673Y339987D01*
X412679Y339987D01*
X412682Y339982D01*
X423814Y339982D01*
X423818Y339986D01*
X423822Y339986D01*
X429038Y345201D01*
X429038Y345205D01*
X429040Y345207D01*
X429039Y345208D01*
X429041Y345210D01*
X429041Y362484D01*
X429031Y362496D01*
X429030Y362495D01*
X429029Y362496D01*
X426458Y362496D01*
X425565Y363389D01*
X425565Y375652D01*
X426459Y376545D01*
X437722Y376545D01*
X438615Y375652D01*
X438615Y371815D01*
X438625Y371803D01*
X438626Y371804D01*
X438627Y371803D01*
X458891Y371803D01*
X458896Y371807D01*
X458900Y371807D01*
X462708Y375615D01*
X462708Y375620D01*
X462711Y375623D01*
X462711Y379266D01*
X464119Y380674D01*
X464120Y380690D01*
X464119Y380690D01*
X464119Y380691D01*
X463989Y380822D01*
X463983Y380822D01*
X463980Y380825D01*
X454605Y380825D01*
X452247Y383183D01*
X452247Y391517D01*
X454605Y393875D01*
X466358Y393875D01*
X466362Y393877D01*
X466366Y393877D01*
X466366Y393881D01*
X466370Y393885D01*
X466367Y393889D01*
X466367Y393895D01*
X464804Y395458D01*
X464804Y399854D01*
X467913Y402963D01*
X470600Y402963D01*
X470604Y402967D01*
X470610Y402969D01*
X470609Y402971D01*
X470612Y402973D01*
X470607Y402979D01*
X470604Y402986D01*
X470439Y403053D01*
X470438Y403052D01*
X470438Y403053D01*
X469784Y403199D01*
X469684Y403356D01*
X469680Y403358D01*
X469678Y403361D01*
X468289Y403924D01*
X468284Y403923D01*
X468281Y403925D01*
X468100Y403882D01*
X467530Y404232D01*
X467528Y404232D01*
X467528Y404233D01*
X466907Y404485D01*
X466834Y404656D01*
X466830Y404658D01*
X466830Y404662D01*
X465551Y405446D01*
X465547Y405445D01*
X465544Y405448D01*
X465359Y405435D01*
X464853Y405875D01*
X464852Y405875D01*
X464852Y405876D01*
X464281Y406226D01*
X464237Y406407D01*
X464234Y406410D01*
X464234Y406413D01*
X463102Y407398D01*
X463097Y407398D01*
X463095Y407400D01*
X462910Y407418D01*
X462484Y407935D01*
X462482Y407935D01*
X462482Y407937D01*
X461977Y408376D01*
X461964Y408562D01*
X461961Y408565D01*
X461961Y408569D01*
X461007Y409726D01*
X461003Y409726D01*
X461001Y409730D01*
X460821Y409778D01*
X460486Y410358D01*
X460484Y410358D01*
X460485Y410359D01*
X460058Y410876D01*
X460076Y411061D01*
X460074Y411065D01*
X460075Y411068D01*
X459324Y412367D01*
X459320Y412368D01*
X459319Y412371D01*
X459149Y412448D01*
X458914Y413076D01*
X458913Y413076D01*
X458913Y413078D01*
X458578Y413657D01*
X458626Y413837D01*
X458624Y413841D01*
X458625Y413845D01*
X458099Y415249D01*
X458095Y415251D01*
X458094Y415254D01*
X457940Y415358D01*
X457811Y416016D01*
X457810Y416017D01*
X457810Y416018D01*
X457575Y416645D01*
X457652Y416814D01*
X457651Y416819D01*
X457652Y416820D01*
X457652Y416821D01*
X457653Y416822D01*
X457364Y418293D01*
X457361Y418296D01*
X457361Y418299D01*
X457225Y418427D01*
X457207Y419097D01*
X457206Y419098D01*
X457206Y419099D01*
X457077Y419756D01*
X457181Y419911D01*
X457181Y419915D01*
X457183Y419918D01*
X457141Y421417D01*
X457138Y421420D01*
X457139Y421424D01*
X457026Y421572D01*
X457118Y422236D01*
X457117Y422237D01*
X457118Y422238D01*
X457099Y422907D01*
X457227Y423043D01*
X457227Y423047D01*
X457230Y423049D01*
X457435Y424535D01*
X457433Y424539D01*
X457434Y424542D01*
X457347Y424707D01*
X457547Y425346D01*
X457546Y425348D01*
X457547Y425348D01*
X457639Y426012D01*
X457787Y426124D01*
X457788Y426129D01*
X457792Y426130D01*
X458238Y427562D01*
X458238Y427563D01*
X458239Y427564D01*
X458236Y427566D01*
X458238Y427569D01*
X458180Y427746D01*
X458482Y428344D01*
X458482Y428345D01*
X458483Y428346D01*
X458682Y428985D01*
X458847Y429072D01*
X458849Y429076D01*
X458852Y429077D01*
X459529Y430415D01*
X459528Y430417D01*
X459529Y430417D01*
X459528Y430418D01*
X459527Y430420D01*
X459530Y430423D01*
X459502Y430607D01*
X459898Y431147D01*
X459898Y431148D01*
X459899Y431148D01*
X460201Y431746D01*
X460378Y431804D01*
X460380Y431808D01*
X460384Y431809D01*
X461271Y433018D01*
X461271Y433022D01*
X461273Y433025D01*
X461276Y433211D01*
X461756Y433678D01*
X461756Y433680D01*
X461757Y433680D01*
X462153Y434220D01*
X462338Y434248D01*
X462340Y434251D01*
X462344Y434251D01*
X463418Y435298D01*
X463419Y435302D01*
X463422Y435304D01*
X463455Y435487D01*
X464005Y435869D01*
X464005Y435871D01*
X464007Y435871D01*
X464486Y436338D01*
X464673Y436336D01*
X464676Y436339D01*
X464679Y436338D01*
X465834Y437139D01*
X465835Y437144D01*
X465839Y437146D01*
X465862Y437235D01*
X465936Y437277D01*
X465941Y437292D01*
X465940Y437293D01*
X465940Y437294D01*
X441888Y478954D01*
X442516Y479251D01*
X442538Y479268D01*
X442565Y479278D01*
X442617Y479327D01*
X442675Y479370D01*
X442689Y479395D01*
X442710Y479414D01*
X442739Y479480D01*
X442775Y479542D01*
X442778Y479570D01*
X442790Y479596D01*
X442791Y479668D01*
X442800Y479739D01*
X442792Y479766D01*
X442793Y479795D01*
X442757Y479890D01*
X442746Y479930D01*
X442739Y479939D01*
X442735Y479951D01*
X433235Y496451D01*
X433183Y496510D01*
X433137Y496572D01*
X433118Y496583D01*
X433103Y496600D01*
X433033Y496634D01*
X432966Y496674D01*
X432942Y496678D01*
X432924Y496686D01*
X432879Y496688D01*
X432802Y496701D01*
X413802Y496701D01*
X413774Y496696D01*
X413746Y496698D01*
X413678Y496676D01*
X413607Y496662D01*
X413584Y496646D01*
X413557Y496637D01*
X413502Y496590D01*
X413443Y496549D01*
X413428Y496525D01*
X413407Y496507D01*
X413375Y496442D01*
X413336Y496382D01*
X413331Y496354D01*
X413319Y496328D01*
X413310Y496227D01*
X413303Y496185D01*
X413305Y496175D01*
X413304Y496162D01*
X413361Y495447D01*
X365239Y495447D01*
X365227Y495437D01*
X365228Y495436D01*
X365227Y495435D01*
X365227Y495363D01*
X365162Y495298D01*
X365161Y495293D01*
X365158Y495291D01*
X365042Y493887D01*
X365045Y493883D01*
X365043Y493880D01*
X365139Y493720D01*
X364974Y493070D01*
X364975Y493069D01*
X364974Y493068D01*
X364919Y492401D01*
X364777Y492281D01*
X364776Y492276D01*
X364773Y492274D01*
X364404Y490818D01*
X364406Y490813D01*
X364404Y490810D01*
X364472Y490637D01*
X364203Y490023D01*
X364203Y490022D01*
X364202Y490021D01*
X364038Y489372D01*
X363878Y489277D01*
X363876Y489272D01*
X363873Y489271D01*
X363269Y487895D01*
X363271Y487891D01*
X363269Y487888D01*
X363307Y487706D01*
X362940Y487145D01*
X362941Y487143D01*
X362939Y487143D01*
X362670Y486530D01*
X362497Y486462D01*
X362495Y486458D01*
X362491Y486457D01*
X361669Y485199D01*
X361670Y485195D01*
X361667Y485192D01*
X361675Y485006D01*
X361221Y484513D01*
X361221Y484512D01*
X361220Y484512D01*
X360854Y483951D01*
X360671Y483913D01*
X360669Y483909D01*
X360665Y483909D01*
X359647Y482803D01*
X359647Y482799D01*
X359644Y482797D01*
X359621Y482612D01*
X359093Y482201D01*
X359092Y482199D01*
X359091Y482199D01*
X358637Y481706D01*
X358530Y481702D01*
X358451Y481699D01*
X358448Y481696D01*
X358444Y481696D01*
X357259Y480773D01*
X357258Y480769D01*
X357254Y480767D01*
X357201Y480589D01*
X356612Y480270D01*
X356612Y480268D01*
X356611Y480269D01*
X356082Y479857D01*
X355897Y479880D01*
X355893Y479878D01*
X355890Y479879D01*
X354568Y479164D01*
X354567Y479159D01*
X354563Y479158D01*
X354481Y478991D01*
X353848Y478774D01*
X353847Y478772D01*
X353846Y478773D01*
X353257Y478454D01*
X353078Y478507D01*
X353074Y478505D01*
X353071Y478507D01*
X351650Y478019D01*
X351647Y478015D01*
X351644Y478015D01*
X351536Y477863D01*
X350875Y477753D01*
X350874Y477752D01*
X350873Y477752D01*
X350239Y477535D01*
X350072Y477617D01*
X350068Y477615D01*
X350065Y477618D01*
X349296Y477489D01*
X349288Y477479D01*
X349286Y477478D01*
X349286Y453351D01*
X336780Y440845D01*
X336780Y440842D01*
X336780Y440841D01*
X336780Y440840D01*
X336777Y440837D01*
X336777Y389219D01*
X336272Y388714D01*
X336272Y388711D01*
X336272Y388710D01*
X336272Y388709D01*
X336269Y388706D01*
X336269Y384838D01*
X336272Y384835D01*
X336271Y384830D01*
X336275Y384830D01*
X336279Y384826D01*
X336283Y384829D01*
X336284Y384829D01*
X336285Y384830D01*
X336289Y384829D01*
X337187Y385727D01*
X340217Y385727D01*
X341194Y384751D01*
X341209Y384750D01*
X341209Y384751D01*
X341210Y384751D01*
X342187Y385727D01*
X345217Y385727D01*
X346194Y384751D01*
X346209Y384750D01*
X346209Y384751D01*
X346210Y384751D01*
X347187Y385727D01*
X350217Y385727D01*
X350633Y385311D01*
X350637Y385311D01*
X350640Y385308D01*
X350643Y385311D01*
X350649Y385310D01*
X350649Y385316D01*
X350653Y385320D01*
X350653Y388435D01*
X350643Y388447D01*
X350642Y388446D01*
X350641Y388447D01*
X345968Y388447D01*
X345075Y389340D01*
X345075Y397680D01*
X345071Y397684D01*
X345072Y397688D01*
X336874Y405885D01*
X336874Y436858D01*
X351689Y451673D01*
X351690Y451676D01*
X351691Y451678D01*
X351690Y451678D01*
X351693Y451681D01*
X351693Y454869D01*
X354801Y457978D01*
X359198Y457978D01*
X362306Y454869D01*
X362306Y450473D01*
X359198Y447364D01*
X356009Y447364D01*
X356005Y447361D01*
X356001Y447361D01*
X342975Y434335D01*
X342975Y434330D01*
X342972Y434327D01*
X342972Y408416D01*
X342976Y408412D01*
X342975Y408408D01*
X349883Y401500D01*
X349889Y401499D01*
X349892Y401496D01*
X358231Y401496D01*
X359125Y400603D01*
X359125Y389340D01*
X358231Y388447D01*
X356763Y388447D01*
X356751Y388436D01*
X356751Y388435D01*
X356751Y385320D01*
X356754Y385317D01*
X356753Y385312D01*
X356757Y385312D01*
X356761Y385308D01*
X356765Y385312D01*
X356771Y385311D01*
X357187Y385727D01*
X360217Y385727D01*
X361194Y384751D01*
X361209Y384750D01*
X361209Y384751D01*
X361210Y384751D01*
X362187Y385727D01*
X365217Y385727D01*
X366477Y384468D01*
X366477Y376937D01*
X365217Y375677D01*
X362187Y375677D01*
X361210Y376653D01*
X361195Y376654D01*
X361195Y376653D01*
X361194Y376653D01*
X360217Y375677D01*
X357187Y375677D01*
X356210Y376653D01*
X356195Y376654D01*
X356195Y376653D01*
X356194Y376653D01*
X355217Y375677D01*
X352187Y375677D01*
X351210Y376653D01*
X351195Y376654D01*
X351195Y376653D01*
X351194Y376653D01*
X350217Y375677D01*
X347187Y375677D01*
X346210Y376653D01*
X346195Y376654D01*
X346195Y376653D01*
X346194Y376653D01*
X345217Y375677D01*
X342187Y375677D01*
X341210Y376653D01*
X341195Y376654D01*
X341195Y376653D01*
X341194Y376653D01*
X340217Y375677D01*
X337187Y375677D01*
X336210Y376653D01*
X336195Y376654D01*
X336195Y376653D01*
X336194Y376653D01*
X335217Y375677D01*
X332187Y375677D01*
X331210Y376653D01*
X331195Y376654D01*
X331195Y376653D01*
X331194Y376653D01*
X330217Y375677D01*
X327187Y375677D01*
X326210Y376653D01*
X326195Y376654D01*
X326195Y376653D01*
X326194Y376653D01*
X325217Y375677D01*
X322187Y375677D01*
X321210Y376653D01*
X321195Y376654D01*
X321195Y376653D01*
X321194Y376653D01*
X320217Y375677D01*
X317187Y375677D01*
X315927Y376937D01*
X315927Y379160D01*
X315924Y379165D01*
X315924Y379169D01*
X315728Y379365D01*
X315724Y379365D01*
X315721Y379368D01*
X315718Y379365D01*
X315712Y379366D01*
X315712Y379360D01*
X315707Y379356D01*
X315707Y376242D01*
X315711Y376237D01*
X315711Y376233D01*
X316727Y375217D01*
X316727Y372187D01*
X315467Y370927D01*
X313244Y370927D01*
X313239Y370924D01*
X313235Y370924D01*
X312965Y370653D01*
X310439Y370653D01*
X310169Y370924D01*
X310163Y370924D01*
X310160Y370927D01*
X307936Y370927D01*
X306677Y372187D01*
X306677Y374054D01*
X306667Y374066D01*
X306666Y374066D01*
X306665Y374066D01*
X302012Y374066D01*
X302000Y374056D01*
X302001Y374055D01*
X302000Y374054D01*
X302000Y370984D01*
X301107Y370090D01*
X289844Y370090D01*
X288951Y370984D01*
X288951Y374054D01*
X288940Y374066D01*
X288939Y374066D01*
X284384Y374066D01*
X277590Y380860D01*
X277584Y380861D01*
X277581Y380864D01*
X265741Y380864D01*
X264848Y381757D01*
X264848Y396020D01*
X265741Y396913D01*
X282005Y396913D01*
X282898Y396020D01*
X282898Y384180D01*
X282902Y384176D01*
X282901Y384172D01*
X286906Y380167D01*
X286911Y380167D01*
X286914Y380164D01*
X288939Y380164D01*
X288951Y380174D01*
X288950Y380175D01*
X288951Y380176D01*
X288951Y383247D01*
X289844Y384140D01*
X301107Y384140D01*
X302000Y383247D01*
X302000Y380176D01*
X302011Y380164D01*
X302012Y380165D01*
X302012Y380164D01*
X309552Y380164D01*
X309590Y380126D01*
X309594Y380126D01*
X309597Y380122D01*
X309600Y380125D01*
X309605Y380125D01*
X309606Y380130D01*
X309610Y380134D01*
X309610Y389907D01*
X309606Y389912D01*
X309607Y389916D01*
X306991Y392531D01*
X306991Y402726D01*
X306988Y402731D01*
X306988Y402735D01*
X304733Y404989D01*
X304733Y409386D01*
X307842Y412494D01*
X312238Y412494D01*
X315347Y409386D01*
X315347Y404989D01*
X313092Y402735D01*
X313092Y402729D01*
X313089Y402726D01*
X313089Y395062D01*
X313093Y395057D01*
X313092Y395053D01*
X315633Y392513D01*
X315637Y392512D01*
X315640Y392509D01*
X315643Y392512D01*
X315649Y392512D01*
X315649Y392517D01*
X315653Y392521D01*
X315653Y443402D01*
X315650Y443406D01*
X315650Y443410D01*
X311755Y447305D01*
X311749Y447305D01*
X311747Y447309D01*
X308558Y447309D01*
X307445Y448422D01*
X307429Y448423D01*
X307429Y448422D01*
X307428Y448422D01*
X305109Y446103D01*
X290775Y446103D01*
X288417Y448461D01*
X288417Y456795D01*
X290775Y459153D01*
X305109Y459153D01*
X307441Y456821D01*
X307456Y456820D01*
X307456Y456821D01*
X307457Y456821D01*
X308558Y457922D01*
X312954Y457922D01*
X316063Y454813D01*
X316063Y451625D01*
X316067Y451621D01*
X316067Y451617D01*
X321751Y445932D01*
X321751Y385320D01*
X321754Y385317D01*
X321753Y385312D01*
X321757Y385312D01*
X321761Y385308D01*
X321765Y385312D01*
X321771Y385311D01*
X322187Y385727D01*
X325217Y385727D01*
X326194Y384751D01*
X326209Y384750D01*
X326209Y384751D01*
X326210Y384751D01*
X326236Y384776D01*
X326236Y384782D01*
X326239Y384785D01*
X326239Y388538D01*
X326236Y388543D01*
X326236Y388547D01*
X325653Y389129D01*
X325653Y447564D01*
X335718Y457629D01*
X335718Y457633D01*
X335720Y457634D01*
X335719Y457635D01*
X335721Y457637D01*
X335721Y469826D01*
X335717Y469830D01*
X335718Y469834D01*
X333463Y472088D01*
X333463Y476485D01*
X336572Y479593D01*
X336995Y479593D01*
X336999Y479597D01*
X337004Y479598D01*
X337004Y479601D01*
X337006Y479604D01*
X337002Y479609D01*
X337000Y479616D01*
X336514Y479879D01*
X336510Y479878D01*
X336507Y479880D01*
X336322Y479857D01*
X335793Y480269D01*
X335792Y480269D01*
X335792Y480270D01*
X335203Y480589D01*
X335150Y480767D01*
X335146Y480770D01*
X335145Y480773D01*
X333960Y481696D01*
X333955Y481696D01*
X333953Y481699D01*
X333874Y481702D01*
X333767Y481706D01*
X333313Y482199D01*
X333311Y482199D01*
X333311Y482201D01*
X332783Y482612D01*
X332760Y482797D01*
X332756Y482800D01*
X332757Y482803D01*
X331739Y483909D01*
X331734Y483910D01*
X331733Y483913D01*
X331550Y483951D01*
X331184Y484512D01*
X331183Y484512D01*
X331183Y484513D01*
X330729Y485006D01*
X330737Y485192D01*
X330734Y485196D01*
X330735Y485199D01*
X329913Y486457D01*
X329908Y486458D01*
X329907Y486462D01*
X329734Y486530D01*
X329465Y487143D01*
X329463Y487144D01*
X329464Y487145D01*
X329097Y487706D01*
X329135Y487888D01*
X329133Y487892D01*
X329135Y487895D01*
X328531Y489271D01*
X328527Y489273D01*
X328526Y489277D01*
X328366Y489372D01*
X328202Y490021D01*
X328201Y490022D01*
X328201Y490023D01*
X327932Y490637D01*
X328000Y490810D01*
X327998Y490815D01*
X328000Y490818D01*
X327631Y492274D01*
X327627Y492277D01*
X327627Y492281D01*
X327485Y492401D01*
X327430Y493068D01*
X327429Y493069D01*
X327430Y493070D01*
X327265Y493720D01*
X327361Y493880D01*
X327360Y493884D01*
X327362Y493887D01*
X327246Y495291D01*
X327242Y495294D01*
X327242Y495298D01*
X327177Y495363D01*
X327177Y495435D01*
X327167Y495447D01*
X327166Y495446D01*
X327165Y495447D01*
X279043Y495447D01*
X279100Y496162D01*
X279096Y496191D01*
X279101Y496219D01*
X279084Y496288D01*
X279076Y496360D01*
X279062Y496384D01*
X279055Y496412D01*
X279012Y496470D01*
X278977Y496532D01*
X278954Y496549D01*
X278937Y496572D01*
X278875Y496609D01*
X278818Y496652D01*
X278790Y496659D01*
X278766Y496674D01*
X278666Y496690D01*
X278625Y496701D01*
X278615Y496699D01*
X278602Y496701D01*
X259602Y496701D01*
X259526Y496686D01*
X259448Y496677D01*
X259429Y496666D01*
X259407Y496662D01*
X259343Y496618D01*
X259275Y496579D01*
X259259Y496560D01*
X259243Y496549D01*
X259219Y496511D01*
X259169Y496451D01*
X249669Y479951D01*
X249660Y479924D01*
X249644Y479900D01*
X249629Y479830D01*
X249606Y479762D01*
X249609Y479734D01*
X249603Y479706D01*
X249617Y479636D01*
X249622Y479564D01*
X249635Y479539D01*
X249641Y479511D01*
X249681Y479451D01*
X249714Y479388D01*
X249736Y479370D01*
X249752Y479346D01*
X249835Y479288D01*
X249867Y479261D01*
X249878Y479258D01*
X249889Y479251D01*
X250516Y478954D01*
X226464Y437294D01*
X226467Y437278D01*
X226468Y437278D01*
X226468Y437277D01*
X226542Y437235D01*
X226565Y437146D01*
X226570Y437143D01*
X226570Y437139D01*
X227725Y436338D01*
X227729Y436338D01*
X227731Y436336D01*
X227918Y436338D01*
X228397Y435871D01*
X228399Y435871D01*
X228399Y435869D01*
X228949Y435487D01*
X228982Y435304D01*
X228986Y435301D01*
X228986Y435298D01*
X230060Y434251D01*
X230065Y434251D01*
X230066Y434248D01*
X230251Y434220D01*
X230647Y433680D01*
X230648Y433679D01*
X230648Y433678D01*
X231128Y433211D01*
X231131Y433025D01*
X231134Y433021D01*
X231133Y433018D01*
X232020Y431809D01*
X232025Y431808D01*
X232026Y431804D01*
X232203Y431746D01*
X232505Y431148D01*
X232506Y431148D01*
X232506Y431147D01*
X232902Y430607D01*
X232874Y430423D01*
X232876Y430420D01*
X232875Y430420D01*
X232877Y430419D01*
X232875Y430415D01*
X233552Y429077D01*
X233556Y429075D01*
X233557Y429072D01*
X233722Y428985D01*
X233921Y428346D01*
X233922Y428345D01*
X233922Y428344D01*
X234224Y427746D01*
X234166Y427569D01*
X234166Y427568D01*
X234165Y427567D01*
X234167Y427565D01*
X234166Y427562D01*
X234612Y426130D01*
X234616Y426128D01*
X234617Y426124D01*
X234765Y426012D01*
X234857Y425348D01*
X234858Y425347D01*
X234857Y425346D01*
X235057Y424707D01*
X234970Y424542D01*
X234971Y424538D01*
X234969Y424535D01*
X235174Y423049D01*
X235177Y423046D01*
X235177Y423043D01*
X235305Y422907D01*
X235286Y422238D01*
X235287Y422237D01*
X235286Y422236D01*
X235378Y421572D01*
X235265Y421424D01*
X235266Y421421D01*
X235264Y421419D01*
X235264Y421418D01*
X235263Y421417D01*
X235221Y419918D01*
X235224Y419914D01*
X235223Y419911D01*
X235327Y419756D01*
X235198Y419099D01*
X235198Y419098D01*
X235197Y419097D01*
X235179Y418427D01*
X235043Y418299D01*
X235043Y418295D01*
X235040Y418293D01*
X234751Y416822D01*
X234754Y416818D01*
X234752Y416814D01*
X234829Y416645D01*
X234594Y416018D01*
X234594Y416016D01*
X234593Y416016D01*
X234464Y415358D01*
X234310Y415254D01*
X234309Y415250D01*
X234305Y415249D01*
X233779Y413845D01*
X233780Y413840D01*
X233780Y413839D01*
X233779Y413839D01*
X233779Y413838D01*
X233778Y413837D01*
X233826Y413657D01*
X233491Y413078D01*
X233491Y413076D01*
X233490Y413076D01*
X233255Y412448D01*
X233085Y412371D01*
X233083Y412367D01*
X233080Y412367D01*
X232670Y411658D01*
X232671Y411656D01*
X232669Y411654D01*
X232671Y411651D01*
X232672Y411647D01*
X232672Y411644D01*
X241552Y402763D01*
X241552Y361369D01*
X241556Y361364D01*
X241556Y361360D01*
X245176Y357740D01*
X245181Y357740D01*
X245184Y357737D01*
X273070Y357737D01*
X273073Y357740D01*
X273077Y357739D01*
X273078Y357744D01*
X273082Y357747D01*
X273078Y357752D01*
X273079Y357757D01*
X269662Y361174D01*
X269656Y361174D01*
X269654Y361177D01*
X254026Y361177D01*
X254022Y361173D01*
X254018Y361174D01*
X251743Y358899D01*
X247347Y358899D01*
X244238Y362007D01*
X244238Y366404D01*
X247347Y369512D01*
X251743Y369512D01*
X253977Y367278D01*
X253983Y367278D01*
X253986Y367275D01*
X261333Y367275D01*
X261336Y367277D01*
X261340Y367277D01*
X261340Y367281D01*
X261345Y367285D01*
X261341Y367289D01*
X261341Y367295D01*
X255370Y373267D01*
X253580Y375056D01*
X253580Y416835D01*
X266905Y430160D01*
X278708Y430160D01*
X278713Y430164D01*
X278717Y430163D01*
X280971Y432418D01*
X285368Y432418D01*
X287622Y430163D01*
X287628Y430163D01*
X287630Y430160D01*
X288405Y430160D01*
X288417Y430170D01*
X288417Y430171D01*
X288417Y430172D01*
X288417Y431395D01*
X290775Y433753D01*
X305109Y433753D01*
X307467Y431395D01*
X307467Y423061D01*
X305109Y420703D01*
X290775Y420703D01*
X288417Y423061D01*
X288417Y424050D01*
X288407Y424062D01*
X288406Y424062D01*
X288405Y424062D01*
X287630Y424062D01*
X287626Y424059D01*
X287622Y424059D01*
X285368Y421804D01*
X280971Y421804D01*
X278717Y424059D01*
X278711Y424059D01*
X278708Y424062D01*
X269436Y424062D01*
X269432Y424059D01*
X269427Y424059D01*
X259681Y414313D01*
X259681Y414307D01*
X259678Y414304D01*
X259678Y377587D01*
X259681Y377582D01*
X259681Y377578D01*
X264121Y373138D01*
X264127Y373138D01*
X264130Y373134D01*
X274968Y373134D01*
X281856Y366246D01*
X281862Y366246D01*
X281865Y366243D01*
X307698Y366243D01*
X307702Y366246D01*
X307706Y366246D01*
X307936Y366477D01*
X315467Y366477D01*
X316727Y365217D01*
X316727Y362187D01*
X315751Y361210D01*
X315750Y361207D01*
X315750Y361206D01*
X315750Y361195D01*
X315751Y361195D01*
X315751Y361194D01*
X316727Y360217D01*
X316727Y357187D01*
X315751Y356210D01*
X315750Y356206D01*
X315748Y356204D01*
X315750Y356202D01*
X315750Y356195D01*
X315751Y356195D01*
X315751Y356194D01*
X316727Y355217D01*
X316727Y352187D01*
X315751Y351210D01*
X315750Y351205D01*
X315748Y351203D01*
X315750Y351200D01*
X315750Y351195D01*
X315751Y351195D01*
X315751Y351194D01*
X316727Y350217D01*
X316727Y347187D01*
X315751Y346210D01*
X315750Y346201D01*
X315750Y346195D01*
X315751Y346195D01*
X315751Y346194D01*
X316727Y345217D01*
X316727Y342187D01*
X315751Y341210D01*
X315750Y341195D01*
X315751Y341195D01*
X315751Y341194D01*
X316727Y340217D01*
X316727Y337187D01*
X315751Y336210D01*
X315750Y336195D01*
X315751Y336195D01*
X315751Y336194D01*
X316727Y335217D01*
X316727Y332187D01*
X315751Y331210D01*
X315750Y331195D01*
X315751Y331195D01*
X315751Y331194D01*
X316727Y330217D01*
X316727Y327187D01*
X315751Y326210D01*
X315750Y326207D01*
X315749Y326206D01*
X315750Y326204D01*
X315750Y326195D01*
X315751Y326195D01*
X315751Y326194D01*
X316727Y325217D01*
X316727Y322187D01*
X315751Y321210D01*
X315750Y321206D01*
X315747Y321204D01*
X315750Y321201D01*
X315750Y321195D01*
X315751Y321195D01*
X315751Y321194D01*
X316727Y320217D01*
X316727Y317187D01*
X315467Y315927D01*
X307936Y315927D01*
X306677Y317187D01*
X306677Y320217D01*
X307653Y321194D01*
X307654Y321198D01*
X307657Y321201D01*
X307654Y321204D01*
X307654Y321209D01*
X307653Y321209D01*
X307653Y321210D01*
X306677Y322187D01*
X306677Y325217D01*
X307653Y326194D01*
X307654Y326202D01*
X307655Y326203D01*
X307654Y326203D01*
X307654Y326209D01*
X307653Y326209D01*
X307653Y326210D01*
X306677Y327187D01*
X306677Y330217D01*
X307653Y331194D01*
X307654Y331209D01*
X307653Y331209D01*
X307653Y331210D01*
X306677Y332187D01*
X306677Y335217D01*
X307653Y336194D01*
X307654Y336209D01*
X307653Y336209D01*
X307653Y336210D01*
X306677Y337187D01*
X306677Y340217D01*
X307601Y341141D01*
X307601Y341145D01*
X307604Y341148D01*
X307601Y341151D01*
X307602Y341157D01*
X307596Y341157D01*
X307592Y341161D01*
X299505Y341161D01*
X299501Y341158D01*
X299497Y341158D01*
X298992Y340653D01*
X296466Y340653D01*
X291473Y345647D01*
X291467Y345647D01*
X291465Y345650D01*
X288040Y345650D01*
X288037Y345647D01*
X288033Y345648D01*
X288032Y345643D01*
X288028Y345640D01*
X288032Y345635D01*
X288032Y345630D01*
X288237Y345424D01*
X288237Y341354D01*
X288247Y341342D01*
X288248Y341342D01*
X288249Y341342D01*
X291902Y341342D01*
X305792Y327451D01*
X305792Y303940D01*
X305803Y303928D01*
X305804Y303929D01*
X305804Y303928D01*
X308875Y303928D01*
X309768Y303035D01*
X309768Y301701D01*
X309779Y301689D01*
X309780Y301690D01*
X309780Y301689D01*
X313560Y301689D01*
X313564Y301693D01*
X313568Y301693D01*
X315650Y303774D01*
X315650Y303780D01*
X315653Y303783D01*
X315653Y312965D01*
X315924Y313235D01*
X315924Y313241D01*
X315927Y313244D01*
X315927Y315467D01*
X317187Y316727D01*
X320217Y316727D01*
X321477Y315467D01*
X321477Y313244D01*
X321480Y313240D01*
X321480Y313235D01*
X321751Y312965D01*
X321751Y302420D01*
X321754Y302416D01*
X321754Y302412D01*
X323327Y300839D01*
X323327Y296442D01*
X320219Y293334D01*
X315823Y293334D01*
X313568Y295588D01*
X313562Y295589D01*
X313560Y295592D01*
X309780Y295592D01*
X309769Y295581D01*
X309768Y295580D01*
X309768Y291772D01*
X308875Y290879D01*
X296612Y290879D01*
X295719Y291772D01*
X295719Y303035D01*
X296612Y303928D01*
X299683Y303928D01*
X299695Y303939D01*
X299694Y303940D01*
X299695Y303940D01*
X299695Y324920D01*
X299691Y324925D01*
X299692Y324929D01*
X289380Y335241D01*
X289374Y335241D01*
X289371Y335244D01*
X288249Y335244D01*
X288237Y335234D01*
X288238Y335233D01*
X288237Y335232D01*
X288237Y331161D01*
X287344Y330268D01*
X271080Y330268D01*
X270187Y331161D01*
X270187Y335232D01*
X270177Y335244D01*
X270176Y335243D01*
X270175Y335244D01*
X233082Y335244D01*
X231293Y337034D01*
X224991Y343335D01*
X224986Y343336D01*
X224983Y343339D01*
X224481Y343339D01*
X224477Y343335D01*
X224473Y343335D01*
X222218Y341081D01*
X217822Y341081D01*
X214713Y344189D01*
X214713Y348586D01*
X217822Y351694D01*
X222218Y351694D01*
X224473Y349440D01*
X224478Y349439D01*
X224481Y349436D01*
X227513Y349436D01*
X229303Y347647D01*
X235604Y341345D01*
X235610Y341345D01*
X235613Y341342D01*
X270175Y341342D01*
X270187Y341352D01*
X270187Y341353D01*
X270187Y341354D01*
X270187Y345424D01*
X270393Y345630D01*
X270393Y345634D01*
X270396Y345637D01*
X270393Y345640D01*
X270394Y345645D01*
X270388Y345646D01*
X270384Y345650D01*
X240037Y345650D01*
X228990Y356697D01*
X228990Y394772D01*
X228987Y394776D01*
X228987Y394780D01*
X228025Y395742D01*
X228019Y395742D01*
X228017Y395746D01*
X224897Y395746D01*
X221788Y398854D01*
X221788Y402963D01*
X221787Y402965D01*
X221788Y402966D01*
X221784Y402968D01*
X221778Y402975D01*
X221777Y402974D01*
X221776Y402974D01*
X221773Y402974D01*
X221772Y402974D01*
X221344Y402801D01*
X221172Y402873D01*
X221168Y402872D01*
X221165Y402874D01*
X219701Y402547D01*
X219699Y402543D01*
X219695Y402543D01*
X219571Y402405D01*
X218902Y402368D01*
X218901Y402367D01*
X218900Y402368D01*
X218246Y402222D01*
X218089Y402322D01*
X218084Y402321D01*
X218082Y402324D01*
X216585Y402242D01*
X216581Y402239D01*
X216578Y402239D01*
X216432Y402123D01*
X215767Y402197D01*
X215766Y402196D01*
X215765Y402197D01*
X215096Y402161D01*
X214957Y402285D01*
X214952Y402285D01*
X214950Y402288D01*
X213460Y402454D01*
X213456Y402451D01*
X213453Y402453D01*
X213290Y402362D01*
X212646Y402545D01*
X212645Y402544D01*
X212644Y402544D01*
X212644Y402545D01*
X211978Y402619D01*
X211862Y402765D01*
X211857Y402765D01*
X211856Y402769D01*
X210413Y403178D01*
X210412Y403177D01*
X210407Y403177D01*
X210406Y403177D01*
X210230Y403115D01*
X209625Y403401D01*
X209623Y403400D01*
X209623Y403401D01*
X208978Y403584D01*
X208888Y403747D01*
X208883Y403748D01*
X208882Y403752D01*
X207612Y404352D01*
X207607Y404351D01*
X207603Y404353D01*
X207514Y404329D01*
X207463Y404359D01*
X207461Y404358D01*
X207460Y404359D01*
X207456Y404359D01*
X207454Y404357D01*
X207448Y404356D01*
X207448Y404355D01*
X207447Y404355D01*
X183394Y362693D01*
X182786Y363113D01*
X182759Y363124D01*
X182737Y363143D01*
X182668Y363163D01*
X182603Y363191D01*
X182574Y363191D01*
X182546Y363199D01*
X182475Y363191D01*
X182404Y363192D01*
X182377Y363180D01*
X182348Y363177D01*
X182286Y363142D01*
X182221Y363114D01*
X182200Y363094D01*
X182175Y363079D01*
X182112Y363002D01*
X182082Y362972D01*
X182078Y362962D01*
X182069Y362951D01*
X172569Y346451D01*
X172545Y346378D01*
X172514Y346308D01*
X172514Y346284D01*
X172506Y346262D01*
X172513Y346186D01*
X172512Y346109D01*
X172521Y346085D01*
X172522Y346064D01*
X172543Y346025D01*
X172562Y345973D01*
X172563Y345967D01*
X172565Y345965D01*
X172569Y345953D01*
X182069Y329453D01*
X182088Y329431D01*
X182101Y329405D01*
X182154Y329357D01*
X182201Y329304D01*
X182227Y329291D01*
X182249Y329272D01*
X182316Y329249D01*
X182380Y329218D01*
X182409Y329217D01*
X182436Y329207D01*
X182508Y329212D01*
X182579Y329209D01*
X182606Y329219D01*
X182635Y329221D01*
X182725Y329263D01*
X182765Y329278D01*
X182773Y329285D01*
X182786Y329291D01*
X183394Y329711D01*
X207447Y288049D01*
X207462Y288044D01*
X207462Y288045D01*
X207463Y288045D01*
X207514Y288075D01*
X207603Y288051D01*
X207605Y288052D01*
X207609Y288052D01*
X207610Y288052D01*
X207612Y288052D01*
X208882Y288652D01*
X208884Y288656D01*
X208888Y288657D01*
X208978Y288820D01*
X209623Y289002D01*
X209624Y289004D01*
X209625Y289003D01*
X210230Y289289D01*
X210406Y289227D01*
X210410Y289228D01*
X210413Y289226D01*
X211856Y289635D01*
X211858Y289639D01*
X211862Y289639D01*
X211978Y289785D01*
X212644Y289859D01*
X212645Y289860D01*
X212646Y289859D01*
X213290Y290042D01*
X213453Y289951D01*
X213457Y289952D01*
X213460Y289950D01*
X214950Y290116D01*
X214953Y290119D01*
X214957Y290119D01*
X215096Y290243D01*
X215765Y290207D01*
X215766Y290208D01*
X215767Y290207D01*
X216432Y290281D01*
X216578Y290165D01*
X216582Y290165D01*
X216585Y290162D01*
X218082Y290080D01*
X218083Y290081D01*
X218084Y290081D01*
X218086Y290083D01*
X218089Y290082D01*
X218246Y290182D01*
X218900Y290036D01*
X218901Y290037D01*
X218902Y290036D01*
X219571Y289999D01*
X219695Y289861D01*
X219700Y289860D01*
X219701Y289857D01*
X221165Y289530D01*
X221169Y289532D01*
X221172Y289531D01*
X221344Y289603D01*
X221965Y289351D01*
X221966Y289352D01*
X221966Y289351D01*
X222620Y289205D01*
X222720Y289048D01*
X222724Y289046D01*
X222726Y289043D01*
X224115Y288480D01*
X224120Y288481D01*
X224123Y288479D01*
X224304Y288522D01*
X224874Y288172D01*
X224876Y288172D01*
X224876Y288171D01*
X225497Y287919D01*
X225570Y287748D01*
X225574Y287746D01*
X225574Y287742D01*
X226853Y286958D01*
X226857Y286959D01*
X226860Y286956D01*
X227045Y286969D01*
X227551Y286529D01*
X227552Y286529D01*
X227552Y286528D01*
X228123Y286178D01*
X228167Y285997D01*
X228170Y285994D01*
X228170Y285991D01*
X228798Y285445D01*
X228814Y285445D01*
G37*
G36*
X278630Y195708D02*
X278630Y195708D01*
X278658Y195706D01*
X278726Y195728D01*
X278797Y195742D01*
X278820Y195758D01*
X278847Y195767D01*
X278902Y195814D01*
X278961Y195855D01*
X278976Y195879D01*
X278998Y195897D01*
X279029Y195962D01*
X279068Y196022D01*
X279073Y196050D01*
X279085Y196076D01*
X279094Y196177D01*
X279101Y196219D01*
X279099Y196229D01*
X279100Y196242D01*
X279043Y196957D01*
X327165Y196957D01*
X327177Y196967D01*
X327176Y196968D01*
X327177Y196969D01*
X327177Y197041D01*
X327242Y197106D01*
X327243Y197110D01*
X327243Y197111D01*
X327246Y197113D01*
X327362Y198517D01*
X327359Y198521D01*
X327361Y198524D01*
X327265Y198684D01*
X327430Y199334D01*
X327429Y199335D01*
X327430Y199336D01*
X327485Y200003D01*
X327627Y200123D01*
X327628Y200128D01*
X327631Y200130D01*
X328000Y201586D01*
X328000Y201587D01*
X328000Y201588D01*
X327998Y201591D01*
X328000Y201594D01*
X327932Y201767D01*
X328201Y202381D01*
X328201Y202382D01*
X328202Y202383D01*
X328366Y203032D01*
X328526Y203127D01*
X328528Y203132D01*
X328531Y203133D01*
X329135Y204509D01*
X329134Y204511D01*
X329135Y204512D01*
X329134Y204514D01*
X329135Y204516D01*
X329097Y204698D01*
X329464Y205259D01*
X329463Y205261D01*
X329465Y205261D01*
X329734Y205874D01*
X329907Y205942D01*
X329909Y205946D01*
X329913Y205947D01*
X330735Y207205D01*
X330734Y207208D01*
X330736Y207210D01*
X330735Y207211D01*
X330737Y207212D01*
X330729Y207398D01*
X331183Y207891D01*
X331183Y207892D01*
X331184Y207892D01*
X331550Y208453D01*
X331733Y208491D01*
X331735Y208495D01*
X331739Y208495D01*
X332757Y209601D01*
X332757Y209605D01*
X332760Y209607D01*
X332783Y209792D01*
X333311Y210203D01*
X333312Y210205D01*
X333313Y210205D01*
X333767Y210698D01*
X333953Y210705D01*
X333956Y210708D01*
X333959Y210708D01*
X335145Y211631D01*
X335146Y211635D01*
X335150Y211637D01*
X335203Y211815D01*
X335792Y212134D01*
X335792Y212136D01*
X335793Y212135D01*
X336322Y212547D01*
X336507Y212524D01*
X336511Y212526D01*
X336514Y212525D01*
X337836Y213240D01*
X337837Y213245D01*
X337841Y213246D01*
X337923Y213413D01*
X338556Y213630D01*
X338557Y213632D01*
X338558Y213631D01*
X339147Y213950D01*
X339326Y213897D01*
X339330Y213899D01*
X339333Y213897D01*
X340754Y214385D01*
X340757Y214389D01*
X340760Y214389D01*
X340868Y214541D01*
X341529Y214651D01*
X341530Y214652D01*
X341531Y214652D01*
X342165Y214869D01*
X342332Y214787D01*
X342336Y214789D01*
X342339Y214786D01*
X343143Y214921D01*
X343152Y214931D01*
X343153Y214932D01*
X343153Y265613D01*
X354364Y276824D01*
X354364Y276828D01*
X354365Y276829D01*
X354367Y276831D01*
X354364Y276834D01*
X354365Y276839D01*
X354359Y276840D01*
X354355Y276844D01*
X350537Y276844D01*
X347428Y279953D01*
X347428Y283108D01*
X347424Y283112D01*
X347425Y283116D01*
X346771Y283770D01*
X346767Y283770D01*
X346764Y283773D01*
X346761Y283771D01*
X346755Y283771D01*
X346755Y283765D01*
X346751Y283762D01*
X346751Y278787D01*
X334921Y266957D01*
X334921Y266951D01*
X334918Y266949D01*
X334918Y256022D01*
X334928Y256010D01*
X334929Y256011D01*
X334929Y256010D01*
X336820Y256010D01*
X339929Y252901D01*
X339929Y248505D01*
X336820Y245396D01*
X332424Y245396D01*
X329315Y248505D01*
X329315Y250588D01*
X329312Y250593D01*
X329312Y250597D01*
X328820Y251089D01*
X328820Y269479D01*
X340650Y281309D01*
X340650Y281315D01*
X340653Y281317D01*
X340653Y307084D01*
X340651Y307087D01*
X340651Y307092D01*
X340647Y307092D01*
X340643Y307096D01*
X340639Y307092D01*
X340633Y307093D01*
X340217Y306677D01*
X337187Y306677D01*
X336263Y307601D01*
X336259Y307601D01*
X336256Y307604D01*
X336253Y307601D01*
X336247Y307602D01*
X336247Y307596D01*
X336243Y307592D01*
X336243Y303683D01*
X336246Y303679D01*
X336246Y303675D01*
X336861Y303061D01*
X336861Y288787D01*
X319725Y271651D01*
X245361Y271651D01*
X245357Y271648D01*
X245353Y271648D01*
X243098Y269393D01*
X238702Y269393D01*
X235593Y272502D01*
X235593Y276898D01*
X238702Y280007D01*
X243098Y280007D01*
X245353Y277752D01*
X245358Y277752D01*
X245360Y277750D01*
X245361Y277749D01*
X317194Y277749D01*
X317198Y277752D01*
X317202Y277752D01*
X330760Y291310D01*
X330760Y291315D01*
X330763Y291318D01*
X330763Y291721D01*
X330760Y291724D01*
X330761Y291729D01*
X330756Y291729D01*
X330753Y291733D01*
X330748Y291729D01*
X330743Y291730D01*
X319614Y280601D01*
X232775Y280601D01*
X232773Y280599D01*
X232770Y280600D01*
X232769Y280595D01*
X232763Y280590D01*
X232766Y280587D01*
X232765Y280583D01*
X233080Y280037D01*
X233084Y280036D01*
X233085Y280033D01*
X233255Y279956D01*
X233490Y279328D01*
X233491Y279328D01*
X233491Y279326D01*
X233826Y278747D01*
X233778Y278567D01*
X233780Y278564D01*
X233779Y278563D01*
X233780Y278562D01*
X233779Y278559D01*
X234305Y277155D01*
X234309Y277153D01*
X234310Y277150D01*
X234464Y277046D01*
X234593Y276388D01*
X234594Y276387D01*
X234594Y276386D01*
X234829Y275759D01*
X234752Y275590D01*
X234753Y275585D01*
X234751Y275582D01*
X235040Y274111D01*
X235043Y274108D01*
X235043Y274105D01*
X235179Y273977D01*
X235197Y273307D01*
X235198Y273306D01*
X235198Y273305D01*
X235327Y272648D01*
X235223Y272493D01*
X235223Y272489D01*
X235221Y272487D01*
X235221Y272486D01*
X235263Y270987D01*
X235266Y270984D01*
X235265Y270980D01*
X235378Y270832D01*
X235286Y270168D01*
X235287Y270167D01*
X235286Y270166D01*
X235305Y269497D01*
X235177Y269361D01*
X235177Y269357D01*
X235174Y269355D01*
X234969Y267869D01*
X234970Y267867D01*
X234971Y267865D01*
X234970Y267862D01*
X235057Y267697D01*
X234857Y267058D01*
X234858Y267056D01*
X234857Y267056D01*
X234765Y266392D01*
X234617Y266280D01*
X234616Y266275D01*
X234612Y266274D01*
X234166Y264842D01*
X234168Y264838D01*
X234166Y264835D01*
X234224Y264658D01*
X233922Y264060D01*
X233922Y264059D01*
X233921Y264058D01*
X233722Y263419D01*
X233557Y263332D01*
X233555Y263328D01*
X233552Y263327D01*
X232875Y261989D01*
X232877Y261984D01*
X232874Y261981D01*
X232902Y261797D01*
X232506Y261257D01*
X232506Y261256D01*
X232505Y261256D01*
X232203Y260658D01*
X232026Y260600D01*
X232024Y260596D01*
X232020Y260595D01*
X231133Y259386D01*
X231133Y259382D01*
X231131Y259379D01*
X231128Y259193D01*
X230648Y258726D01*
X230648Y258724D01*
X230647Y258724D01*
X230251Y258184D01*
X230066Y258156D01*
X230064Y258153D01*
X230060Y258153D01*
X228986Y257106D01*
X228985Y257102D01*
X228984Y257101D01*
X228982Y257100D01*
X228949Y256917D01*
X228399Y256535D01*
X228399Y256533D01*
X228398Y256533D01*
X227918Y256066D01*
X227731Y256068D01*
X227728Y256065D01*
X227725Y256066D01*
X226570Y255265D01*
X226569Y255260D01*
X226565Y255258D01*
X226542Y255169D01*
X226468Y255127D01*
X226466Y255121D01*
X226462Y255118D01*
X226464Y255115D01*
X226463Y255112D01*
X226464Y255111D01*
X226464Y255110D01*
X250516Y213450D01*
X249889Y213153D01*
X249866Y213136D01*
X249839Y213126D01*
X249787Y213077D01*
X249729Y213034D01*
X249715Y213009D01*
X249694Y212990D01*
X249665Y212924D01*
X249629Y212862D01*
X249626Y212834D01*
X249614Y212808D01*
X249613Y212736D01*
X249604Y212665D01*
X249612Y212638D01*
X249612Y212609D01*
X249647Y212514D01*
X249658Y212474D01*
X249665Y212465D01*
X249669Y212453D01*
X259169Y195953D01*
X259221Y195895D01*
X259267Y195832D01*
X259286Y195821D01*
X259301Y195804D01*
X259371Y195770D01*
X259438Y195730D01*
X259463Y195726D01*
X259480Y195718D01*
X259525Y195716D01*
X259602Y195703D01*
X278602Y195703D01*
X278630Y195708D01*
G37*
G36*
X432878Y195718D02*
X432878Y195718D01*
X432956Y195727D01*
X432975Y195738D01*
X432997Y195742D01*
X433061Y195786D01*
X433129Y195825D01*
X433145Y195844D01*
X433161Y195855D01*
X433185Y195893D01*
X433235Y195953D01*
X442735Y212453D01*
X442744Y212480D01*
X442760Y212504D01*
X442775Y212574D01*
X442798Y212642D01*
X442795Y212670D01*
X442801Y212698D01*
X442788Y212769D01*
X442782Y212840D01*
X442769Y212865D01*
X442763Y212893D01*
X442723Y212953D01*
X442690Y213016D01*
X442668Y213034D01*
X442652Y213058D01*
X442569Y213116D01*
X442537Y213143D01*
X442526Y213146D01*
X442516Y213153D01*
X441888Y213450D01*
X465940Y255110D01*
X465940Y255113D01*
X465942Y255115D01*
X465939Y255118D01*
X465937Y255126D01*
X465936Y255126D01*
X465936Y255127D01*
X465862Y255169D01*
X465839Y255258D01*
X465834Y255261D01*
X465834Y255265D01*
X464679Y256066D01*
X464675Y256066D01*
X464673Y256068D01*
X464486Y256066D01*
X464007Y256533D01*
X464005Y256533D01*
X464005Y256535D01*
X463455Y256917D01*
X463422Y257100D01*
X463418Y257103D01*
X463418Y257106D01*
X462344Y258153D01*
X462339Y258153D01*
X462338Y258156D01*
X462153Y258184D01*
X461757Y258724D01*
X461756Y258725D01*
X461756Y258726D01*
X461276Y259193D01*
X461273Y259379D01*
X461270Y259383D01*
X461271Y259386D01*
X460384Y260595D01*
X460379Y260596D01*
X460378Y260600D01*
X460201Y260658D01*
X459899Y261256D01*
X459898Y261256D01*
X459898Y261257D01*
X459502Y261797D01*
X459530Y261981D01*
X459527Y261985D01*
X459529Y261989D01*
X458852Y263327D01*
X458848Y263329D01*
X458847Y263332D01*
X458682Y263419D01*
X458490Y264034D01*
X458482Y264039D01*
X458479Y264042D01*
X400624Y264042D01*
X372443Y292223D01*
X371776Y292891D01*
X371771Y292891D01*
X371769Y292894D01*
X371765Y292891D01*
X371760Y292892D01*
X371759Y292886D01*
X371755Y292882D01*
X371755Y291772D01*
X371754Y291771D01*
X371754Y291767D01*
X371753Y291766D01*
X371753Y291765D01*
X371751Y291763D01*
X371751Y273622D01*
X357121Y258992D01*
X357120Y258988D01*
X357118Y258985D01*
X357119Y258985D01*
X357117Y258983D01*
X357117Y222270D01*
X357121Y222266D01*
X357121Y222262D01*
X359372Y220010D01*
X359372Y215614D01*
X356264Y212505D01*
X356170Y212505D01*
X356167Y212502D01*
X356162Y212502D01*
X356162Y212498D01*
X356158Y212495D01*
X356162Y212490D01*
X356163Y212484D01*
X356611Y212135D01*
X356612Y212135D01*
X356612Y212134D01*
X357201Y211815D01*
X357254Y211637D01*
X357258Y211634D01*
X357259Y211631D01*
X358445Y210708D01*
X358449Y210708D01*
X358451Y210705D01*
X358637Y210698D01*
X359091Y210205D01*
X359093Y210205D01*
X359093Y210203D01*
X359621Y209792D01*
X359644Y209607D01*
X359648Y209604D01*
X359647Y209601D01*
X360665Y208495D01*
X360670Y208494D01*
X360671Y208491D01*
X360854Y208453D01*
X361220Y207892D01*
X361221Y207892D01*
X361221Y207891D01*
X361675Y207398D01*
X361667Y207212D01*
X361670Y207208D01*
X361669Y207205D01*
X362491Y205947D01*
X362496Y205946D01*
X362497Y205942D01*
X362670Y205874D01*
X362939Y205261D01*
X362941Y205260D01*
X362940Y205259D01*
X363307Y204698D01*
X363269Y204516D01*
X363269Y204515D01*
X363271Y204512D01*
X363269Y204509D01*
X363873Y203133D01*
X363877Y203131D01*
X363878Y203127D01*
X364038Y203032D01*
X364202Y202383D01*
X364203Y202382D01*
X364203Y202381D01*
X364472Y201767D01*
X364404Y201594D01*
X364405Y201591D01*
X364404Y201590D01*
X364405Y201588D01*
X364404Y201586D01*
X364773Y200130D01*
X364777Y200127D01*
X364777Y200123D01*
X364919Y200003D01*
X364974Y199336D01*
X364975Y199335D01*
X364974Y199334D01*
X365139Y198684D01*
X365043Y198524D01*
X365044Y198522D01*
X365043Y198522D01*
X365044Y198521D01*
X365044Y198520D01*
X365042Y198517D01*
X365158Y197113D01*
X365162Y197110D01*
X365162Y197106D01*
X365227Y197041D01*
X365227Y196969D01*
X365237Y196957D01*
X365238Y196958D01*
X365239Y196957D01*
X413361Y196957D01*
X413304Y196242D01*
X413308Y196213D01*
X413303Y196185D01*
X413320Y196116D01*
X413328Y196044D01*
X413343Y196020D01*
X413349Y195992D01*
X413392Y195934D01*
X413428Y195872D01*
X413450Y195855D01*
X413467Y195832D01*
X413529Y195795D01*
X413586Y195752D01*
X413614Y195745D01*
X413638Y195730D01*
X413738Y195714D01*
X413779Y195703D01*
X413789Y195705D01*
X413802Y195703D01*
X432802Y195703D01*
X432878Y195718D01*
G37*
G36*
X457117Y270150D02*
X457117Y270150D01*
X457117Y270151D01*
X457118Y270166D01*
X457117Y270167D01*
X457118Y270168D01*
X457026Y270832D01*
X457139Y270980D01*
X457138Y270985D01*
X457141Y270987D01*
X457183Y272486D01*
X457180Y272490D01*
X457181Y272493D01*
X457077Y272648D01*
X457206Y273305D01*
X457206Y273306D01*
X457207Y273307D01*
X457225Y273977D01*
X457361Y274105D01*
X457361Y274109D01*
X457364Y274111D01*
X457653Y275582D01*
X457650Y275586D01*
X457652Y275590D01*
X457575Y275759D01*
X457810Y276386D01*
X457810Y276387D01*
X457810Y276388D01*
X457811Y276388D01*
X457940Y277046D01*
X458094Y277150D01*
X458095Y277154D01*
X458099Y277155D01*
X458625Y278559D01*
X458625Y278560D01*
X458624Y278564D01*
X458626Y278567D01*
X458578Y278747D01*
X458913Y279326D01*
X458913Y279328D01*
X458914Y279328D01*
X459149Y279956D01*
X459319Y280033D01*
X459321Y280037D01*
X459324Y280037D01*
X460075Y281336D01*
X460074Y281340D01*
X460076Y281341D01*
X460076Y281342D01*
X460076Y281343D01*
X460058Y281528D01*
X460485Y282045D01*
X460485Y282046D01*
X460486Y282046D01*
X460821Y282626D01*
X461001Y282674D01*
X461004Y282678D01*
X461007Y282678D01*
X461961Y283835D01*
X461961Y283840D01*
X461964Y283842D01*
X461977Y284028D01*
X462482Y284467D01*
X462483Y284469D01*
X462484Y284469D01*
X462910Y284986D01*
X463095Y285004D01*
X463098Y285007D01*
X463102Y285006D01*
X464233Y285991D01*
X464234Y285995D01*
X464237Y285997D01*
X464281Y286178D01*
X464852Y286528D01*
X464852Y286530D01*
X464853Y286529D01*
X465359Y286969D01*
X465544Y286956D01*
X465548Y286959D01*
X465551Y286958D01*
X466829Y287742D01*
X466831Y287747D01*
X466834Y287748D01*
X466907Y287919D01*
X467528Y288171D01*
X467528Y288172D01*
X467530Y288172D01*
X468100Y288522D01*
X468281Y288479D01*
X468285Y288481D01*
X468289Y288480D01*
X469678Y289043D01*
X469680Y289047D01*
X469684Y289048D01*
X469784Y289205D01*
X470438Y289351D01*
X470438Y289352D01*
X470439Y289351D01*
X471060Y289603D01*
X471232Y289531D01*
X471236Y289532D01*
X471239Y289530D01*
X472703Y289857D01*
X472705Y289861D01*
X472709Y289861D01*
X472833Y289999D01*
X473502Y290036D01*
X473503Y290037D01*
X473504Y290036D01*
X474158Y290182D01*
X474315Y290082D01*
X474319Y290083D01*
X474320Y290081D01*
X474321Y290081D01*
X474322Y290080D01*
X475819Y290162D01*
X475822Y290165D01*
X475823Y290165D01*
X475826Y290165D01*
X475972Y290281D01*
X476637Y290207D01*
X476638Y290208D01*
X476639Y290207D01*
X477308Y290243D01*
X477447Y290119D01*
X477452Y290119D01*
X477454Y290116D01*
X478944Y289950D01*
X478948Y289953D01*
X478951Y289951D01*
X479114Y290042D01*
X479758Y289859D01*
X479760Y289860D01*
X479760Y289859D01*
X480426Y289785D01*
X480542Y289639D01*
X480547Y289639D01*
X480548Y289635D01*
X481991Y289226D01*
X481995Y289228D01*
X481998Y289227D01*
X482174Y289289D01*
X482779Y289003D01*
X482781Y289004D01*
X482781Y289002D01*
X483426Y288820D01*
X483516Y288657D01*
X483521Y288656D01*
X483522Y288652D01*
X484792Y288052D01*
X484794Y288052D01*
X484795Y288052D01*
X484799Y288052D01*
X484801Y288051D01*
X484890Y288075D01*
X484941Y288045D01*
X484956Y288048D01*
X484956Y288049D01*
X484957Y288049D01*
X509010Y329711D01*
X509618Y329291D01*
X509645Y329280D01*
X509667Y329261D01*
X509736Y329241D01*
X509801Y329213D01*
X509830Y329213D01*
X509858Y329205D01*
X509929Y329213D01*
X510000Y329213D01*
X510027Y329224D01*
X510056Y329227D01*
X510118Y329262D01*
X510183Y329290D01*
X510204Y329310D01*
X510229Y329325D01*
X510292Y329402D01*
X510322Y329432D01*
X510326Y329442D01*
X510335Y329453D01*
X519835Y345953D01*
X519845Y345985D01*
X519854Y345998D01*
X519858Y346022D01*
X519859Y346026D01*
X519890Y346096D01*
X519890Y346120D01*
X519898Y346142D01*
X519892Y346218D01*
X519893Y346295D01*
X519883Y346319D01*
X519882Y346340D01*
X519861Y346379D01*
X519835Y346451D01*
X510335Y362951D01*
X510316Y362973D01*
X510303Y362999D01*
X510250Y363047D01*
X510203Y363100D01*
X510177Y363113D01*
X510156Y363132D01*
X510088Y363155D01*
X510024Y363186D01*
X509995Y363188D01*
X509968Y363197D01*
X509896Y363192D01*
X509825Y363195D01*
X509798Y363185D01*
X509769Y363183D01*
X509679Y363141D01*
X509639Y363126D01*
X509631Y363119D01*
X509618Y363113D01*
X509010Y362693D01*
X484957Y404355D01*
X484949Y404357D01*
X484948Y404359D01*
X484945Y404359D01*
X484942Y404360D01*
X484942Y404359D01*
X484941Y404359D01*
X484890Y404329D01*
X484801Y404353D01*
X484796Y404351D01*
X484792Y404352D01*
X483522Y403752D01*
X483520Y403748D01*
X483516Y403747D01*
X483426Y403584D01*
X482781Y403402D01*
X482780Y403400D01*
X482779Y403401D01*
X482174Y403115D01*
X481998Y403177D01*
X481997Y403177D01*
X481992Y403177D01*
X481991Y403178D01*
X480964Y402886D01*
X480958Y402877D01*
X480955Y402875D01*
X480955Y400464D01*
X480959Y400460D01*
X480958Y400456D01*
X489614Y391801D01*
X489614Y318305D01*
X457292Y285983D01*
X399470Y285983D01*
X388126Y297327D01*
X388126Y303598D01*
X388631Y304102D01*
X388631Y304106D01*
X388632Y304106D01*
X388631Y304107D01*
X388631Y304108D01*
X388634Y304111D01*
X388634Y316740D01*
X388631Y316745D01*
X388631Y316749D01*
X385747Y319633D01*
X385743Y319633D01*
X385740Y319636D01*
X385737Y319633D01*
X385731Y319634D01*
X385731Y319628D01*
X385727Y319624D01*
X385727Y317187D01*
X384468Y315927D01*
X383763Y315927D01*
X383751Y315917D01*
X383752Y315916D01*
X383751Y315915D01*
X383751Y298146D01*
X383755Y298142D01*
X383754Y298138D01*
X404154Y277738D01*
X404160Y277738D01*
X404163Y277734D01*
X444695Y277734D01*
X444699Y277738D01*
X444703Y277738D01*
X447016Y280051D01*
X451412Y280051D01*
X454521Y276942D01*
X454521Y272546D01*
X452135Y270160D01*
X452135Y270156D01*
X452132Y270153D01*
X452135Y270150D01*
X452134Y270144D01*
X452140Y270144D01*
X452144Y270140D01*
X457106Y270140D01*
X457117Y270150D01*
G37*
G36*
X451532Y299458D02*
X451532Y299458D01*
X451536Y299458D01*
X451592Y299513D01*
X475944Y323865D01*
X475944Y323870D01*
X475947Y323873D01*
X475947Y387649D01*
X475943Y387654D01*
X475944Y387658D01*
X471256Y392346D01*
X471250Y392346D01*
X471247Y392349D01*
X470493Y392349D01*
X470490Y392347D01*
X470486Y392347D01*
X470486Y392343D01*
X470481Y392339D01*
X470485Y392335D01*
X470485Y392329D01*
X471297Y391517D01*
X471297Y383183D01*
X470782Y382668D01*
X470781Y382653D01*
X470782Y382652D01*
X470782Y382651D01*
X471067Y382367D01*
X471067Y381529D01*
X471070Y381525D01*
X471070Y381521D01*
X473325Y379266D01*
X473325Y374870D01*
X470216Y371761D01*
X467482Y371761D01*
X467478Y371758D01*
X467474Y371758D01*
X461422Y365706D01*
X438627Y365706D01*
X438615Y365695D01*
X438615Y365694D01*
X438615Y363389D01*
X437722Y362496D01*
X435151Y362496D01*
X435139Y362485D01*
X435140Y362485D01*
X435139Y362484D01*
X435139Y342679D01*
X428134Y335674D01*
X426833Y334373D01*
X426833Y334369D01*
X426829Y334366D01*
X426832Y334363D01*
X426832Y334357D01*
X426837Y334357D01*
X426841Y334353D01*
X441719Y334353D01*
X442612Y333460D01*
X442612Y329798D01*
X442615Y329794D01*
X442615Y329790D01*
X442619Y329790D01*
X442623Y329786D01*
X442627Y329789D01*
X442633Y329789D01*
X447411Y334567D01*
X447411Y334573D01*
X447414Y334576D01*
X447414Y342376D01*
X447404Y342388D01*
X447403Y342387D01*
X447402Y342388D01*
X444831Y342388D01*
X443938Y343281D01*
X443938Y355544D01*
X444831Y356437D01*
X456094Y356437D01*
X456988Y355544D01*
X456988Y343281D01*
X456094Y342388D01*
X453523Y342388D01*
X453512Y342377D01*
X453512Y342376D01*
X453512Y332045D01*
X451722Y330256D01*
X444746Y323279D01*
X442624Y323279D01*
X442612Y323269D01*
X442613Y323268D01*
X442612Y323267D01*
X442612Y319196D01*
X441719Y318303D01*
X425456Y318303D01*
X424563Y319196D01*
X424563Y323363D01*
X424552Y323375D01*
X424551Y323374D01*
X424551Y323375D01*
X413803Y323375D01*
X413791Y323365D01*
X413791Y323364D01*
X413792Y323364D01*
X413791Y323363D01*
X413791Y320292D01*
X412898Y319399D01*
X402074Y319399D01*
X402063Y319389D01*
X402063Y319388D01*
X402062Y319387D01*
X402062Y316460D01*
X402073Y316449D01*
X402074Y316449D01*
X402074Y316448D01*
X412898Y316448D01*
X413791Y315555D01*
X413791Y312484D01*
X413801Y312473D01*
X413802Y312473D01*
X413803Y312472D01*
X424551Y312472D01*
X424563Y312483D01*
X424562Y312484D01*
X424563Y312484D01*
X424563Y314460D01*
X425456Y315353D01*
X441719Y315353D01*
X442612Y314460D01*
X442612Y310389D01*
X442623Y310377D01*
X442624Y310377D01*
X443456Y310377D01*
X443461Y310380D01*
X443465Y310380D01*
X456448Y323364D01*
X456449Y323369D01*
X456452Y323372D01*
X456482Y326591D01*
X456478Y326595D01*
X456478Y326599D01*
X454266Y328812D01*
X454266Y333208D01*
X457374Y336317D01*
X461770Y336317D01*
X464879Y333208D01*
X464879Y328812D01*
X462582Y326515D01*
X462582Y326510D01*
X462579Y326507D01*
X462537Y322079D01*
X462537Y320829D01*
X462529Y320821D01*
X462529Y320815D01*
X462525Y320813D01*
X462525Y320801D01*
X461634Y319926D01*
X445987Y304279D01*
X442624Y304279D01*
X442612Y304269D01*
X442613Y304268D01*
X442612Y304267D01*
X442612Y300196D01*
X441890Y299474D01*
X441890Y299470D01*
X441887Y299467D01*
X441890Y299464D01*
X441889Y299459D01*
X441895Y299458D01*
X441899Y299454D01*
X451528Y299454D01*
X451532Y299458D01*
G37*
G36*
X363231Y195709D02*
X363231Y195709D01*
X363260Y195706D01*
X363327Y195728D01*
X363397Y195742D01*
X363421Y195759D01*
X363449Y195768D01*
X363502Y195815D01*
X363561Y195855D01*
X363577Y195879D01*
X363599Y195899D01*
X363630Y195963D01*
X363668Y196022D01*
X363673Y196051D01*
X363685Y196077D01*
X363694Y196177D01*
X363701Y196219D01*
X363698Y196229D01*
X363700Y196243D01*
X363468Y199041D01*
X363458Y199075D01*
X363454Y199123D01*
X362765Y201844D01*
X362750Y201876D01*
X362738Y201922D01*
X361610Y204494D01*
X361590Y204522D01*
X361571Y204566D01*
X360035Y206917D01*
X360011Y206941D01*
X359985Y206982D01*
X358083Y209047D01*
X358055Y209068D01*
X358022Y209103D01*
X355807Y210828D01*
X355776Y210843D01*
X355738Y210873D01*
X353268Y212209D01*
X353235Y212219D01*
X353193Y212242D01*
X352007Y212650D01*
X350553Y213149D01*
X350537Y213154D01*
X350503Y213159D01*
X350457Y213174D01*
X347688Y213636D01*
X347653Y213635D01*
X347606Y213643D01*
X344798Y213643D01*
X344764Y213636D01*
X344716Y213636D01*
X341947Y213174D01*
X341914Y213162D01*
X341867Y213154D01*
X339211Y212242D01*
X339181Y212225D01*
X339136Y212209D01*
X336666Y210873D01*
X336640Y210851D01*
X336597Y210828D01*
X334382Y209103D01*
X334359Y209077D01*
X334321Y209047D01*
X332419Y206982D01*
X332401Y206952D01*
X332369Y206917D01*
X330833Y204566D01*
X330820Y204534D01*
X330794Y204494D01*
X329666Y201922D01*
X329659Y201889D01*
X329656Y201882D01*
X329650Y201873D01*
X329649Y201867D01*
X329639Y201844D01*
X328950Y199123D01*
X328948Y199088D01*
X328936Y199041D01*
X328704Y196243D01*
X328708Y196214D01*
X328703Y196185D01*
X328720Y196116D01*
X328728Y196046D01*
X328742Y196020D01*
X328749Y195992D01*
X328791Y195935D01*
X328826Y195873D01*
X328850Y195855D01*
X328867Y195832D01*
X328928Y195796D01*
X328985Y195753D01*
X329013Y195745D01*
X329038Y195730D01*
X329136Y195714D01*
X329177Y195703D01*
X329188Y195705D01*
X329202Y195703D01*
X363202Y195703D01*
X363231Y195709D01*
G37*
G36*
X347640Y478768D02*
X347640Y478768D01*
X347688Y478768D01*
X350457Y479230D01*
X350490Y479242D01*
X350537Y479250D01*
X353193Y480162D01*
X353223Y480179D01*
X353268Y480195D01*
X355738Y481531D01*
X355764Y481553D01*
X355807Y481576D01*
X358022Y483301D01*
X358045Y483327D01*
X358083Y483357D01*
X359985Y485422D01*
X360003Y485452D01*
X360035Y485487D01*
X361571Y487838D01*
X361584Y487870D01*
X361610Y487910D01*
X362738Y490482D01*
X362745Y490515D01*
X362765Y490560D01*
X363454Y493281D01*
X363456Y493316D01*
X363468Y493363D01*
X363700Y496161D01*
X363696Y496190D01*
X363701Y496219D01*
X363685Y496288D01*
X363676Y496358D01*
X363662Y496384D01*
X363655Y496412D01*
X363613Y496469D01*
X363578Y496531D01*
X363554Y496549D01*
X363537Y496572D01*
X363476Y496608D01*
X363419Y496651D01*
X363391Y496659D01*
X363366Y496674D01*
X363268Y496690D01*
X363227Y496701D01*
X363216Y496699D01*
X363202Y496701D01*
X329202Y496701D01*
X329173Y496695D01*
X329144Y496698D01*
X329077Y496676D01*
X329007Y496662D01*
X328983Y496645D01*
X328955Y496636D01*
X328902Y496589D01*
X328843Y496549D01*
X328828Y496525D01*
X328806Y496505D01*
X328774Y496441D01*
X328736Y496382D01*
X328731Y496353D01*
X328719Y496327D01*
X328710Y496227D01*
X328703Y496185D01*
X328706Y496175D01*
X328704Y496161D01*
X328936Y493363D01*
X328946Y493329D01*
X328950Y493281D01*
X329639Y490560D01*
X329654Y490528D01*
X329666Y490482D01*
X330794Y487910D01*
X330814Y487882D01*
X330833Y487838D01*
X332369Y485487D01*
X332393Y485463D01*
X332419Y485422D01*
X334321Y483357D01*
X334349Y483336D01*
X334382Y483301D01*
X336597Y481576D01*
X336628Y481561D01*
X336666Y481531D01*
X339136Y480195D01*
X339169Y480185D01*
X339211Y480162D01*
X341867Y479250D01*
X341901Y479246D01*
X341947Y479230D01*
X344716Y478768D01*
X344751Y478769D01*
X344798Y478761D01*
X347606Y478761D01*
X347640Y478768D01*
G37*
G36*
X224809Y256012D02*
X224809Y256012D01*
X224880Y256009D01*
X224907Y256019D01*
X224936Y256021D01*
X225026Y256063D01*
X225066Y256078D01*
X225074Y256086D01*
X225087Y256092D01*
X227390Y257691D01*
X227414Y257717D01*
X227454Y257744D01*
X229463Y259701D01*
X229482Y259730D01*
X229517Y259763D01*
X231176Y262024D01*
X231191Y262055D01*
X231220Y262094D01*
X232484Y264597D01*
X232493Y264631D01*
X232515Y264674D01*
X233351Y267351D01*
X233354Y267385D01*
X233369Y267431D01*
X233752Y270210D01*
X233750Y270244D01*
X233756Y270292D01*
X233677Y273095D01*
X233669Y273129D01*
X233668Y273177D01*
X233129Y275929D01*
X233115Y275961D01*
X233106Y276009D01*
X232121Y278634D01*
X232106Y278659D01*
X232101Y278679D01*
X232093Y278690D01*
X232086Y278709D01*
X230682Y281137D01*
X230659Y281163D01*
X230635Y281205D01*
X228851Y283368D01*
X228824Y283390D01*
X228793Y283427D01*
X226677Y285268D01*
X226647Y285285D01*
X226611Y285317D01*
X224220Y286784D01*
X224188Y286795D01*
X224147Y286821D01*
X221548Y287874D01*
X221514Y287881D01*
X221469Y287899D01*
X218732Y288510D01*
X218697Y288511D01*
X218650Y288522D01*
X215850Y288674D01*
X215816Y288669D01*
X215768Y288672D01*
X212980Y288362D01*
X212947Y288351D01*
X212899Y288346D01*
X210201Y287581D01*
X210171Y287565D01*
X210124Y287552D01*
X207589Y286353D01*
X207565Y286336D01*
X207538Y286326D01*
X207486Y286277D01*
X207429Y286234D01*
X207415Y286209D01*
X207394Y286189D01*
X207365Y286124D01*
X207329Y286063D01*
X207326Y286034D01*
X207314Y286007D01*
X207313Y285936D01*
X207304Y285865D01*
X207312Y285837D01*
X207312Y285808D01*
X207346Y285715D01*
X207358Y285674D01*
X207365Y285665D01*
X207370Y285652D01*
X224370Y256252D01*
X224389Y256230D01*
X224402Y256204D01*
X224455Y256156D01*
X224502Y256103D01*
X224528Y256091D01*
X224550Y256071D01*
X224617Y256048D01*
X224681Y256018D01*
X224710Y256016D01*
X224738Y256007D01*
X224809Y256012D01*
G37*
G36*
X476588Y403735D02*
X476588Y403735D01*
X476636Y403732D01*
X479424Y404042D01*
X479457Y404053D01*
X479505Y404058D01*
X482203Y404823D01*
X482233Y404839D01*
X482280Y404852D01*
X484815Y406051D01*
X484839Y406068D01*
X484866Y406078D01*
X484918Y406127D01*
X484975Y406170D01*
X484989Y406195D01*
X485011Y406215D01*
X485039Y406280D01*
X485075Y406342D01*
X485078Y406370D01*
X485090Y406397D01*
X485091Y406468D01*
X485100Y406539D01*
X485092Y406567D01*
X485092Y406596D01*
X485058Y406689D01*
X485046Y406730D01*
X485039Y406739D01*
X485034Y406752D01*
X468034Y436152D01*
X468015Y436174D01*
X468002Y436200D01*
X467949Y436248D01*
X467902Y436301D01*
X467876Y436313D01*
X467854Y436333D01*
X467787Y436356D01*
X467723Y436386D01*
X467694Y436388D01*
X467666Y436397D01*
X467595Y436392D01*
X467524Y436395D01*
X467497Y436385D01*
X467468Y436383D01*
X467378Y436341D01*
X467338Y436326D01*
X467330Y436318D01*
X467317Y436312D01*
X465014Y434713D01*
X464990Y434688D01*
X464950Y434660D01*
X462941Y432703D01*
X462922Y432674D01*
X462887Y432641D01*
X461228Y430380D01*
X461213Y430349D01*
X461184Y430310D01*
X459920Y427807D01*
X459911Y427773D01*
X459889Y427730D01*
X459053Y425053D01*
X459050Y425019D01*
X459035Y424973D01*
X458652Y422194D01*
X458654Y422160D01*
X458648Y422112D01*
X458727Y419309D01*
X458735Y419275D01*
X458736Y419227D01*
X459275Y416475D01*
X459289Y416443D01*
X459298Y416395D01*
X460283Y413770D01*
X460301Y413740D01*
X460318Y413695D01*
X461722Y411267D01*
X461745Y411241D01*
X461769Y411200D01*
X463553Y409036D01*
X463580Y409014D01*
X463611Y408977D01*
X465727Y407136D01*
X465757Y407119D01*
X465793Y407088D01*
X468184Y405620D01*
X468216Y405609D01*
X468257Y405583D01*
X470856Y404530D01*
X470890Y404523D01*
X470935Y404505D01*
X473672Y403894D01*
X473707Y403893D01*
X473754Y403882D01*
X476554Y403730D01*
X476588Y403735D01*
G37*
G36*
X467628Y256013D02*
X467628Y256013D01*
X467699Y256012D01*
X467726Y256023D01*
X467755Y256027D01*
X467817Y256061D01*
X467882Y256089D01*
X467903Y256110D01*
X467928Y256124D01*
X467991Y256200D01*
X468021Y256231D01*
X468025Y256241D01*
X468034Y256252D01*
X485034Y285652D01*
X485043Y285680D01*
X485060Y285704D01*
X485075Y285773D01*
X485097Y285841D01*
X485095Y285870D01*
X485101Y285898D01*
X485088Y285968D01*
X485082Y286039D01*
X485069Y286065D01*
X485063Y286093D01*
X485023Y286152D01*
X484991Y286215D01*
X484968Y286234D01*
X484952Y286258D01*
X484870Y286315D01*
X484837Y286342D01*
X484827Y286345D01*
X484815Y286353D01*
X482280Y287552D01*
X482246Y287560D01*
X482203Y287581D01*
X479505Y288346D01*
X479470Y288348D01*
X479424Y288362D01*
X476636Y288672D01*
X476602Y288669D01*
X476554Y288674D01*
X473754Y288522D01*
X473720Y288513D01*
X473672Y288510D01*
X470935Y287899D01*
X470903Y287885D01*
X470856Y287874D01*
X468257Y286821D01*
X468228Y286802D01*
X468184Y286784D01*
X465793Y285317D01*
X465768Y285293D01*
X465727Y285268D01*
X463611Y283427D01*
X463590Y283400D01*
X463553Y283368D01*
X461769Y281205D01*
X461753Y281174D01*
X461722Y281137D01*
X460318Y278709D01*
X460307Y278676D01*
X460300Y278663D01*
X460290Y278649D01*
X460290Y278646D01*
X460283Y278634D01*
X459298Y276009D01*
X459292Y275974D01*
X459275Y275929D01*
X458736Y273177D01*
X458736Y273143D01*
X458727Y273095D01*
X458648Y270292D01*
X458654Y270258D01*
X458652Y270210D01*
X459035Y267431D01*
X459047Y267399D01*
X459053Y267351D01*
X459889Y264674D01*
X459906Y264643D01*
X459920Y264597D01*
X461184Y262094D01*
X461206Y262067D01*
X461228Y262024D01*
X462887Y259763D01*
X462913Y259740D01*
X462941Y259701D01*
X464950Y257744D01*
X464979Y257725D01*
X465014Y257691D01*
X467317Y256092D01*
X467344Y256080D01*
X467367Y256062D01*
X467435Y256041D01*
X467500Y256013D01*
X467529Y256013D01*
X467557Y256005D01*
X467628Y256013D01*
G37*
G36*
X218650Y403882D02*
X218650Y403882D01*
X218684Y403891D01*
X218732Y403894D01*
X221469Y404505D01*
X221501Y404519D01*
X221548Y404530D01*
X224147Y405583D01*
X224176Y405602D01*
X224220Y405620D01*
X226611Y407088D01*
X226636Y407111D01*
X226677Y407136D01*
X228793Y408977D01*
X228814Y409004D01*
X228851Y409036D01*
X230635Y411200D01*
X230651Y411230D01*
X230682Y411267D01*
X232086Y413695D01*
X232097Y413728D01*
X232121Y413770D01*
X233106Y416395D01*
X233112Y416430D01*
X233129Y416475D01*
X233668Y419227D01*
X233668Y419262D01*
X233677Y419309D01*
X233756Y422112D01*
X233751Y422146D01*
X233752Y422194D01*
X233369Y424973D01*
X233357Y425005D01*
X233351Y425053D01*
X232515Y427730D01*
X232498Y427761D01*
X232484Y427807D01*
X231220Y430310D01*
X231198Y430337D01*
X231176Y430380D01*
X229517Y432641D01*
X229491Y432664D01*
X229463Y432703D01*
X227454Y434660D01*
X227425Y434679D01*
X227390Y434713D01*
X225087Y436312D01*
X225060Y436324D01*
X225037Y436342D01*
X224969Y436363D01*
X224904Y436391D01*
X224875Y436391D01*
X224847Y436399D01*
X224776Y436391D01*
X224705Y436392D01*
X224678Y436381D01*
X224649Y436377D01*
X224587Y436343D01*
X224522Y436315D01*
X224501Y436294D01*
X224476Y436280D01*
X224413Y436204D01*
X224383Y436173D01*
X224379Y436163D01*
X224370Y436152D01*
X207370Y406752D01*
X207361Y406724D01*
X207344Y406700D01*
X207329Y406631D01*
X207307Y406563D01*
X207309Y406534D01*
X207303Y406506D01*
X207316Y406436D01*
X207322Y406365D01*
X207335Y406339D01*
X207341Y406311D01*
X207381Y406252D01*
X207413Y406189D01*
X207436Y406170D01*
X207452Y406146D01*
X207534Y406089D01*
X207567Y406062D01*
X207577Y406059D01*
X207589Y406051D01*
X210124Y404852D01*
X210158Y404844D01*
X210201Y404823D01*
X212899Y404058D01*
X212934Y404056D01*
X212980Y404042D01*
X215768Y403732D01*
X215802Y403735D01*
X215850Y403730D01*
X218650Y403882D01*
G37*
%LPC*%
G36*
X285703Y224408D02*
X285703Y224408D01*
X281126Y226304D01*
X277622Y229808D01*
X275726Y234385D01*
X275726Y239340D01*
X277622Y243918D01*
X281126Y247421D01*
X285703Y249317D01*
X290658Y249317D01*
X295236Y247421D01*
X298739Y243918D01*
X300636Y239340D01*
X300636Y234385D01*
X298739Y229808D01*
X295236Y226304D01*
X290658Y224408D01*
X285703Y224408D01*
G37*
%LPD*%
%LPC*%
G36*
X403618Y441019D02*
X403618Y441019D01*
X399040Y442915D01*
X395537Y446419D01*
X393641Y450996D01*
X393641Y455951D01*
X395537Y460529D01*
X399040Y464032D01*
X403618Y465929D01*
X408573Y465929D01*
X413150Y464032D01*
X416654Y460529D01*
X418550Y455951D01*
X418550Y450996D01*
X416654Y446419D01*
X413150Y442915D01*
X408573Y441019D01*
X403618Y441019D01*
G37*
%LPD*%
%LPC*%
G36*
X372309Y457025D02*
X372309Y457025D01*
X369951Y459383D01*
X369951Y467717D01*
X372309Y470075D01*
X376415Y470075D01*
X376427Y470085D01*
X376427Y470086D01*
X376427Y470087D01*
X376427Y472233D01*
X376424Y472238D01*
X376424Y472242D01*
X374047Y474618D01*
X374047Y479015D01*
X377156Y482123D01*
X381552Y482123D01*
X384661Y479015D01*
X384661Y474618D01*
X382528Y472486D01*
X382528Y472480D01*
X382525Y472477D01*
X382525Y470087D01*
X382535Y470075D01*
X382536Y470075D01*
X382537Y470075D01*
X386643Y470075D01*
X389001Y467717D01*
X389001Y459383D01*
X386643Y457025D01*
X372309Y457025D01*
G37*
%LPD*%
D10*
X432090Y369521D03*
X432090Y386521D03*
D11*
X433587Y307328D03*
X433587Y326328D03*
D12*
X377827Y373077D02*
X377827Y374327D01*
X383577Y374327D01*
X383577Y373077D01*
X377827Y373077D01*
X377827Y374264D02*
X383577Y374264D01*
X377827Y369327D02*
X377827Y368077D01*
X377827Y369327D02*
X383577Y369327D01*
X383577Y368077D01*
X377827Y368077D01*
X377827Y369264D02*
X383577Y369264D01*
X377827Y364327D02*
X377827Y363077D01*
X377827Y364327D02*
X383577Y364327D01*
X383577Y363077D01*
X377827Y363077D01*
X377827Y364264D02*
X383577Y364264D01*
X377827Y359327D02*
X377827Y358077D01*
X377827Y359327D02*
X383577Y359327D01*
X383577Y358077D01*
X377827Y358077D01*
X377827Y359264D02*
X383577Y359264D01*
X377827Y354327D02*
X377827Y353077D01*
X377827Y354327D02*
X383577Y354327D01*
X383577Y353077D01*
X377827Y353077D01*
X377827Y354264D02*
X383577Y354264D01*
X377827Y349327D02*
X377827Y348077D01*
X377827Y349327D02*
X383577Y349327D01*
X383577Y348077D01*
X377827Y348077D01*
X377827Y349264D02*
X383577Y349264D01*
X377827Y344327D02*
X377827Y343077D01*
X377827Y344327D02*
X383577Y344327D01*
X383577Y343077D01*
X377827Y343077D01*
X377827Y344264D02*
X383577Y344264D01*
X377827Y339327D02*
X377827Y338077D01*
X377827Y339327D02*
X383577Y339327D01*
X383577Y338077D01*
X377827Y338077D01*
X377827Y339264D02*
X383577Y339264D01*
X377827Y334327D02*
X377827Y333077D01*
X377827Y334327D02*
X383577Y334327D01*
X383577Y333077D01*
X377827Y333077D01*
X377827Y334264D02*
X383577Y334264D01*
X377827Y329327D02*
X377827Y328077D01*
X377827Y329327D02*
X383577Y329327D01*
X383577Y328077D01*
X377827Y328077D01*
X377827Y329264D02*
X383577Y329264D01*
X377827Y324327D02*
X377827Y323077D01*
X377827Y324327D02*
X383577Y324327D01*
X383577Y323077D01*
X377827Y323077D01*
X377827Y324264D02*
X383577Y324264D01*
X377827Y319327D02*
X377827Y318077D01*
X377827Y319327D02*
X383577Y319327D01*
X383577Y318077D01*
X377827Y318077D01*
X377827Y319264D02*
X383577Y319264D01*
X374327Y314577D02*
X373077Y314577D01*
X374327Y314577D02*
X374327Y308827D01*
X373077Y308827D01*
X373077Y314577D01*
X373077Y310014D02*
X374327Y310014D01*
X374327Y311201D02*
X373077Y311201D01*
X373077Y312388D02*
X374327Y312388D01*
X374327Y313575D02*
X373077Y313575D01*
X369327Y314577D02*
X368077Y314577D01*
X369327Y314577D02*
X369327Y308827D01*
X368077Y308827D01*
X368077Y314577D01*
X368077Y310014D02*
X369327Y310014D01*
X369327Y311201D02*
X368077Y311201D01*
X368077Y312388D02*
X369327Y312388D01*
X369327Y313575D02*
X368077Y313575D01*
X364327Y314577D02*
X363077Y314577D01*
X364327Y314577D02*
X364327Y308827D01*
X363077Y308827D01*
X363077Y314577D01*
X363077Y310014D02*
X364327Y310014D01*
X364327Y311201D02*
X363077Y311201D01*
X363077Y312388D02*
X364327Y312388D01*
X364327Y313575D02*
X363077Y313575D01*
X359327Y314577D02*
X358077Y314577D01*
X359327Y314577D02*
X359327Y308827D01*
X358077Y308827D01*
X358077Y314577D01*
X358077Y310014D02*
X359327Y310014D01*
X359327Y311201D02*
X358077Y311201D01*
X358077Y312388D02*
X359327Y312388D01*
X359327Y313575D02*
X358077Y313575D01*
X354327Y314577D02*
X353077Y314577D01*
X354327Y314577D02*
X354327Y308827D01*
X353077Y308827D01*
X353077Y314577D01*
X353077Y310014D02*
X354327Y310014D01*
X354327Y311201D02*
X353077Y311201D01*
X353077Y312388D02*
X354327Y312388D01*
X354327Y313575D02*
X353077Y313575D01*
X349327Y314577D02*
X348077Y314577D01*
X349327Y314577D02*
X349327Y308827D01*
X348077Y308827D01*
X348077Y314577D01*
X348077Y310014D02*
X349327Y310014D01*
X349327Y311201D02*
X348077Y311201D01*
X348077Y312388D02*
X349327Y312388D01*
X349327Y313575D02*
X348077Y313575D01*
X344327Y314577D02*
X343077Y314577D01*
X344327Y314577D02*
X344327Y308827D01*
X343077Y308827D01*
X343077Y314577D01*
X343077Y310014D02*
X344327Y310014D01*
X344327Y311201D02*
X343077Y311201D01*
X343077Y312388D02*
X344327Y312388D01*
X344327Y313575D02*
X343077Y313575D01*
X339327Y314577D02*
X338077Y314577D01*
X339327Y314577D02*
X339327Y308827D01*
X338077Y308827D01*
X338077Y314577D01*
X338077Y310014D02*
X339327Y310014D01*
X339327Y311201D02*
X338077Y311201D01*
X338077Y312388D02*
X339327Y312388D01*
X339327Y313575D02*
X338077Y313575D01*
X334327Y314577D02*
X333077Y314577D01*
X334327Y314577D02*
X334327Y308827D01*
X333077Y308827D01*
X333077Y314577D01*
X333077Y310014D02*
X334327Y310014D01*
X334327Y311201D02*
X333077Y311201D01*
X333077Y312388D02*
X334327Y312388D01*
X334327Y313575D02*
X333077Y313575D01*
X329327Y314577D02*
X328077Y314577D01*
X329327Y314577D02*
X329327Y308827D01*
X328077Y308827D01*
X328077Y314577D01*
X328077Y310014D02*
X329327Y310014D01*
X329327Y311201D02*
X328077Y311201D01*
X328077Y312388D02*
X329327Y312388D01*
X329327Y313575D02*
X328077Y313575D01*
X324327Y314577D02*
X323077Y314577D01*
X324327Y314577D02*
X324327Y308827D01*
X323077Y308827D01*
X323077Y314577D01*
X323077Y310014D02*
X324327Y310014D01*
X324327Y311201D02*
X323077Y311201D01*
X323077Y312388D02*
X324327Y312388D01*
X324327Y313575D02*
X323077Y313575D01*
X319327Y314577D02*
X318077Y314577D01*
X319327Y314577D02*
X319327Y308827D01*
X318077Y308827D01*
X318077Y314577D01*
X318077Y310014D02*
X319327Y310014D01*
X319327Y311201D02*
X318077Y311201D01*
X318077Y312388D02*
X319327Y312388D01*
X319327Y313575D02*
X318077Y313575D01*
X314577Y318077D02*
X314577Y319327D01*
X314577Y318077D02*
X308827Y318077D01*
X308827Y319327D01*
X314577Y319327D01*
X314577Y319264D02*
X308827Y319264D01*
X314577Y323077D02*
X314577Y324327D01*
X314577Y323077D02*
X308827Y323077D01*
X308827Y324327D01*
X314577Y324327D01*
X314577Y324264D02*
X308827Y324264D01*
X314577Y328077D02*
X314577Y329327D01*
X314577Y328077D02*
X308827Y328077D01*
X308827Y329327D01*
X314577Y329327D01*
X314577Y329264D02*
X308827Y329264D01*
X314577Y333077D02*
X314577Y334327D01*
X314577Y333077D02*
X308827Y333077D01*
X308827Y334327D01*
X314577Y334327D01*
X314577Y334264D02*
X308827Y334264D01*
X314577Y338077D02*
X314577Y339327D01*
X314577Y338077D02*
X308827Y338077D01*
X308827Y339327D01*
X314577Y339327D01*
X314577Y339264D02*
X308827Y339264D01*
X314577Y343077D02*
X314577Y344327D01*
X314577Y343077D02*
X308827Y343077D01*
X308827Y344327D01*
X314577Y344327D01*
X314577Y344264D02*
X308827Y344264D01*
X314577Y348077D02*
X314577Y349327D01*
X314577Y348077D02*
X308827Y348077D01*
X308827Y349327D01*
X314577Y349327D01*
X314577Y349264D02*
X308827Y349264D01*
X314577Y353077D02*
X314577Y354327D01*
X314577Y353077D02*
X308827Y353077D01*
X308827Y354327D01*
X314577Y354327D01*
X314577Y354264D02*
X308827Y354264D01*
X314577Y358077D02*
X314577Y359327D01*
X314577Y358077D02*
X308827Y358077D01*
X308827Y359327D01*
X314577Y359327D01*
X314577Y359264D02*
X308827Y359264D01*
X314577Y363077D02*
X314577Y364327D01*
X314577Y363077D02*
X308827Y363077D01*
X308827Y364327D01*
X314577Y364327D01*
X314577Y364264D02*
X308827Y364264D01*
X314577Y368077D02*
X314577Y369327D01*
X314577Y368077D02*
X308827Y368077D01*
X308827Y369327D01*
X314577Y369327D01*
X314577Y369264D02*
X308827Y369264D01*
X314577Y373077D02*
X314577Y374327D01*
X314577Y373077D02*
X308827Y373077D01*
X308827Y374327D01*
X314577Y374327D01*
X314577Y374264D02*
X308827Y374264D01*
X318077Y377827D02*
X319327Y377827D01*
X318077Y377827D02*
X318077Y383577D01*
X319327Y383577D01*
X319327Y377827D01*
X319327Y379014D02*
X318077Y379014D01*
X318077Y380201D02*
X319327Y380201D01*
X319327Y381388D02*
X318077Y381388D01*
X318077Y382575D02*
X319327Y382575D01*
X323077Y377827D02*
X324327Y377827D01*
X323077Y377827D02*
X323077Y383577D01*
X324327Y383577D01*
X324327Y377827D01*
X324327Y379014D02*
X323077Y379014D01*
X323077Y380201D02*
X324327Y380201D01*
X324327Y381388D02*
X323077Y381388D01*
X323077Y382575D02*
X324327Y382575D01*
X328077Y377827D02*
X329327Y377827D01*
X328077Y377827D02*
X328077Y383577D01*
X329327Y383577D01*
X329327Y377827D01*
X329327Y379014D02*
X328077Y379014D01*
X328077Y380201D02*
X329327Y380201D01*
X329327Y381388D02*
X328077Y381388D01*
X328077Y382575D02*
X329327Y382575D01*
X333077Y377827D02*
X334327Y377827D01*
X333077Y377827D02*
X333077Y383577D01*
X334327Y383577D01*
X334327Y377827D01*
X334327Y379014D02*
X333077Y379014D01*
X333077Y380201D02*
X334327Y380201D01*
X334327Y381388D02*
X333077Y381388D01*
X333077Y382575D02*
X334327Y382575D01*
X338077Y377827D02*
X339327Y377827D01*
X338077Y377827D02*
X338077Y383577D01*
X339327Y383577D01*
X339327Y377827D01*
X339327Y379014D02*
X338077Y379014D01*
X338077Y380201D02*
X339327Y380201D01*
X339327Y381388D02*
X338077Y381388D01*
X338077Y382575D02*
X339327Y382575D01*
X343077Y377827D02*
X344327Y377827D01*
X343077Y377827D02*
X343077Y383577D01*
X344327Y383577D01*
X344327Y377827D01*
X344327Y379014D02*
X343077Y379014D01*
X343077Y380201D02*
X344327Y380201D01*
X344327Y381388D02*
X343077Y381388D01*
X343077Y382575D02*
X344327Y382575D01*
X348077Y377827D02*
X349327Y377827D01*
X348077Y377827D02*
X348077Y383577D01*
X349327Y383577D01*
X349327Y377827D01*
X349327Y379014D02*
X348077Y379014D01*
X348077Y380201D02*
X349327Y380201D01*
X349327Y381388D02*
X348077Y381388D01*
X348077Y382575D02*
X349327Y382575D01*
X353077Y377827D02*
X354327Y377827D01*
X353077Y377827D02*
X353077Y383577D01*
X354327Y383577D01*
X354327Y377827D01*
X354327Y379014D02*
X353077Y379014D01*
X353077Y380201D02*
X354327Y380201D01*
X354327Y381388D02*
X353077Y381388D01*
X353077Y382575D02*
X354327Y382575D01*
X358077Y377827D02*
X359327Y377827D01*
X358077Y377827D02*
X358077Y383577D01*
X359327Y383577D01*
X359327Y377827D01*
X359327Y379014D02*
X358077Y379014D01*
X358077Y380201D02*
X359327Y380201D01*
X359327Y381388D02*
X358077Y381388D01*
X358077Y382575D02*
X359327Y382575D01*
X363077Y377827D02*
X364327Y377827D01*
X363077Y377827D02*
X363077Y383577D01*
X364327Y383577D01*
X364327Y377827D01*
X364327Y379014D02*
X363077Y379014D01*
X363077Y380201D02*
X364327Y380201D01*
X364327Y381388D02*
X363077Y381388D01*
X363077Y382575D02*
X364327Y382575D01*
X368077Y377827D02*
X369327Y377827D01*
X368077Y377827D02*
X368077Y383577D01*
X369327Y383577D01*
X369327Y377827D01*
X369327Y379014D02*
X368077Y379014D01*
X368077Y380201D02*
X369327Y380201D01*
X369327Y381388D02*
X368077Y381388D01*
X368077Y382575D02*
X369327Y382575D01*
X373077Y377827D02*
X374327Y377827D01*
X373077Y377827D02*
X373077Y383577D01*
X374327Y383577D01*
X374327Y377827D01*
X374327Y379014D02*
X373077Y379014D01*
X373077Y380201D02*
X374327Y380201D01*
X374327Y381388D02*
X373077Y381388D01*
X373077Y382575D02*
X374327Y382575D01*
D13*
X346202Y346202D03*
D14*
X404335Y366820D03*
X404335Y354820D03*
X404335Y342820D03*
D15*
X352100Y411972D03*
X352100Y394972D03*
D11*
X273873Y388889D03*
X273873Y407889D03*
X279212Y338293D03*
X279212Y319293D03*
D10*
X407266Y309424D03*
X407266Y326424D03*
X295476Y377115D03*
X295476Y394115D03*
D15*
X302744Y297404D03*
X285744Y297404D03*
D10*
X373883Y395124D03*
X373883Y412124D03*
D15*
X397659Y386474D03*
X414659Y386474D03*
D10*
X467463Y349413D03*
X450463Y349413D03*
D16*
X303442Y455128D02*
X292442Y455128D01*
X303442Y455128D02*
X303442Y450128D01*
X292442Y450128D01*
X292442Y455128D01*
X292442Y454878D02*
X303442Y454878D01*
X303442Y424728D02*
X292442Y424728D01*
X292442Y429728D01*
X303442Y429728D01*
X303442Y424728D01*
X303442Y429478D02*
X292442Y429478D01*
X373976Y466050D02*
X384976Y466050D01*
X384976Y461050D01*
X373976Y461050D01*
X373976Y466050D01*
X373976Y465800D02*
X384976Y465800D01*
X456272Y389850D02*
X467272Y389850D01*
X467272Y384850D01*
X456272Y384850D01*
X456272Y389850D01*
X456272Y389600D02*
X467272Y389600D01*
D17*
X428802Y489302D03*
X511402Y346202D03*
X428802Y203102D03*
X263602Y203102D03*
X181002Y346202D03*
X263602Y489302D03*
X470102Y417702D03*
X470102Y274702D03*
X346202Y203102D03*
X222302Y274702D03*
X222302Y417702D03*
X346202Y489302D03*
D18*
X368702Y384710D02*
X368702Y380702D01*
X368702Y384710D02*
X364292Y389120D01*
D19*
X364292Y409570D01*
X428802Y474450D02*
X428802Y489302D01*
D20*
X446839Y375600D03*
X346202Y346202D03*
X324442Y368671D03*
D19*
X311702Y368671D02*
X346202Y368671D01*
X346202Y368584D02*
X346202Y346202D01*
D20*
X368788Y368584D03*
D19*
X368702Y368584D02*
X346202Y368584D01*
X346202Y368671D01*
D20*
X346197Y322410D03*
D19*
X346202Y322410D02*
X346202Y346202D01*
X368702Y368584D02*
X368702Y380702D01*
X368702Y368584D02*
X368788Y368584D01*
D18*
X311702Y368702D02*
X311702Y368671D01*
D19*
X323702Y322410D02*
X323702Y311702D01*
X323702Y322410D02*
X346202Y322410D01*
X467463Y349413D02*
X467463Y354601D01*
X461277Y360787D02*
X446880Y360787D01*
X446740Y360926D01*
X446740Y360995D01*
D20*
X446740Y360995D03*
D19*
X461277Y360787D02*
X467463Y354601D01*
X467463Y349413D02*
X467463Y323150D01*
X467421Y323108D01*
X467421Y322857D01*
X467505Y322773D01*
D20*
X467505Y322773D03*
D18*
X311702Y368702D02*
X283623Y368702D01*
D19*
X275854Y376471D02*
X266126Y376471D01*
X262354Y380243D01*
X262354Y403570D01*
X266634Y407850D01*
D18*
X273835Y407850D02*
X273873Y407889D01*
D19*
X275854Y376471D02*
X283623Y368702D01*
X273835Y407850D02*
X266634Y407850D01*
X273873Y407889D02*
X290578Y407889D01*
X295567Y402900D01*
D18*
X295476Y402808D01*
D19*
X295476Y394115D01*
X428927Y443532D02*
X428927Y474324D01*
X428802Y474450D01*
D20*
X496341Y326883D03*
D19*
X428808Y203108D02*
X428802Y203102D01*
D20*
X410083Y227058D03*
D19*
X428808Y208333D01*
X428808Y203108D01*
X361890Y411972D02*
X352100Y411972D01*
X361890Y411972D02*
X364292Y409570D01*
X407934Y422539D02*
X428927Y443532D01*
X407934Y422539D02*
X384298Y422539D01*
X207911Y319293D02*
X181002Y346202D01*
X207911Y319293D02*
X279212Y319293D01*
X279212Y303935D01*
X285744Y297404D01*
X265534Y297404D01*
X265488Y297358D02*
X265478Y297358D01*
D20*
X265478Y297358D03*
D19*
X265488Y297358D02*
X265534Y297404D01*
X295476Y394115D02*
X295476Y405120D01*
X311236Y420881D01*
X311236Y436590D01*
X308353Y439473D02*
X288811Y439473D01*
X281094Y447190D01*
X281094Y471810D02*
X263602Y489302D01*
X308353Y439473D02*
X311236Y436590D01*
X281094Y447190D02*
X281094Y471810D01*
D20*
X257726Y231310D03*
D19*
X364292Y409570D02*
X366846Y412124D01*
X373883Y412124D01*
X384298Y422539D01*
X404335Y354820D02*
X412283Y354820D01*
X415585Y358122D01*
X415585Y385548D01*
X414659Y386474D01*
X432043Y386474D01*
X432090Y386521D01*
X435966Y386474D02*
X446839Y375600D01*
X435966Y386474D02*
X432043Y386474D01*
X432090Y386521D02*
X432138Y386568D01*
X432138Y398717D01*
D20*
X432138Y398717D03*
D19*
X496341Y326883D02*
X511402Y341943D01*
X511402Y346202D01*
X257726Y231310D02*
X257726Y208978D01*
X263602Y203102D01*
X279212Y338293D02*
X234345Y338293D01*
X285646Y377115D02*
X295476Y377115D01*
X285646Y377115D02*
X273873Y388889D01*
X302744Y326188D02*
X302744Y297404D01*
X290639Y338293D02*
X279212Y338293D01*
X290639Y338293D02*
X302744Y326188D01*
X391887Y380702D02*
X397659Y386474D01*
X373883Y380883D02*
X373883Y395124D01*
D18*
X373883Y380883D02*
X373702Y380702D01*
D19*
X311702Y373702D02*
X308289Y377115D01*
X295476Y377115D01*
D20*
X318021Y298641D03*
D19*
X318702Y299322D01*
X318702Y311702D01*
X303981Y298641D02*
X302744Y297404D01*
X303981Y298641D02*
X318021Y298641D01*
D20*
X397807Y412298D03*
D19*
X397807Y386622D01*
X397659Y386474D01*
X380702Y380702D02*
X380702Y373702D01*
X380702Y380702D02*
X373702Y380702D01*
X380702Y380702D02*
X391887Y380702D01*
X312659Y374659D02*
X312659Y391175D01*
X312659Y374659D02*
X311702Y373702D01*
X234345Y338293D02*
X226251Y346387D01*
X220020Y346387D01*
D20*
X220020Y346387D03*
D19*
X310040Y393794D02*
X310040Y407187D01*
D20*
X310040Y407187D03*
D19*
X310040Y393794D02*
X312659Y391175D01*
X333812Y301798D02*
X333812Y290050D01*
X333812Y301798D02*
X333702Y301908D01*
D18*
X333702Y311702D01*
D19*
X333812Y290050D02*
X318462Y274700D01*
D20*
X240900Y274700D03*
D19*
X318462Y274700D01*
D18*
X311702Y343702D02*
X297729Y343702D01*
D19*
X292732Y348699D01*
X241300Y348699D01*
X232039Y357960D01*
X232039Y396039D01*
X227025Y401053D01*
X227025Y401142D01*
X227095Y401072D01*
X227095Y401052D01*
D20*
X227095Y401052D03*
D19*
X231333Y283649D02*
X222302Y274702D01*
X328696Y293995D02*
X328696Y301798D01*
D18*
X328696Y311696D01*
X328702Y311702D01*
D19*
X318351Y283649D02*
X231333Y283649D01*
X318351Y283649D02*
X328696Y293995D01*
X238503Y401501D02*
X222302Y417702D01*
X238503Y401501D02*
X238503Y360101D01*
X243916Y354688D01*
D18*
X301294Y348702D02*
X311702Y348702D01*
D19*
X295308Y354688D02*
X243916Y354688D01*
X295308Y354688D02*
X301294Y348702D01*
D18*
X303901Y353702D02*
X311702Y353702D01*
D19*
X303901Y353702D02*
X298249Y359354D01*
X275793Y359354D01*
X249565Y364226D02*
X249545Y364206D01*
D20*
X249545Y364206D03*
D19*
X270921Y364226D02*
X275793Y359354D01*
X270921Y364226D02*
X249565Y364226D01*
X433587Y307328D02*
X444724Y307328D01*
X459489Y322092D02*
X459572Y331010D01*
D20*
X459572Y331010D03*
D19*
X459489Y322092D02*
X444724Y307328D01*
D18*
X386592Y333702D02*
X380702Y333702D01*
X386592Y333702D02*
X390981Y329314D01*
X391033Y329314D01*
X399522Y320825D01*
X399522Y311490D01*
X401645Y309367D01*
X401702Y309424D01*
X407266Y309424D01*
D19*
X431492Y309424D01*
X433587Y307328D01*
X328780Y390314D02*
X328702Y390392D01*
D18*
X328780Y390314D02*
X328780Y380780D01*
X328702Y380702D01*
D19*
X328702Y390392D02*
X328702Y446301D01*
X338770Y456369D01*
X338770Y474287D01*
D20*
X338770Y474287D03*
D19*
X333728Y393431D02*
X333728Y390482D01*
D18*
X333728Y380728D01*
X333702Y380702D01*
D19*
X333728Y393431D02*
X333728Y442105D01*
X346238Y454614D01*
X346238Y489266D01*
X346202Y489302D01*
X400818Y366820D02*
X404335Y366820D01*
D18*
X387700Y353702D02*
X380702Y353702D01*
D19*
X387700Y353702D02*
X400818Y366820D01*
X398454Y348702D02*
X404335Y342820D01*
X398454Y348702D02*
X387828Y348702D01*
X387741Y348615D01*
D18*
X387654Y348702D01*
X380702Y348702D01*
D19*
X379476Y463550D02*
X379476Y476611D01*
X379354Y476733D02*
X379354Y476816D01*
D20*
X379354Y476816D03*
D19*
X379354Y476733D02*
X379476Y476611D01*
X339923Y407148D02*
X352100Y394972D01*
X339923Y407148D02*
X339923Y435595D01*
X357000Y452671D01*
D20*
X357000Y452671D03*
D19*
X353702Y393369D02*
X353702Y380702D01*
X353702Y393369D02*
X352100Y394972D01*
D18*
X380789Y343789D02*
X387281Y343789D01*
X380789Y343789D02*
X380702Y343702D01*
D20*
X468018Y377068D03*
D19*
X468018Y376613D01*
X432856Y368755D02*
X432090Y369521D01*
X432856Y368755D02*
X460159Y368755D01*
X468018Y376613D01*
X432090Y343942D02*
X425082Y336934D01*
X394137Y336934D01*
D18*
X387281Y343789D01*
D19*
X432090Y343942D02*
X432090Y369521D01*
X468018Y377068D02*
X468018Y381104D01*
X461772Y387350D01*
X433492Y326424D02*
X407266Y326424D01*
X433492Y326424D02*
X433587Y326328D01*
D18*
X380729Y338729D02*
X380702Y338702D01*
D19*
X433587Y326328D02*
X443483Y326328D01*
X450463Y333308D01*
X450463Y349413D01*
X407266Y326424D02*
X403549Y326424D01*
D18*
X397104Y332870D02*
X392454Y332870D01*
X386594Y338729D01*
X397104Y332870D02*
X403549Y326424D01*
X386594Y338729D02*
X380729Y338729D01*
D19*
X380702Y318702D02*
X380702Y296879D01*
X449156Y274686D02*
X449214Y274744D01*
D20*
X449214Y274744D03*
D19*
X402895Y274686D02*
X380702Y296879D01*
X402895Y274686D02*
X449156Y274686D01*
X368702Y274885D02*
X354068Y260251D01*
X368702Y274885D02*
X368702Y293030D01*
X368706Y293035D01*
D18*
X368706Y311698D01*
X368702Y311702D01*
D19*
X354068Y260251D02*
X354068Y217983D01*
X354056Y217970D01*
X354066Y217960D01*
X354066Y217812D01*
D20*
X354066Y217812D03*
D19*
X462491Y267091D02*
X470102Y274702D01*
X462491Y267091D02*
X401886Y267091D01*
X373702Y295276D01*
X373736Y295309D01*
X373736Y302552D01*
D18*
X373702Y302586D01*
X373702Y311702D01*
D19*
X346202Y264351D02*
X346202Y203102D01*
X346202Y264351D02*
X363702Y281851D01*
X363702Y292954D01*
X363670Y292986D01*
D18*
X363670Y311670D01*
X363702Y311702D01*
D19*
X478996Y322605D02*
X478996Y388917D01*
X478996Y322605D02*
X452852Y296461D01*
X452852Y296405D01*
D18*
X385300Y328702D02*
X380702Y328702D01*
D19*
X401632Y296405D02*
X452852Y296405D01*
D18*
X395864Y318138D02*
X385300Y328702D01*
X395864Y318138D02*
X395864Y305852D01*
D19*
X478996Y388917D02*
X470257Y397656D01*
X470111Y397656D01*
D20*
X470111Y397656D03*
D19*
X395864Y302174D02*
X401632Y296405D01*
X395864Y302174D02*
X395864Y305852D01*
X477906Y399197D02*
X477906Y409898D01*
X470102Y417702D01*
X486565Y390538D02*
X486565Y319568D01*
X486565Y390538D02*
X477906Y399197D01*
D18*
X385271Y323702D02*
X380702Y323702D01*
X391175Y317798D02*
X391175Y302335D01*
X391175Y317798D02*
X385271Y323702D01*
D19*
X391175Y302335D02*
X391175Y298590D01*
X400733Y289032D01*
X456029Y289032D01*
X486565Y319568D01*
D20*
X357147Y298145D03*
D19*
X357147Y301325D01*
X353700Y304772D01*
X353700Y311700D01*
X353702Y311702D01*
X348702Y311702D02*
X348702Y286151D01*
X352676Y282176D01*
X352689Y282176D01*
X352715Y282151D01*
X352735Y282151D01*
D20*
X352735Y282151D03*
D19*
X343702Y280050D02*
X343702Y311702D01*
X343702Y280050D02*
X331869Y268216D01*
X331869Y252352D01*
X333538Y250683D01*
X334602Y250683D01*
X334622Y250703D01*
D20*
X334622Y250703D03*
D18*
X311702Y363702D02*
X280089Y363702D01*
X279016Y364774D01*
D19*
X273705Y370086D01*
X262862Y370086D01*
X256629Y376319D01*
X256629Y415572D02*
X268168Y427111D01*
X283169Y427111D01*
X297825Y427111D01*
X297942Y427228D01*
X256629Y415572D02*
X256629Y376319D01*
D20*
X283169Y427111D03*
D19*
X318702Y444670D02*
X318702Y380702D01*
X318702Y444670D02*
X310756Y452615D01*
X297955Y452615D01*
X297942Y452628D01*
D20*
X310756Y452615D03*
M02*
