G04 EAGLE Gerber RS-274X export*
G75*
%MOMM*%
%FSLAX34Y34*%
%LPD*%
%INSilkscreen Bottom*%
%IPPOS*%
%AMOC8*
5,1,8,0,0,1.08239X$1,22.5*%
G01*
%ADD10C,0.152400*%
%ADD11C,0.101600*%
%ADD12C,0.076200*%
%ADD13C,0.127000*%
%ADD14C,0.254000*%


D10*
X383596Y446920D02*
X378657Y446920D01*
X378517Y446918D01*
X378378Y446912D01*
X378238Y446902D01*
X378099Y446888D01*
X377960Y446871D01*
X377822Y446849D01*
X377685Y446823D01*
X377548Y446794D01*
X377412Y446761D01*
X377278Y446724D01*
X377144Y446683D01*
X377012Y446638D01*
X376880Y446589D01*
X376751Y446537D01*
X376623Y446482D01*
X376496Y446422D01*
X376371Y446359D01*
X376248Y446293D01*
X376127Y446223D01*
X376008Y446150D01*
X375891Y446073D01*
X375777Y445993D01*
X375664Y445910D01*
X375554Y445824D01*
X375447Y445734D01*
X375342Y445642D01*
X375240Y445547D01*
X375140Y445449D01*
X375043Y445348D01*
X374949Y445244D01*
X374859Y445138D01*
X374771Y445029D01*
X374686Y444918D01*
X374605Y444804D01*
X374526Y444689D01*
X374451Y444571D01*
X374380Y444451D01*
X374312Y444328D01*
X374247Y444205D01*
X374186Y444079D01*
X374128Y443951D01*
X374074Y443823D01*
X374024Y443692D01*
X373977Y443560D01*
X373934Y443427D01*
X373895Y443293D01*
X373860Y443158D01*
X373829Y443022D01*
X373801Y442884D01*
X373778Y442747D01*
X373758Y442608D01*
X373742Y442469D01*
X373730Y442330D01*
X373722Y442191D01*
X373718Y442051D01*
X373718Y441911D01*
X373722Y441771D01*
X373730Y441632D01*
X373742Y441493D01*
X373758Y441354D01*
X373778Y441215D01*
X373801Y441078D01*
X373829Y440940D01*
X373860Y440804D01*
X373895Y440669D01*
X373934Y440535D01*
X373977Y440402D01*
X374024Y440270D01*
X374074Y440139D01*
X374128Y440011D01*
X374186Y439883D01*
X374247Y439757D01*
X374312Y439634D01*
X374380Y439512D01*
X374451Y439391D01*
X374526Y439273D01*
X374605Y439158D01*
X374686Y439044D01*
X374771Y438933D01*
X374859Y438824D01*
X374949Y438718D01*
X375043Y438614D01*
X375140Y438513D01*
X375240Y438415D01*
X375342Y438320D01*
X375447Y438228D01*
X375554Y438138D01*
X375664Y438052D01*
X375777Y437969D01*
X375891Y437889D01*
X376008Y437812D01*
X376127Y437739D01*
X376248Y437669D01*
X376371Y437603D01*
X376496Y437540D01*
X376623Y437480D01*
X376751Y437425D01*
X376880Y437373D01*
X377012Y437324D01*
X377144Y437279D01*
X377278Y437238D01*
X377412Y437201D01*
X377548Y437168D01*
X377685Y437139D01*
X377822Y437113D01*
X377960Y437091D01*
X378099Y437074D01*
X378238Y437060D01*
X378378Y437050D01*
X378517Y437044D01*
X378657Y437042D01*
X378657Y437043D02*
X383596Y437043D01*
X383596Y454823D01*
X378657Y454823D01*
X378657Y454822D02*
X378533Y454820D01*
X378409Y454814D01*
X378285Y454804D01*
X378162Y454791D01*
X378039Y454773D01*
X377917Y454752D01*
X377795Y454727D01*
X377674Y454698D01*
X377555Y454665D01*
X377436Y454629D01*
X377319Y454588D01*
X377203Y454545D01*
X377088Y454497D01*
X376975Y454446D01*
X376863Y454391D01*
X376754Y454333D01*
X376646Y454272D01*
X376540Y454207D01*
X376436Y454139D01*
X376335Y454067D01*
X376235Y453993D01*
X376139Y453915D01*
X376044Y453835D01*
X375952Y453751D01*
X375863Y453665D01*
X375777Y453576D01*
X375693Y453484D01*
X375613Y453389D01*
X375535Y453293D01*
X375461Y453193D01*
X375389Y453092D01*
X375321Y452988D01*
X375256Y452882D01*
X375195Y452774D01*
X375137Y452665D01*
X375082Y452553D01*
X375031Y452440D01*
X374983Y452325D01*
X374940Y452209D01*
X374899Y452092D01*
X374863Y451973D01*
X374830Y451854D01*
X374801Y451733D01*
X374776Y451611D01*
X374755Y451489D01*
X374737Y451366D01*
X374724Y451243D01*
X374714Y451119D01*
X374708Y450995D01*
X374706Y450871D01*
X374708Y450747D01*
X374714Y450623D01*
X374724Y450499D01*
X374737Y450376D01*
X374755Y450253D01*
X374776Y450131D01*
X374801Y450009D01*
X374830Y449888D01*
X374863Y449769D01*
X374899Y449650D01*
X374940Y449533D01*
X374983Y449417D01*
X375031Y449302D01*
X375082Y449189D01*
X375137Y449077D01*
X375195Y448968D01*
X375256Y448860D01*
X375321Y448754D01*
X375389Y448650D01*
X375461Y448549D01*
X375535Y448449D01*
X375613Y448353D01*
X375693Y448258D01*
X375777Y448166D01*
X375863Y448077D01*
X375952Y447991D01*
X376044Y447907D01*
X376139Y447827D01*
X376235Y447749D01*
X376335Y447675D01*
X376436Y447603D01*
X376540Y447535D01*
X376646Y447470D01*
X376754Y447409D01*
X376863Y447351D01*
X376975Y447296D01*
X377088Y447245D01*
X377203Y447197D01*
X377319Y447154D01*
X377436Y447113D01*
X377555Y447077D01*
X377674Y447044D01*
X377795Y447015D01*
X377917Y446990D01*
X378039Y446969D01*
X378162Y446951D01*
X378285Y446938D01*
X378409Y446928D01*
X378533Y446922D01*
X378657Y446920D01*
X482922Y394990D02*
X482922Y377210D01*
X482922Y394990D02*
X477983Y394990D01*
X477843Y394988D01*
X477704Y394982D01*
X477564Y394972D01*
X477425Y394958D01*
X477286Y394941D01*
X477148Y394919D01*
X477011Y394893D01*
X476874Y394864D01*
X476738Y394831D01*
X476604Y394794D01*
X476470Y394753D01*
X476338Y394708D01*
X476206Y394659D01*
X476077Y394607D01*
X475949Y394552D01*
X475822Y394492D01*
X475697Y394429D01*
X475574Y394363D01*
X475453Y394293D01*
X475334Y394220D01*
X475217Y394143D01*
X475103Y394063D01*
X474990Y393980D01*
X474880Y393894D01*
X474773Y393804D01*
X474668Y393712D01*
X474566Y393617D01*
X474466Y393519D01*
X474369Y393418D01*
X474275Y393314D01*
X474185Y393208D01*
X474097Y393099D01*
X474012Y392988D01*
X473931Y392874D01*
X473852Y392759D01*
X473777Y392641D01*
X473706Y392521D01*
X473638Y392398D01*
X473573Y392275D01*
X473512Y392149D01*
X473454Y392021D01*
X473400Y391893D01*
X473350Y391762D01*
X473303Y391630D01*
X473260Y391497D01*
X473221Y391363D01*
X473186Y391228D01*
X473155Y391092D01*
X473127Y390954D01*
X473104Y390817D01*
X473084Y390678D01*
X473068Y390539D01*
X473056Y390400D01*
X473048Y390261D01*
X473044Y390121D01*
X473044Y389981D01*
X473048Y389841D01*
X473056Y389702D01*
X473068Y389563D01*
X473084Y389424D01*
X473104Y389285D01*
X473127Y389148D01*
X473155Y389010D01*
X473186Y388874D01*
X473221Y388739D01*
X473260Y388605D01*
X473303Y388472D01*
X473350Y388340D01*
X473400Y388209D01*
X473454Y388081D01*
X473512Y387953D01*
X473573Y387827D01*
X473638Y387704D01*
X473706Y387582D01*
X473777Y387461D01*
X473852Y387343D01*
X473931Y387228D01*
X474012Y387114D01*
X474097Y387003D01*
X474185Y386894D01*
X474275Y386788D01*
X474369Y386684D01*
X474466Y386583D01*
X474566Y386485D01*
X474668Y386390D01*
X474773Y386298D01*
X474880Y386208D01*
X474990Y386122D01*
X475103Y386039D01*
X475217Y385959D01*
X475334Y385882D01*
X475453Y385809D01*
X475574Y385739D01*
X475697Y385673D01*
X475822Y385610D01*
X475949Y385550D01*
X476077Y385495D01*
X476206Y385443D01*
X476338Y385394D01*
X476470Y385349D01*
X476604Y385308D01*
X476738Y385271D01*
X476874Y385238D01*
X477011Y385209D01*
X477148Y385183D01*
X477286Y385161D01*
X477425Y385144D01*
X477564Y385130D01*
X477704Y385120D01*
X477843Y385114D01*
X477983Y385112D01*
X477983Y385113D02*
X482922Y385113D01*
X476996Y385113D02*
X473045Y377210D01*
X284190Y419595D02*
X284190Y437375D01*
X279252Y437375D01*
X279113Y437373D01*
X278975Y437367D01*
X278837Y437358D01*
X278699Y437344D01*
X278562Y437327D01*
X278425Y437305D01*
X278288Y437280D01*
X278153Y437251D01*
X278018Y437218D01*
X277885Y437182D01*
X277752Y437142D01*
X277621Y437098D01*
X277491Y437050D01*
X277362Y436999D01*
X277235Y436944D01*
X277109Y436886D01*
X276985Y436824D01*
X276863Y436759D01*
X276743Y436690D01*
X276624Y436618D01*
X276508Y436543D01*
X276394Y436464D01*
X276282Y436382D01*
X276173Y436297D01*
X276065Y436210D01*
X275961Y436119D01*
X275859Y436025D01*
X275760Y435928D01*
X275663Y435829D01*
X275569Y435727D01*
X275478Y435623D01*
X275391Y435515D01*
X275306Y435406D01*
X275224Y435294D01*
X275145Y435180D01*
X275070Y435064D01*
X274998Y434945D01*
X274929Y434825D01*
X274864Y434703D01*
X274802Y434579D01*
X274744Y434453D01*
X274689Y434326D01*
X274638Y434197D01*
X274590Y434067D01*
X274546Y433936D01*
X274506Y433803D01*
X274470Y433670D01*
X274437Y433535D01*
X274408Y433400D01*
X274383Y433263D01*
X274361Y433126D01*
X274344Y432989D01*
X274330Y432851D01*
X274321Y432713D01*
X274315Y432575D01*
X274313Y432436D01*
X274313Y424534D01*
X274315Y424395D01*
X274321Y424257D01*
X274330Y424119D01*
X274344Y423981D01*
X274361Y423844D01*
X274383Y423707D01*
X274408Y423570D01*
X274437Y423435D01*
X274470Y423300D01*
X274506Y423167D01*
X274546Y423034D01*
X274590Y422903D01*
X274638Y422773D01*
X274689Y422644D01*
X274744Y422517D01*
X274802Y422391D01*
X274864Y422267D01*
X274929Y422145D01*
X274998Y422025D01*
X275070Y421906D01*
X275145Y421790D01*
X275224Y421676D01*
X275306Y421564D01*
X275391Y421455D01*
X275478Y421347D01*
X275569Y421243D01*
X275663Y421141D01*
X275760Y421042D01*
X275859Y420945D01*
X275961Y420851D01*
X276065Y420760D01*
X276173Y420673D01*
X276282Y420588D01*
X276394Y420506D01*
X276508Y420427D01*
X276624Y420352D01*
X276743Y420280D01*
X276863Y420211D01*
X276985Y420146D01*
X277109Y420084D01*
X277235Y420026D01*
X277362Y419971D01*
X277491Y419920D01*
X277621Y419872D01*
X277752Y419828D01*
X277885Y419788D01*
X278018Y419752D01*
X278153Y419719D01*
X278288Y419690D01*
X278425Y419665D01*
X278562Y419643D01*
X278699Y419626D01*
X278837Y419612D01*
X278975Y419603D01*
X279113Y419597D01*
X279252Y419595D01*
X284190Y419595D01*
X280521Y444203D02*
X276570Y444203D01*
X280521Y444203D02*
X280645Y444205D01*
X280769Y444211D01*
X280893Y444221D01*
X281016Y444234D01*
X281139Y444252D01*
X281261Y444273D01*
X281383Y444298D01*
X281504Y444327D01*
X281623Y444360D01*
X281742Y444396D01*
X281859Y444437D01*
X281975Y444480D01*
X282090Y444528D01*
X282203Y444579D01*
X282315Y444634D01*
X282424Y444692D01*
X282532Y444753D01*
X282638Y444818D01*
X282742Y444886D01*
X282843Y444958D01*
X282943Y445032D01*
X283039Y445110D01*
X283134Y445190D01*
X283226Y445274D01*
X283315Y445360D01*
X283401Y445449D01*
X283485Y445541D01*
X283565Y445636D01*
X283643Y445732D01*
X283717Y445832D01*
X283789Y445933D01*
X283857Y446037D01*
X283922Y446143D01*
X283983Y446251D01*
X284041Y446360D01*
X284096Y446472D01*
X284147Y446585D01*
X284195Y446700D01*
X284238Y446816D01*
X284279Y446933D01*
X284315Y447052D01*
X284348Y447171D01*
X284377Y447292D01*
X284402Y447414D01*
X284423Y447536D01*
X284441Y447659D01*
X284454Y447782D01*
X284464Y447906D01*
X284470Y448030D01*
X284472Y448154D01*
X284472Y458032D01*
X284470Y458156D01*
X284464Y458280D01*
X284454Y458404D01*
X284441Y458527D01*
X284423Y458650D01*
X284402Y458772D01*
X284377Y458894D01*
X284348Y459015D01*
X284315Y459134D01*
X284279Y459253D01*
X284238Y459370D01*
X284195Y459486D01*
X284147Y459601D01*
X284096Y459714D01*
X284041Y459826D01*
X283983Y459935D01*
X283922Y460043D01*
X283857Y460149D01*
X283789Y460253D01*
X283717Y460354D01*
X283643Y460454D01*
X283565Y460550D01*
X283485Y460645D01*
X283401Y460737D01*
X283315Y460826D01*
X283226Y460912D01*
X283134Y460996D01*
X283039Y461076D01*
X282943Y461154D01*
X282843Y461228D01*
X282742Y461300D01*
X282638Y461368D01*
X282532Y461433D01*
X282424Y461494D01*
X282315Y461552D01*
X282203Y461607D01*
X282090Y461658D01*
X281976Y461706D01*
X281859Y461749D01*
X281742Y461790D01*
X281623Y461826D01*
X281504Y461859D01*
X281383Y461888D01*
X281261Y461913D01*
X281139Y461934D01*
X281016Y461952D01*
X280893Y461965D01*
X280769Y461975D01*
X280645Y461981D01*
X280521Y461983D01*
X276570Y461983D01*
D11*
X428939Y467097D02*
X430534Y465980D01*
X428939Y467097D02*
X425216Y461780D01*
X428406Y459546D01*
X428407Y459546D02*
X428490Y459491D01*
X428574Y459439D01*
X428661Y459390D01*
X428749Y459344D01*
X428839Y459302D01*
X428931Y459263D01*
X429024Y459228D01*
X429118Y459196D01*
X429213Y459168D01*
X429310Y459144D01*
X429407Y459123D01*
X429505Y459107D01*
X429604Y459093D01*
X429703Y459084D01*
X429802Y459079D01*
X429902Y459077D01*
X430001Y459079D01*
X430100Y459085D01*
X430199Y459095D01*
X430298Y459108D01*
X430396Y459126D01*
X430493Y459147D01*
X430589Y459171D01*
X430685Y459200D01*
X430779Y459232D01*
X430872Y459267D01*
X430963Y459306D01*
X431053Y459349D01*
X431141Y459395D01*
X431227Y459444D01*
X431312Y459497D01*
X431394Y459553D01*
X431474Y459612D01*
X431552Y459674D01*
X431627Y459739D01*
X431700Y459806D01*
X431770Y459877D01*
X431838Y459950D01*
X431902Y460026D01*
X431964Y460104D01*
X432023Y460184D01*
X435746Y465501D01*
X435801Y465584D01*
X435853Y465668D01*
X435902Y465755D01*
X435948Y465843D01*
X435990Y465933D01*
X436029Y466025D01*
X436064Y466118D01*
X436096Y466212D01*
X436124Y466307D01*
X436148Y466404D01*
X436169Y466501D01*
X436185Y466599D01*
X436199Y466698D01*
X436208Y466797D01*
X436213Y466896D01*
X436215Y466996D01*
X436213Y467095D01*
X436207Y467194D01*
X436197Y467293D01*
X436184Y467392D01*
X436166Y467490D01*
X436145Y467587D01*
X436121Y467683D01*
X436092Y467779D01*
X436060Y467873D01*
X436025Y467966D01*
X435986Y468057D01*
X435943Y468147D01*
X435897Y468235D01*
X435848Y468321D01*
X435795Y468406D01*
X435739Y468488D01*
X435680Y468568D01*
X435618Y468646D01*
X435553Y468721D01*
X435486Y468794D01*
X435415Y468864D01*
X435342Y468932D01*
X435266Y468996D01*
X435188Y469058D01*
X435108Y469117D01*
X431918Y471351D01*
X427248Y474621D02*
X420546Y465050D01*
X415229Y468773D02*
X427248Y474621D01*
X421931Y478344D02*
X415229Y468773D01*
X410559Y472043D02*
X417261Y481614D01*
X414602Y483475D01*
X414603Y483476D02*
X414509Y483539D01*
X414413Y483599D01*
X414315Y483656D01*
X414215Y483709D01*
X414113Y483759D01*
X414009Y483805D01*
X413904Y483847D01*
X413798Y483886D01*
X413690Y483921D01*
X413581Y483952D01*
X413471Y483980D01*
X413360Y484003D01*
X413249Y484023D01*
X413137Y484039D01*
X413024Y484051D01*
X412911Y484059D01*
X412798Y484063D01*
X412684Y484063D01*
X412571Y484059D01*
X412458Y484051D01*
X412345Y484039D01*
X412233Y484023D01*
X412122Y484003D01*
X412011Y483980D01*
X411901Y483952D01*
X411792Y483921D01*
X411684Y483886D01*
X411578Y483847D01*
X411473Y483805D01*
X411369Y483759D01*
X411267Y483709D01*
X411167Y483656D01*
X411069Y483599D01*
X410973Y483539D01*
X410879Y483476D01*
X410788Y483409D01*
X410698Y483340D01*
X410611Y483267D01*
X410527Y483191D01*
X410446Y483112D01*
X410367Y483031D01*
X410291Y482947D01*
X410218Y482860D01*
X410149Y482771D01*
X410082Y482679D01*
X410082Y482678D02*
X407104Y478424D01*
X407103Y478425D02*
X407040Y478331D01*
X406980Y478235D01*
X406923Y478137D01*
X406870Y478037D01*
X406820Y477935D01*
X406774Y477831D01*
X406732Y477726D01*
X406693Y477620D01*
X406658Y477512D01*
X406627Y477403D01*
X406599Y477293D01*
X406576Y477182D01*
X406556Y477071D01*
X406540Y476959D01*
X406528Y476846D01*
X406520Y476733D01*
X406516Y476620D01*
X406516Y476506D01*
X406520Y476393D01*
X406528Y476280D01*
X406540Y476167D01*
X406556Y476055D01*
X406576Y475944D01*
X406599Y475833D01*
X406627Y475723D01*
X406658Y475614D01*
X406693Y475506D01*
X406732Y475400D01*
X406774Y475295D01*
X406820Y475191D01*
X406870Y475089D01*
X406923Y474989D01*
X406980Y474891D01*
X407040Y474795D01*
X407103Y474701D01*
X407170Y474609D01*
X407239Y474520D01*
X407312Y474433D01*
X407388Y474349D01*
X407467Y474268D01*
X407548Y474189D01*
X407632Y474113D01*
X407719Y474040D01*
X407809Y473971D01*
X407900Y473904D01*
X407901Y473904D02*
X410559Y472043D01*
X492049Y337254D02*
X492049Y335306D01*
X492049Y337254D02*
X485558Y337254D01*
X485558Y333359D01*
X485560Y333260D01*
X485566Y333160D01*
X485575Y333061D01*
X485588Y332963D01*
X485605Y332865D01*
X485626Y332767D01*
X485651Y332671D01*
X485679Y332576D01*
X485711Y332482D01*
X485746Y332389D01*
X485785Y332297D01*
X485828Y332207D01*
X485873Y332119D01*
X485923Y332032D01*
X485975Y331948D01*
X486031Y331865D01*
X486089Y331785D01*
X486151Y331707D01*
X486216Y331632D01*
X486284Y331559D01*
X486354Y331489D01*
X486427Y331421D01*
X486502Y331356D01*
X486580Y331294D01*
X486660Y331236D01*
X486743Y331180D01*
X486827Y331128D01*
X486914Y331078D01*
X487002Y331033D01*
X487092Y330990D01*
X487184Y330951D01*
X487277Y330916D01*
X487371Y330884D01*
X487466Y330856D01*
X487562Y330831D01*
X487660Y330810D01*
X487758Y330793D01*
X487856Y330780D01*
X487955Y330771D01*
X488055Y330765D01*
X488154Y330763D01*
X494646Y330763D01*
X494745Y330765D01*
X494845Y330771D01*
X494944Y330780D01*
X495042Y330793D01*
X495140Y330810D01*
X495238Y330831D01*
X495334Y330856D01*
X495429Y330884D01*
X495523Y330916D01*
X495616Y330951D01*
X495708Y330990D01*
X495798Y331033D01*
X495886Y331078D01*
X495973Y331128D01*
X496057Y331180D01*
X496140Y331236D01*
X496220Y331294D01*
X496298Y331356D01*
X496373Y331421D01*
X496446Y331489D01*
X496516Y331559D01*
X496584Y331632D01*
X496649Y331707D01*
X496711Y331785D01*
X496769Y331865D01*
X496825Y331948D01*
X496877Y332032D01*
X496927Y332119D01*
X496972Y332207D01*
X497015Y332297D01*
X497054Y332389D01*
X497089Y332481D01*
X497121Y332576D01*
X497149Y332671D01*
X497174Y332767D01*
X497195Y332865D01*
X497212Y332963D01*
X497225Y333061D01*
X497234Y333160D01*
X497240Y333260D01*
X497242Y333359D01*
X497242Y337254D01*
X497242Y342954D02*
X485558Y342954D01*
X485558Y349446D02*
X497242Y342954D01*
X497242Y349446D02*
X485558Y349446D01*
X485558Y355146D02*
X497242Y355146D01*
X497242Y358392D01*
X497240Y358505D01*
X497234Y358618D01*
X497224Y358731D01*
X497210Y358844D01*
X497193Y358956D01*
X497171Y359067D01*
X497146Y359177D01*
X497116Y359287D01*
X497083Y359395D01*
X497046Y359502D01*
X497006Y359608D01*
X496961Y359712D01*
X496913Y359815D01*
X496862Y359916D01*
X496807Y360015D01*
X496749Y360112D01*
X496687Y360207D01*
X496622Y360300D01*
X496554Y360390D01*
X496483Y360478D01*
X496408Y360564D01*
X496331Y360647D01*
X496251Y360727D01*
X496168Y360804D01*
X496082Y360879D01*
X495994Y360950D01*
X495904Y361018D01*
X495811Y361083D01*
X495716Y361145D01*
X495619Y361203D01*
X495520Y361258D01*
X495419Y361309D01*
X495316Y361357D01*
X495212Y361402D01*
X495106Y361442D01*
X494999Y361479D01*
X494891Y361512D01*
X494781Y361542D01*
X494671Y361567D01*
X494560Y361589D01*
X494448Y361606D01*
X494335Y361620D01*
X494222Y361630D01*
X494109Y361636D01*
X493996Y361638D01*
X488804Y361638D01*
X488691Y361636D01*
X488578Y361630D01*
X488465Y361620D01*
X488352Y361606D01*
X488240Y361589D01*
X488129Y361567D01*
X488019Y361542D01*
X487909Y361512D01*
X487801Y361479D01*
X487694Y361442D01*
X487588Y361402D01*
X487484Y361357D01*
X487381Y361309D01*
X487280Y361258D01*
X487181Y361203D01*
X487084Y361145D01*
X486989Y361083D01*
X486896Y361018D01*
X486806Y360950D01*
X486718Y360879D01*
X486632Y360804D01*
X486549Y360727D01*
X486469Y360647D01*
X486392Y360564D01*
X486317Y360478D01*
X486246Y360390D01*
X486178Y360300D01*
X486113Y360207D01*
X486051Y360112D01*
X485993Y360015D01*
X485938Y359916D01*
X485887Y359815D01*
X485839Y359712D01*
X485794Y359608D01*
X485754Y359502D01*
X485717Y359395D01*
X485684Y359287D01*
X485654Y359177D01*
X485629Y359067D01*
X485607Y358956D01*
X485590Y358844D01*
X485576Y358731D01*
X485566Y358618D01*
X485560Y358505D01*
X485558Y358392D01*
X485558Y355146D01*
X425667Y224415D02*
X424072Y223298D01*
X427795Y217981D01*
X430986Y220215D01*
X430985Y220215D02*
X431065Y220274D01*
X431143Y220336D01*
X431219Y220400D01*
X431292Y220468D01*
X431363Y220538D01*
X431430Y220611D01*
X431495Y220686D01*
X431557Y220764D01*
X431616Y220844D01*
X431672Y220926D01*
X431725Y221011D01*
X431774Y221097D01*
X431820Y221185D01*
X431863Y221275D01*
X431902Y221366D01*
X431937Y221459D01*
X431969Y221553D01*
X431998Y221649D01*
X432022Y221745D01*
X432043Y221842D01*
X432061Y221940D01*
X432074Y222039D01*
X432084Y222138D01*
X432090Y222237D01*
X432092Y222336D01*
X432090Y222436D01*
X432085Y222535D01*
X432075Y222634D01*
X432062Y222733D01*
X432046Y222831D01*
X432025Y222928D01*
X432001Y223025D01*
X431973Y223120D01*
X431941Y223214D01*
X431906Y223307D01*
X431867Y223399D01*
X431825Y223489D01*
X431779Y223577D01*
X431730Y223664D01*
X431678Y223748D01*
X431623Y223831D01*
X427900Y229148D01*
X427841Y229228D01*
X427779Y229306D01*
X427715Y229382D01*
X427647Y229455D01*
X427577Y229526D01*
X427504Y229593D01*
X427429Y229658D01*
X427351Y229720D01*
X427271Y229779D01*
X427189Y229835D01*
X427104Y229888D01*
X427018Y229937D01*
X426930Y229983D01*
X426840Y230026D01*
X426749Y230065D01*
X426656Y230100D01*
X426562Y230132D01*
X426466Y230161D01*
X426370Y230185D01*
X426273Y230206D01*
X426175Y230224D01*
X426076Y230237D01*
X425977Y230247D01*
X425878Y230253D01*
X425779Y230255D01*
X425679Y230253D01*
X425580Y230248D01*
X425481Y230239D01*
X425382Y230225D01*
X425284Y230209D01*
X425187Y230188D01*
X425090Y230164D01*
X424995Y230136D01*
X424901Y230104D01*
X424808Y230069D01*
X424716Y230030D01*
X424626Y229988D01*
X424538Y229942D01*
X424451Y229893D01*
X424367Y229841D01*
X424284Y229786D01*
X421094Y227552D01*
X416424Y224282D02*
X423125Y214711D01*
X417808Y210988D02*
X416424Y224282D01*
X411107Y220559D02*
X417808Y210988D01*
X413138Y207718D02*
X406437Y217289D01*
X403778Y215427D01*
X403778Y215428D02*
X403687Y215361D01*
X403597Y215292D01*
X403510Y215219D01*
X403426Y215143D01*
X403345Y215064D01*
X403266Y214983D01*
X403190Y214899D01*
X403117Y214812D01*
X403048Y214723D01*
X402981Y214631D01*
X402918Y214537D01*
X402858Y214441D01*
X402801Y214343D01*
X402748Y214243D01*
X402698Y214141D01*
X402652Y214037D01*
X402610Y213932D01*
X402571Y213826D01*
X402536Y213718D01*
X402505Y213609D01*
X402477Y213499D01*
X402454Y213388D01*
X402434Y213277D01*
X402418Y213165D01*
X402406Y213052D01*
X402398Y212939D01*
X402394Y212826D01*
X402394Y212712D01*
X402398Y212599D01*
X402406Y212486D01*
X402418Y212373D01*
X402434Y212261D01*
X402454Y212150D01*
X402477Y212039D01*
X402505Y211929D01*
X402536Y211820D01*
X402571Y211712D01*
X402610Y211606D01*
X402652Y211501D01*
X402698Y211397D01*
X402748Y211295D01*
X402801Y211195D01*
X402858Y211097D01*
X402918Y211001D01*
X402981Y210907D01*
X405960Y206653D01*
X405959Y206653D02*
X406026Y206562D01*
X406095Y206472D01*
X406168Y206385D01*
X406244Y206301D01*
X406323Y206220D01*
X406404Y206141D01*
X406488Y206065D01*
X406575Y205992D01*
X406665Y205923D01*
X406756Y205856D01*
X406850Y205793D01*
X406946Y205733D01*
X407044Y205676D01*
X407144Y205623D01*
X407246Y205573D01*
X407350Y205527D01*
X407455Y205485D01*
X407561Y205446D01*
X407669Y205411D01*
X407778Y205380D01*
X407888Y205352D01*
X407999Y205329D01*
X408110Y205309D01*
X408222Y205293D01*
X408335Y205281D01*
X408448Y205273D01*
X408561Y205269D01*
X408675Y205269D01*
X408788Y205273D01*
X408901Y205281D01*
X409014Y205293D01*
X409126Y205309D01*
X409237Y205329D01*
X409348Y205352D01*
X409458Y205380D01*
X409567Y205411D01*
X409675Y205446D01*
X409781Y205485D01*
X409886Y205527D01*
X409990Y205573D01*
X410092Y205623D01*
X410192Y205676D01*
X410290Y205733D01*
X410386Y205793D01*
X410480Y205856D01*
X413138Y207718D01*
X284057Y212027D02*
X282462Y213144D01*
X278738Y207827D01*
X281929Y205593D01*
X282012Y205538D01*
X282096Y205486D01*
X282183Y205437D01*
X282271Y205391D01*
X282361Y205349D01*
X282453Y205310D01*
X282546Y205275D01*
X282640Y205243D01*
X282735Y205215D01*
X282832Y205191D01*
X282929Y205170D01*
X283027Y205154D01*
X283126Y205140D01*
X283225Y205131D01*
X283324Y205126D01*
X283424Y205124D01*
X283523Y205126D01*
X283622Y205132D01*
X283721Y205142D01*
X283820Y205155D01*
X283918Y205173D01*
X284015Y205194D01*
X284111Y205218D01*
X284207Y205247D01*
X284301Y205279D01*
X284394Y205314D01*
X284485Y205353D01*
X284575Y205396D01*
X284663Y205442D01*
X284749Y205491D01*
X284834Y205544D01*
X284916Y205600D01*
X284996Y205659D01*
X285074Y205721D01*
X285149Y205786D01*
X285222Y205853D01*
X285292Y205924D01*
X285360Y205997D01*
X285424Y206073D01*
X285486Y206151D01*
X285545Y206231D01*
X289268Y211548D01*
X289323Y211631D01*
X289375Y211715D01*
X289424Y211802D01*
X289470Y211890D01*
X289512Y211980D01*
X289551Y212072D01*
X289586Y212165D01*
X289618Y212259D01*
X289646Y212354D01*
X289670Y212451D01*
X289691Y212548D01*
X289707Y212646D01*
X289721Y212745D01*
X289730Y212844D01*
X289735Y212943D01*
X289737Y213043D01*
X289735Y213142D01*
X289729Y213241D01*
X289719Y213340D01*
X289706Y213439D01*
X289688Y213537D01*
X289667Y213634D01*
X289643Y213730D01*
X289614Y213826D01*
X289582Y213920D01*
X289547Y214013D01*
X289508Y214104D01*
X289465Y214194D01*
X289419Y214282D01*
X289370Y214368D01*
X289317Y214453D01*
X289261Y214535D01*
X289202Y214615D01*
X289140Y214693D01*
X289075Y214768D01*
X289008Y214841D01*
X288937Y214911D01*
X288864Y214979D01*
X288788Y215043D01*
X288710Y215105D01*
X288630Y215164D01*
X285440Y217398D01*
X280770Y220668D02*
X274069Y211097D01*
X268751Y214820D02*
X280770Y220668D01*
X275453Y224391D02*
X268751Y214820D01*
X264082Y218090D02*
X270783Y227661D01*
X268125Y229523D01*
X268031Y229586D01*
X267935Y229646D01*
X267837Y229703D01*
X267737Y229756D01*
X267635Y229806D01*
X267531Y229852D01*
X267426Y229894D01*
X267320Y229933D01*
X267212Y229968D01*
X267103Y229999D01*
X266993Y230027D01*
X266882Y230050D01*
X266771Y230070D01*
X266659Y230086D01*
X266546Y230098D01*
X266433Y230106D01*
X266320Y230110D01*
X266206Y230110D01*
X266093Y230106D01*
X265980Y230098D01*
X265867Y230086D01*
X265755Y230070D01*
X265644Y230050D01*
X265533Y230027D01*
X265423Y229999D01*
X265314Y229968D01*
X265206Y229933D01*
X265100Y229894D01*
X264995Y229852D01*
X264891Y229806D01*
X264789Y229756D01*
X264689Y229703D01*
X264591Y229646D01*
X264495Y229586D01*
X264401Y229523D01*
X264310Y229456D01*
X264220Y229387D01*
X264133Y229314D01*
X264049Y229238D01*
X263968Y229159D01*
X263889Y229078D01*
X263813Y228994D01*
X263740Y228907D01*
X263671Y228818D01*
X263604Y228726D01*
X260626Y224472D01*
X260563Y224378D01*
X260503Y224282D01*
X260446Y224184D01*
X260393Y224084D01*
X260343Y223982D01*
X260297Y223878D01*
X260255Y223773D01*
X260216Y223667D01*
X260181Y223559D01*
X260150Y223450D01*
X260122Y223340D01*
X260099Y223229D01*
X260079Y223118D01*
X260063Y223006D01*
X260051Y222893D01*
X260043Y222780D01*
X260039Y222667D01*
X260039Y222553D01*
X260043Y222440D01*
X260051Y222327D01*
X260063Y222214D01*
X260079Y222102D01*
X260099Y221991D01*
X260122Y221880D01*
X260150Y221770D01*
X260181Y221661D01*
X260216Y221553D01*
X260255Y221447D01*
X260297Y221342D01*
X260343Y221238D01*
X260393Y221136D01*
X260446Y221036D01*
X260503Y220938D01*
X260563Y220842D01*
X260626Y220748D01*
X260693Y220656D01*
X260762Y220567D01*
X260835Y220480D01*
X260911Y220396D01*
X260990Y220315D01*
X261071Y220236D01*
X261155Y220160D01*
X261242Y220087D01*
X261332Y220018D01*
X261423Y219951D01*
X261423Y219952D02*
X264082Y218090D01*
X201649Y335306D02*
X201649Y337254D01*
X195158Y337254D01*
X195158Y333359D01*
X195160Y333260D01*
X195166Y333160D01*
X195175Y333061D01*
X195188Y332963D01*
X195205Y332865D01*
X195226Y332767D01*
X195251Y332671D01*
X195279Y332576D01*
X195311Y332482D01*
X195346Y332389D01*
X195385Y332297D01*
X195428Y332207D01*
X195473Y332119D01*
X195523Y332032D01*
X195575Y331948D01*
X195631Y331865D01*
X195689Y331785D01*
X195751Y331707D01*
X195816Y331632D01*
X195884Y331559D01*
X195954Y331489D01*
X196027Y331421D01*
X196102Y331356D01*
X196180Y331294D01*
X196260Y331236D01*
X196343Y331180D01*
X196427Y331128D01*
X196514Y331078D01*
X196602Y331033D01*
X196692Y330990D01*
X196784Y330951D01*
X196877Y330916D01*
X196971Y330884D01*
X197066Y330856D01*
X197162Y330831D01*
X197260Y330810D01*
X197358Y330793D01*
X197456Y330780D01*
X197555Y330771D01*
X197655Y330765D01*
X197754Y330763D01*
X204246Y330763D01*
X204345Y330765D01*
X204445Y330771D01*
X204544Y330780D01*
X204642Y330793D01*
X204740Y330810D01*
X204838Y330831D01*
X204934Y330856D01*
X205029Y330884D01*
X205123Y330916D01*
X205216Y330951D01*
X205308Y330990D01*
X205398Y331033D01*
X205486Y331078D01*
X205573Y331128D01*
X205657Y331180D01*
X205740Y331236D01*
X205820Y331294D01*
X205898Y331356D01*
X205973Y331421D01*
X206046Y331489D01*
X206116Y331559D01*
X206184Y331632D01*
X206249Y331707D01*
X206311Y331785D01*
X206369Y331865D01*
X206425Y331948D01*
X206477Y332032D01*
X206527Y332119D01*
X206572Y332207D01*
X206615Y332297D01*
X206654Y332389D01*
X206689Y332481D01*
X206721Y332576D01*
X206749Y332671D01*
X206774Y332767D01*
X206795Y332865D01*
X206812Y332963D01*
X206825Y333061D01*
X206834Y333160D01*
X206840Y333260D01*
X206842Y333359D01*
X206842Y337254D01*
X206842Y342954D02*
X195158Y342954D01*
X195158Y349446D02*
X206842Y342954D01*
X206842Y349446D02*
X195158Y349446D01*
X195158Y355146D02*
X206842Y355146D01*
X206842Y358392D01*
X206840Y358505D01*
X206834Y358618D01*
X206824Y358731D01*
X206810Y358844D01*
X206793Y358956D01*
X206771Y359067D01*
X206746Y359177D01*
X206716Y359287D01*
X206683Y359395D01*
X206646Y359502D01*
X206606Y359608D01*
X206561Y359712D01*
X206513Y359815D01*
X206462Y359916D01*
X206407Y360015D01*
X206349Y360112D01*
X206287Y360207D01*
X206222Y360300D01*
X206154Y360390D01*
X206083Y360478D01*
X206008Y360564D01*
X205931Y360647D01*
X205851Y360727D01*
X205768Y360804D01*
X205682Y360879D01*
X205594Y360950D01*
X205504Y361018D01*
X205411Y361083D01*
X205316Y361145D01*
X205219Y361203D01*
X205120Y361258D01*
X205019Y361309D01*
X204916Y361357D01*
X204812Y361402D01*
X204706Y361442D01*
X204599Y361479D01*
X204491Y361512D01*
X204381Y361542D01*
X204271Y361567D01*
X204160Y361589D01*
X204048Y361606D01*
X203935Y361620D01*
X203822Y361630D01*
X203709Y361636D01*
X203596Y361638D01*
X198404Y361638D01*
X198291Y361636D01*
X198178Y361630D01*
X198065Y361620D01*
X197952Y361606D01*
X197840Y361589D01*
X197729Y361567D01*
X197619Y361542D01*
X197509Y361512D01*
X197401Y361479D01*
X197294Y361442D01*
X197188Y361402D01*
X197084Y361357D01*
X196981Y361309D01*
X196880Y361258D01*
X196781Y361203D01*
X196684Y361145D01*
X196589Y361083D01*
X196496Y361018D01*
X196406Y360950D01*
X196318Y360879D01*
X196232Y360804D01*
X196149Y360727D01*
X196069Y360647D01*
X195992Y360564D01*
X195917Y360478D01*
X195846Y360390D01*
X195778Y360300D01*
X195713Y360207D01*
X195651Y360112D01*
X195593Y360015D01*
X195538Y359916D01*
X195487Y359815D01*
X195439Y359712D01*
X195394Y359608D01*
X195354Y359502D01*
X195317Y359395D01*
X195284Y359287D01*
X195254Y359177D01*
X195229Y359067D01*
X195207Y358956D01*
X195190Y358844D01*
X195176Y358731D01*
X195166Y358618D01*
X195160Y358505D01*
X195158Y358392D01*
X195158Y355146D01*
X280556Y478904D02*
X282151Y480021D01*
X280556Y478904D02*
X284279Y473587D01*
X287470Y475821D01*
X287469Y475821D02*
X287549Y475880D01*
X287627Y475942D01*
X287703Y476006D01*
X287776Y476074D01*
X287847Y476144D01*
X287914Y476217D01*
X287979Y476292D01*
X288041Y476370D01*
X288100Y476450D01*
X288156Y476532D01*
X288209Y476617D01*
X288258Y476703D01*
X288304Y476791D01*
X288347Y476881D01*
X288386Y476972D01*
X288421Y477065D01*
X288453Y477159D01*
X288482Y477255D01*
X288506Y477351D01*
X288527Y477448D01*
X288545Y477546D01*
X288558Y477645D01*
X288568Y477744D01*
X288574Y477843D01*
X288576Y477942D01*
X288574Y478042D01*
X288569Y478141D01*
X288559Y478240D01*
X288546Y478339D01*
X288530Y478437D01*
X288509Y478534D01*
X288485Y478631D01*
X288457Y478726D01*
X288425Y478820D01*
X288390Y478913D01*
X288351Y479005D01*
X288309Y479095D01*
X288263Y479183D01*
X288214Y479270D01*
X288162Y479354D01*
X288107Y479437D01*
X284384Y484754D01*
X284325Y484834D01*
X284263Y484912D01*
X284199Y484988D01*
X284131Y485061D01*
X284061Y485132D01*
X283988Y485199D01*
X283913Y485264D01*
X283835Y485326D01*
X283755Y485385D01*
X283673Y485441D01*
X283588Y485494D01*
X283502Y485543D01*
X283414Y485589D01*
X283324Y485632D01*
X283233Y485671D01*
X283140Y485706D01*
X283046Y485738D01*
X282950Y485767D01*
X282854Y485791D01*
X282757Y485812D01*
X282659Y485830D01*
X282560Y485843D01*
X282461Y485853D01*
X282362Y485859D01*
X282263Y485861D01*
X282163Y485859D01*
X282064Y485854D01*
X281965Y485845D01*
X281866Y485831D01*
X281768Y485815D01*
X281671Y485794D01*
X281574Y485770D01*
X281479Y485742D01*
X281385Y485710D01*
X281292Y485675D01*
X281200Y485636D01*
X281110Y485594D01*
X281022Y485548D01*
X280935Y485499D01*
X280851Y485447D01*
X280768Y485392D01*
X277578Y483158D01*
X272908Y479888D02*
X279609Y470317D01*
X274292Y466594D02*
X272908Y479888D01*
X267591Y476165D02*
X274292Y466594D01*
X269622Y463324D02*
X262921Y472895D01*
X260262Y471033D01*
X260262Y471034D02*
X260171Y470967D01*
X260081Y470898D01*
X259994Y470825D01*
X259910Y470749D01*
X259829Y470670D01*
X259750Y470589D01*
X259674Y470505D01*
X259601Y470418D01*
X259532Y470329D01*
X259465Y470237D01*
X259402Y470143D01*
X259342Y470047D01*
X259285Y469949D01*
X259232Y469849D01*
X259182Y469747D01*
X259136Y469643D01*
X259094Y469538D01*
X259055Y469432D01*
X259020Y469324D01*
X258989Y469215D01*
X258961Y469105D01*
X258938Y468994D01*
X258918Y468883D01*
X258902Y468771D01*
X258890Y468658D01*
X258882Y468545D01*
X258878Y468432D01*
X258878Y468318D01*
X258882Y468205D01*
X258890Y468092D01*
X258902Y467979D01*
X258918Y467867D01*
X258938Y467756D01*
X258961Y467645D01*
X258989Y467535D01*
X259020Y467426D01*
X259055Y467318D01*
X259094Y467212D01*
X259136Y467107D01*
X259182Y467003D01*
X259232Y466901D01*
X259285Y466801D01*
X259342Y466703D01*
X259402Y466607D01*
X259465Y466513D01*
X262444Y462259D01*
X262443Y462259D02*
X262510Y462168D01*
X262579Y462078D01*
X262652Y461991D01*
X262728Y461907D01*
X262807Y461826D01*
X262888Y461747D01*
X262972Y461671D01*
X263059Y461598D01*
X263149Y461529D01*
X263240Y461462D01*
X263334Y461399D01*
X263430Y461339D01*
X263528Y461282D01*
X263628Y461229D01*
X263730Y461179D01*
X263834Y461133D01*
X263939Y461091D01*
X264045Y461052D01*
X264153Y461017D01*
X264262Y460986D01*
X264372Y460958D01*
X264483Y460935D01*
X264594Y460915D01*
X264706Y460899D01*
X264819Y460887D01*
X264932Y460879D01*
X265045Y460875D01*
X265159Y460875D01*
X265272Y460879D01*
X265385Y460887D01*
X265498Y460899D01*
X265610Y460915D01*
X265721Y460935D01*
X265832Y460958D01*
X265942Y460986D01*
X266051Y461017D01*
X266159Y461052D01*
X266265Y461091D01*
X266370Y461133D01*
X266474Y461179D01*
X266576Y461229D01*
X266676Y461282D01*
X266774Y461339D01*
X266870Y461399D01*
X266964Y461462D01*
X269622Y463324D01*
D10*
X455024Y433907D02*
X455024Y416127D01*
X455024Y433907D02*
X450085Y433907D01*
X449945Y433905D01*
X449806Y433899D01*
X449666Y433889D01*
X449527Y433875D01*
X449388Y433858D01*
X449250Y433836D01*
X449113Y433810D01*
X448976Y433781D01*
X448840Y433748D01*
X448706Y433711D01*
X448572Y433670D01*
X448440Y433625D01*
X448308Y433576D01*
X448179Y433524D01*
X448051Y433469D01*
X447924Y433409D01*
X447799Y433346D01*
X447676Y433280D01*
X447555Y433210D01*
X447436Y433137D01*
X447319Y433060D01*
X447205Y432980D01*
X447092Y432897D01*
X446982Y432811D01*
X446875Y432721D01*
X446770Y432629D01*
X446668Y432534D01*
X446568Y432436D01*
X446471Y432335D01*
X446377Y432231D01*
X446287Y432125D01*
X446199Y432016D01*
X446114Y431905D01*
X446033Y431791D01*
X445954Y431676D01*
X445879Y431558D01*
X445808Y431438D01*
X445740Y431315D01*
X445675Y431192D01*
X445614Y431066D01*
X445556Y430938D01*
X445502Y430810D01*
X445452Y430679D01*
X445405Y430547D01*
X445362Y430414D01*
X445323Y430280D01*
X445288Y430145D01*
X445257Y430009D01*
X445229Y429871D01*
X445206Y429734D01*
X445186Y429595D01*
X445170Y429456D01*
X445158Y429317D01*
X445150Y429178D01*
X445146Y429038D01*
X445146Y428898D01*
X445150Y428758D01*
X445158Y428619D01*
X445170Y428480D01*
X445186Y428341D01*
X445206Y428202D01*
X445229Y428065D01*
X445257Y427927D01*
X445288Y427791D01*
X445323Y427656D01*
X445362Y427522D01*
X445405Y427389D01*
X445452Y427257D01*
X445502Y427126D01*
X445556Y426998D01*
X445614Y426870D01*
X445675Y426744D01*
X445740Y426621D01*
X445808Y426499D01*
X445879Y426378D01*
X445954Y426260D01*
X446033Y426145D01*
X446114Y426031D01*
X446199Y425920D01*
X446287Y425811D01*
X446377Y425705D01*
X446471Y425601D01*
X446568Y425500D01*
X446668Y425402D01*
X446770Y425307D01*
X446875Y425215D01*
X446982Y425125D01*
X447092Y425039D01*
X447205Y424956D01*
X447319Y424876D01*
X447436Y424799D01*
X447555Y424726D01*
X447676Y424656D01*
X447799Y424590D01*
X447924Y424527D01*
X448051Y424467D01*
X448179Y424412D01*
X448308Y424360D01*
X448440Y424311D01*
X448572Y424266D01*
X448706Y424225D01*
X448840Y424188D01*
X448976Y424155D01*
X449113Y424126D01*
X449250Y424100D01*
X449388Y424078D01*
X449527Y424061D01*
X449666Y424047D01*
X449806Y424037D01*
X449945Y424031D01*
X450085Y424029D01*
X455024Y424029D01*
X439029Y429956D02*
X434090Y433907D01*
X434090Y416127D01*
X429152Y416127D02*
X439029Y416127D01*
X476772Y308379D02*
X476772Y290599D01*
X476772Y308379D02*
X471833Y308379D01*
X471693Y308377D01*
X471554Y308371D01*
X471414Y308361D01*
X471275Y308347D01*
X471136Y308330D01*
X470998Y308308D01*
X470861Y308282D01*
X470724Y308253D01*
X470588Y308220D01*
X470454Y308183D01*
X470320Y308142D01*
X470188Y308097D01*
X470056Y308048D01*
X469927Y307996D01*
X469799Y307941D01*
X469672Y307881D01*
X469547Y307818D01*
X469424Y307752D01*
X469303Y307682D01*
X469184Y307609D01*
X469067Y307532D01*
X468953Y307452D01*
X468840Y307369D01*
X468730Y307283D01*
X468623Y307193D01*
X468518Y307101D01*
X468416Y307006D01*
X468316Y306908D01*
X468219Y306807D01*
X468125Y306703D01*
X468035Y306597D01*
X467947Y306488D01*
X467862Y306377D01*
X467781Y306263D01*
X467702Y306148D01*
X467627Y306030D01*
X467556Y305910D01*
X467488Y305787D01*
X467423Y305664D01*
X467362Y305538D01*
X467304Y305410D01*
X467250Y305282D01*
X467200Y305151D01*
X467153Y305019D01*
X467110Y304886D01*
X467071Y304752D01*
X467036Y304617D01*
X467005Y304481D01*
X466977Y304343D01*
X466954Y304206D01*
X466934Y304067D01*
X466918Y303928D01*
X466906Y303789D01*
X466898Y303650D01*
X466894Y303510D01*
X466894Y303370D01*
X466898Y303230D01*
X466906Y303091D01*
X466918Y302952D01*
X466934Y302813D01*
X466954Y302674D01*
X466977Y302537D01*
X467005Y302399D01*
X467036Y302263D01*
X467071Y302128D01*
X467110Y301994D01*
X467153Y301861D01*
X467200Y301729D01*
X467250Y301598D01*
X467304Y301470D01*
X467362Y301342D01*
X467423Y301216D01*
X467488Y301093D01*
X467556Y300971D01*
X467627Y300850D01*
X467702Y300732D01*
X467781Y300617D01*
X467862Y300503D01*
X467947Y300392D01*
X468035Y300283D01*
X468125Y300177D01*
X468219Y300073D01*
X468316Y299972D01*
X468416Y299874D01*
X468518Y299779D01*
X468623Y299687D01*
X468730Y299597D01*
X468840Y299511D01*
X468953Y299428D01*
X469067Y299348D01*
X469184Y299271D01*
X469303Y299198D01*
X469424Y299128D01*
X469547Y299062D01*
X469672Y298999D01*
X469799Y298939D01*
X469927Y298884D01*
X470056Y298832D01*
X470188Y298783D01*
X470320Y298738D01*
X470454Y298697D01*
X470588Y298660D01*
X470724Y298627D01*
X470861Y298598D01*
X470998Y298572D01*
X471136Y298550D01*
X471275Y298533D01*
X471414Y298519D01*
X471554Y298509D01*
X471693Y298503D01*
X471833Y298501D01*
X476772Y298501D01*
X455344Y308379D02*
X455212Y308377D01*
X455081Y308371D01*
X454949Y308361D01*
X454818Y308348D01*
X454688Y308330D01*
X454558Y308309D01*
X454428Y308284D01*
X454300Y308255D01*
X454172Y308222D01*
X454046Y308185D01*
X453920Y308145D01*
X453796Y308101D01*
X453673Y308053D01*
X453552Y308002D01*
X453432Y307947D01*
X453314Y307889D01*
X453198Y307827D01*
X453084Y307761D01*
X452971Y307693D01*
X452861Y307621D01*
X452753Y307546D01*
X452647Y307467D01*
X452543Y307386D01*
X452442Y307301D01*
X452344Y307214D01*
X452248Y307123D01*
X452155Y307030D01*
X452064Y306934D01*
X451977Y306836D01*
X451892Y306735D01*
X451811Y306631D01*
X451732Y306525D01*
X451657Y306417D01*
X451585Y306307D01*
X451517Y306194D01*
X451451Y306080D01*
X451389Y305964D01*
X451331Y305846D01*
X451276Y305726D01*
X451225Y305605D01*
X451177Y305482D01*
X451133Y305358D01*
X451093Y305232D01*
X451056Y305106D01*
X451023Y304978D01*
X450994Y304850D01*
X450969Y304720D01*
X450948Y304590D01*
X450930Y304460D01*
X450917Y304329D01*
X450907Y304197D01*
X450901Y304066D01*
X450899Y303934D01*
X455344Y308379D02*
X455494Y308377D01*
X455643Y308371D01*
X455792Y308361D01*
X455941Y308348D01*
X456090Y308330D01*
X456238Y308309D01*
X456386Y308283D01*
X456532Y308254D01*
X456678Y308221D01*
X456823Y308184D01*
X456967Y308143D01*
X457110Y308099D01*
X457252Y308051D01*
X457392Y307999D01*
X457531Y307944D01*
X457669Y307885D01*
X457804Y307822D01*
X457939Y307756D01*
X458071Y307686D01*
X458201Y307613D01*
X458330Y307536D01*
X458457Y307456D01*
X458581Y307373D01*
X458703Y307287D01*
X458823Y307197D01*
X458940Y307104D01*
X459055Y307009D01*
X459168Y306910D01*
X459278Y306808D01*
X459385Y306704D01*
X459489Y306597D01*
X459591Y306487D01*
X459689Y306374D01*
X459785Y306259D01*
X459877Y306141D01*
X459967Y306021D01*
X460053Y305899D01*
X460136Y305775D01*
X460216Y305648D01*
X460292Y305520D01*
X460365Y305389D01*
X460435Y305256D01*
X460501Y305122D01*
X460563Y304986D01*
X460622Y304849D01*
X460678Y304710D01*
X460729Y304569D01*
X460777Y304428D01*
X452381Y300477D02*
X452285Y300570D01*
X452193Y300666D01*
X452103Y300765D01*
X452016Y300866D01*
X451932Y300969D01*
X451850Y301074D01*
X451772Y301182D01*
X451697Y301292D01*
X451624Y301404D01*
X451555Y301518D01*
X451489Y301634D01*
X451427Y301752D01*
X451368Y301871D01*
X451312Y301992D01*
X451259Y302115D01*
X451210Y302239D01*
X451165Y302364D01*
X451122Y302491D01*
X451084Y302618D01*
X451049Y302747D01*
X451018Y302876D01*
X450990Y303007D01*
X450966Y303138D01*
X450945Y303270D01*
X450929Y303402D01*
X450916Y303535D01*
X450906Y303668D01*
X450901Y303801D01*
X450899Y303934D01*
X452381Y300477D02*
X460777Y290599D01*
X450899Y290599D01*
X361582Y232751D02*
X361582Y214971D01*
X361582Y232751D02*
X356644Y232751D01*
X356504Y232749D01*
X356365Y232743D01*
X356225Y232733D01*
X356086Y232719D01*
X355947Y232702D01*
X355809Y232680D01*
X355672Y232654D01*
X355535Y232625D01*
X355399Y232592D01*
X355265Y232555D01*
X355131Y232514D01*
X354999Y232469D01*
X354867Y232420D01*
X354738Y232368D01*
X354610Y232313D01*
X354483Y232253D01*
X354358Y232190D01*
X354235Y232124D01*
X354114Y232054D01*
X353995Y231981D01*
X353878Y231904D01*
X353764Y231824D01*
X353651Y231741D01*
X353541Y231655D01*
X353434Y231565D01*
X353329Y231473D01*
X353227Y231378D01*
X353127Y231280D01*
X353030Y231179D01*
X352936Y231075D01*
X352846Y230969D01*
X352758Y230860D01*
X352673Y230749D01*
X352592Y230635D01*
X352513Y230520D01*
X352438Y230402D01*
X352367Y230282D01*
X352299Y230159D01*
X352234Y230036D01*
X352173Y229910D01*
X352115Y229782D01*
X352061Y229654D01*
X352011Y229523D01*
X351964Y229391D01*
X351921Y229258D01*
X351882Y229124D01*
X351847Y228989D01*
X351816Y228853D01*
X351788Y228715D01*
X351765Y228578D01*
X351745Y228439D01*
X351729Y228300D01*
X351717Y228161D01*
X351709Y228022D01*
X351705Y227882D01*
X351705Y227742D01*
X351709Y227602D01*
X351717Y227463D01*
X351729Y227324D01*
X351745Y227185D01*
X351765Y227046D01*
X351788Y226909D01*
X351816Y226771D01*
X351847Y226635D01*
X351882Y226500D01*
X351921Y226366D01*
X351964Y226233D01*
X352011Y226101D01*
X352061Y225970D01*
X352115Y225842D01*
X352173Y225714D01*
X352234Y225588D01*
X352299Y225465D01*
X352367Y225342D01*
X352438Y225222D01*
X352513Y225104D01*
X352592Y224989D01*
X352673Y224875D01*
X352758Y224764D01*
X352846Y224655D01*
X352936Y224549D01*
X353030Y224445D01*
X353127Y224344D01*
X353227Y224246D01*
X353329Y224151D01*
X353434Y224059D01*
X353541Y223969D01*
X353651Y223883D01*
X353764Y223800D01*
X353878Y223720D01*
X353995Y223643D01*
X354114Y223570D01*
X354235Y223500D01*
X354358Y223434D01*
X354483Y223371D01*
X354610Y223311D01*
X354738Y223256D01*
X354867Y223204D01*
X354999Y223155D01*
X355131Y223110D01*
X355265Y223069D01*
X355399Y223032D01*
X355535Y222999D01*
X355672Y222970D01*
X355809Y222944D01*
X355947Y222922D01*
X356086Y222905D01*
X356225Y222891D01*
X356365Y222881D01*
X356504Y222875D01*
X356644Y222873D01*
X361582Y222873D01*
X345587Y214971D02*
X340649Y214971D01*
X340509Y214973D01*
X340370Y214979D01*
X340230Y214989D01*
X340091Y215003D01*
X339952Y215020D01*
X339814Y215042D01*
X339677Y215068D01*
X339540Y215097D01*
X339404Y215130D01*
X339270Y215167D01*
X339136Y215208D01*
X339004Y215253D01*
X338872Y215302D01*
X338743Y215354D01*
X338615Y215409D01*
X338488Y215469D01*
X338363Y215532D01*
X338240Y215598D01*
X338119Y215668D01*
X338000Y215741D01*
X337883Y215818D01*
X337769Y215898D01*
X337656Y215981D01*
X337546Y216067D01*
X337439Y216157D01*
X337334Y216249D01*
X337232Y216344D01*
X337132Y216442D01*
X337035Y216543D01*
X336941Y216647D01*
X336851Y216753D01*
X336763Y216862D01*
X336678Y216973D01*
X336597Y217087D01*
X336518Y217202D01*
X336443Y217320D01*
X336372Y217440D01*
X336304Y217563D01*
X336239Y217686D01*
X336178Y217812D01*
X336120Y217940D01*
X336066Y218068D01*
X336016Y218199D01*
X335969Y218331D01*
X335926Y218464D01*
X335887Y218598D01*
X335852Y218733D01*
X335821Y218869D01*
X335793Y219007D01*
X335770Y219144D01*
X335750Y219283D01*
X335734Y219422D01*
X335722Y219561D01*
X335714Y219700D01*
X335710Y219840D01*
X335710Y219980D01*
X335714Y220120D01*
X335722Y220259D01*
X335734Y220398D01*
X335750Y220537D01*
X335770Y220676D01*
X335793Y220813D01*
X335821Y220951D01*
X335852Y221087D01*
X335887Y221222D01*
X335926Y221356D01*
X335969Y221489D01*
X336016Y221621D01*
X336066Y221752D01*
X336120Y221880D01*
X336178Y222008D01*
X336239Y222134D01*
X336304Y222257D01*
X336372Y222380D01*
X336443Y222500D01*
X336518Y222618D01*
X336597Y222733D01*
X336678Y222847D01*
X336763Y222958D01*
X336851Y223067D01*
X336941Y223173D01*
X337035Y223277D01*
X337132Y223378D01*
X337232Y223476D01*
X337334Y223571D01*
X337439Y223663D01*
X337546Y223753D01*
X337656Y223839D01*
X337769Y223922D01*
X337883Y224002D01*
X338000Y224079D01*
X338119Y224152D01*
X338240Y224222D01*
X338363Y224288D01*
X338488Y224351D01*
X338615Y224411D01*
X338743Y224466D01*
X338872Y224518D01*
X339004Y224567D01*
X339136Y224612D01*
X339270Y224653D01*
X339404Y224690D01*
X339540Y224723D01*
X339677Y224752D01*
X339814Y224778D01*
X339952Y224800D01*
X340091Y224817D01*
X340230Y224831D01*
X340370Y224841D01*
X340509Y224847D01*
X340649Y224849D01*
X339661Y232751D02*
X345587Y232751D01*
X339661Y232751D02*
X339537Y232749D01*
X339413Y232743D01*
X339289Y232733D01*
X339166Y232720D01*
X339043Y232702D01*
X338921Y232681D01*
X338799Y232656D01*
X338678Y232627D01*
X338559Y232594D01*
X338440Y232558D01*
X338323Y232517D01*
X338207Y232474D01*
X338092Y232426D01*
X337979Y232375D01*
X337867Y232320D01*
X337758Y232262D01*
X337650Y232201D01*
X337544Y232136D01*
X337440Y232068D01*
X337339Y231996D01*
X337239Y231922D01*
X337143Y231844D01*
X337048Y231764D01*
X336956Y231680D01*
X336867Y231594D01*
X336781Y231505D01*
X336697Y231413D01*
X336617Y231318D01*
X336539Y231222D01*
X336465Y231122D01*
X336393Y231021D01*
X336325Y230917D01*
X336260Y230811D01*
X336199Y230703D01*
X336141Y230594D01*
X336086Y230482D01*
X336035Y230369D01*
X335987Y230254D01*
X335944Y230138D01*
X335903Y230021D01*
X335867Y229902D01*
X335834Y229783D01*
X335805Y229662D01*
X335780Y229540D01*
X335759Y229418D01*
X335741Y229295D01*
X335728Y229172D01*
X335718Y229048D01*
X335712Y228924D01*
X335710Y228800D01*
X335712Y228676D01*
X335718Y228552D01*
X335728Y228428D01*
X335741Y228305D01*
X335759Y228182D01*
X335780Y228060D01*
X335805Y227938D01*
X335834Y227817D01*
X335867Y227698D01*
X335903Y227579D01*
X335944Y227462D01*
X335987Y227346D01*
X336035Y227231D01*
X336086Y227118D01*
X336141Y227006D01*
X336199Y226897D01*
X336260Y226789D01*
X336325Y226683D01*
X336393Y226579D01*
X336465Y226478D01*
X336539Y226378D01*
X336617Y226282D01*
X336697Y226187D01*
X336781Y226095D01*
X336867Y226006D01*
X336956Y225920D01*
X337048Y225836D01*
X337143Y225756D01*
X337239Y225678D01*
X337339Y225604D01*
X337440Y225532D01*
X337544Y225464D01*
X337650Y225399D01*
X337758Y225338D01*
X337867Y225280D01*
X337979Y225225D01*
X338092Y225174D01*
X338207Y225126D01*
X338323Y225083D01*
X338440Y225042D01*
X338559Y225006D01*
X338678Y224973D01*
X338799Y224944D01*
X338921Y224919D01*
X339043Y224898D01*
X339166Y224880D01*
X339289Y224867D01*
X339413Y224857D01*
X339537Y224851D01*
X339661Y224849D01*
X343612Y224849D01*
X258615Y283108D02*
X258615Y300888D01*
X253677Y300888D01*
X253677Y300889D02*
X253537Y300887D01*
X253398Y300881D01*
X253258Y300871D01*
X253119Y300857D01*
X252980Y300840D01*
X252842Y300818D01*
X252705Y300792D01*
X252568Y300763D01*
X252432Y300730D01*
X252298Y300693D01*
X252164Y300652D01*
X252032Y300607D01*
X251900Y300558D01*
X251771Y300506D01*
X251643Y300451D01*
X251516Y300391D01*
X251391Y300328D01*
X251268Y300262D01*
X251147Y300192D01*
X251028Y300119D01*
X250911Y300042D01*
X250797Y299962D01*
X250684Y299879D01*
X250574Y299793D01*
X250467Y299703D01*
X250362Y299611D01*
X250260Y299516D01*
X250160Y299418D01*
X250063Y299317D01*
X249969Y299213D01*
X249879Y299107D01*
X249791Y298998D01*
X249706Y298887D01*
X249625Y298773D01*
X249546Y298658D01*
X249471Y298540D01*
X249400Y298420D01*
X249332Y298297D01*
X249267Y298174D01*
X249206Y298048D01*
X249148Y297920D01*
X249094Y297792D01*
X249044Y297661D01*
X248997Y297529D01*
X248954Y297396D01*
X248915Y297262D01*
X248880Y297127D01*
X248849Y296991D01*
X248821Y296853D01*
X248798Y296716D01*
X248778Y296577D01*
X248762Y296438D01*
X248750Y296299D01*
X248742Y296160D01*
X248738Y296020D01*
X248738Y295880D01*
X248742Y295740D01*
X248750Y295601D01*
X248762Y295462D01*
X248778Y295323D01*
X248798Y295184D01*
X248821Y295047D01*
X248849Y294909D01*
X248880Y294773D01*
X248915Y294638D01*
X248954Y294504D01*
X248997Y294371D01*
X249044Y294239D01*
X249094Y294108D01*
X249148Y293980D01*
X249206Y293852D01*
X249267Y293726D01*
X249332Y293603D01*
X249400Y293481D01*
X249471Y293360D01*
X249546Y293242D01*
X249625Y293127D01*
X249706Y293013D01*
X249791Y292902D01*
X249879Y292793D01*
X249969Y292687D01*
X250063Y292583D01*
X250160Y292482D01*
X250260Y292384D01*
X250362Y292289D01*
X250467Y292197D01*
X250574Y292107D01*
X250684Y292021D01*
X250797Y291938D01*
X250911Y291858D01*
X251028Y291781D01*
X251147Y291708D01*
X251268Y291638D01*
X251391Y291572D01*
X251516Y291509D01*
X251643Y291449D01*
X251771Y291394D01*
X251900Y291342D01*
X252032Y291293D01*
X252164Y291248D01*
X252298Y291207D01*
X252432Y291170D01*
X252568Y291137D01*
X252705Y291108D01*
X252842Y291082D01*
X252980Y291060D01*
X253119Y291043D01*
X253258Y291029D01*
X253398Y291019D01*
X253537Y291013D01*
X253677Y291011D01*
X258615Y291011D01*
X242620Y287060D02*
X238669Y300888D01*
X242620Y287060D02*
X232743Y287060D01*
X235706Y291011D02*
X235706Y283108D01*
X262271Y408131D02*
X262271Y425911D01*
X257332Y425911D01*
X257192Y425909D01*
X257053Y425903D01*
X256913Y425893D01*
X256774Y425879D01*
X256635Y425862D01*
X256497Y425840D01*
X256360Y425814D01*
X256223Y425785D01*
X256087Y425752D01*
X255953Y425715D01*
X255819Y425674D01*
X255687Y425629D01*
X255555Y425580D01*
X255426Y425528D01*
X255298Y425473D01*
X255171Y425413D01*
X255046Y425350D01*
X254923Y425284D01*
X254802Y425214D01*
X254683Y425141D01*
X254566Y425064D01*
X254452Y424984D01*
X254339Y424901D01*
X254229Y424815D01*
X254122Y424725D01*
X254017Y424633D01*
X253915Y424538D01*
X253815Y424440D01*
X253718Y424339D01*
X253624Y424235D01*
X253534Y424129D01*
X253446Y424020D01*
X253361Y423909D01*
X253280Y423795D01*
X253201Y423680D01*
X253126Y423562D01*
X253055Y423442D01*
X252987Y423319D01*
X252922Y423196D01*
X252861Y423070D01*
X252803Y422942D01*
X252749Y422814D01*
X252699Y422683D01*
X252652Y422551D01*
X252609Y422418D01*
X252570Y422284D01*
X252535Y422149D01*
X252504Y422013D01*
X252476Y421875D01*
X252453Y421738D01*
X252433Y421599D01*
X252417Y421460D01*
X252405Y421321D01*
X252397Y421182D01*
X252393Y421042D01*
X252393Y420902D01*
X252397Y420762D01*
X252405Y420623D01*
X252417Y420484D01*
X252433Y420345D01*
X252453Y420206D01*
X252476Y420069D01*
X252504Y419931D01*
X252535Y419795D01*
X252570Y419660D01*
X252609Y419526D01*
X252652Y419393D01*
X252699Y419261D01*
X252749Y419130D01*
X252803Y419002D01*
X252861Y418874D01*
X252922Y418748D01*
X252987Y418625D01*
X253055Y418503D01*
X253126Y418382D01*
X253201Y418264D01*
X253280Y418149D01*
X253361Y418035D01*
X253446Y417924D01*
X253534Y417815D01*
X253624Y417709D01*
X253718Y417605D01*
X253815Y417504D01*
X253915Y417406D01*
X254017Y417311D01*
X254122Y417219D01*
X254229Y417129D01*
X254339Y417043D01*
X254452Y416960D01*
X254566Y416880D01*
X254683Y416803D01*
X254802Y416730D01*
X254923Y416660D01*
X255046Y416594D01*
X255171Y416531D01*
X255298Y416471D01*
X255426Y416416D01*
X255555Y416364D01*
X255687Y416315D01*
X255819Y416270D01*
X255953Y416229D01*
X256087Y416192D01*
X256223Y416159D01*
X256360Y416130D01*
X256497Y416104D01*
X256635Y416082D01*
X256774Y416065D01*
X256913Y416051D01*
X257053Y416041D01*
X257192Y416035D01*
X257332Y416033D01*
X262271Y416033D01*
X246276Y408131D02*
X240349Y408131D01*
X240225Y408133D01*
X240101Y408139D01*
X239977Y408149D01*
X239854Y408162D01*
X239731Y408180D01*
X239609Y408201D01*
X239487Y408226D01*
X239366Y408255D01*
X239247Y408288D01*
X239128Y408324D01*
X239011Y408365D01*
X238895Y408408D01*
X238780Y408456D01*
X238667Y408507D01*
X238555Y408562D01*
X238446Y408620D01*
X238338Y408681D01*
X238232Y408746D01*
X238128Y408814D01*
X238027Y408886D01*
X237927Y408960D01*
X237831Y409038D01*
X237736Y409118D01*
X237644Y409202D01*
X237555Y409288D01*
X237469Y409377D01*
X237385Y409469D01*
X237305Y409564D01*
X237227Y409660D01*
X237153Y409760D01*
X237081Y409861D01*
X237013Y409965D01*
X236948Y410071D01*
X236887Y410179D01*
X236829Y410288D01*
X236774Y410400D01*
X236723Y410513D01*
X236675Y410628D01*
X236632Y410744D01*
X236591Y410861D01*
X236555Y410980D01*
X236522Y411099D01*
X236493Y411220D01*
X236468Y411342D01*
X236447Y411464D01*
X236429Y411587D01*
X236416Y411710D01*
X236406Y411834D01*
X236400Y411958D01*
X236398Y412082D01*
X236398Y414058D01*
X236400Y414182D01*
X236406Y414306D01*
X236416Y414430D01*
X236429Y414553D01*
X236447Y414676D01*
X236468Y414798D01*
X236493Y414920D01*
X236522Y415041D01*
X236555Y415160D01*
X236591Y415279D01*
X236632Y415396D01*
X236675Y415512D01*
X236723Y415627D01*
X236774Y415740D01*
X236829Y415852D01*
X236887Y415961D01*
X236948Y416069D01*
X237013Y416175D01*
X237081Y416279D01*
X237153Y416380D01*
X237227Y416480D01*
X237305Y416576D01*
X237385Y416671D01*
X237469Y416763D01*
X237555Y416852D01*
X237644Y416938D01*
X237736Y417022D01*
X237831Y417102D01*
X237927Y417180D01*
X238027Y417254D01*
X238128Y417326D01*
X238232Y417394D01*
X238338Y417459D01*
X238446Y417520D01*
X238555Y417578D01*
X238667Y417633D01*
X238780Y417684D01*
X238895Y417732D01*
X239011Y417775D01*
X239128Y417816D01*
X239247Y417852D01*
X239366Y417885D01*
X239487Y417914D01*
X239609Y417939D01*
X239731Y417960D01*
X239854Y417978D01*
X239977Y417991D01*
X240101Y418001D01*
X240225Y418007D01*
X240349Y418009D01*
X246276Y418009D01*
X246276Y425911D01*
X236398Y425911D01*
X360036Y459355D02*
X360036Y477135D01*
X355097Y477135D01*
X354957Y477133D01*
X354818Y477127D01*
X354678Y477117D01*
X354539Y477103D01*
X354400Y477086D01*
X354262Y477064D01*
X354125Y477038D01*
X353988Y477009D01*
X353852Y476976D01*
X353718Y476939D01*
X353584Y476898D01*
X353452Y476853D01*
X353320Y476804D01*
X353191Y476752D01*
X353063Y476697D01*
X352936Y476637D01*
X352811Y476574D01*
X352688Y476508D01*
X352567Y476438D01*
X352448Y476365D01*
X352331Y476288D01*
X352217Y476208D01*
X352104Y476125D01*
X351994Y476039D01*
X351887Y475949D01*
X351782Y475857D01*
X351680Y475762D01*
X351580Y475664D01*
X351483Y475563D01*
X351389Y475459D01*
X351299Y475353D01*
X351211Y475244D01*
X351126Y475133D01*
X351045Y475019D01*
X350966Y474904D01*
X350891Y474786D01*
X350820Y474666D01*
X350752Y474543D01*
X350687Y474420D01*
X350626Y474294D01*
X350568Y474166D01*
X350514Y474038D01*
X350464Y473907D01*
X350417Y473775D01*
X350374Y473642D01*
X350335Y473508D01*
X350300Y473373D01*
X350269Y473237D01*
X350241Y473099D01*
X350218Y472962D01*
X350198Y472823D01*
X350182Y472684D01*
X350170Y472545D01*
X350162Y472406D01*
X350158Y472266D01*
X350158Y472126D01*
X350162Y471986D01*
X350170Y471847D01*
X350182Y471708D01*
X350198Y471569D01*
X350218Y471430D01*
X350241Y471293D01*
X350269Y471155D01*
X350300Y471019D01*
X350335Y470884D01*
X350374Y470750D01*
X350417Y470617D01*
X350464Y470485D01*
X350514Y470354D01*
X350568Y470226D01*
X350626Y470098D01*
X350687Y469972D01*
X350752Y469849D01*
X350820Y469727D01*
X350891Y469606D01*
X350966Y469488D01*
X351045Y469373D01*
X351126Y469259D01*
X351211Y469148D01*
X351299Y469039D01*
X351389Y468933D01*
X351483Y468829D01*
X351580Y468728D01*
X351680Y468630D01*
X351782Y468535D01*
X351887Y468443D01*
X351994Y468353D01*
X352104Y468267D01*
X352217Y468184D01*
X352331Y468104D01*
X352448Y468027D01*
X352567Y467954D01*
X352688Y467884D01*
X352811Y467818D01*
X352936Y467755D01*
X353063Y467695D01*
X353191Y467640D01*
X353320Y467588D01*
X353452Y467539D01*
X353584Y467494D01*
X353718Y467453D01*
X353852Y467416D01*
X353988Y467383D01*
X354125Y467354D01*
X354262Y467328D01*
X354400Y467306D01*
X354539Y467289D01*
X354678Y467275D01*
X354818Y467265D01*
X354957Y467259D01*
X355097Y467257D01*
X360036Y467257D01*
X344041Y469232D02*
X338114Y469232D01*
X337990Y469230D01*
X337866Y469224D01*
X337742Y469214D01*
X337619Y469201D01*
X337496Y469183D01*
X337374Y469162D01*
X337252Y469137D01*
X337131Y469108D01*
X337012Y469075D01*
X336893Y469039D01*
X336776Y468998D01*
X336660Y468955D01*
X336545Y468907D01*
X336432Y468856D01*
X336320Y468801D01*
X336211Y468743D01*
X336103Y468682D01*
X335997Y468617D01*
X335893Y468549D01*
X335792Y468477D01*
X335692Y468403D01*
X335596Y468325D01*
X335501Y468245D01*
X335409Y468161D01*
X335320Y468075D01*
X335234Y467986D01*
X335150Y467894D01*
X335070Y467799D01*
X334992Y467703D01*
X334918Y467603D01*
X334846Y467502D01*
X334778Y467398D01*
X334713Y467292D01*
X334652Y467184D01*
X334594Y467075D01*
X334539Y466963D01*
X334488Y466850D01*
X334440Y466735D01*
X334397Y466619D01*
X334356Y466502D01*
X334320Y466383D01*
X334287Y466264D01*
X334258Y466143D01*
X334233Y466021D01*
X334212Y465899D01*
X334194Y465776D01*
X334181Y465653D01*
X334171Y465529D01*
X334165Y465405D01*
X334163Y465281D01*
X334163Y464293D01*
X334165Y464153D01*
X334171Y464014D01*
X334181Y463874D01*
X334195Y463735D01*
X334212Y463596D01*
X334234Y463458D01*
X334260Y463321D01*
X334289Y463184D01*
X334322Y463048D01*
X334359Y462914D01*
X334400Y462780D01*
X334445Y462648D01*
X334494Y462516D01*
X334546Y462387D01*
X334601Y462259D01*
X334661Y462132D01*
X334724Y462007D01*
X334790Y461884D01*
X334860Y461763D01*
X334933Y461644D01*
X335010Y461527D01*
X335090Y461413D01*
X335173Y461300D01*
X335259Y461190D01*
X335349Y461083D01*
X335441Y460978D01*
X335536Y460876D01*
X335634Y460776D01*
X335735Y460679D01*
X335839Y460585D01*
X335945Y460495D01*
X336054Y460407D01*
X336165Y460322D01*
X336279Y460241D01*
X336394Y460162D01*
X336512Y460087D01*
X336633Y460016D01*
X336755Y459948D01*
X336878Y459883D01*
X337004Y459822D01*
X337132Y459764D01*
X337260Y459710D01*
X337391Y459660D01*
X337523Y459613D01*
X337656Y459570D01*
X337790Y459531D01*
X337925Y459496D01*
X338061Y459465D01*
X338199Y459437D01*
X338336Y459414D01*
X338475Y459394D01*
X338614Y459378D01*
X338753Y459366D01*
X338892Y459358D01*
X339032Y459354D01*
X339172Y459354D01*
X339312Y459358D01*
X339451Y459366D01*
X339590Y459378D01*
X339729Y459394D01*
X339868Y459414D01*
X340005Y459437D01*
X340143Y459465D01*
X340279Y459496D01*
X340414Y459531D01*
X340548Y459570D01*
X340681Y459613D01*
X340813Y459660D01*
X340944Y459710D01*
X341072Y459764D01*
X341200Y459822D01*
X341326Y459883D01*
X341449Y459948D01*
X341572Y460016D01*
X341692Y460087D01*
X341810Y460162D01*
X341925Y460241D01*
X342039Y460322D01*
X342150Y460407D01*
X342259Y460495D01*
X342365Y460585D01*
X342469Y460679D01*
X342570Y460776D01*
X342668Y460876D01*
X342763Y460978D01*
X342855Y461083D01*
X342945Y461190D01*
X343031Y461300D01*
X343114Y461413D01*
X343194Y461527D01*
X343271Y461644D01*
X343344Y461763D01*
X343414Y461884D01*
X343480Y462007D01*
X343543Y462132D01*
X343603Y462259D01*
X343658Y462387D01*
X343710Y462516D01*
X343759Y462648D01*
X343804Y462780D01*
X343845Y462914D01*
X343882Y463048D01*
X343915Y463184D01*
X343944Y463321D01*
X343970Y463458D01*
X343992Y463596D01*
X344009Y463735D01*
X344023Y463874D01*
X344033Y464014D01*
X344039Y464153D01*
X344041Y464293D01*
X344041Y469232D01*
X344040Y469232D02*
X344038Y469426D01*
X344030Y469620D01*
X344019Y469813D01*
X344002Y470007D01*
X343981Y470199D01*
X343954Y470391D01*
X343924Y470583D01*
X343888Y470774D01*
X343848Y470963D01*
X343803Y471152D01*
X343754Y471340D01*
X343700Y471526D01*
X343641Y471711D01*
X343578Y471894D01*
X343511Y472076D01*
X343439Y472256D01*
X343362Y472434D01*
X343281Y472611D01*
X343196Y472785D01*
X343107Y472957D01*
X343013Y473127D01*
X342916Y473294D01*
X342814Y473460D01*
X342708Y473622D01*
X342599Y473782D01*
X342485Y473939D01*
X342368Y474094D01*
X342246Y474245D01*
X342121Y474393D01*
X341993Y474539D01*
X341861Y474681D01*
X341726Y474820D01*
X341587Y474955D01*
X341445Y475087D01*
X341299Y475215D01*
X341151Y475340D01*
X341000Y475461D01*
X340845Y475579D01*
X340688Y475693D01*
X340528Y475802D01*
X340366Y475908D01*
X340200Y476010D01*
X340033Y476107D01*
X339863Y476201D01*
X339691Y476290D01*
X339517Y476375D01*
X339340Y476456D01*
X339162Y476532D01*
X338982Y476604D01*
X338800Y476672D01*
X338617Y476735D01*
X338432Y476794D01*
X338246Y476848D01*
X338058Y476897D01*
X337869Y476942D01*
X337680Y476982D01*
X337489Y477018D01*
X337298Y477048D01*
X337105Y477075D01*
X336913Y477096D01*
X336719Y477113D01*
X336526Y477124D01*
X336332Y477132D01*
X336138Y477134D01*
X391935Y271574D02*
X391935Y253794D01*
X391935Y263672D02*
X382057Y263672D01*
X382057Y271574D02*
X382057Y253794D01*
X374626Y262684D02*
X374622Y263034D01*
X374609Y263383D01*
X374588Y263732D01*
X374559Y264081D01*
X374522Y264429D01*
X374476Y264776D01*
X374422Y265121D01*
X374360Y265465D01*
X374289Y265808D01*
X374210Y266149D01*
X374124Y266488D01*
X374029Y266824D01*
X373926Y267159D01*
X373815Y267490D01*
X373697Y267820D01*
X373570Y268146D01*
X373436Y268469D01*
X373294Y268788D01*
X373144Y269105D01*
X373104Y269218D01*
X373060Y269328D01*
X373012Y269438D01*
X372961Y269545D01*
X372906Y269651D01*
X372848Y269756D01*
X372786Y269858D01*
X372721Y269958D01*
X372653Y270056D01*
X372582Y270152D01*
X372507Y270245D01*
X372430Y270336D01*
X372350Y270424D01*
X372267Y270509D01*
X372181Y270592D01*
X372092Y270672D01*
X372001Y270749D01*
X371907Y270823D01*
X371811Y270894D01*
X371713Y270962D01*
X371613Y271026D01*
X371510Y271088D01*
X371406Y271145D01*
X371300Y271200D01*
X371192Y271251D01*
X371082Y271298D01*
X370971Y271342D01*
X370859Y271382D01*
X370745Y271418D01*
X370631Y271451D01*
X370515Y271480D01*
X370398Y271505D01*
X370281Y271526D01*
X370163Y271544D01*
X370044Y271557D01*
X369925Y271567D01*
X369806Y271573D01*
X369687Y271575D01*
X369687Y271574D02*
X369568Y271572D01*
X369449Y271566D01*
X369330Y271556D01*
X369211Y271543D01*
X369093Y271525D01*
X368976Y271504D01*
X368859Y271479D01*
X368743Y271450D01*
X368629Y271417D01*
X368515Y271381D01*
X368403Y271341D01*
X368292Y271297D01*
X368182Y271250D01*
X368074Y271199D01*
X367968Y271144D01*
X367864Y271087D01*
X367761Y271025D01*
X367661Y270961D01*
X367563Y270893D01*
X367467Y270822D01*
X367373Y270748D01*
X367282Y270671D01*
X367193Y270591D01*
X367108Y270508D01*
X367024Y270423D01*
X366944Y270335D01*
X366867Y270244D01*
X366792Y270151D01*
X366721Y270055D01*
X366653Y269957D01*
X366588Y269857D01*
X366526Y269755D01*
X366468Y269650D01*
X366413Y269545D01*
X366362Y269437D01*
X366314Y269327D01*
X366270Y269217D01*
X366230Y269104D01*
X366230Y269105D02*
X366080Y268788D01*
X365938Y268469D01*
X365804Y268146D01*
X365677Y267820D01*
X365559Y267490D01*
X365448Y267159D01*
X365345Y266824D01*
X365250Y266488D01*
X365164Y266149D01*
X365085Y265808D01*
X365014Y265465D01*
X364952Y265121D01*
X364898Y264776D01*
X364852Y264429D01*
X364815Y264081D01*
X364786Y263732D01*
X364765Y263383D01*
X364752Y263034D01*
X364748Y262684D01*
X374626Y262684D02*
X374622Y262334D01*
X374609Y261985D01*
X374588Y261636D01*
X374559Y261287D01*
X374522Y260939D01*
X374476Y260592D01*
X374422Y260247D01*
X374360Y259903D01*
X374289Y259560D01*
X374210Y259219D01*
X374124Y258880D01*
X374029Y258544D01*
X373926Y258209D01*
X373815Y257878D01*
X373697Y257549D01*
X373570Y257222D01*
X373436Y256899D01*
X373294Y256580D01*
X373144Y256264D01*
X373104Y256151D01*
X373060Y256041D01*
X373012Y255931D01*
X372961Y255824D01*
X372906Y255718D01*
X372848Y255613D01*
X372786Y255511D01*
X372721Y255411D01*
X372653Y255313D01*
X372582Y255217D01*
X372507Y255124D01*
X372430Y255033D01*
X372350Y254945D01*
X372267Y254860D01*
X372181Y254777D01*
X372092Y254697D01*
X372001Y254620D01*
X371907Y254546D01*
X371811Y254475D01*
X371713Y254407D01*
X371613Y254343D01*
X371510Y254281D01*
X371406Y254224D01*
X371300Y254169D01*
X371192Y254118D01*
X371082Y254071D01*
X370971Y254027D01*
X370859Y253987D01*
X370745Y253951D01*
X370631Y253918D01*
X370515Y253889D01*
X370398Y253864D01*
X370281Y253843D01*
X370163Y253825D01*
X370044Y253812D01*
X369925Y253802D01*
X369806Y253796D01*
X369687Y253794D01*
X366230Y256264D02*
X366080Y256580D01*
X365938Y256899D01*
X365804Y257222D01*
X365677Y257549D01*
X365559Y257878D01*
X365448Y258209D01*
X365345Y258544D01*
X365250Y258880D01*
X365164Y259219D01*
X365085Y259560D01*
X365014Y259903D01*
X364952Y260247D01*
X364898Y260592D01*
X364852Y260939D01*
X364815Y261287D01*
X364786Y261636D01*
X364765Y261985D01*
X364752Y262334D01*
X364748Y262684D01*
X366230Y256264D02*
X366270Y256151D01*
X366314Y256041D01*
X366362Y255931D01*
X366413Y255823D01*
X366468Y255717D01*
X366526Y255613D01*
X366588Y255511D01*
X366653Y255411D01*
X366721Y255313D01*
X366792Y255217D01*
X366867Y255124D01*
X366944Y255033D01*
X367024Y254945D01*
X367108Y254860D01*
X367193Y254777D01*
X367282Y254697D01*
X367373Y254620D01*
X367467Y254546D01*
X367563Y254475D01*
X367661Y254407D01*
X367761Y254343D01*
X367864Y254281D01*
X367968Y254223D01*
X368074Y254169D01*
X368182Y254118D01*
X368292Y254071D01*
X368403Y254027D01*
X368515Y253987D01*
X368629Y253951D01*
X368743Y253918D01*
X368859Y253889D01*
X368976Y253864D01*
X369093Y253843D01*
X369211Y253825D01*
X369330Y253812D01*
X369449Y253802D01*
X369568Y253796D01*
X369687Y253794D01*
X373638Y257745D02*
X365736Y267623D01*
X357875Y267623D02*
X352936Y271574D01*
X352936Y253794D01*
X347998Y253794D02*
X357875Y253794D01*
X340481Y253794D02*
X340481Y271574D01*
X335542Y271574D01*
X335402Y271572D01*
X335263Y271566D01*
X335123Y271556D01*
X334984Y271542D01*
X334845Y271525D01*
X334707Y271503D01*
X334570Y271477D01*
X334433Y271448D01*
X334297Y271415D01*
X334163Y271378D01*
X334029Y271337D01*
X333897Y271292D01*
X333765Y271243D01*
X333636Y271191D01*
X333508Y271136D01*
X333381Y271076D01*
X333256Y271013D01*
X333133Y270947D01*
X333012Y270877D01*
X332893Y270804D01*
X332776Y270727D01*
X332662Y270647D01*
X332549Y270564D01*
X332439Y270478D01*
X332332Y270388D01*
X332227Y270296D01*
X332125Y270201D01*
X332025Y270103D01*
X331928Y270002D01*
X331834Y269898D01*
X331744Y269792D01*
X331656Y269683D01*
X331571Y269572D01*
X331490Y269458D01*
X331411Y269343D01*
X331336Y269225D01*
X331265Y269105D01*
X331197Y268982D01*
X331132Y268859D01*
X331071Y268733D01*
X331013Y268605D01*
X330959Y268477D01*
X330909Y268346D01*
X330862Y268214D01*
X330819Y268081D01*
X330780Y267947D01*
X330745Y267812D01*
X330714Y267676D01*
X330686Y267538D01*
X330663Y267401D01*
X330643Y267262D01*
X330627Y267123D01*
X330615Y266984D01*
X330607Y266845D01*
X330603Y266705D01*
X330603Y266565D01*
X330607Y266425D01*
X330615Y266286D01*
X330627Y266147D01*
X330643Y266008D01*
X330663Y265869D01*
X330686Y265732D01*
X330714Y265594D01*
X330745Y265458D01*
X330780Y265323D01*
X330819Y265189D01*
X330862Y265056D01*
X330909Y264924D01*
X330959Y264793D01*
X331013Y264665D01*
X331071Y264537D01*
X331132Y264411D01*
X331197Y264288D01*
X331265Y264166D01*
X331336Y264045D01*
X331411Y263927D01*
X331490Y263812D01*
X331571Y263698D01*
X331656Y263587D01*
X331744Y263478D01*
X331834Y263372D01*
X331928Y263268D01*
X332025Y263167D01*
X332125Y263069D01*
X332227Y262974D01*
X332332Y262882D01*
X332439Y262792D01*
X332549Y262706D01*
X332662Y262623D01*
X332776Y262543D01*
X332893Y262466D01*
X333012Y262393D01*
X333133Y262323D01*
X333256Y262257D01*
X333381Y262194D01*
X333508Y262134D01*
X333636Y262079D01*
X333765Y262027D01*
X333897Y261978D01*
X334029Y261933D01*
X334163Y261892D01*
X334297Y261855D01*
X334433Y261822D01*
X334570Y261793D01*
X334707Y261767D01*
X334845Y261745D01*
X334984Y261728D01*
X335123Y261714D01*
X335263Y261704D01*
X335402Y261698D01*
X335542Y261696D01*
X340481Y261696D01*
X334554Y261696D02*
X330603Y253794D01*
X323816Y262684D02*
X323812Y263034D01*
X323799Y263383D01*
X323778Y263732D01*
X323749Y264081D01*
X323712Y264429D01*
X323666Y264776D01*
X323612Y265121D01*
X323550Y265465D01*
X323479Y265808D01*
X323400Y266149D01*
X323314Y266488D01*
X323219Y266824D01*
X323116Y267159D01*
X323005Y267490D01*
X322887Y267820D01*
X322760Y268146D01*
X322626Y268469D01*
X322484Y268788D01*
X322334Y269105D01*
X322294Y269218D01*
X322250Y269328D01*
X322202Y269438D01*
X322151Y269545D01*
X322096Y269651D01*
X322038Y269756D01*
X321976Y269858D01*
X321911Y269958D01*
X321843Y270056D01*
X321772Y270152D01*
X321697Y270245D01*
X321620Y270336D01*
X321540Y270424D01*
X321457Y270509D01*
X321371Y270592D01*
X321282Y270672D01*
X321191Y270749D01*
X321097Y270823D01*
X321001Y270894D01*
X320903Y270962D01*
X320803Y271026D01*
X320700Y271088D01*
X320596Y271145D01*
X320490Y271200D01*
X320382Y271251D01*
X320272Y271298D01*
X320161Y271342D01*
X320049Y271382D01*
X319935Y271418D01*
X319821Y271451D01*
X319705Y271480D01*
X319588Y271505D01*
X319471Y271526D01*
X319353Y271544D01*
X319234Y271557D01*
X319115Y271567D01*
X318996Y271573D01*
X318877Y271575D01*
X318877Y271574D02*
X318758Y271572D01*
X318639Y271566D01*
X318520Y271556D01*
X318401Y271543D01*
X318283Y271525D01*
X318166Y271504D01*
X318049Y271479D01*
X317933Y271450D01*
X317819Y271417D01*
X317705Y271381D01*
X317593Y271341D01*
X317482Y271297D01*
X317372Y271250D01*
X317264Y271199D01*
X317158Y271144D01*
X317054Y271087D01*
X316951Y271025D01*
X316851Y270961D01*
X316753Y270893D01*
X316657Y270822D01*
X316563Y270748D01*
X316472Y270671D01*
X316383Y270591D01*
X316298Y270508D01*
X316214Y270423D01*
X316134Y270335D01*
X316057Y270244D01*
X315982Y270151D01*
X315911Y270055D01*
X315843Y269957D01*
X315778Y269857D01*
X315716Y269755D01*
X315658Y269650D01*
X315603Y269545D01*
X315552Y269437D01*
X315504Y269327D01*
X315460Y269217D01*
X315420Y269104D01*
X315420Y269105D02*
X315270Y268788D01*
X315128Y268469D01*
X314994Y268146D01*
X314867Y267820D01*
X314749Y267490D01*
X314638Y267159D01*
X314535Y266824D01*
X314440Y266488D01*
X314354Y266149D01*
X314275Y265808D01*
X314204Y265465D01*
X314142Y265121D01*
X314088Y264776D01*
X314042Y264429D01*
X314005Y264081D01*
X313976Y263732D01*
X313955Y263383D01*
X313942Y263034D01*
X313938Y262684D01*
X323816Y262684D02*
X323812Y262334D01*
X323799Y261985D01*
X323778Y261636D01*
X323749Y261287D01*
X323712Y260939D01*
X323666Y260592D01*
X323612Y260247D01*
X323550Y259903D01*
X323479Y259560D01*
X323400Y259219D01*
X323314Y258880D01*
X323219Y258544D01*
X323116Y258209D01*
X323005Y257878D01*
X322887Y257549D01*
X322760Y257222D01*
X322626Y256899D01*
X322484Y256580D01*
X322334Y256264D01*
X322294Y256151D01*
X322250Y256041D01*
X322202Y255931D01*
X322151Y255824D01*
X322096Y255718D01*
X322038Y255613D01*
X321976Y255511D01*
X321911Y255411D01*
X321843Y255313D01*
X321772Y255217D01*
X321697Y255124D01*
X321620Y255033D01*
X321540Y254945D01*
X321457Y254860D01*
X321371Y254777D01*
X321282Y254697D01*
X321191Y254620D01*
X321097Y254546D01*
X321001Y254475D01*
X320903Y254407D01*
X320803Y254343D01*
X320700Y254281D01*
X320596Y254224D01*
X320490Y254169D01*
X320382Y254118D01*
X320272Y254071D01*
X320161Y254027D01*
X320049Y253987D01*
X319935Y253951D01*
X319821Y253918D01*
X319705Y253889D01*
X319588Y253864D01*
X319471Y253843D01*
X319353Y253825D01*
X319234Y253812D01*
X319115Y253802D01*
X318996Y253796D01*
X318877Y253794D01*
X315421Y256264D02*
X315271Y256580D01*
X315129Y256899D01*
X314995Y257222D01*
X314868Y257549D01*
X314750Y257878D01*
X314639Y258209D01*
X314536Y258544D01*
X314441Y258880D01*
X314355Y259219D01*
X314276Y259560D01*
X314205Y259903D01*
X314143Y260247D01*
X314089Y260592D01*
X314043Y260939D01*
X314006Y261287D01*
X313977Y261636D01*
X313956Y261985D01*
X313943Y262334D01*
X313939Y262684D01*
X315420Y256264D02*
X315460Y256151D01*
X315504Y256041D01*
X315552Y255931D01*
X315603Y255823D01*
X315658Y255717D01*
X315716Y255613D01*
X315778Y255511D01*
X315843Y255411D01*
X315911Y255313D01*
X315982Y255217D01*
X316057Y255124D01*
X316134Y255033D01*
X316214Y254945D01*
X316298Y254860D01*
X316383Y254777D01*
X316472Y254697D01*
X316563Y254620D01*
X316657Y254546D01*
X316753Y254475D01*
X316851Y254407D01*
X316951Y254343D01*
X317054Y254281D01*
X317158Y254223D01*
X317264Y254169D01*
X317372Y254118D01*
X317482Y254071D01*
X317593Y254027D01*
X317705Y253987D01*
X317819Y253951D01*
X317933Y253918D01*
X318049Y253889D01*
X318166Y253864D01*
X318283Y253843D01*
X318401Y253825D01*
X318520Y253812D01*
X318639Y253802D01*
X318758Y253796D01*
X318877Y253794D01*
X322828Y257745D02*
X314926Y267623D01*
X307066Y267623D02*
X302127Y271574D01*
X302127Y253794D01*
X307066Y253794D02*
X297188Y253794D01*
D12*
X434894Y351815D02*
X436983Y351815D01*
X437072Y351817D01*
X437160Y351823D01*
X437248Y351832D01*
X437336Y351845D01*
X437423Y351862D01*
X437509Y351882D01*
X437594Y351907D01*
X437679Y351934D01*
X437762Y351966D01*
X437843Y352000D01*
X437923Y352039D01*
X438001Y352080D01*
X438078Y352125D01*
X438152Y352173D01*
X438225Y352224D01*
X438295Y352278D01*
X438362Y352336D01*
X438428Y352396D01*
X438490Y352458D01*
X438550Y352524D01*
X438608Y352591D01*
X438662Y352661D01*
X438713Y352734D01*
X438761Y352808D01*
X438806Y352885D01*
X438847Y352963D01*
X438886Y353043D01*
X438920Y353124D01*
X438952Y353207D01*
X438979Y353292D01*
X439004Y353377D01*
X439024Y353463D01*
X439041Y353550D01*
X439054Y353638D01*
X439063Y353726D01*
X439069Y353814D01*
X439071Y353903D01*
X439071Y359124D01*
X439069Y359213D01*
X439063Y359301D01*
X439054Y359389D01*
X439041Y359477D01*
X439024Y359564D01*
X439004Y359650D01*
X438979Y359735D01*
X438952Y359820D01*
X438920Y359903D01*
X438886Y359984D01*
X438847Y360064D01*
X438806Y360142D01*
X438761Y360219D01*
X438713Y360293D01*
X438662Y360366D01*
X438608Y360436D01*
X438550Y360503D01*
X438490Y360569D01*
X438428Y360631D01*
X438362Y360691D01*
X438295Y360749D01*
X438225Y360803D01*
X438152Y360854D01*
X438078Y360902D01*
X438001Y360947D01*
X437923Y360988D01*
X437843Y361027D01*
X437762Y361061D01*
X437679Y361093D01*
X437594Y361120D01*
X437509Y361145D01*
X437423Y361165D01*
X437336Y361182D01*
X437248Y361195D01*
X437160Y361204D01*
X437072Y361210D01*
X436983Y361212D01*
X436983Y361213D02*
X434894Y361213D01*
X431426Y354425D02*
X431424Y354526D01*
X431418Y354627D01*
X431408Y354728D01*
X431395Y354828D01*
X431377Y354928D01*
X431356Y355027D01*
X431330Y355125D01*
X431301Y355222D01*
X431269Y355318D01*
X431232Y355412D01*
X431192Y355505D01*
X431148Y355597D01*
X431101Y355686D01*
X431050Y355774D01*
X430996Y355860D01*
X430939Y355943D01*
X430879Y356025D01*
X430815Y356103D01*
X430749Y356180D01*
X430679Y356253D01*
X430607Y356324D01*
X430532Y356392D01*
X430454Y356457D01*
X430374Y356519D01*
X430292Y356578D01*
X430207Y356634D01*
X430121Y356686D01*
X430032Y356735D01*
X429941Y356781D01*
X429849Y356822D01*
X429755Y356861D01*
X429660Y356895D01*
X429564Y356926D01*
X429466Y356953D01*
X429368Y356977D01*
X429268Y356996D01*
X429168Y357012D01*
X429068Y357024D01*
X428967Y357032D01*
X428866Y357036D01*
X428764Y357036D01*
X428663Y357032D01*
X428562Y357024D01*
X428462Y357012D01*
X428362Y356996D01*
X428262Y356977D01*
X428164Y356953D01*
X428066Y356926D01*
X427970Y356895D01*
X427875Y356861D01*
X427781Y356822D01*
X427689Y356781D01*
X427598Y356735D01*
X427510Y356686D01*
X427423Y356634D01*
X427338Y356578D01*
X427256Y356519D01*
X427176Y356457D01*
X427098Y356392D01*
X427023Y356324D01*
X426951Y356253D01*
X426881Y356180D01*
X426815Y356103D01*
X426751Y356025D01*
X426691Y355943D01*
X426634Y355860D01*
X426580Y355774D01*
X426529Y355686D01*
X426482Y355597D01*
X426438Y355505D01*
X426398Y355412D01*
X426361Y355318D01*
X426329Y355222D01*
X426300Y355125D01*
X426274Y355027D01*
X426253Y354928D01*
X426235Y354828D01*
X426222Y354728D01*
X426212Y354627D01*
X426206Y354526D01*
X426204Y354425D01*
X426206Y354324D01*
X426212Y354223D01*
X426222Y354122D01*
X426235Y354022D01*
X426253Y353922D01*
X426274Y353823D01*
X426300Y353725D01*
X426329Y353628D01*
X426361Y353532D01*
X426398Y353438D01*
X426438Y353345D01*
X426482Y353253D01*
X426529Y353164D01*
X426580Y353076D01*
X426634Y352990D01*
X426691Y352907D01*
X426751Y352825D01*
X426815Y352747D01*
X426881Y352670D01*
X426951Y352597D01*
X427023Y352526D01*
X427098Y352458D01*
X427176Y352393D01*
X427256Y352331D01*
X427338Y352272D01*
X427423Y352216D01*
X427510Y352164D01*
X427598Y352115D01*
X427689Y352069D01*
X427781Y352028D01*
X427875Y351989D01*
X427970Y351955D01*
X428066Y351924D01*
X428164Y351897D01*
X428262Y351873D01*
X428362Y351854D01*
X428462Y351838D01*
X428562Y351826D01*
X428663Y351818D01*
X428764Y351814D01*
X428866Y351814D01*
X428967Y351818D01*
X429068Y351826D01*
X429168Y351838D01*
X429268Y351854D01*
X429368Y351873D01*
X429466Y351897D01*
X429564Y351924D01*
X429660Y351955D01*
X429755Y351989D01*
X429849Y352028D01*
X429941Y352069D01*
X430032Y352115D01*
X430120Y352164D01*
X430207Y352216D01*
X430292Y352272D01*
X430374Y352331D01*
X430454Y352393D01*
X430532Y352458D01*
X430607Y352526D01*
X430679Y352597D01*
X430749Y352670D01*
X430815Y352747D01*
X430879Y352825D01*
X430939Y352907D01*
X430996Y352990D01*
X431050Y353076D01*
X431101Y353164D01*
X431148Y353253D01*
X431192Y353345D01*
X431232Y353438D01*
X431269Y353532D01*
X431301Y353628D01*
X431330Y353725D01*
X431356Y353823D01*
X431377Y353922D01*
X431395Y354022D01*
X431408Y354122D01*
X431418Y354223D01*
X431424Y354324D01*
X431426Y354425D01*
X430903Y359124D02*
X430901Y359214D01*
X430895Y359303D01*
X430886Y359393D01*
X430872Y359482D01*
X430855Y359570D01*
X430834Y359657D01*
X430809Y359744D01*
X430780Y359829D01*
X430748Y359913D01*
X430713Y359995D01*
X430673Y360076D01*
X430631Y360155D01*
X430585Y360232D01*
X430535Y360307D01*
X430483Y360380D01*
X430427Y360451D01*
X430369Y360519D01*
X430307Y360584D01*
X430243Y360647D01*
X430176Y360707D01*
X430107Y360764D01*
X430035Y360818D01*
X429961Y360869D01*
X429885Y360917D01*
X429807Y360961D01*
X429727Y361002D01*
X429645Y361040D01*
X429562Y361074D01*
X429477Y361104D01*
X429391Y361131D01*
X429305Y361154D01*
X429217Y361173D01*
X429128Y361188D01*
X429039Y361200D01*
X428950Y361208D01*
X428860Y361212D01*
X428770Y361212D01*
X428680Y361208D01*
X428591Y361200D01*
X428502Y361188D01*
X428413Y361173D01*
X428325Y361154D01*
X428239Y361131D01*
X428153Y361104D01*
X428068Y361074D01*
X427985Y361040D01*
X427903Y361002D01*
X427823Y360961D01*
X427745Y360917D01*
X427669Y360869D01*
X427595Y360818D01*
X427523Y360764D01*
X427454Y360707D01*
X427387Y360647D01*
X427323Y360584D01*
X427261Y360519D01*
X427203Y360451D01*
X427147Y360380D01*
X427095Y360307D01*
X427045Y360232D01*
X426999Y360155D01*
X426957Y360076D01*
X426917Y359995D01*
X426882Y359913D01*
X426850Y359829D01*
X426821Y359744D01*
X426796Y359657D01*
X426775Y359570D01*
X426758Y359482D01*
X426744Y359393D01*
X426735Y359303D01*
X426729Y359214D01*
X426727Y359124D01*
X426729Y359034D01*
X426735Y358945D01*
X426744Y358855D01*
X426758Y358766D01*
X426775Y358678D01*
X426796Y358591D01*
X426821Y358504D01*
X426850Y358419D01*
X426882Y358335D01*
X426917Y358253D01*
X426957Y358172D01*
X426999Y358093D01*
X427045Y358016D01*
X427095Y357941D01*
X427147Y357868D01*
X427203Y357797D01*
X427261Y357729D01*
X427323Y357664D01*
X427387Y357601D01*
X427454Y357541D01*
X427523Y357484D01*
X427595Y357430D01*
X427669Y357379D01*
X427745Y357331D01*
X427823Y357287D01*
X427903Y357246D01*
X427985Y357208D01*
X428068Y357174D01*
X428153Y357144D01*
X428239Y357117D01*
X428325Y357094D01*
X428413Y357075D01*
X428502Y357060D01*
X428591Y357048D01*
X428680Y357040D01*
X428770Y357036D01*
X428860Y357036D01*
X428950Y357040D01*
X429039Y357048D01*
X429128Y357060D01*
X429217Y357075D01*
X429305Y357094D01*
X429391Y357117D01*
X429477Y357144D01*
X429562Y357174D01*
X429645Y357208D01*
X429727Y357246D01*
X429807Y357287D01*
X429885Y357331D01*
X429961Y357379D01*
X430035Y357430D01*
X430107Y357484D01*
X430176Y357541D01*
X430243Y357601D01*
X430307Y357664D01*
X430369Y357729D01*
X430427Y357797D01*
X430483Y357868D01*
X430535Y357941D01*
X430585Y358016D01*
X430631Y358093D01*
X430673Y358172D01*
X430713Y358253D01*
X430748Y358335D01*
X430780Y358419D01*
X430809Y358504D01*
X430834Y358591D01*
X430855Y358678D01*
X430872Y358766D01*
X430886Y358855D01*
X430895Y358945D01*
X430901Y359034D01*
X430903Y359124D01*
D10*
X423415Y296673D02*
X443544Y296673D01*
D12*
X437470Y286013D02*
X435382Y286013D01*
X437470Y286014D02*
X437559Y286016D01*
X437647Y286022D01*
X437735Y286031D01*
X437823Y286044D01*
X437910Y286061D01*
X437996Y286081D01*
X438081Y286106D01*
X438166Y286133D01*
X438249Y286165D01*
X438330Y286199D01*
X438410Y286238D01*
X438488Y286279D01*
X438565Y286324D01*
X438639Y286372D01*
X438712Y286423D01*
X438782Y286477D01*
X438849Y286535D01*
X438915Y286595D01*
X438977Y286657D01*
X439037Y286723D01*
X439095Y286790D01*
X439149Y286860D01*
X439200Y286933D01*
X439248Y287007D01*
X439293Y287084D01*
X439334Y287162D01*
X439373Y287242D01*
X439407Y287323D01*
X439439Y287406D01*
X439466Y287491D01*
X439491Y287576D01*
X439511Y287662D01*
X439528Y287749D01*
X439541Y287837D01*
X439550Y287925D01*
X439556Y288013D01*
X439558Y288102D01*
X439559Y288102D02*
X439559Y293323D01*
X439558Y293323D02*
X439556Y293412D01*
X439550Y293500D01*
X439541Y293588D01*
X439528Y293676D01*
X439511Y293763D01*
X439491Y293849D01*
X439466Y293934D01*
X439439Y294019D01*
X439407Y294102D01*
X439373Y294183D01*
X439334Y294263D01*
X439293Y294341D01*
X439248Y294418D01*
X439200Y294492D01*
X439149Y294565D01*
X439095Y294635D01*
X439037Y294702D01*
X438977Y294768D01*
X438915Y294830D01*
X438849Y294890D01*
X438782Y294948D01*
X438712Y295002D01*
X438639Y295053D01*
X438565Y295101D01*
X438488Y295146D01*
X438410Y295187D01*
X438330Y295226D01*
X438249Y295260D01*
X438166Y295292D01*
X438081Y295319D01*
X437996Y295344D01*
X437910Y295364D01*
X437823Y295381D01*
X437735Y295394D01*
X437647Y295403D01*
X437559Y295409D01*
X437470Y295411D01*
X435382Y295411D01*
X429041Y295412D02*
X428946Y295410D01*
X428852Y295404D01*
X428758Y295395D01*
X428664Y295382D01*
X428571Y295365D01*
X428479Y295344D01*
X428387Y295319D01*
X428297Y295291D01*
X428208Y295259D01*
X428120Y295224D01*
X428034Y295185D01*
X427949Y295143D01*
X427866Y295097D01*
X427785Y295048D01*
X427706Y294996D01*
X427629Y294941D01*
X427555Y294882D01*
X427483Y294821D01*
X427413Y294757D01*
X427346Y294690D01*
X427282Y294620D01*
X427221Y294548D01*
X427162Y294474D01*
X427107Y294397D01*
X427055Y294318D01*
X427006Y294237D01*
X426960Y294154D01*
X426918Y294069D01*
X426879Y293983D01*
X426844Y293895D01*
X426812Y293806D01*
X426784Y293716D01*
X426759Y293624D01*
X426738Y293532D01*
X426721Y293439D01*
X426708Y293345D01*
X426699Y293251D01*
X426693Y293157D01*
X426691Y293062D01*
X429041Y295411D02*
X429149Y295409D01*
X429258Y295403D01*
X429366Y295393D01*
X429473Y295380D01*
X429580Y295362D01*
X429687Y295341D01*
X429792Y295316D01*
X429897Y295287D01*
X430000Y295255D01*
X430102Y295218D01*
X430203Y295178D01*
X430302Y295135D01*
X430400Y295088D01*
X430496Y295037D01*
X430590Y294983D01*
X430682Y294926D01*
X430772Y294865D01*
X430860Y294801D01*
X430945Y294735D01*
X431028Y294665D01*
X431108Y294592D01*
X431186Y294516D01*
X431261Y294438D01*
X431333Y294357D01*
X431402Y294273D01*
X431468Y294187D01*
X431531Y294099D01*
X431590Y294008D01*
X431647Y293916D01*
X431700Y293821D01*
X431749Y293724D01*
X431795Y293626D01*
X431838Y293527D01*
X431877Y293425D01*
X431912Y293323D01*
X427475Y291234D02*
X427406Y291303D01*
X427340Y291374D01*
X427276Y291447D01*
X427215Y291523D01*
X427157Y291602D01*
X427103Y291682D01*
X427051Y291765D01*
X427003Y291849D01*
X426957Y291935D01*
X426916Y292023D01*
X426877Y292113D01*
X426842Y292204D01*
X426811Y292296D01*
X426783Y292389D01*
X426759Y292483D01*
X426739Y292578D01*
X426722Y292674D01*
X426709Y292771D01*
X426700Y292868D01*
X426694Y292965D01*
X426692Y293062D01*
X427475Y291235D02*
X431913Y286013D01*
X426692Y286013D01*
D13*
X381202Y376202D02*
X376202Y381202D01*
X311202Y311212D02*
X311202Y311202D01*
X385972Y373852D02*
X385974Y373941D01*
X385980Y374030D01*
X385990Y374119D01*
X386004Y374207D01*
X386021Y374294D01*
X386043Y374380D01*
X386069Y374466D01*
X386098Y374550D01*
X386131Y374633D01*
X386167Y374714D01*
X386208Y374794D01*
X386251Y374871D01*
X386298Y374947D01*
X386349Y375020D01*
X386402Y375091D01*
X386459Y375160D01*
X386519Y375226D01*
X386582Y375290D01*
X386647Y375350D01*
X386715Y375408D01*
X386786Y375462D01*
X386859Y375513D01*
X386934Y375561D01*
X387011Y375606D01*
X387090Y375647D01*
X387171Y375684D01*
X387253Y375718D01*
X387337Y375749D01*
X387422Y375775D01*
X387508Y375798D01*
X387595Y375816D01*
X387683Y375831D01*
X387772Y375842D01*
X387861Y375849D01*
X387950Y375852D01*
X388039Y375851D01*
X388128Y375846D01*
X388216Y375837D01*
X388305Y375824D01*
X388392Y375807D01*
X388479Y375787D01*
X388565Y375762D01*
X388649Y375734D01*
X388732Y375702D01*
X388814Y375666D01*
X388894Y375627D01*
X388972Y375584D01*
X389048Y375538D01*
X389122Y375488D01*
X389194Y375435D01*
X389263Y375379D01*
X389330Y375320D01*
X389394Y375258D01*
X389455Y375194D01*
X389514Y375126D01*
X389569Y375056D01*
X389621Y374984D01*
X389670Y374909D01*
X389715Y374833D01*
X389757Y374754D01*
X389795Y374674D01*
X389830Y374592D01*
X389861Y374508D01*
X389889Y374423D01*
X389912Y374337D01*
X389932Y374250D01*
X389948Y374163D01*
X389960Y374074D01*
X389968Y373986D01*
X389972Y373897D01*
X389972Y373807D01*
X389968Y373718D01*
X389960Y373630D01*
X389948Y373541D01*
X389932Y373454D01*
X389912Y373367D01*
X389889Y373281D01*
X389861Y373196D01*
X389830Y373112D01*
X389795Y373030D01*
X389757Y372950D01*
X389715Y372871D01*
X389670Y372795D01*
X389621Y372720D01*
X389569Y372648D01*
X389514Y372578D01*
X389455Y372510D01*
X389394Y372446D01*
X389330Y372384D01*
X389263Y372325D01*
X389194Y372269D01*
X389122Y372216D01*
X389048Y372166D01*
X388972Y372120D01*
X388894Y372077D01*
X388814Y372038D01*
X388732Y372002D01*
X388649Y371970D01*
X388565Y371942D01*
X388479Y371917D01*
X388392Y371897D01*
X388305Y371880D01*
X388216Y371867D01*
X388128Y371858D01*
X388039Y371853D01*
X387950Y371852D01*
X387861Y371855D01*
X387772Y371862D01*
X387683Y371873D01*
X387595Y371888D01*
X387508Y371906D01*
X387422Y371929D01*
X387337Y371955D01*
X387253Y371986D01*
X387171Y372020D01*
X387090Y372057D01*
X387011Y372098D01*
X386934Y372143D01*
X386859Y372191D01*
X386786Y372242D01*
X386715Y372296D01*
X386647Y372354D01*
X386582Y372414D01*
X386519Y372478D01*
X386459Y372544D01*
X386402Y372613D01*
X386349Y372684D01*
X386298Y372757D01*
X386251Y372833D01*
X386208Y372910D01*
X386167Y372990D01*
X386131Y373071D01*
X386098Y373154D01*
X386069Y373238D01*
X386043Y373324D01*
X386021Y373410D01*
X386004Y373497D01*
X385990Y373585D01*
X385980Y373674D01*
X385974Y373763D01*
X385972Y373852D01*
X311242Y381212D02*
X311242Y381222D01*
X315942Y381222D01*
X315902Y311212D02*
X311202Y311212D01*
X311242Y376522D02*
X311242Y381212D01*
X311192Y315902D02*
X311192Y311202D01*
X376522Y311202D02*
X381222Y311202D01*
X381222Y311192D02*
X381222Y315892D01*
D12*
X328727Y389162D02*
X328727Y395950D01*
X328728Y389162D02*
X328726Y389061D01*
X328720Y388960D01*
X328710Y388859D01*
X328697Y388759D01*
X328679Y388659D01*
X328658Y388560D01*
X328632Y388462D01*
X328603Y388365D01*
X328571Y388269D01*
X328534Y388175D01*
X328494Y388082D01*
X328450Y387990D01*
X328403Y387901D01*
X328352Y387813D01*
X328298Y387727D01*
X328241Y387644D01*
X328181Y387562D01*
X328117Y387484D01*
X328051Y387407D01*
X327981Y387334D01*
X327909Y387263D01*
X327834Y387195D01*
X327756Y387130D01*
X327676Y387068D01*
X327594Y387009D01*
X327509Y386953D01*
X327422Y386901D01*
X327334Y386852D01*
X327243Y386806D01*
X327151Y386765D01*
X327057Y386726D01*
X326962Y386692D01*
X326866Y386661D01*
X326768Y386634D01*
X326670Y386610D01*
X326570Y386591D01*
X326470Y386575D01*
X326370Y386563D01*
X326269Y386555D01*
X326168Y386551D01*
X326066Y386551D01*
X325965Y386555D01*
X325864Y386563D01*
X325764Y386575D01*
X325664Y386591D01*
X325564Y386610D01*
X325466Y386634D01*
X325368Y386661D01*
X325272Y386692D01*
X325177Y386726D01*
X325083Y386765D01*
X324991Y386806D01*
X324900Y386852D01*
X324812Y386901D01*
X324725Y386953D01*
X324640Y387009D01*
X324558Y387068D01*
X324478Y387130D01*
X324400Y387195D01*
X324325Y387263D01*
X324253Y387334D01*
X324183Y387407D01*
X324117Y387484D01*
X324053Y387562D01*
X323993Y387644D01*
X323936Y387727D01*
X323882Y387813D01*
X323831Y387901D01*
X323784Y387990D01*
X323740Y388082D01*
X323700Y388175D01*
X323663Y388269D01*
X323631Y388365D01*
X323602Y388462D01*
X323576Y388560D01*
X323555Y388659D01*
X323537Y388759D01*
X323524Y388859D01*
X323514Y388960D01*
X323508Y389061D01*
X323506Y389162D01*
X323506Y395950D01*
X319279Y393861D02*
X316668Y395950D01*
X316668Y386552D01*
X314058Y386552D02*
X319279Y386552D01*
D14*
X394175Y372600D02*
X394175Y337040D01*
X414495Y337040D01*
X414495Y372600D01*
X394175Y372600D01*
D12*
X417812Y335290D02*
X427210Y341555D01*
X427210Y335290D02*
X417812Y341555D01*
X425122Y344956D02*
X427210Y347566D01*
X417812Y347566D01*
X417812Y344956D02*
X417812Y350177D01*
X359011Y419821D02*
X359011Y429219D01*
X356401Y429219D01*
X356401Y429220D02*
X356300Y429218D01*
X356199Y429212D01*
X356098Y429202D01*
X355998Y429189D01*
X355898Y429171D01*
X355799Y429150D01*
X355701Y429124D01*
X355604Y429095D01*
X355508Y429063D01*
X355414Y429026D01*
X355321Y428986D01*
X355229Y428942D01*
X355140Y428895D01*
X355052Y428844D01*
X354966Y428790D01*
X354883Y428733D01*
X354801Y428673D01*
X354723Y428609D01*
X354646Y428543D01*
X354573Y428473D01*
X354502Y428401D01*
X354434Y428326D01*
X354369Y428248D01*
X354307Y428168D01*
X354248Y428086D01*
X354192Y428001D01*
X354140Y427915D01*
X354091Y427826D01*
X354045Y427735D01*
X354004Y427643D01*
X353965Y427549D01*
X353931Y427454D01*
X353900Y427358D01*
X353873Y427260D01*
X353849Y427162D01*
X353830Y427062D01*
X353814Y426962D01*
X353802Y426862D01*
X353794Y426761D01*
X353790Y426660D01*
X353790Y426558D01*
X353794Y426457D01*
X353802Y426356D01*
X353814Y426256D01*
X353830Y426156D01*
X353849Y426056D01*
X353873Y425958D01*
X353900Y425860D01*
X353931Y425764D01*
X353965Y425669D01*
X354004Y425575D01*
X354045Y425483D01*
X354091Y425392D01*
X354140Y425304D01*
X354192Y425217D01*
X354248Y425132D01*
X354307Y425050D01*
X354369Y424970D01*
X354434Y424892D01*
X354502Y424817D01*
X354573Y424745D01*
X354646Y424675D01*
X354723Y424609D01*
X354801Y424545D01*
X354883Y424485D01*
X354966Y424428D01*
X355052Y424374D01*
X355140Y424323D01*
X355229Y424276D01*
X355321Y424232D01*
X355414Y424192D01*
X355508Y424155D01*
X355604Y424123D01*
X355701Y424094D01*
X355799Y424068D01*
X355898Y424047D01*
X355998Y424029D01*
X356098Y424016D01*
X356199Y424006D01*
X356300Y424000D01*
X356401Y423998D01*
X359011Y423998D01*
X355879Y423998D02*
X353790Y419821D01*
X349924Y419821D02*
X347314Y419821D01*
X347213Y419823D01*
X347112Y419829D01*
X347011Y419839D01*
X346911Y419852D01*
X346811Y419870D01*
X346712Y419891D01*
X346614Y419917D01*
X346517Y419946D01*
X346421Y419978D01*
X346327Y420015D01*
X346234Y420055D01*
X346142Y420099D01*
X346053Y420146D01*
X345965Y420197D01*
X345879Y420251D01*
X345796Y420308D01*
X345714Y420368D01*
X345636Y420432D01*
X345559Y420498D01*
X345486Y420568D01*
X345415Y420640D01*
X345347Y420715D01*
X345282Y420793D01*
X345220Y420873D01*
X345161Y420955D01*
X345105Y421040D01*
X345053Y421127D01*
X345004Y421215D01*
X344958Y421306D01*
X344917Y421398D01*
X344878Y421492D01*
X344844Y421587D01*
X344813Y421683D01*
X344786Y421781D01*
X344762Y421879D01*
X344743Y421979D01*
X344727Y422079D01*
X344715Y422179D01*
X344707Y422280D01*
X344703Y422381D01*
X344703Y422483D01*
X344707Y422584D01*
X344715Y422685D01*
X344727Y422785D01*
X344743Y422885D01*
X344762Y422985D01*
X344786Y423083D01*
X344813Y423181D01*
X344844Y423277D01*
X344878Y423372D01*
X344917Y423466D01*
X344958Y423558D01*
X345004Y423649D01*
X345053Y423738D01*
X345105Y423824D01*
X345161Y423909D01*
X345220Y423991D01*
X345282Y424071D01*
X345347Y424149D01*
X345415Y424224D01*
X345486Y424296D01*
X345559Y424366D01*
X345636Y424432D01*
X345714Y424496D01*
X345796Y424556D01*
X345879Y424613D01*
X345965Y424667D01*
X346053Y424718D01*
X346142Y424765D01*
X346234Y424809D01*
X346327Y424849D01*
X346421Y424886D01*
X346517Y424918D01*
X346614Y424947D01*
X346712Y424973D01*
X346811Y424994D01*
X346911Y425012D01*
X347011Y425025D01*
X347112Y425035D01*
X347213Y425041D01*
X347314Y425043D01*
X346792Y429219D02*
X349924Y429219D01*
X346792Y429219D02*
X346702Y429217D01*
X346613Y429211D01*
X346523Y429202D01*
X346434Y429188D01*
X346346Y429171D01*
X346259Y429150D01*
X346172Y429125D01*
X346087Y429096D01*
X346003Y429064D01*
X345921Y429029D01*
X345840Y428989D01*
X345761Y428947D01*
X345684Y428901D01*
X345609Y428851D01*
X345536Y428799D01*
X345465Y428743D01*
X345397Y428685D01*
X345332Y428623D01*
X345269Y428559D01*
X345209Y428492D01*
X345152Y428423D01*
X345098Y428351D01*
X345047Y428277D01*
X344999Y428201D01*
X344955Y428123D01*
X344914Y428043D01*
X344876Y427961D01*
X344842Y427878D01*
X344812Y427793D01*
X344785Y427707D01*
X344762Y427621D01*
X344743Y427533D01*
X344728Y427444D01*
X344716Y427355D01*
X344708Y427266D01*
X344704Y427176D01*
X344704Y427086D01*
X344708Y426996D01*
X344716Y426907D01*
X344728Y426818D01*
X344743Y426729D01*
X344762Y426641D01*
X344785Y426555D01*
X344812Y426469D01*
X344842Y426384D01*
X344876Y426301D01*
X344914Y426219D01*
X344955Y426139D01*
X344999Y426061D01*
X345047Y425985D01*
X345098Y425911D01*
X345152Y425839D01*
X345209Y425770D01*
X345269Y425703D01*
X345332Y425639D01*
X345397Y425577D01*
X345465Y425519D01*
X345536Y425463D01*
X345609Y425411D01*
X345684Y425361D01*
X345761Y425315D01*
X345840Y425273D01*
X345921Y425233D01*
X346003Y425198D01*
X346087Y425166D01*
X346172Y425137D01*
X346259Y425112D01*
X346346Y425091D01*
X346434Y425074D01*
X346523Y425060D01*
X346613Y425051D01*
X346702Y425045D01*
X346792Y425043D01*
X346792Y425042D02*
X348880Y425042D01*
D10*
X283830Y378234D02*
X263700Y378234D01*
D12*
X274586Y369560D02*
X276674Y369560D01*
X276763Y369562D01*
X276851Y369568D01*
X276939Y369577D01*
X277027Y369590D01*
X277114Y369607D01*
X277200Y369627D01*
X277285Y369652D01*
X277370Y369679D01*
X277453Y369711D01*
X277534Y369745D01*
X277614Y369784D01*
X277692Y369825D01*
X277769Y369870D01*
X277843Y369918D01*
X277916Y369969D01*
X277986Y370023D01*
X278053Y370081D01*
X278119Y370141D01*
X278181Y370203D01*
X278241Y370269D01*
X278299Y370336D01*
X278353Y370406D01*
X278404Y370479D01*
X278452Y370553D01*
X278497Y370630D01*
X278538Y370708D01*
X278577Y370788D01*
X278611Y370869D01*
X278643Y370952D01*
X278670Y371037D01*
X278695Y371122D01*
X278715Y371208D01*
X278732Y371295D01*
X278745Y371383D01*
X278754Y371471D01*
X278760Y371559D01*
X278762Y371648D01*
X278763Y371648D02*
X278763Y376869D01*
X278762Y376869D02*
X278760Y376958D01*
X278754Y377046D01*
X278745Y377134D01*
X278732Y377222D01*
X278715Y377309D01*
X278695Y377395D01*
X278670Y377480D01*
X278643Y377565D01*
X278611Y377648D01*
X278577Y377729D01*
X278538Y377809D01*
X278497Y377887D01*
X278452Y377964D01*
X278404Y378038D01*
X278353Y378111D01*
X278299Y378181D01*
X278241Y378248D01*
X278181Y378314D01*
X278119Y378376D01*
X278053Y378436D01*
X277986Y378494D01*
X277916Y378548D01*
X277843Y378599D01*
X277769Y378647D01*
X277692Y378692D01*
X277614Y378733D01*
X277534Y378772D01*
X277453Y378806D01*
X277370Y378838D01*
X277285Y378865D01*
X277200Y378890D01*
X277114Y378910D01*
X277027Y378927D01*
X276939Y378940D01*
X276851Y378949D01*
X276763Y378955D01*
X276674Y378957D01*
X276674Y378958D02*
X274586Y378958D01*
X269029Y378958D02*
X271117Y371648D01*
X265896Y371648D01*
X267462Y373737D02*
X267462Y369560D01*
D10*
X269255Y348948D02*
X289385Y348948D01*
D12*
X283900Y350680D02*
X281812Y350680D01*
X283900Y350681D02*
X283989Y350683D01*
X284077Y350689D01*
X284165Y350698D01*
X284253Y350711D01*
X284340Y350728D01*
X284426Y350748D01*
X284511Y350773D01*
X284596Y350800D01*
X284679Y350832D01*
X284760Y350866D01*
X284840Y350905D01*
X284918Y350946D01*
X284995Y350991D01*
X285069Y351039D01*
X285142Y351090D01*
X285212Y351144D01*
X285279Y351202D01*
X285345Y351262D01*
X285407Y351324D01*
X285467Y351390D01*
X285525Y351457D01*
X285579Y351527D01*
X285630Y351600D01*
X285678Y351674D01*
X285723Y351751D01*
X285764Y351829D01*
X285803Y351909D01*
X285837Y351990D01*
X285869Y352073D01*
X285896Y352158D01*
X285921Y352243D01*
X285941Y352329D01*
X285958Y352416D01*
X285971Y352504D01*
X285980Y352592D01*
X285986Y352680D01*
X285988Y352769D01*
X285989Y352769D02*
X285989Y357990D01*
X285988Y357990D02*
X285986Y358079D01*
X285980Y358167D01*
X285971Y358255D01*
X285958Y358343D01*
X285941Y358430D01*
X285921Y358516D01*
X285896Y358601D01*
X285869Y358686D01*
X285837Y358769D01*
X285803Y358850D01*
X285764Y358930D01*
X285723Y359008D01*
X285678Y359085D01*
X285630Y359159D01*
X285579Y359232D01*
X285525Y359302D01*
X285467Y359369D01*
X285407Y359435D01*
X285345Y359497D01*
X285279Y359557D01*
X285212Y359615D01*
X285142Y359669D01*
X285069Y359720D01*
X284995Y359768D01*
X284918Y359813D01*
X284840Y359854D01*
X284760Y359893D01*
X284679Y359927D01*
X284596Y359959D01*
X284511Y359986D01*
X284426Y360011D01*
X284340Y360031D01*
X284253Y360048D01*
X284165Y360061D01*
X284077Y360070D01*
X283989Y360076D01*
X283900Y360078D01*
X281812Y360078D01*
X278343Y360078D02*
X278343Y359034D01*
X278343Y360078D02*
X273122Y360078D01*
X275733Y350680D01*
X408569Y291437D02*
X410657Y291437D01*
X410657Y291438D02*
X410746Y291440D01*
X410834Y291446D01*
X410922Y291455D01*
X411010Y291468D01*
X411097Y291485D01*
X411183Y291505D01*
X411268Y291530D01*
X411353Y291557D01*
X411436Y291589D01*
X411517Y291623D01*
X411597Y291662D01*
X411675Y291703D01*
X411752Y291748D01*
X411826Y291796D01*
X411899Y291847D01*
X411969Y291901D01*
X412036Y291959D01*
X412102Y292019D01*
X412164Y292081D01*
X412224Y292147D01*
X412282Y292214D01*
X412336Y292284D01*
X412387Y292357D01*
X412435Y292431D01*
X412480Y292508D01*
X412521Y292586D01*
X412560Y292666D01*
X412594Y292747D01*
X412626Y292830D01*
X412653Y292915D01*
X412678Y293000D01*
X412698Y293086D01*
X412715Y293173D01*
X412728Y293261D01*
X412737Y293349D01*
X412743Y293437D01*
X412745Y293526D01*
X412745Y298747D01*
X412743Y298836D01*
X412737Y298924D01*
X412728Y299012D01*
X412715Y299100D01*
X412698Y299187D01*
X412678Y299273D01*
X412653Y299358D01*
X412626Y299443D01*
X412594Y299526D01*
X412560Y299607D01*
X412521Y299687D01*
X412480Y299765D01*
X412435Y299842D01*
X412387Y299916D01*
X412336Y299989D01*
X412282Y300059D01*
X412224Y300126D01*
X412164Y300192D01*
X412102Y300254D01*
X412036Y300314D01*
X411969Y300372D01*
X411899Y300426D01*
X411826Y300477D01*
X411752Y300525D01*
X411675Y300570D01*
X411597Y300611D01*
X411517Y300650D01*
X411436Y300684D01*
X411353Y300716D01*
X411268Y300743D01*
X411183Y300768D01*
X411097Y300788D01*
X411010Y300805D01*
X410922Y300818D01*
X410834Y300827D01*
X410746Y300833D01*
X410657Y300835D01*
X408569Y300835D01*
X405100Y298747D02*
X402489Y300835D01*
X402489Y291437D01*
X399879Y291437D02*
X405100Y291437D01*
X299670Y402725D02*
X297582Y402725D01*
X299670Y402725D02*
X299759Y402727D01*
X299847Y402733D01*
X299935Y402742D01*
X300023Y402755D01*
X300110Y402772D01*
X300196Y402792D01*
X300281Y402817D01*
X300366Y402844D01*
X300449Y402876D01*
X300530Y402910D01*
X300610Y402949D01*
X300688Y402990D01*
X300765Y403035D01*
X300839Y403083D01*
X300912Y403134D01*
X300982Y403188D01*
X301049Y403246D01*
X301115Y403306D01*
X301177Y403368D01*
X301237Y403434D01*
X301295Y403501D01*
X301349Y403571D01*
X301400Y403644D01*
X301448Y403718D01*
X301493Y403795D01*
X301534Y403873D01*
X301573Y403953D01*
X301607Y404034D01*
X301639Y404117D01*
X301666Y404202D01*
X301691Y404287D01*
X301711Y404373D01*
X301728Y404460D01*
X301741Y404548D01*
X301750Y404636D01*
X301756Y404724D01*
X301758Y404813D01*
X301759Y404813D02*
X301759Y410034D01*
X301758Y410034D02*
X301756Y410123D01*
X301750Y410211D01*
X301741Y410299D01*
X301728Y410387D01*
X301711Y410474D01*
X301691Y410560D01*
X301666Y410645D01*
X301639Y410730D01*
X301607Y410813D01*
X301573Y410894D01*
X301534Y410974D01*
X301493Y411052D01*
X301448Y411129D01*
X301400Y411203D01*
X301349Y411276D01*
X301295Y411346D01*
X301237Y411413D01*
X301177Y411479D01*
X301115Y411541D01*
X301049Y411601D01*
X300982Y411659D01*
X300912Y411713D01*
X300839Y411764D01*
X300765Y411812D01*
X300688Y411857D01*
X300610Y411898D01*
X300530Y411937D01*
X300449Y411971D01*
X300366Y412003D01*
X300281Y412030D01*
X300196Y412055D01*
X300110Y412075D01*
X300023Y412092D01*
X299935Y412105D01*
X299847Y412114D01*
X299759Y412120D01*
X299670Y412122D01*
X299670Y412123D02*
X297582Y412123D01*
X294113Y402725D02*
X291503Y402725D01*
X291503Y402724D02*
X291402Y402726D01*
X291301Y402732D01*
X291200Y402742D01*
X291100Y402755D01*
X291000Y402773D01*
X290901Y402794D01*
X290803Y402820D01*
X290706Y402849D01*
X290610Y402881D01*
X290516Y402918D01*
X290423Y402958D01*
X290331Y403002D01*
X290242Y403049D01*
X290154Y403100D01*
X290068Y403154D01*
X289985Y403211D01*
X289903Y403271D01*
X289825Y403335D01*
X289748Y403401D01*
X289675Y403471D01*
X289604Y403543D01*
X289536Y403618D01*
X289471Y403696D01*
X289409Y403776D01*
X289350Y403858D01*
X289294Y403943D01*
X289242Y404030D01*
X289193Y404118D01*
X289147Y404209D01*
X289106Y404301D01*
X289067Y404395D01*
X289033Y404490D01*
X289002Y404586D01*
X288975Y404684D01*
X288951Y404782D01*
X288932Y404882D01*
X288916Y404982D01*
X288904Y405082D01*
X288896Y405183D01*
X288892Y405284D01*
X288892Y405386D01*
X288896Y405487D01*
X288904Y405588D01*
X288916Y405688D01*
X288932Y405788D01*
X288951Y405888D01*
X288975Y405986D01*
X289002Y406084D01*
X289033Y406180D01*
X289067Y406275D01*
X289106Y406369D01*
X289147Y406461D01*
X289193Y406552D01*
X289242Y406641D01*
X289294Y406727D01*
X289350Y406812D01*
X289409Y406894D01*
X289471Y406974D01*
X289536Y407052D01*
X289604Y407127D01*
X289675Y407199D01*
X289748Y407269D01*
X289825Y407335D01*
X289903Y407399D01*
X289985Y407459D01*
X290068Y407516D01*
X290154Y407570D01*
X290242Y407621D01*
X290331Y407668D01*
X290423Y407712D01*
X290516Y407752D01*
X290610Y407789D01*
X290706Y407821D01*
X290803Y407850D01*
X290901Y407876D01*
X291000Y407897D01*
X291100Y407915D01*
X291200Y407928D01*
X291301Y407938D01*
X291402Y407944D01*
X291503Y407946D01*
X290980Y412123D02*
X294113Y412123D01*
X290980Y412122D02*
X290890Y412120D01*
X290801Y412114D01*
X290711Y412105D01*
X290622Y412091D01*
X290534Y412074D01*
X290447Y412053D01*
X290360Y412028D01*
X290275Y411999D01*
X290191Y411967D01*
X290109Y411932D01*
X290028Y411892D01*
X289949Y411850D01*
X289872Y411804D01*
X289797Y411754D01*
X289724Y411702D01*
X289653Y411646D01*
X289585Y411588D01*
X289520Y411526D01*
X289457Y411462D01*
X289397Y411395D01*
X289340Y411326D01*
X289286Y411254D01*
X289235Y411180D01*
X289187Y411104D01*
X289143Y411026D01*
X289102Y410946D01*
X289064Y410864D01*
X289030Y410781D01*
X289000Y410696D01*
X288973Y410610D01*
X288950Y410524D01*
X288931Y410436D01*
X288916Y410347D01*
X288904Y410258D01*
X288896Y410169D01*
X288892Y410079D01*
X288892Y409989D01*
X288896Y409899D01*
X288904Y409810D01*
X288916Y409721D01*
X288931Y409632D01*
X288950Y409544D01*
X288973Y409458D01*
X289000Y409372D01*
X289030Y409287D01*
X289064Y409204D01*
X289102Y409122D01*
X289143Y409042D01*
X289187Y408964D01*
X289235Y408888D01*
X289286Y408814D01*
X289340Y408742D01*
X289397Y408673D01*
X289457Y408606D01*
X289520Y408542D01*
X289585Y408480D01*
X289653Y408422D01*
X289724Y408366D01*
X289797Y408314D01*
X289872Y408264D01*
X289949Y408218D01*
X290028Y408176D01*
X290109Y408136D01*
X290191Y408101D01*
X290275Y408069D01*
X290360Y408040D01*
X290447Y408015D01*
X290534Y407994D01*
X290622Y407977D01*
X290711Y407963D01*
X290801Y407954D01*
X290890Y407948D01*
X290980Y407946D01*
X293069Y407946D01*
X301999Y277386D02*
X304087Y277386D01*
X304176Y277388D01*
X304264Y277394D01*
X304352Y277403D01*
X304440Y277416D01*
X304527Y277433D01*
X304613Y277453D01*
X304698Y277478D01*
X304783Y277505D01*
X304866Y277537D01*
X304947Y277571D01*
X305027Y277610D01*
X305105Y277651D01*
X305182Y277696D01*
X305256Y277744D01*
X305329Y277795D01*
X305399Y277849D01*
X305466Y277907D01*
X305532Y277967D01*
X305594Y278029D01*
X305654Y278095D01*
X305712Y278162D01*
X305766Y278232D01*
X305817Y278305D01*
X305865Y278379D01*
X305910Y278456D01*
X305951Y278534D01*
X305990Y278614D01*
X306024Y278695D01*
X306056Y278778D01*
X306083Y278863D01*
X306108Y278948D01*
X306128Y279034D01*
X306145Y279121D01*
X306158Y279209D01*
X306167Y279297D01*
X306173Y279385D01*
X306175Y279474D01*
X306176Y279474D02*
X306176Y284695D01*
X306175Y284695D02*
X306173Y284784D01*
X306167Y284872D01*
X306158Y284960D01*
X306145Y285048D01*
X306128Y285135D01*
X306108Y285221D01*
X306083Y285306D01*
X306056Y285391D01*
X306024Y285474D01*
X305990Y285555D01*
X305951Y285635D01*
X305910Y285713D01*
X305865Y285790D01*
X305817Y285864D01*
X305766Y285937D01*
X305712Y286007D01*
X305654Y286074D01*
X305594Y286140D01*
X305532Y286202D01*
X305466Y286262D01*
X305399Y286320D01*
X305329Y286374D01*
X305256Y286425D01*
X305182Y286473D01*
X305105Y286518D01*
X305027Y286559D01*
X304947Y286598D01*
X304866Y286632D01*
X304783Y286664D01*
X304698Y286691D01*
X304613Y286716D01*
X304527Y286736D01*
X304440Y286753D01*
X304352Y286766D01*
X304264Y286775D01*
X304176Y286781D01*
X304087Y286783D01*
X304087Y286784D02*
X301999Y286784D01*
X298530Y277386D02*
X295397Y277386D01*
X295308Y277388D01*
X295220Y277394D01*
X295132Y277403D01*
X295044Y277416D01*
X294957Y277433D01*
X294871Y277453D01*
X294786Y277478D01*
X294701Y277505D01*
X294618Y277537D01*
X294537Y277571D01*
X294457Y277610D01*
X294379Y277651D01*
X294302Y277696D01*
X294228Y277744D01*
X294155Y277795D01*
X294085Y277849D01*
X294018Y277907D01*
X293952Y277967D01*
X293890Y278029D01*
X293830Y278095D01*
X293772Y278162D01*
X293718Y278232D01*
X293667Y278305D01*
X293619Y278379D01*
X293574Y278456D01*
X293533Y278534D01*
X293494Y278614D01*
X293460Y278695D01*
X293428Y278778D01*
X293401Y278863D01*
X293376Y278948D01*
X293356Y279034D01*
X293339Y279121D01*
X293326Y279209D01*
X293317Y279297D01*
X293311Y279385D01*
X293309Y279474D01*
X293309Y280518D01*
X293311Y280607D01*
X293317Y280695D01*
X293326Y280783D01*
X293339Y280871D01*
X293356Y280958D01*
X293376Y281044D01*
X293401Y281129D01*
X293428Y281214D01*
X293460Y281297D01*
X293494Y281378D01*
X293533Y281458D01*
X293574Y281536D01*
X293619Y281613D01*
X293667Y281687D01*
X293718Y281760D01*
X293772Y281830D01*
X293830Y281897D01*
X293890Y281963D01*
X293952Y282025D01*
X294018Y282085D01*
X294085Y282143D01*
X294155Y282197D01*
X294228Y282248D01*
X294302Y282296D01*
X294379Y282341D01*
X294457Y282382D01*
X294537Y282421D01*
X294618Y282455D01*
X294701Y282487D01*
X294786Y282514D01*
X294871Y282539D01*
X294957Y282559D01*
X295044Y282576D01*
X295132Y282589D01*
X295220Y282598D01*
X295308Y282604D01*
X295397Y282606D01*
X295397Y282607D02*
X298530Y282607D01*
X298530Y286784D01*
X293309Y286784D01*
X376150Y419915D02*
X378238Y419915D01*
X378238Y419916D02*
X378327Y419918D01*
X378415Y419924D01*
X378503Y419933D01*
X378591Y419946D01*
X378678Y419963D01*
X378764Y419983D01*
X378849Y420008D01*
X378934Y420035D01*
X379017Y420067D01*
X379098Y420101D01*
X379178Y420140D01*
X379256Y420181D01*
X379333Y420226D01*
X379407Y420274D01*
X379480Y420325D01*
X379550Y420379D01*
X379617Y420437D01*
X379683Y420497D01*
X379745Y420559D01*
X379805Y420625D01*
X379863Y420692D01*
X379917Y420762D01*
X379968Y420835D01*
X380016Y420909D01*
X380061Y420986D01*
X380102Y421064D01*
X380141Y421144D01*
X380175Y421225D01*
X380207Y421308D01*
X380234Y421393D01*
X380259Y421478D01*
X380279Y421564D01*
X380296Y421651D01*
X380309Y421739D01*
X380318Y421827D01*
X380324Y421915D01*
X380326Y422004D01*
X380327Y422004D02*
X380327Y427225D01*
X380326Y427225D02*
X380324Y427314D01*
X380318Y427402D01*
X380309Y427490D01*
X380296Y427578D01*
X380279Y427665D01*
X380259Y427751D01*
X380234Y427836D01*
X380207Y427921D01*
X380175Y428004D01*
X380141Y428085D01*
X380102Y428165D01*
X380061Y428243D01*
X380016Y428320D01*
X379968Y428394D01*
X379917Y428467D01*
X379863Y428537D01*
X379805Y428604D01*
X379745Y428670D01*
X379683Y428732D01*
X379617Y428792D01*
X379550Y428850D01*
X379480Y428904D01*
X379407Y428955D01*
X379333Y429003D01*
X379256Y429048D01*
X379178Y429089D01*
X379098Y429128D01*
X379017Y429162D01*
X378934Y429194D01*
X378849Y429221D01*
X378764Y429246D01*
X378678Y429266D01*
X378591Y429283D01*
X378503Y429296D01*
X378415Y429305D01*
X378327Y429311D01*
X378238Y429313D01*
X376150Y429313D01*
X372681Y425136D02*
X369549Y425136D01*
X369460Y425134D01*
X369372Y425128D01*
X369284Y425119D01*
X369196Y425106D01*
X369109Y425089D01*
X369023Y425069D01*
X368938Y425044D01*
X368853Y425017D01*
X368770Y424985D01*
X368689Y424951D01*
X368609Y424912D01*
X368531Y424871D01*
X368454Y424826D01*
X368380Y424778D01*
X368307Y424727D01*
X368237Y424673D01*
X368170Y424615D01*
X368104Y424555D01*
X368042Y424493D01*
X367982Y424427D01*
X367924Y424360D01*
X367870Y424290D01*
X367819Y424217D01*
X367771Y424143D01*
X367726Y424066D01*
X367685Y423988D01*
X367646Y423908D01*
X367612Y423827D01*
X367580Y423744D01*
X367553Y423659D01*
X367528Y423574D01*
X367508Y423488D01*
X367491Y423401D01*
X367478Y423313D01*
X367469Y423225D01*
X367463Y423137D01*
X367461Y423048D01*
X367460Y423048D02*
X367460Y422526D01*
X367462Y422425D01*
X367468Y422324D01*
X367478Y422223D01*
X367491Y422123D01*
X367509Y422023D01*
X367530Y421924D01*
X367556Y421826D01*
X367585Y421729D01*
X367617Y421633D01*
X367654Y421539D01*
X367694Y421446D01*
X367738Y421354D01*
X367785Y421265D01*
X367836Y421177D01*
X367890Y421091D01*
X367947Y421008D01*
X368007Y420926D01*
X368071Y420848D01*
X368137Y420771D01*
X368207Y420698D01*
X368279Y420627D01*
X368354Y420559D01*
X368432Y420494D01*
X368512Y420432D01*
X368594Y420373D01*
X368679Y420317D01*
X368766Y420265D01*
X368854Y420216D01*
X368945Y420170D01*
X369037Y420129D01*
X369131Y420090D01*
X369226Y420056D01*
X369322Y420025D01*
X369420Y419998D01*
X369518Y419974D01*
X369618Y419955D01*
X369718Y419939D01*
X369818Y419927D01*
X369919Y419919D01*
X370020Y419915D01*
X370122Y419915D01*
X370223Y419919D01*
X370324Y419927D01*
X370424Y419939D01*
X370524Y419955D01*
X370624Y419974D01*
X370722Y419998D01*
X370820Y420025D01*
X370916Y420056D01*
X371011Y420090D01*
X371105Y420129D01*
X371197Y420170D01*
X371288Y420216D01*
X371376Y420265D01*
X371463Y420317D01*
X371548Y420373D01*
X371630Y420432D01*
X371710Y420494D01*
X371788Y420559D01*
X371863Y420627D01*
X371935Y420698D01*
X372005Y420771D01*
X372071Y420848D01*
X372135Y420926D01*
X372195Y421008D01*
X372252Y421091D01*
X372306Y421177D01*
X372357Y421265D01*
X372404Y421354D01*
X372448Y421446D01*
X372488Y421539D01*
X372525Y421633D01*
X372557Y421729D01*
X372586Y421826D01*
X372612Y421924D01*
X372633Y422023D01*
X372651Y422123D01*
X372664Y422223D01*
X372674Y422324D01*
X372680Y422425D01*
X372682Y422526D01*
X372681Y422526D02*
X372681Y425136D01*
X372679Y425262D01*
X372673Y425388D01*
X372664Y425514D01*
X372651Y425639D01*
X372633Y425764D01*
X372613Y425889D01*
X372588Y426013D01*
X372560Y426136D01*
X372528Y426258D01*
X372492Y426379D01*
X372453Y426499D01*
X372410Y426617D01*
X372363Y426734D01*
X372313Y426850D01*
X372259Y426965D01*
X372203Y427077D01*
X372142Y427188D01*
X372079Y427297D01*
X372012Y427404D01*
X371942Y427509D01*
X371868Y427612D01*
X371792Y427712D01*
X371713Y427810D01*
X371631Y427906D01*
X371545Y427999D01*
X371458Y428090D01*
X371367Y428177D01*
X371274Y428263D01*
X371178Y428345D01*
X371080Y428424D01*
X370980Y428500D01*
X370877Y428574D01*
X370772Y428644D01*
X370665Y428711D01*
X370556Y428774D01*
X370445Y428835D01*
X370333Y428891D01*
X370218Y428945D01*
X370102Y428995D01*
X369985Y429042D01*
X369867Y429085D01*
X369747Y429124D01*
X369626Y429160D01*
X369504Y429192D01*
X369381Y429220D01*
X369257Y429245D01*
X369132Y429265D01*
X369007Y429283D01*
X368882Y429296D01*
X368756Y429305D01*
X368630Y429311D01*
X368504Y429313D01*
X416635Y397332D02*
X418724Y397332D01*
X418724Y397333D02*
X418813Y397335D01*
X418901Y397341D01*
X418989Y397350D01*
X419077Y397363D01*
X419164Y397380D01*
X419250Y397400D01*
X419335Y397425D01*
X419420Y397452D01*
X419503Y397484D01*
X419584Y397518D01*
X419664Y397557D01*
X419742Y397598D01*
X419819Y397643D01*
X419893Y397691D01*
X419966Y397742D01*
X420036Y397796D01*
X420103Y397854D01*
X420169Y397914D01*
X420231Y397976D01*
X420291Y398042D01*
X420349Y398109D01*
X420403Y398179D01*
X420454Y398252D01*
X420502Y398326D01*
X420547Y398403D01*
X420588Y398481D01*
X420627Y398561D01*
X420661Y398642D01*
X420693Y398725D01*
X420720Y398810D01*
X420745Y398895D01*
X420765Y398981D01*
X420782Y399068D01*
X420795Y399156D01*
X420804Y399244D01*
X420810Y399332D01*
X420812Y399421D01*
X420812Y404642D01*
X420810Y404731D01*
X420804Y404819D01*
X420795Y404907D01*
X420782Y404995D01*
X420765Y405082D01*
X420745Y405168D01*
X420720Y405253D01*
X420693Y405338D01*
X420661Y405421D01*
X420627Y405502D01*
X420588Y405582D01*
X420547Y405660D01*
X420502Y405737D01*
X420454Y405811D01*
X420403Y405884D01*
X420349Y405954D01*
X420291Y406021D01*
X420231Y406087D01*
X420169Y406149D01*
X420103Y406209D01*
X420036Y406267D01*
X419966Y406321D01*
X419893Y406372D01*
X419819Y406420D01*
X419742Y406465D01*
X419664Y406506D01*
X419584Y406545D01*
X419503Y406579D01*
X419420Y406611D01*
X419335Y406638D01*
X419250Y406663D01*
X419164Y406683D01*
X419077Y406700D01*
X418989Y406713D01*
X418901Y406722D01*
X418813Y406728D01*
X418724Y406730D01*
X416635Y406730D01*
X411078Y401509D02*
X407945Y401509D01*
X411078Y401510D02*
X411167Y401512D01*
X411255Y401518D01*
X411343Y401527D01*
X411431Y401540D01*
X411518Y401557D01*
X411604Y401577D01*
X411689Y401602D01*
X411774Y401629D01*
X411857Y401661D01*
X411938Y401695D01*
X412018Y401734D01*
X412096Y401775D01*
X412173Y401820D01*
X412247Y401868D01*
X412320Y401919D01*
X412390Y401973D01*
X412457Y402031D01*
X412523Y402091D01*
X412585Y402153D01*
X412645Y402219D01*
X412703Y402286D01*
X412757Y402356D01*
X412808Y402429D01*
X412856Y402503D01*
X412901Y402580D01*
X412942Y402658D01*
X412981Y402738D01*
X413015Y402819D01*
X413047Y402902D01*
X413074Y402987D01*
X413099Y403072D01*
X413119Y403158D01*
X413136Y403245D01*
X413149Y403333D01*
X413158Y403421D01*
X413164Y403509D01*
X413166Y403598D01*
X413166Y404120D01*
X413167Y404120D02*
X413165Y404221D01*
X413159Y404322D01*
X413149Y404423D01*
X413136Y404523D01*
X413118Y404623D01*
X413097Y404722D01*
X413071Y404820D01*
X413042Y404917D01*
X413010Y405013D01*
X412973Y405107D01*
X412933Y405200D01*
X412889Y405292D01*
X412842Y405381D01*
X412791Y405469D01*
X412737Y405555D01*
X412680Y405638D01*
X412620Y405720D01*
X412556Y405798D01*
X412490Y405875D01*
X412420Y405948D01*
X412348Y406019D01*
X412273Y406087D01*
X412195Y406152D01*
X412115Y406214D01*
X412033Y406273D01*
X411948Y406329D01*
X411862Y406381D01*
X411773Y406430D01*
X411682Y406476D01*
X411590Y406517D01*
X411496Y406556D01*
X411401Y406590D01*
X411305Y406621D01*
X411207Y406648D01*
X411109Y406672D01*
X411009Y406691D01*
X410909Y406707D01*
X410809Y406719D01*
X410708Y406727D01*
X410607Y406731D01*
X410505Y406731D01*
X410404Y406727D01*
X410303Y406719D01*
X410203Y406707D01*
X410103Y406691D01*
X410003Y406672D01*
X409905Y406648D01*
X409807Y406621D01*
X409711Y406590D01*
X409616Y406556D01*
X409522Y406517D01*
X409430Y406476D01*
X409339Y406430D01*
X409251Y406381D01*
X409164Y406329D01*
X409079Y406273D01*
X408997Y406214D01*
X408917Y406152D01*
X408839Y406087D01*
X408764Y406019D01*
X408692Y405948D01*
X408622Y405875D01*
X408556Y405798D01*
X408492Y405720D01*
X408432Y405638D01*
X408375Y405555D01*
X408321Y405469D01*
X408270Y405381D01*
X408223Y405292D01*
X408179Y405200D01*
X408139Y405107D01*
X408102Y405013D01*
X408070Y404917D01*
X408041Y404820D01*
X408015Y404722D01*
X407994Y404623D01*
X407976Y404523D01*
X407963Y404423D01*
X407953Y404322D01*
X407947Y404221D01*
X407945Y404120D01*
X407945Y401509D01*
X407947Y401383D01*
X407953Y401257D01*
X407962Y401131D01*
X407975Y401006D01*
X407993Y400881D01*
X408013Y400756D01*
X408038Y400632D01*
X408066Y400509D01*
X408098Y400387D01*
X408134Y400266D01*
X408173Y400146D01*
X408216Y400028D01*
X408263Y399911D01*
X408313Y399795D01*
X408367Y399680D01*
X408423Y399568D01*
X408484Y399457D01*
X408547Y399348D01*
X408614Y399241D01*
X408684Y399136D01*
X408758Y399033D01*
X408834Y398933D01*
X408913Y398835D01*
X408995Y398739D01*
X409081Y398646D01*
X409168Y398555D01*
X409259Y398468D01*
X409352Y398382D01*
X409448Y398300D01*
X409546Y398221D01*
X409646Y398145D01*
X409749Y398071D01*
X409854Y398001D01*
X409961Y397934D01*
X410070Y397871D01*
X410181Y397810D01*
X410293Y397754D01*
X410408Y397700D01*
X410524Y397650D01*
X410641Y397603D01*
X410759Y397560D01*
X410879Y397521D01*
X411000Y397485D01*
X411122Y397453D01*
X411245Y397425D01*
X411369Y397400D01*
X411494Y397380D01*
X411619Y397362D01*
X411744Y397349D01*
X411870Y397340D01*
X411996Y397334D01*
X412122Y397332D01*
X472620Y369184D02*
X472620Y359786D01*
X472620Y369184D02*
X470010Y369184D01*
X469909Y369182D01*
X469808Y369176D01*
X469707Y369166D01*
X469607Y369153D01*
X469507Y369135D01*
X469408Y369114D01*
X469310Y369088D01*
X469213Y369059D01*
X469117Y369027D01*
X469023Y368990D01*
X468930Y368950D01*
X468838Y368906D01*
X468749Y368859D01*
X468661Y368808D01*
X468575Y368754D01*
X468492Y368697D01*
X468410Y368637D01*
X468332Y368573D01*
X468255Y368507D01*
X468182Y368437D01*
X468111Y368365D01*
X468043Y368290D01*
X467978Y368212D01*
X467916Y368132D01*
X467857Y368050D01*
X467801Y367965D01*
X467749Y367879D01*
X467700Y367790D01*
X467654Y367699D01*
X467613Y367607D01*
X467574Y367513D01*
X467540Y367418D01*
X467509Y367322D01*
X467482Y367224D01*
X467458Y367126D01*
X467439Y367026D01*
X467423Y366926D01*
X467411Y366826D01*
X467403Y366725D01*
X467399Y366624D01*
X467399Y366522D01*
X467403Y366421D01*
X467411Y366320D01*
X467423Y366220D01*
X467439Y366120D01*
X467458Y366020D01*
X467482Y365922D01*
X467509Y365824D01*
X467540Y365728D01*
X467574Y365633D01*
X467613Y365539D01*
X467654Y365447D01*
X467700Y365356D01*
X467749Y365268D01*
X467801Y365181D01*
X467857Y365096D01*
X467916Y365014D01*
X467978Y364934D01*
X468043Y364856D01*
X468111Y364781D01*
X468182Y364709D01*
X468255Y364639D01*
X468332Y364573D01*
X468410Y364509D01*
X468492Y364449D01*
X468575Y364392D01*
X468661Y364338D01*
X468749Y364287D01*
X468838Y364240D01*
X468930Y364196D01*
X469023Y364156D01*
X469117Y364119D01*
X469213Y364087D01*
X469310Y364058D01*
X469408Y364032D01*
X469507Y364011D01*
X469607Y363993D01*
X469707Y363980D01*
X469808Y363970D01*
X469909Y363964D01*
X470010Y363962D01*
X470010Y363963D02*
X472620Y363963D01*
X469488Y363963D02*
X467399Y359786D01*
X458312Y366834D02*
X458314Y366929D01*
X458320Y367023D01*
X458329Y367117D01*
X458342Y367211D01*
X458359Y367304D01*
X458380Y367396D01*
X458405Y367488D01*
X458433Y367578D01*
X458465Y367667D01*
X458500Y367755D01*
X458539Y367841D01*
X458581Y367926D01*
X458627Y368009D01*
X458676Y368090D01*
X458728Y368169D01*
X458783Y368246D01*
X458842Y368320D01*
X458903Y368392D01*
X458967Y368462D01*
X459034Y368529D01*
X459104Y368593D01*
X459176Y368654D01*
X459250Y368713D01*
X459327Y368768D01*
X459406Y368820D01*
X459487Y368869D01*
X459570Y368915D01*
X459655Y368957D01*
X459741Y368996D01*
X459829Y369031D01*
X459918Y369063D01*
X460008Y369091D01*
X460100Y369116D01*
X460192Y369137D01*
X460285Y369154D01*
X460379Y369167D01*
X460473Y369176D01*
X460567Y369182D01*
X460662Y369184D01*
X460662Y369183D02*
X460770Y369181D01*
X460879Y369175D01*
X460987Y369165D01*
X461094Y369152D01*
X461201Y369134D01*
X461308Y369113D01*
X461413Y369088D01*
X461518Y369059D01*
X461621Y369027D01*
X461723Y368990D01*
X461824Y368950D01*
X461923Y368907D01*
X462021Y368860D01*
X462117Y368809D01*
X462211Y368755D01*
X462303Y368698D01*
X462393Y368637D01*
X462481Y368573D01*
X462566Y368507D01*
X462649Y368437D01*
X462729Y368364D01*
X462807Y368288D01*
X462882Y368210D01*
X462954Y368129D01*
X463023Y368045D01*
X463089Y367959D01*
X463152Y367871D01*
X463211Y367780D01*
X463268Y367688D01*
X463321Y367593D01*
X463370Y367496D01*
X463416Y367398D01*
X463459Y367299D01*
X463498Y367197D01*
X463533Y367095D01*
X459095Y365006D02*
X459026Y365075D01*
X458960Y365146D01*
X458896Y365219D01*
X458835Y365295D01*
X458777Y365374D01*
X458723Y365454D01*
X458671Y365537D01*
X458623Y365621D01*
X458577Y365707D01*
X458536Y365795D01*
X458497Y365885D01*
X458462Y365976D01*
X458431Y366068D01*
X458403Y366161D01*
X458379Y366255D01*
X458359Y366350D01*
X458342Y366446D01*
X458329Y366543D01*
X458320Y366640D01*
X458314Y366737D01*
X458312Y366834D01*
X459095Y365007D02*
X463533Y359786D01*
X458312Y359786D01*
M02*
