G04 EAGLE Gerber RS-274X export*
G75*
%MOMM*%
%FSLAX34Y34*%
%LPD*%
%INSilkscreen Top*%
%IPPOS*%
%AMOC8*
5,1,8,0,0,1.08239X$1,22.5*%
G01*
%ADD10C,0.101600*%
%ADD11C,0.152400*%
%ADD12R,0.014731X0.014731*%
%ADD13R,0.147319X0.014731*%
%ADD14R,0.265175X0.014731*%
%ADD15R,0.383031X0.014731*%
%ADD16R,0.515619X0.014731*%
%ADD17R,0.633475X0.014731*%
%ADD18R,0.751331X0.014731*%
%ADD19R,0.883919X0.014731*%
%ADD20R,1.001775X0.014731*%
%ADD21R,1.119631X0.014731*%
%ADD22R,1.134363X0.014731*%
%ADD23R,1.149094X0.014731*%
%ADD24R,1.163825X0.014731*%
%ADD25R,1.178556X0.014731*%
%ADD26R,1.193288X0.014731*%
%ADD27R,1.222756X0.014731*%
%ADD28R,1.237488X0.014731*%
%ADD29R,1.266950X0.014731*%
%ADD30R,1.281681X0.014731*%
%ADD31R,1.311144X0.014731*%
%ADD32R,1.325881X0.014731*%
%ADD33R,1.355344X0.014731*%
%ADD34R,1.370075X0.014731*%
%ADD35R,1.384806X0.014731*%
%ADD36R,1.399538X0.014731*%
%ADD37R,1.414275X0.014731*%
%ADD38R,1.443738X0.014731*%
%ADD39R,1.458469X0.014731*%
%ADD40R,1.487931X0.014731*%
%ADD41R,1.502663X0.014731*%
%ADD42R,1.517394X0.014731*%
%ADD43R,1.532125X0.014731*%
%ADD44R,1.546856X0.014731*%
%ADD45R,1.576319X0.014731*%
%ADD46R,1.605788X0.014731*%
%ADD47R,1.620519X0.014731*%
%ADD48R,1.649981X0.014731*%
%ADD49R,1.664713X0.014731*%
%ADD50R,1.694175X0.014731*%
%ADD51R,1.708913X0.014731*%
%ADD52R,1.738375X0.014731*%
%ADD53R,1.753106X0.014731*%
%ADD54R,1.767838X0.014731*%
%ADD55R,1.782569X0.014731*%
%ADD56R,1.797306X0.014731*%
%ADD57R,0.117856X0.014731*%
%ADD58R,1.826769X0.014731*%
%ADD59R,0.235713X0.014731*%
%ADD60R,0.353569X0.014731*%
%ADD61R,1.856231X0.014731*%
%ADD62R,0.486156X0.014731*%
%ADD63R,1.870963X0.014731*%
%ADD64R,0.604013X0.014731*%
%ADD65R,0.721869X0.014731*%
%ADD66R,1.885694X0.014731*%
%ADD67R,0.839719X0.014731*%
%ADD68R,0.972306X0.014731*%
%ADD69R,1.090169X0.014731*%
%ADD70R,1.208025X0.014731*%
%ADD71R,1.252219X0.014731*%
%ADD72R,1.296412X0.014731*%
%ADD73R,1.340612X0.014731*%
%ADD74R,1.826763X0.014731*%
%ADD75R,1.414269X0.014731*%
%ADD76R,1.812031X0.014731*%
%ADD77R,1.429000X0.014731*%
%ADD78R,1.458462X0.014731*%
%ADD79R,1.473200X0.014731*%
%ADD80R,1.723644X0.014731*%
%ADD81R,1.694181X0.014731*%
%ADD82R,1.679450X0.014731*%
%ADD83R,1.561594X0.014731*%
%ADD84R,1.576325X0.014731*%
%ADD85R,1.591056X0.014731*%
%ADD86R,1.635250X0.014731*%
%ADD87R,1.561588X0.014731*%
%ADD88R,1.443731X0.014731*%
%ADD89R,1.797300X0.014731*%
%ADD90R,1.841500X0.014731*%
%ADD91R,1.311150X0.014731*%
%ADD92R,1.296419X0.014731*%
%ADD93R,1.193294X0.014731*%
%ADD94R,0.957575X0.014731*%
%ADD95R,0.589281X0.014731*%
%ADD96R,0.471425X0.014731*%
%ADD97R,0.220975X0.014731*%
%ADD98R,1.812038X0.014731*%
%ADD99R,0.103119X0.014731*%
%ADD100R,0.029463X0.014731*%
%ADD101R,0.162050X0.014731*%
%ADD102R,0.397763X0.014731*%
%ADD103R,0.648206X0.014731*%
%ADD104R,1.679444X0.014731*%
%ADD105R,1.016506X0.014731*%
%ADD106R,1.104900X0.014731*%
%ADD107R,1.222750X0.014731*%
%ADD108R,1.429006X0.014731*%
%ADD109R,1.208019X0.014731*%
%ADD110R,0.987044X0.014731*%
%ADD111R,0.854456X0.014731*%
%ADD112R,0.618744X0.014731*%
%ADD113R,0.500888X0.014731*%
%ADD114R,0.368300X0.014731*%
%ADD115R,0.132587X0.014731*%
%ADD116R,1.664719X0.014731*%
%ADD117R,1.075438X0.014731*%
%ADD118R,0.942844X0.014731*%
%ADD119R,0.707131X0.014731*%
%ADD120R,0.456694X0.014731*%
%ADD121R,0.088388X0.014731*%
%ADD122C,0.050800*%
%ADD123C,0.076200*%
%ADD124C,0.127000*%
%ADD125R,0.457200X0.584200*%


D10*
X405968Y475329D02*
X408626Y473467D01*
X408720Y473404D01*
X408816Y473344D01*
X408914Y473287D01*
X409014Y473234D01*
X409116Y473184D01*
X409220Y473138D01*
X409325Y473096D01*
X409431Y473057D01*
X409539Y473022D01*
X409648Y472991D01*
X409758Y472963D01*
X409869Y472940D01*
X409980Y472920D01*
X410092Y472904D01*
X410205Y472892D01*
X410318Y472884D01*
X410431Y472880D01*
X410545Y472880D01*
X410658Y472884D01*
X410771Y472892D01*
X410884Y472904D01*
X410996Y472920D01*
X411107Y472940D01*
X411218Y472963D01*
X411328Y472991D01*
X411437Y473022D01*
X411545Y473057D01*
X411651Y473096D01*
X411756Y473138D01*
X411860Y473184D01*
X411962Y473234D01*
X412062Y473287D01*
X412160Y473344D01*
X412256Y473404D01*
X412350Y473467D01*
X412441Y473534D01*
X412531Y473603D01*
X412618Y473676D01*
X412702Y473752D01*
X412783Y473831D01*
X412862Y473912D01*
X412938Y473996D01*
X413011Y474083D01*
X413080Y474173D01*
X413147Y474264D01*
X413210Y474358D01*
X413270Y474454D01*
X413327Y474552D01*
X413380Y474652D01*
X413430Y474754D01*
X413476Y474858D01*
X413518Y474963D01*
X413557Y475069D01*
X413592Y475177D01*
X413623Y475286D01*
X413651Y475396D01*
X413674Y475507D01*
X413694Y475618D01*
X413710Y475730D01*
X413722Y475843D01*
X413730Y475956D01*
X413734Y476069D01*
X413734Y476183D01*
X413730Y476296D01*
X413722Y476409D01*
X413710Y476522D01*
X413694Y476634D01*
X413674Y476745D01*
X413651Y476856D01*
X413623Y476966D01*
X413592Y477075D01*
X413557Y477183D01*
X413518Y477289D01*
X413476Y477394D01*
X413430Y477498D01*
X413380Y477600D01*
X413327Y477700D01*
X413270Y477798D01*
X413210Y477894D01*
X413147Y477988D01*
X413080Y478079D01*
X413011Y478169D01*
X412938Y478256D01*
X412862Y478340D01*
X412783Y478421D01*
X412702Y478500D01*
X412618Y478576D01*
X412531Y478649D01*
X412442Y478718D01*
X412350Y478785D01*
X415860Y482666D02*
X412669Y484900D01*
X415859Y482666D02*
X415940Y482606D01*
X416019Y482544D01*
X416096Y482478D01*
X416170Y482410D01*
X416241Y482339D01*
X416309Y482265D01*
X416375Y482188D01*
X416437Y482109D01*
X416497Y482028D01*
X416553Y481944D01*
X416606Y481859D01*
X416655Y481771D01*
X416701Y481682D01*
X416744Y481590D01*
X416783Y481497D01*
X416818Y481403D01*
X416850Y481308D01*
X416878Y481211D01*
X416902Y481113D01*
X416922Y481015D01*
X416939Y480915D01*
X416951Y480815D01*
X416960Y480715D01*
X416965Y480615D01*
X416966Y480514D01*
X416963Y480413D01*
X416956Y480313D01*
X416945Y480213D01*
X416931Y480113D01*
X416912Y480014D01*
X416890Y479916D01*
X416864Y479819D01*
X416834Y479722D01*
X416801Y479628D01*
X416764Y479534D01*
X416723Y479442D01*
X416678Y479351D01*
X416631Y479263D01*
X416579Y479176D01*
X416525Y479092D01*
X416467Y479009D01*
X416406Y478929D01*
X416342Y478851D01*
X416275Y478776D01*
X416206Y478703D01*
X416133Y478634D01*
X416058Y478567D01*
X415980Y478503D01*
X415900Y478442D01*
X415817Y478384D01*
X415733Y478330D01*
X415646Y478278D01*
X415558Y478231D01*
X415467Y478186D01*
X415375Y478145D01*
X415281Y478108D01*
X415187Y478075D01*
X415090Y478045D01*
X414993Y478019D01*
X414895Y477997D01*
X414796Y477978D01*
X414696Y477964D01*
X414596Y477953D01*
X414496Y477946D01*
X414395Y477943D01*
X414294Y477944D01*
X414194Y477949D01*
X414094Y477958D01*
X413994Y477970D01*
X413894Y477987D01*
X413796Y478007D01*
X413698Y478031D01*
X413601Y478059D01*
X413506Y478091D01*
X413412Y478126D01*
X413319Y478165D01*
X413227Y478208D01*
X413138Y478254D01*
X413050Y478303D01*
X412965Y478356D01*
X412881Y478412D01*
X410754Y479901D01*
X421500Y478716D02*
X417989Y466911D01*
X427881Y474248D01*
X424693Y462217D02*
X427352Y460355D01*
X427446Y460292D01*
X427542Y460232D01*
X427640Y460175D01*
X427740Y460122D01*
X427842Y460072D01*
X427946Y460026D01*
X428051Y459984D01*
X428157Y459945D01*
X428265Y459910D01*
X428374Y459879D01*
X428484Y459851D01*
X428595Y459828D01*
X428706Y459808D01*
X428818Y459792D01*
X428931Y459780D01*
X429044Y459772D01*
X429157Y459768D01*
X429271Y459768D01*
X429384Y459772D01*
X429497Y459780D01*
X429610Y459792D01*
X429722Y459808D01*
X429833Y459828D01*
X429944Y459851D01*
X430054Y459879D01*
X430163Y459910D01*
X430271Y459945D01*
X430377Y459984D01*
X430482Y460026D01*
X430586Y460072D01*
X430688Y460122D01*
X430788Y460175D01*
X430886Y460232D01*
X430982Y460292D01*
X431076Y460355D01*
X431167Y460422D01*
X431257Y460491D01*
X431344Y460564D01*
X431428Y460640D01*
X431509Y460719D01*
X431588Y460800D01*
X431664Y460884D01*
X431737Y460971D01*
X431806Y461061D01*
X431873Y461152D01*
X431936Y461246D01*
X431996Y461342D01*
X432053Y461440D01*
X432106Y461540D01*
X432156Y461642D01*
X432202Y461746D01*
X432244Y461851D01*
X432283Y461957D01*
X432318Y462065D01*
X432349Y462174D01*
X432377Y462284D01*
X432400Y462395D01*
X432420Y462506D01*
X432436Y462618D01*
X432448Y462731D01*
X432456Y462844D01*
X432460Y462957D01*
X432460Y463071D01*
X432456Y463184D01*
X432448Y463297D01*
X432436Y463410D01*
X432420Y463522D01*
X432400Y463633D01*
X432377Y463744D01*
X432349Y463854D01*
X432318Y463963D01*
X432283Y464071D01*
X432244Y464177D01*
X432202Y464282D01*
X432156Y464386D01*
X432106Y464488D01*
X432053Y464588D01*
X431996Y464686D01*
X431936Y464782D01*
X431873Y464876D01*
X431806Y464967D01*
X431737Y465057D01*
X431664Y465144D01*
X431588Y465228D01*
X431509Y465309D01*
X431428Y465388D01*
X431344Y465464D01*
X431257Y465537D01*
X431168Y465606D01*
X431076Y465673D01*
X434585Y469554D02*
X431395Y471788D01*
X434585Y469554D02*
X434666Y469494D01*
X434745Y469432D01*
X434822Y469366D01*
X434896Y469298D01*
X434967Y469227D01*
X435035Y469153D01*
X435101Y469076D01*
X435163Y468997D01*
X435223Y468916D01*
X435279Y468832D01*
X435332Y468747D01*
X435381Y468659D01*
X435427Y468570D01*
X435470Y468478D01*
X435509Y468385D01*
X435544Y468291D01*
X435576Y468196D01*
X435604Y468099D01*
X435628Y468001D01*
X435648Y467903D01*
X435665Y467803D01*
X435677Y467703D01*
X435686Y467603D01*
X435691Y467503D01*
X435692Y467402D01*
X435689Y467301D01*
X435682Y467201D01*
X435671Y467101D01*
X435657Y467001D01*
X435638Y466902D01*
X435616Y466804D01*
X435590Y466707D01*
X435560Y466610D01*
X435527Y466516D01*
X435490Y466422D01*
X435449Y466330D01*
X435404Y466239D01*
X435357Y466151D01*
X435305Y466064D01*
X435251Y465980D01*
X435193Y465897D01*
X435132Y465817D01*
X435068Y465739D01*
X435001Y465664D01*
X434932Y465591D01*
X434859Y465522D01*
X434784Y465455D01*
X434706Y465391D01*
X434626Y465330D01*
X434543Y465272D01*
X434459Y465218D01*
X434372Y465166D01*
X434284Y465119D01*
X434193Y465074D01*
X434101Y465033D01*
X434007Y464996D01*
X433913Y464963D01*
X433816Y464933D01*
X433719Y464907D01*
X433621Y464885D01*
X433522Y464866D01*
X433422Y464852D01*
X433322Y464841D01*
X433222Y464834D01*
X433121Y464831D01*
X433020Y464832D01*
X432920Y464837D01*
X432820Y464846D01*
X432720Y464858D01*
X432620Y464875D01*
X432522Y464895D01*
X432424Y464919D01*
X432327Y464947D01*
X432232Y464979D01*
X432138Y465014D01*
X432045Y465053D01*
X431953Y465096D01*
X431864Y465142D01*
X431776Y465191D01*
X431691Y465244D01*
X431607Y465300D01*
X429480Y466789D01*
X497242Y334770D02*
X497242Y331524D01*
X497242Y334770D02*
X497240Y334883D01*
X497234Y334996D01*
X497224Y335109D01*
X497210Y335222D01*
X497193Y335334D01*
X497171Y335445D01*
X497146Y335555D01*
X497116Y335665D01*
X497083Y335773D01*
X497046Y335880D01*
X497006Y335986D01*
X496961Y336090D01*
X496913Y336193D01*
X496862Y336294D01*
X496807Y336393D01*
X496749Y336490D01*
X496687Y336585D01*
X496622Y336678D01*
X496554Y336768D01*
X496483Y336856D01*
X496408Y336942D01*
X496331Y337025D01*
X496251Y337105D01*
X496168Y337182D01*
X496082Y337257D01*
X495994Y337328D01*
X495904Y337396D01*
X495811Y337461D01*
X495716Y337523D01*
X495619Y337581D01*
X495520Y337636D01*
X495419Y337687D01*
X495316Y337735D01*
X495212Y337780D01*
X495106Y337820D01*
X494999Y337857D01*
X494891Y337890D01*
X494781Y337920D01*
X494671Y337945D01*
X494560Y337967D01*
X494448Y337984D01*
X494335Y337998D01*
X494222Y338008D01*
X494109Y338014D01*
X493996Y338016D01*
X493883Y338014D01*
X493770Y338008D01*
X493657Y337998D01*
X493544Y337984D01*
X493432Y337967D01*
X493321Y337945D01*
X493211Y337920D01*
X493101Y337890D01*
X492993Y337857D01*
X492886Y337820D01*
X492780Y337780D01*
X492676Y337735D01*
X492573Y337687D01*
X492472Y337636D01*
X492373Y337581D01*
X492276Y337523D01*
X492181Y337461D01*
X492088Y337396D01*
X491998Y337328D01*
X491910Y337257D01*
X491824Y337182D01*
X491741Y337105D01*
X491661Y337025D01*
X491584Y336942D01*
X491509Y336856D01*
X491438Y336768D01*
X491370Y336678D01*
X491305Y336585D01*
X491243Y336490D01*
X491185Y336393D01*
X491130Y336294D01*
X491079Y336193D01*
X491031Y336090D01*
X490986Y335986D01*
X490946Y335880D01*
X490909Y335773D01*
X490876Y335665D01*
X490846Y335555D01*
X490821Y335445D01*
X490799Y335334D01*
X490782Y335222D01*
X490768Y335109D01*
X490758Y334996D01*
X490752Y334883D01*
X490750Y334770D01*
X485558Y335419D02*
X485558Y331524D01*
X485558Y335419D02*
X485560Y335520D01*
X485566Y335620D01*
X485576Y335720D01*
X485589Y335820D01*
X485607Y335919D01*
X485628Y336018D01*
X485653Y336115D01*
X485682Y336212D01*
X485715Y336307D01*
X485751Y336401D01*
X485791Y336493D01*
X485834Y336584D01*
X485881Y336673D01*
X485931Y336760D01*
X485985Y336846D01*
X486042Y336929D01*
X486102Y337009D01*
X486165Y337088D01*
X486232Y337164D01*
X486301Y337237D01*
X486373Y337307D01*
X486447Y337375D01*
X486524Y337440D01*
X486604Y337501D01*
X486686Y337560D01*
X486770Y337615D01*
X486856Y337667D01*
X486944Y337716D01*
X487034Y337761D01*
X487126Y337803D01*
X487219Y337841D01*
X487314Y337875D01*
X487409Y337906D01*
X487506Y337933D01*
X487604Y337956D01*
X487703Y337976D01*
X487803Y337991D01*
X487903Y338003D01*
X488003Y338011D01*
X488104Y338015D01*
X488204Y338015D01*
X488305Y338011D01*
X488405Y338003D01*
X488505Y337991D01*
X488605Y337976D01*
X488704Y337956D01*
X488802Y337933D01*
X488899Y337906D01*
X488994Y337875D01*
X489089Y337841D01*
X489182Y337803D01*
X489274Y337761D01*
X489364Y337716D01*
X489452Y337667D01*
X489538Y337615D01*
X489622Y337560D01*
X489704Y337501D01*
X489784Y337440D01*
X489861Y337375D01*
X489935Y337307D01*
X490007Y337237D01*
X490076Y337164D01*
X490143Y337088D01*
X490206Y337009D01*
X490266Y336929D01*
X490323Y336846D01*
X490377Y336760D01*
X490427Y336673D01*
X490474Y336584D01*
X490517Y336493D01*
X490557Y336401D01*
X490593Y336307D01*
X490626Y336212D01*
X490655Y336115D01*
X490680Y336018D01*
X490701Y335919D01*
X490719Y335820D01*
X490732Y335720D01*
X490742Y335620D01*
X490748Y335520D01*
X490750Y335419D01*
X490751Y335419D02*
X490751Y332823D01*
X485558Y342305D02*
X497242Y346200D01*
X485558Y350095D01*
X497242Y354384D02*
X497242Y357630D01*
X497240Y357743D01*
X497234Y357856D01*
X497224Y357969D01*
X497210Y358082D01*
X497193Y358194D01*
X497171Y358305D01*
X497146Y358415D01*
X497116Y358525D01*
X497083Y358633D01*
X497046Y358740D01*
X497006Y358846D01*
X496961Y358950D01*
X496913Y359053D01*
X496862Y359154D01*
X496807Y359253D01*
X496749Y359350D01*
X496687Y359445D01*
X496622Y359538D01*
X496554Y359628D01*
X496483Y359716D01*
X496408Y359802D01*
X496331Y359885D01*
X496251Y359965D01*
X496168Y360042D01*
X496082Y360117D01*
X495994Y360188D01*
X495904Y360256D01*
X495811Y360321D01*
X495716Y360383D01*
X495619Y360441D01*
X495520Y360496D01*
X495419Y360547D01*
X495316Y360595D01*
X495212Y360640D01*
X495106Y360680D01*
X494999Y360717D01*
X494891Y360750D01*
X494781Y360780D01*
X494671Y360805D01*
X494560Y360827D01*
X494448Y360844D01*
X494335Y360858D01*
X494222Y360868D01*
X494109Y360874D01*
X493996Y360876D01*
X493883Y360874D01*
X493770Y360868D01*
X493657Y360858D01*
X493544Y360844D01*
X493432Y360827D01*
X493321Y360805D01*
X493211Y360780D01*
X493101Y360750D01*
X492993Y360717D01*
X492886Y360680D01*
X492780Y360640D01*
X492676Y360595D01*
X492573Y360547D01*
X492472Y360496D01*
X492373Y360441D01*
X492276Y360383D01*
X492181Y360321D01*
X492088Y360256D01*
X491998Y360188D01*
X491910Y360117D01*
X491824Y360042D01*
X491741Y359965D01*
X491661Y359885D01*
X491584Y359802D01*
X491509Y359716D01*
X491438Y359628D01*
X491370Y359538D01*
X491305Y359445D01*
X491243Y359350D01*
X491185Y359253D01*
X491130Y359154D01*
X491079Y359053D01*
X491031Y358950D01*
X490986Y358846D01*
X490946Y358740D01*
X490909Y358633D01*
X490876Y358525D01*
X490846Y358415D01*
X490821Y358305D01*
X490799Y358194D01*
X490782Y358082D01*
X490768Y357969D01*
X490758Y357856D01*
X490752Y357743D01*
X490750Y357630D01*
X485558Y358279D02*
X485558Y354384D01*
X485558Y358279D02*
X485560Y358380D01*
X485566Y358480D01*
X485576Y358580D01*
X485589Y358680D01*
X485607Y358779D01*
X485628Y358878D01*
X485653Y358975D01*
X485682Y359072D01*
X485715Y359167D01*
X485751Y359261D01*
X485791Y359353D01*
X485834Y359444D01*
X485881Y359533D01*
X485931Y359620D01*
X485985Y359706D01*
X486042Y359789D01*
X486102Y359869D01*
X486165Y359948D01*
X486232Y360024D01*
X486301Y360097D01*
X486373Y360167D01*
X486447Y360235D01*
X486524Y360300D01*
X486604Y360361D01*
X486686Y360420D01*
X486770Y360475D01*
X486856Y360527D01*
X486944Y360576D01*
X487034Y360621D01*
X487126Y360663D01*
X487219Y360701D01*
X487314Y360735D01*
X487409Y360766D01*
X487506Y360793D01*
X487604Y360816D01*
X487703Y360836D01*
X487803Y360851D01*
X487903Y360863D01*
X488003Y360871D01*
X488104Y360875D01*
X488204Y360875D01*
X488305Y360871D01*
X488405Y360863D01*
X488505Y360851D01*
X488605Y360836D01*
X488704Y360816D01*
X488802Y360793D01*
X488899Y360766D01*
X488994Y360735D01*
X489089Y360701D01*
X489182Y360663D01*
X489274Y360621D01*
X489364Y360576D01*
X489452Y360527D01*
X489538Y360475D01*
X489622Y360420D01*
X489704Y360361D01*
X489784Y360300D01*
X489861Y360235D01*
X489935Y360167D01*
X490007Y360097D01*
X490076Y360024D01*
X490143Y359948D01*
X490206Y359869D01*
X490266Y359789D01*
X490323Y359706D01*
X490377Y359620D01*
X490427Y359533D01*
X490474Y359444D01*
X490517Y359353D01*
X490557Y359261D01*
X490593Y359167D01*
X490626Y359072D01*
X490655Y358975D01*
X490680Y358878D01*
X490701Y358779D01*
X490719Y358680D01*
X490732Y358580D01*
X490742Y358480D01*
X490748Y358380D01*
X490750Y358279D01*
X490751Y358279D02*
X490751Y355683D01*
X411078Y206288D02*
X408420Y204427D01*
X411079Y206288D02*
X411170Y206355D01*
X411260Y206424D01*
X411347Y206497D01*
X411431Y206573D01*
X411512Y206652D01*
X411591Y206733D01*
X411667Y206817D01*
X411740Y206904D01*
X411809Y206994D01*
X411876Y207085D01*
X411939Y207179D01*
X411999Y207275D01*
X412056Y207373D01*
X412109Y207473D01*
X412159Y207575D01*
X412205Y207679D01*
X412247Y207784D01*
X412286Y207890D01*
X412321Y207998D01*
X412352Y208107D01*
X412380Y208217D01*
X412403Y208328D01*
X412423Y208439D01*
X412439Y208551D01*
X412451Y208664D01*
X412459Y208777D01*
X412463Y208890D01*
X412463Y209004D01*
X412459Y209117D01*
X412451Y209230D01*
X412439Y209343D01*
X412423Y209455D01*
X412403Y209566D01*
X412380Y209677D01*
X412352Y209787D01*
X412321Y209896D01*
X412286Y210004D01*
X412247Y210110D01*
X412205Y210215D01*
X412159Y210319D01*
X412109Y210421D01*
X412056Y210521D01*
X411999Y210619D01*
X411939Y210715D01*
X411876Y210809D01*
X411809Y210900D01*
X411740Y210990D01*
X411667Y211077D01*
X411591Y211161D01*
X411512Y211242D01*
X411431Y211321D01*
X411347Y211397D01*
X411260Y211470D01*
X411171Y211539D01*
X411079Y211606D01*
X410985Y211669D01*
X410889Y211729D01*
X410791Y211786D01*
X410691Y211839D01*
X410589Y211889D01*
X410485Y211935D01*
X410380Y211977D01*
X410274Y212016D01*
X410166Y212051D01*
X410057Y212082D01*
X409947Y212110D01*
X409836Y212133D01*
X409725Y212153D01*
X409613Y212169D01*
X409500Y212181D01*
X409387Y212189D01*
X409274Y212193D01*
X409160Y212193D01*
X409047Y212189D01*
X408934Y212181D01*
X408821Y212169D01*
X408709Y212153D01*
X408598Y212133D01*
X408487Y212110D01*
X408377Y212082D01*
X408268Y212051D01*
X408160Y212016D01*
X408054Y211977D01*
X407949Y211935D01*
X407845Y211889D01*
X407743Y211839D01*
X407643Y211786D01*
X407545Y211729D01*
X407449Y211669D01*
X407355Y211606D01*
X404908Y216232D02*
X401718Y213998D01*
X404909Y216232D02*
X404993Y216288D01*
X405078Y216341D01*
X405166Y216390D01*
X405255Y216436D01*
X405347Y216479D01*
X405440Y216518D01*
X405534Y216553D01*
X405629Y216585D01*
X405726Y216613D01*
X405824Y216637D01*
X405922Y216657D01*
X406022Y216674D01*
X406122Y216686D01*
X406222Y216695D01*
X406323Y216700D01*
X406423Y216701D01*
X406524Y216698D01*
X406624Y216691D01*
X406724Y216680D01*
X406824Y216666D01*
X406923Y216647D01*
X407021Y216625D01*
X407118Y216599D01*
X407215Y216569D01*
X407310Y216536D01*
X407403Y216499D01*
X407495Y216458D01*
X407586Y216413D01*
X407674Y216366D01*
X407761Y216314D01*
X407845Y216260D01*
X407928Y216202D01*
X408008Y216141D01*
X408086Y216077D01*
X408161Y216010D01*
X408234Y215941D01*
X408303Y215868D01*
X408370Y215793D01*
X408434Y215715D01*
X408495Y215635D01*
X408553Y215552D01*
X408607Y215468D01*
X408659Y215381D01*
X408706Y215293D01*
X408751Y215202D01*
X408792Y215110D01*
X408829Y215016D01*
X408862Y214922D01*
X408892Y214825D01*
X408918Y214728D01*
X408940Y214630D01*
X408959Y214531D01*
X408973Y214431D01*
X408984Y214331D01*
X408991Y214231D01*
X408994Y214130D01*
X408993Y214030D01*
X408988Y213929D01*
X408979Y213829D01*
X408967Y213729D01*
X408950Y213629D01*
X408930Y213531D01*
X408906Y213433D01*
X408878Y213336D01*
X408846Y213241D01*
X408811Y213147D01*
X408772Y213054D01*
X408729Y212962D01*
X408683Y212873D01*
X408634Y212785D01*
X408581Y212700D01*
X408525Y212616D01*
X408465Y212535D01*
X408403Y212456D01*
X408337Y212379D01*
X408269Y212305D01*
X408198Y212234D01*
X408124Y212166D01*
X408047Y212100D01*
X407968Y212038D01*
X407887Y211978D01*
X405760Y210489D01*
X410549Y220181D02*
X420441Y212844D01*
X416930Y224649D01*
X427146Y217539D02*
X429804Y219400D01*
X429805Y219400D02*
X429896Y219467D01*
X429986Y219536D01*
X430073Y219609D01*
X430157Y219685D01*
X430238Y219764D01*
X430317Y219845D01*
X430393Y219929D01*
X430466Y220016D01*
X430535Y220106D01*
X430602Y220197D01*
X430665Y220291D01*
X430725Y220387D01*
X430782Y220485D01*
X430835Y220585D01*
X430885Y220687D01*
X430931Y220791D01*
X430973Y220896D01*
X431012Y221002D01*
X431047Y221110D01*
X431078Y221219D01*
X431106Y221329D01*
X431129Y221440D01*
X431149Y221551D01*
X431165Y221663D01*
X431177Y221776D01*
X431185Y221889D01*
X431189Y222002D01*
X431189Y222116D01*
X431185Y222229D01*
X431177Y222342D01*
X431165Y222455D01*
X431149Y222567D01*
X431129Y222678D01*
X431106Y222789D01*
X431078Y222899D01*
X431047Y223008D01*
X431012Y223116D01*
X430973Y223222D01*
X430931Y223327D01*
X430885Y223431D01*
X430835Y223533D01*
X430782Y223633D01*
X430725Y223731D01*
X430665Y223827D01*
X430602Y223921D01*
X430535Y224012D01*
X430466Y224102D01*
X430393Y224189D01*
X430317Y224273D01*
X430238Y224354D01*
X430157Y224433D01*
X430073Y224509D01*
X429986Y224582D01*
X429897Y224651D01*
X429805Y224718D01*
X429711Y224781D01*
X429615Y224841D01*
X429517Y224898D01*
X429417Y224951D01*
X429315Y225001D01*
X429211Y225047D01*
X429106Y225089D01*
X429000Y225128D01*
X428892Y225163D01*
X428783Y225194D01*
X428673Y225222D01*
X428562Y225245D01*
X428451Y225265D01*
X428339Y225281D01*
X428226Y225293D01*
X428113Y225301D01*
X428000Y225305D01*
X427886Y225305D01*
X427773Y225301D01*
X427660Y225293D01*
X427547Y225281D01*
X427435Y225265D01*
X427324Y225245D01*
X427213Y225222D01*
X427103Y225194D01*
X426994Y225163D01*
X426886Y225128D01*
X426780Y225089D01*
X426675Y225047D01*
X426571Y225001D01*
X426469Y224951D01*
X426369Y224898D01*
X426271Y224841D01*
X426175Y224781D01*
X426081Y224718D01*
X423634Y229344D02*
X420444Y227110D01*
X423634Y229344D02*
X423718Y229400D01*
X423803Y229453D01*
X423891Y229502D01*
X423980Y229548D01*
X424072Y229591D01*
X424165Y229630D01*
X424259Y229665D01*
X424354Y229697D01*
X424451Y229725D01*
X424549Y229749D01*
X424647Y229769D01*
X424747Y229786D01*
X424847Y229798D01*
X424947Y229807D01*
X425048Y229812D01*
X425148Y229813D01*
X425249Y229810D01*
X425349Y229803D01*
X425449Y229792D01*
X425549Y229778D01*
X425648Y229759D01*
X425746Y229737D01*
X425843Y229711D01*
X425940Y229681D01*
X426035Y229648D01*
X426128Y229611D01*
X426220Y229570D01*
X426311Y229525D01*
X426399Y229478D01*
X426486Y229426D01*
X426570Y229372D01*
X426653Y229314D01*
X426733Y229253D01*
X426811Y229189D01*
X426886Y229122D01*
X426959Y229053D01*
X427028Y228980D01*
X427095Y228905D01*
X427159Y228827D01*
X427220Y228747D01*
X427278Y228664D01*
X427332Y228580D01*
X427384Y228493D01*
X427431Y228405D01*
X427476Y228314D01*
X427517Y228222D01*
X427554Y228128D01*
X427587Y228034D01*
X427617Y227937D01*
X427643Y227840D01*
X427665Y227742D01*
X427684Y227643D01*
X427698Y227543D01*
X427709Y227443D01*
X427716Y227343D01*
X427719Y227242D01*
X427718Y227142D01*
X427713Y227041D01*
X427704Y226941D01*
X427692Y226841D01*
X427675Y226741D01*
X427655Y226643D01*
X427631Y226545D01*
X427603Y226448D01*
X427571Y226353D01*
X427536Y226259D01*
X427497Y226166D01*
X427454Y226074D01*
X427408Y225985D01*
X427359Y225897D01*
X427306Y225812D01*
X427250Y225728D01*
X427190Y225647D01*
X427128Y225568D01*
X427062Y225491D01*
X426994Y225417D01*
X426923Y225346D01*
X426849Y225278D01*
X426772Y225212D01*
X426693Y225150D01*
X426612Y225090D01*
X426613Y225090D02*
X424486Y223600D01*
X262032Y219527D02*
X259373Y221389D01*
X262031Y219527D02*
X262125Y219464D01*
X262221Y219404D01*
X262319Y219347D01*
X262419Y219294D01*
X262521Y219244D01*
X262625Y219198D01*
X262730Y219156D01*
X262836Y219117D01*
X262944Y219082D01*
X263053Y219051D01*
X263163Y219023D01*
X263274Y219000D01*
X263385Y218980D01*
X263497Y218964D01*
X263610Y218952D01*
X263723Y218944D01*
X263836Y218940D01*
X263950Y218940D01*
X264063Y218944D01*
X264176Y218952D01*
X264289Y218964D01*
X264401Y218980D01*
X264512Y219000D01*
X264623Y219023D01*
X264733Y219051D01*
X264842Y219082D01*
X264950Y219117D01*
X265056Y219156D01*
X265161Y219198D01*
X265265Y219244D01*
X265367Y219294D01*
X265467Y219347D01*
X265565Y219404D01*
X265661Y219464D01*
X265755Y219527D01*
X265846Y219594D01*
X265936Y219663D01*
X266023Y219736D01*
X266107Y219812D01*
X266188Y219891D01*
X266267Y219972D01*
X266343Y220056D01*
X266416Y220143D01*
X266485Y220233D01*
X266552Y220324D01*
X266615Y220418D01*
X266675Y220514D01*
X266732Y220612D01*
X266785Y220712D01*
X266835Y220814D01*
X266881Y220918D01*
X266923Y221023D01*
X266962Y221129D01*
X266997Y221237D01*
X267028Y221346D01*
X267056Y221456D01*
X267079Y221567D01*
X267099Y221678D01*
X267115Y221790D01*
X267127Y221903D01*
X267135Y222016D01*
X267139Y222129D01*
X267139Y222243D01*
X267135Y222356D01*
X267127Y222469D01*
X267115Y222582D01*
X267099Y222694D01*
X267079Y222805D01*
X267056Y222916D01*
X267028Y223026D01*
X266997Y223135D01*
X266962Y223243D01*
X266923Y223349D01*
X266881Y223454D01*
X266835Y223558D01*
X266785Y223660D01*
X266732Y223760D01*
X266675Y223858D01*
X266615Y223954D01*
X266552Y224048D01*
X266485Y224139D01*
X266416Y224229D01*
X266343Y224316D01*
X266267Y224400D01*
X266188Y224481D01*
X266107Y224560D01*
X266023Y224636D01*
X265936Y224709D01*
X265847Y224778D01*
X265755Y224845D01*
X269265Y228726D02*
X266075Y230960D01*
X269265Y228726D02*
X269346Y228666D01*
X269425Y228604D01*
X269502Y228538D01*
X269576Y228470D01*
X269647Y228399D01*
X269715Y228325D01*
X269781Y228248D01*
X269843Y228169D01*
X269903Y228088D01*
X269959Y228004D01*
X270012Y227919D01*
X270061Y227831D01*
X270107Y227742D01*
X270150Y227650D01*
X270189Y227557D01*
X270224Y227463D01*
X270256Y227368D01*
X270284Y227271D01*
X270308Y227173D01*
X270328Y227075D01*
X270345Y226975D01*
X270357Y226875D01*
X270366Y226775D01*
X270371Y226675D01*
X270372Y226574D01*
X270369Y226473D01*
X270362Y226373D01*
X270351Y226273D01*
X270337Y226173D01*
X270318Y226074D01*
X270296Y225976D01*
X270270Y225879D01*
X270240Y225782D01*
X270207Y225688D01*
X270170Y225594D01*
X270129Y225502D01*
X270084Y225411D01*
X270037Y225323D01*
X269985Y225236D01*
X269931Y225152D01*
X269873Y225069D01*
X269812Y224989D01*
X269748Y224911D01*
X269681Y224836D01*
X269612Y224763D01*
X269539Y224694D01*
X269464Y224627D01*
X269386Y224563D01*
X269306Y224502D01*
X269223Y224444D01*
X269139Y224390D01*
X269052Y224338D01*
X268964Y224291D01*
X268873Y224246D01*
X268781Y224205D01*
X268687Y224168D01*
X268593Y224135D01*
X268496Y224105D01*
X268399Y224079D01*
X268301Y224057D01*
X268202Y224038D01*
X268102Y224024D01*
X268002Y224013D01*
X267902Y224006D01*
X267801Y224003D01*
X267700Y224004D01*
X267600Y224009D01*
X267500Y224018D01*
X267400Y224030D01*
X267300Y224047D01*
X267202Y224067D01*
X267104Y224091D01*
X267007Y224119D01*
X266912Y224151D01*
X266818Y224186D01*
X266725Y224225D01*
X266633Y224268D01*
X266544Y224314D01*
X266456Y224363D01*
X266371Y224416D01*
X266287Y224472D01*
X264160Y225961D01*
X274906Y224776D02*
X271395Y212971D01*
X281287Y220308D01*
X278099Y208277D02*
X280758Y206415D01*
X280757Y206415D02*
X280851Y206352D01*
X280947Y206292D01*
X281045Y206235D01*
X281145Y206182D01*
X281247Y206132D01*
X281351Y206086D01*
X281456Y206044D01*
X281562Y206005D01*
X281670Y205970D01*
X281779Y205939D01*
X281889Y205911D01*
X282000Y205888D01*
X282111Y205868D01*
X282223Y205852D01*
X282336Y205840D01*
X282449Y205832D01*
X282562Y205828D01*
X282676Y205828D01*
X282789Y205832D01*
X282902Y205840D01*
X283015Y205852D01*
X283127Y205868D01*
X283238Y205888D01*
X283349Y205911D01*
X283459Y205939D01*
X283568Y205970D01*
X283676Y206005D01*
X283782Y206044D01*
X283887Y206086D01*
X283991Y206132D01*
X284093Y206182D01*
X284193Y206235D01*
X284291Y206292D01*
X284387Y206352D01*
X284481Y206415D01*
X284572Y206482D01*
X284662Y206551D01*
X284749Y206624D01*
X284833Y206700D01*
X284914Y206779D01*
X284993Y206860D01*
X285069Y206944D01*
X285142Y207031D01*
X285211Y207121D01*
X285278Y207212D01*
X285341Y207306D01*
X285401Y207402D01*
X285458Y207500D01*
X285511Y207600D01*
X285561Y207702D01*
X285607Y207806D01*
X285649Y207911D01*
X285688Y208017D01*
X285723Y208125D01*
X285754Y208234D01*
X285782Y208344D01*
X285805Y208455D01*
X285825Y208566D01*
X285841Y208678D01*
X285853Y208791D01*
X285861Y208904D01*
X285865Y209017D01*
X285865Y209131D01*
X285861Y209244D01*
X285853Y209357D01*
X285841Y209470D01*
X285825Y209582D01*
X285805Y209693D01*
X285782Y209804D01*
X285754Y209914D01*
X285723Y210023D01*
X285688Y210131D01*
X285649Y210237D01*
X285607Y210342D01*
X285561Y210446D01*
X285511Y210548D01*
X285458Y210648D01*
X285401Y210746D01*
X285341Y210842D01*
X285278Y210936D01*
X285211Y211027D01*
X285142Y211117D01*
X285069Y211204D01*
X284993Y211288D01*
X284914Y211369D01*
X284833Y211448D01*
X284749Y211524D01*
X284662Y211597D01*
X284573Y211666D01*
X284481Y211733D01*
X287991Y215614D02*
X284801Y217848D01*
X287991Y215614D02*
X288072Y215554D01*
X288151Y215492D01*
X288228Y215426D01*
X288302Y215358D01*
X288373Y215287D01*
X288441Y215213D01*
X288507Y215136D01*
X288569Y215057D01*
X288629Y214976D01*
X288685Y214892D01*
X288738Y214807D01*
X288787Y214719D01*
X288833Y214630D01*
X288876Y214538D01*
X288915Y214445D01*
X288950Y214351D01*
X288982Y214256D01*
X289010Y214159D01*
X289034Y214061D01*
X289054Y213963D01*
X289071Y213863D01*
X289083Y213763D01*
X289092Y213663D01*
X289097Y213563D01*
X289098Y213462D01*
X289095Y213361D01*
X289088Y213261D01*
X289077Y213161D01*
X289063Y213061D01*
X289044Y212962D01*
X289022Y212864D01*
X288996Y212767D01*
X288966Y212670D01*
X288933Y212576D01*
X288896Y212482D01*
X288855Y212390D01*
X288810Y212299D01*
X288763Y212211D01*
X288711Y212124D01*
X288657Y212040D01*
X288599Y211957D01*
X288538Y211877D01*
X288474Y211799D01*
X288407Y211724D01*
X288338Y211651D01*
X288265Y211582D01*
X288190Y211515D01*
X288112Y211451D01*
X288032Y211390D01*
X287949Y211332D01*
X287865Y211278D01*
X287778Y211226D01*
X287690Y211179D01*
X287599Y211134D01*
X287507Y211093D01*
X287413Y211056D01*
X287319Y211023D01*
X287222Y210993D01*
X287125Y210967D01*
X287027Y210945D01*
X286928Y210926D01*
X286828Y210912D01*
X286728Y210901D01*
X286628Y210894D01*
X286527Y210891D01*
X286426Y210892D01*
X286326Y210897D01*
X286226Y210906D01*
X286126Y210918D01*
X286026Y210935D01*
X285928Y210955D01*
X285830Y210979D01*
X285733Y211007D01*
X285638Y211039D01*
X285544Y211074D01*
X285451Y211113D01*
X285359Y211156D01*
X285270Y211202D01*
X285182Y211251D01*
X285097Y211304D01*
X285013Y211360D01*
X285012Y211360D02*
X282886Y212849D01*
X206842Y331524D02*
X206842Y334770D01*
X206840Y334883D01*
X206834Y334996D01*
X206824Y335109D01*
X206810Y335222D01*
X206793Y335334D01*
X206771Y335445D01*
X206746Y335555D01*
X206716Y335665D01*
X206683Y335773D01*
X206646Y335880D01*
X206606Y335986D01*
X206561Y336090D01*
X206513Y336193D01*
X206462Y336294D01*
X206407Y336393D01*
X206349Y336490D01*
X206287Y336585D01*
X206222Y336678D01*
X206154Y336768D01*
X206083Y336856D01*
X206008Y336942D01*
X205931Y337025D01*
X205851Y337105D01*
X205768Y337182D01*
X205682Y337257D01*
X205594Y337328D01*
X205504Y337396D01*
X205411Y337461D01*
X205316Y337523D01*
X205219Y337581D01*
X205120Y337636D01*
X205019Y337687D01*
X204916Y337735D01*
X204812Y337780D01*
X204706Y337820D01*
X204599Y337857D01*
X204491Y337890D01*
X204381Y337920D01*
X204271Y337945D01*
X204160Y337967D01*
X204048Y337984D01*
X203935Y337998D01*
X203822Y338008D01*
X203709Y338014D01*
X203596Y338016D01*
X203483Y338014D01*
X203370Y338008D01*
X203257Y337998D01*
X203144Y337984D01*
X203032Y337967D01*
X202921Y337945D01*
X202811Y337920D01*
X202701Y337890D01*
X202593Y337857D01*
X202486Y337820D01*
X202380Y337780D01*
X202276Y337735D01*
X202173Y337687D01*
X202072Y337636D01*
X201973Y337581D01*
X201876Y337523D01*
X201781Y337461D01*
X201688Y337396D01*
X201598Y337328D01*
X201510Y337257D01*
X201424Y337182D01*
X201341Y337105D01*
X201261Y337025D01*
X201184Y336942D01*
X201109Y336856D01*
X201038Y336768D01*
X200970Y336678D01*
X200905Y336585D01*
X200843Y336490D01*
X200785Y336393D01*
X200730Y336294D01*
X200679Y336193D01*
X200631Y336090D01*
X200586Y335986D01*
X200546Y335880D01*
X200509Y335773D01*
X200476Y335665D01*
X200446Y335555D01*
X200421Y335445D01*
X200399Y335334D01*
X200382Y335222D01*
X200368Y335109D01*
X200358Y334996D01*
X200352Y334883D01*
X200350Y334770D01*
X195158Y335419D02*
X195158Y331524D01*
X195158Y335419D02*
X195160Y335520D01*
X195166Y335620D01*
X195176Y335720D01*
X195189Y335820D01*
X195207Y335919D01*
X195228Y336018D01*
X195253Y336115D01*
X195282Y336212D01*
X195315Y336307D01*
X195351Y336401D01*
X195391Y336493D01*
X195434Y336584D01*
X195481Y336673D01*
X195531Y336760D01*
X195585Y336846D01*
X195642Y336929D01*
X195702Y337009D01*
X195765Y337088D01*
X195832Y337164D01*
X195901Y337237D01*
X195973Y337307D01*
X196047Y337375D01*
X196124Y337440D01*
X196204Y337501D01*
X196286Y337560D01*
X196370Y337615D01*
X196456Y337667D01*
X196544Y337716D01*
X196634Y337761D01*
X196726Y337803D01*
X196819Y337841D01*
X196914Y337875D01*
X197009Y337906D01*
X197106Y337933D01*
X197204Y337956D01*
X197303Y337976D01*
X197403Y337991D01*
X197503Y338003D01*
X197603Y338011D01*
X197704Y338015D01*
X197804Y338015D01*
X197905Y338011D01*
X198005Y338003D01*
X198105Y337991D01*
X198205Y337976D01*
X198304Y337956D01*
X198402Y337933D01*
X198499Y337906D01*
X198594Y337875D01*
X198689Y337841D01*
X198782Y337803D01*
X198874Y337761D01*
X198964Y337716D01*
X199052Y337667D01*
X199138Y337615D01*
X199222Y337560D01*
X199304Y337501D01*
X199384Y337440D01*
X199461Y337375D01*
X199535Y337307D01*
X199607Y337237D01*
X199676Y337164D01*
X199743Y337088D01*
X199806Y337009D01*
X199866Y336929D01*
X199923Y336846D01*
X199977Y336760D01*
X200027Y336673D01*
X200074Y336584D01*
X200117Y336493D01*
X200157Y336401D01*
X200193Y336307D01*
X200226Y336212D01*
X200255Y336115D01*
X200280Y336018D01*
X200301Y335919D01*
X200319Y335820D01*
X200332Y335720D01*
X200342Y335620D01*
X200348Y335520D01*
X200350Y335419D01*
X200351Y335419D02*
X200351Y332823D01*
X195158Y342305D02*
X206842Y346200D01*
X195158Y350095D01*
X206842Y354384D02*
X206842Y357630D01*
X206840Y357743D01*
X206834Y357856D01*
X206824Y357969D01*
X206810Y358082D01*
X206793Y358194D01*
X206771Y358305D01*
X206746Y358415D01*
X206716Y358525D01*
X206683Y358633D01*
X206646Y358740D01*
X206606Y358846D01*
X206561Y358950D01*
X206513Y359053D01*
X206462Y359154D01*
X206407Y359253D01*
X206349Y359350D01*
X206287Y359445D01*
X206222Y359538D01*
X206154Y359628D01*
X206083Y359716D01*
X206008Y359802D01*
X205931Y359885D01*
X205851Y359965D01*
X205768Y360042D01*
X205682Y360117D01*
X205594Y360188D01*
X205504Y360256D01*
X205411Y360321D01*
X205316Y360383D01*
X205219Y360441D01*
X205120Y360496D01*
X205019Y360547D01*
X204916Y360595D01*
X204812Y360640D01*
X204706Y360680D01*
X204599Y360717D01*
X204491Y360750D01*
X204381Y360780D01*
X204271Y360805D01*
X204160Y360827D01*
X204048Y360844D01*
X203935Y360858D01*
X203822Y360868D01*
X203709Y360874D01*
X203596Y360876D01*
X203483Y360874D01*
X203370Y360868D01*
X203257Y360858D01*
X203144Y360844D01*
X203032Y360827D01*
X202921Y360805D01*
X202811Y360780D01*
X202701Y360750D01*
X202593Y360717D01*
X202486Y360680D01*
X202380Y360640D01*
X202276Y360595D01*
X202173Y360547D01*
X202072Y360496D01*
X201973Y360441D01*
X201876Y360383D01*
X201781Y360321D01*
X201688Y360256D01*
X201598Y360188D01*
X201510Y360117D01*
X201424Y360042D01*
X201341Y359965D01*
X201261Y359885D01*
X201184Y359802D01*
X201109Y359716D01*
X201038Y359628D01*
X200970Y359538D01*
X200905Y359445D01*
X200843Y359350D01*
X200785Y359253D01*
X200730Y359154D01*
X200679Y359053D01*
X200631Y358950D01*
X200586Y358846D01*
X200546Y358740D01*
X200509Y358633D01*
X200476Y358525D01*
X200446Y358415D01*
X200421Y358305D01*
X200399Y358194D01*
X200382Y358082D01*
X200368Y357969D01*
X200358Y357856D01*
X200352Y357743D01*
X200350Y357630D01*
X195158Y358279D02*
X195158Y354384D01*
X195158Y358279D02*
X195160Y358380D01*
X195166Y358480D01*
X195176Y358580D01*
X195189Y358680D01*
X195207Y358779D01*
X195228Y358878D01*
X195253Y358975D01*
X195282Y359072D01*
X195315Y359167D01*
X195351Y359261D01*
X195391Y359353D01*
X195434Y359444D01*
X195481Y359533D01*
X195531Y359620D01*
X195585Y359706D01*
X195642Y359789D01*
X195702Y359869D01*
X195765Y359948D01*
X195832Y360024D01*
X195901Y360097D01*
X195973Y360167D01*
X196047Y360235D01*
X196124Y360300D01*
X196204Y360361D01*
X196286Y360420D01*
X196370Y360475D01*
X196456Y360527D01*
X196544Y360576D01*
X196634Y360621D01*
X196726Y360663D01*
X196819Y360701D01*
X196914Y360735D01*
X197009Y360766D01*
X197106Y360793D01*
X197204Y360816D01*
X197303Y360836D01*
X197403Y360851D01*
X197503Y360863D01*
X197603Y360871D01*
X197704Y360875D01*
X197804Y360875D01*
X197905Y360871D01*
X198005Y360863D01*
X198105Y360851D01*
X198205Y360836D01*
X198304Y360816D01*
X198402Y360793D01*
X198499Y360766D01*
X198594Y360735D01*
X198689Y360701D01*
X198782Y360663D01*
X198874Y360621D01*
X198964Y360576D01*
X199052Y360527D01*
X199138Y360475D01*
X199222Y360420D01*
X199304Y360361D01*
X199384Y360300D01*
X199461Y360235D01*
X199535Y360167D01*
X199607Y360097D01*
X199676Y360024D01*
X199743Y359948D01*
X199806Y359869D01*
X199866Y359789D01*
X199923Y359706D01*
X199977Y359620D01*
X200027Y359533D01*
X200074Y359444D01*
X200117Y359353D01*
X200157Y359261D01*
X200193Y359167D01*
X200226Y359072D01*
X200255Y358975D01*
X200280Y358878D01*
X200301Y358779D01*
X200319Y358680D01*
X200332Y358580D01*
X200342Y358480D01*
X200348Y358380D01*
X200350Y358279D01*
X200351Y358279D02*
X200351Y355683D01*
X262816Y461501D02*
X265475Y463363D01*
X265475Y463362D02*
X265566Y463429D01*
X265656Y463498D01*
X265743Y463571D01*
X265827Y463647D01*
X265908Y463726D01*
X265987Y463807D01*
X266063Y463891D01*
X266136Y463978D01*
X266205Y464068D01*
X266272Y464159D01*
X266335Y464253D01*
X266395Y464349D01*
X266452Y464447D01*
X266505Y464547D01*
X266555Y464649D01*
X266601Y464753D01*
X266643Y464858D01*
X266682Y464964D01*
X266717Y465072D01*
X266748Y465181D01*
X266776Y465291D01*
X266799Y465402D01*
X266819Y465513D01*
X266835Y465625D01*
X266847Y465738D01*
X266855Y465851D01*
X266859Y465964D01*
X266859Y466078D01*
X266855Y466191D01*
X266847Y466304D01*
X266835Y466417D01*
X266819Y466529D01*
X266799Y466640D01*
X266776Y466751D01*
X266748Y466861D01*
X266717Y466970D01*
X266682Y467078D01*
X266643Y467184D01*
X266601Y467289D01*
X266555Y467393D01*
X266505Y467495D01*
X266452Y467595D01*
X266395Y467693D01*
X266335Y467789D01*
X266272Y467883D01*
X266205Y467974D01*
X266136Y468064D01*
X266063Y468151D01*
X265987Y468235D01*
X265908Y468316D01*
X265827Y468395D01*
X265743Y468471D01*
X265656Y468544D01*
X265567Y468613D01*
X265475Y468680D01*
X265381Y468743D01*
X265285Y468803D01*
X265187Y468860D01*
X265087Y468913D01*
X264985Y468963D01*
X264881Y469009D01*
X264776Y469051D01*
X264670Y469090D01*
X264562Y469125D01*
X264453Y469156D01*
X264343Y469184D01*
X264232Y469207D01*
X264121Y469227D01*
X264009Y469243D01*
X263896Y469255D01*
X263783Y469263D01*
X263670Y469267D01*
X263556Y469267D01*
X263443Y469263D01*
X263330Y469255D01*
X263217Y469243D01*
X263105Y469227D01*
X262994Y469207D01*
X262883Y469184D01*
X262773Y469156D01*
X262664Y469125D01*
X262556Y469090D01*
X262450Y469051D01*
X262345Y469009D01*
X262241Y468963D01*
X262139Y468913D01*
X262039Y468860D01*
X261941Y468803D01*
X261845Y468743D01*
X261751Y468680D01*
X259305Y473306D02*
X256114Y471072D01*
X259305Y473306D02*
X259389Y473362D01*
X259474Y473415D01*
X259562Y473464D01*
X259651Y473510D01*
X259743Y473553D01*
X259836Y473592D01*
X259930Y473627D01*
X260025Y473659D01*
X260122Y473687D01*
X260220Y473711D01*
X260318Y473731D01*
X260418Y473748D01*
X260518Y473760D01*
X260618Y473769D01*
X260719Y473774D01*
X260819Y473775D01*
X260920Y473772D01*
X261020Y473765D01*
X261120Y473754D01*
X261220Y473740D01*
X261319Y473721D01*
X261417Y473699D01*
X261514Y473673D01*
X261611Y473643D01*
X261706Y473610D01*
X261799Y473573D01*
X261891Y473532D01*
X261982Y473487D01*
X262070Y473440D01*
X262157Y473388D01*
X262241Y473334D01*
X262324Y473276D01*
X262404Y473215D01*
X262482Y473151D01*
X262557Y473084D01*
X262630Y473015D01*
X262699Y472942D01*
X262766Y472867D01*
X262830Y472789D01*
X262891Y472709D01*
X262949Y472626D01*
X263003Y472542D01*
X263055Y472455D01*
X263102Y472367D01*
X263147Y472276D01*
X263188Y472184D01*
X263225Y472090D01*
X263258Y471996D01*
X263288Y471899D01*
X263314Y471802D01*
X263336Y471704D01*
X263355Y471605D01*
X263369Y471505D01*
X263380Y471405D01*
X263387Y471305D01*
X263390Y471204D01*
X263389Y471104D01*
X263384Y471003D01*
X263375Y470903D01*
X263363Y470803D01*
X263346Y470703D01*
X263326Y470605D01*
X263302Y470507D01*
X263274Y470410D01*
X263242Y470315D01*
X263207Y470221D01*
X263168Y470128D01*
X263125Y470036D01*
X263079Y469947D01*
X263030Y469859D01*
X262977Y469774D01*
X262921Y469690D01*
X262861Y469609D01*
X262799Y469530D01*
X262733Y469453D01*
X262665Y469379D01*
X262594Y469308D01*
X262520Y469240D01*
X262443Y469174D01*
X262364Y469112D01*
X262283Y469052D01*
X260156Y467563D01*
X264945Y477256D02*
X274837Y469919D01*
X271326Y481723D01*
X281542Y474613D02*
X284200Y476475D01*
X284201Y476474D02*
X284292Y476541D01*
X284382Y476610D01*
X284469Y476683D01*
X284553Y476759D01*
X284634Y476838D01*
X284713Y476919D01*
X284789Y477003D01*
X284862Y477090D01*
X284931Y477180D01*
X284998Y477271D01*
X285061Y477365D01*
X285121Y477461D01*
X285178Y477559D01*
X285231Y477659D01*
X285281Y477761D01*
X285327Y477865D01*
X285369Y477970D01*
X285408Y478076D01*
X285443Y478184D01*
X285474Y478293D01*
X285502Y478403D01*
X285525Y478514D01*
X285545Y478625D01*
X285561Y478737D01*
X285573Y478850D01*
X285581Y478963D01*
X285585Y479076D01*
X285585Y479190D01*
X285581Y479303D01*
X285573Y479416D01*
X285561Y479529D01*
X285545Y479641D01*
X285525Y479752D01*
X285502Y479863D01*
X285474Y479973D01*
X285443Y480082D01*
X285408Y480190D01*
X285369Y480296D01*
X285327Y480401D01*
X285281Y480505D01*
X285231Y480607D01*
X285178Y480707D01*
X285121Y480805D01*
X285061Y480901D01*
X284998Y480995D01*
X284931Y481086D01*
X284862Y481176D01*
X284789Y481263D01*
X284713Y481347D01*
X284634Y481428D01*
X284553Y481507D01*
X284469Y481583D01*
X284382Y481656D01*
X284293Y481725D01*
X284201Y481792D01*
X284107Y481855D01*
X284011Y481915D01*
X283913Y481972D01*
X283813Y482025D01*
X283711Y482075D01*
X283607Y482121D01*
X283502Y482163D01*
X283396Y482202D01*
X283288Y482237D01*
X283179Y482268D01*
X283069Y482296D01*
X282958Y482319D01*
X282847Y482339D01*
X282735Y482355D01*
X282622Y482367D01*
X282509Y482375D01*
X282396Y482379D01*
X282282Y482379D01*
X282169Y482375D01*
X282056Y482367D01*
X281943Y482355D01*
X281831Y482339D01*
X281720Y482319D01*
X281609Y482296D01*
X281499Y482268D01*
X281390Y482237D01*
X281282Y482202D01*
X281176Y482163D01*
X281071Y482121D01*
X280967Y482075D01*
X280865Y482025D01*
X280765Y481972D01*
X280667Y481915D01*
X280571Y481855D01*
X280477Y481792D01*
X278030Y486418D02*
X274840Y484184D01*
X278031Y486418D02*
X278115Y486474D01*
X278200Y486527D01*
X278288Y486576D01*
X278377Y486622D01*
X278469Y486665D01*
X278562Y486704D01*
X278656Y486739D01*
X278751Y486771D01*
X278848Y486799D01*
X278946Y486823D01*
X279044Y486843D01*
X279144Y486860D01*
X279244Y486872D01*
X279344Y486881D01*
X279445Y486886D01*
X279545Y486887D01*
X279646Y486884D01*
X279746Y486877D01*
X279846Y486866D01*
X279946Y486852D01*
X280045Y486833D01*
X280143Y486811D01*
X280240Y486785D01*
X280337Y486755D01*
X280432Y486722D01*
X280525Y486685D01*
X280617Y486644D01*
X280708Y486599D01*
X280796Y486552D01*
X280883Y486500D01*
X280967Y486446D01*
X281050Y486388D01*
X281130Y486327D01*
X281208Y486263D01*
X281283Y486196D01*
X281356Y486127D01*
X281425Y486054D01*
X281492Y485979D01*
X281556Y485901D01*
X281617Y485821D01*
X281675Y485738D01*
X281729Y485654D01*
X281781Y485567D01*
X281828Y485479D01*
X281873Y485388D01*
X281914Y485296D01*
X281951Y485202D01*
X281984Y485108D01*
X282014Y485011D01*
X282040Y484914D01*
X282062Y484816D01*
X282081Y484717D01*
X282095Y484617D01*
X282106Y484517D01*
X282113Y484417D01*
X282116Y484316D01*
X282115Y484216D01*
X282110Y484115D01*
X282101Y484015D01*
X282089Y483915D01*
X282072Y483815D01*
X282052Y483717D01*
X282028Y483619D01*
X282000Y483522D01*
X281968Y483427D01*
X281933Y483333D01*
X281894Y483240D01*
X281851Y483148D01*
X281805Y483059D01*
X281756Y482971D01*
X281703Y482886D01*
X281647Y482802D01*
X281587Y482721D01*
X281525Y482642D01*
X281459Y482565D01*
X281391Y482491D01*
X281320Y482420D01*
X281246Y482352D01*
X281169Y482286D01*
X281090Y482224D01*
X281009Y482164D01*
X278882Y480675D01*
D11*
X433484Y424361D02*
X433484Y406581D01*
X433484Y424361D02*
X438423Y424361D01*
X438563Y424359D01*
X438702Y424353D01*
X438842Y424343D01*
X438981Y424329D01*
X439120Y424312D01*
X439258Y424290D01*
X439395Y424264D01*
X439532Y424235D01*
X439668Y424202D01*
X439802Y424165D01*
X439936Y424124D01*
X440068Y424079D01*
X440200Y424030D01*
X440329Y423978D01*
X440457Y423923D01*
X440584Y423863D01*
X440709Y423800D01*
X440832Y423734D01*
X440953Y423664D01*
X441072Y423591D01*
X441189Y423514D01*
X441303Y423434D01*
X441416Y423351D01*
X441526Y423265D01*
X441633Y423175D01*
X441738Y423083D01*
X441840Y422988D01*
X441940Y422890D01*
X442037Y422789D01*
X442131Y422685D01*
X442221Y422579D01*
X442309Y422470D01*
X442394Y422359D01*
X442475Y422245D01*
X442554Y422130D01*
X442629Y422012D01*
X442700Y421892D01*
X442768Y421769D01*
X442833Y421646D01*
X442894Y421520D01*
X442952Y421392D01*
X443006Y421264D01*
X443056Y421133D01*
X443103Y421001D01*
X443146Y420868D01*
X443185Y420734D01*
X443220Y420599D01*
X443251Y420463D01*
X443279Y420325D01*
X443302Y420188D01*
X443322Y420049D01*
X443338Y419910D01*
X443350Y419771D01*
X443358Y419632D01*
X443362Y419492D01*
X443362Y419352D01*
X443358Y419212D01*
X443350Y419073D01*
X443338Y418934D01*
X443322Y418795D01*
X443302Y418656D01*
X443279Y418519D01*
X443251Y418381D01*
X443220Y418245D01*
X443185Y418110D01*
X443146Y417976D01*
X443103Y417843D01*
X443056Y417711D01*
X443006Y417580D01*
X442952Y417452D01*
X442894Y417324D01*
X442833Y417198D01*
X442768Y417075D01*
X442700Y416953D01*
X442629Y416832D01*
X442554Y416714D01*
X442475Y416599D01*
X442394Y416485D01*
X442309Y416374D01*
X442221Y416265D01*
X442131Y416159D01*
X442037Y416055D01*
X441940Y415954D01*
X441840Y415856D01*
X441738Y415761D01*
X441633Y415669D01*
X441526Y415579D01*
X441416Y415493D01*
X441303Y415410D01*
X441189Y415330D01*
X441072Y415253D01*
X440953Y415180D01*
X440832Y415110D01*
X440709Y415044D01*
X440584Y414981D01*
X440457Y414921D01*
X440329Y414866D01*
X440200Y414814D01*
X440068Y414765D01*
X439936Y414720D01*
X439802Y414679D01*
X439668Y414642D01*
X439532Y414609D01*
X439395Y414580D01*
X439258Y414554D01*
X439120Y414532D01*
X438981Y414515D01*
X438842Y414501D01*
X438702Y414491D01*
X438563Y414485D01*
X438423Y414483D01*
X433484Y414483D01*
X449479Y420410D02*
X454418Y424361D01*
X454418Y406581D01*
X459356Y406581D02*
X449479Y406581D01*
X326450Y235598D02*
X326450Y217818D01*
X326450Y235598D02*
X331389Y235598D01*
X331529Y235596D01*
X331668Y235590D01*
X331808Y235580D01*
X331947Y235566D01*
X332086Y235549D01*
X332224Y235527D01*
X332361Y235501D01*
X332498Y235472D01*
X332634Y235439D01*
X332768Y235402D01*
X332902Y235361D01*
X333034Y235316D01*
X333166Y235267D01*
X333295Y235215D01*
X333423Y235160D01*
X333550Y235100D01*
X333675Y235037D01*
X333798Y234971D01*
X333919Y234901D01*
X334038Y234828D01*
X334155Y234751D01*
X334269Y234671D01*
X334382Y234588D01*
X334492Y234502D01*
X334599Y234412D01*
X334704Y234320D01*
X334806Y234225D01*
X334906Y234127D01*
X335003Y234026D01*
X335097Y233922D01*
X335187Y233816D01*
X335275Y233707D01*
X335360Y233596D01*
X335441Y233482D01*
X335520Y233367D01*
X335595Y233249D01*
X335666Y233129D01*
X335734Y233006D01*
X335799Y232883D01*
X335860Y232757D01*
X335918Y232629D01*
X335972Y232501D01*
X336022Y232370D01*
X336069Y232238D01*
X336112Y232105D01*
X336151Y231971D01*
X336186Y231836D01*
X336217Y231700D01*
X336245Y231562D01*
X336268Y231425D01*
X336288Y231286D01*
X336304Y231147D01*
X336316Y231008D01*
X336324Y230869D01*
X336328Y230729D01*
X336328Y230589D01*
X336324Y230449D01*
X336316Y230310D01*
X336304Y230171D01*
X336288Y230032D01*
X336268Y229893D01*
X336245Y229756D01*
X336217Y229618D01*
X336186Y229482D01*
X336151Y229347D01*
X336112Y229213D01*
X336069Y229080D01*
X336022Y228948D01*
X335972Y228817D01*
X335918Y228689D01*
X335860Y228561D01*
X335799Y228435D01*
X335734Y228312D01*
X335666Y228190D01*
X335595Y228069D01*
X335520Y227951D01*
X335441Y227836D01*
X335360Y227722D01*
X335275Y227611D01*
X335187Y227502D01*
X335097Y227396D01*
X335003Y227292D01*
X334906Y227191D01*
X334806Y227093D01*
X334704Y226998D01*
X334599Y226906D01*
X334492Y226816D01*
X334382Y226730D01*
X334269Y226647D01*
X334155Y226567D01*
X334038Y226490D01*
X333919Y226417D01*
X333798Y226347D01*
X333675Y226281D01*
X333550Y226218D01*
X333423Y226158D01*
X333295Y226103D01*
X333166Y226051D01*
X333034Y226002D01*
X332902Y225957D01*
X332768Y225916D01*
X332634Y225879D01*
X332498Y225846D01*
X332361Y225817D01*
X332224Y225791D01*
X332086Y225769D01*
X331947Y225752D01*
X331808Y225738D01*
X331668Y225728D01*
X331529Y225722D01*
X331389Y225720D01*
X326450Y225720D01*
X342445Y217818D02*
X347384Y217818D01*
X347524Y217820D01*
X347663Y217826D01*
X347803Y217836D01*
X347942Y217850D01*
X348081Y217867D01*
X348219Y217889D01*
X348356Y217915D01*
X348493Y217944D01*
X348629Y217977D01*
X348763Y218014D01*
X348897Y218055D01*
X349029Y218100D01*
X349161Y218149D01*
X349290Y218201D01*
X349418Y218256D01*
X349545Y218316D01*
X349670Y218379D01*
X349793Y218445D01*
X349914Y218515D01*
X350033Y218588D01*
X350150Y218665D01*
X350264Y218745D01*
X350377Y218828D01*
X350487Y218914D01*
X350594Y219004D01*
X350699Y219096D01*
X350801Y219191D01*
X350901Y219289D01*
X350998Y219390D01*
X351092Y219494D01*
X351182Y219600D01*
X351270Y219709D01*
X351355Y219820D01*
X351436Y219934D01*
X351515Y220049D01*
X351590Y220167D01*
X351661Y220288D01*
X351729Y220410D01*
X351794Y220533D01*
X351855Y220659D01*
X351913Y220787D01*
X351967Y220915D01*
X352017Y221046D01*
X352064Y221178D01*
X352107Y221311D01*
X352146Y221445D01*
X352181Y221580D01*
X352212Y221716D01*
X352240Y221854D01*
X352263Y221991D01*
X352283Y222130D01*
X352299Y222269D01*
X352311Y222408D01*
X352319Y222547D01*
X352323Y222687D01*
X352323Y222827D01*
X352319Y222967D01*
X352311Y223106D01*
X352299Y223245D01*
X352283Y223384D01*
X352263Y223523D01*
X352240Y223660D01*
X352212Y223798D01*
X352181Y223934D01*
X352146Y224069D01*
X352107Y224203D01*
X352064Y224336D01*
X352017Y224468D01*
X351967Y224599D01*
X351913Y224727D01*
X351855Y224855D01*
X351794Y224981D01*
X351729Y225104D01*
X351661Y225227D01*
X351590Y225347D01*
X351515Y225465D01*
X351436Y225580D01*
X351355Y225694D01*
X351270Y225805D01*
X351182Y225914D01*
X351092Y226020D01*
X350998Y226124D01*
X350901Y226225D01*
X350801Y226323D01*
X350699Y226418D01*
X350594Y226510D01*
X350487Y226600D01*
X350377Y226686D01*
X350264Y226769D01*
X350150Y226849D01*
X350033Y226926D01*
X349914Y226999D01*
X349793Y227069D01*
X349670Y227135D01*
X349545Y227198D01*
X349418Y227258D01*
X349290Y227313D01*
X349161Y227365D01*
X349029Y227414D01*
X348897Y227459D01*
X348763Y227500D01*
X348629Y227537D01*
X348493Y227570D01*
X348356Y227599D01*
X348219Y227625D01*
X348081Y227647D01*
X347942Y227664D01*
X347803Y227678D01*
X347663Y227688D01*
X347524Y227694D01*
X347384Y227696D01*
X348372Y235598D02*
X342445Y235598D01*
X348372Y235598D02*
X348496Y235596D01*
X348620Y235590D01*
X348744Y235580D01*
X348867Y235567D01*
X348990Y235549D01*
X349112Y235528D01*
X349234Y235503D01*
X349355Y235474D01*
X349474Y235441D01*
X349593Y235405D01*
X349710Y235364D01*
X349826Y235321D01*
X349941Y235273D01*
X350054Y235222D01*
X350166Y235167D01*
X350275Y235109D01*
X350383Y235048D01*
X350489Y234983D01*
X350593Y234915D01*
X350694Y234843D01*
X350794Y234769D01*
X350890Y234691D01*
X350985Y234611D01*
X351077Y234527D01*
X351166Y234441D01*
X351252Y234352D01*
X351336Y234260D01*
X351416Y234165D01*
X351494Y234069D01*
X351568Y233969D01*
X351640Y233868D01*
X351708Y233764D01*
X351773Y233658D01*
X351834Y233550D01*
X351892Y233441D01*
X351947Y233329D01*
X351998Y233216D01*
X352046Y233101D01*
X352089Y232985D01*
X352130Y232868D01*
X352166Y232749D01*
X352199Y232630D01*
X352228Y232509D01*
X352253Y232387D01*
X352274Y232265D01*
X352292Y232142D01*
X352305Y232019D01*
X352315Y231895D01*
X352321Y231771D01*
X352323Y231647D01*
X352321Y231523D01*
X352315Y231399D01*
X352305Y231275D01*
X352292Y231152D01*
X352274Y231029D01*
X352253Y230907D01*
X352228Y230785D01*
X352199Y230664D01*
X352166Y230545D01*
X352130Y230426D01*
X352089Y230309D01*
X352046Y230193D01*
X351998Y230078D01*
X351947Y229965D01*
X351892Y229853D01*
X351834Y229744D01*
X351773Y229636D01*
X351708Y229530D01*
X351640Y229426D01*
X351568Y229325D01*
X351494Y229225D01*
X351416Y229129D01*
X351336Y229034D01*
X351252Y228942D01*
X351166Y228853D01*
X351077Y228767D01*
X350985Y228683D01*
X350890Y228603D01*
X350794Y228525D01*
X350694Y228451D01*
X350593Y228379D01*
X350489Y228311D01*
X350383Y228246D01*
X350275Y228185D01*
X350166Y228127D01*
X350054Y228072D01*
X349941Y228021D01*
X349826Y227973D01*
X349710Y227930D01*
X349593Y227889D01*
X349474Y227853D01*
X349355Y227820D01*
X349234Y227791D01*
X349112Y227766D01*
X348990Y227745D01*
X348867Y227727D01*
X348744Y227714D01*
X348620Y227704D01*
X348496Y227698D01*
X348372Y227696D01*
X344421Y227696D01*
X232288Y276164D02*
X232288Y293944D01*
X237227Y293944D01*
X237367Y293942D01*
X237506Y293936D01*
X237646Y293926D01*
X237785Y293912D01*
X237924Y293895D01*
X238062Y293873D01*
X238199Y293847D01*
X238336Y293818D01*
X238472Y293785D01*
X238606Y293748D01*
X238740Y293707D01*
X238872Y293662D01*
X239004Y293613D01*
X239133Y293561D01*
X239261Y293506D01*
X239388Y293446D01*
X239513Y293383D01*
X239636Y293317D01*
X239757Y293247D01*
X239876Y293174D01*
X239993Y293097D01*
X240107Y293017D01*
X240220Y292934D01*
X240330Y292848D01*
X240437Y292758D01*
X240542Y292666D01*
X240644Y292571D01*
X240744Y292473D01*
X240841Y292372D01*
X240935Y292268D01*
X241025Y292162D01*
X241113Y292053D01*
X241198Y291942D01*
X241279Y291828D01*
X241358Y291713D01*
X241433Y291595D01*
X241504Y291475D01*
X241572Y291352D01*
X241637Y291229D01*
X241698Y291103D01*
X241756Y290975D01*
X241810Y290847D01*
X241860Y290716D01*
X241907Y290584D01*
X241950Y290451D01*
X241989Y290317D01*
X242024Y290182D01*
X242055Y290046D01*
X242083Y289908D01*
X242106Y289771D01*
X242126Y289632D01*
X242142Y289493D01*
X242154Y289354D01*
X242162Y289215D01*
X242166Y289075D01*
X242166Y288935D01*
X242162Y288795D01*
X242154Y288656D01*
X242142Y288517D01*
X242126Y288378D01*
X242106Y288239D01*
X242083Y288102D01*
X242055Y287964D01*
X242024Y287828D01*
X241989Y287693D01*
X241950Y287559D01*
X241907Y287426D01*
X241860Y287294D01*
X241810Y287163D01*
X241756Y287035D01*
X241698Y286907D01*
X241637Y286781D01*
X241572Y286658D01*
X241504Y286536D01*
X241433Y286415D01*
X241358Y286297D01*
X241279Y286182D01*
X241198Y286068D01*
X241113Y285957D01*
X241025Y285848D01*
X240935Y285742D01*
X240841Y285638D01*
X240744Y285537D01*
X240644Y285439D01*
X240542Y285344D01*
X240437Y285252D01*
X240330Y285162D01*
X240220Y285076D01*
X240107Y284993D01*
X239993Y284913D01*
X239876Y284836D01*
X239757Y284763D01*
X239636Y284693D01*
X239513Y284627D01*
X239388Y284564D01*
X239261Y284504D01*
X239133Y284449D01*
X239004Y284397D01*
X238872Y284348D01*
X238740Y284303D01*
X238606Y284262D01*
X238472Y284225D01*
X238336Y284192D01*
X238199Y284163D01*
X238062Y284137D01*
X237924Y284115D01*
X237785Y284098D01*
X237646Y284084D01*
X237506Y284074D01*
X237367Y284068D01*
X237227Y284066D01*
X232288Y284066D01*
X248283Y280115D02*
X252234Y293944D01*
X248283Y280115D02*
X258161Y280115D01*
X255198Y284066D02*
X255198Y276164D01*
X226781Y388138D02*
X226781Y405918D01*
X231720Y405918D01*
X231720Y405919D02*
X231860Y405917D01*
X231999Y405911D01*
X232139Y405901D01*
X232278Y405887D01*
X232417Y405870D01*
X232555Y405848D01*
X232692Y405822D01*
X232829Y405793D01*
X232965Y405760D01*
X233099Y405723D01*
X233233Y405682D01*
X233365Y405637D01*
X233497Y405588D01*
X233626Y405536D01*
X233754Y405481D01*
X233881Y405421D01*
X234006Y405358D01*
X234129Y405292D01*
X234250Y405222D01*
X234369Y405149D01*
X234486Y405072D01*
X234600Y404992D01*
X234713Y404909D01*
X234823Y404823D01*
X234930Y404733D01*
X235035Y404641D01*
X235137Y404546D01*
X235237Y404448D01*
X235334Y404347D01*
X235428Y404243D01*
X235518Y404137D01*
X235606Y404028D01*
X235691Y403917D01*
X235772Y403803D01*
X235851Y403688D01*
X235926Y403570D01*
X235997Y403450D01*
X236065Y403327D01*
X236130Y403204D01*
X236191Y403078D01*
X236249Y402950D01*
X236303Y402822D01*
X236353Y402691D01*
X236400Y402559D01*
X236443Y402426D01*
X236482Y402292D01*
X236517Y402157D01*
X236548Y402021D01*
X236576Y401883D01*
X236599Y401746D01*
X236619Y401607D01*
X236635Y401468D01*
X236647Y401329D01*
X236655Y401190D01*
X236659Y401050D01*
X236659Y400910D01*
X236655Y400770D01*
X236647Y400631D01*
X236635Y400492D01*
X236619Y400353D01*
X236599Y400214D01*
X236576Y400077D01*
X236548Y399939D01*
X236517Y399803D01*
X236482Y399668D01*
X236443Y399534D01*
X236400Y399401D01*
X236353Y399269D01*
X236303Y399138D01*
X236249Y399010D01*
X236191Y398882D01*
X236130Y398756D01*
X236065Y398633D01*
X235997Y398511D01*
X235926Y398390D01*
X235851Y398272D01*
X235772Y398157D01*
X235691Y398043D01*
X235606Y397932D01*
X235518Y397823D01*
X235428Y397717D01*
X235334Y397613D01*
X235237Y397512D01*
X235137Y397414D01*
X235035Y397319D01*
X234930Y397227D01*
X234823Y397137D01*
X234713Y397051D01*
X234600Y396968D01*
X234486Y396888D01*
X234369Y396811D01*
X234250Y396738D01*
X234129Y396668D01*
X234006Y396602D01*
X233881Y396539D01*
X233754Y396479D01*
X233626Y396424D01*
X233497Y396372D01*
X233365Y396323D01*
X233233Y396278D01*
X233099Y396237D01*
X232965Y396200D01*
X232829Y396167D01*
X232692Y396138D01*
X232555Y396112D01*
X232417Y396090D01*
X232278Y396073D01*
X232139Y396059D01*
X231999Y396049D01*
X231860Y396043D01*
X231720Y396041D01*
X226781Y396041D01*
X242776Y388138D02*
X248703Y388138D01*
X248703Y388139D02*
X248827Y388141D01*
X248951Y388147D01*
X249075Y388157D01*
X249198Y388170D01*
X249321Y388188D01*
X249443Y388209D01*
X249565Y388234D01*
X249686Y388263D01*
X249805Y388296D01*
X249924Y388332D01*
X250041Y388373D01*
X250157Y388416D01*
X250272Y388464D01*
X250385Y388515D01*
X250497Y388570D01*
X250606Y388628D01*
X250714Y388689D01*
X250820Y388754D01*
X250924Y388822D01*
X251025Y388894D01*
X251125Y388968D01*
X251221Y389046D01*
X251316Y389126D01*
X251408Y389210D01*
X251497Y389296D01*
X251583Y389385D01*
X251667Y389477D01*
X251747Y389572D01*
X251825Y389668D01*
X251899Y389768D01*
X251971Y389869D01*
X252039Y389973D01*
X252104Y390079D01*
X252165Y390187D01*
X252223Y390296D01*
X252278Y390408D01*
X252329Y390521D01*
X252377Y390636D01*
X252420Y390752D01*
X252461Y390869D01*
X252497Y390988D01*
X252530Y391107D01*
X252559Y391228D01*
X252584Y391350D01*
X252605Y391472D01*
X252623Y391595D01*
X252636Y391718D01*
X252646Y391842D01*
X252652Y391966D01*
X252654Y392090D01*
X252654Y394065D01*
X252652Y394189D01*
X252646Y394313D01*
X252636Y394437D01*
X252623Y394560D01*
X252605Y394683D01*
X252584Y394805D01*
X252559Y394927D01*
X252530Y395048D01*
X252497Y395167D01*
X252461Y395286D01*
X252420Y395403D01*
X252377Y395519D01*
X252329Y395634D01*
X252278Y395747D01*
X252223Y395859D01*
X252165Y395968D01*
X252104Y396076D01*
X252039Y396182D01*
X251971Y396286D01*
X251899Y396387D01*
X251825Y396487D01*
X251747Y396583D01*
X251667Y396678D01*
X251583Y396770D01*
X251497Y396859D01*
X251408Y396945D01*
X251316Y397029D01*
X251221Y397109D01*
X251125Y397187D01*
X251025Y397261D01*
X250924Y397333D01*
X250820Y397401D01*
X250714Y397466D01*
X250606Y397527D01*
X250497Y397585D01*
X250385Y397640D01*
X250272Y397691D01*
X250157Y397739D01*
X250041Y397782D01*
X249924Y397823D01*
X249805Y397859D01*
X249686Y397892D01*
X249565Y397921D01*
X249443Y397946D01*
X249321Y397967D01*
X249198Y397985D01*
X249075Y397998D01*
X248951Y398008D01*
X248827Y398014D01*
X248703Y398016D01*
X242776Y398016D01*
X242776Y405918D01*
X252654Y405918D01*
X335445Y459987D02*
X335445Y477767D01*
X340384Y477767D01*
X340524Y477765D01*
X340663Y477759D01*
X340803Y477749D01*
X340942Y477735D01*
X341081Y477718D01*
X341219Y477696D01*
X341356Y477670D01*
X341493Y477641D01*
X341629Y477608D01*
X341763Y477571D01*
X341897Y477530D01*
X342029Y477485D01*
X342161Y477436D01*
X342290Y477384D01*
X342418Y477329D01*
X342545Y477269D01*
X342670Y477206D01*
X342793Y477140D01*
X342914Y477070D01*
X343033Y476997D01*
X343150Y476920D01*
X343264Y476840D01*
X343377Y476757D01*
X343487Y476671D01*
X343594Y476581D01*
X343699Y476489D01*
X343801Y476394D01*
X343901Y476296D01*
X343998Y476195D01*
X344092Y476091D01*
X344182Y475985D01*
X344270Y475876D01*
X344355Y475765D01*
X344436Y475651D01*
X344515Y475536D01*
X344590Y475418D01*
X344661Y475298D01*
X344729Y475175D01*
X344794Y475052D01*
X344855Y474926D01*
X344913Y474798D01*
X344967Y474670D01*
X345017Y474539D01*
X345064Y474407D01*
X345107Y474274D01*
X345146Y474140D01*
X345181Y474005D01*
X345212Y473869D01*
X345240Y473731D01*
X345263Y473594D01*
X345283Y473455D01*
X345299Y473316D01*
X345311Y473177D01*
X345319Y473038D01*
X345323Y472898D01*
X345323Y472758D01*
X345319Y472618D01*
X345311Y472479D01*
X345299Y472340D01*
X345283Y472201D01*
X345263Y472062D01*
X345240Y471925D01*
X345212Y471787D01*
X345181Y471651D01*
X345146Y471516D01*
X345107Y471382D01*
X345064Y471249D01*
X345017Y471117D01*
X344967Y470986D01*
X344913Y470858D01*
X344855Y470730D01*
X344794Y470604D01*
X344729Y470481D01*
X344661Y470359D01*
X344590Y470238D01*
X344515Y470120D01*
X344436Y470005D01*
X344355Y469891D01*
X344270Y469780D01*
X344182Y469671D01*
X344092Y469565D01*
X343998Y469461D01*
X343901Y469360D01*
X343801Y469262D01*
X343699Y469167D01*
X343594Y469075D01*
X343487Y468985D01*
X343377Y468899D01*
X343264Y468816D01*
X343150Y468736D01*
X343033Y468659D01*
X342914Y468586D01*
X342793Y468516D01*
X342670Y468450D01*
X342545Y468387D01*
X342418Y468327D01*
X342290Y468272D01*
X342161Y468220D01*
X342029Y468171D01*
X341897Y468126D01*
X341763Y468085D01*
X341629Y468048D01*
X341493Y468015D01*
X341356Y467986D01*
X341219Y467960D01*
X341081Y467938D01*
X340942Y467921D01*
X340803Y467907D01*
X340663Y467897D01*
X340524Y467891D01*
X340384Y467889D01*
X335445Y467889D01*
X351441Y469865D02*
X357367Y469865D01*
X357491Y469863D01*
X357615Y469857D01*
X357739Y469847D01*
X357862Y469834D01*
X357985Y469816D01*
X358107Y469795D01*
X358229Y469770D01*
X358350Y469741D01*
X358469Y469708D01*
X358588Y469672D01*
X358705Y469631D01*
X358821Y469588D01*
X358936Y469540D01*
X359049Y469489D01*
X359161Y469434D01*
X359270Y469376D01*
X359378Y469315D01*
X359484Y469250D01*
X359588Y469182D01*
X359689Y469110D01*
X359789Y469036D01*
X359885Y468958D01*
X359980Y468878D01*
X360072Y468794D01*
X360161Y468708D01*
X360247Y468619D01*
X360331Y468527D01*
X360411Y468432D01*
X360489Y468336D01*
X360563Y468236D01*
X360635Y468135D01*
X360703Y468031D01*
X360768Y467925D01*
X360829Y467817D01*
X360887Y467708D01*
X360942Y467596D01*
X360993Y467483D01*
X361041Y467368D01*
X361084Y467252D01*
X361125Y467135D01*
X361161Y467016D01*
X361194Y466897D01*
X361223Y466776D01*
X361248Y466654D01*
X361269Y466532D01*
X361287Y466409D01*
X361300Y466286D01*
X361310Y466162D01*
X361316Y466038D01*
X361318Y465914D01*
X361318Y464926D01*
X361316Y464786D01*
X361310Y464647D01*
X361300Y464507D01*
X361286Y464368D01*
X361269Y464229D01*
X361247Y464091D01*
X361221Y463954D01*
X361192Y463817D01*
X361159Y463681D01*
X361122Y463547D01*
X361081Y463413D01*
X361036Y463281D01*
X360987Y463149D01*
X360935Y463020D01*
X360880Y462892D01*
X360820Y462765D01*
X360757Y462640D01*
X360691Y462517D01*
X360621Y462396D01*
X360548Y462277D01*
X360471Y462160D01*
X360391Y462046D01*
X360308Y461933D01*
X360222Y461823D01*
X360132Y461716D01*
X360040Y461611D01*
X359945Y461509D01*
X359847Y461409D01*
X359746Y461312D01*
X359642Y461218D01*
X359536Y461128D01*
X359427Y461040D01*
X359316Y460955D01*
X359202Y460874D01*
X359087Y460795D01*
X358969Y460720D01*
X358849Y460649D01*
X358726Y460581D01*
X358603Y460516D01*
X358477Y460455D01*
X358349Y460397D01*
X358221Y460343D01*
X358090Y460293D01*
X357958Y460246D01*
X357825Y460203D01*
X357691Y460164D01*
X357556Y460129D01*
X357420Y460098D01*
X357282Y460070D01*
X357145Y460047D01*
X357006Y460027D01*
X356867Y460011D01*
X356728Y459999D01*
X356589Y459991D01*
X356449Y459987D01*
X356309Y459987D01*
X356169Y459991D01*
X356030Y459999D01*
X355891Y460011D01*
X355752Y460027D01*
X355613Y460047D01*
X355476Y460070D01*
X355338Y460098D01*
X355202Y460129D01*
X355067Y460164D01*
X354933Y460203D01*
X354800Y460246D01*
X354668Y460293D01*
X354537Y460343D01*
X354409Y460397D01*
X354281Y460455D01*
X354155Y460516D01*
X354032Y460581D01*
X353910Y460649D01*
X353789Y460720D01*
X353671Y460795D01*
X353556Y460874D01*
X353442Y460955D01*
X353331Y461040D01*
X353222Y461128D01*
X353116Y461218D01*
X353012Y461312D01*
X352911Y461409D01*
X352813Y461509D01*
X352718Y461611D01*
X352626Y461716D01*
X352536Y461823D01*
X352450Y461933D01*
X352367Y462046D01*
X352287Y462160D01*
X352210Y462277D01*
X352137Y462396D01*
X352067Y462517D01*
X352001Y462640D01*
X351938Y462765D01*
X351878Y462892D01*
X351823Y463020D01*
X351771Y463149D01*
X351722Y463281D01*
X351677Y463413D01*
X351636Y463547D01*
X351599Y463681D01*
X351566Y463817D01*
X351537Y463954D01*
X351511Y464091D01*
X351489Y464229D01*
X351472Y464368D01*
X351458Y464507D01*
X351448Y464647D01*
X351442Y464786D01*
X351440Y464926D01*
X351441Y464926D02*
X351441Y469865D01*
X351443Y470059D01*
X351451Y470253D01*
X351462Y470446D01*
X351479Y470640D01*
X351500Y470832D01*
X351527Y471024D01*
X351557Y471216D01*
X351593Y471407D01*
X351633Y471596D01*
X351678Y471785D01*
X351727Y471973D01*
X351781Y472159D01*
X351840Y472344D01*
X351903Y472527D01*
X351970Y472709D01*
X352043Y472889D01*
X352119Y473067D01*
X352200Y473244D01*
X352285Y473418D01*
X352374Y473590D01*
X352468Y473760D01*
X352565Y473927D01*
X352667Y474093D01*
X352773Y474255D01*
X352882Y474415D01*
X352996Y474572D01*
X353113Y474727D01*
X353235Y474878D01*
X353360Y475026D01*
X353488Y475172D01*
X353620Y475314D01*
X353755Y475453D01*
X353894Y475588D01*
X354036Y475720D01*
X354182Y475848D01*
X354330Y475973D01*
X354481Y476095D01*
X354636Y476212D01*
X354793Y476326D01*
X354953Y476435D01*
X355115Y476541D01*
X355281Y476643D01*
X355448Y476740D01*
X355618Y476834D01*
X355790Y476923D01*
X355964Y477008D01*
X356141Y477089D01*
X356319Y477165D01*
X356499Y477238D01*
X356681Y477305D01*
X356864Y477368D01*
X357049Y477427D01*
X357235Y477481D01*
X357423Y477530D01*
X357612Y477575D01*
X357801Y477615D01*
X357992Y477651D01*
X358184Y477681D01*
X358376Y477708D01*
X358568Y477729D01*
X358762Y477746D01*
X358955Y477757D01*
X359149Y477765D01*
X359343Y477767D01*
D12*
X381630Y232096D03*
D13*
X381114Y232244D03*
D14*
X380525Y232391D03*
D15*
X380083Y232538D03*
D16*
X379567Y232686D03*
D17*
X379125Y232833D03*
D18*
X378536Y232980D03*
D19*
X378021Y233128D03*
D20*
X377579Y233275D03*
D21*
X377137Y233422D03*
D22*
X377063Y233570D03*
D23*
X377137Y233717D03*
D24*
X377210Y233864D03*
D25*
X377137Y234011D03*
D26*
X377210Y234159D03*
D27*
X377210Y234306D03*
D28*
X377284Y234453D03*
X377284Y234601D03*
D29*
X377284Y234748D03*
D30*
X377358Y234895D03*
D31*
X377358Y235043D03*
X377358Y235190D03*
D32*
X377431Y235337D03*
D33*
X377431Y235485D03*
D34*
X377505Y235632D03*
D35*
X377431Y235779D03*
D36*
X377505Y235927D03*
D37*
X377579Y236074D03*
D38*
X377579Y236221D03*
X377579Y236369D03*
D39*
X377652Y236516D03*
D40*
X377652Y236663D03*
D41*
X377726Y236811D03*
D42*
X377652Y236958D03*
D43*
X377726Y237105D03*
D44*
X377800Y237253D03*
D45*
X377800Y237400D03*
X377800Y237547D03*
D46*
X377800Y237694D03*
D47*
X377873Y237842D03*
X377873Y237989D03*
D48*
X377873Y238136D03*
D49*
X377947Y238284D03*
D50*
X377947Y238431D03*
X377947Y238578D03*
D51*
X378021Y238726D03*
D52*
X378021Y238873D03*
D53*
X378094Y239020D03*
D54*
X378021Y239168D03*
D55*
X378094Y239315D03*
D56*
X378168Y239462D03*
D57*
X398645Y239462D03*
D58*
X378168Y239610D03*
D59*
X398056Y239610D03*
D58*
X378168Y239757D03*
D60*
X397614Y239757D03*
D61*
X378168Y239904D03*
D62*
X397099Y239904D03*
D63*
X378242Y240052D03*
D64*
X396657Y240052D03*
D63*
X378242Y240199D03*
D65*
X396067Y240199D03*
D66*
X378168Y240346D03*
D67*
X395625Y240346D03*
D66*
X378168Y240494D03*
D68*
X395110Y240494D03*
D63*
X378094Y240641D03*
D69*
X394668Y240641D03*
D66*
X378021Y240788D03*
D21*
X394520Y240788D03*
D66*
X378021Y240936D03*
D23*
X394520Y240936D03*
D66*
X377873Y241083D03*
D24*
X394594Y241083D03*
D66*
X377873Y241230D03*
D25*
X394668Y241230D03*
D63*
X377800Y241377D03*
D26*
X394594Y241377D03*
D66*
X377726Y241525D03*
D70*
X394668Y241525D03*
D66*
X377726Y241672D03*
D28*
X394668Y241672D03*
D66*
X377579Y241819D03*
D71*
X394741Y241819D03*
D66*
X377579Y241967D03*
D71*
X394741Y241967D03*
D63*
X377505Y242114D03*
D30*
X394741Y242114D03*
D66*
X377431Y242261D03*
D72*
X394815Y242261D03*
D66*
X377431Y242409D03*
D32*
X394815Y242409D03*
D66*
X377284Y242556D03*
D32*
X394815Y242556D03*
D66*
X377284Y242703D03*
D73*
X394889Y242703D03*
D63*
X377210Y242851D03*
D34*
X394889Y242851D03*
D61*
X377284Y242998D03*
D35*
X394962Y242998D03*
D61*
X377284Y243145D03*
D36*
X394889Y243145D03*
D74*
X377284Y243293D03*
D75*
X394962Y243293D03*
D76*
X377358Y243440D03*
D77*
X395036Y243440D03*
D55*
X377358Y243587D03*
D78*
X395036Y243587D03*
D55*
X377358Y243735D03*
D78*
X395036Y243735D03*
D54*
X377431Y243882D03*
D79*
X395110Y243882D03*
D52*
X377431Y244029D03*
D41*
X395110Y244029D03*
D80*
X377505Y244177D03*
D41*
X395110Y244177D03*
D51*
X377431Y244324D03*
D43*
X395110Y244324D03*
D81*
X377505Y244471D03*
D44*
X395183Y244471D03*
D82*
X377579Y244619D03*
D83*
X395257Y244619D03*
D48*
X377579Y244766D03*
D84*
X395183Y244766D03*
D48*
X377579Y244913D03*
D85*
X395257Y244913D03*
D86*
X377652Y245060D03*
D47*
X395257Y245060D03*
D46*
X377652Y245208D03*
D86*
X395331Y245208D03*
D46*
X377652Y245355D03*
D86*
X395331Y245355D03*
D84*
X377652Y245502D03*
D49*
X395331Y245502D03*
D87*
X377726Y245650D03*
D82*
X395404Y245650D03*
D44*
X377800Y245797D03*
D51*
X395404Y245797D03*
D43*
X377726Y245944D03*
D51*
X395404Y245944D03*
D42*
X377800Y246092D03*
D80*
X395478Y246092D03*
D40*
X377800Y246239D03*
D53*
X395478Y246239D03*
D79*
X377873Y246386D03*
D54*
X395552Y246386D03*
D79*
X377873Y246534D03*
D55*
X395478Y246534D03*
D88*
X377873Y246681D03*
D89*
X395552Y246681D03*
D77*
X377947Y246828D03*
D76*
X395625Y246828D03*
D36*
X377947Y246976D03*
D90*
X395625Y246976D03*
D36*
X377947Y247123D03*
D90*
X395625Y247123D03*
D35*
X378021Y247270D03*
D63*
X395625Y247270D03*
D33*
X378021Y247418D03*
D66*
X395699Y247418D03*
D73*
X378094Y247565D03*
D63*
X395625Y247565D03*
D32*
X378021Y247712D03*
D66*
X395552Y247712D03*
D91*
X378094Y247860D03*
D66*
X395552Y247860D03*
D92*
X378168Y248007D03*
D63*
X395478Y248007D03*
D29*
X378168Y248154D03*
D66*
X395404Y248154D03*
D29*
X378168Y248302D03*
D66*
X395404Y248302D03*
D71*
X378242Y248449D03*
D66*
X395257Y248449D03*
D27*
X378242Y248596D03*
D66*
X395257Y248596D03*
D70*
X378315Y248743D03*
D63*
X395183Y248743D03*
D93*
X378242Y248891D03*
D66*
X395110Y248891D03*
D25*
X378315Y249038D03*
D66*
X395110Y249038D03*
D24*
X378389Y249185D03*
D66*
X394962Y249185D03*
D23*
X378315Y249333D03*
D66*
X394962Y249333D03*
D22*
X378389Y249480D03*
D63*
X394889Y249480D03*
D69*
X378315Y249627D03*
D66*
X394815Y249627D03*
D94*
X377800Y249775D03*
D66*
X394815Y249775D03*
D67*
X377210Y249922D03*
D66*
X394668Y249922D03*
D65*
X376768Y250069D03*
D66*
X394668Y250069D03*
D95*
X376253Y250217D03*
D61*
X394668Y250217D03*
D96*
X375811Y250364D03*
D90*
X394741Y250364D03*
D60*
X375222Y250511D03*
D90*
X394741Y250511D03*
D97*
X374706Y250659D03*
D98*
X394741Y250659D03*
D99*
X374264Y250806D03*
D56*
X394815Y250806D03*
D100*
X384061Y250953D03*
D55*
X394741Y250953D03*
D101*
X383545Y251101D03*
D54*
X394815Y251101D03*
D14*
X383029Y251248D03*
D53*
X394889Y251248D03*
D102*
X382514Y251395D03*
D80*
X394889Y251395D03*
D16*
X382072Y251543D03*
D80*
X394889Y251543D03*
D103*
X381556Y251690D03*
D81*
X394889Y251690D03*
D18*
X381041Y251837D03*
D104*
X394962Y251837D03*
D19*
X380525Y251985D03*
D49*
X395036Y251985D03*
D105*
X380009Y252132D03*
D48*
X394962Y252132D03*
D106*
X379567Y252279D03*
D86*
X395036Y252279D03*
D22*
X379567Y252426D03*
D47*
X395110Y252426D03*
D23*
X379641Y252574D03*
D85*
X395110Y252574D03*
D24*
X379715Y252721D03*
D85*
X395110Y252721D03*
D25*
X379641Y252868D03*
D87*
X395110Y252868D03*
D26*
X379715Y253016D03*
D44*
X395183Y253016D03*
D107*
X379715Y253163D03*
D43*
X395257Y253163D03*
D28*
X379788Y253310D03*
D42*
X395183Y253310D03*
D28*
X379788Y253458D03*
D41*
X395257Y253458D03*
D29*
X379788Y253605D03*
D79*
X395257Y253605D03*
D30*
X379862Y253752D03*
D39*
X395331Y253752D03*
D31*
X379862Y253900D03*
D39*
X395331Y253900D03*
D31*
X379862Y254047D03*
D108*
X395331Y254047D03*
D32*
X379936Y254194D03*
D75*
X395404Y254194D03*
D33*
X379936Y254342D03*
D35*
X395404Y254342D03*
D34*
X380009Y254489D03*
D35*
X395404Y254489D03*
X379936Y254636D03*
D34*
X395478Y254636D03*
D36*
X380009Y254784D03*
D73*
X395478Y254784D03*
D75*
X380083Y254931D03*
D73*
X395478Y254931D03*
D38*
X380083Y255078D03*
D91*
X395478Y255078D03*
D38*
X380083Y255226D03*
D72*
X395552Y255226D03*
D79*
X380083Y255373D03*
D30*
X395625Y255373D03*
D40*
X380157Y255520D03*
D29*
X395552Y255520D03*
D41*
X380230Y255668D03*
D71*
X395625Y255668D03*
D42*
X380157Y255815D03*
D27*
X395625Y255815D03*
D43*
X380230Y255962D03*
D109*
X395699Y255962D03*
D87*
X380230Y256109D03*
D109*
X395699Y256109D03*
D45*
X380304Y256257D03*
D25*
X395699Y256257D03*
D45*
X380304Y256404D03*
D24*
X395773Y256404D03*
D46*
X380304Y256551D03*
D23*
X395846Y256551D03*
D47*
X380378Y256699D03*
D22*
X395773Y256699D03*
D47*
X380378Y256846D03*
D106*
X395773Y256846D03*
D48*
X380378Y256993D03*
D110*
X395331Y256993D03*
D49*
X380451Y257141D03*
D111*
X394815Y257141D03*
D50*
X380451Y257288D03*
D18*
X394299Y257288D03*
D50*
X380451Y257435D03*
D112*
X393784Y257435D03*
D51*
X380525Y257583D03*
D113*
X393342Y257583D03*
D52*
X380525Y257730D03*
D114*
X392826Y257730D03*
D53*
X380599Y257877D03*
D14*
X392311Y257877D03*
D54*
X380525Y258025D03*
D115*
X391795Y258025D03*
D55*
X380599Y258172D03*
D12*
X391353Y258172D03*
D56*
X380672Y258319D03*
D58*
X380672Y258467D03*
X380672Y258614D03*
D61*
X380672Y258761D03*
D63*
X380746Y258909D03*
X380746Y259056D03*
D66*
X380672Y259203D03*
X380672Y259351D03*
X380525Y259498D03*
X380525Y259645D03*
D63*
X380451Y259792D03*
D66*
X380378Y259940D03*
X380378Y260087D03*
X380230Y260234D03*
X380230Y260382D03*
D63*
X380157Y260529D03*
D66*
X380083Y260676D03*
X380083Y260824D03*
D63*
X380009Y260971D03*
D66*
X379936Y261118D03*
X379936Y261266D03*
X379788Y261413D03*
X379788Y261560D03*
D63*
X379715Y261708D03*
D61*
X379788Y261855D03*
X379788Y262002D03*
D74*
X379788Y262150D03*
D76*
X379862Y262297D03*
D55*
X379862Y262444D03*
X379862Y262592D03*
D54*
X379936Y262739D03*
D52*
X379936Y262886D03*
D80*
X380009Y263034D03*
D51*
X379936Y263181D03*
D81*
X380009Y263328D03*
D82*
X380083Y263475D03*
D116*
X380009Y263623D03*
D48*
X380083Y263770D03*
D47*
X380083Y263917D03*
D46*
X380157Y264065D03*
X380157Y264212D03*
D84*
X380157Y264359D03*
D87*
X380230Y264507D03*
D43*
X380230Y264654D03*
X380230Y264801D03*
D42*
X380304Y264949D03*
D40*
X380304Y265096D03*
D79*
X380378Y265243D03*
X380378Y265391D03*
D88*
X380378Y265538D03*
D77*
X380451Y265685D03*
D36*
X380451Y265833D03*
X380451Y265980D03*
D35*
X380525Y266127D03*
D33*
X380525Y266275D03*
D73*
X380599Y266422D03*
D32*
X380525Y266569D03*
D91*
X380599Y266717D03*
D92*
X380672Y266864D03*
D29*
X380672Y267011D03*
X380672Y267158D03*
D28*
X380672Y267306D03*
D27*
X380746Y267453D03*
D70*
X380820Y267600D03*
D93*
X380746Y267748D03*
D25*
X380820Y267895D03*
D23*
X380820Y268042D03*
X380820Y268190D03*
D22*
X380893Y268337D03*
D117*
X380746Y268484D03*
D118*
X380230Y268632D03*
D67*
X379715Y268779D03*
D119*
X379199Y268926D03*
D95*
X378757Y269074D03*
D120*
X378242Y269221D03*
D60*
X377726Y269368D03*
D97*
X377210Y269516D03*
D121*
X376695Y269663D03*
D11*
X468816Y294555D02*
X468816Y312335D01*
X473755Y312335D01*
X473755Y312336D02*
X473895Y312334D01*
X474034Y312328D01*
X474174Y312318D01*
X474313Y312304D01*
X474452Y312287D01*
X474590Y312265D01*
X474727Y312239D01*
X474864Y312210D01*
X475000Y312177D01*
X475134Y312140D01*
X475268Y312099D01*
X475400Y312054D01*
X475532Y312005D01*
X475661Y311953D01*
X475789Y311898D01*
X475916Y311838D01*
X476041Y311775D01*
X476164Y311709D01*
X476285Y311639D01*
X476404Y311566D01*
X476521Y311489D01*
X476635Y311409D01*
X476748Y311326D01*
X476858Y311240D01*
X476965Y311150D01*
X477070Y311058D01*
X477172Y310963D01*
X477272Y310865D01*
X477369Y310764D01*
X477463Y310660D01*
X477553Y310554D01*
X477641Y310445D01*
X477726Y310334D01*
X477807Y310220D01*
X477886Y310105D01*
X477961Y309987D01*
X478032Y309867D01*
X478100Y309744D01*
X478165Y309621D01*
X478226Y309495D01*
X478284Y309367D01*
X478338Y309239D01*
X478388Y309108D01*
X478435Y308976D01*
X478478Y308843D01*
X478517Y308709D01*
X478552Y308574D01*
X478583Y308438D01*
X478611Y308300D01*
X478634Y308163D01*
X478654Y308024D01*
X478670Y307885D01*
X478682Y307746D01*
X478690Y307607D01*
X478694Y307467D01*
X478694Y307327D01*
X478690Y307187D01*
X478682Y307048D01*
X478670Y306909D01*
X478654Y306770D01*
X478634Y306631D01*
X478611Y306494D01*
X478583Y306356D01*
X478552Y306220D01*
X478517Y306085D01*
X478478Y305951D01*
X478435Y305818D01*
X478388Y305686D01*
X478338Y305555D01*
X478284Y305427D01*
X478226Y305299D01*
X478165Y305173D01*
X478100Y305050D01*
X478032Y304928D01*
X477961Y304807D01*
X477886Y304689D01*
X477807Y304574D01*
X477726Y304460D01*
X477641Y304349D01*
X477553Y304240D01*
X477463Y304134D01*
X477369Y304030D01*
X477272Y303929D01*
X477172Y303831D01*
X477070Y303736D01*
X476965Y303644D01*
X476858Y303554D01*
X476748Y303468D01*
X476635Y303385D01*
X476521Y303305D01*
X476404Y303228D01*
X476285Y303155D01*
X476164Y303085D01*
X476041Y303019D01*
X475916Y302956D01*
X475789Y302896D01*
X475661Y302841D01*
X475532Y302789D01*
X475400Y302740D01*
X475268Y302695D01*
X475134Y302654D01*
X475000Y302617D01*
X474864Y302584D01*
X474727Y302555D01*
X474590Y302529D01*
X474452Y302507D01*
X474313Y302490D01*
X474174Y302476D01*
X474034Y302466D01*
X473895Y302460D01*
X473755Y302458D01*
X468816Y302458D01*
X474743Y302458D02*
X478694Y294555D01*
X321649Y439819D02*
X316710Y439819D01*
X321649Y439819D02*
X321789Y439817D01*
X321928Y439811D01*
X322068Y439801D01*
X322207Y439787D01*
X322346Y439770D01*
X322484Y439748D01*
X322621Y439722D01*
X322758Y439693D01*
X322894Y439660D01*
X323028Y439623D01*
X323162Y439582D01*
X323294Y439537D01*
X323426Y439488D01*
X323555Y439436D01*
X323683Y439381D01*
X323810Y439321D01*
X323935Y439258D01*
X324058Y439192D01*
X324179Y439122D01*
X324298Y439049D01*
X324415Y438972D01*
X324529Y438892D01*
X324642Y438809D01*
X324752Y438723D01*
X324859Y438633D01*
X324964Y438541D01*
X325066Y438446D01*
X325166Y438348D01*
X325263Y438247D01*
X325357Y438143D01*
X325447Y438037D01*
X325535Y437928D01*
X325620Y437817D01*
X325701Y437703D01*
X325780Y437588D01*
X325855Y437470D01*
X325926Y437350D01*
X325994Y437227D01*
X326059Y437104D01*
X326120Y436978D01*
X326178Y436850D01*
X326232Y436722D01*
X326282Y436591D01*
X326329Y436459D01*
X326372Y436326D01*
X326411Y436192D01*
X326446Y436057D01*
X326477Y435921D01*
X326505Y435783D01*
X326528Y435646D01*
X326548Y435507D01*
X326564Y435368D01*
X326576Y435229D01*
X326584Y435090D01*
X326588Y434950D01*
X326588Y434810D01*
X326584Y434670D01*
X326576Y434531D01*
X326564Y434392D01*
X326548Y434253D01*
X326528Y434114D01*
X326505Y433977D01*
X326477Y433839D01*
X326446Y433703D01*
X326411Y433568D01*
X326372Y433434D01*
X326329Y433301D01*
X326282Y433169D01*
X326232Y433038D01*
X326178Y432910D01*
X326120Y432782D01*
X326059Y432656D01*
X325994Y432533D01*
X325926Y432411D01*
X325855Y432290D01*
X325780Y432172D01*
X325701Y432057D01*
X325620Y431943D01*
X325535Y431832D01*
X325447Y431723D01*
X325357Y431617D01*
X325263Y431513D01*
X325166Y431412D01*
X325066Y431314D01*
X324964Y431219D01*
X324859Y431127D01*
X324752Y431037D01*
X324642Y430951D01*
X324529Y430868D01*
X324415Y430788D01*
X324298Y430711D01*
X324179Y430638D01*
X324058Y430568D01*
X323935Y430502D01*
X323810Y430439D01*
X323683Y430379D01*
X323555Y430324D01*
X323426Y430272D01*
X323294Y430223D01*
X323162Y430178D01*
X323028Y430137D01*
X322894Y430100D01*
X322758Y430067D01*
X322621Y430038D01*
X322484Y430012D01*
X322346Y429990D01*
X322207Y429973D01*
X322068Y429959D01*
X321928Y429949D01*
X321789Y429943D01*
X321649Y429941D01*
X316710Y429941D01*
X316710Y447721D01*
X321649Y447721D01*
X321773Y447719D01*
X321897Y447713D01*
X322021Y447703D01*
X322144Y447690D01*
X322267Y447672D01*
X322389Y447651D01*
X322511Y447626D01*
X322632Y447597D01*
X322751Y447564D01*
X322870Y447528D01*
X322987Y447487D01*
X323103Y447444D01*
X323218Y447396D01*
X323331Y447345D01*
X323443Y447290D01*
X323552Y447232D01*
X323660Y447171D01*
X323766Y447106D01*
X323870Y447038D01*
X323971Y446966D01*
X324071Y446892D01*
X324167Y446814D01*
X324262Y446734D01*
X324354Y446650D01*
X324443Y446564D01*
X324529Y446475D01*
X324613Y446383D01*
X324693Y446288D01*
X324771Y446192D01*
X324845Y446092D01*
X324917Y445991D01*
X324985Y445887D01*
X325050Y445781D01*
X325111Y445673D01*
X325169Y445564D01*
X325224Y445452D01*
X325275Y445339D01*
X325323Y445224D01*
X325366Y445108D01*
X325407Y444991D01*
X325443Y444872D01*
X325476Y444753D01*
X325505Y444632D01*
X325530Y444510D01*
X325551Y444388D01*
X325569Y444265D01*
X325582Y444142D01*
X325592Y444018D01*
X325598Y443894D01*
X325600Y443770D01*
X325598Y443646D01*
X325592Y443522D01*
X325582Y443398D01*
X325569Y443275D01*
X325551Y443152D01*
X325530Y443030D01*
X325505Y442908D01*
X325476Y442787D01*
X325443Y442668D01*
X325407Y442549D01*
X325366Y442432D01*
X325323Y442316D01*
X325275Y442201D01*
X325224Y442088D01*
X325169Y441976D01*
X325111Y441867D01*
X325050Y441759D01*
X324985Y441653D01*
X324917Y441549D01*
X324845Y441448D01*
X324771Y441348D01*
X324693Y441252D01*
X324613Y441157D01*
X324529Y441065D01*
X324443Y440976D01*
X324354Y440890D01*
X324262Y440806D01*
X324167Y440726D01*
X324071Y440648D01*
X323971Y440574D01*
X323870Y440502D01*
X323766Y440434D01*
X323660Y440369D01*
X323552Y440308D01*
X323443Y440250D01*
X323331Y440195D01*
X323218Y440144D01*
X323103Y440096D01*
X322987Y440053D01*
X322870Y440012D01*
X322751Y439976D01*
X322632Y439943D01*
X322511Y439914D01*
X322389Y439889D01*
X322267Y439868D01*
X322144Y439850D01*
X322021Y439837D01*
X321897Y439827D01*
X321773Y439821D01*
X321649Y439819D01*
X266347Y447556D02*
X266347Y429776D01*
X266347Y447556D02*
X271286Y447556D01*
X271425Y447554D01*
X271563Y447548D01*
X271701Y447539D01*
X271839Y447525D01*
X271976Y447508D01*
X272113Y447486D01*
X272250Y447461D01*
X272385Y447432D01*
X272520Y447399D01*
X272653Y447363D01*
X272786Y447323D01*
X272917Y447279D01*
X273047Y447231D01*
X273176Y447180D01*
X273303Y447125D01*
X273429Y447067D01*
X273553Y447005D01*
X273675Y446940D01*
X273795Y446871D01*
X273914Y446799D01*
X274030Y446724D01*
X274144Y446645D01*
X274256Y446563D01*
X274365Y446478D01*
X274473Y446391D01*
X274577Y446300D01*
X274679Y446206D01*
X274778Y446109D01*
X274875Y446010D01*
X274969Y445908D01*
X275060Y445804D01*
X275147Y445696D01*
X275232Y445587D01*
X275314Y445475D01*
X275393Y445361D01*
X275468Y445245D01*
X275540Y445126D01*
X275609Y445006D01*
X275674Y444884D01*
X275736Y444760D01*
X275794Y444634D01*
X275849Y444507D01*
X275900Y444378D01*
X275948Y444248D01*
X275992Y444117D01*
X276032Y443984D01*
X276068Y443851D01*
X276101Y443716D01*
X276130Y443581D01*
X276155Y443444D01*
X276177Y443307D01*
X276194Y443170D01*
X276208Y443032D01*
X276217Y442894D01*
X276223Y442756D01*
X276225Y442617D01*
X276225Y434714D01*
X276223Y434575D01*
X276217Y434437D01*
X276208Y434299D01*
X276194Y434161D01*
X276177Y434024D01*
X276155Y433887D01*
X276130Y433750D01*
X276101Y433615D01*
X276068Y433480D01*
X276032Y433347D01*
X275992Y433214D01*
X275948Y433083D01*
X275900Y432953D01*
X275849Y432824D01*
X275794Y432697D01*
X275736Y432571D01*
X275674Y432447D01*
X275609Y432325D01*
X275540Y432205D01*
X275468Y432086D01*
X275393Y431970D01*
X275314Y431856D01*
X275232Y431744D01*
X275147Y431635D01*
X275060Y431527D01*
X274969Y431423D01*
X274875Y431321D01*
X274778Y431222D01*
X274679Y431125D01*
X274577Y431031D01*
X274473Y430940D01*
X274365Y430853D01*
X274256Y430768D01*
X274144Y430686D01*
X274030Y430607D01*
X273914Y430532D01*
X273795Y430460D01*
X273675Y430391D01*
X273553Y430326D01*
X273429Y430264D01*
X273303Y430206D01*
X273176Y430151D01*
X273047Y430100D01*
X272917Y430052D01*
X272786Y430008D01*
X272653Y429968D01*
X272520Y429932D01*
X272385Y429899D01*
X272250Y429870D01*
X272113Y429845D01*
X271976Y429823D01*
X271839Y429806D01*
X271701Y429792D01*
X271563Y429783D01*
X271425Y429777D01*
X271286Y429775D01*
X271286Y429776D02*
X266347Y429776D01*
X294496Y429745D02*
X298448Y429745D01*
X294496Y429745D02*
X294372Y429747D01*
X294248Y429753D01*
X294124Y429763D01*
X294001Y429776D01*
X293878Y429794D01*
X293756Y429815D01*
X293634Y429840D01*
X293513Y429869D01*
X293394Y429902D01*
X293275Y429938D01*
X293158Y429979D01*
X293042Y430022D01*
X292927Y430070D01*
X292814Y430121D01*
X292702Y430176D01*
X292593Y430234D01*
X292485Y430295D01*
X292379Y430360D01*
X292275Y430428D01*
X292174Y430500D01*
X292074Y430574D01*
X291978Y430652D01*
X291883Y430732D01*
X291791Y430816D01*
X291702Y430902D01*
X291616Y430991D01*
X291532Y431083D01*
X291452Y431178D01*
X291374Y431274D01*
X291300Y431374D01*
X291228Y431475D01*
X291160Y431579D01*
X291095Y431685D01*
X291034Y431793D01*
X290976Y431902D01*
X290921Y432014D01*
X290870Y432127D01*
X290822Y432242D01*
X290779Y432358D01*
X290738Y432475D01*
X290702Y432594D01*
X290669Y432713D01*
X290640Y432834D01*
X290615Y432956D01*
X290594Y433078D01*
X290576Y433201D01*
X290563Y433324D01*
X290553Y433448D01*
X290547Y433572D01*
X290545Y433696D01*
X290545Y443574D01*
X290547Y443698D01*
X290553Y443822D01*
X290563Y443946D01*
X290576Y444069D01*
X290594Y444192D01*
X290615Y444314D01*
X290640Y444436D01*
X290669Y444557D01*
X290702Y444676D01*
X290738Y444795D01*
X290779Y444912D01*
X290822Y445028D01*
X290870Y445143D01*
X290921Y445256D01*
X290976Y445368D01*
X291034Y445477D01*
X291095Y445585D01*
X291160Y445691D01*
X291228Y445795D01*
X291300Y445896D01*
X291374Y445996D01*
X291452Y446092D01*
X291532Y446187D01*
X291616Y446279D01*
X291702Y446368D01*
X291791Y446454D01*
X291883Y446538D01*
X291978Y446618D01*
X292074Y446696D01*
X292174Y446770D01*
X292275Y446842D01*
X292379Y446910D01*
X292485Y446975D01*
X292593Y447036D01*
X292702Y447094D01*
X292814Y447149D01*
X292927Y447200D01*
X293042Y447248D01*
X293158Y447291D01*
X293275Y447332D01*
X293394Y447368D01*
X293513Y447401D01*
X293634Y447430D01*
X293756Y447455D01*
X293878Y447476D01*
X294001Y447494D01*
X294124Y447507D01*
X294248Y447517D01*
X294372Y447523D01*
X294496Y447525D01*
X298448Y447525D01*
X430458Y282705D02*
X430458Y264925D01*
X430458Y282705D02*
X435397Y282705D01*
X435397Y282706D02*
X435537Y282704D01*
X435676Y282698D01*
X435816Y282688D01*
X435955Y282674D01*
X436094Y282657D01*
X436232Y282635D01*
X436369Y282609D01*
X436506Y282580D01*
X436642Y282547D01*
X436776Y282510D01*
X436910Y282469D01*
X437042Y282424D01*
X437174Y282375D01*
X437303Y282323D01*
X437431Y282268D01*
X437558Y282208D01*
X437683Y282145D01*
X437806Y282079D01*
X437927Y282009D01*
X438046Y281936D01*
X438163Y281859D01*
X438277Y281779D01*
X438390Y281696D01*
X438500Y281610D01*
X438607Y281520D01*
X438712Y281428D01*
X438814Y281333D01*
X438914Y281235D01*
X439011Y281134D01*
X439105Y281030D01*
X439195Y280924D01*
X439283Y280815D01*
X439368Y280704D01*
X439449Y280590D01*
X439528Y280475D01*
X439603Y280357D01*
X439674Y280237D01*
X439742Y280114D01*
X439807Y279991D01*
X439868Y279865D01*
X439926Y279737D01*
X439980Y279609D01*
X440030Y279478D01*
X440077Y279346D01*
X440120Y279213D01*
X440159Y279079D01*
X440194Y278944D01*
X440225Y278808D01*
X440253Y278670D01*
X440276Y278533D01*
X440296Y278394D01*
X440312Y278255D01*
X440324Y278116D01*
X440332Y277977D01*
X440336Y277837D01*
X440336Y277697D01*
X440332Y277557D01*
X440324Y277418D01*
X440312Y277279D01*
X440296Y277140D01*
X440276Y277001D01*
X440253Y276864D01*
X440225Y276726D01*
X440194Y276590D01*
X440159Y276455D01*
X440120Y276321D01*
X440077Y276188D01*
X440030Y276056D01*
X439980Y275925D01*
X439926Y275797D01*
X439868Y275669D01*
X439807Y275543D01*
X439742Y275420D01*
X439674Y275298D01*
X439603Y275177D01*
X439528Y275059D01*
X439449Y274944D01*
X439368Y274830D01*
X439283Y274719D01*
X439195Y274610D01*
X439105Y274504D01*
X439011Y274400D01*
X438914Y274299D01*
X438814Y274201D01*
X438712Y274106D01*
X438607Y274014D01*
X438500Y273924D01*
X438390Y273838D01*
X438277Y273755D01*
X438163Y273675D01*
X438046Y273598D01*
X437927Y273525D01*
X437806Y273455D01*
X437683Y273389D01*
X437558Y273326D01*
X437431Y273266D01*
X437303Y273211D01*
X437174Y273159D01*
X437042Y273110D01*
X436910Y273065D01*
X436776Y273024D01*
X436642Y272987D01*
X436506Y272954D01*
X436369Y272925D01*
X436232Y272899D01*
X436094Y272877D01*
X435955Y272860D01*
X435816Y272846D01*
X435676Y272836D01*
X435537Y272830D01*
X435397Y272828D01*
X430458Y272828D01*
X451886Y282705D02*
X452018Y282703D01*
X452149Y282697D01*
X452281Y282687D01*
X452412Y282674D01*
X452542Y282656D01*
X452672Y282635D01*
X452802Y282610D01*
X452930Y282581D01*
X453058Y282548D01*
X453184Y282511D01*
X453310Y282471D01*
X453434Y282427D01*
X453557Y282379D01*
X453678Y282328D01*
X453798Y282273D01*
X453916Y282215D01*
X454032Y282153D01*
X454146Y282087D01*
X454259Y282019D01*
X454369Y281947D01*
X454477Y281872D01*
X454583Y281793D01*
X454687Y281712D01*
X454788Y281627D01*
X454886Y281540D01*
X454982Y281449D01*
X455075Y281356D01*
X455166Y281260D01*
X455253Y281162D01*
X455338Y281061D01*
X455419Y280957D01*
X455498Y280851D01*
X455573Y280743D01*
X455645Y280633D01*
X455713Y280520D01*
X455779Y280406D01*
X455841Y280290D01*
X455899Y280172D01*
X455954Y280052D01*
X456005Y279931D01*
X456053Y279808D01*
X456097Y279684D01*
X456137Y279558D01*
X456174Y279432D01*
X456207Y279304D01*
X456236Y279176D01*
X456261Y279046D01*
X456282Y278916D01*
X456300Y278786D01*
X456313Y278655D01*
X456323Y278523D01*
X456329Y278392D01*
X456331Y278260D01*
X451886Y282706D02*
X451736Y282704D01*
X451587Y282698D01*
X451438Y282688D01*
X451289Y282675D01*
X451140Y282657D01*
X450992Y282636D01*
X450844Y282610D01*
X450698Y282581D01*
X450552Y282548D01*
X450407Y282511D01*
X450263Y282470D01*
X450120Y282426D01*
X449978Y282378D01*
X449838Y282326D01*
X449699Y282271D01*
X449561Y282212D01*
X449426Y282149D01*
X449291Y282083D01*
X449159Y282013D01*
X449029Y281940D01*
X448900Y281863D01*
X448773Y281783D01*
X448649Y281700D01*
X448527Y281614D01*
X448407Y281524D01*
X448290Y281431D01*
X448175Y281336D01*
X448062Y281237D01*
X447952Y281135D01*
X447845Y281031D01*
X447741Y280924D01*
X447639Y280814D01*
X447541Y280701D01*
X447445Y280586D01*
X447353Y280468D01*
X447263Y280348D01*
X447177Y280226D01*
X447094Y280102D01*
X447014Y279975D01*
X446938Y279847D01*
X446865Y279716D01*
X446795Y279583D01*
X446729Y279449D01*
X446667Y279313D01*
X446608Y279176D01*
X446552Y279037D01*
X446501Y278896D01*
X446453Y278755D01*
X454848Y274803D02*
X454944Y274896D01*
X455036Y274992D01*
X455126Y275091D01*
X455213Y275192D01*
X455298Y275295D01*
X455379Y275400D01*
X455457Y275508D01*
X455532Y275618D01*
X455605Y275730D01*
X455674Y275844D01*
X455740Y275960D01*
X455802Y276078D01*
X455861Y276197D01*
X455917Y276318D01*
X455970Y276441D01*
X456019Y276565D01*
X456064Y276690D01*
X456107Y276817D01*
X456145Y276944D01*
X456180Y277073D01*
X456211Y277202D01*
X456239Y277333D01*
X456263Y277464D01*
X456284Y277596D01*
X456300Y277728D01*
X456313Y277861D01*
X456323Y277994D01*
X456328Y278127D01*
X456330Y278260D01*
X454849Y274803D02*
X446453Y264925D01*
X456331Y264925D01*
X421565Y277433D02*
X421565Y283360D01*
X421565Y277433D02*
X425023Y272988D01*
X421565Y277433D02*
X418108Y272988D01*
X421565Y277433D02*
X426998Y279408D01*
X421565Y277433D02*
X416133Y279408D01*
D122*
X439654Y370724D02*
X439654Y400184D01*
X439654Y370724D02*
X419994Y370724D01*
X419994Y400184D01*
X439654Y400184D01*
D123*
X418472Y376553D02*
X409074Y376553D01*
X409074Y380730D01*
X413251Y380730D02*
X413251Y376553D01*
X413251Y384591D02*
X413251Y387202D01*
X413253Y387303D01*
X413259Y387404D01*
X413269Y387505D01*
X413282Y387605D01*
X413300Y387705D01*
X413321Y387804D01*
X413347Y387902D01*
X413376Y387999D01*
X413408Y388095D01*
X413445Y388189D01*
X413485Y388282D01*
X413529Y388374D01*
X413576Y388463D01*
X413627Y388551D01*
X413681Y388637D01*
X413738Y388720D01*
X413798Y388802D01*
X413862Y388880D01*
X413928Y388957D01*
X413998Y389030D01*
X414070Y389101D01*
X414145Y389169D01*
X414223Y389234D01*
X414303Y389296D01*
X414385Y389355D01*
X414470Y389411D01*
X414557Y389463D01*
X414645Y389512D01*
X414736Y389558D01*
X414828Y389599D01*
X414922Y389638D01*
X415017Y389672D01*
X415113Y389703D01*
X415211Y389730D01*
X415309Y389754D01*
X415409Y389773D01*
X415509Y389789D01*
X415609Y389801D01*
X415710Y389809D01*
X415811Y389813D01*
X415913Y389813D01*
X416014Y389809D01*
X416115Y389801D01*
X416215Y389789D01*
X416315Y389773D01*
X416415Y389754D01*
X416513Y389730D01*
X416611Y389703D01*
X416707Y389672D01*
X416802Y389638D01*
X416896Y389599D01*
X416988Y389558D01*
X417079Y389512D01*
X417168Y389463D01*
X417254Y389411D01*
X417339Y389355D01*
X417421Y389296D01*
X417501Y389234D01*
X417579Y389169D01*
X417654Y389101D01*
X417726Y389030D01*
X417796Y388957D01*
X417862Y388880D01*
X417926Y388802D01*
X417986Y388720D01*
X418043Y388637D01*
X418097Y388551D01*
X418148Y388463D01*
X418195Y388374D01*
X418239Y388282D01*
X418279Y388189D01*
X418316Y388095D01*
X418348Y387999D01*
X418377Y387902D01*
X418403Y387804D01*
X418424Y387705D01*
X418442Y387605D01*
X418455Y387505D01*
X418465Y387404D01*
X418471Y387303D01*
X418473Y387202D01*
X418472Y387202D02*
X418472Y384591D01*
X409074Y384591D01*
X409074Y387202D01*
X409075Y387202D02*
X409077Y387292D01*
X409083Y387381D01*
X409092Y387471D01*
X409106Y387560D01*
X409123Y387648D01*
X409144Y387735D01*
X409169Y387822D01*
X409198Y387907D01*
X409230Y387991D01*
X409265Y388073D01*
X409305Y388154D01*
X409347Y388233D01*
X409393Y388310D01*
X409443Y388385D01*
X409495Y388458D01*
X409551Y388529D01*
X409609Y388597D01*
X409671Y388662D01*
X409735Y388725D01*
X409802Y388785D01*
X409871Y388842D01*
X409943Y388896D01*
X410017Y388947D01*
X410093Y388995D01*
X410171Y389039D01*
X410251Y389080D01*
X410333Y389118D01*
X410416Y389152D01*
X410501Y389182D01*
X410587Y389209D01*
X410673Y389232D01*
X410761Y389251D01*
X410850Y389266D01*
X410939Y389278D01*
X411028Y389286D01*
X411118Y389290D01*
X411208Y389290D01*
X411298Y389286D01*
X411387Y389278D01*
X411476Y389266D01*
X411565Y389251D01*
X411653Y389232D01*
X411739Y389209D01*
X411825Y389182D01*
X411910Y389152D01*
X411993Y389118D01*
X412075Y389080D01*
X412155Y389039D01*
X412233Y388995D01*
X412309Y388947D01*
X412383Y388896D01*
X412455Y388842D01*
X412524Y388785D01*
X412591Y388725D01*
X412655Y388662D01*
X412717Y388597D01*
X412775Y388529D01*
X412831Y388458D01*
X412883Y388385D01*
X412933Y388310D01*
X412979Y388233D01*
X413021Y388154D01*
X413061Y388073D01*
X413096Y387991D01*
X413128Y387907D01*
X413157Y387822D01*
X413182Y387735D01*
X413203Y387648D01*
X413220Y387560D01*
X413234Y387471D01*
X413243Y387381D01*
X413249Y387292D01*
X413251Y387202D01*
X411163Y393299D02*
X409074Y395910D01*
X418472Y395910D01*
X418472Y398520D02*
X418472Y393299D01*
D124*
X372996Y365103D02*
X324996Y365103D01*
X320996Y360603D01*
X372996Y365103D02*
X372996Y330103D01*
X320996Y330103D01*
X320996Y360603D01*
D123*
X338052Y366978D02*
X338052Y376376D01*
X340663Y376376D01*
X340663Y376377D02*
X340763Y376375D01*
X340863Y376369D01*
X340962Y376360D01*
X341062Y376346D01*
X341160Y376329D01*
X341258Y376308D01*
X341355Y376284D01*
X341451Y376255D01*
X341546Y376223D01*
X341639Y376188D01*
X341731Y376149D01*
X341822Y376106D01*
X341910Y376060D01*
X341997Y376010D01*
X342082Y375958D01*
X342165Y375902D01*
X342246Y375843D01*
X342324Y375780D01*
X342400Y375715D01*
X342474Y375647D01*
X342544Y375577D01*
X342612Y375503D01*
X342677Y375427D01*
X342740Y375349D01*
X342799Y375268D01*
X342855Y375185D01*
X342907Y375100D01*
X342957Y375013D01*
X343003Y374925D01*
X343046Y374834D01*
X343085Y374742D01*
X343120Y374649D01*
X343152Y374554D01*
X343181Y374458D01*
X343205Y374361D01*
X343226Y374263D01*
X343243Y374165D01*
X343257Y374065D01*
X343266Y373966D01*
X343272Y373866D01*
X343274Y373766D01*
X343273Y373766D02*
X343273Y369589D01*
X343274Y369589D02*
X343272Y369489D01*
X343266Y369389D01*
X343257Y369290D01*
X343243Y369190D01*
X343226Y369092D01*
X343205Y368994D01*
X343181Y368897D01*
X343152Y368801D01*
X343120Y368706D01*
X343085Y368613D01*
X343046Y368521D01*
X343003Y368430D01*
X342957Y368342D01*
X342907Y368255D01*
X342855Y368170D01*
X342799Y368087D01*
X342740Y368006D01*
X342677Y367928D01*
X342612Y367852D01*
X342544Y367778D01*
X342474Y367708D01*
X342400Y367640D01*
X342324Y367575D01*
X342246Y367512D01*
X342165Y367453D01*
X342082Y367397D01*
X341997Y367345D01*
X341910Y367295D01*
X341822Y367249D01*
X341731Y367206D01*
X341639Y367167D01*
X341546Y367132D01*
X341451Y367100D01*
X341355Y367071D01*
X341258Y367047D01*
X341160Y367026D01*
X341062Y367009D01*
X340962Y366995D01*
X340863Y366986D01*
X340763Y366980D01*
X340663Y366978D01*
X338052Y366978D01*
X350373Y376377D02*
X350468Y376375D01*
X350562Y376369D01*
X350656Y376360D01*
X350750Y376347D01*
X350843Y376330D01*
X350935Y376309D01*
X351027Y376284D01*
X351117Y376256D01*
X351206Y376224D01*
X351294Y376189D01*
X351380Y376150D01*
X351465Y376108D01*
X351548Y376062D01*
X351629Y376013D01*
X351708Y375961D01*
X351785Y375906D01*
X351859Y375847D01*
X351931Y375786D01*
X352001Y375722D01*
X352068Y375655D01*
X352132Y375585D01*
X352193Y375513D01*
X352252Y375439D01*
X352307Y375362D01*
X352359Y375283D01*
X352408Y375202D01*
X352454Y375119D01*
X352496Y375034D01*
X352535Y374948D01*
X352570Y374860D01*
X352602Y374771D01*
X352630Y374681D01*
X352655Y374589D01*
X352676Y374497D01*
X352693Y374404D01*
X352706Y374310D01*
X352715Y374216D01*
X352721Y374122D01*
X352723Y374027D01*
X350373Y376376D02*
X350265Y376374D01*
X350156Y376368D01*
X350048Y376358D01*
X349941Y376345D01*
X349834Y376327D01*
X349727Y376306D01*
X349622Y376281D01*
X349517Y376252D01*
X349414Y376220D01*
X349312Y376183D01*
X349211Y376143D01*
X349112Y376100D01*
X349014Y376053D01*
X348918Y376002D01*
X348824Y375948D01*
X348732Y375891D01*
X348642Y375830D01*
X348554Y375766D01*
X348469Y375700D01*
X348386Y375630D01*
X348306Y375557D01*
X348228Y375481D01*
X348153Y375403D01*
X348081Y375322D01*
X348012Y375238D01*
X347946Y375152D01*
X347883Y375064D01*
X347824Y374973D01*
X347767Y374881D01*
X347714Y374786D01*
X347665Y374690D01*
X347619Y374591D01*
X347576Y374492D01*
X347537Y374390D01*
X347502Y374288D01*
X351940Y372199D02*
X352009Y372268D01*
X352075Y372339D01*
X352139Y372412D01*
X352200Y372488D01*
X352258Y372567D01*
X352312Y372647D01*
X352364Y372730D01*
X352412Y372814D01*
X352458Y372900D01*
X352499Y372988D01*
X352538Y373078D01*
X352573Y373169D01*
X352604Y373261D01*
X352632Y373354D01*
X352656Y373448D01*
X352676Y373543D01*
X352693Y373639D01*
X352706Y373736D01*
X352715Y373833D01*
X352721Y373930D01*
X352723Y374027D01*
X351939Y372199D02*
X347501Y366978D01*
X352722Y366978D01*
D11*
X282725Y291056D02*
X282725Y277848D01*
X282725Y291056D02*
X311173Y291056D01*
X311173Y277848D01*
X282725Y277848D01*
D125*
X296949Y274419D03*
X287551Y294485D03*
X306347Y294485D03*
D123*
X275142Y275124D02*
X270965Y275124D01*
X270864Y275126D01*
X270763Y275132D01*
X270662Y275142D01*
X270562Y275155D01*
X270462Y275173D01*
X270363Y275194D01*
X270265Y275220D01*
X270168Y275249D01*
X270072Y275281D01*
X269978Y275318D01*
X269885Y275358D01*
X269793Y275402D01*
X269704Y275449D01*
X269616Y275500D01*
X269530Y275554D01*
X269447Y275611D01*
X269365Y275671D01*
X269287Y275735D01*
X269210Y275801D01*
X269137Y275871D01*
X269066Y275943D01*
X268998Y276018D01*
X268933Y276096D01*
X268871Y276176D01*
X268812Y276258D01*
X268756Y276343D01*
X268704Y276430D01*
X268655Y276518D01*
X268609Y276609D01*
X268568Y276701D01*
X268529Y276795D01*
X268495Y276890D01*
X268464Y276986D01*
X268437Y277084D01*
X268413Y277182D01*
X268394Y277282D01*
X268378Y277382D01*
X268366Y277482D01*
X268358Y277583D01*
X268354Y277684D01*
X268354Y277786D01*
X268358Y277887D01*
X268366Y277988D01*
X268378Y278088D01*
X268394Y278188D01*
X268413Y278288D01*
X268437Y278386D01*
X268464Y278484D01*
X268495Y278580D01*
X268529Y278675D01*
X268568Y278769D01*
X268609Y278861D01*
X268655Y278952D01*
X268704Y279041D01*
X268756Y279127D01*
X268812Y279212D01*
X268871Y279294D01*
X268933Y279374D01*
X268998Y279452D01*
X269066Y279527D01*
X269137Y279599D01*
X269210Y279669D01*
X269287Y279735D01*
X269365Y279799D01*
X269447Y279859D01*
X269530Y279916D01*
X269616Y279970D01*
X269704Y280021D01*
X269793Y280068D01*
X269885Y280112D01*
X269978Y280152D01*
X270072Y280189D01*
X270168Y280221D01*
X270265Y280250D01*
X270363Y280276D01*
X270462Y280297D01*
X270562Y280315D01*
X270662Y280328D01*
X270763Y280338D01*
X270864Y280344D01*
X270965Y280346D01*
X270965Y280345D02*
X275142Y280345D01*
X275142Y280346D02*
X275243Y280344D01*
X275344Y280338D01*
X275445Y280328D01*
X275545Y280315D01*
X275645Y280297D01*
X275744Y280276D01*
X275842Y280250D01*
X275939Y280221D01*
X276035Y280189D01*
X276129Y280152D01*
X276222Y280112D01*
X276314Y280068D01*
X276403Y280021D01*
X276491Y279970D01*
X276577Y279916D01*
X276660Y279859D01*
X276742Y279799D01*
X276820Y279735D01*
X276897Y279669D01*
X276970Y279599D01*
X277041Y279527D01*
X277109Y279452D01*
X277174Y279374D01*
X277236Y279294D01*
X277295Y279212D01*
X277351Y279127D01*
X277403Y279040D01*
X277452Y278952D01*
X277498Y278861D01*
X277539Y278769D01*
X277578Y278675D01*
X277612Y278580D01*
X277643Y278484D01*
X277670Y278386D01*
X277694Y278288D01*
X277713Y278188D01*
X277729Y278088D01*
X277741Y277988D01*
X277749Y277887D01*
X277753Y277786D01*
X277753Y277684D01*
X277749Y277583D01*
X277741Y277482D01*
X277729Y277382D01*
X277713Y277282D01*
X277694Y277182D01*
X277670Y277084D01*
X277643Y276986D01*
X277612Y276890D01*
X277578Y276795D01*
X277539Y276701D01*
X277498Y276609D01*
X277452Y276518D01*
X277403Y276430D01*
X277351Y276343D01*
X277295Y276258D01*
X277236Y276176D01*
X277174Y276096D01*
X277109Y276018D01*
X277041Y275943D01*
X276970Y275871D01*
X276897Y275801D01*
X276820Y275735D01*
X276742Y275671D01*
X276660Y275611D01*
X276577Y275554D01*
X276491Y275500D01*
X276403Y275449D01*
X276314Y275402D01*
X276222Y275358D01*
X276129Y275318D01*
X276035Y275281D01*
X275939Y275249D01*
X275842Y275220D01*
X275744Y275194D01*
X275645Y275173D01*
X275545Y275155D01*
X275445Y275142D01*
X275344Y275132D01*
X275243Y275126D01*
X275142Y275124D01*
X275664Y279301D02*
X277752Y281389D01*
X270443Y284056D02*
X268354Y286666D01*
X277752Y286666D01*
X277752Y284056D02*
X277752Y289277D01*
D11*
X452257Y339265D02*
X452257Y352473D01*
X452257Y339265D02*
X423809Y339265D01*
X423809Y352473D01*
X452257Y352473D01*
D125*
X438033Y355902D03*
X447431Y335836D03*
X428635Y335836D03*
D123*
X454993Y346867D02*
X454993Y351044D01*
X454995Y351145D01*
X455001Y351246D01*
X455011Y351347D01*
X455024Y351447D01*
X455042Y351547D01*
X455063Y351646D01*
X455089Y351744D01*
X455118Y351841D01*
X455150Y351937D01*
X455187Y352031D01*
X455227Y352124D01*
X455271Y352216D01*
X455318Y352305D01*
X455369Y352393D01*
X455423Y352479D01*
X455480Y352562D01*
X455540Y352644D01*
X455604Y352722D01*
X455670Y352799D01*
X455740Y352872D01*
X455812Y352943D01*
X455887Y353011D01*
X455965Y353076D01*
X456045Y353138D01*
X456127Y353197D01*
X456212Y353253D01*
X456299Y353305D01*
X456387Y353354D01*
X456478Y353400D01*
X456570Y353441D01*
X456664Y353480D01*
X456759Y353514D01*
X456855Y353545D01*
X456953Y353572D01*
X457051Y353596D01*
X457151Y353615D01*
X457251Y353631D01*
X457351Y353643D01*
X457452Y353651D01*
X457553Y353655D01*
X457655Y353655D01*
X457756Y353651D01*
X457857Y353643D01*
X457957Y353631D01*
X458057Y353615D01*
X458157Y353596D01*
X458255Y353572D01*
X458353Y353545D01*
X458449Y353514D01*
X458544Y353480D01*
X458638Y353441D01*
X458730Y353400D01*
X458821Y353354D01*
X458910Y353305D01*
X458996Y353253D01*
X459081Y353197D01*
X459163Y353138D01*
X459243Y353076D01*
X459321Y353011D01*
X459396Y352943D01*
X459468Y352872D01*
X459538Y352799D01*
X459604Y352722D01*
X459668Y352644D01*
X459728Y352562D01*
X459785Y352479D01*
X459839Y352393D01*
X459890Y352305D01*
X459937Y352216D01*
X459981Y352124D01*
X460021Y352031D01*
X460058Y351937D01*
X460090Y351841D01*
X460119Y351744D01*
X460145Y351646D01*
X460166Y351547D01*
X460184Y351447D01*
X460197Y351347D01*
X460207Y351246D01*
X460213Y351145D01*
X460215Y351044D01*
X460214Y351044D02*
X460214Y346867D01*
X460215Y346867D02*
X460213Y346766D01*
X460207Y346665D01*
X460197Y346564D01*
X460184Y346464D01*
X460166Y346364D01*
X460145Y346265D01*
X460119Y346167D01*
X460090Y346070D01*
X460058Y345974D01*
X460021Y345880D01*
X459981Y345787D01*
X459937Y345695D01*
X459890Y345606D01*
X459839Y345518D01*
X459785Y345432D01*
X459728Y345349D01*
X459668Y345267D01*
X459604Y345189D01*
X459538Y345112D01*
X459468Y345039D01*
X459396Y344968D01*
X459321Y344900D01*
X459243Y344835D01*
X459163Y344773D01*
X459081Y344714D01*
X458996Y344658D01*
X458909Y344606D01*
X458821Y344557D01*
X458730Y344511D01*
X458638Y344470D01*
X458544Y344431D01*
X458449Y344397D01*
X458353Y344366D01*
X458255Y344339D01*
X458157Y344315D01*
X458057Y344296D01*
X457957Y344280D01*
X457857Y344268D01*
X457756Y344260D01*
X457655Y344256D01*
X457553Y344256D01*
X457452Y344260D01*
X457351Y344268D01*
X457251Y344280D01*
X457151Y344296D01*
X457051Y344315D01*
X456953Y344339D01*
X456855Y344366D01*
X456759Y344397D01*
X456664Y344431D01*
X456570Y344470D01*
X456478Y344511D01*
X456387Y344557D01*
X456299Y344606D01*
X456212Y344658D01*
X456127Y344714D01*
X456045Y344773D01*
X455965Y344835D01*
X455887Y344900D01*
X455812Y344968D01*
X455740Y345039D01*
X455670Y345112D01*
X455604Y345189D01*
X455540Y345267D01*
X455480Y345349D01*
X455423Y345432D01*
X455369Y345518D01*
X455318Y345606D01*
X455271Y345695D01*
X455227Y345787D01*
X455187Y345880D01*
X455150Y345974D01*
X455118Y346070D01*
X455089Y346167D01*
X455063Y346265D01*
X455042Y346364D01*
X455024Y346464D01*
X455011Y346564D01*
X455001Y346665D01*
X454995Y346766D01*
X454993Y346867D01*
X459170Y346345D02*
X461259Y344257D01*
X469147Y351305D02*
X469145Y351400D01*
X469139Y351494D01*
X469130Y351588D01*
X469117Y351682D01*
X469100Y351775D01*
X469079Y351867D01*
X469054Y351959D01*
X469026Y352049D01*
X468994Y352138D01*
X468959Y352226D01*
X468920Y352312D01*
X468878Y352397D01*
X468832Y352480D01*
X468783Y352561D01*
X468731Y352640D01*
X468676Y352717D01*
X468617Y352791D01*
X468556Y352863D01*
X468492Y352933D01*
X468425Y353000D01*
X468355Y353064D01*
X468283Y353125D01*
X468209Y353184D01*
X468132Y353239D01*
X468053Y353291D01*
X467972Y353340D01*
X467889Y353386D01*
X467804Y353428D01*
X467718Y353467D01*
X467630Y353502D01*
X467541Y353534D01*
X467451Y353562D01*
X467359Y353587D01*
X467267Y353608D01*
X467174Y353625D01*
X467080Y353638D01*
X466986Y353647D01*
X466892Y353653D01*
X466797Y353655D01*
X466797Y353654D02*
X466689Y353652D01*
X466580Y353646D01*
X466472Y353636D01*
X466365Y353623D01*
X466258Y353605D01*
X466151Y353584D01*
X466046Y353559D01*
X465941Y353530D01*
X465838Y353498D01*
X465736Y353461D01*
X465635Y353421D01*
X465536Y353378D01*
X465438Y353331D01*
X465342Y353280D01*
X465248Y353226D01*
X465156Y353169D01*
X465066Y353108D01*
X464978Y353044D01*
X464893Y352978D01*
X464810Y352908D01*
X464730Y352835D01*
X464652Y352759D01*
X464577Y352681D01*
X464505Y352600D01*
X464436Y352516D01*
X464370Y352430D01*
X464307Y352342D01*
X464248Y352251D01*
X464191Y352159D01*
X464138Y352064D01*
X464089Y351968D01*
X464043Y351869D01*
X464000Y351770D01*
X463961Y351668D01*
X463926Y351566D01*
X468364Y349477D02*
X468433Y349546D01*
X468499Y349617D01*
X468563Y349690D01*
X468624Y349766D01*
X468682Y349845D01*
X468736Y349925D01*
X468788Y350008D01*
X468836Y350092D01*
X468882Y350178D01*
X468923Y350266D01*
X468962Y350356D01*
X468997Y350447D01*
X469028Y350539D01*
X469056Y350632D01*
X469080Y350726D01*
X469100Y350821D01*
X469117Y350917D01*
X469130Y351014D01*
X469139Y351111D01*
X469145Y351208D01*
X469147Y351305D01*
X468363Y349478D02*
X463925Y344257D01*
X469146Y344257D01*
D11*
X271018Y339265D02*
X271018Y352473D01*
X271018Y339265D02*
X242570Y339265D01*
X242570Y352473D01*
X271018Y352473D01*
D125*
X256794Y355902D03*
X266192Y335836D03*
X247396Y335836D03*
D123*
X221923Y347873D02*
X221923Y352050D01*
X221925Y352151D01*
X221931Y352252D01*
X221941Y352353D01*
X221954Y352453D01*
X221972Y352553D01*
X221993Y352652D01*
X222019Y352750D01*
X222048Y352847D01*
X222080Y352943D01*
X222117Y353037D01*
X222157Y353130D01*
X222201Y353222D01*
X222248Y353311D01*
X222299Y353399D01*
X222353Y353485D01*
X222410Y353568D01*
X222470Y353650D01*
X222534Y353728D01*
X222600Y353805D01*
X222670Y353878D01*
X222742Y353949D01*
X222817Y354017D01*
X222895Y354082D01*
X222975Y354144D01*
X223057Y354203D01*
X223142Y354259D01*
X223229Y354311D01*
X223317Y354360D01*
X223408Y354406D01*
X223500Y354447D01*
X223594Y354486D01*
X223689Y354520D01*
X223785Y354551D01*
X223883Y354578D01*
X223981Y354602D01*
X224081Y354621D01*
X224181Y354637D01*
X224281Y354649D01*
X224382Y354657D01*
X224483Y354661D01*
X224585Y354661D01*
X224686Y354657D01*
X224787Y354649D01*
X224887Y354637D01*
X224987Y354621D01*
X225087Y354602D01*
X225185Y354578D01*
X225283Y354551D01*
X225379Y354520D01*
X225474Y354486D01*
X225568Y354447D01*
X225660Y354406D01*
X225751Y354360D01*
X225840Y354311D01*
X225926Y354259D01*
X226011Y354203D01*
X226093Y354144D01*
X226173Y354082D01*
X226251Y354017D01*
X226326Y353949D01*
X226398Y353878D01*
X226468Y353805D01*
X226534Y353728D01*
X226598Y353650D01*
X226658Y353568D01*
X226715Y353485D01*
X226769Y353399D01*
X226820Y353311D01*
X226867Y353222D01*
X226911Y353130D01*
X226951Y353037D01*
X226988Y352943D01*
X227020Y352847D01*
X227049Y352750D01*
X227075Y352652D01*
X227096Y352553D01*
X227114Y352453D01*
X227127Y352353D01*
X227137Y352252D01*
X227143Y352151D01*
X227145Y352050D01*
X227144Y352050D02*
X227144Y347873D01*
X227145Y347873D02*
X227143Y347772D01*
X227137Y347671D01*
X227127Y347570D01*
X227114Y347470D01*
X227096Y347370D01*
X227075Y347271D01*
X227049Y347173D01*
X227020Y347076D01*
X226988Y346980D01*
X226951Y346886D01*
X226911Y346793D01*
X226867Y346701D01*
X226820Y346612D01*
X226769Y346524D01*
X226715Y346438D01*
X226658Y346355D01*
X226598Y346273D01*
X226534Y346195D01*
X226468Y346118D01*
X226398Y346045D01*
X226326Y345974D01*
X226251Y345906D01*
X226173Y345841D01*
X226093Y345779D01*
X226011Y345720D01*
X225926Y345664D01*
X225839Y345612D01*
X225751Y345563D01*
X225660Y345517D01*
X225568Y345476D01*
X225474Y345437D01*
X225379Y345403D01*
X225283Y345372D01*
X225185Y345345D01*
X225087Y345321D01*
X224987Y345302D01*
X224887Y345286D01*
X224787Y345274D01*
X224686Y345266D01*
X224585Y345262D01*
X224483Y345262D01*
X224382Y345266D01*
X224281Y345274D01*
X224181Y345286D01*
X224081Y345302D01*
X223981Y345321D01*
X223883Y345345D01*
X223785Y345372D01*
X223689Y345403D01*
X223594Y345437D01*
X223500Y345476D01*
X223408Y345517D01*
X223317Y345563D01*
X223229Y345612D01*
X223142Y345664D01*
X223057Y345720D01*
X222975Y345779D01*
X222895Y345841D01*
X222817Y345906D01*
X222742Y345974D01*
X222670Y346045D01*
X222600Y346118D01*
X222534Y346195D01*
X222470Y346273D01*
X222410Y346355D01*
X222353Y346438D01*
X222299Y346524D01*
X222248Y346612D01*
X222201Y346701D01*
X222157Y346793D01*
X222117Y346886D01*
X222080Y346980D01*
X222048Y347076D01*
X222019Y347173D01*
X221993Y347271D01*
X221972Y347370D01*
X221954Y347470D01*
X221941Y347570D01*
X221931Y347671D01*
X221925Y347772D01*
X221923Y347873D01*
X226100Y347351D02*
X228188Y345262D01*
X230855Y345262D02*
X233465Y345262D01*
X233566Y345264D01*
X233667Y345270D01*
X233768Y345280D01*
X233868Y345293D01*
X233968Y345311D01*
X234067Y345332D01*
X234165Y345358D01*
X234262Y345387D01*
X234358Y345419D01*
X234452Y345456D01*
X234545Y345496D01*
X234637Y345540D01*
X234726Y345587D01*
X234814Y345638D01*
X234900Y345692D01*
X234983Y345749D01*
X235065Y345809D01*
X235143Y345873D01*
X235220Y345939D01*
X235293Y346009D01*
X235364Y346081D01*
X235432Y346156D01*
X235497Y346234D01*
X235559Y346314D01*
X235618Y346396D01*
X235674Y346481D01*
X235726Y346568D01*
X235775Y346656D01*
X235821Y346747D01*
X235862Y346839D01*
X235901Y346933D01*
X235935Y347028D01*
X235966Y347124D01*
X235993Y347222D01*
X236017Y347320D01*
X236036Y347420D01*
X236052Y347520D01*
X236064Y347620D01*
X236072Y347721D01*
X236076Y347822D01*
X236076Y347924D01*
X236072Y348025D01*
X236064Y348126D01*
X236052Y348226D01*
X236036Y348326D01*
X236017Y348426D01*
X235993Y348524D01*
X235966Y348622D01*
X235935Y348718D01*
X235901Y348813D01*
X235862Y348907D01*
X235821Y348999D01*
X235775Y349090D01*
X235726Y349178D01*
X235674Y349265D01*
X235618Y349350D01*
X235559Y349432D01*
X235497Y349512D01*
X235432Y349590D01*
X235364Y349665D01*
X235293Y349737D01*
X235220Y349807D01*
X235143Y349873D01*
X235065Y349937D01*
X234983Y349997D01*
X234900Y350054D01*
X234814Y350108D01*
X234726Y350159D01*
X234637Y350206D01*
X234545Y350250D01*
X234452Y350290D01*
X234358Y350327D01*
X234262Y350359D01*
X234165Y350388D01*
X234067Y350414D01*
X233968Y350435D01*
X233868Y350453D01*
X233768Y350466D01*
X233667Y350476D01*
X233566Y350482D01*
X233465Y350484D01*
X233987Y354660D02*
X230855Y354660D01*
X233987Y354660D02*
X234077Y354658D01*
X234166Y354652D01*
X234256Y354643D01*
X234345Y354629D01*
X234433Y354612D01*
X234520Y354591D01*
X234607Y354566D01*
X234692Y354537D01*
X234776Y354505D01*
X234858Y354470D01*
X234939Y354430D01*
X235018Y354388D01*
X235095Y354342D01*
X235170Y354292D01*
X235243Y354240D01*
X235314Y354184D01*
X235382Y354126D01*
X235447Y354064D01*
X235510Y354000D01*
X235570Y353933D01*
X235627Y353864D01*
X235681Y353792D01*
X235732Y353718D01*
X235780Y353642D01*
X235824Y353564D01*
X235865Y353484D01*
X235903Y353402D01*
X235937Y353319D01*
X235967Y353234D01*
X235994Y353148D01*
X236017Y353062D01*
X236036Y352974D01*
X236051Y352885D01*
X236063Y352796D01*
X236071Y352707D01*
X236075Y352617D01*
X236075Y352527D01*
X236071Y352437D01*
X236063Y352348D01*
X236051Y352259D01*
X236036Y352170D01*
X236017Y352082D01*
X235994Y351996D01*
X235967Y351910D01*
X235937Y351825D01*
X235903Y351742D01*
X235865Y351660D01*
X235824Y351580D01*
X235780Y351502D01*
X235732Y351426D01*
X235681Y351352D01*
X235627Y351280D01*
X235570Y351211D01*
X235510Y351144D01*
X235447Y351080D01*
X235382Y351018D01*
X235314Y350960D01*
X235243Y350904D01*
X235170Y350852D01*
X235095Y350802D01*
X235018Y350756D01*
X234939Y350714D01*
X234858Y350674D01*
X234776Y350639D01*
X234692Y350607D01*
X234607Y350578D01*
X234520Y350553D01*
X234433Y350532D01*
X234345Y350515D01*
X234256Y350501D01*
X234166Y350492D01*
X234077Y350486D01*
X233987Y350484D01*
X233987Y350483D02*
X231899Y350483D01*
D122*
X278050Y346536D02*
X307510Y346536D01*
X278050Y346536D02*
X278050Y366196D01*
X307510Y366196D01*
X307510Y346536D01*
D123*
X285579Y369071D02*
X285579Y378469D01*
X288189Y378469D01*
X288290Y378467D01*
X288391Y378461D01*
X288492Y378451D01*
X288592Y378438D01*
X288692Y378420D01*
X288791Y378399D01*
X288889Y378373D01*
X288986Y378344D01*
X289082Y378312D01*
X289176Y378275D01*
X289269Y378235D01*
X289361Y378191D01*
X289450Y378144D01*
X289538Y378093D01*
X289624Y378039D01*
X289707Y377982D01*
X289789Y377922D01*
X289867Y377858D01*
X289944Y377792D01*
X290017Y377722D01*
X290088Y377650D01*
X290156Y377575D01*
X290221Y377497D01*
X290283Y377417D01*
X290342Y377335D01*
X290398Y377250D01*
X290450Y377163D01*
X290499Y377075D01*
X290545Y376984D01*
X290586Y376892D01*
X290625Y376798D01*
X290659Y376703D01*
X290690Y376607D01*
X290717Y376509D01*
X290741Y376411D01*
X290760Y376311D01*
X290776Y376211D01*
X290788Y376111D01*
X290796Y376010D01*
X290800Y375909D01*
X290800Y375807D01*
X290796Y375706D01*
X290788Y375605D01*
X290776Y375505D01*
X290760Y375405D01*
X290741Y375305D01*
X290717Y375207D01*
X290690Y375109D01*
X290659Y375013D01*
X290625Y374918D01*
X290586Y374824D01*
X290545Y374732D01*
X290499Y374641D01*
X290450Y374553D01*
X290398Y374466D01*
X290342Y374381D01*
X290283Y374299D01*
X290221Y374219D01*
X290156Y374141D01*
X290088Y374066D01*
X290017Y373994D01*
X289944Y373924D01*
X289867Y373858D01*
X289789Y373794D01*
X289707Y373734D01*
X289624Y373677D01*
X289538Y373623D01*
X289450Y373572D01*
X289361Y373525D01*
X289269Y373481D01*
X289176Y373441D01*
X289082Y373404D01*
X288986Y373372D01*
X288889Y373343D01*
X288791Y373317D01*
X288692Y373296D01*
X288592Y373278D01*
X288492Y373265D01*
X288391Y373255D01*
X288290Y373249D01*
X288189Y373247D01*
X288189Y373248D02*
X285579Y373248D01*
X288711Y373248D02*
X290800Y369071D01*
X294666Y371159D02*
X296754Y378469D01*
X294666Y371159D02*
X299887Y371159D01*
X298320Y369071D02*
X298320Y373248D01*
D122*
X385643Y366196D02*
X415103Y366196D01*
X415103Y346536D01*
X385643Y346536D01*
X385643Y366196D01*
D123*
X389151Y368070D02*
X389151Y377468D01*
X391761Y377468D01*
X391862Y377466D01*
X391963Y377460D01*
X392064Y377450D01*
X392164Y377437D01*
X392264Y377419D01*
X392363Y377398D01*
X392461Y377372D01*
X392558Y377343D01*
X392654Y377311D01*
X392748Y377274D01*
X392841Y377234D01*
X392933Y377190D01*
X393022Y377143D01*
X393110Y377092D01*
X393196Y377038D01*
X393279Y376981D01*
X393361Y376921D01*
X393439Y376857D01*
X393516Y376791D01*
X393589Y376721D01*
X393660Y376649D01*
X393728Y376574D01*
X393793Y376496D01*
X393855Y376416D01*
X393914Y376334D01*
X393970Y376249D01*
X394022Y376162D01*
X394071Y376074D01*
X394117Y375983D01*
X394158Y375891D01*
X394197Y375797D01*
X394231Y375702D01*
X394262Y375606D01*
X394289Y375508D01*
X394313Y375410D01*
X394332Y375310D01*
X394348Y375210D01*
X394360Y375110D01*
X394368Y375009D01*
X394372Y374908D01*
X394372Y374806D01*
X394368Y374705D01*
X394360Y374604D01*
X394348Y374504D01*
X394332Y374404D01*
X394313Y374304D01*
X394289Y374206D01*
X394262Y374108D01*
X394231Y374012D01*
X394197Y373917D01*
X394158Y373823D01*
X394117Y373731D01*
X394071Y373640D01*
X394022Y373552D01*
X393970Y373465D01*
X393914Y373380D01*
X393855Y373298D01*
X393793Y373218D01*
X393728Y373140D01*
X393660Y373065D01*
X393589Y372993D01*
X393516Y372923D01*
X393439Y372857D01*
X393361Y372793D01*
X393279Y372733D01*
X393196Y372676D01*
X393110Y372622D01*
X393022Y372571D01*
X392933Y372524D01*
X392841Y372480D01*
X392748Y372440D01*
X392654Y372403D01*
X392558Y372371D01*
X392461Y372342D01*
X392363Y372316D01*
X392264Y372295D01*
X392164Y372277D01*
X392064Y372264D01*
X391963Y372254D01*
X391862Y372248D01*
X391761Y372246D01*
X391761Y372247D02*
X389151Y372247D01*
X392284Y372247D02*
X394372Y368070D01*
X398238Y368070D02*
X401371Y368070D01*
X401460Y368072D01*
X401548Y368078D01*
X401636Y368087D01*
X401724Y368100D01*
X401811Y368117D01*
X401897Y368137D01*
X401982Y368162D01*
X402067Y368189D01*
X402150Y368221D01*
X402231Y368255D01*
X402311Y368294D01*
X402389Y368335D01*
X402466Y368380D01*
X402540Y368428D01*
X402613Y368479D01*
X402683Y368533D01*
X402750Y368591D01*
X402816Y368651D01*
X402878Y368713D01*
X402938Y368779D01*
X402996Y368846D01*
X403050Y368916D01*
X403101Y368989D01*
X403149Y369063D01*
X403194Y369140D01*
X403235Y369218D01*
X403274Y369298D01*
X403308Y369379D01*
X403340Y369462D01*
X403367Y369547D01*
X403392Y369632D01*
X403412Y369718D01*
X403429Y369805D01*
X403442Y369893D01*
X403451Y369981D01*
X403457Y370069D01*
X403459Y370158D01*
X403459Y371203D01*
X403457Y371292D01*
X403451Y371380D01*
X403442Y371468D01*
X403429Y371556D01*
X403412Y371643D01*
X403392Y371729D01*
X403367Y371814D01*
X403340Y371899D01*
X403308Y371982D01*
X403274Y372063D01*
X403235Y372143D01*
X403194Y372221D01*
X403149Y372298D01*
X403101Y372372D01*
X403050Y372445D01*
X402996Y372515D01*
X402938Y372582D01*
X402878Y372648D01*
X402816Y372710D01*
X402750Y372770D01*
X402683Y372828D01*
X402613Y372882D01*
X402540Y372933D01*
X402466Y372981D01*
X402389Y373026D01*
X402311Y373067D01*
X402231Y373106D01*
X402150Y373140D01*
X402067Y373172D01*
X401982Y373199D01*
X401897Y373224D01*
X401811Y373244D01*
X401724Y373261D01*
X401636Y373274D01*
X401548Y373283D01*
X401460Y373289D01*
X401371Y373291D01*
X398238Y373291D01*
X398238Y377468D01*
X403459Y377468D01*
D122*
X345007Y259128D02*
X315547Y259128D01*
X315547Y278788D01*
X345007Y278788D01*
X345007Y259128D01*
D123*
X324981Y257813D02*
X324981Y248415D01*
X324981Y257813D02*
X327591Y257813D01*
X327692Y257811D01*
X327793Y257805D01*
X327894Y257795D01*
X327994Y257782D01*
X328094Y257764D01*
X328193Y257743D01*
X328291Y257717D01*
X328388Y257688D01*
X328484Y257656D01*
X328578Y257619D01*
X328671Y257579D01*
X328763Y257535D01*
X328852Y257488D01*
X328940Y257437D01*
X329026Y257383D01*
X329109Y257326D01*
X329191Y257266D01*
X329269Y257202D01*
X329346Y257136D01*
X329419Y257066D01*
X329490Y256994D01*
X329558Y256919D01*
X329623Y256841D01*
X329685Y256761D01*
X329744Y256679D01*
X329800Y256594D01*
X329852Y256507D01*
X329901Y256419D01*
X329947Y256328D01*
X329988Y256236D01*
X330027Y256142D01*
X330061Y256047D01*
X330092Y255951D01*
X330119Y255853D01*
X330143Y255755D01*
X330162Y255655D01*
X330178Y255555D01*
X330190Y255455D01*
X330198Y255354D01*
X330202Y255253D01*
X330202Y255151D01*
X330198Y255050D01*
X330190Y254949D01*
X330178Y254849D01*
X330162Y254749D01*
X330143Y254649D01*
X330119Y254551D01*
X330092Y254453D01*
X330061Y254357D01*
X330027Y254262D01*
X329988Y254168D01*
X329947Y254076D01*
X329901Y253985D01*
X329852Y253896D01*
X329800Y253810D01*
X329744Y253725D01*
X329685Y253643D01*
X329623Y253563D01*
X329558Y253485D01*
X329490Y253410D01*
X329419Y253338D01*
X329346Y253268D01*
X329269Y253202D01*
X329191Y253138D01*
X329109Y253078D01*
X329026Y253021D01*
X328940Y252967D01*
X328852Y252916D01*
X328763Y252869D01*
X328671Y252825D01*
X328578Y252785D01*
X328484Y252748D01*
X328388Y252716D01*
X328291Y252687D01*
X328193Y252661D01*
X328094Y252640D01*
X327994Y252622D01*
X327894Y252609D01*
X327793Y252599D01*
X327692Y252593D01*
X327591Y252591D01*
X327591Y252592D02*
X324981Y252592D01*
X328113Y252592D02*
X330202Y248415D01*
X334068Y253636D02*
X337200Y253636D01*
X337200Y253635D02*
X337289Y253633D01*
X337377Y253627D01*
X337465Y253618D01*
X337553Y253605D01*
X337640Y253588D01*
X337726Y253568D01*
X337811Y253543D01*
X337896Y253516D01*
X337979Y253484D01*
X338060Y253450D01*
X338140Y253411D01*
X338218Y253370D01*
X338295Y253325D01*
X338369Y253277D01*
X338442Y253226D01*
X338512Y253172D01*
X338579Y253114D01*
X338645Y253054D01*
X338707Y252992D01*
X338767Y252926D01*
X338825Y252859D01*
X338879Y252789D01*
X338930Y252716D01*
X338978Y252642D01*
X339023Y252565D01*
X339064Y252487D01*
X339103Y252407D01*
X339137Y252326D01*
X339169Y252243D01*
X339196Y252158D01*
X339221Y252073D01*
X339241Y251987D01*
X339258Y251900D01*
X339271Y251812D01*
X339280Y251724D01*
X339286Y251636D01*
X339288Y251547D01*
X339289Y251547D02*
X339289Y251025D01*
X339287Y250924D01*
X339281Y250823D01*
X339271Y250722D01*
X339258Y250622D01*
X339240Y250522D01*
X339219Y250423D01*
X339193Y250325D01*
X339164Y250228D01*
X339132Y250132D01*
X339095Y250038D01*
X339055Y249945D01*
X339011Y249853D01*
X338964Y249764D01*
X338913Y249676D01*
X338859Y249590D01*
X338802Y249507D01*
X338742Y249425D01*
X338678Y249347D01*
X338612Y249270D01*
X338542Y249197D01*
X338470Y249126D01*
X338395Y249058D01*
X338317Y248993D01*
X338237Y248931D01*
X338155Y248872D01*
X338070Y248816D01*
X337983Y248764D01*
X337895Y248715D01*
X337804Y248669D01*
X337712Y248628D01*
X337618Y248589D01*
X337523Y248555D01*
X337427Y248524D01*
X337329Y248497D01*
X337231Y248473D01*
X337131Y248454D01*
X337031Y248438D01*
X336931Y248426D01*
X336830Y248418D01*
X336729Y248414D01*
X336627Y248414D01*
X336526Y248418D01*
X336425Y248426D01*
X336325Y248438D01*
X336225Y248454D01*
X336125Y248473D01*
X336027Y248497D01*
X335929Y248524D01*
X335833Y248555D01*
X335738Y248589D01*
X335644Y248628D01*
X335552Y248669D01*
X335461Y248715D01*
X335373Y248764D01*
X335286Y248816D01*
X335201Y248872D01*
X335119Y248931D01*
X335039Y248993D01*
X334961Y249058D01*
X334886Y249126D01*
X334814Y249197D01*
X334744Y249270D01*
X334678Y249347D01*
X334614Y249425D01*
X334554Y249507D01*
X334497Y249590D01*
X334443Y249676D01*
X334392Y249764D01*
X334345Y249853D01*
X334301Y249945D01*
X334261Y250038D01*
X334224Y250132D01*
X334192Y250228D01*
X334163Y250325D01*
X334137Y250423D01*
X334116Y250522D01*
X334098Y250622D01*
X334085Y250722D01*
X334075Y250823D01*
X334069Y250924D01*
X334067Y251025D01*
X334068Y251025D02*
X334068Y253636D01*
X334067Y253636D02*
X334069Y253765D01*
X334075Y253893D01*
X334085Y254021D01*
X334099Y254149D01*
X334116Y254277D01*
X334138Y254404D01*
X334164Y254530D01*
X334193Y254655D01*
X334226Y254779D01*
X334264Y254902D01*
X334304Y255024D01*
X334349Y255145D01*
X334397Y255264D01*
X334449Y255382D01*
X334505Y255498D01*
X334564Y255612D01*
X334627Y255724D01*
X334693Y255835D01*
X334762Y255943D01*
X334835Y256049D01*
X334911Y256153D01*
X334990Y256255D01*
X335072Y256354D01*
X335157Y256450D01*
X335245Y256544D01*
X335336Y256635D01*
X335430Y256723D01*
X335526Y256808D01*
X335625Y256890D01*
X335727Y256969D01*
X335831Y257045D01*
X335937Y257118D01*
X336045Y257187D01*
X336155Y257253D01*
X336268Y257316D01*
X336382Y257375D01*
X336498Y257431D01*
X336616Y257483D01*
X336735Y257531D01*
X336856Y257576D01*
X336978Y257616D01*
X337101Y257654D01*
X337225Y257687D01*
X337350Y257716D01*
X337476Y257742D01*
X337603Y257764D01*
X337731Y257781D01*
X337859Y257795D01*
X337987Y257805D01*
X338115Y257811D01*
X338244Y257813D01*
D122*
X345007Y280007D02*
X315547Y280007D01*
X315547Y299667D01*
X345007Y299667D01*
X345007Y280007D01*
D123*
X327038Y300637D02*
X327038Y310035D01*
X329649Y310035D01*
X329649Y310036D02*
X329750Y310034D01*
X329851Y310028D01*
X329952Y310018D01*
X330052Y310005D01*
X330152Y309987D01*
X330251Y309966D01*
X330349Y309940D01*
X330446Y309911D01*
X330542Y309879D01*
X330636Y309842D01*
X330729Y309802D01*
X330821Y309758D01*
X330910Y309711D01*
X330998Y309660D01*
X331084Y309606D01*
X331167Y309549D01*
X331249Y309489D01*
X331327Y309425D01*
X331404Y309359D01*
X331477Y309289D01*
X331548Y309217D01*
X331616Y309142D01*
X331681Y309064D01*
X331743Y308984D01*
X331802Y308902D01*
X331858Y308817D01*
X331910Y308730D01*
X331959Y308642D01*
X332005Y308551D01*
X332046Y308459D01*
X332085Y308365D01*
X332119Y308270D01*
X332150Y308174D01*
X332177Y308076D01*
X332201Y307978D01*
X332220Y307878D01*
X332236Y307778D01*
X332248Y307678D01*
X332256Y307577D01*
X332260Y307476D01*
X332260Y307374D01*
X332256Y307273D01*
X332248Y307172D01*
X332236Y307072D01*
X332220Y306972D01*
X332201Y306872D01*
X332177Y306774D01*
X332150Y306676D01*
X332119Y306580D01*
X332085Y306485D01*
X332046Y306391D01*
X332005Y306299D01*
X331959Y306208D01*
X331910Y306120D01*
X331858Y306033D01*
X331802Y305948D01*
X331743Y305866D01*
X331681Y305786D01*
X331616Y305708D01*
X331548Y305633D01*
X331477Y305561D01*
X331404Y305491D01*
X331327Y305425D01*
X331249Y305361D01*
X331167Y305301D01*
X331084Y305244D01*
X330998Y305190D01*
X330910Y305139D01*
X330821Y305092D01*
X330729Y305048D01*
X330636Y305008D01*
X330542Y304971D01*
X330446Y304939D01*
X330349Y304910D01*
X330251Y304884D01*
X330152Y304863D01*
X330052Y304845D01*
X329952Y304832D01*
X329851Y304822D01*
X329750Y304816D01*
X329649Y304814D01*
X327038Y304814D01*
X330171Y304814D02*
X332259Y300637D01*
X336125Y308991D02*
X336125Y310035D01*
X341346Y310035D01*
X338736Y300637D01*
D122*
X385643Y334710D02*
X415103Y334710D01*
X415103Y315050D01*
X385643Y315050D01*
X385643Y334710D01*
D123*
X392174Y336000D02*
X392174Y345398D01*
X394784Y345398D01*
X394885Y345396D01*
X394986Y345390D01*
X395087Y345380D01*
X395187Y345367D01*
X395287Y345349D01*
X395386Y345328D01*
X395484Y345302D01*
X395581Y345273D01*
X395677Y345241D01*
X395771Y345204D01*
X395864Y345164D01*
X395956Y345120D01*
X396045Y345073D01*
X396133Y345022D01*
X396219Y344968D01*
X396302Y344911D01*
X396384Y344851D01*
X396462Y344787D01*
X396539Y344721D01*
X396612Y344651D01*
X396683Y344579D01*
X396751Y344504D01*
X396816Y344426D01*
X396878Y344346D01*
X396937Y344264D01*
X396993Y344179D01*
X397045Y344092D01*
X397094Y344004D01*
X397140Y343913D01*
X397181Y343821D01*
X397220Y343727D01*
X397254Y343632D01*
X397285Y343536D01*
X397312Y343438D01*
X397336Y343340D01*
X397355Y343240D01*
X397371Y343140D01*
X397383Y343040D01*
X397391Y342939D01*
X397395Y342838D01*
X397395Y342736D01*
X397391Y342635D01*
X397383Y342534D01*
X397371Y342434D01*
X397355Y342334D01*
X397336Y342234D01*
X397312Y342136D01*
X397285Y342038D01*
X397254Y341942D01*
X397220Y341847D01*
X397181Y341753D01*
X397140Y341661D01*
X397094Y341570D01*
X397045Y341482D01*
X396993Y341395D01*
X396937Y341310D01*
X396878Y341228D01*
X396816Y341148D01*
X396751Y341070D01*
X396683Y340995D01*
X396612Y340923D01*
X396539Y340853D01*
X396462Y340787D01*
X396384Y340723D01*
X396302Y340663D01*
X396219Y340606D01*
X396133Y340552D01*
X396045Y340501D01*
X395956Y340454D01*
X395864Y340410D01*
X395771Y340370D01*
X395677Y340333D01*
X395581Y340301D01*
X395484Y340272D01*
X395386Y340246D01*
X395287Y340225D01*
X395187Y340207D01*
X395087Y340194D01*
X394986Y340184D01*
X394885Y340178D01*
X394784Y340176D01*
X394784Y340177D02*
X392174Y340177D01*
X395306Y340177D02*
X397395Y336000D01*
X401260Y338611D02*
X401262Y338712D01*
X401268Y338813D01*
X401278Y338914D01*
X401291Y339014D01*
X401309Y339114D01*
X401330Y339213D01*
X401356Y339311D01*
X401385Y339408D01*
X401417Y339504D01*
X401454Y339598D01*
X401494Y339691D01*
X401538Y339783D01*
X401585Y339872D01*
X401636Y339960D01*
X401690Y340046D01*
X401747Y340129D01*
X401807Y340211D01*
X401871Y340289D01*
X401937Y340366D01*
X402007Y340439D01*
X402079Y340510D01*
X402154Y340578D01*
X402232Y340643D01*
X402312Y340705D01*
X402394Y340764D01*
X402479Y340820D01*
X402566Y340872D01*
X402654Y340921D01*
X402745Y340967D01*
X402837Y341008D01*
X402931Y341047D01*
X403026Y341081D01*
X403122Y341112D01*
X403220Y341139D01*
X403318Y341163D01*
X403418Y341182D01*
X403518Y341198D01*
X403618Y341210D01*
X403719Y341218D01*
X403820Y341222D01*
X403922Y341222D01*
X404023Y341218D01*
X404124Y341210D01*
X404224Y341198D01*
X404324Y341182D01*
X404424Y341163D01*
X404522Y341139D01*
X404620Y341112D01*
X404716Y341081D01*
X404811Y341047D01*
X404905Y341008D01*
X404997Y340967D01*
X405088Y340921D01*
X405177Y340872D01*
X405263Y340820D01*
X405348Y340764D01*
X405430Y340705D01*
X405510Y340643D01*
X405588Y340578D01*
X405663Y340510D01*
X405735Y340439D01*
X405805Y340366D01*
X405871Y340289D01*
X405935Y340211D01*
X405995Y340129D01*
X406052Y340046D01*
X406106Y339960D01*
X406157Y339872D01*
X406204Y339783D01*
X406248Y339691D01*
X406288Y339598D01*
X406325Y339504D01*
X406357Y339408D01*
X406386Y339311D01*
X406412Y339213D01*
X406433Y339114D01*
X406451Y339014D01*
X406464Y338914D01*
X406474Y338813D01*
X406480Y338712D01*
X406482Y338611D01*
X406480Y338510D01*
X406474Y338409D01*
X406464Y338308D01*
X406451Y338208D01*
X406433Y338108D01*
X406412Y338009D01*
X406386Y337911D01*
X406357Y337814D01*
X406325Y337718D01*
X406288Y337624D01*
X406248Y337531D01*
X406204Y337439D01*
X406157Y337350D01*
X406106Y337262D01*
X406052Y337176D01*
X405995Y337093D01*
X405935Y337011D01*
X405871Y336933D01*
X405805Y336856D01*
X405735Y336783D01*
X405663Y336712D01*
X405588Y336644D01*
X405510Y336579D01*
X405430Y336517D01*
X405348Y336458D01*
X405263Y336402D01*
X405176Y336350D01*
X405088Y336301D01*
X404997Y336255D01*
X404905Y336214D01*
X404811Y336175D01*
X404716Y336141D01*
X404620Y336110D01*
X404522Y336083D01*
X404424Y336059D01*
X404324Y336040D01*
X404224Y336024D01*
X404124Y336012D01*
X404023Y336004D01*
X403922Y336000D01*
X403820Y336000D01*
X403719Y336004D01*
X403618Y336012D01*
X403518Y336024D01*
X403418Y336040D01*
X403318Y336059D01*
X403220Y336083D01*
X403122Y336110D01*
X403026Y336141D01*
X402931Y336175D01*
X402837Y336214D01*
X402745Y336255D01*
X402654Y336301D01*
X402566Y336350D01*
X402479Y336402D01*
X402394Y336458D01*
X402312Y336517D01*
X402232Y336579D01*
X402154Y336644D01*
X402079Y336712D01*
X402007Y336783D01*
X401937Y336856D01*
X401871Y336933D01*
X401807Y337011D01*
X401747Y337093D01*
X401690Y337176D01*
X401636Y337262D01*
X401585Y337350D01*
X401538Y337439D01*
X401494Y337531D01*
X401454Y337624D01*
X401417Y337718D01*
X401385Y337814D01*
X401356Y337911D01*
X401330Y338009D01*
X401309Y338108D01*
X401291Y338208D01*
X401278Y338308D01*
X401268Y338409D01*
X401262Y338510D01*
X401260Y338611D01*
X401783Y343310D02*
X401785Y343400D01*
X401791Y343489D01*
X401800Y343579D01*
X401814Y343668D01*
X401831Y343756D01*
X401852Y343843D01*
X401877Y343930D01*
X401906Y344015D01*
X401938Y344099D01*
X401973Y344181D01*
X402013Y344262D01*
X402055Y344341D01*
X402101Y344418D01*
X402151Y344493D01*
X402203Y344566D01*
X402259Y344637D01*
X402317Y344705D01*
X402379Y344770D01*
X402443Y344833D01*
X402510Y344893D01*
X402579Y344950D01*
X402651Y345004D01*
X402725Y345055D01*
X402801Y345103D01*
X402879Y345147D01*
X402959Y345188D01*
X403041Y345226D01*
X403124Y345260D01*
X403209Y345290D01*
X403295Y345317D01*
X403381Y345340D01*
X403469Y345359D01*
X403558Y345374D01*
X403647Y345386D01*
X403736Y345394D01*
X403826Y345398D01*
X403916Y345398D01*
X404006Y345394D01*
X404095Y345386D01*
X404184Y345374D01*
X404273Y345359D01*
X404361Y345340D01*
X404447Y345317D01*
X404533Y345290D01*
X404618Y345260D01*
X404701Y345226D01*
X404783Y345188D01*
X404863Y345147D01*
X404941Y345103D01*
X405017Y345055D01*
X405091Y345004D01*
X405163Y344950D01*
X405232Y344893D01*
X405299Y344833D01*
X405363Y344770D01*
X405425Y344705D01*
X405483Y344637D01*
X405539Y344566D01*
X405591Y344493D01*
X405641Y344418D01*
X405687Y344341D01*
X405729Y344262D01*
X405769Y344181D01*
X405804Y344099D01*
X405836Y344015D01*
X405865Y343930D01*
X405890Y343843D01*
X405911Y343756D01*
X405928Y343668D01*
X405942Y343579D01*
X405951Y343489D01*
X405957Y343400D01*
X405959Y343310D01*
X405957Y343220D01*
X405951Y343131D01*
X405942Y343041D01*
X405928Y342952D01*
X405911Y342864D01*
X405890Y342777D01*
X405865Y342690D01*
X405836Y342605D01*
X405804Y342521D01*
X405769Y342439D01*
X405729Y342358D01*
X405687Y342279D01*
X405641Y342202D01*
X405591Y342127D01*
X405539Y342054D01*
X405483Y341983D01*
X405425Y341915D01*
X405363Y341850D01*
X405299Y341787D01*
X405232Y341727D01*
X405163Y341670D01*
X405091Y341616D01*
X405017Y341565D01*
X404941Y341517D01*
X404863Y341473D01*
X404783Y341432D01*
X404701Y341394D01*
X404618Y341360D01*
X404533Y341330D01*
X404447Y341303D01*
X404361Y341280D01*
X404273Y341261D01*
X404184Y341246D01*
X404095Y341234D01*
X404006Y341226D01*
X403916Y341222D01*
X403826Y341222D01*
X403736Y341226D01*
X403647Y341234D01*
X403558Y341246D01*
X403469Y341261D01*
X403381Y341280D01*
X403295Y341303D01*
X403209Y341330D01*
X403124Y341360D01*
X403041Y341394D01*
X402959Y341432D01*
X402879Y341473D01*
X402801Y341517D01*
X402725Y341565D01*
X402651Y341616D01*
X402579Y341670D01*
X402510Y341727D01*
X402443Y341787D01*
X402379Y341850D01*
X402317Y341915D01*
X402259Y341983D01*
X402203Y342054D01*
X402151Y342127D01*
X402101Y342202D01*
X402055Y342279D01*
X402013Y342358D01*
X401973Y342439D01*
X401938Y342521D01*
X401906Y342605D01*
X401877Y342690D01*
X401852Y342777D01*
X401831Y342864D01*
X401814Y342952D01*
X401800Y343041D01*
X401791Y343131D01*
X401785Y343220D01*
X401783Y343310D01*
D122*
X307510Y315050D02*
X278050Y315050D01*
X278050Y334710D01*
X307510Y334710D01*
X307510Y315050D01*
D123*
X286849Y336061D02*
X286849Y345459D01*
X289459Y345459D01*
X289560Y345457D01*
X289661Y345451D01*
X289762Y345441D01*
X289862Y345428D01*
X289962Y345410D01*
X290061Y345389D01*
X290159Y345363D01*
X290256Y345334D01*
X290352Y345302D01*
X290446Y345265D01*
X290539Y345225D01*
X290631Y345181D01*
X290720Y345134D01*
X290808Y345083D01*
X290894Y345029D01*
X290977Y344972D01*
X291059Y344912D01*
X291137Y344848D01*
X291214Y344782D01*
X291287Y344712D01*
X291358Y344640D01*
X291426Y344565D01*
X291491Y344487D01*
X291553Y344407D01*
X291612Y344325D01*
X291668Y344240D01*
X291720Y344153D01*
X291769Y344065D01*
X291815Y343974D01*
X291856Y343882D01*
X291895Y343788D01*
X291929Y343693D01*
X291960Y343597D01*
X291987Y343499D01*
X292011Y343401D01*
X292030Y343301D01*
X292046Y343201D01*
X292058Y343101D01*
X292066Y343000D01*
X292070Y342899D01*
X292070Y342797D01*
X292066Y342696D01*
X292058Y342595D01*
X292046Y342495D01*
X292030Y342395D01*
X292011Y342295D01*
X291987Y342197D01*
X291960Y342099D01*
X291929Y342003D01*
X291895Y341908D01*
X291856Y341814D01*
X291815Y341722D01*
X291769Y341631D01*
X291720Y341543D01*
X291668Y341456D01*
X291612Y341371D01*
X291553Y341289D01*
X291491Y341209D01*
X291426Y341131D01*
X291358Y341056D01*
X291287Y340984D01*
X291214Y340914D01*
X291137Y340848D01*
X291059Y340784D01*
X290977Y340724D01*
X290894Y340667D01*
X290808Y340613D01*
X290720Y340562D01*
X290631Y340515D01*
X290539Y340471D01*
X290446Y340431D01*
X290352Y340394D01*
X290256Y340362D01*
X290159Y340333D01*
X290061Y340307D01*
X289962Y340286D01*
X289862Y340268D01*
X289762Y340255D01*
X289661Y340245D01*
X289560Y340239D01*
X289459Y340237D01*
X289459Y340238D02*
X286849Y340238D01*
X289981Y340238D02*
X292070Y336061D01*
X298024Y340238D02*
X301157Y340238D01*
X298024Y340238D02*
X297935Y340240D01*
X297847Y340246D01*
X297759Y340255D01*
X297671Y340268D01*
X297584Y340285D01*
X297498Y340305D01*
X297413Y340330D01*
X297328Y340357D01*
X297245Y340389D01*
X297164Y340423D01*
X297084Y340462D01*
X297006Y340503D01*
X296929Y340548D01*
X296855Y340596D01*
X296782Y340647D01*
X296712Y340701D01*
X296645Y340759D01*
X296579Y340819D01*
X296517Y340881D01*
X296457Y340947D01*
X296399Y341014D01*
X296345Y341084D01*
X296294Y341157D01*
X296246Y341231D01*
X296201Y341308D01*
X296160Y341386D01*
X296121Y341466D01*
X296087Y341547D01*
X296055Y341630D01*
X296028Y341715D01*
X296003Y341800D01*
X295983Y341886D01*
X295966Y341973D01*
X295953Y342061D01*
X295944Y342149D01*
X295938Y342237D01*
X295936Y342326D01*
X295936Y342848D01*
X295935Y342848D02*
X295937Y342949D01*
X295943Y343050D01*
X295953Y343151D01*
X295966Y343251D01*
X295984Y343351D01*
X296005Y343450D01*
X296031Y343548D01*
X296060Y343645D01*
X296092Y343741D01*
X296129Y343835D01*
X296169Y343928D01*
X296213Y344020D01*
X296260Y344109D01*
X296311Y344197D01*
X296365Y344283D01*
X296422Y344366D01*
X296482Y344448D01*
X296546Y344526D01*
X296612Y344603D01*
X296682Y344676D01*
X296754Y344747D01*
X296829Y344815D01*
X296907Y344880D01*
X296987Y344942D01*
X297069Y345001D01*
X297154Y345057D01*
X297241Y345109D01*
X297329Y345158D01*
X297420Y345204D01*
X297512Y345245D01*
X297606Y345284D01*
X297701Y345318D01*
X297797Y345349D01*
X297895Y345376D01*
X297993Y345400D01*
X298093Y345419D01*
X298193Y345435D01*
X298293Y345447D01*
X298394Y345455D01*
X298495Y345459D01*
X298597Y345459D01*
X298698Y345455D01*
X298799Y345447D01*
X298899Y345435D01*
X298999Y345419D01*
X299099Y345400D01*
X299197Y345376D01*
X299295Y345349D01*
X299391Y345318D01*
X299486Y345284D01*
X299580Y345245D01*
X299672Y345204D01*
X299763Y345158D01*
X299852Y345109D01*
X299938Y345057D01*
X300023Y345001D01*
X300105Y344942D01*
X300185Y344880D01*
X300263Y344815D01*
X300338Y344747D01*
X300410Y344676D01*
X300480Y344603D01*
X300546Y344526D01*
X300610Y344448D01*
X300670Y344366D01*
X300727Y344283D01*
X300781Y344197D01*
X300832Y344109D01*
X300879Y344020D01*
X300923Y343928D01*
X300963Y343835D01*
X301000Y343741D01*
X301032Y343645D01*
X301061Y343548D01*
X301087Y343450D01*
X301108Y343351D01*
X301126Y343251D01*
X301139Y343151D01*
X301149Y343050D01*
X301155Y342949D01*
X301157Y342848D01*
X301157Y340238D01*
X301155Y340112D01*
X301149Y339986D01*
X301140Y339860D01*
X301127Y339735D01*
X301109Y339610D01*
X301089Y339485D01*
X301064Y339361D01*
X301036Y339238D01*
X301004Y339116D01*
X300968Y338995D01*
X300929Y338875D01*
X300886Y338757D01*
X300839Y338640D01*
X300789Y338524D01*
X300735Y338409D01*
X300679Y338297D01*
X300618Y338186D01*
X300555Y338077D01*
X300488Y337970D01*
X300418Y337865D01*
X300344Y337762D01*
X300268Y337662D01*
X300189Y337564D01*
X300107Y337468D01*
X300021Y337375D01*
X299934Y337284D01*
X299843Y337197D01*
X299750Y337111D01*
X299654Y337029D01*
X299556Y336950D01*
X299456Y336874D01*
X299353Y336800D01*
X299248Y336730D01*
X299141Y336663D01*
X299032Y336600D01*
X298921Y336539D01*
X298809Y336483D01*
X298694Y336429D01*
X298578Y336379D01*
X298461Y336332D01*
X298343Y336289D01*
X298223Y336250D01*
X298102Y336214D01*
X297980Y336182D01*
X297857Y336154D01*
X297733Y336129D01*
X297608Y336109D01*
X297483Y336091D01*
X297358Y336078D01*
X297232Y336069D01*
X297106Y336063D01*
X296980Y336061D01*
D124*
X379369Y453959D02*
X379369Y456459D01*
X379369Y453959D02*
X379369Y451459D01*
X379369Y453959D02*
X384369Y456459D01*
X384369Y451459D02*
X379369Y453959D01*
X384369Y451459D02*
X384369Y456459D01*
X394369Y458959D02*
X394369Y448959D01*
X369369Y448959D01*
X369369Y458959D01*
X394369Y458959D01*
D123*
X376028Y460807D02*
X376028Y470205D01*
X378639Y470205D01*
X378639Y470206D02*
X378739Y470204D01*
X378839Y470198D01*
X378938Y470189D01*
X379038Y470175D01*
X379136Y470158D01*
X379234Y470137D01*
X379331Y470113D01*
X379427Y470084D01*
X379522Y470052D01*
X379615Y470017D01*
X379707Y469978D01*
X379798Y469935D01*
X379886Y469889D01*
X379973Y469839D01*
X380058Y469787D01*
X380141Y469731D01*
X380222Y469672D01*
X380300Y469609D01*
X380376Y469544D01*
X380450Y469476D01*
X380520Y469406D01*
X380588Y469332D01*
X380653Y469256D01*
X380716Y469178D01*
X380775Y469097D01*
X380831Y469014D01*
X380883Y468929D01*
X380933Y468842D01*
X380979Y468754D01*
X381022Y468663D01*
X381061Y468571D01*
X381096Y468478D01*
X381128Y468383D01*
X381157Y468287D01*
X381181Y468190D01*
X381202Y468092D01*
X381219Y467994D01*
X381233Y467894D01*
X381242Y467795D01*
X381248Y467695D01*
X381250Y467595D01*
X381249Y467595D02*
X381249Y463418D01*
X381250Y463418D02*
X381248Y463318D01*
X381242Y463218D01*
X381233Y463119D01*
X381219Y463019D01*
X381202Y462921D01*
X381181Y462823D01*
X381157Y462726D01*
X381128Y462630D01*
X381096Y462535D01*
X381061Y462442D01*
X381022Y462350D01*
X380979Y462259D01*
X380933Y462171D01*
X380883Y462084D01*
X380831Y461999D01*
X380775Y461916D01*
X380716Y461835D01*
X380653Y461757D01*
X380588Y461681D01*
X380520Y461607D01*
X380450Y461537D01*
X380376Y461469D01*
X380300Y461404D01*
X380222Y461341D01*
X380141Y461282D01*
X380058Y461226D01*
X379973Y461174D01*
X379886Y461124D01*
X379798Y461078D01*
X379707Y461035D01*
X379615Y460996D01*
X379522Y460961D01*
X379427Y460929D01*
X379331Y460900D01*
X379234Y460876D01*
X379136Y460855D01*
X379038Y460838D01*
X378938Y460824D01*
X378839Y460815D01*
X378739Y460809D01*
X378639Y460807D01*
X376028Y460807D01*
X385477Y468117D02*
X388087Y470205D01*
X388087Y460807D01*
X385477Y460807D02*
X390698Y460807D01*
D11*
X445126Y314369D02*
X457826Y314369D01*
X464176Y308019D01*
X464176Y295319D01*
X457826Y288969D01*
X438776Y295319D02*
X438776Y308019D01*
X445126Y314369D01*
X438776Y295319D02*
X445126Y288969D01*
X457826Y288969D01*
D122*
X396599Y437438D02*
X367139Y437438D01*
X396599Y437438D02*
X396599Y417778D01*
X367139Y417778D01*
X367139Y437438D01*
D123*
X373889Y438362D02*
X373889Y447760D01*
X376499Y447760D01*
X376499Y447761D02*
X376600Y447759D01*
X376701Y447753D01*
X376802Y447743D01*
X376902Y447730D01*
X377002Y447712D01*
X377101Y447691D01*
X377199Y447665D01*
X377296Y447636D01*
X377392Y447604D01*
X377486Y447567D01*
X377579Y447527D01*
X377671Y447483D01*
X377760Y447436D01*
X377848Y447385D01*
X377934Y447331D01*
X378017Y447274D01*
X378099Y447214D01*
X378177Y447150D01*
X378254Y447084D01*
X378327Y447014D01*
X378398Y446942D01*
X378466Y446867D01*
X378531Y446789D01*
X378593Y446709D01*
X378652Y446627D01*
X378708Y446542D01*
X378760Y446455D01*
X378809Y446367D01*
X378855Y446276D01*
X378896Y446184D01*
X378935Y446090D01*
X378969Y445995D01*
X379000Y445899D01*
X379027Y445801D01*
X379051Y445703D01*
X379070Y445603D01*
X379086Y445503D01*
X379098Y445403D01*
X379106Y445302D01*
X379110Y445201D01*
X379110Y445099D01*
X379106Y444998D01*
X379098Y444897D01*
X379086Y444797D01*
X379070Y444697D01*
X379051Y444597D01*
X379027Y444499D01*
X379000Y444401D01*
X378969Y444305D01*
X378935Y444210D01*
X378896Y444116D01*
X378855Y444024D01*
X378809Y443933D01*
X378760Y443845D01*
X378708Y443758D01*
X378652Y443673D01*
X378593Y443591D01*
X378531Y443511D01*
X378466Y443433D01*
X378398Y443358D01*
X378327Y443286D01*
X378254Y443216D01*
X378177Y443150D01*
X378099Y443086D01*
X378017Y443026D01*
X377934Y442969D01*
X377848Y442915D01*
X377760Y442864D01*
X377671Y442817D01*
X377579Y442773D01*
X377486Y442733D01*
X377392Y442696D01*
X377296Y442664D01*
X377199Y442635D01*
X377101Y442609D01*
X377002Y442588D01*
X376902Y442570D01*
X376802Y442557D01*
X376701Y442547D01*
X376600Y442541D01*
X376499Y442539D01*
X373889Y442539D01*
X377021Y442539D02*
X379110Y438362D01*
X382976Y445672D02*
X385586Y447760D01*
X385586Y438362D01*
X382976Y438362D02*
X388197Y438362D01*
D11*
X326365Y396947D02*
X313665Y396947D01*
X307315Y403297D01*
X307315Y415997D01*
X313665Y422347D01*
X307315Y403297D02*
X300965Y396947D01*
X288265Y396947D01*
X281915Y403297D01*
X281915Y415997D01*
X288265Y422347D01*
X300965Y422347D01*
X307315Y415997D01*
X332715Y415997D02*
X332715Y403297D01*
X326365Y396947D01*
X332715Y415997D02*
X326365Y422347D01*
X313665Y422347D01*
X281915Y403297D02*
X275565Y396947D01*
X262865Y396947D01*
X256515Y403297D01*
X256515Y415997D01*
X262865Y422347D01*
X275565Y422347D01*
X281915Y415997D01*
M02*
